<svg xmlns="http://www.w3.org/2000/svg" xmlns:xlink="http://www.w3.org/1999/xlink" xmlns:s="https://github.com/nturley/netlistsvg" width="1590" height="882.5">
  <style>svg {
    stroke:#000;
    fill:none;
  }
  text {
    fill:#000;
    stroke:none;
    font-size:10px;
    font-weight: bold;
    font-family: "Courier New", monospace;
  }
  .nodelabel {
    text-anchor: middle;
  }
  .inputPortLabel {
    text-anchor: end;
  }
  .splitjoinBody {
    fill:#000;
  }</style>
  <g s:type="add" transform="translate(837.6666666666666,652.5)" s:width="25" s:height="25" id="cell_\48">
    <s:alias val="$add"/>
    <circle r="12.5" cx="12.5" cy="12.5" class="cell_\48"/>
    <line x1="7.5" x2="17.5" y1="12.5" y2="12.5" class="cell_\48"/>
    <line x1="12.5" x2="12.5" y1="7.5" y2="17.5" class="cell_\48"/>
    <g s:x="3" s:y="5" s:pid="A"/>
    <g s:x="3" s:y="20" s:pid="B"/>
    <g s:x="25" s:y="12.5" s:pid="Y"/>
  </g>
  <g s:type="generic" transform="translate(1203.5,748.5)" s:width="30" s:height="40" id="cell_\52">
    <text x="15" y="-4" class="nodelabel cell_\52" s:attribute="ref">$logic_not</text>
    <rect width="30" height="20" s:generic="body" class="cell_\52"/>
    <g transform="translate(0,10)" s:x="0" s:y="10" s:pid="in0" id="port_\52~A">
      <text x="-3" y="-4" class="inputPortLabel cell_\52">A</text>
    </g>
    <g transform="translate(30,10)" s:x="30" s:y="10" s:pid="out0" id="port_\52~Y">
      <text x="5" y="-4" style="fill:#000; stroke:none" class="cell_\52">Y</text>
    </g>
  </g>
  <g s:type="and" transform="translate(1309,807)" s:width="30" s:height="25" id="cell_\53">
    <s:alias val="$and"/>
    <s:alias val="$logic_and"/>
    <s:alias val="$_AND_"/>
    <path d="M0,0 L0,25 L15,25 A15 12.5 0 0 0 15,0 Z" class="cell_\53"/>
    <g s:x="0" s:y="5" s:pid="A"/>
    <g s:x="0" s:y="20" s:pid="B"/>
    <g s:x="30" s:y="12.5" s:pid="Y"/>
  </g>
  <g s:type="mux" transform="translate(1408.6666666666667,697.5)" s:width="20" s:height="40" id="cell_\56">
    <s:alias val="$pmux"/>
    <s:alias val="$mux"/>
    <s:alias val="$_MUX_"/>
    <path d="M0,0 L20,10 L20,30 L0,40 Z" class="cell_\56"/>
    <g s:x="0" s:y="10" s:pid="A"/>
    <g s:x="0" s:y="30" s:pid="B"/>
    <g s:x="10" s:y="35" s:pid="S"/>
    <g s:x="20" s:y="20" s:pid="Y"/>
  </g>
  <g s:type="dff" transform="translate(947,657.5)" s:width="30" s:height="40" id="cell_\58">
    <s:alias val="$dff"/>
    <s:alias val="$_DFF_"/>
    <rect width="30" height="40" x="0" y="0" class="cell_\58"/>
    <path d="M0,35 L5,30 L0,25" class="cell_\58"/>
    <g s:x="30" s:y="10" s:pid="Q"/>
    <g s:x="0" s:y="30" s:pid="CLK"/>
    <g s:x="0" s:y="10" s:pid="D"/>
  </g>
  <g s:type="and" transform="translate(947,299.5)" s:width="30" s:height="25" id="cell_\62">
    <s:alias val="$and"/>
    <s:alias val="$logic_and"/>
    <s:alias val="$_AND_"/>
    <path d="M0,0 L0,25 L15,25 A15 12.5 0 0 0 15,0 Z" class="cell_\62"/>
    <g s:x="0" s:y="5" s:pid="A"/>
    <g s:x="0" s:y="20" s:pid="B"/>
    <g s:x="30" s:y="12.5" s:pid="Y"/>
  </g>
  <g s:type="not" transform="translate(947,397)" s:width="30" s:height="20" id="cell_\63">
    <s:alias val="$_NOT_"/>
    <s:alias val="$not"/>
    <path d="M0,0 L0,20 L20,10 Z" class="cell_\63"/>
    <circle cx="23" cy="10" r="3" class="cell_\63"/>
    <g s:x="0" s:y="10" s:pid="A"/>
    <g s:x="25" s:y="10" s:pid="Y"/>
  </g>
  <g s:type="and" transform="translate(1014,387)" s:width="30" s:height="25" id="cell_\64">
    <s:alias val="$and"/>
    <s:alias val="$logic_and"/>
    <s:alias val="$_AND_"/>
    <path d="M0,0 L0,25 L15,25 A15 12.5 0 0 0 15,0 Z" class="cell_\64"/>
    <g s:x="0" s:y="5" s:pid="A"/>
    <g s:x="0" s:y="20" s:pid="B"/>
    <g s:x="30" s:y="12.5" s:pid="Y"/>
  </g>
  <g s:type="not" transform="translate(1012,223)" s:width="30" s:height="20" id="cell_\65">
    <s:alias val="$_NOT_"/>
    <s:alias val="$not"/>
    <path d="M0,0 L0,20 L20,10 Z" class="cell_\65"/>
    <circle cx="23" cy="10" r="3" class="cell_\65"/>
    <g s:x="0" s:y="10" s:pid="A"/>
    <g s:x="25" s:y="10" s:pid="Y"/>
  </g>
  <g s:type="and" transform="translate(1090.3333333333333,394.5)" s:width="30" s:height="25" id="cell_\66">
    <s:alias val="$and"/>
    <s:alias val="$logic_and"/>
    <s:alias val="$_AND_"/>
    <path d="M0,0 L0,25 L15,25 A15 12.5 0 0 0 15,0 Z" class="cell_\66"/>
    <g s:x="0" s:y="5" s:pid="A"/>
    <g s:x="0" s:y="20" s:pid="B"/>
    <g s:x="30" s:y="12.5" s:pid="Y"/>
  </g>
  <g s:type="generic" transform="translate(1090,464.5)" s:width="30" s:height="40" id="cell_\69">
    <text x="15" y="-4" class="nodelabel cell_\69" s:attribute="ref">$logic_not</text>
    <rect width="30" height="20" s:generic="body" class="cell_\69"/>
    <g transform="translate(0,10)" s:x="0" s:y="10" s:pid="in0" id="port_\69~A">
      <text x="-3" y="-4" class="inputPortLabel cell_\69">A</text>
    </g>
    <g transform="translate(30,10)" s:x="30" s:y="10" s:pid="out0" id="port_\69~Y">
      <text x="5" y="-4" style="fill:#000; stroke:none" class="cell_\69">Y</text>
    </g>
  </g>
  <g s:type="and" transform="translate(1202.3333333333333,455)" s:width="30" s:height="25" id="cell_\70">
    <s:alias val="$and"/>
    <s:alias val="$logic_and"/>
    <s:alias val="$_AND_"/>
    <path d="M0,0 L0,25 L15,25 A15 12.5 0 0 0 15,0 Z" class="cell_\70"/>
    <g s:x="0" s:y="5" s:pid="A"/>
    <g s:x="0" s:y="20" s:pid="B"/>
    <g s:x="30" s:y="12.5" s:pid="Y"/>
  </g>
  <g s:type="mux" transform="translate(1312.3333333333333,128)" s:width="20" s:height="40" id="cell_\73">
    <s:alias val="$pmux"/>
    <s:alias val="$mux"/>
    <s:alias val="$_MUX_"/>
    <path d="M0,0 L20,10 L20,30 L0,40 Z" class="cell_\73"/>
    <g s:x="0" s:y="10" s:pid="A"/>
    <g s:x="0" s:y="30" s:pid="B"/>
    <g s:x="10" s:y="35" s:pid="S"/>
    <g s:x="20" s:y="20" s:pid="Y"/>
  </g>
  <g s:type="mux" transform="translate(1408.6666666666667,223)" s:width="20" s:height="40" id="cell_\77">
    <s:alias val="$pmux"/>
    <s:alias val="$mux"/>
    <s:alias val="$_MUX_"/>
    <path d="M0,0 L20,10 L20,30 L0,40 Z" class="cell_\77"/>
    <g s:x="0" s:y="10" s:pid="A"/>
    <g s:x="0" s:y="30" s:pid="B"/>
    <g s:x="10" s:y="35" s:pid="S"/>
    <g s:x="20" s:y="20" s:pid="Y"/>
  </g>
  <g s:type="dff" transform="translate(1405.3333333333333,148)" s:width="30" s:height="40" id="cell_\87">
    <s:alias val="$dff"/>
    <s:alias val="$_DFF_"/>
    <rect width="30" height="40" x="0" y="0" class="cell_\87"/>
    <path d="M0,35 L5,30 L0,25" class="cell_\87"/>
    <g s:x="30" s:y="10" s:pid="Q"/>
    <g s:x="0" s:y="30" s:pid="CLK"/>
    <g s:x="0" s:y="10" s:pid="D"/>
  </g>
  <g s:type="dff" transform="translate(1508,243)" s:width="30" s:height="40" id="cell_\88">
    <s:alias val="$dff"/>
    <s:alias val="$_DFF_"/>
    <rect width="30" height="40" x="0" y="0" class="cell_\88"/>
    <path d="M0,35 L5,30 L0,25" class="cell_\88"/>
    <g s:x="30" s:y="10" s:pid="Q"/>
    <g s:x="0" s:y="30" s:pid="CLK"/>
    <g s:x="0" s:y="10" s:pid="D"/>
  </g>
  <g s:type="generic" transform="translate(120,487)" s:width="30" s:height="40" id="cell_dut1">
    <text x="15" y="-4" class="nodelabel cell_dut1" s:attribute="ref">SB_HFOSC</text>
    <rect width="30" height="40" s:generic="body" class="cell_dut1"/>
    <g transform="translate(0,10)" s:x="0" s:y="10" s:pid="in0" id="port_dut1~CLKHFEN">
      <text x="-3" y="-4" class="inputPortLabel cell_dut1">CLKHFEN</text>
    </g>
    <g transform="translate(0,30)" s:x="0" s:y="10" s:pid="in0" id="port_dut1~CLKHFPU">
      <text x="-3" y="-4" class="inputPortLabel cell_dut1">CLKHFPU</text>
    </g>
    <g transform="translate(30,10)" s:x="30" s:y="10" s:pid="out0" id="port_dut1~CLKHF">
      <text x="5" y="-4" style="fill:#000; stroke:none" class="cell_dut1">CLKHF</text>
    </g>
  </g>
  <g s:type="generic" transform="translate(1200,816.5)" s:width="30" s:height="40" id="cell_dut2">
    <text x="15" y="-4" class="nodelabel cell_dut2" s:attribute="ref">pwm</text>
    <rect width="30" height="40" s:generic="body" class="cell_dut2"/>
    <g transform="translate(0,10)" s:x="0" s:y="10" s:pid="in0" id="port_dut2~bright">
      <text x="-3" y="-4" class="inputPortLabel cell_dut2">bright</text>
    </g>
    <g transform="translate(0,30)" s:x="0" s:y="10" s:pid="in0" id="port_dut2~clk">
      <text x="-3" y="-4" class="inputPortLabel cell_dut2">clk</text>
    </g>
    <g transform="translate(30,10)" s:x="30" s:y="10" s:pid="out0" id="port_dut2~sig_out">
      <text x="5" y="-4" style="fill:#000; stroke:none" class="cell_dut2">sig_out</text>
    </g>
  </g>
  <g s:type="generic" transform="translate(630.3333333333334,518.5)" s:width="30" s:height="40" id="cell_dut3">
    <text x="15" y="-4" class="nodelabel cell_dut3" s:attribute="ref">divide_by_n_16</text>
    <rect width="30" height="40" s:generic="body" class="cell_dut3"/>
    <g transform="translate(0,10)" s:x="0" s:y="10" s:pid="in0" id="port_dut3~clk">
      <text x="-3" y="-4" class="inputPortLabel cell_dut3">clk</text>
    </g>
    <g transform="translate(0,30)" s:x="0" s:y="10" s:pid="in0" id="port_dut3~reset">
      <text x="-3" y="-4" class="inputPortLabel cell_dut3">reset</text>
    </g>
    <g transform="translate(30,10)" s:x="30" s:y="10" s:pid="out0" id="port_dut3~sig_out">
      <text x="5" y="-4" style="fill:#000; stroke:none" class="cell_dut3">sig_out</text>
    </g>
  </g>
  <g s:type="generic" transform="translate(263,328)" s:width="30" s:height="40" id="cell_dut4">
    <text x="15" y="-4" class="nodelabel cell_dut4" s:attribute="ref">divide_by_n_4</text>
    <rect width="30" height="40" s:generic="body" class="cell_dut4"/>
    <g transform="translate(0,10)" s:x="0" s:y="10" s:pid="in0" id="port_dut4~clk">
      <text x="-3" y="-4" class="inputPortLabel cell_dut4">clk</text>
    </g>
    <g transform="translate(0,30)" s:x="0" s:y="10" s:pid="in0" id="port_dut4~reset">
      <text x="-3" y="-4" class="inputPortLabel cell_dut4">reset</text>
    </g>
    <g transform="translate(30,10)" s:x="30" s:y="10" s:pid="out0" id="port_dut4~sig_out">
      <text x="5" y="-4" style="fill:#000; stroke:none" class="cell_dut4">sig_out</text>
    </g>
  </g>
  <g s:type="generic" transform="translate(844,518.5)" s:width="30" s:height="40" id="cell_dut5">
    <text x="15" y="-4" class="nodelabel cell_dut5" s:attribute="ref">uart_tx</text>
    <rect width="30" height="100" s:generic="body" class="cell_dut5"/>
    <g transform="translate(0,10)" s:x="0" s:y="10" s:pid="in0" id="port_dut5~baud_x1">
      <text x="-3" y="-4" class="inputPortLabel cell_dut5">baud_x1</text>
    </g>
    <g transform="translate(0,30)" s:x="0" s:y="10" s:pid="in0" id="port_dut5~data">
      <text x="-3" y="-4" class="inputPortLabel cell_dut5">data</text>
    </g>
    <g transform="translate(0,50)" s:x="0" s:y="10" s:pid="in0" id="port_dut5~data_strobe">
      <text x="-3" y="-4" class="inputPortLabel cell_dut5">data_strobe</text>
    </g>
    <g transform="translate(0,70)" s:x="0" s:y="10" s:pid="in0" id="port_dut5~mclk">
      <text x="-3" y="-4" class="inputPortLabel cell_dut5">mclk</text>
    </g>
    <g transform="translate(0,90)" s:x="0" s:y="10" s:pid="in0" id="port_dut5~reset">
      <text x="-3" y="-4" class="inputPortLabel cell_dut5">reset</text>
    </g>
    <g transform="translate(30,10)" s:x="30" s:y="10" s:pid="out0" id="port_dut5~ready">
      <text x="5" y="-4" style="fill:#000; stroke:none" class="cell_dut5">ready</text>
    </g>
    <g transform="translate(30,30)" s:x="30" s:y="10" s:pid="out0" id="port_dut5~serial">
      <text x="5" y="-4" style="fill:#000; stroke:none" class="cell_dut5">serial</text>
    </g>
  </g>
  <g s:type="generic" transform="translate(420,376.5)" s:width="30" s:height="40" id="cell_dut6">
    <text x="15" y="-4" class="nodelabel cell_dut6" s:attribute="ref">uart_rx</text>
    <rect width="30" height="80" s:generic="body" class="cell_dut6"/>
    <g transform="translate(0,10)" s:x="0" s:y="10" s:pid="in0" id="port_dut6~baud_x4">
      <text x="-3" y="-4" class="inputPortLabel cell_dut6">baud_x4</text>
    </g>
    <g transform="translate(0,30)" s:x="0" s:y="10" s:pid="in0" id="port_dut6~mclk">
      <text x="-3" y="-4" class="inputPortLabel cell_dut6">mclk</text>
    </g>
    <g transform="translate(0,50)" s:x="0" s:y="10" s:pid="in0" id="port_dut6~reset">
      <text x="-3" y="-4" class="inputPortLabel cell_dut6">reset</text>
    </g>
    <g transform="translate(0,70)" s:x="0" s:y="10" s:pid="in0" id="port_dut6~serial">
      <text x="-3" y="-4" class="inputPortLabel cell_dut6">serial</text>
    </g>
    <g transform="translate(30,10)" s:x="30" s:y="10" s:pid="out0" id="port_dut6~data">
      <text x="5" y="-4" style="fill:#000; stroke:none" class="cell_dut6">data</text>
    </g>
    <g transform="translate(30,30)" s:x="30" s:y="10" s:pid="out0" id="port_dut6~data_strobe">
      <text x="5" y="-4" style="fill:#000; stroke:none" class="cell_dut6">data_strobe</text>
    </g>
  </g>
  <g s:type="generic" transform="translate(626,294)" s:width="30" s:height="40" id="cell_dut7">
    <text x="15" y="-4" class="nodelabel cell_dut7" s:attribute="ref">fifo_spram_8_15</text>
    <rect width="30" height="100" s:generic="body" class="cell_dut7"/>
    <g transform="translate(0,10)" s:x="0" s:y="10" s:pid="in0" id="port_dut7~clk">
      <text x="-3" y="-4" class="inputPortLabel cell_dut7">clk</text>
    </g>
    <g transform="translate(0,30)" s:x="0" s:y="10" s:pid="in0" id="port_dut7~read_strobe">
      <text x="-3" y="-4" class="inputPortLabel cell_dut7">read_strobe</text>
    </g>
    <g transform="translate(0,50)" s:x="0" s:y="10" s:pid="in0" id="port_dut7~reset">
      <text x="-3" y="-4" class="inputPortLabel cell_dut7">reset</text>
    </g>
    <g transform="translate(0,70)" s:x="0" s:y="10" s:pid="in0" id="port_dut7~write_data">
      <text x="-3" y="-4" class="inputPortLabel cell_dut7">write_data</text>
    </g>
    <g transform="translate(0,90)" s:x="0" s:y="10" s:pid="in0" id="port_dut7~write_strobe">
      <text x="-3" y="-4" class="inputPortLabel cell_dut7">write_strobe</text>
    </g>
    <g transform="translate(30,10)" s:x="30" s:y="10" s:pid="out0" id="port_dut7~data_available">
      <text x="5" y="-4" style="fill:#000; stroke:none" class="cell_dut7">data_available</text>
    </g>
    <g transform="translate(30,30)" s:x="30" s:y="10" s:pid="out0" id="port_dut7~read_data">
      <text x="5" y="-4" style="fill:#000; stroke:none" class="cell_dut7">read_data</text>
    </g>
  </g>
  <g s:type="generic" transform="translate(1399,601)" s:width="30" s:height="40" id="cell_seg1">
    <text x="15" y="-4" class="nodelabel cell_seg1" s:attribute="ref">segment</text>
    <rect width="30" height="40" s:generic="body" class="cell_seg1"/>
    <g transform="translate(0,10)" s:x="0" s:y="10" s:pid="in0" id="port_seg1~clk">
      <text x="-3" y="-4" class="inputPortLabel cell_seg1">clk</text>
    </g>
    <g transform="translate(0,30)" s:x="0" s:y="10" s:pid="in0" id="port_seg1~data">
      <text x="-3" y="-4" class="inputPortLabel cell_seg1">data</text>
    </g>
    <g transform="translate(30,10)" s:x="30" s:y="10" s:pid="out0" id="port_seg1~display">
      <text x="5" y="-4" style="fill:#000; stroke:none" class="cell_seg1">display</text>
    </g>
  </g>
  <g s:type="inputExt" transform="translate(263,437)" s:width="30" s:height="20" id="cell_serial_rxd">
    <text x="15" y="-4" class="nodelabel cell_serial_rxd" s:attribute="ref">serial_rxd</text>
    <s:alias val="$_inputExt_"/>
    <path d="M0,0 L0,20 L15,20 L30,10 L15,0 Z" class="cell_serial_rxd"/>
    <g s:x="28" s:y="10" s:pid="Y"/>
  </g>
  <g s:type="outputExt" transform="translate(1508,148)" s:width="30" s:height="20" id="cell_led_r">
    <text x="15" y="-4" class="nodelabel cell_led_r" s:attribute="ref">led_r</text>
    <s:alias val="$_outputExt_"/>
    <path d="M30,0 L30,20 L15,20 L0,10 L15,0 Z" class="cell_led_r"/>
    <g s:x="0" s:y="10" s:pid="A"/>
  </g>
  <g s:type="outputExt" transform="translate(1508,707.5)" s:width="30" s:height="20" id="cell_led_g">
    <text x="15" y="-4" class="nodelabel cell_led_g" s:attribute="ref">led_g</text>
    <s:alias val="$_outputExt_"/>
    <path d="M30,0 L30,20 L15,20 L0,10 L15,0 Z" class="cell_led_g"/>
    <g s:x="0" s:y="10" s:pid="A"/>
  </g>
  <g s:type="outputExt" transform="translate(1508,87)" s:width="30" s:height="20" id="cell_led_b">
    <text x="15" y="-4" class="nodelabel cell_led_b" s:attribute="ref">led_b</text>
    <s:alias val="$_outputExt_"/>
    <path d="M30,0 L30,20 L15,20 L0,10 L15,0 Z" class="cell_led_b"/>
    <g s:x="0" s:y="10" s:pid="A"/>
  </g>
  <g s:type="outputExt" transform="translate(1508,366)" s:width="30" s:height="20" id="cell_serial_txd">
    <text x="15" y="-4" class="nodelabel cell_serial_txd" s:attribute="ref">serial_txd</text>
    <s:alias val="$_outputExt_"/>
    <path d="M30,0 L30,20 L15,20 L0,10 L15,0 Z" class="cell_serial_txd"/>
    <g s:x="0" s:y="10" s:pid="A"/>
  </g>
  <g s:type="outputExt" transform="translate(1508,22)" s:width="30" s:height="20" id="cell_spi_cs">
    <text x="15" y="-4" class="nodelabel cell_spi_cs" s:attribute="ref">spi_cs</text>
    <s:alias val="$_outputExt_"/>
    <path d="M30,0 L30,20 L15,20 L0,10 L15,0 Z" class="cell_spi_cs"/>
    <g s:x="0" s:y="10" s:pid="A"/>
  </g>
  <g s:type="outputExt" transform="translate(1508,601.5)" s:width="30" s:height="20" id="cell_seven_seg">
    <text x="15" y="-4" class="nodelabel cell_seven_seg" s:attribute="ref">seven_seg</text>
    <s:alias val="$_outputExt_"/>
    <path d="M30,0 L30,20 L15,20 L0,10 L15,0 Z" class="cell_seven_seg"/>
    <g s:x="0" s:y="10" s:pid="A"/>
  </g>
  <g s:type="constant" transform="translate(12,507.5)" s:width="30" s:height="20" id="cell_1">
    <text x="15" y="-4" class="nodelabel cell_1" s:attribute="ref">1</text>
    <s:alias val="$_constant_"/>
    <rect width="30" height="20" class="cell_1"/>
    <g s:x="30" s:y="10" s:pid="Y"/>
  </g>
  <g s:type="constant" transform="translate(120,348.5)" s:width="30" s:height="20" id="cell_0">
    <text x="15" y="-4" class="nodelabel cell_0" s:attribute="ref">0</text>
    <s:alias val="$_constant_"/>
    <rect width="30" height="20" class="cell_0"/>
    <g s:x="30" s:y="10" s:pid="Y"/>
  </g>
  <g s:type="constant" transform="translate(1090,817)" s:width="30" s:height="20" id="cell_0000000000111111">
    <text x="15" y="-4" class="nodelabel cell_0000000000111111" s:attribute="ref">0x3f</text>
    <s:alias val="$_constant_"/>
    <rect width="30" height="20" class="cell_0000000000111111"/>
    <g s:x="30" s:y="10" s:pid="Y"/>
  </g>
  <g s:type="split" transform="translate(1012,647)" s:width="5" s:height="40" id="cell_$split$,15,16,17,18,19,20,21,22,23,24,25,26,27,28,29,30,31,32,33,34,35,36,37,38,39,40,41,42,43,44,45,46,">
    <rect width="5" height="40" class="splitjoinBody" s:generic="body"/>
    <s:alias val="$_split_"/>
    <g s:x="0" s:y="20" s:pid="in"/>
    <g transform="translate(4,10)" s:x="4" s:y="10" s:pid="out0">
      <text x="5" y="-4">23:25</text>
    </g>
    <g transform="translate(4,30)" s:x="4" s:y="10" s:pid="out0">
      <text x="5" y="-4">0:18</text>
    </g>
  </g>
  <line x1="977" x2="987" y1="667.5" y2="667.5" class="net_15,16,17,18,19,20,21,22,23,24,25,26,27,28,29,30,31,32,33,34,35,36,37,38,39,40,41,42,43,44,45,46"/>
  <line x1="987" x2="987" y1="667.5" y2="642.5" class="net_15,16,17,18,19,20,21,22,23,24,25,26,27,28,29,30,31,32,33,34,35,36,37,38,39,40,41,42,43,44,45,46"/>
  <line x1="987" x2="762" y1="642.5" y2="642.5" class="net_15,16,17,18,19,20,21,22,23,24,25,26,27,28,29,30,31,32,33,34,35,36,37,38,39,40,41,42,43,44,45,46"/>
  <line x1="762" x2="762" y1="642.5" y2="657.5" class="net_15,16,17,18,19,20,21,22,23,24,25,26,27,28,29,30,31,32,33,34,35,36,37,38,39,40,41,42,43,44,45,46"/>
  <circle cx="987" cy="667.5" r="2" style="fill:#000" class="net_15,16,17,18,19,20,21,22,23,24,25,26,27,28,29,30,31,32,33,34,35,36,37,38,39,40,41,42,43,44,45,46"/>
  <line x1="762" x2="840.6666666666666" y1="657.5" y2="657.5" class="net_15,16,17,18,19,20,21,22,23,24,25,26,27,28,29,30,31,32,33,34,35,36,37,38,39,40,41,42,43,44,45,46"/>
  <line x1="977" x2="1012" y1="667.5" y2="667.5" class="net_15,16,17,18,19,20,21,22,23,24,25,26,27,28,29,30,31,32,33,34,35,36,37,38,39,40,41,42,43,44,45,46"/>
  <line x1="42" x2="52" y1="517.5" y2="517.5" class="net_114"/>
  <line x1="52" x2="52" y1="517.5" y2="707.5" class="net_114"/>
  <line x1="52" x2="212" y1="707.5" y2="707.5" class="net_114"/>
  <line x1="212" x2="212" y1="707.5" y2="672.5" class="net_114"/>
  <circle cx="52" cy="517.5" r="2" style="fill:#000" class="net_114"/>
  <circle cx="212" cy="707.5" r="2" style="fill:#000" class="net_114"/>
  <line x1="212" x2="840.6666666666666" y1="672.5" y2="672.5" class="net_114"/>
  <line x1="42" x2="52" y1="517.5" y2="517.5" class="net_114"/>
  <line x1="52" x2="52" y1="517.5" y2="707.5" class="net_114"/>
  <line x1="52" x2="1408.6666666666667" y1="707.5" y2="707.5" class="net_114"/>
  <line x1="42" x2="52" y1="517.5" y2="517.5" class="net_114"/>
  <line x1="52" x2="52" y1="517.5" y2="97" class="net_114"/>
  <line x1="52" x2="538" y1="97" y2="97" class="net_114"/>
  <line x1="538" x2="538" y1="97" y2="138" class="net_114"/>
  <circle cx="538" cy="97" r="2" style="fill:#000" class="net_114"/>
  <line x1="538" x2="1312.3333333333333" y1="138" y2="138" class="net_114"/>
  <line x1="42" x2="52" y1="517.5" y2="517.5" class="net_114"/>
  <line x1="52" x2="52" y1="517.5" y2="97" class="net_114"/>
  <line x1="52" x2="192" y1="97" y2="97" class="net_114"/>
  <line x1="192" x2="192" y1="97" y2="253" class="net_114"/>
  <circle cx="192" cy="97" r="2" style="fill:#000" class="net_114"/>
  <line x1="192" x2="1408.6666666666667" y1="253" y2="253" class="net_114"/>
  <line x1="42" x2="52" y1="517.5" y2="517.5" class="net_114"/>
  <line x1="52" x2="52" y1="517.5" y2="497.5" class="net_114"/>
  <circle cx="52" cy="497.5" r="2" style="fill:#000" class="net_114"/>
  <line x1="52" x2="120" y1="497.5" y2="497.5" class="net_114"/>
  <line x1="42" x2="120" y1="517.5" y2="517.5" class="net_114"/>
  <line x1="42" x2="52" y1="517.5" y2="517.5" class="net_114"/>
  <line x1="52" x2="52" y1="517.5" y2="97" class="net_114"/>
  <line x1="52" x2="1508" y1="97" y2="97" class="net_114"/>
  <line x1="42" x2="52" y1="517.5" y2="517.5" class="net_114"/>
  <line x1="52" x2="52" y1="517.5" y2="97" class="net_114"/>
  <line x1="52" x2="1483" y1="97" y2="97" class="net_114"/>
  <line x1="1483" x2="1483" y1="97" y2="32" class="net_114"/>
  <circle cx="1483" cy="97" r="2" style="fill:#000" class="net_114"/>
  <line x1="1483" x2="1508" y1="32" y2="32" class="net_114"/>
  <line x1="1017" x2="1068" y1="657.5" y2="657.5" class="net_38,39,40"/>
  <line x1="1068" x2="1068" y1="657.5" y2="759" class="net_38,39,40"/>
  <line x1="1068" x2="1203.5" y1="759" y2="759" class="net_38,39,40"/>
  <line x1="1234.5" x2="1284" y1="759" y2="759" class="net_79"/>
  <line x1="1284" x2="1284" y1="759" y2="812" class="net_79"/>
  <line x1="1284" x2="1309" y1="812" y2="812" class="net_79"/>
  <line x1="1231" x2="1309" y1="827" y2="827" class="net_80"/>
  <line x1="150" x2="202" y1="358.5" y2="358.5" class="net_116"/>
  <line x1="202" x2="202" y1="358.5" y2="727.5" class="net_116"/>
  <circle cx="202" cy="358.5" r="2" style="fill:#000" class="net_116"/>
  <line x1="202" x2="1408.6666666666667" y1="727.5" y2="727.5" class="net_116"/>
  <line x1="150" x2="202" y1="358.5" y2="358.5" class="net_116"/>
  <line x1="202" x2="202" y1="358.5" y2="158" class="net_116"/>
  <line x1="202" x2="1312.3333333333333" y1="158" y2="158" class="net_116"/>
  <line x1="150" x2="202" y1="358.5" y2="358.5" class="net_116"/>
  <line x1="202" x2="202" y1="358.5" y2="212" class="net_116"/>
  <line x1="202" x2="1349" y1="212" y2="212" class="net_116"/>
  <line x1="1349" x2="1349" y1="212" y2="233" class="net_116"/>
  <circle cx="202" cy="212" r="2" style="fill:#000" class="net_116"/>
  <line x1="1349" x2="1408.6666666666667" y1="233" y2="233" class="net_116"/>
  <line x1="150" x2="202" y1="358.5" y2="358.5" class="net_116"/>
  <line x1="202" x2="202" y1="358.5" y2="549" class="net_116"/>
  <circle cx="202" cy="549" r="2" style="fill:#000" class="net_116"/>
  <line x1="202" x2="630.3333333333334" y1="549" y2="549" class="net_116"/>
  <line x1="150" x2="263" y1="358.5" y2="358.5" class="net_116"/>
  <line x1="1339" x2="1418.6666666666667" y1="819.5" y2="819.5" class="net_81"/>
  <line x1="1418.6666666666667" x2="1418.6666666666667" y1="819.5" y2="732.5" class="net_81"/>
  <line x1="151" x2="222" y1="497.5" y2="497.5" class="net_82"/>
  <line x1="222" x2="222" y1="497.5" y2="687.5" class="net_82"/>
  <circle cx="222" cy="497.5" r="2" style="fill:#000" class="net_82"/>
  <circle cx="222" cy="687.5" r="2" style="fill:#000" class="net_82"/>
  <line x1="222" x2="947" y1="687.5" y2="687.5" class="net_82"/>
  <line x1="151" x2="222" y1="497.5" y2="497.5" class="net_82"/>
  <line x1="222" x2="222" y1="497.5" y2="178" class="net_82"/>
  <line x1="222" x2="1405.3333333333333" y1="178" y2="178" class="net_82"/>
  <line x1="151" x2="222" y1="497.5" y2="497.5" class="net_82"/>
  <line x1="222" x2="222" y1="497.5" y2="273" class="net_82"/>
  <circle cx="222" cy="273" r="2" style="fill:#000" class="net_82"/>
  <line x1="222" x2="1508" y1="273" y2="273" class="net_82"/>
  <line x1="151" x2="222" y1="497.5" y2="497.5" class="net_82"/>
  <line x1="222" x2="222" y1="497.5" y2="847" class="net_82"/>
  <line x1="222" x2="1200" y1="847" y2="847" class="net_82"/>
  <line x1="151" x2="538" y1="497.5" y2="497.5" class="net_82"/>
  <line x1="538" x2="538" y1="497.5" y2="529" class="net_82"/>
  <circle cx="538" cy="497.5" r="2" style="fill:#000" class="net_82"/>
  <line x1="538" x2="630.3333333333334" y1="529" y2="529" class="net_82"/>
  <line x1="151" x2="222" y1="497.5" y2="497.5" class="net_82"/>
  <line x1="222" x2="222" y1="497.5" y2="338.5" class="net_82"/>
  <circle cx="222" cy="338.5" r="2" style="fill:#000" class="net_82"/>
  <line x1="222" x2="263" y1="338.5" y2="338.5" class="net_82"/>
  <line x1="151" x2="222" y1="497.5" y2="497.5" class="net_82"/>
  <line x1="222" x2="222" y1="497.5" y2="589" class="net_82"/>
  <circle cx="222" cy="589" r="2" style="fill:#000" class="net_82"/>
  <line x1="222" x2="844" y1="589" y2="589" class="net_82"/>
  <line x1="151" x2="222" y1="497.5" y2="497.5" class="net_82"/>
  <line x1="222" x2="222" y1="497.5" y2="381" class="net_82"/>
  <line x1="222" x2="357" y1="381" y2="381" class="net_82"/>
  <line x1="357" x2="357" y1="381" y2="407" class="net_82"/>
  <circle cx="222" cy="381" r="2" style="fill:#000" class="net_82"/>
  <line x1="357" x2="420" y1="407" y2="407" class="net_82"/>
  <line x1="151" x2="222" y1="497.5" y2="497.5" class="net_82"/>
  <line x1="222" x2="222" y1="497.5" y2="273" class="net_82"/>
  <line x1="222" x2="538" y1="273" y2="273" class="net_82"/>
  <line x1="538" x2="538" y1="273" y2="304.5" class="net_82"/>
  <circle cx="538" cy="273" r="2" style="fill:#000" class="net_82"/>
  <line x1="538" x2="626" y1="304.5" y2="304.5" class="net_82"/>
  <line x1="151" x2="1349" y1="497.5" y2="497.5" class="net_82"/>
  <line x1="1349" x2="1349" y1="497.5" y2="611.5" class="net_82"/>
  <line x1="1349" x2="1399" y1="611.5" y2="611.5" class="net_82"/>
  <line x1="862.6666666666666" x2="922" y1="665" y2="665" class="net_47,48,49,50,51,52,53,54,55,56,57,58,59,60,61,62,63,64,65,66,67,68,69,70,71,72,73,74,75,76,77,78"/>
  <line x1="922" x2="922" y1="665" y2="667.5" class="net_47,48,49,50,51,52,53,54,55,56,57,58,59,60,61,62,63,64,65,66,67,68,69,70,71,72,73,74,75,76,77,78"/>
  <line x1="922" x2="947" y1="667.5" y2="667.5" class="net_47,48,49,50,51,52,53,54,55,56,57,58,59,60,61,62,63,64,65,66,67,68,69,70,71,72,73,74,75,76,77,78"/>
  <line x1="657" x2="947" y1="304.5" y2="304.5" class="net_83"/>
  <line x1="875" x2="922" y1="529" y2="529" class="net_84"/>
  <line x1="922" x2="922" y1="529" y2="319.5" class="net_84"/>
  <line x1="922" x2="947" y1="319.5" y2="319.5" class="net_84"/>
  <line x1="451" x2="947" y1="407" y2="407" class="net_86"/>
  <line x1="451" x2="538" y1="407" y2="407" class="net_86"/>
  <line x1="538" x2="538" y1="407" y2="384.5" class="net_86"/>
  <circle cx="538" cy="407" r="2" style="fill:#000" class="net_86"/>
  <line x1="538" x2="626" y1="384.5" y2="384.5" class="net_86"/>
  <line x1="977" x2="987" y1="312" y2="312" class="net_85"/>
  <line x1="987" x2="987" y1="312" y2="392" class="net_85"/>
  <line x1="987" x2="1014" y1="392" y2="392" class="net_85"/>
  <line x1="972" x2="1014" y1="407" y2="407" class="net_87"/>
  <line x1="1538" x2="1578" y1="253" y2="253" class="net_89"/>
  <line x1="1578" x2="1578" y1="253" y2="117" class="net_89"/>
  <line x1="1578" x2="987" y1="117" y2="117" class="net_89"/>
  <line x1="987" x2="987" y1="117" y2="233" class="net_89"/>
  <circle cx="987" cy="117" r="2" style="fill:#000" class="net_89"/>
  <line x1="987" x2="1012" y1="233" y2="233" class="net_89"/>
  <line x1="1538" x2="1578" y1="253" y2="253" class="net_89"/>
  <line x1="1578" x2="1578" y1="253" y2="869.5" class="net_89"/>
  <line x1="1578" x2="752" y1="869.5" y2="869.5" class="net_89"/>
  <line x1="752" x2="752" y1="869.5" y2="569" class="net_89"/>
  <line x1="752" x2="844" y1="569" y2="569" class="net_89"/>
  <line x1="1538" x2="1578" y1="253" y2="253" class="net_89"/>
  <line x1="1578" x2="1578" y1="253" y2="117" class="net_89"/>
  <line x1="1578" x2="528" y1="117" y2="117" class="net_89"/>
  <line x1="528" x2="528" y1="117" y2="324.5" class="net_89"/>
  <circle cx="1578" cy="253" r="2" style="fill:#000" class="net_89"/>
  <line x1="528" x2="626" y1="324.5" y2="324.5" class="net_89"/>
  <line x1="1044" x2="1090.3333333333333" y1="399.5" y2="399.5" class="net_88"/>
  <line x1="1037" x2="1058" y1="233" y2="233" class="net_90"/>
  <line x1="1058" x2="1058" y1="233" y2="414.5" class="net_90"/>
  <line x1="1058" x2="1090.3333333333333" y1="414.5" y2="414.5" class="net_90"/>
  <line x1="1017" x2="1058" y1="677.5" y2="677.5" class="net_15,16,17,18,19,20,21,22,23,24,25,26,27,28,29,30,31,32,33"/>
  <line x1="1058" x2="1058" y1="677.5" y2="475" class="net_15,16,17,18,19,20,21,22,23,24,25,26,27,28,29,30,31,32,33"/>
  <line x1="1058" x2="1090" y1="475" y2="475" class="net_15,16,17,18,19,20,21,22,23,24,25,26,27,28,29,30,31,32,33"/>
  <line x1="1120.3333333333333" x2="1138" y1="407" y2="407" class="net_91"/>
  <line x1="1138" x2="1138" y1="407" y2="460" class="net_91"/>
  <line x1="1138" x2="1202.3333333333333" y1="460" y2="460" class="net_91"/>
  <line x1="1121" x2="1202.3333333333333" y1="475" y2="475" class="net_92"/>
  <line x1="1232.3333333333333" x2="1284" y1="467.5" y2="467.5" class="net_93"/>
  <line x1="1284" x2="1284" y1="467.5" y2="457.5" class="net_93"/>
  <line x1="1284" x2="1322.3333333333333" y1="457.5" y2="457.5" class="net_93"/>
  <circle cx="1284" cy="467.5" r="2" style="fill:#000" class="net_93"/>
  <line x1="1322.3333333333333" x2="1322.3333333333333" y1="457.5" y2="163" class="net_93"/>
  <line x1="1232.3333333333333" x2="1418.6666666666667" y1="467.5" y2="467.5" class="net_93"/>
  <line x1="1418.6666666666667" x2="1418.6666666666667" y1="467.5" y2="258" class="net_93"/>
  <line x1="1332.3333333333333" x2="1349" y1="148" y2="148" class="net_94"/>
  <line x1="1349" x2="1349" y1="148" y2="158" class="net_94"/>
  <line x1="1349" x2="1405.3333333333333" y1="158" y2="158" class="net_94"/>
  <line x1="1428.6666666666667" x2="1483" y1="243" y2="243" class="net_95"/>
  <line x1="1483" x2="1483" y1="243" y2="253" class="net_95"/>
  <line x1="1483" x2="1508" y1="253" y2="253" class="net_95"/>
  <line x1="1120" x2="1200" y1="827" y2="827" class="net_123,124,125,126,127,128,129,130,131,132,133,134,135,136,137,138"/>
  <line x1="661.3333333333334" x2="844" y1="529" y2="529" class="net_96"/>
  <line x1="657" x2="752" y1="324.5" y2="324.5" class="net_98,99,100,101,102,103,104,105"/>
  <line x1="752" x2="752" y1="324.5" y2="549" class="net_98,99,100,101,102,103,104,105"/>
  <line x1="752" x2="844" y1="549" y2="549" class="net_98,99,100,101,102,103,104,105"/>
  <line x1="347" x2="347" y1="392" y2="609" class="net_x"/>
  <line x1="347" x2="844" y1="609" y2="609" class="net_x"/>
  <line x1="347" x2="347" y1="392" y2="427" class="net_x"/>
  <circle cx="347" cy="427" r="2" style="fill:#000" class="net_x"/>
  <line x1="347" x2="420" y1="427" y2="427" class="net_x"/>
  <line x1="347" x2="347" y1="392" y2="344.5" class="net_x"/>
  <line x1="347" x2="626" y1="344.5" y2="344.5" class="net_x"/>
  <line x1="294" x2="367" y1="338.5" y2="338.5" class="net_97"/>
  <line x1="367" x2="367" y1="338.5" y2="387" class="net_97"/>
  <line x1="367" x2="420" y1="387" y2="387" class="net_97"/>
  <line x1="291" x2="420" y1="447" y2="447" class="net_2"/>
  <line x1="451" x2="528" y1="387" y2="387" class="net_106,107,108,109,110,111,112,113"/>
  <line x1="528" x2="528" y1="387" y2="364.5" class="net_106,107,108,109,110,111,112,113"/>
  <circle cx="528" cy="387" r="2" style="fill:#000" class="net_106,107,108,109,110,111,112,113"/>
  <line x1="528" x2="626" y1="364.5" y2="364.5" class="net_106,107,108,109,110,111,112,113"/>
  <line x1="451" x2="528" y1="387" y2="387" class="net_106,107,108,109,110,111,112,113"/>
  <line x1="528" x2="528" y1="387" y2="631.5" class="net_106,107,108,109,110,111,112,113"/>
  <line x1="528" x2="1399" y1="631.5" y2="631.5" class="net_106,107,108,109,110,111,112,113"/>
  <line x1="1435.3333333333333" x2="1508" y1="158" y2="158" class="net_3"/>
  <line x1="1428.6666666666667" x2="1508" y1="717.5" y2="717.5" class="net_4"/>
  <line x1="875" x2="932" y1="549" y2="549" class="net_5"/>
  <line x1="932" x2="932" y1="549" y2="376" class="net_5"/>
  <line x1="932" x2="1508" y1="376" y2="376" class="net_5"/>
  <line x1="1430" x2="1508" y1="611.5" y2="611.5" class="net_6,7,8,9,10,11,12,13,14"/>
</svg>
