<svg xmlns="http://www.w3.org/2000/svg" xmlns:xlink="http://www.w3.org/1999/xlink" xmlns:s="https://github.com/nturley/netlistsvg" width="1531" height="896.5">
  <style>svg {
    stroke:#000;
    fill:none;
  }
  text {
    fill:#000;
    stroke:none;
    font-size:10px;
    font-weight: bold;
    font-family: "Courier New", monospace;
  }
  .nodelabel {
    text-anchor: middle;
  }
  .inputPortLabel {
    text-anchor: end;
  }
  .splitjoinBody {
    fill:#000;
  }</style>
  <g s:type="add" transform="translate(842.6666666666666,618)" s:width="25" s:height="25" id="cell_\43">
    <s:alias val="$add"/>
    <circle r="12.5" cx="12.5" cy="12.5" class="cell_\43"/>
    <line x1="7.5" x2="17.5" y1="12.5" y2="12.5" class="cell_\43"/>
    <line x1="12.5" x2="12.5" y1="7.5" y2="17.5" class="cell_\43"/>
    <g s:x="3" s:y="5" s:pid="A"/>
    <g s:x="3" s:y="20" s:pid="B"/>
    <g s:x="25" s:y="12.5" s:pid="Y"/>
  </g>
  <g s:type="generic" transform="translate(1213.5,742.5)" s:width="30" s:height="40" id="cell_\47">
    <text x="15" y="-4" class="nodelabel cell_\47" s:attribute="ref">$logic_not</text>
    <rect width="30" height="20" s:generic="body" class="cell_\47"/>
    <g transform="translate(0,10)" s:x="0" s:y="10" s:pid="in0" id="port_\47~A">
      <text x="-3" y="-4" class="inputPortLabel cell_\47">A</text>
    </g>
    <g transform="translate(30,10)" s:x="30" s:y="10" s:pid="out0" id="port_\47~Y">
      <text x="5" y="-4" style="fill:#000; stroke:none" class="cell_\47">Y</text>
    </g>
  </g>
  <g s:type="and" transform="translate(1319,748)" s:width="30" s:height="25" id="cell_\48">
    <s:alias val="$and"/>
    <s:alias val="$logic_and"/>
    <s:alias val="$_AND_"/>
    <path d="M0,0 L0,25 L15,25 A15 12.5 0 0 0 15,0 Z" class="cell_\48"/>
    <g s:x="0" s:y="5" s:pid="A"/>
    <g s:x="0" s:y="20" s:pid="B"/>
    <g s:x="30" s:y="12.5" s:pid="Y"/>
  </g>
  <g s:type="mux" transform="translate(1387.3333333333333,670.5)" s:width="20" s:height="40" id="cell_\51">
    <s:alias val="$pmux"/>
    <s:alias val="$mux"/>
    <s:alias val="$_MUX_"/>
    <path d="M0,0 L20,10 L20,30 L0,40 Z" class="cell_\51"/>
    <g s:x="0" s:y="10" s:pid="A"/>
    <g s:x="0" s:y="30" s:pid="B"/>
    <g s:x="10" s:y="35" s:pid="S"/>
    <g s:x="20" s:y="20" s:pid="Y"/>
  </g>
  <g s:type="dff" transform="translate(952,620.5)" s:width="30" s:height="40" id="cell_\53">
    <s:alias val="$dff"/>
    <s:alias val="$_DFF_"/>
    <rect width="30" height="40" x="0" y="0" class="cell_\53"/>
    <path d="M0,35 L5,30 L0,25" class="cell_\53"/>
    <g s:x="30" s:y="10" s:pid="Q"/>
    <g s:x="0" s:y="30" s:pid="CLK"/>
    <g s:x="0" s:y="10" s:pid="D"/>
  </g>
  <g s:type="and" transform="translate(952,449)" s:width="30" s:height="25" id="cell_\57">
    <s:alias val="$and"/>
    <s:alias val="$logic_and"/>
    <s:alias val="$_AND_"/>
    <path d="M0,0 L0,25 L15,25 A15 12.5 0 0 0 15,0 Z" class="cell_\57"/>
    <g s:x="0" s:y="5" s:pid="A"/>
    <g s:x="0" s:y="20" s:pid="B"/>
    <g s:x="30" s:y="12.5" s:pid="Y"/>
  </g>
  <g s:type="not" transform="translate(952,509)" s:width="30" s:height="20" id="cell_\58">
    <s:alias val="$_NOT_"/>
    <s:alias val="$not"/>
    <path d="M0,0 L0,20 L20,10 Z" class="cell_\58"/>
    <circle cx="23" cy="10" r="3" class="cell_\58"/>
    <g s:x="0" s:y="10" s:pid="A"/>
    <g s:x="25" s:y="10" s:pid="Y"/>
  </g>
  <g s:type="and" transform="translate(1019,456.5)" s:width="30" s:height="25" id="cell_\59">
    <s:alias val="$and"/>
    <s:alias val="$logic_and"/>
    <s:alias val="$_AND_"/>
    <path d="M0,0 L0,25 L15,25 A15 12.5 0 0 0 15,0 Z" class="cell_\59"/>
    <g s:x="0" s:y="5" s:pid="A"/>
    <g s:x="0" s:y="20" s:pid="B"/>
    <g s:x="30" s:y="12.5" s:pid="Y"/>
  </g>
  <g s:type="not" transform="translate(1017,691.5)" s:width="30" s:height="20" id="cell_\60">
    <s:alias val="$_NOT_"/>
    <s:alias val="$not"/>
    <path d="M0,0 L0,20 L20,10 Z" class="cell_\60"/>
    <circle cx="23" cy="10" r="3" class="cell_\60"/>
    <g s:x="0" s:y="10" s:pid="A"/>
    <g s:x="25" s:y="10" s:pid="Y"/>
  </g>
  <g s:type="and" transform="translate(1100.3333333333333,464)" s:width="30" s:height="25" id="cell_\61">
    <s:alias val="$and"/>
    <s:alias val="$logic_and"/>
    <s:alias val="$_AND_"/>
    <path d="M0,0 L0,25 L15,25 A15 12.5 0 0 0 15,0 Z" class="cell_\61"/>
    <g s:x="0" s:y="5" s:pid="A"/>
    <g s:x="0" s:y="20" s:pid="B"/>
    <g s:x="30" s:y="12.5" s:pid="Y"/>
  </g>
  <g s:type="generic" transform="translate(1100,534)" s:width="30" s:height="40" id="cell_\64">
    <text x="15" y="-4" class="nodelabel cell_\64" s:attribute="ref">$logic_not</text>
    <rect width="30" height="20" s:generic="body" class="cell_\64"/>
    <g transform="translate(0,10)" s:x="0" s:y="10" s:pid="in0" id="port_\64~A">
      <text x="-3" y="-4" class="inputPortLabel cell_\64">A</text>
    </g>
    <g transform="translate(30,10)" s:x="30" s:y="10" s:pid="out0" id="port_\64~Y">
      <text x="5" y="-4" style="fill:#000; stroke:none" class="cell_\64">Y</text>
    </g>
  </g>
  <g s:type="and" transform="translate(1212.3333333333333,471.5)" s:width="30" s:height="25" id="cell_\65">
    <s:alias val="$and"/>
    <s:alias val="$logic_and"/>
    <s:alias val="$_AND_"/>
    <path d="M0,0 L0,25 L15,25 A15 12.5 0 0 0 15,0 Z" class="cell_\65"/>
    <g s:x="0" s:y="5" s:pid="A"/>
    <g s:x="0" s:y="20" s:pid="B"/>
    <g s:x="30" s:y="12.5" s:pid="Y"/>
  </g>
  <g s:type="mux" transform="translate(1322.3333333333333,537)" s:width="20" s:height="40" id="cell_\68">
    <s:alias val="$pmux"/>
    <s:alias val="$mux"/>
    <s:alias val="$_MUX_"/>
    <path d="M0,0 L20,10 L20,30 L0,40 Z" class="cell_\68"/>
    <g s:x="0" s:y="10" s:pid="A"/>
    <g s:x="0" s:y="30" s:pid="B"/>
    <g s:x="10" s:y="35" s:pid="S"/>
    <g s:x="20" s:y="20" s:pid="Y"/>
  </g>
  <g s:type="mux" transform="translate(1387.3333333333333,377)" s:width="20" s:height="40" id="cell_\72">
    <s:alias val="$pmux"/>
    <s:alias val="$mux"/>
    <s:alias val="$_MUX_"/>
    <path d="M0,0 L20,10 L20,30 L0,40 Z" class="cell_\72"/>
    <g s:x="0" s:y="10" s:pid="A"/>
    <g s:x="0" s:y="30" s:pid="B"/>
    <g s:x="10" s:y="35" s:pid="S"/>
    <g s:x="20" s:y="20" s:pid="Y"/>
  </g>
  <g s:type="dff" transform="translate(1384,547)" s:width="30" s:height="40" id="cell_\82">
    <s:alias val="$dff"/>
    <s:alias val="$_DFF_"/>
    <rect width="30" height="40" x="0" y="0" class="cell_\82"/>
    <path d="M0,35 L5,30 L0,25" class="cell_\82"/>
    <g s:x="30" s:y="10" s:pid="Q"/>
    <g s:x="0" s:y="30" s:pid="CLK"/>
    <g s:x="0" s:y="10" s:pid="D"/>
  </g>
  <g s:type="dff" transform="translate(1449,387)" s:width="30" s:height="40" id="cell_\83">
    <s:alias val="$dff"/>
    <s:alias val="$_DFF_"/>
    <rect width="30" height="40" x="0" y="0" class="cell_\83"/>
    <path d="M0,35 L5,30 L0,25" class="cell_\83"/>
    <g s:x="30" s:y="10" s:pid="Q"/>
    <g s:x="0" s:y="30" s:pid="CLK"/>
    <g s:x="0" s:y="10" s:pid="D"/>
  </g>
  <g s:type="generic" transform="translate(120,22)" s:width="30" s:height="40" id="cell_dut1">
    <text x="15" y="-4" class="nodelabel cell_dut1" s:attribute="ref">SB_HFOSC</text>
    <rect width="30" height="40" s:generic="body" class="cell_dut1"/>
    <g transform="translate(0,10)" s:x="0" s:y="10" s:pid="in0" id="port_dut1~CLKHFEN">
      <text x="-3" y="-4" class="inputPortLabel cell_dut1">CLKHFEN</text>
    </g>
    <g transform="translate(0,30)" s:x="0" s:y="10" s:pid="in0" id="port_dut1~CLKHFPU">
      <text x="-3" y="-4" class="inputPortLabel cell_dut1">CLKHFPU</text>
    </g>
    <g transform="translate(30,10)" s:x="30" s:y="10" s:pid="out0" id="port_dut1~CLKHF">
      <text x="5" y="-4" style="fill:#000; stroke:none" class="cell_dut1">CLKHF</text>
    </g>
  </g>
  <g s:type="generic" transform="translate(1210,810.5)" s:width="30" s:height="40" id="cell_dut2">
    <text x="15" y="-4" class="nodelabel cell_dut2" s:attribute="ref">pwm</text>
    <rect width="30" height="40" s:generic="body" class="cell_dut2"/>
    <g transform="translate(0,10)" s:x="0" s:y="10" s:pid="in0" id="port_dut2~bright">
      <text x="-3" y="-4" class="inputPortLabel cell_dut2">bright</text>
    </g>
    <g transform="translate(0,30)" s:x="0" s:y="10" s:pid="in0" id="port_dut2~clk">
      <text x="-3" y="-4" class="inputPortLabel cell_dut2">clk</text>
    </g>
    <g transform="translate(30,10)" s:x="30" s:y="10" s:pid="out0" id="port_dut2~sig_out">
      <text x="5" y="-4" style="fill:#000; stroke:none" class="cell_dut2">sig_out</text>
    </g>
  </g>
  <g s:type="generic" transform="translate(620.3333333333334,22)" s:width="30" s:height="40" id="cell_dut3">
    <text x="15" y="-4" class="nodelabel cell_dut3" s:attribute="ref">divide_by_n_16</text>
    <rect width="30" height="40" s:generic="body" class="cell_dut3"/>
    <g transform="translate(0,10)" s:x="0" s:y="10" s:pid="in0" id="port_dut3~clk">
      <text x="-3" y="-4" class="inputPortLabel cell_dut3">clk</text>
    </g>
    <g transform="translate(0,30)" s:x="0" s:y="10" s:pid="in0" id="port_dut3~reset">
      <text x="-3" y="-4" class="inputPortLabel cell_dut3">reset</text>
    </g>
    <g transform="translate(30,10)" s:x="30" s:y="10" s:pid="out0" id="port_dut3~sig_out">
      <text x="5" y="-4" style="fill:#000; stroke:none" class="cell_dut3">sig_out</text>
    </g>
  </g>
  <g s:type="generic" transform="translate(253,283)" s:width="30" s:height="40" id="cell_dut4">
    <text x="15" y="-4" class="nodelabel cell_dut4" s:attribute="ref">divide_by_n_4</text>
    <rect width="30" height="40" s:generic="body" class="cell_dut4"/>
    <g transform="translate(0,10)" s:x="0" s:y="10" s:pid="in0" id="port_dut4~clk">
      <text x="-3" y="-4" class="inputPortLabel cell_dut4">clk</text>
    </g>
    <g transform="translate(0,30)" s:x="0" s:y="10" s:pid="in0" id="port_dut4~reset">
      <text x="-3" y="-4" class="inputPortLabel cell_dut4">reset</text>
    </g>
    <g transform="translate(30,10)" s:x="30" s:y="10" s:pid="out0" id="port_dut4~sig_out">
      <text x="5" y="-4" style="fill:#000; stroke:none" class="cell_dut4">sig_out</text>
    </g>
  </g>
  <g s:type="generic" transform="translate(849,96)" s:width="30" s:height="40" id="cell_dut5">
    <text x="15" y="-4" class="nodelabel cell_dut5" s:attribute="ref">uart_tx</text>
    <rect width="30" height="100" s:generic="body" class="cell_dut5"/>
    <g transform="translate(0,10)" s:x="0" s:y="10" s:pid="in0" id="port_dut5~baud_x1">
      <text x="-3" y="-4" class="inputPortLabel cell_dut5">baud_x1</text>
    </g>
    <g transform="translate(0,30)" s:x="0" s:y="10" s:pid="in0" id="port_dut5~data">
      <text x="-3" y="-4" class="inputPortLabel cell_dut5">data</text>
    </g>
    <g transform="translate(0,50)" s:x="0" s:y="10" s:pid="in0" id="port_dut5~data_strobe">
      <text x="-3" y="-4" class="inputPortLabel cell_dut5">data_strobe</text>
    </g>
    <g transform="translate(0,70)" s:x="0" s:y="10" s:pid="in0" id="port_dut5~mclk">
      <text x="-3" y="-4" class="inputPortLabel cell_dut5">mclk</text>
    </g>
    <g transform="translate(0,90)" s:x="0" s:y="10" s:pid="in0" id="port_dut5~reset">
      <text x="-3" y="-4" class="inputPortLabel cell_dut5">reset</text>
    </g>
    <g transform="translate(30,10)" s:x="30" s:y="10" s:pid="out0" id="port_dut5~ready">
      <text x="5" y="-4" style="fill:#000; stroke:none" class="cell_dut5">ready</text>
    </g>
    <g transform="translate(30,30)" s:x="30" s:y="10" s:pid="out0" id="port_dut5~serial">
      <text x="5" y="-4" style="fill:#000; stroke:none" class="cell_dut5">serial</text>
    </g>
  </g>
  <g s:type="generic" transform="translate(405,283)" s:width="30" s:height="40" id="cell_dut6">
    <text x="15" y="-4" class="nodelabel cell_dut6" s:attribute="ref">uart_rx</text>
    <rect width="30" height="80" s:generic="body" class="cell_dut6"/>
    <g transform="translate(0,10)" s:x="0" s:y="10" s:pid="in0" id="port_dut6~baud_x4">
      <text x="-3" y="-4" class="inputPortLabel cell_dut6">baud_x4</text>
    </g>
    <g transform="translate(0,30)" s:x="0" s:y="10" s:pid="in0" id="port_dut6~mclk">
      <text x="-3" y="-4" class="inputPortLabel cell_dut6">mclk</text>
    </g>
    <g transform="translate(0,50)" s:x="0" s:y="10" s:pid="in0" id="port_dut6~reset">
      <text x="-3" y="-4" class="inputPortLabel cell_dut6">reset</text>
    </g>
    <g transform="translate(0,70)" s:x="0" s:y="10" s:pid="in0" id="port_dut6~serial">
      <text x="-3" y="-4" class="inputPortLabel cell_dut6">serial</text>
    </g>
    <g transform="translate(30,10)" s:x="30" s:y="10" s:pid="out0" id="port_dut6~data">
      <text x="5" y="-4" style="fill:#000; stroke:none" class="cell_dut6">data</text>
    </g>
    <g transform="translate(30,30)" s:x="30" s:y="10" s:pid="out0" id="port_dut6~data_strobe">
      <text x="5" y="-4" style="fill:#000; stroke:none" class="cell_dut6">data_strobe</text>
    </g>
  </g>
  <g s:type="generic" transform="translate(616,187.5)" s:width="30" s:height="40" id="cell_dut7">
    <text x="15" y="-4" class="nodelabel cell_dut7" s:attribute="ref">fifo_spram_8_15</text>
    <rect width="30" height="100" s:generic="body" class="cell_dut7"/>
    <g transform="translate(0,10)" s:x="0" s:y="10" s:pid="in0" id="port_dut7~clk">
      <text x="-3" y="-4" class="inputPortLabel cell_dut7">clk</text>
    </g>
    <g transform="translate(0,30)" s:x="0" s:y="10" s:pid="in0" id="port_dut7~read_strobe">
      <text x="-3" y="-4" class="inputPortLabel cell_dut7">read_strobe</text>
    </g>
    <g transform="translate(0,50)" s:x="0" s:y="10" s:pid="in0" id="port_dut7~reset">
      <text x="-3" y="-4" class="inputPortLabel cell_dut7">reset</text>
    </g>
    <g transform="translate(0,70)" s:x="0" s:y="10" s:pid="in0" id="port_dut7~write_data">
      <text x="-3" y="-4" class="inputPortLabel cell_dut7">write_data</text>
    </g>
    <g transform="translate(0,90)" s:x="0" s:y="10" s:pid="in0" id="port_dut7~write_strobe">
      <text x="-3" y="-4" class="inputPortLabel cell_dut7">write_strobe</text>
    </g>
    <g transform="translate(30,10)" s:x="30" s:y="10" s:pid="out0" id="port_dut7~data_available">
      <text x="5" y="-4" style="fill:#000; stroke:none" class="cell_dut7">data_available</text>
    </g>
    <g transform="translate(30,30)" s:x="30" s:y="10" s:pid="out0" id="port_dut7~read_data">
      <text x="5" y="-4" style="fill:#000; stroke:none" class="cell_dut7">read_data</text>
    </g>
  </g>
  <g s:type="inputExt" transform="translate(253,357)" s:width="30" s:height="20" id="cell_serial_rxd">
    <text x="15" y="-4" class="nodelabel cell_serial_rxd" s:attribute="ref">serial_rxd</text>
    <s:alias val="$_inputExt_"/>
    <path d="M0,0 L0,20 L15,20 L30,10 L15,0 Z" class="cell_serial_rxd"/>
    <g s:x="28" s:y="10" s:pid="Y"/>
  </g>
  <g s:type="outputExt" transform="translate(1449,547)" s:width="30" s:height="20" id="cell_led_r">
    <text x="15" y="-4" class="nodelabel cell_led_r" s:attribute="ref">led_r</text>
    <s:alias val="$_outputExt_"/>
    <path d="M30,0 L30,20 L15,20 L0,10 L15,0 Z" class="cell_led_r"/>
    <g s:x="0" s:y="10" s:pid="A"/>
  </g>
  <g s:type="outputExt" transform="translate(1449,680.5)" s:width="30" s:height="20" id="cell_led_g">
    <text x="15" y="-4" class="nodelabel cell_led_g" s:attribute="ref">led_g</text>
    <s:alias val="$_outputExt_"/>
    <path d="M30,0 L30,20 L15,20 L0,10 L15,0 Z" class="cell_led_g"/>
    <g s:x="0" s:y="10" s:pid="A"/>
  </g>
  <g s:type="outputExt" transform="translate(1449,116.5)" s:width="30" s:height="20" id="cell_led_b">
    <text x="15" y="-4" class="nodelabel cell_led_b" s:attribute="ref">led_b</text>
    <s:alias val="$_outputExt_"/>
    <path d="M30,0 L30,20 L15,20 L0,10 L15,0 Z" class="cell_led_b"/>
    <g s:x="0" s:y="10" s:pid="A"/>
  </g>
  <g s:type="outputExt" transform="translate(1449,181.5)" s:width="30" s:height="20" id="cell_serial_txd">
    <text x="15" y="-4" class="nodelabel cell_serial_txd" s:attribute="ref">serial_txd</text>
    <s:alias val="$_outputExt_"/>
    <path d="M30,0 L30,20 L15,20 L0,10 L15,0 Z" class="cell_serial_txd"/>
    <g s:x="0" s:y="10" s:pid="A"/>
  </g>
  <g s:type="outputExt" transform="translate(1449,853.5)" s:width="30" s:height="20" id="cell_spi_cs">
    <text x="15" y="-4" class="nodelabel cell_spi_cs" s:attribute="ref">spi_cs</text>
    <s:alias val="$_outputExt_"/>
    <path d="M30,0 L30,20 L15,20 L0,10 L15,0 Z" class="cell_spi_cs"/>
    <g s:x="0" s:y="10" s:pid="A"/>
  </g>
  <g s:type="constant" transform="translate(12,22.5)" s:width="30" s:height="20" id="cell_1">
    <text x="15" y="-4" class="nodelabel cell_1" s:attribute="ref">1</text>
    <s:alias val="$_constant_"/>
    <rect width="30" height="20" class="cell_1"/>
    <g s:x="30" s:y="10" s:pid="Y"/>
  </g>
  <g s:type="constant" transform="translate(120,110)" s:width="30" s:height="20" id="cell_0">
    <text x="15" y="-4" class="nodelabel cell_0" s:attribute="ref">0</text>
    <s:alias val="$_constant_"/>
    <rect width="30" height="20" class="cell_0"/>
    <g s:x="30" s:y="10" s:pid="Y"/>
  </g>
  <g s:type="constant" transform="translate(1100,811)" s:width="30" s:height="20" id="cell_0000000000111111">
    <text x="15" y="-4" class="nodelabel cell_0000000000111111" s:attribute="ref">0x3f</text>
    <s:alias val="$_constant_"/>
    <rect width="30" height="20" class="cell_0000000000111111"/>
    <g s:x="30" s:y="10" s:pid="Y"/>
  </g>
  <g s:type="split" transform="translate(1017,610)" s:width="5" s:height="40" id="cell_$split$,6,7,8,9,10,11,12,13,14,15,16,17,18,19,20,21,22,23,24,25,26,27,28,29,30,31,32,33,34,35,36,37,">
    <rect width="5" height="40" class="splitjoinBody" s:generic="body"/>
    <s:alias val="$_split_"/>
    <g s:x="0" s:y="20" s:pid="in"/>
    <g transform="translate(4,10)" s:x="4" s:y="10" s:pid="out0">
      <text x="5" y="-4">23:25</text>
    </g>
    <g transform="translate(4,30)" s:x="4" s:y="10" s:pid="out0">
      <text x="5" y="-4">0:18</text>
    </g>
  </g>
  <line x1="982" x2="992" y1="630.5" y2="630.5" class="net_6,7,8,9,10,11,12,13,14,15,16,17,18,19,20,21,22,23,24,25,26,27,28,29,30,31,32,33,34,35,36,37"/>
  <line x1="992" x2="992" y1="630.5" y2="670.5" class="net_6,7,8,9,10,11,12,13,14,15,16,17,18,19,20,21,22,23,24,25,26,27,28,29,30,31,32,33,34,35,36,37"/>
  <line x1="992" x2="772" y1="670.5" y2="670.5" class="net_6,7,8,9,10,11,12,13,14,15,16,17,18,19,20,21,22,23,24,25,26,27,28,29,30,31,32,33,34,35,36,37"/>
  <line x1="772" x2="772" y1="670.5" y2="623" class="net_6,7,8,9,10,11,12,13,14,15,16,17,18,19,20,21,22,23,24,25,26,27,28,29,30,31,32,33,34,35,36,37"/>
  <circle cx="992" cy="630.5" r="2" style="fill:#000" class="net_6,7,8,9,10,11,12,13,14,15,16,17,18,19,20,21,22,23,24,25,26,27,28,29,30,31,32,33,34,35,36,37"/>
  <line x1="772" x2="845.6666666666666" y1="623" y2="623" class="net_6,7,8,9,10,11,12,13,14,15,16,17,18,19,20,21,22,23,24,25,26,27,28,29,30,31,32,33,34,35,36,37"/>
  <line x1="982" x2="1017" y1="630.5" y2="630.5" class="net_6,7,8,9,10,11,12,13,14,15,16,17,18,19,20,21,22,23,24,25,26,27,28,29,30,31,32,33,34,35,36,37"/>
  <line x1="42" x2="52" y1="32.5" y2="32.5" class="net_105"/>
  <line x1="52" x2="52" y1="32.5" y2="398" class="net_105"/>
  <line x1="52" x2="202" y1="398" y2="398" class="net_105"/>
  <line x1="202" x2="202" y1="398" y2="638" class="net_105"/>
  <circle cx="52" cy="32.5" r="2" style="fill:#000" class="net_105"/>
  <circle cx="202" cy="638" r="2" style="fill:#000" class="net_105"/>
  <line x1="202" x2="845.6666666666666" y1="638" y2="638" class="net_105"/>
  <line x1="42" x2="52" y1="32.5" y2="32.5" class="net_105"/>
  <line x1="52" x2="52" y1="32.5" y2="398" class="net_105"/>
  <line x1="52" x2="202" y1="398" y2="398" class="net_105"/>
  <line x1="202" x2="202" y1="398" y2="638" class="net_105"/>
  <line x1="202" x2="742" y1="638" y2="638" class="net_105"/>
  <line x1="742" x2="742" y1="638" y2="680.5" class="net_105"/>
  <circle cx="742" cy="638" r="2" style="fill:#000" class="net_105"/>
  <line x1="742" x2="1387.3333333333333" y1="680.5" y2="680.5" class="net_105"/>
  <line x1="42" x2="52" y1="32.5" y2="32.5" class="net_105"/>
  <line x1="52" x2="52" y1="32.5" y2="398" class="net_105"/>
  <line x1="52" x2="202" y1="398" y2="398" class="net_105"/>
  <line x1="202" x2="202" y1="398" y2="438" class="net_105"/>
  <line x1="202" x2="1304" y1="438" y2="438" class="net_105"/>
  <line x1="1304" x2="1304" y1="438" y2="547" class="net_105"/>
  <circle cx="202" cy="398" r="2" style="fill:#000" class="net_105"/>
  <circle cx="202" cy="438" r="2" style="fill:#000" class="net_105"/>
  <line x1="1304" x2="1322.3333333333333" y1="547" y2="547" class="net_105"/>
  <line x1="42" x2="52" y1="32.5" y2="32.5" class="net_105"/>
  <line x1="52" x2="52" y1="32.5" y2="398" class="net_105"/>
  <line x1="52" x2="1359" y1="398" y2="398" class="net_105"/>
  <line x1="1359" x2="1359" y1="398" y2="407" class="net_105"/>
  <line x1="1359" x2="1387.3333333333333" y1="407" y2="407" class="net_105"/>
  <line x1="42" x2="120" y1="32.5" y2="32.5" class="net_105"/>
  <line x1="42" x2="52" y1="32.5" y2="32.5" class="net_105"/>
  <line x1="52" x2="52" y1="32.5" y2="52.5" class="net_105"/>
  <circle cx="52" cy="52.5" r="2" style="fill:#000" class="net_105"/>
  <line x1="52" x2="120" y1="52.5" y2="52.5" class="net_105"/>
  <line x1="42" x2="52" y1="32.5" y2="32.5" class="net_105"/>
  <line x1="52" x2="52" y1="32.5" y2="398" class="net_105"/>
  <line x1="52" x2="202" y1="398" y2="398" class="net_105"/>
  <line x1="202" x2="202" y1="398" y2="863.5" class="net_105"/>
  <line x1="202" x2="1449" y1="863.5" y2="863.5" class="net_105"/>
  <line x1="1022" x2="1083" y1="620.5" y2="620.5" class="net_29,30,31"/>
  <line x1="1083" x2="1083" y1="620.5" y2="753" class="net_29,30,31"/>
  <line x1="1083" x2="1213.5" y1="753" y2="753" class="net_29,30,31"/>
  <line x1="1244.5" x2="1319" y1="753" y2="753" class="net_70"/>
  <line x1="1241" x2="1294" y1="821" y2="821" class="net_71"/>
  <line x1="1294" x2="1294" y1="821" y2="768" class="net_71"/>
  <line x1="1294" x2="1319" y1="768" y2="768" class="net_71"/>
  <line x1="150" x2="192" y1="120" y2="120" class="net_107"/>
  <line x1="192" x2="192" y1="120" y2="721.5" class="net_107"/>
  <line x1="192" x2="1359" y1="721.5" y2="721.5" class="net_107"/>
  <line x1="1359" x2="1359" y1="721.5" y2="700.5" class="net_107"/>
  <circle cx="192" cy="120" r="2" style="fill:#000" class="net_107"/>
  <line x1="1359" x2="1387.3333333333333" y1="700.5" y2="700.5" class="net_107"/>
  <line x1="150" x2="192" y1="120" y2="120" class="net_107"/>
  <line x1="192" x2="192" y1="120" y2="567" class="net_107"/>
  <circle cx="192" cy="567" r="2" style="fill:#000" class="net_107"/>
  <line x1="192" x2="1322.3333333333333" y1="567" y2="567" class="net_107"/>
  <line x1="150" x2="192" y1="120" y2="120" class="net_107"/>
  <line x1="192" x2="192" y1="120" y2="387" class="net_107"/>
  <circle cx="192" cy="387" r="2" style="fill:#000" class="net_107"/>
  <line x1="192" x2="1387.3333333333333" y1="387" y2="387" class="net_107"/>
  <line x1="150" x2="513" y1="120" y2="120" class="net_107"/>
  <line x1="513" x2="513" y1="120" y2="52.5" class="net_107"/>
  <line x1="513" x2="620.3333333333334" y1="52.5" y2="52.5" class="net_107"/>
  <line x1="150" x2="192" y1="120" y2="120" class="net_107"/>
  <line x1="192" x2="192" y1="120" y2="313.5" class="net_107"/>
  <circle cx="192" cy="313.5" r="2" style="fill:#000" class="net_107"/>
  <line x1="192" x2="253" y1="313.5" y2="313.5" class="net_107"/>
  <line x1="1349" x2="1397.3333333333333" y1="760.5" y2="760.5" class="net_72"/>
  <line x1="1397.3333333333333" x2="1397.3333333333333" y1="760.5" y2="705.5" class="net_72"/>
  <line x1="151" x2="212" y1="32.5" y2="32.5" class="net_73"/>
  <line x1="212" x2="212" y1="32.5" y2="597" class="net_73"/>
  <line x1="212" x2="927" y1="597" y2="597" class="net_73"/>
  <line x1="927" x2="927" y1="597" y2="650.5" class="net_73"/>
  <circle cx="212" cy="32.5" r="2" style="fill:#000" class="net_73"/>
  <circle cx="212" cy="597" r="2" style="fill:#000" class="net_73"/>
  <circle cx="927" cy="597" r="2" style="fill:#000" class="net_73"/>
  <line x1="927" x2="952" y1="650.5" y2="650.5" class="net_73"/>
  <line x1="151" x2="212" y1="32.5" y2="32.5" class="net_73"/>
  <line x1="212" x2="212" y1="32.5" y2="597" class="net_73"/>
  <line x1="212" x2="1359" y1="597" y2="597" class="net_73"/>
  <line x1="1359" x2="1359" y1="597" y2="577" class="net_73"/>
  <line x1="1359" x2="1384" y1="577" y2="577" class="net_73"/>
  <line x1="151" x2="212" y1="32.5" y2="32.5" class="net_73"/>
  <line x1="212" x2="212" y1="32.5" y2="427" class="net_73"/>
  <line x1="212" x2="1424" y1="427" y2="427" class="net_73"/>
  <line x1="1424" x2="1424" y1="427" y2="417" class="net_73"/>
  <circle cx="212" cy="427" r="2" style="fill:#000" class="net_73"/>
  <line x1="1424" x2="1449" y1="417" y2="417" class="net_73"/>
  <line x1="151" x2="212" y1="32.5" y2="32.5" class="net_73"/>
  <line x1="212" x2="212" y1="32.5" y2="841" class="net_73"/>
  <line x1="212" x2="1210" y1="841" y2="841" class="net_73"/>
  <line x1="151" x2="620.3333333333334" y1="32.5" y2="32.5" class="net_73"/>
  <line x1="151" x2="212" y1="32.5" y2="32.5" class="net_73"/>
  <line x1="212" x2="212" y1="32.5" y2="293.5" class="net_73"/>
  <circle cx="212" cy="293.5" r="2" style="fill:#000" class="net_73"/>
  <line x1="212" x2="253" y1="293.5" y2="293.5" class="net_73"/>
  <line x1="151" x2="212" y1="32.5" y2="32.5" class="net_73"/>
  <line x1="212" x2="212" y1="32.5" y2="166.5" class="net_73"/>
  <circle cx="212" cy="166.5" r="2" style="fill:#000" class="net_73"/>
  <line x1="212" x2="849" y1="166.5" y2="166.5" class="net_73"/>
  <line x1="151" x2="212" y1="32.5" y2="32.5" class="net_73"/>
  <line x1="212" x2="212" y1="32.5" y2="336" class="net_73"/>
  <line x1="212" x2="337" y1="336" y2="336" class="net_73"/>
  <line x1="337" x2="337" y1="336" y2="313.5" class="net_73"/>
  <circle cx="212" cy="336" r="2" style="fill:#000" class="net_73"/>
  <line x1="337" x2="405" y1="313.5" y2="313.5" class="net_73"/>
  <line x1="151" x2="212" y1="32.5" y2="32.5" class="net_73"/>
  <line x1="212" x2="212" y1="32.5" y2="166.5" class="net_73"/>
  <line x1="212" x2="533" y1="166.5" y2="166.5" class="net_73"/>
  <line x1="533" x2="533" y1="166.5" y2="198" class="net_73"/>
  <circle cx="533" cy="166.5" r="2" style="fill:#000" class="net_73"/>
  <line x1="533" x2="616" y1="198" y2="198" class="net_73"/>
  <line x1="867.6666666666666" x2="952" y1="630.5" y2="630.5" class="net_38,39,40,41,42,43,44,45,46,47,48,49,50,51,52,53,54,55,56,57,58,59,60,61,62,63,64,65,66,67,68,69"/>
  <line x1="647" x2="772" y1="198" y2="198" class="net_74"/>
  <line x1="772" x2="772" y1="198" y2="454" class="net_74"/>
  <line x1="772" x2="952" y1="454" y2="454" class="net_74"/>
  <line x1="880" x2="927" y1="106.5" y2="106.5" class="net_75"/>
  <line x1="927" x2="927" y1="106.5" y2="469" class="net_75"/>
  <line x1="927" x2="952" y1="469" y2="469" class="net_75"/>
  <line x1="436" x2="523" y1="313.5" y2="313.5" class="net_77"/>
  <line x1="523" x2="523" y1="313.5" y2="519" class="net_77"/>
  <circle cx="523" cy="313.5" r="2" style="fill:#000" class="net_77"/>
  <line x1="523" x2="952" y1="519" y2="519" class="net_77"/>
  <line x1="436" x2="523" y1="313.5" y2="313.5" class="net_77"/>
  <line x1="523" x2="523" y1="313.5" y2="278" class="net_77"/>
  <line x1="523" x2="616" y1="278" y2="278" class="net_77"/>
  <line x1="982" x2="1019" y1="461.5" y2="461.5" class="net_76"/>
  <line x1="977" x2="992" y1="519" y2="519" class="net_78"/>
  <line x1="992" x2="992" y1="519" y2="476.5" class="net_78"/>
  <line x1="992" x2="1019" y1="476.5" y2="476.5" class="net_78"/>
  <line x1="1479" x2="1519" y1="397" y2="397" class="net_80"/>
  <line x1="1519" x2="1519" y1="397" y2="883.5" class="net_80"/>
  <line x1="1519" x2="992" y1="883.5" y2="883.5" class="net_80"/>
  <line x1="992" x2="992" y1="883.5" y2="701.5" class="net_80"/>
  <line x1="992" x2="1017" y1="701.5" y2="701.5" class="net_80"/>
  <line x1="1479" x2="1519" y1="397" y2="397" class="net_80"/>
  <line x1="1519" x2="1519" y1="397" y2="75" class="net_80"/>
  <line x1="1519" x2="742" y1="75" y2="75" class="net_80"/>
  <line x1="742" x2="742" y1="75" y2="146.5" class="net_80"/>
  <circle cx="742" cy="75" r="2" style="fill:#000" class="net_80"/>
  <line x1="742" x2="849" y1="146.5" y2="146.5" class="net_80"/>
  <line x1="1479" x2="1519" y1="397" y2="397" class="net_80"/>
  <line x1="1519" x2="1519" y1="397" y2="75" class="net_80"/>
  <line x1="1519" x2="523" y1="75" y2="75" class="net_80"/>
  <line x1="523" x2="523" y1="75" y2="218" class="net_80"/>
  <circle cx="1519" cy="397" r="2" style="fill:#000" class="net_80"/>
  <line x1="523" x2="616" y1="218" y2="218" class="net_80"/>
  <line x1="1049" x2="1100.3333333333333" y1="469" y2="469" class="net_79"/>
  <line x1="1042" x2="1063" y1="701.5" y2="701.5" class="net_81"/>
  <line x1="1063" x2="1063" y1="701.5" y2="484" class="net_81"/>
  <line x1="1063" x2="1100.3333333333333" y1="484" y2="484" class="net_81"/>
  <line x1="1022" x2="1073" y1="640.5" y2="640.5" class="net_6,7,8,9,10,11,12,13,14,15,16,17,18,19,20,21,22,23,24"/>
  <line x1="1073" x2="1073" y1="640.5" y2="544.5" class="net_6,7,8,9,10,11,12,13,14,15,16,17,18,19,20,21,22,23,24"/>
  <line x1="1073" x2="1100" y1="544.5" y2="544.5" class="net_6,7,8,9,10,11,12,13,14,15,16,17,18,19,20,21,22,23,24"/>
  <line x1="1130.3333333333333" x2="1212.3333333333333" y1="476.5" y2="476.5" class="net_82"/>
  <line x1="1131" x2="1148" y1="544.5" y2="544.5" class="net_83"/>
  <line x1="1148" x2="1148" y1="544.5" y2="491.5" class="net_83"/>
  <line x1="1148" x2="1212.3333333333333" y1="491.5" y2="491.5" class="net_83"/>
  <line x1="1242.3333333333333" x2="1294" y1="484" y2="484" class="net_84"/>
  <line x1="1294" x2="1294" y1="484" y2="587" class="net_84"/>
  <line x1="1294" x2="1332.3333333333333" y1="587" y2="587" class="net_84"/>
  <circle cx="1294" cy="484" r="2" style="fill:#000" class="net_84"/>
  <line x1="1332.3333333333333" x2="1332.3333333333333" y1="587" y2="572" class="net_84"/>
  <line x1="1242.3333333333333" x2="1397.3333333333333" y1="484" y2="484" class="net_84"/>
  <line x1="1397.3333333333333" x2="1397.3333333333333" y1="484" y2="412" class="net_84"/>
  <line x1="1342.3333333333333" x2="1384" y1="557" y2="557" class="net_85"/>
  <line x1="1407.3333333333333" x2="1449" y1="397" y2="397" class="net_86"/>
  <line x1="1130" x2="1210" y1="821" y2="821" class="net_114,115,116,117,118,119,120,121,122,123,124,125,126,127,128,129"/>
  <line x1="651.3333333333334" x2="752" y1="32.5" y2="32.5" class="net_87"/>
  <line x1="752" x2="752" y1="32.5" y2="106.5" class="net_87"/>
  <line x1="752" x2="849" y1="106.5" y2="106.5" class="net_87"/>
  <line x1="647" x2="752" y1="218" y2="218" class="net_89,90,91,92,93,94,95,96"/>
  <line x1="752" x2="752" y1="218" y2="126.5" class="net_89,90,91,92,93,94,95,96"/>
  <line x1="752" x2="849" y1="126.5" y2="126.5" class="net_89,90,91,92,93,94,95,96"/>
  <line x1="347" x2="533" y1="238" y2="300.5" class="net_x"/>
  <line x1="533" x2="762" y1="300.5" y2="300.5" class="net_x"/>
  <line x1="762" x2="762" y1="300.5" y2="186.5" class="net_x"/>
  <circle cx="533" cy="238" r="2" style="fill:#000" class="net_x"/>
  <line x1="762" x2="849" y1="186.5" y2="186.5" class="net_x"/>
  <line x1="347" x2="347" y1="238" y2="333.5" class="net_x"/>
  <line x1="347" x2="405" y1="333.5" y2="333.5" class="net_x"/>
  <line x1="347" x2="616" y1="238" y2="238" class="net_x"/>
  <line x1="284" x2="405" y1="293.5" y2="293.5" class="net_88"/>
  <line x1="281" x2="337" y1="367" y2="367" class="net_2"/>
  <line x1="337" x2="337" y1="367" y2="353.5" class="net_2"/>
  <line x1="337" x2="405" y1="353.5" y2="353.5" class="net_2"/>
  <line x1="436" x2="513" y1="293.5" y2="293.5" class="net_97,98,99,100,101,102,103,104"/>
  <line x1="513" x2="513" y1="293.5" y2="258" class="net_97,98,99,100,101,102,103,104"/>
  <line x1="513" x2="616" y1="258" y2="258" class="net_97,98,99,100,101,102,103,104"/>
  <line x1="1414" x2="1449" y1="557" y2="557" class="net_3"/>
  <line x1="1407.3333333333333" x2="1449" y1="690.5" y2="690.5" class="net_4"/>
  <line x1="880" x2="1449" y1="126.5" y2="126.5" class="net_5"/>
  <line x1="880" x2="1424" y1="126.5" y2="126.5" class="net_5"/>
  <line x1="1424" x2="1424" y1="126.5" y2="191.5" class="net_5"/>
  <circle cx="1424" cy="126.5" r="2" style="fill:#000" class="net_5"/>
  <line x1="1424" x2="1449" y1="191.5" y2="191.5" class="net_5"/>
</svg>
