<svg xmlns="http://www.w3.org/2000/svg" xmlns:xlink="http://www.w3.org/1999/xlink" xmlns:s="https://github.com/nturley/netlistsvg" width="599" height="218">
  <style>svg {
    stroke:#000;
    fill:none;
  }
  text {
    fill:#000;
    stroke:none;
    font-size:10px;
    font-weight: bold;
    font-family: "Courier New", monospace;
  }
  .nodelabel {
    text-anchor: middle;
  }
  .inputPortLabel {
    text-anchor: end;
  }
  .splitjoinBody {
    fill:#000;
  }</style>
  <g s:type="mux" transform="translate(496,110)" s:width="20" s:height="40" id="cell_\15">
    <s:alias val="$pmux"/>
    <s:alias val="$mux"/>
    <s:alias val="$_MUX_"/>
    <path d="M0,0 L20,10 L20,30 L0,40 Z" class="cell_\15"/>
    <g s:x="0" s:y="10" s:pid="A"/>
    <g s:x="0" s:y="30" s:pid="B"/>
    <g s:x="10" s:y="35" s:pid="S"/>
    <g s:x="20" s:y="20" s:pid="Y"/>
  </g>
  <g s:type="generic" transform="translate(423,22)" s:width="30" s:height="40" id="cell_\17">
    <text x="15" y="-4" class="nodelabel cell_\17" s:attribute="ref">$tribuf</text>
    <rect width="30" height="40" s:generic="body" class="cell_\17"/>
    <g transform="translate(0,10)" s:x="0" s:y="10" s:pid="in0" id="port_\17~A">
      <text x="-3" y="-4" class="inputPortLabel cell_\17">A</text>
    </g>
    <g transform="translate(0,30)" s:x="0" s:y="10" s:pid="in0" id="port_\17~EN">
      <text x="-3" y="-4" class="inputPortLabel cell_\17">EN</text>
    </g>
    <g transform="translate(30,10)" s:x="30" s:y="10" s:pid="out0" id="port_\17~Y">
      <text x="5" y="-4" style="fill:#000; stroke:none" class="cell_\17">Y</text>
    </g>
  </g>
  <g s:type="generic" transform="translate(120,52)" s:width="30" s:height="40" id="cell_dut1">
    <text x="15" y="-4" class="nodelabel cell_dut1" s:attribute="ref">SB_HFOSC</text>
    <rect width="30" height="40" s:generic="body" class="cell_dut1"/>
    <g transform="translate(0,10)" s:x="0" s:y="10" s:pid="in0" id="port_dut1~CLKHFEN">
      <text x="-3" y="-4" class="inputPortLabel cell_dut1">CLKHFEN</text>
    </g>
    <g transform="translate(0,30)" s:x="0" s:y="10" s:pid="in0" id="port_dut1~CLKHFPU">
      <text x="-3" y="-4" class="inputPortLabel cell_dut1">CLKHFPU</text>
    </g>
    <g transform="translate(30,10)" s:x="30" s:y="10" s:pid="out0" id="port_dut1~CLKHF">
      <text x="5" y="-4" style="fill:#000; stroke:none" class="cell_dut1">CLKHF</text>
    </g>
  </g>
  <g s:type="generic" transform="translate(248,52)" s:width="30" s:height="40" id="cell_dut2">
    <text x="15" y="-4" class="nodelabel cell_dut2" s:attribute="ref">counter</text>
    <rect width="30" height="40" s:generic="body" class="cell_dut2"/>
    <g transform="translate(0,10)" s:x="0" s:y="10" s:pid="in0" id="port_dut2~clk">
      <text x="-3" y="-4" class="inputPortLabel cell_dut2">clk</text>
    </g>
    <g transform="translate(0,30)" s:x="0" s:y="10" s:pid="in0" id="port_dut2~reset">
      <text x="-3" y="-4" class="inputPortLabel cell_dut2">reset</text>
    </g>
    <g transform="translate(30,10)" s:x="30" s:y="10" s:pid="out0" id="port_dut2~current">
      <text x="5" y="-4" style="fill:#000; stroke:none" class="cell_dut2">current</text>
    </g>
  </g>
  <g s:type="inputExt" transform="translate(419,110)" s:width="30" s:height="20" id="cell_gpio_28">
    <text x="15" y="-4" class="nodelabel cell_gpio_28" s:attribute="ref">gpio_28</text>
    <s:alias val="$_inputExt_"/>
    <path d="M0,0 L0,20 L15,20 L30,10 L15,0 Z" class="cell_gpio_28"/>
    <g s:x="28" s:y="10" s:pid="Y"/>
  </g>
  <g s:type="outputExt" transform="translate(551,120)" s:width="30" s:height="20" id="cell_gpio_2">
    <text x="15" y="-4" class="nodelabel cell_gpio_2" s:attribute="ref">gpio_2</text>
    <s:alias val="$_outputExt_"/>
    <path d="M30,0 L30,20 L15,20 L0,10 L15,0 Z" class="cell_gpio_2"/>
    <g s:x="0" s:y="10" s:pid="A"/>
  </g>
  <g s:type="constant" transform="translate(419,175)" s:width="30" s:height="20" id="cell_0">
    <text x="15" y="-4" class="nodelabel cell_0" s:attribute="ref">0</text>
    <s:alias val="$_constant_"/>
    <rect width="30" height="20" class="cell_0"/>
    <g s:x="30" s:y="10" s:pid="Y"/>
  </g>
  <g s:type="constant" transform="translate(12,52.5)" s:width="30" s:height="20" id="cell_1">
    <text x="15" y="-4" class="nodelabel cell_1" s:attribute="ref">1</text>
    <s:alias val="$_constant_"/>
    <rect width="30" height="20" class="cell_1"/>
    <g s:x="30" s:y="10" s:pid="Y"/>
  </g>
  <g s:type="split" transform="translate(357,42)" s:width="5" s:height="40" id="cell_$split$,7,8,9,10,11,12,13,14,15,16,17,18,4,19,20,21,22,23,24,25,26,27,28,5,29,30,31,32,33,34,35,">
    <rect width="5" height="40" class="splitjoinBody" s:generic="body"/>
    <s:alias val="$_split_"/>
    <g s:x="0" s:y="20" s:pid="in"/>
    <g transform="translate(4,10)" s:x="4" s:y="10" s:pid="out0">
      <text x="5" y="-4">12</text>
    </g>
    <g transform="translate(4,30)" s:x="4" s:y="10" s:pid="out0">
      <text x="5" y="-4">23</text>
    </g>
  </g>
  <line x1="454" x2="471" y1="32.5" y2="32.5" class="net_2"/>
  <line x1="471" x2="471" y1="32.5" y2="120" class="net_2"/>
  <circle cx="471" cy="120" r="2" style="fill:#000" class="net_2"/>
  <line x1="471" x2="496" y1="120" y2="120" class="net_2"/>
  <line x1="447" x2="496" y1="120" y2="120" class="net_2"/>
  <line x1="449" x2="471" y1="185" y2="185" class="net_36"/>
  <line x1="471" x2="471" y1="185" y2="140" class="net_36"/>
  <line x1="471" x2="496" y1="140" y2="140" class="net_36"/>
  <line x1="362" x2="395" y1="52.5" y2="52.5" class="net_4"/>
  <line x1="395" x2="395" y1="52.5" y2="205" class="net_4"/>
  <line x1="395" x2="506" y1="205" y2="205" class="net_4"/>
  <circle cx="395" cy="52.5" r="2" style="fill:#000" class="net_4"/>
  <line x1="506" x2="506" y1="205" y2="145" class="net_4"/>
  <line x1="362" x2="423" y1="52.5" y2="52.5" class="net_4"/>
  <line x1="362" x2="385" y1="72.5" y2="72.5" class="net_5"/>
  <line x1="385" x2="385" y1="72.5" y2="32.5" class="net_5"/>
  <line x1="385" x2="423" y1="32.5" y2="32.5" class="net_5"/>
  <line x1="42" x2="120" y1="62.5" y2="62.5" class="net_37"/>
  <line x1="42" x2="52" y1="62.5" y2="62.5" class="net_37"/>
  <line x1="52" x2="52" y1="62.5" y2="82.5" class="net_37"/>
  <circle cx="52" cy="62.5" r="2" style="fill:#000" class="net_37"/>
  <line x1="52" x2="120" y1="82.5" y2="82.5" class="net_37"/>
  <line x1="151" x2="248" y1="62.5" y2="62.5" class="net_6"/>
  <line x1="516" x2="551" y1="130" y2="130" class="net_3"/>
  <line x1="279" x2="357" y1="62.5" y2="62.5" class="net_7,8,9,10,11,12,13,14,15,16,17,18,4,19,20,21,22,23,24,25,26,27,28,5,29,30,31,32,33,34,35"/>
</svg>
