<svg xmlns="http://www.w3.org/2000/svg" xmlns:xlink="http://www.w3.org/1999/xlink" xmlns:s="https://github.com/nturley/netlistsvg" width="640" height="142">
  <style>svg {
    stroke:#000;
    fill:none;
  }
  text {
    fill:#000;
    stroke:none;
    font-size:10px;
    font-weight: bold;
    font-family: "Courier New", monospace;
  }
  .nodelabel {
    text-anchor: middle;
  }
  .inputPortLabel {
    text-anchor: end;
  }
  .splitjoinBody {
    fill:#000;
  }</style>
  <g s:type="generic" transform="translate(120,24)" s:width="30" s:height="40" id="cell_dut1">
    <text x="15" y="-4" class="nodelabel cell_dut1" s:attribute="ref">SB_HFOSC</text>
    <rect width="30" height="40" s:generic="body" class="cell_dut1"/>
    <g transform="translate(0,10)" s:x="0" s:y="10" s:pid="in0" id="port_dut1~CLKHFEN">
      <text x="-3" y="-4" class="inputPortLabel cell_dut1">CLKHFEN</text>
    </g>
    <g transform="translate(0,30)" s:x="0" s:y="10" s:pid="in0" id="port_dut1~CLKHFPU">
      <text x="-3" y="-4" class="inputPortLabel cell_dut1">CLKHFPU</text>
    </g>
    <g transform="translate(30,10)" s:x="30" s:y="10" s:pid="out0" id="port_dut1~CLKHF">
      <text x="5" y="-4" style="fill:#000; stroke:none" class="cell_dut1">CLKHF</text>
    </g>
  </g>
  <g s:type="generic" transform="translate(248,24)" s:width="30" s:height="40" id="cell_dut2">
    <text x="15" y="-4" class="nodelabel cell_dut2" s:attribute="ref">counter</text>
    <rect width="30" height="40" s:generic="body" class="cell_dut2"/>
    <g transform="translate(0,10)" s:x="0" s:y="10" s:pid="in0" id="port_dut2~clk">
      <text x="-3" y="-4" class="inputPortLabel cell_dut2">clk</text>
    </g>
    <g transform="translate(0,30)" s:x="0" s:y="10" s:pid="in0" id="port_dut2~reset">
      <text x="-3" y="-4" class="inputPortLabel cell_dut2">reset</text>
    </g>
    <g transform="translate(30,10)" s:x="30" s:y="10" s:pid="out0" id="port_dut2~current">
      <text x="5" y="-4" style="fill:#000; stroke:none" class="cell_dut2">current</text>
    </g>
  </g>
  <g s:type="generic" transform="translate(513,24)" s:width="30" s:height="40" id="cell_dut3">
    <text x="15" y="-4" class="nodelabel cell_dut3" s:attribute="ref">rom</text>
    <rect width="30" height="40" s:generic="body" class="cell_dut3"/>
    <g transform="translate(0,10)" s:x="0" s:y="10" s:pid="in0" id="port_dut3~addr">
      <text x="-3" y="-4" class="inputPortLabel cell_dut3">addr</text>
    </g>
    <g transform="translate(0,30)" s:x="0" s:y="10" s:pid="in0" id="port_dut3~clk">
      <text x="-3" y="-4" class="inputPortLabel cell_dut3">clk</text>
    </g>
    <g transform="translate(30,10)" s:x="30" s:y="10" s:pid="out0" id="port_dut3~mem">
      <text x="5" y="-4" style="fill:#000; stroke:none" class="cell_dut3">mem</text>
    </g>
  </g>
  <g s:type="outputExt" transform="translate(598,24.5)" s:width="30" s:height="20" id="cell_SIG">
    <text x="15" y="-4" class="nodelabel cell_SIG" s:attribute="ref">SIG</text>
    <s:alias val="$_outputExt_"/>
    <path d="M30,0 L30,20 L15,20 L0,10 L15,0 Z" class="cell_SIG"/>
    <g s:x="0" s:y="10" s:pid="A"/>
  </g>
  <g s:type="constant" transform="translate(12,24.5)" s:width="30" s:height="20" id="cell_1">
    <text x="15" y="-4" class="nodelabel cell_1" s:attribute="ref">1</text>
    <s:alias val="$_constant_"/>
    <rect width="30" height="20" class="cell_1"/>
    <g s:x="30" s:y="10" s:pid="Y"/>
  </g>
  <g s:type="constant" transform="translate(357,99)" s:width="30" s:height="20" id="cell_0">
    <text x="15" y="-4" class="nodelabel cell_0" s:attribute="ref">0</text>
    <s:alias val="$_constant_"/>
    <rect width="30" height="20" class="cell_0"/>
    <g s:x="30" s:y="10" s:pid="Y"/>
  </g>
  <g s:type="join" transform="translate(447,14)" s:width="4" s:height="40" id="cell_$join$,32,33,34,42,43,44,45,46,47,52,">
    <rect width="5" height="60" class="splitjoinBody" s:generic="body"/>
    <s:alias val="$_join_"/>
    <g s:x="5" s:y="20" s:pid="out"/>
    <g transform="translate(0,10)" s:x="0" s:y="10" s:pid="in0">
      <text x="-3" y="-4" class="inputPortLabel">0:2</text>
    </g>
    <g transform="translate(0,30)" s:x="0" s:y="10" s:pid="in0">
      <text x="-3" y="-4" class="inputPortLabel">3:8</text>
    </g>
    <g transform="translate(0,50)" s:x="0" s:y="10" s:pid="in0">
      <text x="-3" y="-4" class="inputPortLabel">9</text>
    </g>
  </g>
  <g s:type="split" transform="translate(357,14)" s:width="5" s:height="40" id="cell_$split$,19,20,21,22,23,24,25,26,27,28,29,30,31,32,33,34,35,36,37,38,39,40,41,42,43,44,45,46,47,48,49,">
    <rect width="5" height="40" class="splitjoinBody" s:generic="body"/>
    <s:alias val="$_split_"/>
    <g s:x="0" s:y="20" s:pid="in"/>
    <g transform="translate(4,10)" s:x="4" s:y="10" s:pid="out0">
      <text x="5" y="-4">13:15</text>
    </g>
    <g transform="translate(4,30)" s:x="4" s:y="10" s:pid="out0">
      <text x="5" y="-4">23:28</text>
    </g>
  </g>
  <line x1="42" x2="120" y1="34.5" y2="34.5" class="net_50"/>
  <line x1="42" x2="52" y1="34.5" y2="34.5" class="net_50"/>
  <line x1="52" x2="52" y1="34.5" y2="54.5" class="net_50"/>
  <circle cx="52" cy="34.5" r="2" style="fill:#000" class="net_50"/>
  <line x1="52" x2="120" y1="54.5" y2="54.5" class="net_50"/>
  <line x1="151" x2="248" y1="34.5" y2="34.5" class="net_18"/>
  <line x1="151" x2="192" y1="34.5" y2="34.5" class="net_18"/>
  <line x1="192" x2="192" y1="34.5" y2="129" class="net_18"/>
  <line x1="192" x2="463" y1="129" y2="129" class="net_18"/>
  <line x1="463" x2="463" y1="129" y2="54.5" class="net_18"/>
  <circle cx="192" cy="34.5" r="2" style="fill:#000" class="net_18"/>
  <line x1="463" x2="513" y1="54.5" y2="54.5" class="net_18"/>
  <line x1="453" x2="513" y1="34.5" y2="34.5" class="net_32,33,34,42,43,44,45,46,47,52"/>
  <line x1="544" x2="598" y1="34.5" y2="34.5" class="net_2,3,4,5,6,7,8,9,10,11,12,13,14,15,16,17"/>
  <line x1="362" x2="447" y1="24.5" y2="24.5" class="net_32,33,34"/>
  <line x1="362" x2="447" y1="44.5" y2="44.5" class="net_42,43,44,45,46,47"/>
  <line x1="387" x2="403" y1="109" y2="109" class="net_52"/>
  <line x1="403" x2="403" y1="109" y2="64.5" class="net_52"/>
  <line x1="403" x2="447" y1="64.5" y2="64.5" class="net_52"/>
  <line x1="279" x2="357" y1="34.5" y2="34.5" class="net_19,20,21,22,23,24,25,26,27,28,29,30,31,32,33,34,35,36,37,38,39,40,41,42,43,44,45,46,47,48,49"/>
</svg>
