<svg xmlns="http://www.w3.org/2000/svg" xmlns:xlink="http://www.w3.org/1999/xlink" xmlns:s="https://github.com/nturley/netlistsvg" width="480" height="803">
  <style>svg {
    stroke:#000;
    fill:none;
  }
  text {
    fill:#000;
    stroke:none;
    font-size:10px;
    font-weight: bold;
    font-family: "Courier New", monospace;
  }
  line {
      stroke-linecap: round;
  }
  .nodelabel {
    text-anchor: middle;
  }
  .inputPortLabel {
    text-anchor: end;
  }
  .splitjoinBody {
    fill:#000;
  }</style>
  <g s:type="lt" transform="translate(358.6666666666667,465)" s:width="25" s:height="25" id="cell_\35">
    <s:alias val="$lt"/>
    <s:alias val="lt-bus"/>
    <s:alias val="$lt-bus"/>
    <circle r="12.5" cx="12.5" cy="12.5" class="cell_\35"/>
    <line x1="6" x2="17" y1="12" y2="7" class="cell_\35"/>
    <line x1="6" x2="17" y1="12" y2="17" class="cell_\35"/>
    <g s:x="2" s:y="5" s:pid="A"/>
    <g s:x="2" s:y="20" s:pid="B"/>
    <g s:x="25" s:y="12.5" s:pid="Y"/>
  </g>
  <g s:type="add" transform="translate(358.6666666666667,605)" s:width="25" s:height="25" id="cell_\37">
    <s:alias val="$add"/>
    <s:alias val="add-bus"/>
    <s:alias val="$add-bus"/>
    <circle r="12.5" cx="12.5" cy="12.5" class="cell_\37"/>
    <line x1="7.5" x2="17.5" y1="12.5" y2="12.5" class="cell_\37"/>
    <line x1="12.5" x2="12.5" y1="7.5" y2="17.5" class="cell_\37"/>
    <g s:x="2" s:y="5" s:pid="A"/>
    <g s:x="2" s:y="20" s:pid="B"/>
    <g s:x="26" s:y="12.5" s:pid="Y"/>
  </g>
  <g s:type="lt" transform="translate(292,214)" s:width="25" s:height="25" id="cell_\42">
    <s:alias val="$lt"/>
    <s:alias val="lt-bus"/>
    <s:alias val="$lt-bus"/>
    <circle r="12.5" cx="12.5" cy="12.5" class="cell_\42"/>
    <line x1="6" x2="17" y1="12" y2="7" class="cell_\42"/>
    <line x1="6" x2="17" y1="12" y2="17" class="cell_\42"/>
    <g s:x="2" s:y="5" s:pid="A"/>
    <g s:x="2" s:y="20" s:pid="B"/>
    <g s:x="25" s:y="12.5" s:pid="Y"/>
  </g>
  <g s:type="add" transform="translate(292,83)" s:width="25" s:height="25" id="cell_\44">
    <s:alias val="$add"/>
    <s:alias val="add-bus"/>
    <s:alias val="$add-bus"/>
    <circle r="12.5" cx="12.5" cy="12.5" class="cell_\44"/>
    <line x1="7.5" x2="17.5" y1="12.5" y2="12.5" class="cell_\44"/>
    <line x1="12.5" x2="12.5" y1="7.5" y2="17.5" class="cell_\44"/>
    <g s:x="2" s:y="5" s:pid="A"/>
    <g s:x="2" s:y="20" s:pid="B"/>
    <g s:x="26" s:y="12.5" s:pid="Y"/>
  </g>
  <g s:type="mux-bus" transform="translate(359,153)" s:width="24" s:height="40" id="cell_\46">
    <s:alias val="$pmux-bus"/>
    <s:alias val="$mux-bus"/>
    <s:alias val="$_MUX_-bus"/>
    <path d="M0,0 L20,10 L20,30 L0,40 Z" class="cell_\46"/>
    <path d="M4,2 L4,0 L22,9 L22,31 L4,40 L4,38" class="cell_\46"/>
    <path d="M8,2 L8,0 L24,8 L24,32 L8,40 L8,38" class="cell_\46"/>
    <text x="5" y="32" class="nodelabel cell_\46" s:attribute="">1</text>
    <text x="5" y="13" class="nodelabel cell_\46" s:attribute="">0</text>
    <g s:x="-1" s:y="10" s:pid="A"/>
    <g s:x="-1" s:y="30" s:pid="B"/>
    <g s:x="12" s:y="38" s:pid="S"/>
    <g s:x="24.5" s:y="20" s:pid="Y"/>
  </g>
  <g s:type="mux-bus" transform="translate(429,173)" s:width="24" s:height="40" id="cell_\47">
    <s:alias val="$pmux-bus"/>
    <s:alias val="$mux-bus"/>
    <s:alias val="$_MUX_-bus"/>
    <path d="M0,0 L20,10 L20,30 L0,40 Z" class="cell_\47"/>
    <path d="M4,2 L4,0 L22,9 L22,31 L4,40 L4,38" class="cell_\47"/>
    <path d="M8,2 L8,0 L24,8 L24,32 L8,40 L8,38" class="cell_\47"/>
    <text x="5" y="32" class="nodelabel cell_\47" s:attribute="">1</text>
    <text x="5" y="13" class="nodelabel cell_\47" s:attribute="">0</text>
    <g s:x="-1" s:y="10" s:pid="A"/>
    <g s:x="-1" s:y="30" s:pid="B"/>
    <g s:x="12" s:y="38" s:pid="S"/>
    <g s:x="24.5" s:y="20" s:pid="Y"/>
  </g>
  <g s:type="mux-bus" transform="translate(429,587.5)" s:width="24" s:height="40" id="cell_\49">
    <s:alias val="$pmux-bus"/>
    <s:alias val="$mux-bus"/>
    <s:alias val="$_MUX_-bus"/>
    <path d="M0,0 L20,10 L20,30 L0,40 Z" class="cell_\49"/>
    <path d="M4,2 L4,0 L22,9 L22,31 L4,40 L4,38" class="cell_\49"/>
    <path d="M8,2 L8,0 L24,8 L24,32 L8,40 L8,38" class="cell_\49"/>
    <text x="5" y="32" class="nodelabel cell_\49" s:attribute="">1</text>
    <text x="5" y="13" class="nodelabel cell_\49" s:attribute="">0</text>
    <g s:x="-1" s:y="10" s:pid="A"/>
    <g s:x="-1" s:y="30" s:pid="B"/>
    <g s:x="12" s:y="38" s:pid="S"/>
    <g s:x="24.5" s:y="20" s:pid="Y"/>
  </g>
  <g s:type="ge" transform="translate(149,272.5)" s:width="25" s:height="25" id="cell_\53">
    <s:alias val="$ge"/>
    <s:alias val="ge-bus"/>
    <s:alias val="$ge-bus"/>
    <circle r="12" cx="12" cy="12" class="cell_\53"/>
    <line x1="8" x2="19" y1="6" y2="11" class="cell_\53"/>
    <line x1="8" x2="19" y1="16" y2="11" class="cell_\53"/>
    <line x1="8" x2="19" y1="19" y2="14" class="cell_\53"/>
    <g s:x="2" s:y="5" s:pid="A"/>
    <g s:x="2" s:y="20" s:pid="B"/>
    <g s:x="25" s:y="12.5" s:pid="Y"/>
  </g>
  <g s:type="le" transform="translate(149,337.5)" s:width="25" s:height="25" id="cell_\58">
    <s:alias val="$le"/>
    <s:alias val="le-bus"/>
    <s:alias val="$le-bus"/>
    <circle r="12.5" cx="12.5" cy="12.5" class="cell_\58"/>
    <line x1="6" x2="17" y1="11" y2="6" class="cell_\58"/>
    <line x1="6" x2="17" y1="11" y2="16" class="cell_\58"/>
    <line x1="6" x2="17" y1="14" y2="19" class="cell_\58"/>
    <g s:x="2" s:y="5" s:pid="A"/>
    <g s:x="2" s:y="20" s:pid="B"/>
    <g s:x="25" s:y="12.5" s:pid="Y"/>
  </g>
  <g s:type="and" transform="translate(209.33333333333334,330)" s:width="30" s:height="25" id="cell_\59">
    <s:alias val="$and"/>
    <s:alias val="$logic_and"/>
    <s:alias val="$_AND_"/>
    <s:alias val="and-bus"/>
    <s:alias val="$and-bus"/>
    <s:alias val="$logic_and-bus"/>
    <s:alias val="$_AND_-bus"/>
    <path d="M0,0 L0,25 L15,25 A15 12.5 0 0 0 15,0 Z" class="cell_\59"/>
    <g s:x="0" s:y="5" s:pid="A"/>
    <g s:x="0" s:y="20" s:pid="B"/>
    <g s:x="30" s:y="12.5" s:pid="Y"/>
  </g>
  <g s:type="mux" transform="translate(293.6666666666667,380)" s:width="20" s:height="40" id="cell_\62">
    <s:alias val="$pmux"/>
    <s:alias val="$mux"/>
    <s:alias val="$_MUX_"/>
    <path d="M0,0 L20,10 L20,30 L0,40 Z" class="cell_\62"/>
    <text x="5" y="32" class="nodelabel cell_\62" s:attribute="">1</text>
    <text x="5" y="13" class="nodelabel cell_\62" s:attribute="">0</text>
    <g s:x="0" s:y="10" s:pid="A"/>
    <g s:x="0" s:y="30" s:pid="B"/>
    <g s:x="10" s:y="35" s:pid="S"/>
    <g s:x="20" s:y="20" s:pid="Y"/>
  </g>
  <g s:type="ge" transform="translate(149,510)" s:width="25" s:height="25" id="cell_\66">
    <s:alias val="$ge"/>
    <s:alias val="ge-bus"/>
    <s:alias val="$ge-bus"/>
    <circle r="12" cx="12" cy="12" class="cell_\66"/>
    <line x1="8" x2="19" y1="6" y2="11" class="cell_\66"/>
    <line x1="8" x2="19" y1="16" y2="11" class="cell_\66"/>
    <line x1="8" x2="19" y1="19" y2="14" class="cell_\66"/>
    <g s:x="2" s:y="5" s:pid="A"/>
    <g s:x="2" s:y="20" s:pid="B"/>
    <g s:x="25" s:y="12.5" s:pid="Y"/>
  </g>
  <g s:type="le" transform="translate(149,575)" s:width="25" s:height="25" id="cell_\71">
    <s:alias val="$le"/>
    <s:alias val="le-bus"/>
    <s:alias val="$le-bus"/>
    <circle r="12.5" cx="12.5" cy="12.5" class="cell_\71"/>
    <line x1="6" x2="17" y1="11" y2="6" class="cell_\71"/>
    <line x1="6" x2="17" y1="11" y2="16" class="cell_\71"/>
    <line x1="6" x2="17" y1="14" y2="19" class="cell_\71"/>
    <g s:x="2" s:y="5" s:pid="A"/>
    <g s:x="2" s:y="20" s:pid="B"/>
    <g s:x="25" s:y="12.5" s:pid="Y"/>
  </g>
  <g s:type="and" transform="translate(209.33333333333334,567.5)" s:width="30" s:height="25" id="cell_\72">
    <s:alias val="$and"/>
    <s:alias val="$logic_and"/>
    <s:alias val="$_AND_"/>
    <s:alias val="and-bus"/>
    <s:alias val="$and-bus"/>
    <s:alias val="$logic_and-bus"/>
    <s:alias val="$_AND_-bus"/>
    <path d="M0,0 L0,25 L15,25 A15 12.5 0 0 0 15,0 Z" class="cell_\72"/>
    <g s:x="0" s:y="5" s:pid="A"/>
    <g s:x="0" s:y="20" s:pid="B"/>
    <g s:x="30" s:y="12.5" s:pid="Y"/>
  </g>
  <g s:type="mux" transform="translate(293.6666666666667,530)" s:width="20" s:height="40" id="cell_\75">
    <s:alias val="$pmux"/>
    <s:alias val="$mux"/>
    <s:alias val="$_MUX_"/>
    <path d="M0,0 L20,10 L20,30 L0,40 Z" class="cell_\75"/>
    <text x="5" y="32" class="nodelabel cell_\75" s:attribute="">1</text>
    <text x="5" y="13" class="nodelabel cell_\75" s:attribute="">0</text>
    <g s:x="0" s:y="10" s:pid="A"/>
    <g s:x="0" s:y="30" s:pid="B"/>
    <g s:x="10" s:y="35" s:pid="S"/>
    <g s:x="20" s:y="20" s:pid="Y"/>
  </g>
  <g s:type="dff" transform="translate(357,22)" s:width="30" s:height="40" id="cell_\83">
    <s:alias val="$dff"/>
    <s:alias val="$_DFF_"/>
    <s:alias val="$_DFF_P_"/>
    <s:alias val="dff-bus"/>
    <s:alias val="$dff-bus"/>
    <s:alias val="$_DFF_-bus"/>
    <s:alias val="$_DFF_P_-bus"/>
    <rect width="30" height="40" x="0" y="0" class="cell_\83"/>
    <path d="M0,35 L5,30 L0,25" class="cell_\83"/>
    <g s:x="31" s:y="10" s:pid="Q"/>
    <g s:x="-1" s:y="30" s:pid="CLK"/>
    <g s:x="-1" s:y="30" s:pid="C"/>
    <g s:x="-1" s:y="10" s:pid="D"/>
  </g>
  <g s:type="dff" transform="translate(357,740)" s:width="30" s:height="40" id="cell_\84">
    <s:alias val="$dff"/>
    <s:alias val="$_DFF_"/>
    <s:alias val="$_DFF_P_"/>
    <s:alias val="dff-bus"/>
    <s:alias val="$dff-bus"/>
    <s:alias val="$_DFF_-bus"/>
    <s:alias val="$_DFF_P_-bus"/>
    <rect width="30" height="40" x="0" y="0" class="cell_\84"/>
    <path d="M0,35 L5,30 L0,25" class="cell_\84"/>
    <g s:x="31" s:y="10" s:pid="Q"/>
    <g s:x="-1" s:y="30" s:pid="CLK"/>
    <g s:x="-1" s:y="30" s:pid="C"/>
    <g s:x="-1" s:y="10" s:pid="D"/>
  </g>
  <g s:type="dff" transform="translate(357,390)" s:width="30" s:height="40" id="cell_\85">
    <s:alias val="$dff"/>
    <s:alias val="$_DFF_"/>
    <s:alias val="$_DFF_P_"/>
    <s:alias val="dff-bus"/>
    <s:alias val="$dff-bus"/>
    <s:alias val="$_DFF_-bus"/>
    <s:alias val="$_DFF_P_-bus"/>
    <rect width="30" height="40" x="0" y="0" class="cell_\85"/>
    <path d="M0,35 L5,30 L0,25" class="cell_\85"/>
    <g s:x="31" s:y="10" s:pid="Q"/>
    <g s:x="-1" s:y="30" s:pid="CLK"/>
    <g s:x="-1" s:y="30" s:pid="C"/>
    <g s:x="-1" s:y="10" s:pid="D"/>
  </g>
  <g s:type="dff" transform="translate(357,665)" s:width="30" s:height="40" id="cell_\86">
    <s:alias val="$dff"/>
    <s:alias val="$_DFF_"/>
    <s:alias val="$_DFF_P_"/>
    <s:alias val="dff-bus"/>
    <s:alias val="$dff-bus"/>
    <s:alias val="$_DFF_-bus"/>
    <s:alias val="$_DFF_P_-bus"/>
    <rect width="30" height="40" x="0" y="0" class="cell_\86"/>
    <path d="M0,35 L5,30 L0,25" class="cell_\86"/>
    <g s:x="31" s:y="10" s:pid="Q"/>
    <g s:x="-1" s:y="30" s:pid="CLK"/>
    <g s:x="-1" s:y="30" s:pid="C"/>
    <g s:x="-1" s:y="10" s:pid="D"/>
  </g>
  <g s:type="dff" transform="translate(78,193)" s:width="30" s:height="40" id="cell_\87">
    <s:alias val="$dff"/>
    <s:alias val="$_DFF_"/>
    <s:alias val="$_DFF_P_"/>
    <s:alias val="dff-bus"/>
    <s:alias val="$dff-bus"/>
    <s:alias val="$_DFF_-bus"/>
    <s:alias val="$_DFF_P_-bus"/>
    <rect width="30" height="40" x="0" y="0" class="cell_\87"/>
    <path d="M0,35 L5,30 L0,25" class="cell_\87"/>
    <g s:x="31" s:y="10" s:pid="Q"/>
    <g s:x="-1" s:y="30" s:pid="CLK"/>
    <g s:x="-1" s:y="30" s:pid="C"/>
    <g s:x="-1" s:y="10" s:pid="D"/>
  </g>
  <g s:type="dff" transform="translate(78,435)" s:width="30" s:height="40" id="cell_\88">
    <s:alias val="$dff"/>
    <s:alias val="$_DFF_"/>
    <s:alias val="$_DFF_P_"/>
    <s:alias val="dff-bus"/>
    <s:alias val="$dff-bus"/>
    <s:alias val="$_DFF_-bus"/>
    <s:alias val="$_DFF_P_-bus"/>
    <rect width="30" height="40" x="0" y="0" class="cell_\88"/>
    <path d="M0,35 L5,30 L0,25" class="cell_\88"/>
    <g s:x="31" s:y="10" s:pid="Q"/>
    <g s:x="-1" s:y="30" s:pid="CLK"/>
    <g s:x="-1" s:y="30" s:pid="C"/>
    <g s:x="-1" s:y="10" s:pid="D"/>
  </g>
  <g s:type="inputExt" transform="translate(12,455)" s:width="30" s:height="20" id="cell_Clk">
    <text x="15" y="-4" class="nodelabel cell_Clk" s:attribute="ref">Clk</text>
    <s:alias val="$_inputExt_"/>
    <s:alias val="inputExt-bus"/>
    <s:alias val="$_inputExt_-bus"/>
    <path d="M0,0 L0,20 L15,20 L30,10 L15,0 Z" class="cell_Clk"/>
    <g s:x="30" s:y="10" s:pid="Y"/>
  </g>
  <g s:type="outputExt" transform="translate(428,22)" s:width="30" s:height="20" id="cell_row">
    <text x="15" y="-4" class="nodelabel cell_row" s:attribute="ref">row</text>
    <s:alias val="$_outputExt_"/>
    <s:alias val="outputExt-bus"/>
    <s:alias val="$_outputExt_-bus"/>
    <path d="M30,0 L30,20 L15,20 L0,10 L15,0 Z" class="cell_row"/>
    <g s:x="0" s:y="10" s:pid="A"/>
  </g>
  <g s:type="outputExt" transform="translate(428,740)" s:width="30" s:height="20" id="cell_col">
    <text x="15" y="-4" class="nodelabel cell_col" s:attribute="ref">col</text>
    <s:alias val="$_outputExt_"/>
    <s:alias val="outputExt-bus"/>
    <s:alias val="$_outputExt_-bus"/>
    <path d="M30,0 L30,20 L15,20 L0,10 L15,0 Z" class="cell_col"/>
    <g s:x="0" s:y="10" s:pid="A"/>
  </g>
  <g s:type="outputExt" transform="translate(428,532.5)" s:width="30" s:height="20" id="cell_HSYNC">
    <text x="15" y="-4" class="nodelabel cell_HSYNC" s:attribute="ref">HSYNC</text>
    <s:alias val="$_outputExt_"/>
    <s:alias val="outputExt-bus"/>
    <s:alias val="$_outputExt_-bus"/>
    <path d="M30,0 L30,20 L15,20 L0,10 L15,0 Z" class="cell_HSYNC"/>
    <g s:x="0" s:y="10" s:pid="A"/>
  </g>
  <g s:type="outputExt" transform="translate(428,665)" s:width="30" s:height="20" id="cell_VSYNC">
    <text x="15" y="-4" class="nodelabel cell_VSYNC" s:attribute="ref">VSYNC</text>
    <s:alias val="$_outputExt_"/>
    <s:alias val="outputExt-bus"/>
    <s:alias val="$_outputExt_-bus"/>
    <path d="M30,0 L30,20 L15,20 L0,10 L15,0 Z" class="cell_VSYNC"/>
    <g s:x="0" s:y="10" s:pid="A"/>
  </g>
  <g s:type="constant" transform="translate(290,475)" s:width="30" s:height="20" id="cell_10000011111">
    <text x="15" y="-4" class="nodelabel cell_10000011111" s:attribute="ref">0x41f</text>
    <s:alias val="$_constant_"/>
    <s:alias val="constant-bus"/>
    <s:alias val="$_constant_-bus"/>
    <rect width="30" height="20" class="cell_10000011111"/>
    <g s:x="31" s:y="10" s:pid="Y"/>
  </g>
  <g s:type="constant" transform="translate(209,275)" s:width="30" s:height="20" id="cell_1">
    <text x="15" y="-4" class="nodelabel cell_1" s:attribute="ref">1</text>
    <s:alias val="$_constant_"/>
    <s:alias val="constant-bus"/>
    <s:alias val="$_constant_-bus"/>
    <rect width="30" height="20" class="cell_1"/>
    <g s:x="31" s:y="10" s:pid="Y"/>
  </g>
  <g s:type="constant" transform="translate(209,224)" s:width="30" s:height="20" id="cell_1001110000">
    <text x="15" y="-4" class="nodelabel cell_1001110000" s:attribute="ref">0x270</text>
    <s:alias val="$_constant_"/>
    <s:alias val="constant-bus"/>
    <s:alias val="$_constant_-bus"/>
    <rect width="30" height="20" class="cell_1001110000"/>
    <g s:x="31" s:y="10" s:pid="Y"/>
  </g>
  <g s:type="constant" transform="translate(290,153)" s:width="30" s:height="20" id="cell_00000000000">
    <text x="15" y="-4" class="nodelabel cell_00000000000" s:attribute="ref">0x0</text>
    <s:alias val="$_constant_"/>
    <s:alias val="constant-bus"/>
    <s:alias val="$_constant_-bus"/>
    <rect width="30" height="20" class="cell_00000000000"/>
    <g s:x="31" s:y="10" s:pid="Y"/>
  </g>
  <g s:type="constant" transform="translate(78,282.5)" s:width="30" s:height="20" id="cell_1100110000">
    <text x="15" y="-4" class="nodelabel cell_1100110000" s:attribute="ref">0x330</text>
    <s:alias val="$_constant_"/>
    <s:alias val="constant-bus"/>
    <s:alias val="$_constant_-bus"/>
    <rect width="30" height="20" class="cell_1100110000"/>
    <g s:x="31" s:y="10" s:pid="Y"/>
  </g>
  <g s:type="constant" transform="translate(78,347.5)" s:width="30" s:height="20" id="cell_1110000000">
    <text x="15" y="-4" class="nodelabel cell_1110000000" s:attribute="ref">0x380</text>
    <s:alias val="$_constant_"/>
    <s:alias val="constant-bus"/>
    <s:alias val="$_constant_-bus"/>
    <rect width="30" height="20" class="cell_1110000000"/>
    <g s:x="31" s:y="10" s:pid="Y"/>
  </g>
  <g s:type="constant" transform="translate(209,400)" s:width="30" s:height="20" id="cell_0">
    <text x="15" y="-4" class="nodelabel cell_0" s:attribute="ref">0</text>
    <s:alias val="$_constant_"/>
    <s:alias val="constant-bus"/>
    <s:alias val="$_constant_-bus"/>
    <rect width="30" height="20" class="cell_0"/>
    <g s:x="31" s:y="10" s:pid="Y"/>
  </g>
  <g s:type="constant" transform="translate(78,520)" s:width="30" s:height="20" id="cell_1001011001">
    <text x="15" y="-4" class="nodelabel cell_1001011001" s:attribute="ref">0x259</text>
    <s:alias val="$_constant_"/>
    <s:alias val="constant-bus"/>
    <s:alias val="$_constant_-bus"/>
    <rect width="30" height="20" class="cell_1001011001"/>
    <g s:x="31" s:y="10" s:pid="Y"/>
  </g>
  <g s:type="constant" transform="translate(78,585)" s:width="30" s:height="20" id="cell_1001011100">
    <text x="15" y="-4" class="nodelabel cell_1001011100" s:attribute="ref">0x25c</text>
    <s:alias val="$_constant_"/>
    <s:alias val="constant-bus"/>
    <s:alias val="$_constant_-bus"/>
    <rect width="30" height="20" class="cell_1001011100"/>
    <g s:x="31" s:y="10" s:pid="Y"/>
  </g>
  <line x1="109" x2="331" y1="445" y2="445" class="net_27,28,29,30,31,32,33,34,35,36,37"/>
  <line x1="331" x2="331" y1="445" y2="470" class="net_27,28,29,30,31,32,33,34,35,36,37"/>
  <line x1="331" x2="360.6666666666667" y1="470" y2="470" class="net_27,28,29,30,31,32,33,34,35,36,37"/>
  <line x1="109" x2="129" y1="445" y2="445" class="net_27,28,29,30,31,32,33,34,35,36,37"/>
  <line x1="129" x2="129" y1="445" y2="610" class="net_27,28,29,30,31,32,33,34,35,36,37"/>
  <circle cx="129" cy="445" r="2" style="fill:#000" class="net_27,28,29,30,31,32,33,34,35,36,37"/>
  <circle cx="129" cy="610" r="2" style="fill:#000" class="net_27,28,29,30,31,32,33,34,35,36,37"/>
  <line x1="129" x2="360.6666666666667" y1="610" y2="610" class="net_27,28,29,30,31,32,33,34,35,36,37"/>
  <line x1="109" x2="129" y1="445" y2="445" class="net_27,28,29,30,31,32,33,34,35,36,37"/>
  <line x1="129" x2="129" y1="445" y2="277.5" class="net_27,28,29,30,31,32,33,34,35,36,37"/>
  <line x1="129" x2="151" y1="277.5" y2="277.5" class="net_27,28,29,30,31,32,33,34,35,36,37"/>
  <line x1="109" x2="129" y1="445" y2="445" class="net_27,28,29,30,31,32,33,34,35,36,37"/>
  <line x1="129" x2="129" y1="445" y2="342.5" class="net_27,28,29,30,31,32,33,34,35,36,37"/>
  <circle cx="129" cy="342.5" r="2" style="fill:#000" class="net_27,28,29,30,31,32,33,34,35,36,37"/>
  <line x1="129" x2="151" y1="342.5" y2="342.5" class="net_27,28,29,30,31,32,33,34,35,36,37"/>
  <line x1="109" x2="129" y1="445" y2="445" class="net_27,28,29,30,31,32,33,34,35,36,37"/>
  <line x1="129" x2="129" y1="445" y2="750" class="net_27,28,29,30,31,32,33,34,35,36,37"/>
  <line x1="129" x2="356" y1="750" y2="750" class="net_27,28,29,30,31,32,33,34,35,36,37"/>
  <line x1="321" x2="360.6666666666667" y1="485" y2="485" class="net_114,115,116,117,118,119,120,121,122,123,124"/>
  <line x1="240" x2="270" y1="285" y2="285" class="net_125"/>
  <line x1="270" x2="270" y1="285" y2="625" class="net_125"/>
  <circle cx="270" cy="285" r="2" style="fill:#000" class="net_125"/>
  <line x1="270" x2="360.6666666666667" y1="625" y2="625" class="net_125"/>
  <line x1="240" x2="270" y1="285" y2="285" class="net_125"/>
  <line x1="270" x2="270" y1="285" y2="103" class="net_125"/>
  <line x1="270" x2="294" y1="103" y2="103" class="net_125"/>
  <line x1="240" x2="270" y1="285" y2="285" class="net_125"/>
  <line x1="270" x2="270" y1="285" y2="390" class="net_125"/>
  <circle cx="270" cy="390" r="2" style="fill:#000" class="net_125"/>
  <line x1="270" x2="293.6666666666667" y1="390" y2="390" class="net_125"/>
  <line x1="240" x2="270" y1="285" y2="285" class="net_125"/>
  <line x1="270" x2="270" y1="285" y2="540" class="net_125"/>
  <circle cx="270" cy="540" r="2" style="fill:#000" class="net_125"/>
  <line x1="270" x2="293.6666666666667" y1="540" y2="540" class="net_125"/>
  <line x1="109" x2="280" y1="203" y2="203" class="net_50,51,52,53,54,55,56,57,58,59,60"/>
  <line x1="280" x2="280" y1="203" y2="219" class="net_50,51,52,53,54,55,56,57,58,59,60"/>
  <line x1="280" x2="294" y1="219" y2="219" class="net_50,51,52,53,54,55,56,57,58,59,60"/>
  <line x1="109" x2="280" y1="203" y2="203" class="net_50,51,52,53,54,55,56,57,58,59,60"/>
  <line x1="280" x2="280" y1="203" y2="88" class="net_50,51,52,53,54,55,56,57,58,59,60"/>
  <circle cx="280" cy="203" r="2" style="fill:#000" class="net_50,51,52,53,54,55,56,57,58,59,60"/>
  <line x1="280" x2="294" y1="88" y2="88" class="net_50,51,52,53,54,55,56,57,58,59,60"/>
  <line x1="109" x2="428" y1="203" y2="203" class="net_50,51,52,53,54,55,56,57,58,59,60"/>
  <line x1="109" x2="139" y1="203" y2="203" class="net_50,51,52,53,54,55,56,57,58,59,60"/>
  <line x1="139" x2="139" y1="203" y2="515" class="net_50,51,52,53,54,55,56,57,58,59,60"/>
  <circle cx="139" cy="203" r="2" style="fill:#000" class="net_50,51,52,53,54,55,56,57,58,59,60"/>
  <circle cx="139" cy="515" r="2" style="fill:#000" class="net_50,51,52,53,54,55,56,57,58,59,60"/>
  <line x1="139" x2="151" y1="515" y2="515" class="net_50,51,52,53,54,55,56,57,58,59,60"/>
  <line x1="109" x2="139" y1="203" y2="203" class="net_50,51,52,53,54,55,56,57,58,59,60"/>
  <line x1="139" x2="139" y1="203" y2="580" class="net_50,51,52,53,54,55,56,57,58,59,60"/>
  <line x1="139" x2="151" y1="580" y2="580" class="net_50,51,52,53,54,55,56,57,58,59,60"/>
  <line x1="109" x2="139" y1="203" y2="203" class="net_50,51,52,53,54,55,56,57,58,59,60"/>
  <line x1="139" x2="139" y1="203" y2="32" class="net_50,51,52,53,54,55,56,57,58,59,60"/>
  <line x1="139" x2="356" y1="32" y2="32" class="net_50,51,52,53,54,55,56,57,58,59,60"/>
  <line x1="240" x2="294" y1="234" y2="234" class="net_126,127,128,129,130,131,132,133,134,135"/>
  <line x1="321" x2="358" y1="163" y2="163" class="net_137,138,139,140,141,142,143,144,145,146,147"/>
  <line x1="321" x2="331" y1="163" y2="163" class="net_137,138,139,140,141,142,143,144,145,146,147"/>
  <line x1="331" x2="331" y1="163" y2="215.5" class="net_137,138,139,140,141,142,143,144,145,146,147"/>
  <line x1="331" x2="418" y1="215.5" y2="215.5" class="net_137,138,139,140,141,142,143,144,145,146,147"/>
  <line x1="418" x2="418" y1="215.5" y2="597.5" class="net_137,138,139,140,141,142,143,144,145,146,147"/>
  <circle cx="331" cy="163" r="2" style="fill:#000" class="net_137,138,139,140,141,142,143,144,145,146,147"/>
  <line x1="418" x2="428" y1="597.5" y2="597.5" class="net_137,138,139,140,141,142,143,144,145,146,147"/>
  <line x1="318" x2="341" y1="95.5" y2="95.5" class="net_62,63,64,65,66,67,68,69,70,71,72"/>
  <line x1="341" x2="341" y1="95.5" y2="183" class="net_62,63,64,65,66,67,68,69,70,71,72"/>
  <line x1="341" x2="358" y1="183" y2="183" class="net_62,63,64,65,66,67,68,69,70,71,72"/>
  <line x1="317" x2="371" y1="226.5" y2="226.5" class="net_61"/>
  <line x1="371" x2="371" y1="226.5" y2="191" class="net_61"/>
  <line x1="383.5" x2="398" y1="173" y2="173" class="net_73,74,75,76,77,78,79,80,81,82,83"/>
  <line x1="398" x2="398" y1="173" y2="183" class="net_73,74,75,76,77,78,79,80,81,82,83"/>
  <line x1="398" x2="428" y1="183" y2="183" class="net_73,74,75,76,77,78,79,80,81,82,83"/>
  <line x1="383.6666666666667" x2="441" y1="477.5" y2="477.5" class="net_38"/>
  <line x1="441" x2="441" y1="477.5" y2="211" class="net_38"/>
  <line x1="383.6666666666667" x2="398" y1="477.5" y2="477.5" class="net_38"/>
  <line x1="398" x2="398" y1="477.5" y2="637.5" class="net_38"/>
  <line x1="398" x2="441" y1="637.5" y2="637.5" class="net_38"/>
  <circle cx="398" cy="477.5" r="2" style="fill:#000" class="net_38"/>
  <line x1="441" x2="441" y1="637.5" y2="625.5" class="net_38"/>
  <line x1="384.6666666666667" x2="428" y1="617.5" y2="617.5" class="net_39,40,41,42,43,44,45,46,47,48,49"/>
  <line x1="109" x2="151" y1="292.5" y2="292.5" class="net_159,160,161,162,163,164,165,166,167,168"/>
  <line x1="109" x2="151" y1="357.5" y2="357.5" class="net_169,170,171,172,173,174,175,176,177,178"/>
  <line x1="174" x2="184" y1="285" y2="285" class="net_106"/>
  <line x1="184" x2="184" y1="285" y2="335" class="net_106"/>
  <line x1="184" x2="209.33333333333334" y1="335" y2="335" class="net_106"/>
  <line x1="174" x2="209.33333333333334" y1="350" y2="350" class="net_107"/>
  <line x1="240" x2="293.6666666666667" y1="410" y2="410" class="net_180"/>
  <line x1="240" x2="250" y1="410" y2="410" class="net_180"/>
  <line x1="250" x2="250" y1="410" y2="560" class="net_180"/>
  <circle cx="250" cy="410" r="2" style="fill:#000" class="net_180"/>
  <line x1="250" x2="293.6666666666667" y1="560" y2="560" class="net_180"/>
  <line x1="239.33333333333334" x2="260" y1="342.5" y2="342.5" class="net_108"/>
  <line x1="260" x2="260" y1="342.5" y2="435" class="net_108"/>
  <line x1="260" x2="303.6666666666667" y1="435" y2="435" class="net_108"/>
  <line x1="303.6666666666667" x2="303.6666666666667" y1="435" y2="415" class="net_108"/>
  <line x1="109" x2="151" y1="530" y2="530" class="net_181,182,183,184,185,186,187,188,189,190"/>
  <line x1="109" x2="151" y1="595" y2="595" class="net_191,192,193,194,195,196,197,198,199,200"/>
  <line x1="174" x2="184" y1="522.5" y2="522.5" class="net_110"/>
  <line x1="184" x2="184" y1="522.5" y2="572.5" class="net_110"/>
  <line x1="184" x2="209.33333333333334" y1="572.5" y2="572.5" class="net_110"/>
  <line x1="174" x2="209.33333333333334" y1="587.5" y2="587.5" class="net_111"/>
  <line x1="239.33333333333334" x2="303.6666666666667" y1="580" y2="580" class="net_112"/>
  <line x1="303.6666666666667" x2="303.6666666666667" y1="580" y2="565" class="net_112"/>
  <line x1="42" x2="52" y1="465" y2="465" class="net_2"/>
  <line x1="52" x2="52" y1="465" y2="52" class="net_2"/>
  <circle cx="52" cy="465" r="2" style="fill:#000" class="net_2"/>
  <line x1="52" x2="356" y1="52" y2="52" class="net_2"/>
  <line x1="42" x2="52" y1="465" y2="465" class="net_2"/>
  <line x1="52" x2="52" y1="465" y2="770" class="net_2"/>
  <line x1="52" x2="356" y1="770" y2="770" class="net_2"/>
  <line x1="42" x2="52" y1="465" y2="465" class="net_2"/>
  <line x1="52" x2="52" y1="465" y2="254" class="net_2"/>
  <line x1="52" x2="331" y1="254" y2="254" class="net_2"/>
  <line x1="331" x2="331" y1="254" y2="420" class="net_2"/>
  <circle cx="52" cy="254" r="2" style="fill:#000" class="net_2"/>
  <line x1="331" x2="356" y1="420" y2="420" class="net_2"/>
  <line x1="42" x2="52" y1="465" y2="465" class="net_2"/>
  <line x1="52" x2="52" y1="465" y2="770" class="net_2"/>
  <line x1="52" x2="119" y1="770" y2="770" class="net_2"/>
  <line x1="119" x2="119" y1="770" y2="695" class="net_2"/>
  <circle cx="119" cy="770" r="2" style="fill:#000" class="net_2"/>
  <line x1="119" x2="356" y1="695" y2="695" class="net_2"/>
  <line x1="42" x2="52" y1="465" y2="465" class="net_2"/>
  <line x1="52" x2="52" y1="465" y2="223" class="net_2"/>
  <circle cx="52" cy="223" r="2" style="fill:#000" class="net_2"/>
  <line x1="52" x2="77" y1="223" y2="223" class="net_2"/>
  <line x1="42" x2="77" y1="465" y2="465" class="net_2"/>
  <line x1="313.6666666666667" x2="356" y1="400" y2="400" class="net_109"/>
  <line x1="313.6666666666667" x2="331" y1="550" y2="550" class="net_113"/>
  <line x1="331" x2="331" y1="550" y2="675" class="net_113"/>
  <line x1="331" x2="356" y1="675" y2="675" class="net_113"/>
  <line x1="453.5" x2="468" y1="193" y2="193" class="net_84,85,86,87,88,89,90,91,92,93,94"/>
  <line x1="468" x2="468" y1="193" y2="72" class="net_84,85,86,87,88,89,90,91,92,93,94"/>
  <line x1="468" x2="62" y1="72" y2="72" class="net_84,85,86,87,88,89,90,91,92,93,94"/>
  <line x1="62" x2="62" y1="72" y2="203" class="net_84,85,86,87,88,89,90,91,92,93,94"/>
  <line x1="62" x2="77" y1="203" y2="203" class="net_84,85,86,87,88,89,90,91,92,93,94"/>
  <line x1="453.5" x2="468" y1="607.5" y2="607.5" class="net_95,96,97,98,99,100,101,102,103,104,105"/>
  <line x1="468" x2="468" y1="607.5" y2="790" class="net_95,96,97,98,99,100,101,102,103,104,105"/>
  <line x1="468" x2="62" y1="790" y2="790" class="net_95,96,97,98,99,100,101,102,103,104,105"/>
  <line x1="62" x2="62" y1="790" y2="445" class="net_95,96,97,98,99,100,101,102,103,104,105"/>
  <line x1="62" x2="77" y1="445" y2="445" class="net_95,96,97,98,99,100,101,102,103,104,105"/>
  <line x1="388" x2="428" y1="32" y2="32" class="net_3,4,5,6,7,8,9,10,11,12,13"/>
  <line x1="388" x2="428" y1="750" y2="750" class="net_14,15,16,17,18,19,20,21,22,23,24"/>
  <line x1="388" x2="408" y1="400" y2="400" class="net_25"/>
  <line x1="408" x2="408" y1="400" y2="542.5" class="net_25"/>
  <line x1="408" x2="428" y1="542.5" y2="542.5" class="net_25"/>
  <line x1="388" x2="428" y1="675" y2="675" class="net_26"/>
</svg>
