<svg xmlns="http://www.w3.org/2000/svg" xmlns:xlink="http://www.w3.org/1999/xlink" xmlns:s="https://github.com/nturley/netlistsvg" width="674" height="621">
  <style>svg {
    stroke:#000;
    fill:none;
  }
  text {
    fill:#000;
    stroke:none;
    font-size:10px;
    font-weight: bold;
    font-family: "Courier New", monospace;
  }
  .nodelabel {
    text-anchor: middle;
  }
  .inputPortLabel {
    text-anchor: end;
  }
  .splitjoinBody {
    fill:#000;
  }</style>
  <g s:type="generic" transform="translate(164,275.5)" s:width="30" s:height="40" id="cell_\35">
    <text x="15" y="-4" class="nodelabel cell_\35" s:attribute="ref">$lt</text>
    <rect width="30" height="40" s:generic="body" class="cell_\35"/>
    <g transform="translate(0,10)" s:x="0" s:y="10" s:pid="in0" id="port_\35~A">
      <text x="-3" y="-4" class="inputPortLabel cell_\35">A</text>
    </g>
    <g transform="translate(0,30)" s:x="0" s:y="10" s:pid="in0" id="port_\35~B">
      <text x="-3" y="-4" class="inputPortLabel cell_\35">B</text>
    </g>
    <g transform="translate(30,10)" s:x="30" s:y="10" s:pid="out0" id="port_\35~Y">
      <text x="5" y="-4" style="fill:#000; stroke:none" class="cell_\35">Y</text>
    </g>
  </g>
  <g s:type="add" transform="translate(167.66666666666666,22)" s:width="25" s:height="25" id="cell_\37">
    <s:alias val="$add"/>
    <circle r="12.5" cx="12.5" cy="12.5" class="cell_\37"/>
    <line x1="7.5" x2="17.5" y1="12.5" y2="12.5" class="cell_\37"/>
    <line x1="12.5" x2="12.5" y1="7.5" y2="17.5" class="cell_\37"/>
    <g s:x="3" s:y="5" s:pid="A"/>
    <g s:x="3" s:y="20" s:pid="B"/>
    <g s:x="25" s:y="12.5" s:pid="Y"/>
  </g>
  <g s:type="generic" transform="translate(84,555)" s:width="30" s:height="40" id="cell_\42">
    <text x="15" y="-4" class="nodelabel cell_\42" s:attribute="ref">$lt</text>
    <rect width="30" height="40" s:generic="body" class="cell_\42"/>
    <g transform="translate(0,10)" s:x="0" s:y="10" s:pid="in0" id="port_\42~A">
      <text x="-3" y="-4" class="inputPortLabel cell_\42">A</text>
    </g>
    <g transform="translate(0,30)" s:x="0" s:y="10" s:pid="in0" id="port_\42~B">
      <text x="-3" y="-4" class="inputPortLabel cell_\42">B</text>
    </g>
    <g transform="translate(30,10)" s:x="30" s:y="10" s:pid="out0" id="port_\42~Y">
      <text x="5" y="-4" style="fill:#000; stroke:none" class="cell_\42">Y</text>
    </g>
  </g>
  <g s:type="add" transform="translate(87.66666666666667,475)" s:width="25" s:height="25" id="cell_\44">
    <s:alias val="$add"/>
    <circle r="12.5" cx="12.5" cy="12.5" class="cell_\44"/>
    <line x1="7.5" x2="17.5" y1="12.5" y2="12.5" class="cell_\44"/>
    <line x1="12.5" x2="12.5" y1="7.5" y2="17.5" class="cell_\44"/>
    <g s:x="3" s:y="5" s:pid="A"/>
    <g s:x="3" s:y="20" s:pid="B"/>
    <g s:x="25" s:y="12.5" s:pid="Y"/>
  </g>
  <g s:type="mux" transform="translate(167.66666666666666,457.5)" s:width="20" s:height="40" id="cell_\46">
    <s:alias val="$pmux"/>
    <s:alias val="$mux"/>
    <s:alias val="$_MUX_"/>
    <path d="M0,0 L20,10 L20,30 L0,40 Z" class="cell_\46"/>
    <g s:x="0" s:y="10" s:pid="A"/>
    <g s:x="0" s:y="30" s:pid="B"/>
    <g s:x="10" s:y="35" s:pid="S"/>
    <g s:x="20" s:y="20" s:pid="Y"/>
  </g>
  <g s:type="mux" transform="translate(243.66666666666666,467.5)" s:width="20" s:height="40" id="cell_\47">
    <s:alias val="$pmux"/>
    <s:alias val="$mux"/>
    <s:alias val="$_MUX_"/>
    <path d="M0,0 L20,10 L20,30 L0,40 Z" class="cell_\47"/>
    <g s:x="0" s:y="10" s:pid="A"/>
    <g s:x="0" s:y="30" s:pid="B"/>
    <g s:x="10" s:y="35" s:pid="S"/>
    <g s:x="20" s:y="20" s:pid="Y"/>
  </g>
  <g s:type="mux" transform="translate(240.33333333333334,78)" s:width="20" s:height="40" id="cell_\49">
    <s:alias val="$pmux"/>
    <s:alias val="$mux"/>
    <s:alias val="$_MUX_"/>
    <path d="M0,0 L20,10 L20,30 L0,40 Z" class="cell_\49"/>
    <g s:x="0" s:y="10" s:pid="A"/>
    <g s:x="0" s:y="30" s:pid="B"/>
    <g s:x="10" s:y="35" s:pid="S"/>
    <g s:x="20" s:y="20" s:pid="Y"/>
  </g>
  <g s:type="generic" transform="translate(374,137.5)" s:width="30" s:height="40" id="cell_\53">
    <text x="15" y="-4" class="nodelabel cell_\53" s:attribute="ref">$ge</text>
    <rect width="30" height="40" s:generic="body" class="cell_\53"/>
    <g transform="translate(0,10)" s:x="0" s:y="10" s:pid="in0" id="port_\53~A">
      <text x="-3" y="-4" class="inputPortLabel cell_\53">A</text>
    </g>
    <g transform="translate(0,30)" s:x="0" s:y="10" s:pid="in0" id="port_\53~B">
      <text x="-3" y="-4" class="inputPortLabel cell_\53">B</text>
    </g>
    <g transform="translate(30,10)" s:x="30" s:y="10" s:pid="out0" id="port_\53~Y">
      <text x="5" y="-4" style="fill:#000; stroke:none" class="cell_\53">Y</text>
    </g>
  </g>
  <g s:type="generic" transform="translate(374,225.5)" s:width="30" s:height="40" id="cell_\58">
    <text x="15" y="-4" class="nodelabel cell_\58" s:attribute="ref">$le</text>
    <rect width="30" height="40" s:generic="body" class="cell_\58"/>
    <g transform="translate(0,10)" s:x="0" s:y="10" s:pid="in0" id="port_\58~A">
      <text x="-3" y="-4" class="inputPortLabel cell_\58">A</text>
    </g>
    <g transform="translate(0,30)" s:x="0" s:y="10" s:pid="in0" id="port_\58~B">
      <text x="-3" y="-4" class="inputPortLabel cell_\58">B</text>
    </g>
    <g transform="translate(30,10)" s:x="30" s:y="10" s:pid="out0" id="port_\58~Y">
      <text x="5" y="-4" style="fill:#000; stroke:none" class="cell_\58">Y</text>
    </g>
  </g>
  <g s:type="and" transform="translate(447,216)" s:width="30" s:height="25" id="cell_\59">
    <s:alias val="$and"/>
    <s:alias val="$logic_and"/>
    <s:alias val="$_AND_"/>
    <path d="M0,0 L0,25 L15,25 A15 12.5 0 0 0 15,0 Z" class="cell_\59"/>
    <g s:x="0" s:y="5" s:pid="A"/>
    <g s:x="0" s:y="20" s:pid="B"/>
    <g s:x="30" s:y="12.5" s:pid="Y"/>
  </g>
  <g s:type="mux" transform="translate(512,178.5)" s:width="20" s:height="40" id="cell_\62">
    <s:alias val="$pmux"/>
    <s:alias val="$mux"/>
    <s:alias val="$_MUX_"/>
    <path d="M0,0 L20,10 L20,30 L0,40 Z" class="cell_\62"/>
    <g s:x="0" s:y="10" s:pid="A"/>
    <g s:x="0" s:y="30" s:pid="B"/>
    <g s:x="10" s:y="35" s:pid="S"/>
    <g s:x="20" s:y="20" s:pid="Y"/>
  </g>
  <g s:type="generic" transform="translate(374,477)" s:width="30" s:height="40" id="cell_\66">
    <text x="15" y="-4" class="nodelabel cell_\66" s:attribute="ref">$ge</text>
    <rect width="30" height="40" s:generic="body" class="cell_\66"/>
    <g transform="translate(0,10)" s:x="0" s:y="10" s:pid="in0" id="port_\66~A">
      <text x="-3" y="-4" class="inputPortLabel cell_\66">A</text>
    </g>
    <g transform="translate(0,30)" s:x="0" s:y="10" s:pid="in0" id="port_\66~B">
      <text x="-3" y="-4" class="inputPortLabel cell_\66">B</text>
    </g>
    <g transform="translate(30,10)" s:x="30" s:y="10" s:pid="out0" id="port_\66~Y">
      <text x="5" y="-4" style="fill:#000; stroke:none" class="cell_\66">Y</text>
    </g>
  </g>
  <g s:type="generic" transform="translate(374,337)" s:width="30" s:height="40" id="cell_\71">
    <text x="15" y="-4" class="nodelabel cell_\71" s:attribute="ref">$le</text>
    <rect width="30" height="40" s:generic="body" class="cell_\71"/>
    <g transform="translate(0,10)" s:x="0" s:y="10" s:pid="in0" id="port_\71~A">
      <text x="-3" y="-4" class="inputPortLabel cell_\71">A</text>
    </g>
    <g transform="translate(0,30)" s:x="0" s:y="10" s:pid="in0" id="port_\71~B">
      <text x="-3" y="-4" class="inputPortLabel cell_\71">B</text>
    </g>
    <g transform="translate(30,10)" s:x="30" s:y="10" s:pid="out0" id="port_\71~Y">
      <text x="5" y="-4" style="fill:#000; stroke:none" class="cell_\71">Y</text>
    </g>
  </g>
  <g s:type="and" transform="translate(447,482.5)" s:width="30" s:height="25" id="cell_\72">
    <s:alias val="$and"/>
    <s:alias val="$logic_and"/>
    <s:alias val="$_AND_"/>
    <path d="M0,0 L0,25 L15,25 A15 12.5 0 0 0 15,0 Z" class="cell_\72"/>
    <g s:x="0" s:y="5" s:pid="A"/>
    <g s:x="0" s:y="20" s:pid="B"/>
    <g s:x="30" s:y="12.5" s:pid="Y"/>
  </g>
  <g s:type="mux" transform="translate(512,266)" s:width="20" s:height="40" id="cell_\75">
    <s:alias val="$pmux"/>
    <s:alias val="$mux"/>
    <s:alias val="$_MUX_"/>
    <path d="M0,0 L20,10 L20,30 L0,40 Z" class="cell_\75"/>
    <g s:x="0" s:y="10" s:pid="A"/>
    <g s:x="0" s:y="30" s:pid="B"/>
    <g s:x="10" s:y="35" s:pid="S"/>
    <g s:x="20" s:y="20" s:pid="Y"/>
  </g>
  <g s:type="dff" transform="translate(567,520)" s:width="30" s:height="40" id="cell_\83">
    <s:alias val="$dff"/>
    <s:alias val="$_DFF_"/>
    <rect width="30" height="40" x="0" y="0" class="cell_\83"/>
    <path d="M0,35 L5,30 L0,25" class="cell_\83"/>
    <g s:x="30" s:y="10" s:pid="Q"/>
    <g s:x="0" s:y="30" s:pid="CLK"/>
    <g s:x="0" s:y="10" s:pid="D"/>
  </g>
  <g s:type="dff" transform="translate(567,88)" s:width="30" s:height="40" id="cell_\84">
    <s:alias val="$dff"/>
    <s:alias val="$_DFF_"/>
    <rect width="30" height="40" x="0" y="0" class="cell_\84"/>
    <path d="M0,35 L5,30 L0,25" class="cell_\84"/>
    <g s:x="30" s:y="10" s:pid="Q"/>
    <g s:x="0" s:y="30" s:pid="CLK"/>
    <g s:x="0" s:y="10" s:pid="D"/>
  </g>
  <g s:type="dff" transform="translate(567,188.5)" s:width="30" s:height="40" id="cell_\85">
    <s:alias val="$dff"/>
    <s:alias val="$_DFF_"/>
    <rect width="30" height="40" x="0" y="0" class="cell_\85"/>
    <path d="M0,35 L5,30 L0,25" class="cell_\85"/>
    <g s:x="30" s:y="10" s:pid="Q"/>
    <g s:x="0" s:y="30" s:pid="CLK"/>
    <g s:x="0" s:y="10" s:pid="D"/>
  </g>
  <g s:type="dff" transform="translate(567,286)" s:width="30" s:height="40" id="cell_\86">
    <s:alias val="$dff"/>
    <s:alias val="$_DFF_"/>
    <rect width="30" height="40" x="0" y="0" class="cell_\86"/>
    <path d="M0,35 L5,30 L0,25" class="cell_\86"/>
    <g s:x="30" s:y="10" s:pid="Q"/>
    <g s:x="0" s:y="30" s:pid="CLK"/>
    <g s:x="0" s:y="10" s:pid="D"/>
  </g>
  <g s:type="dff" transform="translate(302,477.5)" s:width="30" s:height="40" id="cell_\87">
    <s:alias val="$dff"/>
    <s:alias val="$_DFF_"/>
    <rect width="30" height="40" x="0" y="0" class="cell_\87"/>
    <path d="M0,35 L5,30 L0,25" class="cell_\87"/>
    <g s:x="30" s:y="10" s:pid="Q"/>
    <g s:x="0" s:y="30" s:pid="CLK"/>
    <g s:x="0" s:y="10" s:pid="D"/>
  </g>
  <g s:type="dff" transform="translate(302,88)" s:width="30" s:height="40" id="cell_\88">
    <s:alias val="$dff"/>
    <s:alias val="$_DFF_"/>
    <rect width="30" height="40" x="0" y="0" class="cell_\88"/>
    <path d="M0,35 L5,30 L0,25" class="cell_\88"/>
    <g s:x="30" s:y="10" s:pid="Q"/>
    <g s:x="0" s:y="30" s:pid="CLK"/>
    <g s:x="0" s:y="10" s:pid="D"/>
  </g>
  <g s:type="inputExt" transform="translate(237,306)" s:width="30" s:height="20" id="cell_Clk">
    <text x="15" y="-4" class="nodelabel cell_Clk" s:attribute="ref">Clk</text>
    <s:alias val="$_inputExt_"/>
    <path d="M0,0 L0,20 L15,20 L30,10 L15,0 Z" class="cell_Clk"/>
    <g s:x="28" s:y="10" s:pid="Y"/>
  </g>
  <g s:type="outputExt" transform="translate(632,520)" s:width="30" s:height="20" id="cell_row">
    <text x="15" y="-4" class="nodelabel cell_row" s:attribute="ref">row</text>
    <s:alias val="$_outputExt_"/>
    <path d="M30,0 L30,20 L15,20 L0,10 L15,0 Z" class="cell_row"/>
    <g s:x="0" s:y="10" s:pid="A"/>
  </g>
  <g s:type="outputExt" transform="translate(632,88)" s:width="30" s:height="20" id="cell_col">
    <text x="15" y="-4" class="nodelabel cell_col" s:attribute="ref">col</text>
    <s:alias val="$_outputExt_"/>
    <path d="M30,0 L30,20 L15,20 L0,10 L15,0 Z" class="cell_col"/>
    <g s:x="0" s:y="10" s:pid="A"/>
  </g>
  <g s:type="outputExt" transform="translate(632,188.5)" s:width="30" s:height="20" id="cell_HSYNC">
    <text x="15" y="-4" class="nodelabel cell_HSYNC" s:attribute="ref">HSYNC</text>
    <s:alias val="$_outputExt_"/>
    <path d="M30,0 L30,20 L15,20 L0,10 L15,0 Z" class="cell_HSYNC"/>
    <g s:x="0" s:y="10" s:pid="A"/>
  </g>
  <g s:type="outputExt" transform="translate(632,286)" s:width="30" s:height="20" id="cell_VSYNC">
    <text x="15" y="-4" class="nodelabel cell_VSYNC" s:attribute="ref">VSYNC</text>
    <s:alias val="$_outputExt_"/>
    <path d="M30,0 L30,20 L15,20 L0,10 L15,0 Z" class="cell_VSYNC"/>
    <g s:x="0" s:y="10" s:pid="A"/>
  </g>
  <g s:type="constant" transform="translate(84,296)" s:width="30" s:height="20" id="cell_10000011111">
    <text x="15" y="-4" class="nodelabel cell_10000011111" s:attribute="ref">0x41f</text>
    <s:alias val="$_constant_"/>
    <rect width="30" height="20" class="cell_10000011111"/>
    <g s:x="30" s:y="10" s:pid="Y"/>
  </g>
  <g s:type="constant" transform="translate(12,47)" s:width="30" s:height="20" id="cell_1">
    <text x="15" y="-4" class="nodelabel cell_1" s:attribute="ref">1</text>
    <s:alias val="$_constant_"/>
    <rect width="30" height="20" class="cell_1"/>
    <g s:x="30" s:y="10" s:pid="Y"/>
  </g>
  <g s:type="constant" transform="translate(12,575.5)" s:width="30" s:height="20" id="cell_1001110000">
    <text x="15" y="-4" class="nodelabel cell_1001110000" s:attribute="ref">0x270</text>
    <s:alias val="$_constant_"/>
    <rect width="30" height="20" class="cell_1001110000"/>
    <g s:x="30" s:y="10" s:pid="Y"/>
  </g>
  <g s:type="constant" transform="translate(84,78)" s:width="30" s:height="20" id="cell_00000000000">
    <text x="15" y="-4" class="nodelabel cell_00000000000" s:attribute="ref">0x0</text>
    <s:alias val="$_constant_"/>
    <rect width="30" height="20" class="cell_00000000000"/>
    <g s:x="30" s:y="10" s:pid="Y"/>
  </g>
  <g s:type="constant" transform="translate(302,158)" s:width="30" s:height="20" id="cell_1100110000">
    <text x="15" y="-4" class="nodelabel cell_1100110000" s:attribute="ref">0x330</text>
    <s:alias val="$_constant_"/>
    <rect width="30" height="20" class="cell_1100110000"/>
    <g s:x="30" s:y="10" s:pid="Y"/>
  </g>
  <g s:type="constant" transform="translate(302,246)" s:width="30" s:height="20" id="cell_1110000000">
    <text x="15" y="-4" class="nodelabel cell_1110000000" s:attribute="ref">0x380</text>
    <s:alias val="$_constant_"/>
    <rect width="30" height="20" class="cell_1110000000"/>
    <g s:x="30" s:y="10" s:pid="Y"/>
  </g>
  <g s:type="constant" transform="translate(447,286)" s:width="30" s:height="20" id="cell_0">
    <text x="15" y="-4" class="nodelabel cell_0" s:attribute="ref">0</text>
    <s:alias val="$_constant_"/>
    <rect width="30" height="20" class="cell_0"/>
    <g s:x="30" s:y="10" s:pid="Y"/>
  </g>
  <g s:type="constant" transform="translate(302,422.5)" s:width="30" s:height="20" id="cell_1001011001">
    <text x="15" y="-4" class="nodelabel cell_1001011001" s:attribute="ref">0x259</text>
    <s:alias val="$_constant_"/>
    <rect width="30" height="20" class="cell_1001011001"/>
    <g s:x="30" s:y="10" s:pid="Y"/>
  </g>
  <g s:type="constant" transform="translate(302,357.5)" s:width="30" s:height="20" id="cell_1001011100">
    <text x="15" y="-4" class="nodelabel cell_1001011100" s:attribute="ref">0x25c</text>
    <s:alias val="$_constant_"/>
    <rect width="30" height="20" class="cell_1001011100"/>
    <g s:x="30" s:y="10" s:pid="Y"/>
  </g>
  <line x1="332" x2="342" y1="98" y2="98" class="net_27,28,29,30,31,32,33,34,35,36,37"/>
  <line x1="342" x2="342" y1="98" y2="138" class="net_27,28,29,30,31,32,33,34,35,36,37"/>
  <line x1="342" x2="142" y1="138" y2="138" class="net_27,28,29,30,31,32,33,34,35,36,37"/>
  <line x1="142" x2="142" y1="138" y2="286" class="net_27,28,29,30,31,32,33,34,35,36,37"/>
  <circle cx="342" cy="138" r="2" style="fill:#000" class="net_27,28,29,30,31,32,33,34,35,36,37"/>
  <line x1="142" x2="164" y1="286" y2="286" class="net_27,28,29,30,31,32,33,34,35,36,37"/>
  <line x1="332" x2="342" y1="98" y2="98" class="net_27,28,29,30,31,32,33,34,35,36,37"/>
  <line x1="342" x2="342" y1="98" y2="12" class="net_27,28,29,30,31,32,33,34,35,36,37"/>
  <line x1="342" x2="142" y1="12" y2="12" class="net_27,28,29,30,31,32,33,34,35,36,37"/>
  <line x1="142" x2="142" y1="12" y2="27" class="net_27,28,29,30,31,32,33,34,35,36,37"/>
  <circle cx="342" cy="98" r="2" style="fill:#000" class="net_27,28,29,30,31,32,33,34,35,36,37"/>
  <line x1="142" x2="170.66666666666666" y1="27" y2="27" class="net_27,28,29,30,31,32,33,34,35,36,37"/>
  <line x1="332" x2="342" y1="98" y2="98" class="net_27,28,29,30,31,32,33,34,35,36,37"/>
  <line x1="342" x2="342" y1="98" y2="148" class="net_27,28,29,30,31,32,33,34,35,36,37"/>
  <circle cx="342" cy="148" r="2" style="fill:#000" class="net_27,28,29,30,31,32,33,34,35,36,37"/>
  <line x1="342" x2="374" y1="148" y2="148" class="net_27,28,29,30,31,32,33,34,35,36,37"/>
  <line x1="332" x2="342" y1="98" y2="98" class="net_27,28,29,30,31,32,33,34,35,36,37"/>
  <line x1="342" x2="342" y1="98" y2="236" class="net_27,28,29,30,31,32,33,34,35,36,37"/>
  <line x1="342" x2="374" y1="236" y2="236" class="net_27,28,29,30,31,32,33,34,35,36,37"/>
  <line x1="332" x2="567" y1="98" y2="98" class="net_27,28,29,30,31,32,33,34,35,36,37"/>
  <line x1="114" x2="164" y1="306" y2="306" class="net_114,115,116,117,118,119,120,121,122,123,124"/>
  <line x1="42" x2="132" y1="57" y2="57" class="net_125"/>
  <line x1="132" x2="132" y1="57" y2="42" class="net_125"/>
  <circle cx="132" cy="57" r="2" style="fill:#000" class="net_125"/>
  <line x1="132" x2="170.66666666666666" y1="42" y2="42" class="net_125"/>
  <line x1="42" x2="62" y1="57" y2="57" class="net_125"/>
  <line x1="62" x2="62" y1="57" y2="495" class="net_125"/>
  <circle cx="62" cy="57" r="2" style="fill:#000" class="net_125"/>
  <line x1="62" x2="90.66666666666667" y1="495" y2="495" class="net_125"/>
  <line x1="42" x2="497" y1="57" y2="57" class="net_125"/>
  <line x1="497" x2="497" y1="57" y2="188.5" class="net_125"/>
  <circle cx="497" cy="188.5" r="2" style="fill:#000" class="net_125"/>
  <line x1="497" x2="512" y1="188.5" y2="188.5" class="net_125"/>
  <line x1="42" x2="497" y1="57" y2="57" class="net_125"/>
  <line x1="497" x2="497" y1="57" y2="276" class="net_125"/>
  <line x1="497" x2="512" y1="276" y2="276" class="net_125"/>
  <line x1="332" x2="342" y1="487.5" y2="487.5" class="net_50,51,52,53,54,55,56,57,58,59,60"/>
  <line x1="342" x2="342" y1="487.5" y2="608" class="net_50,51,52,53,54,55,56,57,58,59,60"/>
  <line x1="342" x2="62" y1="608" y2="608" class="net_50,51,52,53,54,55,56,57,58,59,60"/>
  <line x1="62" x2="62" y1="608" y2="565.5" class="net_50,51,52,53,54,55,56,57,58,59,60"/>
  <line x1="62" x2="84" y1="565.5" y2="565.5" class="net_50,51,52,53,54,55,56,57,58,59,60"/>
  <line x1="332" x2="342" y1="487.5" y2="487.5" class="net_50,51,52,53,54,55,56,57,58,59,60"/>
  <line x1="342" x2="342" y1="487.5" y2="608" class="net_50,51,52,53,54,55,56,57,58,59,60"/>
  <line x1="342" x2="212" y1="608" y2="608" class="net_50,51,52,53,54,55,56,57,58,59,60"/>
  <line x1="212" x2="212" y1="608" y2="535" class="net_50,51,52,53,54,55,56,57,58,59,60"/>
  <line x1="212" x2="52" y1="535" y2="535" class="net_50,51,52,53,54,55,56,57,58,59,60"/>
  <line x1="52" x2="52" y1="535" y2="480" class="net_50,51,52,53,54,55,56,57,58,59,60"/>
  <circle cx="212" cy="535" r="2" style="fill:#000" class="net_50,51,52,53,54,55,56,57,58,59,60"/>
  <circle cx="212" cy="608" r="2" style="fill:#000" class="net_50,51,52,53,54,55,56,57,58,59,60"/>
  <line x1="52" x2="90.66666666666667" y1="480" y2="480" class="net_50,51,52,53,54,55,56,57,58,59,60"/>
  <line x1="332" x2="342" y1="487.5" y2="487.5" class="net_50,51,52,53,54,55,56,57,58,59,60"/>
  <line x1="342" x2="342" y1="487.5" y2="608" class="net_50,51,52,53,54,55,56,57,58,59,60"/>
  <line x1="342" x2="212" y1="608" y2="608" class="net_50,51,52,53,54,55,56,57,58,59,60"/>
  <line x1="212" x2="212" y1="608" y2="497.5" class="net_50,51,52,53,54,55,56,57,58,59,60"/>
  <line x1="212" x2="243.66666666666666" y1="497.5" y2="497.5" class="net_50,51,52,53,54,55,56,57,58,59,60"/>
  <line x1="332" x2="374" y1="487.5" y2="487.5" class="net_50,51,52,53,54,55,56,57,58,59,60"/>
  <line x1="332" x2="342" y1="487.5" y2="487.5" class="net_50,51,52,53,54,55,56,57,58,59,60"/>
  <line x1="342" x2="342" y1="487.5" y2="347.5" class="net_50,51,52,53,54,55,56,57,58,59,60"/>
  <circle cx="342" cy="487.5" r="2" style="fill:#000" class="net_50,51,52,53,54,55,56,57,58,59,60"/>
  <line x1="342" x2="374" y1="347.5" y2="347.5" class="net_50,51,52,53,54,55,56,57,58,59,60"/>
  <line x1="332" x2="342" y1="487.5" y2="487.5" class="net_50,51,52,53,54,55,56,57,58,59,60"/>
  <line x1="342" x2="342" y1="487.5" y2="530" class="net_50,51,52,53,54,55,56,57,58,59,60"/>
  <circle cx="342" cy="530" r="2" style="fill:#000" class="net_50,51,52,53,54,55,56,57,58,59,60"/>
  <line x1="342" x2="567" y1="530" y2="530" class="net_50,51,52,53,54,55,56,57,58,59,60"/>
  <line x1="42" x2="84" y1="585.5" y2="585.5" class="net_126,127,128,129,130,131,132,133,134,135"/>
  <line x1="114" x2="132" y1="88" y2="88" class="net_137,138,139,140,141,142,143,144,145,146,147"/>
  <line x1="132" x2="132" y1="88" y2="467.5" class="net_137,138,139,140,141,142,143,144,145,146,147"/>
  <circle cx="132" cy="88" r="2" style="fill:#000" class="net_137,138,139,140,141,142,143,144,145,146,147"/>
  <line x1="132" x2="167.66666666666666" y1="467.5" y2="467.5" class="net_137,138,139,140,141,142,143,144,145,146,147"/>
  <line x1="114" x2="240.33333333333334" y1="88" y2="88" class="net_137,138,139,140,141,142,143,144,145,146,147"/>
  <line x1="112.66666666666667" x2="167.66666666666666" y1="487.5" y2="487.5" class="net_62,63,64,65,66,67,68,69,70,71,72"/>
  <line x1="115" x2="177.66666666666666" y1="565.5" y2="565.5" class="net_61"/>
  <line x1="177.66666666666666" x2="177.66666666666666" y1="565.5" y2="492.5" class="net_61"/>
  <line x1="187.66666666666666" x2="243.66666666666666" y1="477.5" y2="477.5" class="net_73,74,75,76,77,78,79,80,81,82,83"/>
  <line x1="195" x2="222" y1="286" y2="286" class="net_38"/>
  <line x1="222" x2="222" y1="286" y2="517.5" class="net_38"/>
  <line x1="222" x2="253.66666666666666" y1="517.5" y2="517.5" class="net_38"/>
  <circle cx="222" cy="286" r="2" style="fill:#000" class="net_38"/>
  <line x1="253.66666666666666" x2="253.66666666666666" y1="517.5" y2="502.5" class="net_38"/>
  <line x1="195" x2="250.33333333333334" y1="286" y2="286" class="net_38"/>
  <line x1="250.33333333333334" x2="250.33333333333334" y1="286" y2="113" class="net_38"/>
  <line x1="192.66666666666666" x2="212" y1="34.5" y2="34.5" class="net_39,40,41,42,43,44,45,46,47,48,49"/>
  <line x1="212" x2="212" y1="34.5" y2="108" class="net_39,40,41,42,43,44,45,46,47,48,49"/>
  <line x1="212" x2="240.33333333333334" y1="108" y2="108" class="net_39,40,41,42,43,44,45,46,47,48,49"/>
  <line x1="332" x2="374" y1="168" y2="168" class="net_159,160,161,162,163,164,165,166,167,168"/>
  <line x1="332" x2="374" y1="256" y2="256" class="net_169,170,171,172,173,174,175,176,177,178"/>
  <line x1="405" x2="422" y1="148" y2="148" class="net_106"/>
  <line x1="422" x2="422" y1="148" y2="221" class="net_106"/>
  <line x1="422" x2="447" y1="221" y2="221" class="net_106"/>
  <line x1="405" x2="447" y1="236" y2="236" class="net_107"/>
  <line x1="477" x2="487" y1="296" y2="296" class="net_180"/>
  <line x1="487" x2="487" y1="296" y2="208.5" class="net_180"/>
  <circle cx="487" cy="296" r="2" style="fill:#000" class="net_180"/>
  <line x1="487" x2="512" y1="208.5" y2="208.5" class="net_180"/>
  <line x1="477" x2="512" y1="296" y2="296" class="net_180"/>
  <line x1="477" x2="522" y1="228.5" y2="228.5" class="net_108"/>
  <line x1="522" x2="522" y1="228.5" y2="213.5" class="net_108"/>
  <line x1="332" x2="352" y1="432.5" y2="432.5" class="net_181,182,183,184,185,186,187,188,189,190"/>
  <line x1="352" x2="352" y1="432.5" y2="507.5" class="net_181,182,183,184,185,186,187,188,189,190"/>
  <line x1="352" x2="374" y1="507.5" y2="507.5" class="net_181,182,183,184,185,186,187,188,189,190"/>
  <line x1="332" x2="374" y1="367.5" y2="367.5" class="net_191,192,193,194,195,196,197,198,199,200"/>
  <line x1="405" x2="447" y1="487.5" y2="487.5" class="net_110"/>
  <line x1="405" x2="422" y1="347.5" y2="347.5" class="net_111"/>
  <line x1="422" x2="422" y1="347.5" y2="502.5" class="net_111"/>
  <line x1="422" x2="447" y1="502.5" y2="502.5" class="net_111"/>
  <line x1="477" x2="522" y1="495" y2="495" class="net_112"/>
  <line x1="522" x2="522" y1="495" y2="301" class="net_112"/>
  <line x1="265" x2="542" y1="316" y2="316" class="net_2"/>
  <line x1="542" x2="542" y1="316" y2="550" class="net_2"/>
  <line x1="542" x2="567" y1="550" y2="550" class="net_2"/>
  <line x1="265" x2="542" y1="316" y2="316" class="net_2"/>
  <line x1="542" x2="542" y1="316" y2="118" class="net_2"/>
  <circle cx="542" cy="316" r="2" style="fill:#000" class="net_2"/>
  <line x1="542" x2="567" y1="118" y2="118" class="net_2"/>
  <line x1="265" x2="542" y1="316" y2="316" class="net_2"/>
  <line x1="542" x2="542" y1="316" y2="218.5" class="net_2"/>
  <circle cx="542" cy="218.5" r="2" style="fill:#000" class="net_2"/>
  <line x1="542" x2="567" y1="218.5" y2="218.5" class="net_2"/>
  <line x1="265" x2="567" y1="316" y2="316" class="net_2"/>
  <line x1="265" x2="277" y1="316" y2="316" class="net_2"/>
  <line x1="277" x2="277" y1="316" y2="507.5" class="net_2"/>
  <circle cx="277" cy="316" r="2" style="fill:#000" class="net_2"/>
  <line x1="277" x2="302" y1="507.5" y2="507.5" class="net_2"/>
  <line x1="265" x2="277" y1="316" y2="316" class="net_2"/>
  <line x1="277" x2="277" y1="316" y2="118" class="net_2"/>
  <line x1="277" x2="302" y1="118" y2="118" class="net_2"/>
  <line x1="532" x2="567" y1="198.5" y2="198.5" class="net_109"/>
  <line x1="532" x2="552" y1="286" y2="286" class="net_113"/>
  <line x1="552" x2="552" y1="286" y2="296" class="net_113"/>
  <line x1="552" x2="567" y1="296" y2="296" class="net_113"/>
  <line x1="263.66666666666663" x2="302" y1="487.5" y2="487.5" class="net_84,85,86,87,88,89,90,91,92,93,94"/>
  <line x1="260.33333333333337" x2="302" y1="98" y2="98" class="net_95,96,97,98,99,100,101,102,103,104,105"/>
  <line x1="597" x2="632" y1="530" y2="530" class="net_3,4,5,6,7,8,9,10,11,12,13"/>
  <line x1="597" x2="632" y1="98" y2="98" class="net_14,15,16,17,18,19,20,21,22,23,24"/>
  <line x1="597" x2="632" y1="198.5" y2="198.5" class="net_25"/>
  <line x1="597" x2="632" y1="296" y2="296" class="net_26"/>
</svg>
