<svg xmlns="http://www.w3.org/2000/svg" xmlns:xlink="http://www.w3.org/1999/xlink" xmlns:s="https://github.com/nturley/netlistsvg" width="789.5" height="409">
  <style>svg {
    stroke:#000;
    fill:none;
  }
  text {
    fill:#000;
    stroke:none;
    font-size:10px;
    font-weight: bold;
    font-family: "Courier New", monospace;
  }
  line {
      stroke-linecap: round;
  }
  .nodelabel {
    text-anchor: middle;
  }
  .inputPortLabel {
    text-anchor: end;
  }
  .splitjoinBody {
    fill:#000;
  }</style>
  <g s:type="mux-bus" transform="translate(398.1666666666667,32)" s:width="24" s:height="40" id="cell_\10">
    <s:alias val="$pmux-bus"/>
    <s:alias val="$mux-bus"/>
    <s:alias val="$_MUX_-bus"/>
    <path d="M0,0 L20,10 L20,30 L0,40 Z" class="cell_\10"/>
    <path d="M4,2 L4,0 L22,9 L22,31 L4,40 L4,38" class="cell_\10"/>
    <path d="M8,2 L8,0 L24,8 L24,32 L8,40 L8,38" class="cell_\10"/>
    <text x="5" y="32" class="nodelabel cell_\10" s:attribute="">1</text>
    <text x="5" y="13" class="nodelabel cell_\10" s:attribute="">0</text>
    <g s:x="-1" s:y="10" s:pid="A"/>
    <g s:x="-1" s:y="30" s:pid="B"/>
    <g s:x="12" s:y="38" s:pid="S"/>
    <g s:x="24.5" s:y="20" s:pid="Y"/>
  </g>
  <g s:type="add" transform="translate(145,77)" s:width="25" s:height="25" id="cell_\11">
    <s:alias val="$add"/>
    <circle r="12.5" cx="12.5" cy="12.5" class="cell_\11"/>
    <line x1="7.5" x2="17.5" y1="12.5" y2="12.5" class="cell_\11"/>
    <line x1="12.5" x2="12.5" y1="7.5" y2="17.5" class="cell_\11"/>
    <g s:x="2" s:y="5" s:pid="A"/>
    <g s:x="2" s:y="20" s:pid="B"/>
    <g s:x="26" s:y="12.5" s:pid="Y"/>
  </g>
  <g s:type="eq" transform="translate(211,164.5)" s:width="25" s:height="25" id="cell_\13">
    <s:alias val="$eq"/>
    <circle r="12.5" cx="12.5" cy="12.5" class="cell_\13"/>
    <line x1="7.5" x2="17.5" y1="10" y2="10" class="cell_\13"/>
    <line x1="7.5" x2="17.5" y1="15" y2="15" class="cell_\13"/>
    <g s:x="2" s:y="5" s:pid="A"/>
    <g s:x="2" s:y="20" s:pid="B"/>
    <g s:x="25" s:y="12.5" s:pid="Y"/>
  </g>
  <g s:type="mux-bus" transform="translate(276,22)" s:width="24" s:height="40" id="cell_\14">
    <s:alias val="$pmux-bus"/>
    <s:alias val="$mux-bus"/>
    <s:alias val="$_MUX_-bus"/>
    <path d="M0,0 L20,10 L20,30 L0,40 Z" class="cell_\14"/>
    <path d="M4,2 L4,0 L22,9 L22,31 L4,40 L4,38" class="cell_\14"/>
    <path d="M8,2 L8,0 L24,8 L24,32 L8,40 L8,38" class="cell_\14"/>
    <text x="5" y="32" class="nodelabel cell_\14" s:attribute="">1</text>
    <text x="5" y="13" class="nodelabel cell_\14" s:attribute="">0</text>
    <g s:x="-1" s:y="10" s:pid="A"/>
    <g s:x="-1" s:y="30" s:pid="B"/>
    <g s:x="12" s:y="38" s:pid="S"/>
    <g s:x="24.5" s:y="20" s:pid="Y"/>
  </g>
  <g s:type="not" transform="translate(583,377)" s:width="30" s:height="20" id="cell_\2">
    <s:alias val="$_NOT_"/>
    <s:alias val="$not"/>
    <s:alias val="$logic_not"/>
    <path d="M0,0 L0,20 L20,10 Z" class="cell_\2"/>
    <circle cx="24" cy="10" r="3" class="cell_\2"/>
    <g s:x="-1" s:y="10" s:pid="A"/>
    <g s:x="27" s:y="10" s:pid="Y"/>
  </g>
  <g s:type="mux-bus" transform="translate(649,52)" s:width="24" s:height="40" id="cell_\3">
    <s:alias val="$pmux-bus"/>
    <s:alias val="$mux-bus"/>
    <s:alias val="$_MUX_-bus"/>
    <path d="M0,0 L20,10 L20,30 L0,40 Z" class="cell_\3"/>
    <path d="M4,2 L4,0 L22,9 L22,31 L4,40 L4,38" class="cell_\3"/>
    <path d="M8,2 L8,0 L24,8 L24,32 L8,40 L8,38" class="cell_\3"/>
    <text x="5" y="32" class="nodelabel cell_\3" s:attribute="">1</text>
    <text x="5" y="13" class="nodelabel cell_\3" s:attribute="">0</text>
    <g s:x="-1" s:y="10" s:pid="A"/>
    <g s:x="-1" s:y="30" s:pid="B"/>
    <g s:x="12" s:y="38" s:pid="S"/>
    <g s:x="24.5" s:y="20" s:pid="Y"/>
  </g>
  <g s:type="eq" transform="translate(461.5,309)" s:width="25" s:height="25" id="cell_\5">
    <s:alias val="$eq"/>
    <circle r="12.5" cx="12.5" cy="12.5" class="cell_\5"/>
    <line x1="7.5" x2="17.5" y1="10" y2="10" class="cell_\5"/>
    <line x1="7.5" x2="17.5" y1="15" y2="15" class="cell_\5"/>
    <g s:x="2" s:y="5" s:pid="A"/>
    <g s:x="2" s:y="20" s:pid="B"/>
    <g s:x="25" s:y="12.5" s:pid="Y"/>
  </g>
  <g s:type="mux-bus" transform="translate(522.5,42)" s:width="24" s:height="40" id="cell_\6">
    <s:alias val="$pmux-bus"/>
    <s:alias val="$mux-bus"/>
    <s:alias val="$_MUX_-bus"/>
    <path d="M0,0 L20,10 L20,30 L0,40 Z" class="cell_\6"/>
    <path d="M4,2 L4,0 L22,9 L22,31 L4,40 L4,38" class="cell_\6"/>
    <path d="M8,2 L8,0 L24,8 L24,32 L8,40 L8,38" class="cell_\6"/>
    <text x="5" y="32" class="nodelabel cell_\6" s:attribute="">1</text>
    <text x="5" y="13" class="nodelabel cell_\6" s:attribute="">0</text>
    <g s:x="-1" s:y="10" s:pid="A"/>
    <g s:x="-1" s:y="30" s:pid="B"/>
    <g s:x="12" s:y="38" s:pid="S"/>
    <g s:x="24.5" s:y="20" s:pid="Y"/>
  </g>
  <g s:type="eq" transform="translate(335.5,118.5)" s:width="25" s:height="25" id="cell_\9">
    <s:alias val="$eq"/>
    <circle r="12.5" cx="12.5" cy="12.5" class="cell_\9"/>
    <line x1="7.5" x2="17.5" y1="10" y2="10" class="cell_\9"/>
    <line x1="7.5" x2="17.5" y1="15" y2="15" class="cell_\9"/>
    <g s:x="2" s:y="5" s:pid="A"/>
    <g s:x="2" s:y="20" s:pid="B"/>
    <g s:x="25" s:y="12.5" s:pid="Y"/>
  </g>
  <g s:type="inputExt" transform="translate(12,72)" s:width="30" s:height="20" id="cell_a">
    <text x="15" y="-4" class="nodelabel cell_a" s:attribute="ref">a</text>
    <s:alias val="$_inputExt_"/>
    <path d="M0,0 L0,20 L15,20 L30,10 L15,0 Z" class="cell_a"/>
    <g s:x="30" s:y="10" s:pid="Y"/>
  </g>
  <g s:type="inputExt" transform="translate(12,137)" s:width="30" s:height="20" id="cell_b">
    <text x="15" y="-4" class="nodelabel cell_b" s:attribute="ref">b</text>
    <s:alias val="$_inputExt_"/>
    <path d="M0,0 L0,20 L15,20 L30,10 L15,0 Z" class="cell_b"/>
    <g s:x="30" s:y="10" s:pid="Y"/>
  </g>
  <g s:type="inputExt" transform="translate(77,263)" s:width="30" s:height="20" id="cell_s">
    <text x="15" y="-4" class="nodelabel cell_s" s:attribute="ref">s</text>
    <s:alias val="$_inputExt_"/>
    <path d="M0,0 L0,20 L15,20 L30,10 L15,0 Z" class="cell_s"/>
    <g s:x="30" s:y="10" s:pid="Y"/>
  </g>
  <g s:type="outputExt" transform="translate(747.5,62)" s:width="30" s:height="20" id="cell_y">
    <text x="15" y="-4" class="nodelabel cell_y" s:attribute="ref">y</text>
    <s:alias val="$_outputExt_"/>
    <path d="M30,0 L30,20 L15,20 L0,10 L15,0 Z" class="cell_y"/>
    <g s:x="0" s:y="10" s:pid="A"/>
  </g>
  <g s:type="constant" transform="translate(143,22)" s:width="30" s:height="20" id="cell_0000">
    <text x="15" y="-4" class="nodelabel cell_0000" s:attribute="ref">0x0</text>
    <s:alias val="$_constant_"/>
    <rect width="30" height="20" class="cell_0000"/>
    <g s:x="31" s:y="10" s:pid="Y"/>
  </g>
  <g s:type="constant" transform="translate(77,198)" s:width="30" s:height="20" id="cell_11">
    <text x="15" y="-4" class="nodelabel cell_11" s:attribute="ref">11</text>
    <s:alias val="$_constant_"/>
    <rect width="30" height="20" class="cell_11"/>
    <g s:x="31" s:y="10" s:pid="Y"/>
  </g>
  <g s:type="constant" transform="translate(395.5,335)" s:width="30" s:height="20" id="cell_1">
    <text x="15" y="-4" class="nodelabel cell_1" s:attribute="ref">1</text>
    <s:alias val="$_constant_"/>
    <rect width="30" height="20" class="cell_1"/>
    <g s:x="31" s:y="10" s:pid="Y"/>
  </g>
  <g s:type="constant" transform="translate(209,234.5)" s:width="30" s:height="20" id="cell_10">
    <text x="15" y="-4" class="nodelabel cell_10" s:attribute="ref">10</text>
    <s:alias val="$_constant_"/>
    <rect width="30" height="20" class="cell_10"/>
    <g s:x="31" s:y="10" s:pid="Y"/>
  </g>
  <line x1="300.5" x2="397.1666666666667" y1="42" y2="42" class="net_16,17,18,19 width_4" style="stroke-width: 2"/>
  <line x1="174" x2="184" y1="32" y2="32" class="net_36,37,38,39 width_4" style="stroke-width: 2"/>
  <line x1="184" x2="184" y1="32" y2="106.5" class="net_36,37,38,39 width_4" style="stroke-width: 2"/>
  <line x1="184" x2="370.5" y1="106.5" y2="106.5" class="net_36,37,38,39 width_4" style="stroke-width: 2"/>
  <line x1="370.5" x2="370.5" y1="106.5" y2="62" class="net_36,37,38,39 width_4" style="stroke-width: 2"/>
  <circle cx="184" cy="32" r="3" style="fill:#000" class="net_36,37,38,39 width_4"/>
  <line x1="370.5" x2="397.1666666666667" y1="62" y2="62" class="net_36,37,38,39 width_4" style="stroke-width: 2"/>
  <line x1="174" x2="275" y1="32" y2="32" class="net_36,37,38,39 width_4" style="stroke-width: 2"/>
  <line x1="360.5" x2="410.1666666666667" y1="131" y2="131" class="net_20 width_1" style="stroke-width: 1"/>
  <line x1="410.1666666666667" x2="410.1666666666667" y1="131" y2="70" class="net_20 width_1" style="stroke-width: 1"/>
  <line x1="42" x2="147" y1="82" y2="82" class="net_2,3,4,5 width_4" style="stroke-width: 2"/>
  <line x1="42" x2="52" y1="82" y2="82" class="net_2,3,4,5 width_4" style="stroke-width: 2"/>
  <line x1="52" x2="52" y1="82" y2="366" class="net_2,3,4,5 width_4" style="stroke-width: 2"/>
  <line x1="52" x2="623" y1="366" y2="366" class="net_2,3,4,5 width_4" style="stroke-width: 2"/>
  <line x1="623" x2="623" y1="366" y2="82" class="net_2,3,4,5 width_4" style="stroke-width: 2"/>
  <circle cx="52" cy="82" r="3" style="fill:#000" class="net_2,3,4,5 width_4"/>
  <line x1="623" x2="648" y1="82" y2="82" class="net_2,3,4,5 width_4" style="stroke-width: 2"/>
  <line x1="42" x2="118" y1="147" y2="147" class="net_6,7,8,9 width_4" style="stroke-width: 2"/>
  <line x1="118" x2="118" y1="147" y2="97" class="net_6,7,8,9 width_4" style="stroke-width: 2"/>
  <line x1="118" x2="147" y1="97" y2="97" class="net_6,7,8,9 width_4" style="stroke-width: 2"/>
  <line x1="42" x2="62" y1="147" y2="147" class="net_6,7,8,9 width_4" style="stroke-width: 2"/>
  <line x1="62" x2="62" y1="147" y2="294" class="net_6,7,8,9 width_4" style="stroke-width: 2"/>
  <line x1="62" x2="496.5" y1="294" y2="294" class="net_6,7,8,9 width_4" style="stroke-width: 2"/>
  <line x1="496.5" x2="496.5" y1="294" y2="72" class="net_6,7,8,9 width_4" style="stroke-width: 2"/>
  <circle cx="62" cy="147" r="3" style="fill:#000" class="net_6,7,8,9 width_4"/>
  <line x1="496.5" x2="521.5" y1="72" y2="72" class="net_6,7,8,9 width_4" style="stroke-width: 2"/>
  <line x1="107" x2="128" y1="273" y2="273" class="net_10,11 width_2" style="stroke-width: 2"/>
  <line x1="128" x2="128" y1="273" y2="169.5" class="net_10,11 width_2" style="stroke-width: 2"/>
  <circle cx="128" cy="273" r="3" style="fill:#000" class="net_10,11 width_2"/>
  <circle cx="128" cy="169.5" r="3" style="fill:#000" class="net_10,11 width_2"/>
  <line x1="128" x2="213" y1="169.5" y2="169.5" class="net_10,11 width_2" style="stroke-width: 2"/>
  <line x1="107" x2="128" y1="273" y2="273" class="net_10,11 width_2" style="stroke-width: 2"/>
  <line x1="128" x2="128" y1="273" y2="387" class="net_10,11 width_2" style="stroke-width: 2"/>
  <line x1="128" x2="582" y1="387" y2="387" class="net_10,11 width_2" style="stroke-width: 2"/>
  <line x1="107" x2="128" y1="273" y2="273" class="net_10,11 width_2" style="stroke-width: 2"/>
  <line x1="128" x2="128" y1="273" y2="314" class="net_10,11 width_2" style="stroke-width: 2"/>
  <circle cx="128" cy="314" r="3" style="fill:#000" class="net_10,11 width_2"/>
  <line x1="128" x2="463.5" y1="314" y2="314" class="net_10,11 width_2" style="stroke-width: 2"/>
  <line x1="107" x2="128" y1="273" y2="273" class="net_10,11 width_2" style="stroke-width: 2"/>
  <line x1="128" x2="128" y1="273" y2="123.5" class="net_10,11 width_2" style="stroke-width: 2"/>
  <line x1="128" x2="337.5" y1="123.5" y2="123.5" class="net_10,11 width_2" style="stroke-width: 2"/>
  <line x1="108" x2="184" y1="208" y2="208" class="net_40,41 width_2" style="stroke-width: 2"/>
  <line x1="184" x2="184" y1="208" y2="184.5" class="net_40,41 width_2" style="stroke-width: 2"/>
  <line x1="184" x2="213" y1="184.5" y2="184.5" class="net_40,41 width_2" style="stroke-width: 2"/>
  <line x1="171" x2="250" y1="89.5" y2="89.5" class="net_25,26,27,28 width_4" style="stroke-width: 2"/>
  <line x1="250" x2="250" y1="89.5" y2="52" class="net_25,26,27,28 width_4" style="stroke-width: 2"/>
  <line x1="250" x2="275" y1="52" y2="52" class="net_25,26,27,28 width_4" style="stroke-width: 2"/>
  <line x1="236" x2="288" y1="177" y2="177" class="net_29 width_1" style="stroke-width: 1"/>
  <line x1="288" x2="288" y1="177" y2="60" class="net_29 width_1" style="stroke-width: 1"/>
  <line x1="547" x2="648" y1="62" y2="62" class="net_31,32,33,34 width_4" style="stroke-width: 2"/>
  <line x1="610" x2="661" y1="387" y2="387" class="net_30 width_1" style="stroke-width: 1"/>
  <line x1="661" x2="661" y1="387" y2="90" class="net_30 width_1" style="stroke-width: 1"/>
  <line x1="426.5" x2="436.5" y1="345" y2="345" class="net_46 width_1" style="stroke-width: 1"/>
  <line x1="436.5" x2="436.5" y1="345" y2="329" class="net_46 width_1" style="stroke-width: 1"/>
  <line x1="436.5" x2="463.5" y1="329" y2="329" class="net_46 width_1" style="stroke-width: 1"/>
  <line x1="422.6666666666667" x2="521.5" y1="52" y2="52" class="net_21,22,23,24 width_4" style="stroke-width: 2"/>
  <line x1="486.5" x2="534.5" y1="321.5" y2="321.5" class="net_35 width_1" style="stroke-width: 1"/>
  <line x1="534.5" x2="534.5" y1="321.5" y2="80" class="net_35 width_1" style="stroke-width: 1"/>
  <line x1="240" x2="310.5" y1="244.5" y2="244.5" class="net_47,48 width_2" style="stroke-width: 2"/>
  <line x1="310.5" x2="310.5" y1="244.5" y2="138.5" class="net_47,48 width_2" style="stroke-width: 2"/>
  <line x1="310.5" x2="337.5" y1="138.5" y2="138.5" class="net_47,48 width_2" style="stroke-width: 2"/>
  <line x1="673.5" x2="747.5" y1="72" y2="72" class="net_12,13,14,15 width_4" style="stroke-width: 2"/>
  <rect x="347" y="37" width="16" height="9" class="net_16,17,18,19 width_4 busLabel_4" style="fill: white; stroke: none"/>
  <text x="346" y="45" class="net_16,17,18,19 width_4 busLabel_4">/4/</text>
  <rect x="223.5" y="27" width="16" height="9" class="net_36,37,38,39 width_4 busLabel_4" style="fill: white; stroke: none"/>
  <text x="222.5" y="35" class="net_36,37,38,39 width_4 busLabel_4">/4/</text>
  <rect x="223.5" y="27" width="16" height="9" class="net_36,37,38,39 width_4 busLabel_4" style="fill: white; stroke: none"/>
  <text x="222.5" y="35" class="net_36,37,38,39 width_4 busLabel_4">/4/</text>
  <rect x="347" y="361" width="16" height="9" class="net_2,3,4,5 width_4 busLabel_4" style="fill: white; stroke: none"/>
  <text x="346" y="369" class="net_2,3,4,5 width_4 busLabel_4">/4/</text>
  <rect x="347" y="361" width="16" height="9" class="net_2,3,4,5 width_4 busLabel_4" style="fill: white; stroke: none"/>
  <text x="346" y="369" class="net_2,3,4,5 width_4 busLabel_4">/4/</text>
  <rect x="286.75" y="289" width="16" height="9" class="net_6,7,8,9 width_4 busLabel_4" style="fill: white; stroke: none"/>
  <text x="285.75" y="297" class="net_6,7,8,9 width_4 busLabel_4">/4/</text>
  <rect x="286.75" y="289" width="16" height="9" class="net_6,7,8,9 width_4 busLabel_4" style="fill: white; stroke: none"/>
  <text x="285.75" y="297" class="net_6,7,8,9 width_4 busLabel_4">/4/</text>
  <rect x="223.5" y="118.5" width="16" height="9" class="net_10,11 width_2 busLabel_2" style="fill: white; stroke: none"/>
  <text x="222.5" y="126.5" class="net_10,11 width_2 busLabel_2">/2/</text>
  <rect x="223.5" y="118.5" width="16" height="9" class="net_10,11 width_2 busLabel_2" style="fill: white; stroke: none"/>
  <text x="222.5" y="126.5" class="net_10,11 width_2 busLabel_2">/2/</text>
  <rect x="223.5" y="118.5" width="16" height="9" class="net_10,11 width_2 busLabel_2" style="fill: white; stroke: none"/>
  <text x="222.5" y="126.5" class="net_10,11 width_2 busLabel_2">/2/</text>
  <rect x="223.5" y="118.5" width="16" height="9" class="net_10,11 width_2 busLabel_2" style="fill: white; stroke: none"/>
  <text x="222.5" y="126.5" class="net_10,11 width_2 busLabel_2">/2/</text>
  <rect x="157.5" y="203" width="16" height="9" class="net_40,41 width_2 busLabel_2" style="fill: white; stroke: none"/>
  <text x="156.5" y="211" class="net_40,41 width_2 busLabel_2">/2/</text>
  <rect x="223.5" y="84.5" width="16" height="9" class="net_25,26,27,28 width_4 busLabel_4" style="fill: white; stroke: none"/>
  <text x="222.5" y="92.5" class="net_25,26,27,28 width_4 busLabel_4">/4/</text>
  <rect x="596.5" y="57" width="16" height="9" class="net_31,32,33,34 width_4 busLabel_4" style="fill: white; stroke: none"/>
  <text x="595.5" y="65" class="net_31,32,33,34 width_4 busLabel_4">/4/</text>
  <rect x="473" y="47" width="16" height="9" class="net_21,22,23,24 width_4 busLabel_4" style="fill: white; stroke: none"/>
  <text x="472" y="55" class="net_21,22,23,24 width_4 busLabel_4">/4/</text>
  <rect x="286.75" y="239.5" width="16" height="9" class="net_47,48 width_2 busLabel_2" style="fill: white; stroke: none"/>
  <text x="285.75" y="247.5" class="net_47,48 width_2 busLabel_2">/2/</text>
  <rect x="709.5" y="67" width="16" height="9" class="net_12,13,14,15 width_4 busLabel_4" style="fill: white; stroke: none"/>
  <text x="708.5" y="75" class="net_12,13,14,15 width_4 busLabel_4">/4/</text>
</svg>
