<svg xmlns="http://www.w3.org/2000/svg" xmlns:xlink="http://www.w3.org/1999/xlink" xmlns:s="https://github.com/nturley/netlistsvg" width="730.5" height="217.5"><style>svg {
  stroke:#000;
  fill:none;
}
text {
  fill:#000;
  stroke:none;
  font-size:10px;
  font-weight: bold;
  font-family: "Courier New", monospace;
}
line {
    stroke-linecap: round;
}
.nodelabel {
  text-anchor: middle;
}
.inputPortLabel {
  text-anchor: end;
}
.splitjoinBody {
  fill:#000;
}</style><g s:type="eq" transform="translate(529,146)" s:width="25" s:height="25" id="cell_\13"><s:alias val="$eq"/><circle r="12.5" cx="12.5" cy="12.5" class="cell_\13"/><line x1="7.5" x2="17.5" y1="10" y2="10" class="cell_\13"/><line x1="7.5" x2="17.5" y1="15" y2="15" class="cell_\13"/><g s:x="2" s:y="5" s:pid="A"/><g s:x="2" s:y="20" s:pid="B"/><g s:x="25" s:y="12.5" s:pid="Y"/></g><g s:type="mux-bus" transform="translate(590,72)" s:width="24" s:height="40" id="cell_\22"><s:alias val="$pmux-bus"/><s:alias val="$mux-bus"/><s:alias val="$_MUX_-bus"/><path d="M0,0 L20,10 L20,30 L0,40 Z" class="cell_\22"/><path d="M4,2 L4,0 L22,9 L22,31 L4,40 L4,38" class="cell_\22"/><path d="M8,2 L8,0 L24,8 L24,32 L8,40 L8,38" class="cell_\22"/><text x="5" y="32" class="nodelabel cell_\22" s:attribute="">1</text><text x="5" y="13" class="nodelabel cell_\22" s:attribute="">0</text><g s:x="-1" s:y="10" s:pid="A"/><g s:x="-1" s:y="30" s:pid="B"/><g s:x="12" s:y="38" s:pid="S"/><g s:x="24.5" s:y="20" s:pid="Y"/></g><g s:type="generic" transform="translate(121,110.5)" s:width="30" s:height="40" id="cell_dut1"><text x="15" y="-4" class="nodelabel cell_dut1" s:attribute="ref">SB_HFOSC</text><rect width="30" height="40" s:generic="body" class="cell_dut1"/><g transform="translate(0,10)" s:x="0" s:y="10" s:pid="in0" id="port_dut1~CLKHFEN"><text x="-3" y="-4" class="inputPortLabel cell_dut1">CLKHFEN</text></g><g transform="translate(0,30)" s:x="0" s:y="10" s:pid="in0" id="port_dut1~CLKHFPU"><text x="-3" y="-4" class="inputPortLabel cell_dut1">CLKHFPU</text></g><g transform="translate(30,10)" s:x="30" s:y="10" s:pid="out0" id="port_dut1~CLKHF"><text x="5" y="-4" style="fill:#000; stroke:none" class="cell_dut1">CLKHF</text></g></g><g s:type="generic" transform="translate(249,110.5)" s:width="30" s:height="40" id="cell_dut2"><text x="15" y="-4" class="nodelabel cell_dut2" s:attribute="ref">counter</text><rect width="30" height="40" s:generic="body" class="cell_dut2"/><g transform="translate(0,10)" s:x="0" s:y="10" s:pid="in0" id="port_dut2~clk"><text x="-3" y="-4" class="inputPortLabel cell_dut2">clk</text></g><g transform="translate(0,30)" s:x="0" s:y="10" s:pid="in0" id="port_dut2~reset"><text x="-3" y="-4" class="inputPortLabel cell_dut2">reset</text></g><g transform="translate(30,10)" s:x="30" s:y="10" s:pid="out0" id="port_dut2~current"><text x="5" y="-4" style="fill:#000; stroke:none" class="cell_dut2">current</text></g></g><g s:type="inputExt" transform="translate(12,22)" s:width="30" s:height="20" id="cell_BTN"><text x="15" y="-4" class="nodelabel cell_BTN" s:attribute="ref">BTN</text><s:alias val="$_inputExt_"/><path d="M0,0 L0,20 L15,20 L30,10 L15,0 Z" class="cell_BTN"/><g s:x="30" s:y="10" s:pid="Y"/></g><g s:type="outputExt" transform="translate(688.5,82)" s:width="30" s:height="20" id="cell_SIG"><text x="15" y="-4" class="nodelabel cell_SIG" s:attribute="ref">SIG</text><s:alias val="$_outputExt_"/><path d="M30,0 L30,20 L15,20 L0,10 L15,0 Z" class="cell_SIG"/><g s:x="0" s:y="10" s:pid="A"/></g><g s:type="constant" transform="translate(397,185.5)" s:width="30" s:height="20" id="cell_1111"><text x="15" y="-4" class="nodelabel cell_1111" s:attribute="ref">0xf</text><s:alias val="$_constant_"/><rect width="30" height="20" class="cell_1111"/><g s:x="31" s:y="10" s:pid="Y"/></g><g s:type="constant" transform="translate(463,72)" s:width="30" s:height="20" id="cell_111"><text x="15" y="-4" class="nodelabel cell_111" s:attribute="ref">111</text><s:alias val="$_constant_"/><rect width="30" height="20" class="cell_111"/><g s:x="31" s:y="10" s:pid="Y"/></g><g s:type="constant" transform="translate(12,111)" s:width="30" s:height="20" id="cell_1"><text x="15" y="-4" class="nodelabel cell_1" s:attribute="ref">1</text><s:alias val="$_constant_"/><rect width="30" height="20" class="cell_1"/><g s:x="31" s:y="10" s:pid="Y"/></g><g s:type="split" transform="translate(404,100.5)" s:width="5" s:height="40" id="cell_$split$,7,8,9,10,16,17,18,19,20,21,22,23,24,25,26,27,28,29,30,31,32,33,34,12,13,14,35,36,37,38,39,"><rect width="5" height="40" class="splitjoinBody" s:generic="body"/><s:alias val="$_split_"/><g s:x="0" s:y="20" s:pid="in"/><g transform="translate(4,10)" s:x="4" s:y="10" s:pid="out0"><text x="5" y="-4">0:3</text></g><g transform="translate(4,30)" s:x="4" s:y="10" s:pid="out0"><text x="5" y="-4">23:25</text></g></g><line x1="409" x2="438" y1="111" y2="111" class="net_7,8,9,10 width_4" style="stroke-width: 2"/><line x1="438" x2="438" y1="111" y2="151" class="net_7,8,9,10 width_4" style="stroke-width: 2"/><line x1="438" x2="531" y1="151" y2="151" class="net_7,8,9,10 width_4" style="stroke-width: 2"/><line x1="428" x2="504" y1="195.5" y2="195.5" class="net_40,41,42,43 width_4" style="stroke-width: 2"/><line x1="504" x2="504" y1="195.5" y2="166" class="net_40,41,42,43 width_4" style="stroke-width: 2"/><line x1="504" x2="531" y1="166" y2="166" class="net_40,41,42,43 width_4" style="stroke-width: 2"/><line x1="494" x2="589" y1="82" y2="82" class="net_44,45,46 width_3" style="stroke-width: 2"/><line x1="409" x2="564" y1="131" y2="131" class="net_12,13,14 width_3" style="stroke-width: 2"/><line x1="564" x2="564" y1="131" y2="102" class="net_12,13,14 width_3" style="stroke-width: 2"/><line x1="564" x2="589" y1="102" y2="102" class="net_12,13,14 width_3" style="stroke-width: 2"/><line x1="554" x2="602" y1="158.5" y2="158.5" class="net_11 width_1" style="stroke-width: 1"/><line x1="602" x2="602" y1="158.5" y2="110" class="net_11 width_1" style="stroke-width: 1"/><line x1="43" x2="121" y1="121" y2="121" class="net_47 width_1" style="stroke-width: 1"/><line x1="43" x2="53" y1="121" y2="121" class="net_47 width_1" style="stroke-width: 1"/><line x1="53" x2="53" y1="121" y2="141" class="net_47 width_1" style="stroke-width: 1"/><circle cx="53" cy="121" r="2" style="fill:#000" class="net_47 width_1"/><line x1="53" x2="121" y1="141" y2="141" class="net_47 width_1" style="stroke-width: 1"/><line x1="152" x2="249" y1="121" y2="121" class="net_15 width_1" style="stroke-width: 1"/><line x1="614.5" x2="688.5" y1="92" y2="92" class="net_4,5,6 width_3" style="stroke-width: 2"/><line x1="280" x2="404" y1="121" y2="121" class="net_7,8,9,10,16,17,18,19,20,21,22,23,24,25,26,27,28,29,30,31,32,33,34,12,13,14,35,36,37,38,39 width_31" style="stroke-width: 2"/><rect x="477.5" y="146" width="16" height="9" class="net_7,8,9,10 width_4 busLabel_4" style="fill: white; stroke: none"/><text x="476.5" y="154" class="net_7,8,9,10 width_4 busLabel_4">/4/</text><rect x="477.5" y="190.5" width="16" height="9" class="net_40,41,42,43 width_4 busLabel_4" style="fill: white; stroke: none"/><text x="476.5" y="198.5" class="net_40,41,42,43 width_4 busLabel_4">/4/</text><rect x="540.5" y="77" width="16" height="9" class="net_44,45,46 width_3 busLabel_3" style="fill: white; stroke: none"/><text x="539.5" y="85" class="net_44,45,46 width_3 busLabel_3">/3/</text><rect x="477.5" y="126" width="16" height="9" class="net_12,13,14 width_3 busLabel_3" style="fill: white; stroke: none"/><text x="476.5" y="134" class="net_12,13,14 width_3 busLabel_3">/3/</text><rect x="650.5" y="87" width="16" height="9" class="net_4,5,6 width_3 busLabel_3" style="fill: white; stroke: none"/><text x="649.5" y="95" class="net_4,5,6 width_3 busLabel_3">/3/</text><rect x="359" y="116" width="22" height="9" class="net_7,8,9,10,16,17,18,19,20,21,22,23,24,25,26,27,28,29,30,31,32,33,34,12,13,14,35,36,37,38,39 width_31 busLabel_31" style="fill: white; stroke: none"/><text x="358" y="124" class="net_7,8,9,10,16,17,18,19,20,21,22,23,24,25,26,27,28,29,30,31,32,33,34,12,13,14,35,36,37,38,39 width_31 busLabel_31">/31/</text></svg>