<svg xmlns="http://www.w3.org/2000/svg" xmlns:xlink="http://www.w3.org/1999/xlink" xmlns:s="https://github.com/nturley/netlistsvg" width="584" height="180.5">
  <style>svg {
    stroke:#000;
    fill:none;
  }
  text {
    fill:#000;
    stroke:none;
    font-size:10px;
    font-weight: bold;
    font-family: "Courier New", monospace;
  }
  .nodelabel {
    text-anchor: middle;
  }
  .inputPortLabel {
    text-anchor: end;
  }
  .splitjoinBody {
    fill:#000;
  }</style>
  <g s:type="eq" transform="translate(423.6666666666667,138.5)" s:width="25" s:height="25" id="cell_\13">
    <s:alias val="$eq"/>
    <circle r="12.5" cx="12.5" cy="12.5" class="cell_\13"/>
    <line x1="7.5" x2="17.5" y1="10" y2="10" class="cell_\13"/>
    <line x1="7.5" x2="17.5" y1="15" y2="15" class="cell_\13"/>
    <g s:x="3" s:y="5" s:pid="A"/>
    <g s:x="3" s:y="20" s:pid="B"/>
    <g s:x="25" s:y="12.5" s:pid="Y"/>
  </g>
  <g s:type="mux" transform="translate(487,64)" s:width="20" s:height="40" id="cell_\22">
    <s:alias val="$pmux"/>
    <s:alias val="$mux"/>
    <s:alias val="$_MUX_"/>
    <path d="M0,0 L20,10 L20,30 L0,40 Z" class="cell_\22"/>
    <g s:x="0" s:y="10" s:pid="A"/>
    <g s:x="0" s:y="30" s:pid="B"/>
    <g s:x="10" s:y="35" s:pid="S"/>
    <g s:x="20" s:y="20" s:pid="Y"/>
  </g>
  <g s:type="generic" transform="translate(120,73.5)" s:width="30" s:height="40" id="cell_dut1">
    <text x="15" y="-4" class="nodelabel cell_dut1" s:attribute="ref">SB_HFOSC</text>
    <rect width="30" height="40" s:generic="body" class="cell_dut1"/>
    <g transform="translate(0,10)" s:x="0" s:y="10" s:pid="in0" id="port_dut1~CLKHFEN">
      <text x="-3" y="-4" class="inputPortLabel cell_dut1">CLKHFEN</text>
    </g>
    <g transform="translate(0,30)" s:x="0" s:y="10" s:pid="in0" id="port_dut1~CLKHFPU">
      <text x="-3" y="-4" class="inputPortLabel cell_dut1">CLKHFPU</text>
    </g>
    <g transform="translate(30,10)" s:x="30" s:y="10" s:pid="out0" id="port_dut1~CLKHF">
      <text x="5" y="-4" style="fill:#000; stroke:none" class="cell_dut1">CLKHF</text>
    </g>
  </g>
  <g s:type="generic" transform="translate(248,73.5)" s:width="30" s:height="40" id="cell_dut2">
    <text x="15" y="-4" class="nodelabel cell_dut2" s:attribute="ref">counter</text>
    <rect width="30" height="40" s:generic="body" class="cell_dut2"/>
    <g transform="translate(0,10)" s:x="0" s:y="10" s:pid="in0" id="port_dut2~clk">
      <text x="-3" y="-4" class="inputPortLabel cell_dut2">clk</text>
    </g>
    <g transform="translate(0,30)" s:x="0" s:y="10" s:pid="in0" id="port_dut2~reset">
      <text x="-3" y="-4" class="inputPortLabel cell_dut2">reset</text>
    </g>
    <g transform="translate(30,10)" s:x="30" s:y="10" s:pid="out0" id="port_dut2~current">
      <text x="5" y="-4" style="fill:#000; stroke:none" class="cell_dut2">current</text>
    </g>
  </g>
  <g s:type="inputExt" transform="translate(12,22)" s:width="30" s:height="20" id="cell_BTN">
    <text x="15" y="-4" class="nodelabel cell_BTN" s:attribute="ref">BTN</text>
    <s:alias val="$_inputExt_"/>
    <path d="M0,0 L0,20 L15,20 L30,10 L15,0 Z" class="cell_BTN"/>
    <g s:x="28" s:y="10" s:pid="Y"/>
  </g>
  <g s:type="outputExt" transform="translate(542,74)" s:width="30" s:height="20" id="cell_SIG">
    <text x="15" y="-4" class="nodelabel cell_SIG" s:attribute="ref">SIG</text>
    <s:alias val="$_outputExt_"/>
    <path d="M30,0 L30,20 L15,20 L0,10 L15,0 Z" class="cell_SIG"/>
    <g s:x="0" s:y="10" s:pid="A"/>
  </g>
  <g s:type="constant" transform="translate(357,148.5)" s:width="30" s:height="20" id="cell_1111">
    <text x="15" y="-4" class="nodelabel cell_1111" s:attribute="ref">0xf</text>
    <s:alias val="$_constant_"/>
    <rect width="30" height="20" class="cell_1111"/>
    <g s:x="30" s:y="10" s:pid="Y"/>
  </g>
  <g s:type="constant" transform="translate(422,64)" s:width="30" s:height="20" id="cell_111">
    <text x="15" y="-4" class="nodelabel cell_111" s:attribute="ref">111</text>
    <s:alias val="$_constant_"/>
    <rect width="30" height="20" class="cell_111"/>
    <g s:x="30" s:y="10" s:pid="Y"/>
  </g>
  <g s:type="constant" transform="translate(12,74)" s:width="30" s:height="20" id="cell_1">
    <text x="15" y="-4" class="nodelabel cell_1" s:attribute="ref">1</text>
    <s:alias val="$_constant_"/>
    <rect width="30" height="20" class="cell_1"/>
    <g s:x="30" s:y="10" s:pid="Y"/>
  </g>
  <g s:type="split" transform="translate(363,63.5)" s:width="5" s:height="40" id="cell_$split$,7,8,9,10,16,17,18,19,20,21,22,23,24,25,26,27,28,29,30,31,32,33,34,12,13,14,35,36,37,38,39,">
    <rect width="5" height="40" class="splitjoinBody" s:generic="body"/>
    <s:alias val="$_split_"/>
    <g s:x="0" s:y="20" s:pid="in"/>
    <g transform="translate(4,10)" s:x="4" s:y="10" s:pid="out0">
      <text x="5" y="-4">0:3</text>
    </g>
    <g transform="translate(4,30)" s:x="4" s:y="10" s:pid="out0">
      <text x="5" y="-4">23:25</text>
    </g>
  </g>
  <line x1="368" x2="397" y1="74" y2="74" class="net_7,8,9,10"/>
  <line x1="397" x2="397" y1="74" y2="143.5" class="net_7,8,9,10"/>
  <line x1="397" x2="426.6666666666667" y1="143.5" y2="143.5" class="net_7,8,9,10"/>
  <line x1="387" x2="426.6666666666667" y1="158.5" y2="158.5" class="net_40,41,42,43"/>
  <line x1="452" x2="487" y1="74" y2="74" class="net_44,45,46"/>
  <line x1="368" x2="487" y1="94" y2="94" class="net_12,13,14"/>
  <line x1="448.6666666666667" x2="497" y1="151" y2="151" class="net_11"/>
  <line x1="497" x2="497" y1="151" y2="99" class="net_11"/>
  <line x1="42" x2="120" y1="84" y2="84" class="net_47"/>
  <line x1="42" x2="52" y1="84" y2="84" class="net_47"/>
  <line x1="52" x2="52" y1="84" y2="104" class="net_47"/>
  <circle cx="52" cy="84" r="2" style="fill:#000" class="net_47"/>
  <line x1="52" x2="120" y1="104" y2="104" class="net_47"/>
  <line x1="151" x2="248" y1="84" y2="84" class="net_15"/>
  <line x1="507" x2="542" y1="84" y2="84" class="net_4,5,6"/>
  <line x1="279" x2="363" y1="84" y2="84" class="net_7,8,9,10,16,17,18,19,20,21,22,23,24,25,26,27,28,29,30,31,32,33,34,12,13,14,35,36,37,38,39"/>
</svg>
