<svg xmlns="http://www.w3.org/2000/svg" xmlns:xlink="http://www.w3.org/1999/xlink" xmlns:s="https://github.com/nturley/netlistsvg" width="379" height="199.5">
  <style>svg {
    stroke:#000;
    fill:none;
  }
  text {
    fill:#000;
    stroke:none;
    font-size:10px;
    font-weight: bold;
    font-family: "Courier New", monospace;
  }
  line {
      stroke-linecap: round;
  }
  .nodelabel {
    text-anchor: middle;
  }
  .inputPortLabel {
    text-anchor: end;
  }
  .splitjoinBody {
    fill:#000;
  }</style>
  <g s:type="adff" transform="translate(232,24.5)" s:width="30" s:height="40" id="cell_\11">
    <s:alias val="$adff"/>
    <s:alias val="adff-bus"/>
    <s:alias val="$adff-bus"/>
    <rect width="30" height="40" x="0" y="0" class="cell_\11"/>
    <path d="M0,35 L5,30 L0,25" class="cell_\11"/>
    <g s:x="31" s:y="10" s:pid="Q"/>
    <g s:x="-1" s:y="30" s:pid="CLK"/>
    <g s:x="15" s:y="40" s:pid="ARST"/>
    <g s:x="-1" s:y="30" s:pid="C"/>
    <g s:x="-1" s:y="10" s:pid="D"/>
  </g>
  <g s:type="inputExt" transform="translate(166,85.5)" s:width="30" s:height="20" id="cell_clk">
    <text x="15" y="-4" class="nodelabel cell_clk" s:attribute="ref">clk</text>
    <s:alias val="$_inputExt_"/>
    <path d="M0,0 L0,20 L15,20 L30,10 L15,0 Z" class="cell_clk"/>
    <g s:x="30" s:y="10" s:pid="Y"/>
  </g>
  <g s:type="inputExt" transform="translate(166,150.5)" s:width="30" s:height="20" id="cell_reset">
    <text x="15" y="-4" class="nodelabel cell_reset" s:attribute="ref">reset</text>
    <s:alias val="$_inputExt_"/>
    <path d="M0,0 L0,20 L15,20 L30,10 L15,0 Z" class="cell_reset"/>
    <g s:x="30" s:y="10" s:pid="Y"/>
  </g>
  <g s:type="outputExt" transform="translate(337,24.5)" s:width="30" s:height="20" id="cell_count">
    <text x="15" y="-4" class="nodelabel cell_count" s:attribute="ref">count</text>
    <s:alias val="$_outputExt_"/>
    <path d="M30,0 L30,20 L15,20 L0,10 L15,0 Z" class="cell_count"/>
    <g s:x="0" s:y="10" s:pid="A"/>
  </g>
  <g s:type="join" transform="translate(125,14)" s:width="4" s:height="40" id="cell_$join$,11,4,5,6,7,8,9,10,">
    <rect width="5" height="40" class="splitjoinBody" s:generic="body"/>
    <s:alias val="$_join_"/>
    <g s:x="5" s:y="20" s:pid="out"/>
    <g transform="translate(0,10)" s:x="0" s:y="10" s:pid="in0">
      <text x="-3" y="-4" class="inputPortLabel">0</text>
    </g>
    <g transform="translate(0,30)" s:x="0" s:y="10" s:pid="in0">
      <text x="-3" y="-4" class="inputPortLabel">1:7</text>
    </g>
  </g>
  <g s:type="split" transform="translate(32,14)" s:width="5" s:height="40" id="cell_$split$,4,5,6,7,8,9,10,11,">
    <rect width="5" height="40" class="splitjoinBody" s:generic="body"/>
    <s:alias val="$_split_"/>
    <g s:x="0" s:y="20" s:pid="in"/>
    <g transform="translate(4,10)" s:x="4" s:y="10" s:pid="out0">
      <text x="5" y="-4">7</text>
    </g>
    <g transform="translate(4,30)" s:x="4" s:y="10" s:pid="out0">
      <text x="5" y="-4">0:6</text>
    </g>
  </g>
  <line x1="196" x2="247" y1="160.5" y2="160.5" class="net_3 width_1" style="stroke-width: 1"/>
  <line x1="247" x2="247" y1="160.5" y2="64.5" class="net_3 width_1" style="stroke-width: 1"/>
  <line x1="196" x2="206" y1="95.5" y2="95.5" class="net_2 width_1" style="stroke-width: 1"/>
  <line x1="206" x2="206" y1="95.5" y2="54.5" class="net_2 width_1" style="stroke-width: 1"/>
  <line x1="206" x2="231" y1="54.5" y2="54.5" class="net_2 width_1" style="stroke-width: 1"/>
  <line x1="131" x2="231" y1="34.5" y2="34.5" class="net_11,4,5,6,7,8,9,10 width_8" style="stroke-width: 2"/>
  <line x1="263" x2="337" y1="34.5" y2="34.5" class="net_4,5,6,7,8,9,10,11 width_8" style="stroke-width: 2"/>
  <line x1="263" x2="273" y1="34.5" y2="34.5" class="net_4,5,6,7,8,9,10,11 width_8" style="stroke-width: 2"/>
  <line x1="273" x2="273" y1="34.5" y2="181.5" class="net_4,5,6,7,8,9,10,11 width_8" style="stroke-width: 2"/>
  <line x1="273" x2="12" y1="181.5" y2="181.5" class="net_4,5,6,7,8,9,10,11 width_8" style="stroke-width: 2"/>
  <line x1="12" x2="12" y1="181.5" y2="34.5" class="net_4,5,6,7,8,9,10,11 width_8" style="stroke-width: 2"/>
  <circle cx="273" cy="34.5" r="3" style="fill:#000" class="net_4,5,6,7,8,9,10,11 width_8"/>
  <line x1="12" x2="32" y1="34.5" y2="34.5" class="net_4,5,6,7,8,9,10,11 width_8" style="stroke-width: 2"/>
  <line x1="37" x2="125" y1="24.5" y2="24.5" class="net_11 width_1" style="stroke-width: 1"/>
  <line x1="37" x2="125" y1="44.5" y2="44.5" class="net_4,5,6,7,8,9,10 width_7" style="stroke-width: 2"/>
  <rect x="180" y="29.5" width="16" height="9" class="net_11,4,5,6,7,8,9,10 width_8 busLabel_8" style="fill: white; stroke: none"/>
  <text x="179" y="37.5" class="net_11,4,5,6,7,8,9,10 width_8 busLabel_8">/8/</text>
  <rect x="123.5" y="176.5" width="16" height="9" class="net_4,5,6,7,8,9,10,11 width_8 busLabel_8" style="fill: white; stroke: none"/>
  <text x="122.5" y="184.5" class="net_4,5,6,7,8,9,10,11 width_8 busLabel_8">/8/</text>
  <rect x="123.5" y="176.5" width="16" height="9" class="net_4,5,6,7,8,9,10,11 width_8 busLabel_8" style="fill: white; stroke: none"/>
  <text x="122.5" y="184.5" class="net_4,5,6,7,8,9,10,11 width_8 busLabel_8">/8/</text>
  <rect x="80" y="39.5" width="16" height="9" class="net_4,5,6,7,8,9,10 width_7 busLabel_7" style="fill: white; stroke: none"/>
  <text x="79" y="47.5" class="net_4,5,6,7,8,9,10 width_7 busLabel_7">/7/</text>
</svg>
