<svg xmlns="http://www.w3.org/2000/svg" xmlns:xlink="http://www.w3.org/1999/xlink" xmlns:s="https://github.com/nturley/netlistsvg" width="960" height="365">
  <style>svg {
    stroke:#000;
    fill:none;
  }
  text {
    fill:#000;
    stroke:none;
    font-size:10px;
    font-weight: bold;
    font-family: "Courier New", monospace;
  }
  .nodelabel {
    text-anchor: middle;
  }
  .inputPortLabel {
    text-anchor: end;
  }
  .splitjoinBody {
    fill:#000;
  }</style>
  <g s:type="reduce_xor" transform="translate(327,100)" s:width="33" s:height="25" id="cell_\11">
    <s:alias val="$xor"/>
    <s:alias val="$reduce_xor"/>
    <s:alias val="$_XOR_"/>
    <path d="M3,0 A30 25 0 0 1 3,25 A30 25 0 0 0 33,12.5 A30 25 0 0 0 3,0" class="cell_\11"/>
    <path d="M0,0 A30 25 0 0 1 0,25" class="cell_\11"/>
    <g s:x="3" s:y="5" s:pid="A"/>
    <g s:x="3" s:y="20" s:pid="B"/>
    <g s:x="33" s:y="12.5" s:pid="Y"/>
  </g>
  <g s:type="reduce_xor" transform="translate(395,115)" s:width="33" s:height="25" id="cell_\13">
    <s:alias val="$xor"/>
    <s:alias val="$reduce_xor"/>
    <s:alias val="$_XOR_"/>
    <path d="M3,0 A30 25 0 0 1 3,25 A30 25 0 0 0 33,12.5 A30 25 0 0 0 3,0" class="cell_\13"/>
    <path d="M0,0 A30 25 0 0 1 0,25" class="cell_\13"/>
    <g s:x="3" s:y="5" s:pid="A"/>
    <g s:x="3" s:y="20" s:pid="B"/>
    <g s:x="33" s:y="12.5" s:pid="Y"/>
  </g>
  <g s:type="reduce_xor" transform="translate(463,130)" s:width="33" s:height="25" id="cell_\15">
    <s:alias val="$xor"/>
    <s:alias val="$reduce_xor"/>
    <s:alias val="$_XOR_"/>
    <path d="M3,0 A30 25 0 0 1 3,25 A30 25 0 0 0 33,12.5 A30 25 0 0 0 3,0" class="cell_\15"/>
    <path d="M0,0 A30 25 0 0 1 0,25" class="cell_\15"/>
    <g s:x="3" s:y="5" s:pid="A"/>
    <g s:x="3" s:y="20" s:pid="B"/>
    <g s:x="33" s:y="12.5" s:pid="Y"/>
  </g>
  <g s:type="reduce_xor" transform="translate(327,161)" s:width="33" s:height="25" id="cell_\18">
    <s:alias val="$xor"/>
    <s:alias val="$reduce_xor"/>
    <s:alias val="$_XOR_"/>
    <path d="M3,0 A30 25 0 0 1 3,25 A30 25 0 0 0 33,12.5 A30 25 0 0 0 3,0" class="cell_\18"/>
    <path d="M0,0 A30 25 0 0 1 0,25" class="cell_\18"/>
    <g s:x="3" s:y="5" s:pid="A"/>
    <g s:x="3" s:y="20" s:pid="B"/>
    <g s:x="33" s:y="12.5" s:pid="Y"/>
  </g>
  <g s:type="reduce_xor" transform="translate(395,176)" s:width="33" s:height="25" id="cell_\20">
    <s:alias val="$xor"/>
    <s:alias val="$reduce_xor"/>
    <s:alias val="$_XOR_"/>
    <path d="M3,0 A30 25 0 0 1 3,25 A30 25 0 0 0 33,12.5 A30 25 0 0 0 3,0" class="cell_\20"/>
    <path d="M0,0 A30 25 0 0 1 0,25" class="cell_\20"/>
    <g s:x="3" s:y="5" s:pid="A"/>
    <g s:x="3" s:y="20" s:pid="B"/>
    <g s:x="33" s:y="12.5" s:pid="Y"/>
  </g>
  <g s:type="reduce_xor" transform="translate(463,191)" s:width="33" s:height="25" id="cell_\22">
    <s:alias val="$xor"/>
    <s:alias val="$reduce_xor"/>
    <s:alias val="$_XOR_"/>
    <path d="M3,0 A30 25 0 0 1 3,25 A30 25 0 0 0 33,12.5 A30 25 0 0 0 3,0" class="cell_\22"/>
    <path d="M0,0 A30 25 0 0 1 0,25" class="cell_\22"/>
    <g s:x="3" s:y="5" s:pid="A"/>
    <g s:x="3" s:y="20" s:pid="B"/>
    <g s:x="33" s:y="12.5" s:pid="Y"/>
  </g>
  <g s:type="generic" transform="translate(606,163)" s:width="30" s:height="40" id="cell_\25">
    <text x="15" y="-4" class="nodelabel cell_\25" s:attribute="ref">$reduce_bool</text>
    <rect width="30" height="20" s:generic="body" class="cell_\25"/>
    <g transform="translate(0,10)" s:x="0" s:y="10" s:pid="in0" id="port_\25~A">
      <text x="-3" y="-4" class="inputPortLabel cell_\25">A</text>
    </g>
    <g transform="translate(30,10)" s:x="30" s:y="10" s:pid="out0" id="port_\25~Y">
      <text x="5" y="-4" style="fill:#000; stroke:none" class="cell_\25">Y</text>
    </g>
  </g>
  <g s:type="mux" transform="translate(682.3333333333334,78)" s:width="20" s:height="40" id="cell_\26">
    <s:alias val="$pmux"/>
    <s:alias val="$mux"/>
    <s:alias val="$_MUX_"/>
    <path d="M0,0 L20,10 L20,30 L0,40 Z" class="cell_\26"/>
    <g s:x="0" s:y="10" s:pid="A"/>
    <g s:x="0" s:y="30" s:pid="B"/>
    <g s:x="10" s:y="35" s:pid="S"/>
    <g s:x="20" s:y="20" s:pid="Y"/>
  </g>
  <g s:type="reduce_xor" transform="translate(191,328)" s:width="33" s:height="25" id="cell_\30">
    <s:alias val="$xor"/>
    <s:alias val="$reduce_xor"/>
    <s:alias val="$_XOR_"/>
    <path d="M3,0 A30 25 0 0 1 3,25 A30 25 0 0 0 33,12.5 A30 25 0 0 0 3,0" class="cell_\30"/>
    <path d="M0,0 A30 25 0 0 1 0,25" class="cell_\30"/>
    <g s:x="3" s:y="5" s:pid="A"/>
    <g s:x="3" s:y="20" s:pid="B"/>
    <g s:x="33" s:y="12.5" s:pid="Y"/>
  </g>
  <g s:type="reduce_xor" transform="translate(259,222)" s:width="33" s:height="25" id="cell_\32">
    <s:alias val="$xor"/>
    <s:alias val="$reduce_xor"/>
    <s:alias val="$_XOR_"/>
    <path d="M3,0 A30 25 0 0 1 3,25 A30 25 0 0 0 33,12.5 A30 25 0 0 0 3,0" class="cell_\32"/>
    <path d="M0,0 A30 25 0 0 1 0,25" class="cell_\32"/>
    <g s:x="3" s:y="5" s:pid="A"/>
    <g s:x="3" s:y="20" s:pid="B"/>
    <g s:x="33" s:y="12.5" s:pid="Y"/>
  </g>
  <g s:type="reduce_xor" transform="translate(327,237)" s:width="33" s:height="25" id="cell_\34">
    <s:alias val="$xor"/>
    <s:alias val="$reduce_xor"/>
    <s:alias val="$_XOR_"/>
    <path d="M3,0 A30 25 0 0 1 3,25 A30 25 0 0 0 33,12.5 A30 25 0 0 0 3,0" class="cell_\34"/>
    <path d="M0,0 A30 25 0 0 1 0,25" class="cell_\34"/>
    <g s:x="3" s:y="5" s:pid="A"/>
    <g s:x="3" s:y="20" s:pid="B"/>
    <g s:x="33" s:y="12.5" s:pid="Y"/>
  </g>
  <g s:type="reduce_xor" transform="translate(395,252)" s:width="33" s:height="25" id="cell_\36">
    <s:alias val="$xor"/>
    <s:alias val="$reduce_xor"/>
    <s:alias val="$_XOR_"/>
    <path d="M3,0 A30 25 0 0 1 3,25 A30 25 0 0 0 33,12.5 A30 25 0 0 0 3,0" class="cell_\36"/>
    <path d="M0,0 A30 25 0 0 1 0,25" class="cell_\36"/>
    <g s:x="3" s:y="5" s:pid="A"/>
    <g s:x="3" s:y="20" s:pid="B"/>
    <g s:x="33" s:y="12.5" s:pid="Y"/>
  </g>
  <g s:type="reduce_xor" transform="translate(463,267)" s:width="33" s:height="25" id="cell_\38">
    <s:alias val="$xor"/>
    <s:alias val="$reduce_xor"/>
    <s:alias val="$_XOR_"/>
    <path d="M3,0 A30 25 0 0 1 3,25 A30 25 0 0 0 33,12.5 A30 25 0 0 0 3,0" class="cell_\38"/>
    <path d="M0,0 A30 25 0 0 1 0,25" class="cell_\38"/>
    <g s:x="3" s:y="5" s:pid="A"/>
    <g s:x="3" s:y="20" s:pid="B"/>
    <g s:x="33" s:y="12.5" s:pid="Y"/>
  </g>
  <g s:type="reduce_xor" transform="translate(327,39)" s:width="33" s:height="25" id="cell_\4">
    <s:alias val="$xor"/>
    <s:alias val="$reduce_xor"/>
    <s:alias val="$_XOR_"/>
    <path d="M3,0 A30 25 0 0 1 3,25 A30 25 0 0 0 33,12.5 A30 25 0 0 0 3,0" class="cell_\4"/>
    <path d="M0,0 A30 25 0 0 1 0,25" class="cell_\4"/>
    <g s:x="3" s:y="5" s:pid="A"/>
    <g s:x="3" s:y="20" s:pid="B"/>
    <g s:x="33" s:y="12.5" s:pid="Y"/>
  </g>
  <g s:type="reduce_xor" transform="translate(531,282)" s:width="33" s:height="25" id="cell_\40">
    <s:alias val="$xor"/>
    <s:alias val="$reduce_xor"/>
    <s:alias val="$_XOR_"/>
    <path d="M3,0 A30 25 0 0 1 3,25 A30 25 0 0 0 33,12.5 A30 25 0 0 0 3,0" class="cell_\40"/>
    <path d="M0,0 A30 25 0 0 1 0,25" class="cell_\40"/>
    <g s:x="3" s:y="5" s:pid="A"/>
    <g s:x="3" s:y="20" s:pid="B"/>
    <g s:x="33" s:y="12.5" s:pid="Y"/>
  </g>
  <g s:type="reduce_xor" transform="translate(605.3333333333334,297)" s:width="33" s:height="25" id="cell_\42">
    <s:alias val="$xor"/>
    <s:alias val="$reduce_xor"/>
    <s:alias val="$_XOR_"/>
    <path d="M3,0 A30 25 0 0 1 3,25 A30 25 0 0 0 33,12.5 A30 25 0 0 0 3,0" class="cell_\42"/>
    <path d="M0,0 A30 25 0 0 1 0,25" class="cell_\42"/>
    <g s:x="3" s:y="5" s:pid="A"/>
    <g s:x="3" s:y="20" s:pid="B"/>
    <g s:x="33" s:y="12.5" s:pid="Y"/>
  </g>
  <g s:type="not" transform="translate(679,299.5)" s:width="30" s:height="20" id="cell_\43">
    <s:alias val="$_NOT_"/>
    <s:alias val="$not"/>
    <path d="M0,0 L0,20 L20,10 Z" class="cell_\43"/>
    <circle cx="23" cy="10" r="3" class="cell_\43"/>
    <g s:x="0" s:y="10" s:pid="A"/>
    <g s:x="25" s:y="10" s:pid="Y"/>
  </g>
  <g s:type="and" transform="translate(744,289.5)" s:width="30" s:height="25" id="cell_\44">
    <s:alias val="$and"/>
    <s:alias val="$logic_and"/>
    <s:alias val="$_AND_"/>
    <path d="M0,0 L0,25 L15,25 A15 12.5 0 0 0 15,0 Z" class="cell_\44"/>
    <g s:x="0" s:y="5" s:pid="A"/>
    <g s:x="0" s:y="20" s:pid="B"/>
    <g s:x="30" s:y="12.5" s:pid="Y"/>
  </g>
  <g s:type="mux" transform="translate(809,214.5)" s:width="20" s:height="40" id="cell_\46">
    <s:alias val="$pmux"/>
    <s:alias val="$mux"/>
    <s:alias val="$_MUX_"/>
    <path d="M0,0 L20,10 L20,30 L0,40 Z" class="cell_\46"/>
    <g s:x="0" s:y="10" s:pid="A"/>
    <g s:x="0" s:y="30" s:pid="B"/>
    <g s:x="10" s:y="35" s:pid="S"/>
    <g s:x="20" s:y="20" s:pid="Y"/>
  </g>
  <g s:type="reduce_xor" transform="translate(395,54)" s:width="33" s:height="25" id="cell_\6">
    <s:alias val="$xor"/>
    <s:alias val="$reduce_xor"/>
    <s:alias val="$_XOR_"/>
    <path d="M3,0 A30 25 0 0 1 3,25 A30 25 0 0 0 33,12.5 A30 25 0 0 0 3,0" class="cell_\6"/>
    <path d="M0,0 A30 25 0 0 1 0,25" class="cell_\6"/>
    <g s:x="3" s:y="5" s:pid="A"/>
    <g s:x="3" s:y="20" s:pid="B"/>
    <g s:x="33" s:y="12.5" s:pid="Y"/>
  </g>
  <g s:type="reduce_xor" transform="translate(463,69)" s:width="33" s:height="25" id="cell_\8">
    <s:alias val="$xor"/>
    <s:alias val="$reduce_xor"/>
    <s:alias val="$_XOR_"/>
    <path d="M3,0 A30 25 0 0 1 3,25 A30 25 0 0 0 33,12.5 A30 25 0 0 0 3,0" class="cell_\8"/>
    <path d="M0,0 A30 25 0 0 1 0,25" class="cell_\8"/>
    <g s:x="3" s:y="5" s:pid="A"/>
    <g s:x="3" s:y="20" s:pid="B"/>
    <g s:x="33" s:y="12.5" s:pid="Y"/>
  </g>
  <g s:type="inputExt" transform="translate(12,156)" s:width="30" s:height="20" id="cell_data_in">
    <text x="15" y="-4" class="nodelabel cell_data_in" s:attribute="ref">data_in</text>
    <s:alias val="$_inputExt_"/>
    <path d="M0,0 L0,20 L15,20 L30,10 L15,0 Z" class="cell_data_in"/>
    <g s:x="28" s:y="10" s:pid="Y"/>
  </g>
  <g s:type="outputExt" transform="translate(864,224.5)" s:width="30" s:height="20" id="cell_error_location">
    <text x="15" y="-4" class="nodelabel cell_error_location" s:attribute="ref">error_location</text>
    <s:alias val="$_outputExt_"/>
    <path d="M30,0 L30,20 L15,20 L0,10 L15,0 Z" class="cell_error_location"/>
    <g s:x="0" s:y="10" s:pid="A"/>
  </g>
  <g s:type="outputExt" transform="translate(864,292)" s:width="30" s:height="20" id="cell_error_double">
    <text x="15" y="-4" class="nodelabel cell_error_double" s:attribute="ref">error_double</text>
    <s:alias val="$_outputExt_"/>
    <path d="M30,0 L30,20 L15,20 L0,10 L15,0 Z" class="cell_error_double"/>
    <g s:x="0" s:y="10" s:pid="A"/>
  </g>
  <g s:type="constant" transform="translate(606,33)" s:width="30" s:height="20" id="cell_0">
    <text x="15" y="-4" class="nodelabel cell_0" s:attribute="ref">0</text>
    <s:alias val="$_constant_"/>
    <rect width="30" height="20" class="cell_0"/>
    <g s:x="30" s:y="10" s:pid="Y"/>
  </g>
  <g s:type="constant" transform="translate(606,98)" s:width="30" s:height="20" id="cell_1">
    <text x="15" y="-4" class="nodelabel cell_1" s:attribute="ref">1</text>
    <s:alias val="$_constant_"/>
    <rect width="30" height="20" class="cell_1"/>
    <g s:x="30" s:y="10" s:pid="Y"/>
  </g>
  <g s:type="constant" transform="translate(744,234.5)" s:width="30" s:height="20" id="cell_000">
    <text x="15" y="-4" class="nodelabel cell_000" s:attribute="ref">000</text>
    <s:alias val="$_constant_"/>
    <rect width="30" height="20" class="cell_000"/>
    <g s:x="30" s:y="10" s:pid="Y"/>
  </g>
  <g s:type="join" transform="translate(541.75,153)" s:width="4" s:height="40" id="cell_$join$,20,16,19,">
    <rect width="5" height="60" class="splitjoinBody" s:generic="body"/>
    <s:alias val="$_join_"/>
    <g s:x="5" s:y="20" s:pid="out"/>
    <g transform="translate(0,10)" s:x="0" s:y="10" s:pid="in0">
      <text x="-3" y="-4" class="inputPortLabel">0</text>
    </g>
    <g transform="translate(0,30)" s:x="0" s:y="10" s:pid="in0">
      <text x="-3" y="-4" class="inputPortLabel">1</text>
    </g>
    <g transform="translate(0,50)" s:x="0" s:y="10" s:pid="in0">
      <text x="-3" y="-4" class="inputPortLabel">2</text>
    </g>
  </g>
  <g s:type="split" transform="translate(89,145.5)" s:width="5" s:height="40" id="cell_$split$,2,3,4,5,6,7,8,9,">
    <rect width="5" height="160" class="splitjoinBody" s:generic="body"/>
    <s:alias val="$_split_"/>
    <g s:x="0" s:y="20" s:pid="in"/>
    <g transform="translate(4,10)" s:x="4" s:y="10" s:pid="out0">
      <text x="5" y="-4">2</text>
    </g>
    <g transform="translate(4,30)" s:x="4" s:y="10" s:pid="out0">
      <text x="5" y="-4">3</text>
    </g>
    <g transform="translate(4,50)" s:x="4" s:y="10" s:pid="out0">
      <text x="5" y="-4">6</text>
    </g>
    <g transform="translate(4,70)" s:x="4" s:y="10" s:pid="out0">
      <text x="5" y="-4">7</text>
    </g>
    <g transform="translate(4,90)" s:x="4" s:y="10" s:pid="out0">
      <text x="5" y="-4">4</text>
    </g>
    <g transform="translate(4,110)" s:x="4" s:y="10" s:pid="out0">
      <text x="5" y="-4">5</text>
    </g>
    <g transform="translate(4,130)" s:x="4" s:y="10" s:pid="out0">
      <text x="5" y="-4">0</text>
    </g>
    <g transform="translate(4,150)" s:x="4" s:y="10" s:pid="out0">
      <text x="5" y="-4">1</text>
    </g>
  </g>
  <line x1="93.5" x2="93.5" y1="155.5" y2="105" class="net_4"/>
  <line x1="93.5" x2="330" y1="105" y2="105" class="net_4"/>
  <line x1="93.5" x2="93.5" y1="155.5" y2="105" class="net_4"/>
  <line x1="93.5" x2="181" y1="105" y2="105" class="net_4"/>
  <line x1="181" x2="181" y1="105" y2="242" class="net_4"/>
  <circle cx="181" cy="105" r="2" style="fill:#000" class="net_4"/>
  <line x1="181" x2="262" y1="242" y2="242" class="net_4"/>
  <line x1="94" x2="141" y1="176" y2="176" class="net_5"/>
  <line x1="141" x2="141" y1="176" y2="120" class="net_5"/>
  <circle cx="141" cy="176" r="2" style="fill:#000" class="net_5"/>
  <circle cx="141" cy="120" r="2" style="fill:#000" class="net_5"/>
  <line x1="141" x2="330" y1="120" y2="120" class="net_5"/>
  <line x1="94" x2="141" y1="176" y2="176" class="net_5"/>
  <line x1="141" x2="141" y1="176" y2="257" class="net_5"/>
  <line x1="141" x2="330" y1="257" y2="257" class="net_5"/>
  <line x1="94" x2="141" y1="176" y2="176" class="net_5"/>
  <line x1="141" x2="141" y1="176" y2="59" class="net_5"/>
  <line x1="141" x2="330" y1="59" y2="59" class="net_5"/>
  <line x1="360" x2="370" y1="112.5" y2="112.5" class="net_14"/>
  <line x1="370" x2="370" y1="112.5" y2="120" class="net_14"/>
  <line x1="370" x2="398" y1="120" y2="120" class="net_14"/>
  <line x1="94" x2="161" y1="196" y2="196" class="net_8"/>
  <line x1="161" x2="161" y1="196" y2="135" class="net_8"/>
  <circle cx="161" cy="196" r="2" style="fill:#000" class="net_8"/>
  <line x1="161" x2="398" y1="135" y2="135" class="net_8"/>
  <line x1="94" x2="398" y1="196" y2="196" class="net_8"/>
  <line x1="94" x2="161" y1="196" y2="196" class="net_8"/>
  <line x1="161" x2="161" y1="196" y2="302" class="net_8"/>
  <line x1="161" x2="534" y1="302" y2="302" class="net_8"/>
  <line x1="428" x2="438" y1="127.5" y2="127.5" class="net_15"/>
  <line x1="438" x2="438" y1="127.5" y2="135" class="net_15"/>
  <line x1="438" x2="466" y1="135" y2="135" class="net_15"/>
  <line x1="94" x2="151" y1="216" y2="216" class="net_9"/>
  <line x1="151" x2="151" y1="216" y2="150" class="net_9"/>
  <circle cx="151" cy="216" r="2" style="fill:#000" class="net_9"/>
  <circle cx="151" cy="150" r="2" style="fill:#000" class="net_9"/>
  <line x1="151" x2="466" y1="150" y2="150" class="net_9"/>
  <line x1="94" x2="151" y1="216" y2="216" class="net_9"/>
  <line x1="151" x2="151" y1="216" y2="211" class="net_9"/>
  <circle cx="151" cy="211" r="2" style="fill:#000" class="net_9"/>
  <line x1="151" x2="466" y1="211" y2="211" class="net_9"/>
  <line x1="94" x2="151" y1="216" y2="216" class="net_9"/>
  <line x1="151" x2="151" y1="216" y2="317" class="net_9"/>
  <line x1="151" x2="608.3333333333334" y1="317" y2="317" class="net_9"/>
  <line x1="94" x2="151" y1="216" y2="216" class="net_9"/>
  <line x1="151" x2="151" y1="216" y2="89" class="net_9"/>
  <line x1="151" x2="466" y1="89" y2="89" class="net_9"/>
  <line x1="94" x2="171" y1="236" y2="236" class="net_6"/>
  <line x1="171" x2="171" y1="236" y2="166" class="net_6"/>
  <circle cx="171" cy="236" r="2" style="fill:#000" class="net_6"/>
  <line x1="171" x2="330" y1="166" y2="166" class="net_6"/>
  <line x1="94" x2="171" y1="236" y2="236" class="net_6"/>
  <line x1="171" x2="171" y1="236" y2="272" class="net_6"/>
  <line x1="171" x2="398" y1="272" y2="272" class="net_6"/>
  <line x1="94" x2="131" y1="256" y2="256" class="net_7"/>
  <line x1="131" x2="131" y1="256" y2="181" class="net_7"/>
  <circle cx="131" cy="256" r="2" style="fill:#000" class="net_7"/>
  <circle cx="131" cy="181" r="2" style="fill:#000" class="net_7"/>
  <line x1="131" x2="330" y1="181" y2="181" class="net_7"/>
  <line x1="94" x2="131" y1="256" y2="256" class="net_7"/>
  <line x1="131" x2="131" y1="256" y2="287" class="net_7"/>
  <line x1="131" x2="466" y1="287" y2="287" class="net_7"/>
  <line x1="94" x2="131" y1="256" y2="256" class="net_7"/>
  <line x1="131" x2="131" y1="256" y2="74" class="net_7"/>
  <line x1="131" x2="398" y1="74" y2="74" class="net_7"/>
  <line x1="360" x2="370" y1="173.5" y2="173.5" class="net_17"/>
  <line x1="370" x2="370" y1="173.5" y2="181" class="net_17"/>
  <line x1="370" x2="398" y1="181" y2="181" class="net_17"/>
  <line x1="428" x2="438" y1="188.5" y2="188.5" class="net_18"/>
  <line x1="438" x2="438" y1="188.5" y2="196" class="net_18"/>
  <line x1="438" x2="466" y1="196" y2="196" class="net_18"/>
  <line x1="547.75" x2="606" y1="173.5" y2="173.5" class="net_20,16,19"/>
  <line x1="547.75" x2="574" y1="173.5" y2="173.5" class="net_20,16,19"/>
  <line x1="574" x2="574" y1="173.5" y2="12" class="net_20,16,19"/>
  <line x1="574" x2="784" y1="12" y2="12" class="net_20,16,19"/>
  <line x1="784" x2="784" y1="12" y2="224.5" class="net_20,16,19"/>
  <circle cx="574" cy="173.5" r="2" style="fill:#000" class="net_20,16,19"/>
  <line x1="784" x2="809" y1="224.5" y2="224.5" class="net_20,16,19"/>
  <line x1="636" x2="654" y1="43" y2="43" class="net_33"/>
  <line x1="654" x2="654" y1="43" y2="88" class="net_33"/>
  <line x1="654" x2="682.3333333333334" y1="88" y2="88" class="net_33"/>
  <line x1="636" x2="682.3333333333334" y1="108" y2="108" class="net_34"/>
  <line x1="637" x2="692.3333333333334" y1="173.5" y2="173.5" class="net_21"/>
  <line x1="692.3333333333334" x2="692.3333333333334" y1="173.5" y2="113" class="net_21"/>
  <line x1="94" x2="111" y1="276" y2="276" class="net_2"/>
  <line x1="111" x2="111" y1="276" y2="333" class="net_2"/>
  <line x1="111" x2="194" y1="333" y2="333" class="net_2"/>
  <line x1="93.5" x2="93.5" y1="296.5" y2="348" class="net_3"/>
  <line x1="93.5" x2="194" y1="348" y2="348" class="net_3"/>
  <line x1="93.5" x2="93.5" y1="296.5" y2="348" class="net_3"/>
  <line x1="93.5" x2="121" y1="348" y2="348" class="net_3"/>
  <line x1="121" x2="121" y1="348" y2="44" class="net_3"/>
  <circle cx="121" cy="348" r="2" style="fill:#000" class="net_3"/>
  <line x1="121" x2="330" y1="44" y2="44" class="net_3"/>
  <line x1="224" x2="234" y1="340.5" y2="340.5" class="net_23"/>
  <line x1="234" x2="234" y1="340.5" y2="227" class="net_23"/>
  <line x1="234" x2="262" y1="227" y2="227" class="net_23"/>
  <line x1="292" x2="302" y1="234.5" y2="234.5" class="net_24"/>
  <line x1="302" x2="302" y1="234.5" y2="242" class="net_24"/>
  <line x1="302" x2="330" y1="242" y2="242" class="net_24"/>
  <line x1="360" x2="370" y1="249.5" y2="249.5" class="net_25"/>
  <line x1="370" x2="370" y1="249.5" y2="257" class="net_25"/>
  <line x1="370" x2="398" y1="257" y2="257" class="net_25"/>
  <line x1="428" x2="438" y1="264.5" y2="264.5" class="net_26"/>
  <line x1="438" x2="438" y1="264.5" y2="272" class="net_26"/>
  <line x1="438" x2="466" y1="272" y2="272" class="net_26"/>
  <line x1="496" x2="506" y1="279.5" y2="279.5" class="net_27"/>
  <line x1="506" x2="506" y1="279.5" y2="287" class="net_27"/>
  <line x1="506" x2="534" y1="287" y2="287" class="net_27"/>
  <line x1="564" x2="574" y1="294.5" y2="294.5" class="net_29"/>
  <line x1="574" x2="574" y1="294.5" y2="302" class="net_29"/>
  <line x1="574" x2="608.3333333333334" y1="302" y2="302" class="net_29"/>
  <line x1="638.3333333333334" x2="679" y1="309.5" y2="309.5" class="net_30"/>
  <line x1="702.3333333333334" x2="719" y1="98" y2="98" class="net_22"/>
  <line x1="719" x2="719" y1="98" y2="294.5" class="net_22"/>
  <line x1="719" x2="744" y1="294.5" y2="294.5" class="net_22"/>
  <line x1="704" x2="744" y1="309.5" y2="309.5" class="net_31"/>
  <line x1="774" x2="809" y1="244.5" y2="244.5" class="net_35,36,37"/>
  <line x1="774" x2="784" y1="302" y2="302" class="net_13"/>
  <line x1="784" x2="784" y1="302" y2="292" class="net_13"/>
  <line x1="784" x2="819" y1="292" y2="292" class="net_13"/>
  <circle cx="784" cy="302" r="2" style="fill:#000" class="net_13"/>
  <line x1="819" x2="819" y1="292" y2="249.5" class="net_13"/>
  <line x1="774" x2="864" y1="302" y2="302" class="net_13"/>
  <line x1="360" x2="370" y1="51.5" y2="51.5" class="net_28"/>
  <line x1="370" x2="370" y1="51.5" y2="59" class="net_28"/>
  <line x1="370" x2="398" y1="59" y2="59" class="net_28"/>
  <line x1="428" x2="438" y1="66.5" y2="66.5" class="net_32"/>
  <line x1="438" x2="438" y1="66.5" y2="74" class="net_32"/>
  <line x1="438" x2="466" y1="74" y2="74" class="net_32"/>
  <line x1="829" x2="864" y1="234.5" y2="234.5" class="net_10,11,12"/>
  <line x1="496" x2="516" y1="81.5" y2="81.5" class="net_20"/>
  <line x1="516" x2="516" y1="81.5" y2="163.5" class="net_20"/>
  <line x1="516" x2="541.75" y1="163.5" y2="163.5" class="net_20"/>
  <line x1="496" x2="506" y1="142.5" y2="142.5" class="net_16"/>
  <line x1="506" x2="506" y1="142.5" y2="183.5" class="net_16"/>
  <line x1="506" x2="541.75" y1="183.5" y2="183.5" class="net_16"/>
  <line x1="496" x2="541.75" y1="203.5" y2="203.5" class="net_19"/>
  <line x1="40" x2="89" y1="166" y2="166" class="net_2,3,4,5,6,7,8,9"/>
</svg>
