<svg xmlns="http://www.w3.org/2000/svg" xmlns:xlink="http://www.w3.org/1999/xlink" xmlns:s="https://github.com/nturley/netlistsvg" width="655" height="395.5">
  <style>svg {
    stroke:#000;
    fill:none;
  }
  text {
    fill:#000;
    stroke:none;
    font-size:10px;
    font-weight: bold;
    font-family: "Courier New", monospace;
  }
  line {
      stroke-linecap: round;
  }
  .nodelabel {
    text-anchor: middle;
  }
  .inputPortLabel {
    text-anchor: end;
  }
  .splitjoinBody {
    fill:#000;
  }</style>
  <g s:type="not" transform="translate(228,94.5)" s:width="30" s:height="20" id="cell_\12">
    <s:alias val="$_NOT_"/>
    <s:alias val="$not"/>
    <s:alias val="$logic_not"/>
    <path d="M0,0 L0,20 L20,10 Z" class="cell_\12"/>
    <circle cx="24" cy="10" r="3" class="cell_\12"/>
    <g s:x="-1" s:y="10" s:pid="A"/>
    <g s:x="27" s:y="10" s:pid="Y"/>
  </g>
  <g s:type="and" transform="translate(299.6666666666667,84.5)" s:width="30" s:height="25" id="cell_\13">
    <s:alias val="$and"/>
    <s:alias val="$logic_and"/>
    <s:alias val="$_AND_"/>
    <s:alias val="$reduce_and"/>
    <path d="M0,0 L0,25 L15,25 A15 12.5 0 0 0 15,0 Z" class="cell_\13"/>
    <g s:x="0" s:y="5" s:pid="A"/>
    <g s:x="0" s:y="20" s:pid="B"/>
    <g s:x="30" s:y="12.5" s:pid="Y"/>
  </g>
  <g s:type="and" transform="translate(370,104.5)" s:width="30" s:height="25" id="cell_\15">
    <s:alias val="$and"/>
    <s:alias val="$logic_and"/>
    <s:alias val="$_AND_"/>
    <s:alias val="$reduce_and"/>
    <path d="M0,0 L0,25 L15,25 A15 12.5 0 0 0 15,0 Z" class="cell_\15"/>
    <g s:x="0" s:y="5" s:pid="A"/>
    <g s:x="0" s:y="20" s:pid="B"/>
    <g s:x="30" s:y="12.5" s:pid="Y"/>
  </g>
  <g s:type="reduce_xor" transform="translate(440,184.5)" s:width="33" s:height="25" id="cell_\16">
    <s:alias val="$xor"/>
    <s:alias val="$reduce_xor"/>
    <s:alias val="$_XOR_"/>
    <path d="M3,0 A30 25 0 0 1 3,25 A30 25 0 0 0 33,12.5 A30 25 0 0 0 3,0" class="cell_\16"/>
    <path d="M0,0 A30 25 0 0 1 0,25" class="cell_\16"/>
    <g s:x="2" s:y="5" s:pid="A"/>
    <g s:x="2" s:y="20" s:pid="B"/>
    <g s:x="33" s:y="12.5" s:pid="Y"/>
  </g>
  <g s:type="not" transform="translate(228,276.5)" s:width="30" s:height="20" id="cell_\19">
    <s:alias val="$_NOT_"/>
    <s:alias val="$not"/>
    <s:alias val="$logic_not"/>
    <path d="M0,0 L0,20 L20,10 Z" class="cell_\19"/>
    <circle cx="24" cy="10" r="3" class="cell_\19"/>
    <g s:x="-1" s:y="10" s:pid="A"/>
    <g s:x="27" s:y="10" s:pid="Y"/>
  </g>
  <g s:type="and" transform="translate(299.6666666666667,286.5)" s:width="30" s:height="25" id="cell_\21">
    <s:alias val="$and"/>
    <s:alias val="$logic_and"/>
    <s:alias val="$_AND_"/>
    <s:alias val="$reduce_and"/>
    <path d="M0,0 L0,25 L15,25 A15 12.5 0 0 0 15,0 Z" class="cell_\21"/>
    <g s:x="0" s:y="5" s:pid="A"/>
    <g s:x="0" s:y="20" s:pid="B"/>
    <g s:x="30" s:y="12.5" s:pid="Y"/>
  </g>
  <g s:type="and" transform="translate(370,294)" s:width="30" s:height="25" id="cell_\23">
    <s:alias val="$and"/>
    <s:alias val="$logic_and"/>
    <s:alias val="$_AND_"/>
    <s:alias val="$reduce_and"/>
    <path d="M0,0 L0,25 L15,25 A15 12.5 0 0 0 15,0 Z" class="cell_\23"/>
    <g s:x="0" s:y="5" s:pid="A"/>
    <g s:x="0" s:y="20" s:pid="B"/>
    <g s:x="30" s:y="12.5" s:pid="Y"/>
  </g>
  <g s:type="reduce_xor" transform="translate(440,286.5)" s:width="33" s:height="25" id="cell_\24">
    <s:alias val="$xor"/>
    <s:alias val="$reduce_xor"/>
    <s:alias val="$_XOR_"/>
    <path d="M3,0 A30 25 0 0 1 3,25 A30 25 0 0 0 33,12.5 A30 25 0 0 0 3,0" class="cell_\24"/>
    <path d="M0,0 A30 25 0 0 1 0,25" class="cell_\24"/>
    <g s:x="2" s:y="5" s:pid="A"/>
    <g s:x="2" s:y="20" s:pid="B"/>
    <g s:x="33" s:y="12.5" s:pid="Y"/>
  </g>
  <g s:type="and" transform="translate(299.6666666666667,135.5)" s:width="30" s:height="25" id="cell_\28">
    <s:alias val="$and"/>
    <s:alias val="$logic_and"/>
    <s:alias val="$_AND_"/>
    <s:alias val="$reduce_and"/>
    <path d="M0,0 L0,25 L15,25 A15 12.5 0 0 0 15,0 Z" class="cell_\28"/>
    <g s:x="0" s:y="5" s:pid="A"/>
    <g s:x="0" s:y="20" s:pid="B"/>
    <g s:x="30" s:y="12.5" s:pid="Y"/>
  </g>
  <g s:type="and" transform="translate(370,354)" s:width="30" s:height="25" id="cell_\30">
    <s:alias val="$and"/>
    <s:alias val="$logic_and"/>
    <s:alias val="$_AND_"/>
    <s:alias val="$reduce_and"/>
    <path d="M0,0 L0,25 L15,25 A15 12.5 0 0 0 15,0 Z" class="cell_\30"/>
    <g s:x="0" s:y="5" s:pid="A"/>
    <g s:x="0" s:y="20" s:pid="B"/>
    <g s:x="30" s:y="12.5" s:pid="Y"/>
  </g>
  <g s:type="reduce_xor" transform="translate(440,346.5)" s:width="33" s:height="25" id="cell_\31">
    <s:alias val="$xor"/>
    <s:alias val="$reduce_xor"/>
    <s:alias val="$_XOR_"/>
    <path d="M3,0 A30 25 0 0 1 3,25 A30 25 0 0 0 33,12.5 A30 25 0 0 0 3,0" class="cell_\31"/>
    <path d="M0,0 A30 25 0 0 1 0,25" class="cell_\31"/>
    <g s:x="2" s:y="5" s:pid="A"/>
    <g s:x="2" s:y="20" s:pid="B"/>
    <g s:x="33" s:y="12.5" s:pid="Y"/>
  </g>
  <g s:type="not" transform="translate(300,29.5)" s:width="30" s:height="20" id="cell_\6">
    <s:alias val="$_NOT_"/>
    <s:alias val="$not"/>
    <s:alias val="$logic_not"/>
    <path d="M0,0 L0,20 L20,10 Z" class="cell_\6"/>
    <circle cx="24" cy="10" r="3" class="cell_\6"/>
    <g s:x="-1" s:y="10" s:pid="A"/>
    <g s:x="27" s:y="10" s:pid="Y"/>
  </g>
  <g s:type="and" transform="translate(370,19.5)" s:width="30" s:height="25" id="cell_\7">
    <s:alias val="$and"/>
    <s:alias val="$logic_and"/>
    <s:alias val="$_AND_"/>
    <s:alias val="$reduce_and"/>
    <path d="M0,0 L0,25 L15,25 A15 12.5 0 0 0 15,0 Z" class="cell_\7"/>
    <g s:x="0" s:y="5" s:pid="A"/>
    <g s:x="0" s:y="20" s:pid="B"/>
    <g s:x="30" s:y="12.5" s:pid="Y"/>
  </g>
  <g s:type="reduce_xor" transform="translate(440,12)" s:width="33" s:height="25" id="cell_\8">
    <s:alias val="$xor"/>
    <s:alias val="$reduce_xor"/>
    <s:alias val="$_XOR_"/>
    <path d="M3,0 A30 25 0 0 1 3,25 A30 25 0 0 0 33,12.5 A30 25 0 0 0 3,0" class="cell_\8"/>
    <path d="M0,0 A30 25 0 0 1 0,25" class="cell_\8"/>
    <g s:x="2" s:y="5" s:pid="A"/>
    <g s:x="2" s:y="20" s:pid="B"/>
    <g s:x="33" s:y="12.5" s:pid="Y"/>
  </g>
  <g s:type="inputExt" transform="translate(222,189.5)" s:width="30" s:height="20" id="cell_data_in">
    <text x="15" y="-4" class="nodelabel cell_data_in" s:attribute="ref">data_in</text>
    <s:alias val="$_inputExt_"/>
    <path d="M0,0 L0,20 L15,20 L30,10 L15,0 Z" class="cell_data_in"/>
    <g s:x="30" s:y="10" s:pid="Y"/>
  </g>
  <g s:type="inputExt" transform="translate(12,334)" s:width="30" s:height="20" id="cell_error_location">
    <text x="15" y="-4" class="nodelabel cell_error_location" s:attribute="ref">error_location</text>
    <s:alias val="$_inputExt_"/>
    <path d="M0,0 L0,20 L15,20 L30,10 L15,0 Z" class="cell_error_location"/>
    <g s:x="30" s:y="10" s:pid="Y"/>
  </g>
  <g s:type="outputExt" transform="translate(595,177)" s:width="30" s:height="20" id="cell_data_out">
    <text x="15" y="-4" class="nodelabel cell_data_out" s:attribute="ref">data_out</text>
    <s:alias val="$_outputExt_"/>
    <path d="M30,0 L30,20 L15,20 L0,10 L15,0 Z" class="cell_data_out"/>
    <g s:x="0" s:y="10" s:pid="A"/>
  </g>
  <g s:type="join" transform="translate(515,166.5)" s:width="4" s:height="40" id="cell_$join$,13,14,15,16,">
    <rect width="5" height="80" class="splitjoinBody" s:generic="body"/>
    <s:alias val="$_join_"/>
    <g s:x="5" s:y="20" s:pid="out"/>
    <g transform="translate(0,10)" s:x="0" s:y="10" s:pid="in0">
      <text x="-3" y="-4" class="inputPortLabel">0</text>
    </g>
    <g transform="translate(0,30)" s:x="0" s:y="10" s:pid="in0">
      <text x="-3" y="-4" class="inputPortLabel">1</text>
    </g>
    <g transform="translate(0,50)" s:x="0" s:y="10" s:pid="in0">
      <text x="-3" y="-4" class="inputPortLabel">2</text>
    </g>
    <g transform="translate(0,70)" s:x="0" s:y="10" s:pid="in0">
      <text x="-3" y="-4" class="inputPortLabel">3</text>
    </g>
  </g>
  <g s:type="split" transform="translate(170,323.5)" s:width="5" s:height="40" id="cell_$split$,10,11,12,">
    <rect width="5" height="60" class="splitjoinBody" s:generic="body"/>
    <s:alias val="$_split_"/>
    <g s:x="0" s:y="20" s:pid="in"/>
    <g transform="translate(4,10)" s:x="4" s:y="10" s:pid="out0">
      <text x="5" y="-4">1</text>
    </g>
    <g transform="translate(4,30)" s:x="4" s:y="10" s:pid="out0">
      <text x="5" y="-4">0</text>
    </g>
    <g transform="translate(4,50)" s:x="4" s:y="10" s:pid="out0">
      <text x="5" y="-4">2</text>
    </g>
  </g>
  <g s:type="split" transform="translate(385.8,179)" s:width="5" s:height="40" id="cell_$split$,2,3,4,5,6,7,8,9,">
    <rect width="5" height="80" class="splitjoinBody" s:generic="body"/>
    <s:alias val="$_split_"/>
    <g s:x="0" s:y="20" s:pid="in"/>
    <g transform="translate(4,10)" s:x="4" s:y="10" s:pid="out0">
      <text x="5" y="-4">5</text>
    </g>
    <g transform="translate(4,30)" s:x="4" s:y="10" s:pid="out0">
      <text x="5" y="-4">6</text>
    </g>
    <g transform="translate(4,50)" s:x="4" s:y="10" s:pid="out0">
      <text x="5" y="-4">7</text>
    </g>
    <g transform="translate(4,70)" s:x="4" s:y="10" s:pid="out0">
      <text x="5" y="-4">3</text>
    </g>
  </g>
  <line x1="175" x2="212" y1="334" y2="334" class="net_11 width_1" style="stroke-width: 1"/>
  <line x1="212" x2="212" y1="334" y2="104.5" class="net_11 width_1" style="stroke-width: 1"/>
  <line x1="212" x2="227" y1="104.5" y2="104.5" class="net_11 width_1" style="stroke-width: 1"/>
  <line x1="175" x2="212" y1="334" y2="334" class="net_11 width_1" style="stroke-width: 1"/>
  <line x1="212" x2="212" y1="334" y2="306.5" class="net_11 width_1" style="stroke-width: 1"/>
  <circle cx="212" cy="306.5" r="2" style="fill:#000" class="net_11 width_1"/>
  <line x1="212" x2="299.6666666666667" y1="306.5" y2="306.5" class="net_11 width_1" style="stroke-width: 1"/>
  <line x1="175" x2="212" y1="334" y2="334" class="net_11 width_1" style="stroke-width: 1"/>
  <line x1="212" x2="212" y1="334" y2="155.5" class="net_11 width_1" style="stroke-width: 1"/>
  <circle cx="212" cy="155.5" r="2" style="fill:#000" class="net_11 width_1"/>
  <line x1="212" x2="299.6666666666667" y1="155.5" y2="155.5" class="net_11 width_1" style="stroke-width: 1"/>
  <line x1="175" x2="202" y1="354" y2="354" class="net_10 width_1" style="stroke-width: 1"/>
  <line x1="202" x2="202" y1="354" y2="83.5" class="net_10 width_1" style="stroke-width: 1"/>
  <line x1="202" x2="274" y1="83.5" y2="83.5" class="net_10 width_1" style="stroke-width: 1"/>
  <line x1="274" x2="274" y1="83.5" y2="89.5" class="net_10 width_1" style="stroke-width: 1"/>
  <line x1="274" x2="299.6666666666667" y1="89.5" y2="89.5" class="net_10 width_1" style="stroke-width: 1"/>
  <line x1="175" x2="202" y1="354" y2="354" class="net_10 width_1" style="stroke-width: 1"/>
  <line x1="202" x2="202" y1="354" y2="286.5" class="net_10 width_1" style="stroke-width: 1"/>
  <circle cx="202" cy="286.5" r="2" style="fill:#000" class="net_10 width_1"/>
  <line x1="202" x2="227" y1="286.5" y2="286.5" class="net_10 width_1" style="stroke-width: 1"/>
  <line x1="175" x2="202" y1="354" y2="354" class="net_10 width_1" style="stroke-width: 1"/>
  <line x1="202" x2="202" y1="354" y2="144.5" class="net_10 width_1" style="stroke-width: 1"/>
  <line x1="202" x2="274" y1="144.5" y2="144.5" class="net_10 width_1" style="stroke-width: 1"/>
  <line x1="274" x2="274" y1="144.5" y2="140.5" class="net_10 width_1" style="stroke-width: 1"/>
  <circle cx="202" cy="144.5" r="2" style="fill:#000" class="net_10 width_1"/>
  <line x1="274" x2="299.6666666666667" y1="140.5" y2="140.5" class="net_10 width_1" style="stroke-width: 1"/>
  <line x1="255" x2="299.6666666666667" y1="104.5" y2="104.5" class="net_17 width_1" style="stroke-width: 1"/>
  <line x1="329.6666666666667" x2="360" y1="97" y2="97" class="net_18 width_1" style="stroke-width: 1"/>
  <line x1="360" x2="360" y1="97" y2="109.5" class="net_18 width_1" style="stroke-width: 1"/>
  <line x1="360" x2="370" y1="109.5" y2="109.5" class="net_18 width_1" style="stroke-width: 1"/>
  <line x1="175" x2="192" y1="374" y2="374" class="net_12 width_1" style="stroke-width: 1"/>
  <line x1="192" x2="192" y1="374" y2="124.5" class="net_12 width_1" style="stroke-width: 1"/>
  <circle cx="192" cy="374" r="2" style="fill:#000" class="net_12 width_1"/>
  <circle cx="192" cy="124.5" r="2" style="fill:#000" class="net_12 width_1"/>
  <line x1="192" x2="370" y1="124.5" y2="124.5" class="net_12 width_1" style="stroke-width: 1"/>
  <line x1="175" x2="340" y1="374" y2="374" class="net_12 width_1" style="stroke-width: 1"/>
  <line x1="340" x2="340" y1="374" y2="314" class="net_12 width_1" style="stroke-width: 1"/>
  <circle cx="340" cy="374" r="2" style="fill:#000" class="net_12 width_1"/>
  <line x1="340" x2="370" y1="314" y2="314" class="net_12 width_1" style="stroke-width: 1"/>
  <line x1="175" x2="370" y1="374" y2="374" class="net_12 width_1" style="stroke-width: 1"/>
  <line x1="175" x2="192" y1="374" y2="374" class="net_12 width_1" style="stroke-width: 1"/>
  <line x1="192" x2="192" y1="374" y2="39.5" class="net_12 width_1" style="stroke-width: 1"/>
  <line x1="192" x2="299" y1="39.5" y2="39.5" class="net_12 width_1" style="stroke-width: 1"/>
  <line x1="390.8" x2="442" y1="189.5" y2="189.5" class="net_7 width_1" style="stroke-width: 1"/>
  <line x1="400" x2="430" y1="117" y2="117" class="net_19 width_1" style="stroke-width: 1"/>
  <line x1="430" x2="430" y1="117" y2="204.5" class="net_19 width_1" style="stroke-width: 1"/>
  <line x1="430" x2="442" y1="204.5" y2="204.5" class="net_19 width_1" style="stroke-width: 1"/>
  <line x1="255" x2="274" y1="286.5" y2="286.5" class="net_20 width_1" style="stroke-width: 1"/>
  <line x1="274" x2="274" y1="286.5" y2="291.5" class="net_20 width_1" style="stroke-width: 1"/>
  <line x1="274" x2="299.6666666666667" y1="291.5" y2="291.5" class="net_20 width_1" style="stroke-width: 1"/>
  <line x1="329.6666666666667" x2="370" y1="299" y2="299" class="net_21 width_1" style="stroke-width: 1"/>
  <line x1="390.8" x2="430" y1="209.5" y2="209.5" class="net_8 width_1" style="stroke-width: 1"/>
  <line x1="430" x2="430" y1="209.5" y2="291.5" class="net_8 width_1" style="stroke-width: 1"/>
  <line x1="430" x2="442" y1="291.5" y2="291.5" class="net_8 width_1" style="stroke-width: 1"/>
  <line x1="400" x2="442" y1="306.5" y2="306.5" class="net_22 width_1" style="stroke-width: 1"/>
  <line x1="329.6666666666667" x2="350" y1="148" y2="148" class="net_23 width_1" style="stroke-width: 1"/>
  <line x1="350" x2="350" y1="148" y2="359" class="net_23 width_1" style="stroke-width: 1"/>
  <circle cx="350" cy="148" r="2" style="fill:#000" class="net_23 width_1"/>
  <line x1="350" x2="370" y1="359" y2="359" class="net_23 width_1" style="stroke-width: 1"/>
  <line x1="329.6666666666667" x2="350" y1="148" y2="148" class="net_23 width_1" style="stroke-width: 1"/>
  <line x1="350" x2="350" y1="148" y2="24.5" class="net_23 width_1" style="stroke-width: 1"/>
  <line x1="350" x2="370" y1="24.5" y2="24.5" class="net_23 width_1" style="stroke-width: 1"/>
  <line x1="390.8" x2="410" y1="229.5" y2="229.5" class="net_9 width_1" style="stroke-width: 1"/>
  <line x1="410" x2="410" y1="229.5" y2="351.5" class="net_9 width_1" style="stroke-width: 1"/>
  <line x1="410" x2="442" y1="351.5" y2="351.5" class="net_9 width_1" style="stroke-width: 1"/>
  <line x1="400" x2="442" y1="366.5" y2="366.5" class="net_24 width_1" style="stroke-width: 1"/>
  <line x1="327" x2="370" y1="39.5" y2="39.5" class="net_25 width_1" style="stroke-width: 1"/>
  <line x1="390.8" x2="420" y1="249.5" y2="249.5" class="net_5 width_1" style="stroke-width: 1"/>
  <line x1="420" x2="420" y1="249.5" y2="17" class="net_5 width_1" style="stroke-width: 1"/>
  <line x1="420" x2="442" y1="17" y2="17" class="net_5 width_1" style="stroke-width: 1"/>
  <line x1="400" x2="442" y1="32" y2="32" class="net_26 width_1" style="stroke-width: 1"/>
  <line x1="521" x2="595" y1="187" y2="187" class="net_13,14,15,16 width_4" style="stroke-width: 2"/>
  <line x1="473" x2="483" y1="24.5" y2="24.5" class="net_13 width_1" style="stroke-width: 1"/>
  <line x1="483" x2="483" y1="24.5" y2="177" class="net_13 width_1" style="stroke-width: 1"/>
  <line x1="483" x2="515" y1="177" y2="177" class="net_13 width_1" style="stroke-width: 1"/>
  <line x1="473" x2="515" y1="197" y2="197" class="net_14 width_1" style="stroke-width: 1"/>
  <line x1="473" x2="483" y1="299" y2="299" class="net_15 width_1" style="stroke-width: 1"/>
  <line x1="483" x2="483" y1="299" y2="217" class="net_15 width_1" style="stroke-width: 1"/>
  <line x1="483" x2="515" y1="217" y2="217" class="net_15 width_1" style="stroke-width: 1"/>
  <line x1="473" x2="515.5" y1="359" y2="359" class="net_16 width_1" style="stroke-width: 1"/>
  <line x1="515.5" x2="515.5" y1="359" y2="237.5" class="net_16 width_1" style="stroke-width: 1"/>
  <line x1="42" x2="170" y1="344" y2="344" class="net_10,11,12 width_3" style="stroke-width: 2"/>
  <line x1="252" x2="385.8" y1="199.5" y2="199.5" class="net_2,3,4,5,6,7,8,9 width_8" style="stroke-width: 2"/>
  <rect x="557" y="182" width="16" height="9" class="net_13,14,15,16 width_4 busLabel_4" style="fill: white; stroke: none"/>
  <text x="556" y="190" class="net_13,14,15,16 width_4 busLabel_4">/4/</text>
  <rect x="132" y="339" width="16" height="9" class="net_10,11,12 width_3 busLabel_3" style="fill: white; stroke: none"/>
  <text x="131" y="347" class="net_10,11,12 width_3 busLabel_3">/3/</text>
  <rect x="313.5" y="194.5" width="16" height="9" class="net_2,3,4,5,6,7,8,9 width_8 busLabel_8" style="fill: white; stroke: none"/>
  <text x="312.5" y="202.5" class="net_2,3,4,5,6,7,8,9 width_8 busLabel_8">/8/</text>
</svg>
