<svg xmlns="http://www.w3.org/2000/svg" xmlns:xlink="http://www.w3.org/1999/xlink" xmlns:s="https://github.com/nturley/netlistsvg" width="896" height="345">
  <style>svg {
    stroke:#000;
    fill:none;
  }
  text {
    fill:#000;
    stroke:none;
    font-size:10px;
    font-weight: bold;
    font-family: "Courier New", monospace;
  }
  line {
      stroke-linecap: round;
  }
  .nodelabel {
    text-anchor: middle;
  }
  .inputPortLabel {
    text-anchor: end;
  }
  .splitjoinBody {
    fill:#000;
  }</style>
  <g s:type="reduce_xor" transform="translate(258,146)" s:width="33" s:height="25" id="cell_\10">
    <s:alias val="$xor"/>
    <s:alias val="$reduce_xor"/>
    <s:alias val="$_XOR_"/>
    <path d="M3,0 A30 25 0 0 1 3,25 A30 25 0 0 0 33,12.5 A30 25 0 0 0 3,0" class="cell_\10"/>
    <path d="M0,0 A30 25 0 0 1 0,25" class="cell_\10"/>
    <g s:x="2" s:y="5" s:pid="A"/>
    <g s:x="2" s:y="20" s:pid="B"/>
    <g s:x="33" s:y="12.5" s:pid="Y"/>
  </g>
  <g s:type="reduce_xor" transform="translate(258,206)" s:width="33" s:height="25" id="cell_\13">
    <s:alias val="$xor"/>
    <s:alias val="$reduce_xor"/>
    <s:alias val="$_XOR_"/>
    <path d="M3,0 A30 25 0 0 1 3,25 A30 25 0 0 0 33,12.5 A30 25 0 0 0 3,0" class="cell_\13"/>
    <path d="M0,0 A30 25 0 0 1 0,25" class="cell_\13"/>
    <g s:x="2" s:y="5" s:pid="A"/>
    <g s:x="2" s:y="20" s:pid="B"/>
    <g s:x="33" s:y="12.5" s:pid="Y"/>
  </g>
  <g s:type="reduce_xor" transform="translate(331,213.5)" s:width="33" s:height="25" id="cell_\15">
    <s:alias val="$xor"/>
    <s:alias val="$reduce_xor"/>
    <s:alias val="$_XOR_"/>
    <path d="M3,0 A30 25 0 0 1 3,25 A30 25 0 0 0 33,12.5 A30 25 0 0 0 3,0" class="cell_\15"/>
    <path d="M0,0 A30 25 0 0 1 0,25" class="cell_\15"/>
    <g s:x="2" s:y="5" s:pid="A"/>
    <g s:x="2" s:y="20" s:pid="B"/>
    <g s:x="33" s:y="12.5" s:pid="Y"/>
  </g>
  <g s:type="reduce_xor" transform="translate(331,65.5)" s:width="33" s:height="25" id="cell_\18">
    <s:alias val="$xor"/>
    <s:alias val="$reduce_xor"/>
    <s:alias val="$_XOR_"/>
    <path d="M3,0 A30 25 0 0 1 3,25 A30 25 0 0 0 33,12.5 A30 25 0 0 0 3,0" class="cell_\18"/>
    <path d="M0,0 A30 25 0 0 1 0,25" class="cell_\18"/>
    <g s:x="2" s:y="5" s:pid="A"/>
    <g s:x="2" s:y="20" s:pid="B"/>
    <g s:x="33" s:y="12.5" s:pid="Y"/>
  </g>
  <g s:type="reduce_xor" transform="translate(399,73)" s:width="33" s:height="25" id="cell_\20">
    <s:alias val="$xor"/>
    <s:alias val="$reduce_xor"/>
    <s:alias val="$_XOR_"/>
    <path d="M3,0 A30 25 0 0 1 3,25 A30 25 0 0 0 33,12.5 A30 25 0 0 0 3,0" class="cell_\20"/>
    <path d="M0,0 A30 25 0 0 1 0,25" class="cell_\20"/>
    <g s:x="2" s:y="5" s:pid="A"/>
    <g s:x="2" s:y="20" s:pid="B"/>
    <g s:x="33" s:y="12.5" s:pid="Y"/>
  </g>
  <g s:type="reduce_xor" transform="translate(467,12)" s:width="33" s:height="25" id="cell_\22">
    <s:alias val="$xor"/>
    <s:alias val="$reduce_xor"/>
    <s:alias val="$_XOR_"/>
    <path d="M3,0 A30 25 0 0 1 3,25 A30 25 0 0 0 33,12.5 A30 25 0 0 0 3,0" class="cell_\22"/>
    <path d="M0,0 A30 25 0 0 1 0,25" class="cell_\22"/>
    <g s:x="2" s:y="5" s:pid="A"/>
    <g s:x="2" s:y="20" s:pid="B"/>
    <g s:x="33" s:y="12.5" s:pid="Y"/>
  </g>
  <g s:type="reduce_xor" transform="translate(535,19.5)" s:width="33" s:height="25" id="cell_\24">
    <s:alias val="$xor"/>
    <s:alias val="$reduce_xor"/>
    <s:alias val="$_XOR_"/>
    <path d="M3,0 A30 25 0 0 1 3,25 A30 25 0 0 0 33,12.5 A30 25 0 0 0 3,0" class="cell_\24"/>
    <path d="M0,0 A30 25 0 0 1 0,25" class="cell_\24"/>
    <g s:x="2" s:y="5" s:pid="A"/>
    <g s:x="2" s:y="20" s:pid="B"/>
    <g s:x="33" s:y="12.5" s:pid="Y"/>
  </g>
  <g s:type="reduce_xor" transform="translate(603,27)" s:width="33" s:height="25" id="cell_\26">
    <s:alias val="$xor"/>
    <s:alias val="$reduce_xor"/>
    <s:alias val="$_XOR_"/>
    <path d="M3,0 A30 25 0 0 1 3,25 A30 25 0 0 0 33,12.5 A30 25 0 0 0 3,0" class="cell_\26"/>
    <path d="M0,0 A30 25 0 0 1 0,25" class="cell_\26"/>
    <g s:x="2" s:y="5" s:pid="A"/>
    <g s:x="2" s:y="20" s:pid="B"/>
    <g s:x="33" s:y="12.5" s:pid="Y"/>
  </g>
  <g s:type="reduce_xor" transform="translate(671,34.5)" s:width="33" s:height="25" id="cell_\28">
    <s:alias val="$xor"/>
    <s:alias val="$reduce_xor"/>
    <s:alias val="$_XOR_"/>
    <path d="M3,0 A30 25 0 0 1 3,25 A30 25 0 0 0 33,12.5 A30 25 0 0 0 3,0" class="cell_\28"/>
    <path d="M0,0 A30 25 0 0 1 0,25" class="cell_\28"/>
    <g s:x="2" s:y="5" s:pid="A"/>
    <g s:x="2" s:y="20" s:pid="B"/>
    <g s:x="33" s:y="12.5" s:pid="Y"/>
  </g>
  <g s:type="reduce_xor" transform="translate(190,89)" s:width="33" s:height="25" id="cell_\3">
    <s:alias val="$xor"/>
    <s:alias val="$reduce_xor"/>
    <s:alias val="$_XOR_"/>
    <path d="M3,0 A30 25 0 0 1 3,25 A30 25 0 0 0 33,12.5 A30 25 0 0 0 3,0" class="cell_\3"/>
    <path d="M0,0 A30 25 0 0 1 0,25" class="cell_\3"/>
    <g s:x="2" s:y="5" s:pid="A"/>
    <g s:x="2" s:y="20" s:pid="B"/>
    <g s:x="33" s:y="12.5" s:pid="Y"/>
  </g>
  <g s:type="reduce_xor" transform="translate(258,58)" s:width="33" s:height="25" id="cell_\5">
    <s:alias val="$xor"/>
    <s:alias val="$reduce_xor"/>
    <s:alias val="$_XOR_"/>
    <path d="M3,0 A30 25 0 0 1 3,25 A30 25 0 0 0 33,12.5 A30 25 0 0 0 3,0" class="cell_\5"/>
    <path d="M0,0 A30 25 0 0 1 0,25" class="cell_\5"/>
    <g s:x="2" s:y="5" s:pid="A"/>
    <g s:x="2" s:y="20" s:pid="B"/>
    <g s:x="33" s:y="12.5" s:pid="Y"/>
  </g>
  <g s:type="reduce_xor" transform="translate(190,222)" s:width="33" s:height="25" id="cell_\8">
    <s:alias val="$xor"/>
    <s:alias val="$reduce_xor"/>
    <s:alias val="$_XOR_"/>
    <path d="M3,0 A30 25 0 0 1 3,25 A30 25 0 0 0 33,12.5 A30 25 0 0 0 3,0" class="cell_\8"/>
    <path d="M0,0 A30 25 0 0 1 0,25" class="cell_\8"/>
    <g s:x="2" s:y="5" s:pid="A"/>
    <g s:x="2" s:y="20" s:pid="B"/>
    <g s:x="33" s:y="12.5" s:pid="Y"/>
  </g>
  <g s:type="inputExt" transform="translate(12,135)" s:width="30" s:height="20" id="cell_data_in">
    <text x="15" y="-4" class="nodelabel cell_data_in" s:attribute="ref">data_in</text>
    <s:alias val="$_inputExt_"/>
    <path d="M0,0 L0,20 L15,20 L30,10 L15,0 Z" class="cell_data_in"/>
    <g s:x="30" s:y="10" s:pid="Y"/>
  </g>
  <g s:type="outputExt" transform="translate(836,126)" s:width="30" s:height="20" id="cell_data_out">
    <text x="15" y="-4" class="nodelabel cell_data_out" s:attribute="ref">data_out</text>
    <s:alias val="$_outputExt_"/>
    <path d="M30,0 L30,20 L15,20 L0,10 L15,0 Z" class="cell_data_out"/>
    <g s:x="0" s:y="10" s:pid="A"/>
  </g>
  <g s:type="join" transform="translate(754,115.5)" s:width="4" s:height="40" id="cell_$join$,6,7,2,8,3,9,4,5,">
    <rect width="5" height="140" class="splitjoinBody" s:generic="body"/>
    <s:alias val="$_join_"/>
    <g s:x="5" s:y="20" s:pid="out"/>
    <g transform="translate(0,10)" s:x="0" s:y="10" s:pid="in0">
      <text x="-3" y="-4" class="inputPortLabel">0</text>
    </g>
    <g transform="translate(0,30)" s:x="0" s:y="10" s:pid="in0">
      <text x="-3" y="-4" class="inputPortLabel">1</text>
    </g>
    <g transform="translate(0,50)" s:x="0" s:y="10" s:pid="in0">
      <text x="-3" y="-4" class="inputPortLabel">2</text>
    </g>
    <g transform="translate(0,70)" s:x="0" s:y="10" s:pid="in0">
      <text x="-3" y="-4" class="inputPortLabel">3</text>
    </g>
    <g transform="translate(0,90)" s:x="0" s:y="10" s:pid="in0">
      <text x="-3" y="-4" class="inputPortLabel">4</text>
    </g>
    <g transform="translate(0,110)" s:x="0" s:y="10" s:pid="in0">
      <text x="-3" y="-4" class="inputPortLabel">5</text>
    </g>
    <g transform="translate(0,130)" s:x="0" s:y="10" s:pid="in0">
      <text x="-3" y="-4" class="inputPortLabel">6:7</text>
    </g>
  </g>
  <g s:type="split" transform="translate(128,124.5)" s:width="5" s:height="40" id="cell_$split$,2,3,4,5,">
    <rect width="5" height="100" class="splitjoinBody" s:generic="body"/>
    <s:alias val="$_split_"/>
    <g s:x="0" s:y="20" s:pid="in"/>
    <g transform="translate(4,10)" s:x="4" s:y="10" s:pid="out0">
      <text x="5" y="-4">3</text>
    </g>
    <g transform="translate(4,30)" s:x="4" s:y="10" s:pid="out0">
      <text x="5" y="-4">1</text>
    </g>
    <g transform="translate(4,50)" s:x="4" s:y="10" s:pid="out0">
      <text x="5" y="-4">2</text>
    </g>
    <g transform="translate(4,70)" s:x="4" s:y="10" s:pid="out0">
      <text x="5" y="-4">0</text>
    </g>
    <g transform="translate(4,90)" s:x="4" s:y="10" s:pid="out0">
      <text x="5" y="-4">2:3</text>
    </g>
  </g>
  <line x1="223" x2="233" y1="234.5" y2="234.5" class="net_10 width_1" style="stroke-width: 1"/>
  <line x1="233" x2="233" y1="234.5" y2="151" class="net_10 width_1" style="stroke-width: 1"/>
  <line x1="233" x2="260" y1="151" y2="151" class="net_10 width_1" style="stroke-width: 1"/>
  <line x1="133" x2="243" y1="135" y2="135" class="net_5 width_1" style="stroke-width: 1"/>
  <line x1="243" x2="243" y1="135" y2="166" class="net_5 width_1" style="stroke-width: 1"/>
  <circle cx="243" cy="135" r="2" style="fill:#000" class="net_5 width_1"/>
  <line x1="243" x2="260" y1="166" y2="166" class="net_5 width_1" style="stroke-width: 1"/>
  <line x1="133" x2="170" y1="135" y2="135" class="net_5 width_1" style="stroke-width: 1"/>
  <line x1="170" x2="170" y1="135" y2="268" class="net_5 width_1" style="stroke-width: 1"/>
  <line x1="170" x2="301" y1="268" y2="268" class="net_5 width_1" style="stroke-width: 1"/>
  <line x1="301" x2="301" y1="268" y2="233.5" class="net_5 width_1" style="stroke-width: 1"/>
  <circle cx="170" cy="135" r="2" style="fill:#000" class="net_5 width_1"/>
  <line x1="301" x2="333" y1="233.5" y2="233.5" class="net_5 width_1" style="stroke-width: 1"/>
  <line x1="133" x2="646" y1="135" y2="135" class="net_5 width_1" style="stroke-width: 1"/>
  <line x1="646" x2="646" y1="135" y2="54.5" class="net_5 width_1" style="stroke-width: 1"/>
  <line x1="646" x2="673" y1="54.5" y2="54.5" class="net_5 width_1" style="stroke-width: 1"/>
  <line x1="133" x2="170" y1="135" y2="135" class="net_5 width_1" style="stroke-width: 1"/>
  <line x1="170" x2="170" y1="135" y2="78" class="net_5 width_1" style="stroke-width: 1"/>
  <line x1="170" x2="260" y1="78" y2="78" class="net_5 width_1" style="stroke-width: 1"/>
  <line x1="133" x2="150" y1="155" y2="155" class="net_3 width_1" style="stroke-width: 1"/>
  <line x1="150" x2="150" y1="155" y2="211" class="net_3 width_1" style="stroke-width: 1"/>
  <circle cx="150" cy="155" r="2" style="fill:#000" class="net_3 width_1"/>
  <circle cx="150" cy="211" r="2" style="fill:#000" class="net_3 width_1"/>
  <line x1="150" x2="260" y1="211" y2="211" class="net_3 width_1" style="stroke-width: 1"/>
  <line x1="133" x2="150" y1="155" y2="155" class="net_3 width_1" style="stroke-width: 1"/>
  <line x1="150" x2="150" y1="155" y2="47" class="net_3 width_1" style="stroke-width: 1"/>
  <line x1="150" x2="510" y1="47" y2="47" class="net_3 width_1" style="stroke-width: 1"/>
  <line x1="510" x2="510" y1="47" y2="39.5" class="net_3 width_1" style="stroke-width: 1"/>
  <line x1="510" x2="537" y1="39.5" y2="39.5" class="net_3 width_1" style="stroke-width: 1"/>
  <line x1="133" x2="150" y1="155" y2="155" class="net_3 width_1" style="stroke-width: 1"/>
  <line x1="150" x2="150" y1="155" y2="109" class="net_3 width_1" style="stroke-width: 1"/>
  <circle cx="150" cy="109" r="2" style="fill:#000" class="net_3 width_1"/>
  <line x1="150" x2="192" y1="109" y2="109" class="net_3 width_1" style="stroke-width: 1"/>
  <line x1="133" x2="150" y1="155" y2="155" class="net_3 width_1" style="stroke-width: 1"/>
  <line x1="150" x2="150" y1="155" y2="301" class="net_3 width_1" style="stroke-width: 1"/>
  <line x1="150" x2="734" y1="301" y2="301" class="net_3 width_1" style="stroke-width: 1"/>
  <line x1="734" x2="734" y1="301" y2="206" class="net_3 width_1" style="stroke-width: 1"/>
  <line x1="734" x2="754" y1="206" y2="206" class="net_3 width_1" style="stroke-width: 1"/>
  <line x1="133" x2="180" y1="175" y2="175" class="net_4 width_1" style="stroke-width: 1"/>
  <line x1="180" x2="180" y1="175" y2="257" class="net_4 width_1" style="stroke-width: 1"/>
  <line x1="180" x2="243" y1="257" y2="257" class="net_4 width_1" style="stroke-width: 1"/>
  <line x1="243" x2="243" y1="257" y2="226" class="net_4 width_1" style="stroke-width: 1"/>
  <circle cx="180" cy="175" r="2" style="fill:#000" class="net_4 width_1"/>
  <line x1="243" x2="260" y1="226" y2="226" class="net_4 width_1" style="stroke-width: 1"/>
  <line x1="133" x2="180" y1="175" y2="175" class="net_4 width_1" style="stroke-width: 1"/>
  <line x1="180" x2="180" y1="175" y2="124" class="net_4 width_1" style="stroke-width: 1"/>
  <line x1="180" x2="578" y1="124" y2="124" class="net_4 width_1" style="stroke-width: 1"/>
  <line x1="578" x2="578" y1="124" y2="47" class="net_4 width_1" style="stroke-width: 1"/>
  <line x1="578" x2="605" y1="47" y2="47" class="net_4 width_1" style="stroke-width: 1"/>
  <line x1="133" x2="180" y1="175" y2="175" class="net_4 width_1" style="stroke-width: 1"/>
  <line x1="180" x2="180" y1="175" y2="242" class="net_4 width_1" style="stroke-width: 1"/>
  <circle cx="180" cy="242" r="2" style="fill:#000" class="net_4 width_1"/>
  <line x1="180" x2="192" y1="242" y2="242" class="net_4 width_1" style="stroke-width: 1"/>
  <line x1="291" x2="333" y1="218.5" y2="218.5" class="net_11 width_1" style="stroke-width: 1"/>
  <line x1="291" x2="333" y1="70.5" y2="70.5" class="net_7 width_1" style="stroke-width: 1"/>
  <line x1="291" x2="321" y1="70.5" y2="70.5" class="net_7 width_1" style="stroke-width: 1"/>
  <line x1="321" x2="321" y1="70.5" y2="146" class="net_7 width_1" style="stroke-width: 1"/>
  <circle cx="321" cy="70.5" r="2" style="fill:#000" class="net_7 width_1"/>
  <line x1="321" x2="754" y1="146" y2="146" class="net_7 width_1" style="stroke-width: 1"/>
  <line x1="291" x2="311" y1="158.5" y2="158.5" class="net_8 width_1" style="stroke-width: 1"/>
  <line x1="311" x2="311" y1="158.5" y2="85.5" class="net_8 width_1" style="stroke-width: 1"/>
  <circle cx="311" cy="158.5" r="2" style="fill:#000" class="net_8 width_1"/>
  <line x1="311" x2="333" y1="85.5" y2="85.5" class="net_8 width_1" style="stroke-width: 1"/>
  <line x1="291" x2="311" y1="158.5" y2="158.5" class="net_8 width_1" style="stroke-width: 1"/>
  <line x1="311" x2="311" y1="158.5" y2="290" class="net_8 width_1" style="stroke-width: 1"/>
  <line x1="311" x2="724" y1="290" y2="290" class="net_8 width_1" style="stroke-width: 1"/>
  <line x1="724" x2="724" y1="290" y2="186" class="net_8 width_1" style="stroke-width: 1"/>
  <line x1="724" x2="754" y1="186" y2="186" class="net_8 width_1" style="stroke-width: 1"/>
  <line x1="364" x2="401" y1="78" y2="78" class="net_12 width_1" style="stroke-width: 1"/>
  <line x1="364" x2="374" y1="226" y2="226" class="net_9 width_1" style="stroke-width: 1"/>
  <line x1="374" x2="374" y1="226" y2="93" class="net_9 width_1" style="stroke-width: 1"/>
  <circle cx="374" cy="226" r="2" style="fill:#000" class="net_9 width_1"/>
  <line x1="374" x2="401" y1="93" y2="93" class="net_9 width_1" style="stroke-width: 1"/>
  <line x1="364" x2="374" y1="226" y2="226" class="net_9 width_1" style="stroke-width: 1"/>
  <line x1="374" x2="374" y1="226" y2="312" class="net_9 width_1" style="stroke-width: 1"/>
  <line x1="374" x2="744" y1="312" y2="312" class="net_9 width_1" style="stroke-width: 1"/>
  <line x1="744" x2="744" y1="312" y2="226" class="net_9 width_1" style="stroke-width: 1"/>
  <line x1="744" x2="754" y1="226" y2="226" class="net_9 width_1" style="stroke-width: 1"/>
  <line x1="432" x2="442" y1="85.5" y2="85.5" class="net_13 width_1" style="stroke-width: 1"/>
  <line x1="442" x2="442" y1="85.5" y2="17" class="net_13 width_1" style="stroke-width: 1"/>
  <line x1="442" x2="469" y1="17" y2="17" class="net_13 width_1" style="stroke-width: 1"/>
  <line x1="133" x2="160" y1="195" y2="195" class="net_2 width_1" style="stroke-width: 1"/>
  <line x1="160" x2="160" y1="195" y2="32" class="net_2 width_1" style="stroke-width: 1"/>
  <circle cx="160" cy="195" r="2" style="fill:#000" class="net_2 width_1"/>
  <line x1="160" x2="469" y1="32" y2="32" class="net_2 width_1" style="stroke-width: 1"/>
  <line x1="133" x2="160" y1="195" y2="195" class="net_2 width_1" style="stroke-width: 1"/>
  <line x1="160" x2="160" y1="195" y2="94" class="net_2 width_1" style="stroke-width: 1"/>
  <circle cx="160" cy="94" r="2" style="fill:#000" class="net_2 width_1"/>
  <line x1="160" x2="192" y1="94" y2="94" class="net_2 width_1" style="stroke-width: 1"/>
  <line x1="133" x2="160" y1="195" y2="195" class="net_2 width_1" style="stroke-width: 1"/>
  <line x1="160" x2="160" y1="195" y2="227" class="net_2 width_1" style="stroke-width: 1"/>
  <circle cx="160" cy="227" r="2" style="fill:#000" class="net_2 width_1"/>
  <line x1="160" x2="192" y1="227" y2="227" class="net_2 width_1" style="stroke-width: 1"/>
  <line x1="133" x2="160" y1="195" y2="195" class="net_2 width_1" style="stroke-width: 1"/>
  <line x1="160" x2="160" y1="195" y2="279" class="net_2 width_1" style="stroke-width: 1"/>
  <line x1="160" x2="714" y1="279" y2="279" class="net_2 width_1" style="stroke-width: 1"/>
  <line x1="714" x2="714" y1="279" y2="166" class="net_2 width_1" style="stroke-width: 1"/>
  <line x1="714" x2="754" y1="166" y2="166" class="net_2 width_1" style="stroke-width: 1"/>
  <line x1="500" x2="537" y1="24.5" y2="24.5" class="net_14 width_1" style="stroke-width: 1"/>
  <line x1="568" x2="605" y1="32" y2="32" class="net_15 width_1" style="stroke-width: 1"/>
  <line x1="636" x2="673" y1="39.5" y2="39.5" class="net_16 width_1" style="stroke-width: 1"/>
  <line x1="223" x2="233" y1="101.5" y2="101.5" class="net_17 width_1" style="stroke-width: 1"/>
  <line x1="233" x2="233" y1="101.5" y2="63" class="net_17 width_1" style="stroke-width: 1"/>
  <line x1="233" x2="260" y1="63" y2="63" class="net_17 width_1" style="stroke-width: 1"/>
  <line x1="760" x2="836" y1="136" y2="136" class="net_6,7,2,8,3,9,4,5 width_8" style="stroke-width: 2"/>
  <line x1="704" x2="754.5" y1="47" y2="47" class="net_6 width_1" style="stroke-width: 1"/>
  <line x1="754.5" x2="754.5" y1="47" y2="125.5" class="net_6 width_1" style="stroke-width: 1"/>
  <line x1="132.5" x2="132.5" y1="215.5" y2="327" class="net_4,5 width_2" style="stroke-width: 2"/>
  <line x1="132.5" x2="754.5" y1="327" y2="327" class="net_4,5 width_2" style="stroke-width: 2"/>
  <line x1="754.5" x2="754.5" y1="327" y2="246.5" class="net_4,5 width_2" style="stroke-width: 2"/>
  <line x1="42" x2="128" y1="145" y2="145" class="net_2,3,4,5 width_4" style="stroke-width: 2"/>
  <rect x="798" y="131" width="16" height="9" class="net_6,7,2,8,3,9,4,5 width_8 busLabel_8" style="fill: white; stroke: none"/>
  <text x="797" y="139" class="net_6,7,2,8,3,9,4,5 width_8 busLabel_8">/8/</text>
  <rect x="414.5" y="322" width="16" height="9" class="net_4,5 width_2 busLabel_2" style="fill: white; stroke: none"/>
  <text x="413.5" y="330" class="net_4,5 width_2 busLabel_2">/2/</text>
  <rect x="90" y="140" width="16" height="9" class="net_2,3,4,5 width_4 busLabel_4" style="fill: white; stroke: none"/>
  <text x="89" y="148" class="net_2,3,4,5 width_4 busLabel_4">/4/</text>
</svg>
