<svg xmlns="http://www.w3.org/2000/svg" xmlns:xlink="http://www.w3.org/1999/xlink" xmlns:s="https://github.com/nturley/netlistsvg" width="581" height="378.5">
  <style>svg {
    stroke:#000;
    fill:none;
  }
  text {
    fill:#000;
    stroke:none;
    font-size:10px;
    font-weight: bold;
    font-family: "Courier New", monospace;
  }
  .nodelabel {
    text-anchor: middle;
  }
  .inputPortLabel {
    text-anchor: end;
  }
  .splitjoinBody {
    fill:#000;
  }</style>
  <g s:type="not" transform="translate(183,152)" s:width="30" s:height="20" id="cell_\12">
    <s:alias val="$_NOT_"/>
    <s:alias val="$not"/>
    <path d="M0,0 L0,20 L20,10 Z" class="cell_\12"/>
    <circle cx="23" cy="10" r="3" class="cell_\12"/>
    <g s:x="0" s:y="10" s:pid="A"/>
    <g s:x="25" s:y="10" s:pid="Y"/>
  </g>
  <g s:type="and" transform="translate(252,142)" s:width="30" s:height="25" id="cell_\13">
    <s:alias val="$and"/>
    <s:alias val="$logic_and"/>
    <s:alias val="$_AND_"/>
    <path d="M0,0 L0,25 L15,25 A15 12.5 0 0 0 15,0 Z" class="cell_\13"/>
    <g s:x="0" s:y="5" s:pid="A"/>
    <g s:x="0" s:y="20" s:pid="B"/>
    <g s:x="30" s:y="12.5" s:pid="Y"/>
  </g>
  <g s:type="and" transform="translate(325,217)" s:width="30" s:height="25" id="cell_\15">
    <s:alias val="$and"/>
    <s:alias val="$logic_and"/>
    <s:alias val="$_AND_"/>
    <path d="M0,0 L0,25 L15,25 A15 12.5 0 0 0 15,0 Z" class="cell_\15"/>
    <g s:x="0" s:y="5" s:pid="A"/>
    <g s:x="0" s:y="20" s:pid="B"/>
    <g s:x="30" s:y="12.5" s:pid="Y"/>
  </g>
  <g s:type="reduce_xor" transform="translate(405,209.5)" s:width="33" s:height="25" id="cell_\16">
    <s:alias val="$xor"/>
    <s:alias val="$reduce_xor"/>
    <s:alias val="$_XOR_"/>
    <path d="M3,0 A30 25 0 0 1 3,25 A30 25 0 0 0 33,12.5 A30 25 0 0 0 3,0" class="cell_\16"/>
    <path d="M0,0 A30 25 0 0 1 0,25" class="cell_\16"/>
    <g s:x="3" s:y="5" s:pid="A"/>
    <g s:x="3" s:y="20" s:pid="B"/>
    <g s:x="33" s:y="12.5" s:pid="Y"/>
  </g>
  <g s:type="not" transform="translate(183,259.5)" s:width="30" s:height="20" id="cell_\19">
    <s:alias val="$_NOT_"/>
    <s:alias val="$not"/>
    <path d="M0,0 L0,20 L20,10 Z" class="cell_\19"/>
    <circle cx="23" cy="10" r="3" class="cell_\19"/>
    <g s:x="0" s:y="10" s:pid="A"/>
    <g s:x="25" s:y="10" s:pid="Y"/>
  </g>
  <g s:type="and" transform="translate(252,269.5)" s:width="30" s:height="25" id="cell_\21">
    <s:alias val="$and"/>
    <s:alias val="$logic_and"/>
    <s:alias val="$_AND_"/>
    <path d="M0,0 L0,25 L15,25 A15 12.5 0 0 0 15,0 Z" class="cell_\21"/>
    <g s:x="0" s:y="5" s:pid="A"/>
    <g s:x="0" s:y="20" s:pid="B"/>
    <g s:x="30" s:y="12.5" s:pid="Y"/>
  </g>
  <g s:type="and" transform="translate(325,277)" s:width="30" s:height="25" id="cell_\23">
    <s:alias val="$and"/>
    <s:alias val="$logic_and"/>
    <s:alias val="$_AND_"/>
    <path d="M0,0 L0,25 L15,25 A15 12.5 0 0 0 15,0 Z" class="cell_\23"/>
    <g s:x="0" s:y="5" s:pid="A"/>
    <g s:x="0" s:y="20" s:pid="B"/>
    <g s:x="30" s:y="12.5" s:pid="Y"/>
  </g>
  <g s:type="reduce_xor" transform="translate(405,269.5)" s:width="33" s:height="25" id="cell_\24">
    <s:alias val="$xor"/>
    <s:alias val="$reduce_xor"/>
    <s:alias val="$_XOR_"/>
    <path d="M3,0 A30 25 0 0 1 3,25 A30 25 0 0 0 33,12.5 A30 25 0 0 0 3,0" class="cell_\24"/>
    <path d="M0,0 A30 25 0 0 1 0,25" class="cell_\24"/>
    <g s:x="3" s:y="5" s:pid="A"/>
    <g s:x="3" s:y="20" s:pid="B"/>
    <g s:x="33" s:y="12.5" s:pid="Y"/>
  </g>
  <g s:type="and" transform="translate(252,202)" s:width="30" s:height="25" id="cell_\28">
    <s:alias val="$and"/>
    <s:alias val="$logic_and"/>
    <s:alias val="$_AND_"/>
    <path d="M0,0 L0,25 L15,25 A15 12.5 0 0 0 15,0 Z" class="cell_\28"/>
    <g s:x="0" s:y="5" s:pid="A"/>
    <g s:x="0" s:y="20" s:pid="B"/>
    <g s:x="30" s:y="12.5" s:pid="Y"/>
  </g>
  <g s:type="and" transform="translate(325,337)" s:width="30" s:height="25" id="cell_\30">
    <s:alias val="$and"/>
    <s:alias val="$logic_and"/>
    <s:alias val="$_AND_"/>
    <path d="M0,0 L0,25 L15,25 A15 12.5 0 0 0 15,0 Z" class="cell_\30"/>
    <g s:x="0" s:y="5" s:pid="A"/>
    <g s:x="0" s:y="20" s:pid="B"/>
    <g s:x="30" s:y="12.5" s:pid="Y"/>
  </g>
  <g s:type="reduce_xor" transform="translate(405,329.5)" s:width="33" s:height="25" id="cell_\31">
    <s:alias val="$xor"/>
    <s:alias val="$reduce_xor"/>
    <s:alias val="$_XOR_"/>
    <path d="M3,0 A30 25 0 0 1 3,25 A30 25 0 0 0 33,12.5 A30 25 0 0 0 3,0" class="cell_\31"/>
    <path d="M0,0 A30 25 0 0 1 0,25" class="cell_\31"/>
    <g s:x="3" s:y="5" s:pid="A"/>
    <g s:x="3" s:y="20" s:pid="B"/>
    <g s:x="33" s:y="12.5" s:pid="Y"/>
  </g>
  <g s:type="not" transform="translate(254,22)" s:width="30" s:height="20" id="cell_\6">
    <s:alias val="$_NOT_"/>
    <s:alias val="$not"/>
    <path d="M0,0 L0,20 L20,10 Z" class="cell_\6"/>
    <circle cx="23" cy="10" r="3" class="cell_\6"/>
    <g s:x="0" s:y="10" s:pid="A"/>
    <g s:x="25" s:y="10" s:pid="Y"/>
  </g>
  <g s:type="and" transform="translate(325,12)" s:width="30" s:height="25" id="cell_\7">
    <s:alias val="$and"/>
    <s:alias val="$logic_and"/>
    <s:alias val="$_AND_"/>
    <path d="M0,0 L0,25 L15,25 A15 12.5 0 0 0 15,0 Z" class="cell_\7"/>
    <g s:x="0" s:y="5" s:pid="A"/>
    <g s:x="0" s:y="20" s:pid="B"/>
    <g s:x="30" s:y="12.5" s:pid="Y"/>
  </g>
  <g s:type="reduce_xor" transform="translate(405,142)" s:width="33" s:height="25" id="cell_\8">
    <s:alias val="$xor"/>
    <s:alias val="$reduce_xor"/>
    <s:alias val="$_XOR_"/>
    <path d="M3,0 A30 25 0 0 1 3,25 A30 25 0 0 0 33,12.5 A30 25 0 0 0 3,0" class="cell_\8"/>
    <path d="M0,0 A30 25 0 0 1 0,25" class="cell_\8"/>
    <g s:x="3" s:y="5" s:pid="A"/>
    <g s:x="3" s:y="20" s:pid="B"/>
    <g s:x="33" s:y="12.5" s:pid="Y"/>
  </g>
  <g s:type="inputExt" transform="translate(248,87)" s:width="30" s:height="20" id="cell_data_in">
    <text x="15" y="-4" class="nodelabel cell_data_in" s:attribute="ref">data_in</text>
    <s:alias val="$_inputExt_"/>
    <path d="M0,0 L0,20 L15,20 L30,10 L15,0 Z" class="cell_data_in"/>
    <g s:x="28" s:y="10" s:pid="Y"/>
  </g>
  <g s:type="inputExt" transform="translate(12,317)" s:width="30" s:height="20" id="cell_error_location">
    <text x="15" y="-4" class="nodelabel cell_error_location" s:attribute="ref">error_location</text>
    <s:alias val="$_inputExt_"/>
    <path d="M0,0 L0,20 L15,20 L30,10 L15,0 Z" class="cell_error_location"/>
    <g s:x="28" s:y="10" s:pid="Y"/>
  </g>
  <g s:type="outputExt" transform="translate(521,202)" s:width="30" s:height="20" id="cell_data_out">
    <text x="15" y="-4" class="nodelabel cell_data_out" s:attribute="ref">data_out</text>
    <s:alias val="$_outputExt_"/>
    <path d="M30,0 L30,20 L15,20 L0,10 L15,0 Z" class="cell_data_out"/>
    <g s:x="0" s:y="10" s:pid="A"/>
  </g>
  <g s:type="join" transform="translate(480,191.5)" s:width="4" s:height="40" id="cell_$join$,13,14,15,16,">
    <rect width="5" height="80" class="splitjoinBody" s:generic="body"/>
    <s:alias val="$_join_"/>
    <g s:x="5" s:y="20" s:pid="out"/>
    <g transform="translate(0,10)" s:x="0" s:y="10" s:pid="in0">
      <text x="-3" y="-4" class="inputPortLabel">0</text>
    </g>
    <g transform="translate(0,30)" s:x="0" s:y="10" s:pid="in0">
      <text x="-3" y="-4" class="inputPortLabel">1</text>
    </g>
    <g transform="translate(0,50)" s:x="0" s:y="10" s:pid="in0">
      <text x="-3" y="-4" class="inputPortLabel">2</text>
    </g>
    <g transform="translate(0,70)" s:x="0" s:y="10" s:pid="in0">
      <text x="-3" y="-4" class="inputPortLabel">3</text>
    </g>
  </g>
  <g s:type="split" transform="translate(131,306.5)" s:width="5" s:height="40" id="cell_$split$,10,11,12,">
    <rect width="5" height="60" class="splitjoinBody" s:generic="body"/>
    <s:alias val="$_split_"/>
    <g s:x="0" s:y="20" s:pid="in"/>
    <g transform="translate(4,10)" s:x="4" s:y="10" s:pid="out0">
      <text x="5" y="-4">1</text>
    </g>
    <g transform="translate(4,30)" s:x="4" s:y="10" s:pid="out0">
      <text x="5" y="-4">0</text>
    </g>
    <g transform="translate(4,50)" s:x="4" s:y="10" s:pid="out0">
      <text x="5" y="-4">2</text>
    </g>
  </g>
  <g s:type="split" transform="translate(340.8,76.5)" s:width="5" s:height="40" id="cell_$split$,2,3,4,5,6,7,8,9,">
    <rect width="5" height="80" class="splitjoinBody" s:generic="body"/>
    <s:alias val="$_split_"/>
    <g s:x="0" s:y="20" s:pid="in"/>
    <g transform="translate(4,10)" s:x="4" s:y="10" s:pid="out0">
      <text x="5" y="-4">5</text>
    </g>
    <g transform="translate(4,30)" s:x="4" s:y="10" s:pid="out0">
      <text x="5" y="-4">6</text>
    </g>
    <g transform="translate(4,50)" s:x="4" s:y="10" s:pid="out0">
      <text x="5" y="-4">7</text>
    </g>
    <g transform="translate(4,70)" s:x="4" s:y="10" s:pid="out0">
      <text x="5" y="-4">3</text>
    </g>
  </g>
  <line x1="136" x2="173" y1="317" y2="317" class="net_11"/>
  <line x1="173" x2="173" y1="317" y2="162" class="net_11"/>
  <line x1="173" x2="183" y1="162" y2="162" class="net_11"/>
  <line x1="136" x2="173" y1="317" y2="317" class="net_11"/>
  <line x1="173" x2="173" y1="317" y2="289.5" class="net_11"/>
  <circle cx="173" cy="289.5" r="2" style="fill:#000" class="net_11"/>
  <line x1="173" x2="252" y1="289.5" y2="289.5" class="net_11"/>
  <line x1="136" x2="173" y1="317" y2="317" class="net_11"/>
  <line x1="173" x2="173" y1="317" y2="222" class="net_11"/>
  <circle cx="173" cy="222" r="2" style="fill:#000" class="net_11"/>
  <line x1="173" x2="252" y1="222" y2="222" class="net_11"/>
  <line x1="136" x2="163" y1="337" y2="337" class="net_10"/>
  <line x1="163" x2="163" y1="337" y2="141" class="net_10"/>
  <line x1="163" x2="223" y1="141" y2="141" class="net_10"/>
  <line x1="223" x2="223" y1="141" y2="147" class="net_10"/>
  <line x1="223" x2="252" y1="147" y2="147" class="net_10"/>
  <line x1="136" x2="163" y1="337" y2="337" class="net_10"/>
  <line x1="163" x2="163" y1="337" y2="269.5" class="net_10"/>
  <circle cx="163" cy="269.5" r="2" style="fill:#000" class="net_10"/>
  <line x1="163" x2="183" y1="269.5" y2="269.5" class="net_10"/>
  <line x1="136" x2="163" y1="337" y2="337" class="net_10"/>
  <line x1="163" x2="163" y1="337" y2="211" class="net_10"/>
  <line x1="163" x2="223" y1="211" y2="211" class="net_10"/>
  <line x1="223" x2="223" y1="211" y2="207" class="net_10"/>
  <circle cx="163" cy="211" r="2" style="fill:#000" class="net_10"/>
  <line x1="223" x2="252" y1="207" y2="207" class="net_10"/>
  <line x1="208" x2="252" y1="162" y2="162" class="net_17"/>
  <line x1="282" x2="310" y1="154.5" y2="154.5" class="net_18"/>
  <line x1="310" x2="310" y1="154.5" y2="222" class="net_18"/>
  <line x1="310" x2="325" y1="222" y2="222" class="net_18"/>
  <line x1="136" x2="153" y1="357" y2="357" class="net_12"/>
  <line x1="153" x2="153" y1="357" y2="237" class="net_12"/>
  <circle cx="153" cy="357" r="2" style="fill:#000" class="net_12"/>
  <circle cx="153" cy="237" r="2" style="fill:#000" class="net_12"/>
  <line x1="153" x2="325" y1="237" y2="237" class="net_12"/>
  <line x1="136" x2="310" y1="357" y2="357" class="net_12"/>
  <line x1="310" x2="310" y1="357" y2="297" class="net_12"/>
  <circle cx="310" cy="357" r="2" style="fill:#000" class="net_12"/>
  <line x1="310" x2="325" y1="297" y2="297" class="net_12"/>
  <line x1="136" x2="325" y1="357" y2="357" class="net_12"/>
  <line x1="136" x2="153" y1="357" y2="357" class="net_12"/>
  <line x1="153" x2="153" y1="357" y2="32" class="net_12"/>
  <line x1="153" x2="254" y1="32" y2="32" class="net_12"/>
  <line x1="345.8" x2="385" y1="87" y2="87" class="net_7"/>
  <line x1="385" x2="385" y1="87" y2="214.5" class="net_7"/>
  <line x1="385" x2="408" y1="214.5" y2="214.5" class="net_7"/>
  <line x1="355" x2="408" y1="229.5" y2="229.5" class="net_19"/>
  <line x1="208" x2="223" y1="269.5" y2="269.5" class="net_20"/>
  <line x1="223" x2="223" y1="269.5" y2="274.5" class="net_20"/>
  <line x1="223" x2="252" y1="274.5" y2="274.5" class="net_20"/>
  <line x1="282" x2="325" y1="282" y2="282" class="net_21"/>
  <line x1="345.8" x2="375" y1="107" y2="107" class="net_8"/>
  <line x1="375" x2="375" y1="107" y2="274.5" class="net_8"/>
  <line x1="375" x2="408" y1="274.5" y2="274.5" class="net_8"/>
  <line x1="355" x2="408" y1="289.5" y2="289.5" class="net_22"/>
  <line x1="282" x2="300" y1="214.5" y2="214.5" class="net_23"/>
  <line x1="300" x2="300" y1="214.5" y2="342" class="net_23"/>
  <circle cx="300" cy="214.5" r="2" style="fill:#000" class="net_23"/>
  <line x1="300" x2="325" y1="342" y2="342" class="net_23"/>
  <line x1="282" x2="300" y1="214.5" y2="214.5" class="net_23"/>
  <line x1="300" x2="300" y1="214.5" y2="17" class="net_23"/>
  <line x1="300" x2="325" y1="17" y2="17" class="net_23"/>
  <line x1="345.8" x2="365" y1="127" y2="127" class="net_9"/>
  <line x1="365" x2="365" y1="127" y2="334.5" class="net_9"/>
  <line x1="365" x2="408" y1="334.5" y2="334.5" class="net_9"/>
  <line x1="355" x2="408" y1="349.5" y2="349.5" class="net_24"/>
  <line x1="279" x2="325" y1="32" y2="32" class="net_25"/>
  <line x1="345.8" x2="408" y1="147" y2="147" class="net_5"/>
  <line x1="355" x2="395" y1="24.5" y2="24.5" class="net_26"/>
  <line x1="395" x2="395" y1="24.5" y2="162" class="net_26"/>
  <line x1="395" x2="408" y1="162" y2="162" class="net_26"/>
  <line x1="486" x2="521" y1="212" y2="212" class="net_13,14,15,16"/>
  <line x1="438" x2="448" y1="154.5" y2="154.5" class="net_13"/>
  <line x1="448" x2="448" y1="154.5" y2="202" class="net_13"/>
  <line x1="448" x2="480" y1="202" y2="202" class="net_13"/>
  <line x1="438" x2="480" y1="222" y2="222" class="net_14"/>
  <line x1="438" x2="448" y1="282" y2="282" class="net_15"/>
  <line x1="448" x2="448" y1="282" y2="242" class="net_15"/>
  <line x1="448" x2="480" y1="242" y2="242" class="net_15"/>
  <line x1="438" x2="480.5" y1="342" y2="342" class="net_16"/>
  <line x1="480.5" x2="480.5" y1="342" y2="262.5" class="net_16"/>
  <line x1="40" x2="131" y1="327" y2="327" class="net_10,11,12"/>
  <line x1="276" x2="340.8" y1="97" y2="97" class="net_2,3,4,5,6,7,8,9"/>
</svg>
