<svg xmlns="http://www.w3.org/2000/svg" xmlns:xlink="http://www.w3.org/1999/xlink" xmlns:s="https://github.com/nturley/netlistsvg" width="533" height="486">
  <style>svg {
    stroke:#000;
    fill:none;
  }
  text {
    fill:#000;
    stroke:none;
    font-size:10px;
    font-weight: bold;
    font-family: "Courier New", monospace;
  }
  .nodelabel {
    text-anchor: middle;
  }
  .inputPortLabel {
    text-anchor: end;
  }
  .splitjoinBody {
    fill:#000;
  }</style>
  <g s:type="generic" transform="translate(162,268.5)" s:width="30" s:height="40" id="cell_correct1">
    <text x="15" y="-4" class="nodelabel cell_correct1" s:attribute="ref">hamming_correct</text>
    <rect width="30" height="40" s:generic="body" class="cell_correct1"/>
    <g transform="translate(0,10)" s:x="0" s:y="10" s:pid="in0" id="port_correct1~data_in">
      <text x="-3" y="-4" class="inputPortLabel cell_correct1">data_in</text>
    </g>
    <g transform="translate(0,30)" s:x="0" s:y="10" s:pid="in0" id="port_correct1~error_location">
      <text x="-3" y="-4" class="inputPortLabel cell_correct1">error_location</text>
    </g>
    <g transform="translate(30,10)" s:x="30" s:y="10" s:pid="out0" id="port_correct1~data_out">
      <text x="5" y="-4" style="fill:#000; stroke:none" class="cell_correct1">data_out</text>
    </g>
  </g>
  <g s:type="inputExt" transform="translate(12,22)" s:width="30" s:height="20" id="cell_gpio_31">
    <text x="15" y="-4" class="nodelabel cell_gpio_31" s:attribute="ref">gpio_31</text>
    <s:alias val="$_inputExt_"/>
    <path d="M0,0 L0,20 L15,20 L30,10 L15,0 Z" class="cell_gpio_31"/>
    <g s:x="28" s:y="10" s:pid="Y"/>
  </g>
  <g s:type="inputExt" transform="translate(66,22)" s:width="30" s:height="20" id="cell_gpio_37">
    <text x="15" y="-4" class="nodelabel cell_gpio_37" s:attribute="ref">gpio_37</text>
    <s:alias val="$_inputExt_"/>
    <path d="M0,0 L0,20 L15,20 L30,10 L15,0 Z" class="cell_gpio_37"/>
    <g s:x="28" s:y="10" s:pid="Y"/>
  </g>
  <g s:type="inputExt" transform="translate(120,22)" s:width="30" s:height="20" id="cell_gpio_34">
    <text x="15" y="-4" class="nodelabel cell_gpio_34" s:attribute="ref">gpio_34</text>
    <s:alias val="$_inputExt_"/>
    <path d="M0,0 L0,20 L15,20 L30,10 L15,0 Z" class="cell_gpio_34"/>
    <g s:x="28" s:y="10" s:pid="Y"/>
  </g>
  <g s:type="inputExt" transform="translate(174,22)" s:width="30" s:height="20" id="cell_gpio_43">
    <text x="15" y="-4" class="nodelabel cell_gpio_43" s:attribute="ref">gpio_43</text>
    <s:alias val="$_inputExt_"/>
    <path d="M0,0 L0,20 L15,20 L30,10 L15,0 Z" class="cell_gpio_43"/>
    <g s:x="28" s:y="10" s:pid="Y"/>
  </g>
  <g s:type="inputExt" transform="translate(228,22)" s:width="30" s:height="20" id="cell_gpio_36">
    <text x="15" y="-4" class="nodelabel cell_gpio_36" s:attribute="ref">gpio_36</text>
    <s:alias val="$_inputExt_"/>
    <path d="M0,0 L0,20 L15,20 L30,10 L15,0 Z" class="cell_gpio_36"/>
    <g s:x="28" s:y="10" s:pid="Y"/>
  </g>
  <g s:type="inputExt" transform="translate(282,22)" s:width="30" s:height="20" id="cell_gpio_42">
    <text x="15" y="-4" class="nodelabel cell_gpio_42" s:attribute="ref">gpio_42</text>
    <s:alias val="$_inputExt_"/>
    <path d="M0,0 L0,20 L15,20 L30,10 L15,0 Z" class="cell_gpio_42"/>
    <g s:x="28" s:y="10" s:pid="Y"/>
  </g>
  <g s:type="inputExt" transform="translate(336,22)" s:width="30" s:height="20" id="cell_gpio_38">
    <text x="15" y="-4" class="nodelabel cell_gpio_38" s:attribute="ref">gpio_38</text>
    <s:alias val="$_inputExt_"/>
    <path d="M0,0 L0,20 L15,20 L30,10 L15,0 Z" class="cell_gpio_38"/>
    <g s:x="28" s:y="10" s:pid="Y"/>
  </g>
  <g s:type="inputExt" transform="translate(390,22)" s:width="30" s:height="20" id="cell_gpio_28">
    <text x="15" y="-4" class="nodelabel cell_gpio_28" s:attribute="ref">gpio_28</text>
    <s:alias val="$_inputExt_"/>
    <path d="M0,0 L0,20 L15,20 L30,10 L15,0 Z" class="cell_gpio_28"/>
    <g s:x="28" s:y="10" s:pid="Y"/>
  </g>
  <g s:type="outputExt" transform="translate(329,259)" s:width="30" s:height="20" id="cell_gpio_9">
    <text x="15" y="-4" class="nodelabel cell_gpio_9" s:attribute="ref">gpio_9</text>
    <s:alias val="$_outputExt_"/>
    <path d="M30,0 L30,20 L15,20 L0,10 L15,0 Z" class="cell_gpio_9"/>
    <g s:x="0" s:y="10" s:pid="A"/>
  </g>
  <g s:type="outputExt" transform="translate(329,324)" s:width="30" s:height="20" id="cell_gpio_6">
    <text x="15" y="-4" class="nodelabel cell_gpio_6" s:attribute="ref">gpio_6</text>
    <s:alias val="$_outputExt_"/>
    <path d="M30,0 L30,20 L15,20 L0,10 L15,0 Z" class="cell_gpio_6"/>
    <g s:x="0" s:y="10" s:pid="A"/>
  </g>
  <g s:type="outputExt" transform="translate(329,389)" s:width="30" s:height="20" id="cell_gpio_44">
    <text x="15" y="-4" class="nodelabel cell_gpio_44" s:attribute="ref">gpio_44</text>
    <s:alias val="$_outputExt_"/>
    <path d="M30,0 L30,20 L15,20 L0,10 L15,0 Z" class="cell_gpio_44"/>
    <g s:x="0" s:y="10" s:pid="A"/>
  </g>
  <g s:type="outputExt" transform="translate(329,454)" s:width="30" s:height="20" id="cell_gpio_4">
    <text x="15" y="-4" class="nodelabel cell_gpio_4" s:attribute="ref">gpio_4</text>
    <s:alias val="$_outputExt_"/>
    <path d="M30,0 L30,20 L15,20 L0,10 L15,0 Z" class="cell_gpio_4"/>
    <g s:x="0" s:y="10" s:pid="A"/>
  </g>
  <g s:type="outputExt" transform="translate(479,217)" s:width="30" s:height="20" id="cell_gpio_45">
    <text x="15" y="-4" class="nodelabel cell_gpio_45" s:attribute="ref">gpio_45</text>
    <s:alias val="$_outputExt_"/>
    <path d="M30,0 L30,20 L15,20 L0,10 L15,0 Z" class="cell_gpio_45"/>
    <g s:x="0" s:y="10" s:pid="A"/>
  </g>
  <g s:type="outputExt" transform="translate(479,152)" s:width="30" s:height="20" id="cell_gpio_47">
    <text x="15" y="-4" class="nodelabel cell_gpio_47" s:attribute="ref">gpio_47</text>
    <s:alias val="$_outputExt_"/>
    <path d="M30,0 L30,20 L15,20 L0,10 L15,0 Z" class="cell_gpio_47"/>
    <g s:x="0" s:y="10" s:pid="A"/>
  </g>
  <g s:type="outputExt" transform="translate(479,22)" s:width="30" s:height="20" id="cell_gpio_46">
    <text x="15" y="-4" class="nodelabel cell_gpio_46" s:attribute="ref">gpio_46</text>
    <s:alias val="$_outputExt_"/>
    <path d="M30,0 L30,20 L15,20 L0,10 L15,0 Z" class="cell_gpio_46"/>
    <g s:x="0" s:y="10" s:pid="A"/>
  </g>
  <g s:type="outputExt" transform="translate(479,87)" s:width="30" s:height="20" id="cell_gpio_2">
    <text x="15" y="-4" class="nodelabel cell_gpio_2" s:attribute="ref">gpio_2</text>
    <s:alias val="$_outputExt_"/>
    <path d="M30,0 L30,20 L15,20 L0,10 L15,0 Z" class="cell_gpio_2"/>
    <g s:x="0" s:y="10" s:pid="A"/>
  </g>
  <g s:type="constant" transform="translate(12,269)" s:width="30" s:height="20" id="cell_01001111">
    <text x="15" y="-4" class="nodelabel cell_01001111" s:attribute="ref">0x4f</text>
    <s:alias val="$_constant_"/>
    <rect width="30" height="20" class="cell_01001111"/>
    <g s:x="30" s:y="10" s:pid="Y"/>
  </g>
  <g s:type="constant" transform="translate(12,334)" s:width="30" s:height="20" id="cell_110">
    <text x="15" y="-4" class="nodelabel cell_110" s:attribute="ref">110</text>
    <s:alias val="$_constant_"/>
    <rect width="30" height="20" class="cell_110"/>
    <g s:x="30" s:y="10" s:pid="Y"/>
  </g>
  <g s:type="split" transform="translate(277,258.5)" s:width="5" s:height="40" id="cell_$split$,10,11,12,13,">
    <rect width="5" height="80" class="splitjoinBody" s:generic="body"/>
    <s:alias val="$_split_"/>
    <g s:x="0" s:y="20" s:pid="in"/>
    <g transform="translate(4,10)" s:x="4" s:y="10" s:pid="out0">
      <text x="5" y="-4">0</text>
    </g>
    <g transform="translate(4,30)" s:x="4" s:y="10" s:pid="out0">
      <text x="5" y="-4">1</text>
    </g>
    <g transform="translate(4,50)" s:x="4" s:y="10" s:pid="out0">
      <text x="5" y="-4">2</text>
    </g>
    <g transform="translate(4,70)" s:x="4" s:y="10" s:pid="out0">
      <text x="5" y="-4">3</text>
    </g>
  </g>
  <line x1="42" x2="162" y1="279" y2="279" class="net_14,15,16,17,18,19,20,21"/>
  <line x1="42" x2="52" y1="344" y2="344" class="net_22,23,24"/>
  <line x1="52" x2="52" y1="344" y2="299" class="net_22,23,24"/>
  <line x1="52" x2="162" y1="299" y2="299" class="net_22,23,24"/>
  <line x1="282" x2="329" y1="269" y2="269" class="net_10"/>
  <line x1="282" x2="319" y1="289" y2="289" class="net_11"/>
  <line x1="319" x2="319" y1="289" y2="334" class="net_11"/>
  <line x1="319" x2="329" y1="334" y2="334" class="net_11"/>
  <line x1="282" x2="309" y1="309" y2="309" class="net_12"/>
  <line x1="309" x2="309" y1="309" y2="399" class="net_12"/>
  <line x1="309" x2="329" y1="399" y2="399" class="net_12"/>
  <line x1="282" x2="299" y1="329" y2="329" class="net_13"/>
  <line x1="299" x2="299" y1="329" y2="464" class="net_13"/>
  <line x1="299" x2="329" y1="464" y2="464" class="net_13"/>
  <line x1="454" x2="454" y1="32" y2="227" class="net_x"/>
  <line x1="454" x2="479" y1="227" y2="227" class="net_x"/>
  <line x1="454" x2="454" y1="32" y2="162" class="net_x"/>
  <circle cx="454" cy="162" r="2" style="fill:#000" class="net_x"/>
  <line x1="454" x2="479" y1="162" y2="162" class="net_x"/>
  <line x1="454" x2="479" y1="32" y2="32" class="net_x"/>
  <line x1="454" x2="454" y1="32" y2="97" class="net_x"/>
  <circle cx="454" cy="97" r="2" style="fill:#000" class="net_x"/>
  <line x1="454" x2="479" y1="97" y2="97" class="net_x"/>
  <line x1="193" x2="277" y1="279" y2="279" class="net_10,11,12,13"/>
</svg>
