<svg xmlns="http://www.w3.org/2000/svg" xmlns:xlink="http://www.w3.org/1999/xlink" xmlns:s="https://github.com/nturley/netlistsvg" width="161" height="138">
  <style>svg {
    stroke:#000;
    fill:none;
  }
  text {
    fill:#000;
    stroke:none;
    font-size:10px;
    font-weight: bold;
    font-family: "Courier New", monospace;
  }
  line {
      stroke-linecap: round;
  }
  .nodelabel {
    text-anchor: middle;
  }
  .inputPortLabel {
    text-anchor: end;
  }
  .splitjoinBody {
    fill:#000;
  }</style>
  <g s:type="inputExt" transform="translate(12,64)" s:width="30" s:height="20" id="cell_serial_rxd">
    <text x="15" y="-4" class="nodelabel cell_serial_rxd" s:attribute="ref">serial_rxd</text>
    <s:alias val="$_inputExt_"/>
    <path d="M0,0 L0,20 L15,20 L30,10 L15,0 Z" class="cell_serial_rxd"/>
    <g s:x="30" s:y="10" s:pid="Y"/>
  </g>
  <g s:type="inputExt" transform="translate(12,106)" s:width="30" s:height="20" id="cell_gpio_46">
    <text x="15" y="-4" class="nodelabel cell_gpio_46" s:attribute="ref">gpio_46</text>
    <s:alias val="$_inputExt_"/>
    <path d="M0,0 L0,20 L15,20 L30,10 L15,0 Z" class="cell_gpio_46"/>
    <g s:x="30" s:y="10" s:pid="Y"/>
  </g>
  <g s:type="outputExt" transform="translate(89,106)" s:width="30" s:height="20" id="cell_serial_txd">
    <text x="15" y="-4" class="nodelabel cell_serial_txd" s:attribute="ref">serial_txd</text>
    <s:alias val="$_outputExt_"/>
    <path d="M30,0 L30,20 L15,20 L0,10 L15,0 Z" class="cell_serial_txd"/>
    <g s:x="0" s:y="10" s:pid="A"/>
  </g>
  <g s:type="outputExt" transform="translate(78,22)" s:width="30" s:height="20" id="cell_spi_cs">
    <text x="15" y="-4" class="nodelabel cell_spi_cs" s:attribute="ref">spi_cs</text>
    <s:alias val="$_outputExt_"/>
    <path d="M30,0 L30,20 L15,20 L0,10 L15,0 Z" class="cell_spi_cs"/>
    <g s:x="0" s:y="10" s:pid="A"/>
  </g>
  <g s:type="outputExt" transform="translate(107,64)" s:width="30" s:height="20" id="cell_gpio_2">
    <text x="15" y="-4" class="nodelabel cell_gpio_2" s:attribute="ref">gpio_2</text>
    <s:alias val="$_outputExt_"/>
    <path d="M30,0 L30,20 L15,20 L0,10 L15,0 Z" class="cell_gpio_2"/>
    <g s:x="0" s:y="10" s:pid="A"/>
  </g>
  <g s:type="constant" transform="translate(12,22)" s:width="30" s:height="20" id="cell_1">
    <text x="15" y="-4" class="nodelabel cell_1" s:attribute="ref">1</text>
    <s:alias val="$_constant_"/>
    <rect width="30" height="20" class="cell_1"/>
    <g s:x="31" s:y="10" s:pid="Y"/>
  </g>
  <line x1="42" x2="89" y1="116" y2="116" class="net_3 width_1" style="stroke-width: 1"/>
  <line x1="43" x2="78" y1="32" y2="32" class="net_4 width_1" style="stroke-width: 1"/>
  <line x1="42" x2="107" y1="74" y2="74" class="net_2 width_1" style="stroke-width: 1"/>
</svg>
