<svg xmlns="http://www.w3.org/2000/svg" xmlns:xlink="http://www.w3.org/1999/xlink" xmlns:s="https://github.com/nturley/netlistsvg" width="1584" height="850">
  <style>svg {
    stroke:#000;
    fill:none;
  }
  text {
    fill:#000;
    stroke:none;
    font-size:10px;
    font-weight: bold;
    font-family: "Courier New", monospace;
  }
  .nodelabel {
    text-anchor: middle;
  }
  .inputPortLabel {
    text-anchor: end;
  }
  .splitjoinBody {
    fill:#000;
  }</style>
  <g s:type="reduce_xor" transform="translate(883,117.5)" s:width="33" s:height="25" id="cell_\10">
    <s:alias val="$xor"/>
    <s:alias val="$reduce_xor"/>
    <s:alias val="$_XOR_"/>
    <path d="M3,0 A30 25 0 0 1 3,25 A30 25 0 0 0 33,12.5 A30 25 0 0 0 3,0" class="cell_\10"/>
    <path d="M0,0 A30 25 0 0 1 0,25" class="cell_\10"/>
    <g s:x="3" s:y="5" s:pid="A"/>
    <g s:x="3" s:y="20" s:pid="B"/>
    <g s:x="33" s:y="12.5" s:pid="Y"/>
  </g>
  <g s:type="mux" transform="translate(1433,175)" s:width="20" s:height="40" id="cell_\101">
    <s:alias val="$pmux"/>
    <s:alias val="$mux"/>
    <s:alias val="$_MUX_"/>
    <path d="M0,0 L20,10 L20,30 L0,40 Z" class="cell_\101"/>
    <g s:x="0" s:y="10" s:pid="A"/>
    <g s:x="0" s:y="30" s:pid="B"/>
    <g s:x="10" s:y="35" s:pid="S"/>
    <g s:x="20" s:y="20" s:pid="Y"/>
  </g>
  <g s:type="reduce_xor" transform="translate(951,125)" s:width="33" s:height="25" id="cell_\12">
    <s:alias val="$xor"/>
    <s:alias val="$reduce_xor"/>
    <s:alias val="$_XOR_"/>
    <path d="M3,0 A30 25 0 0 1 3,25 A30 25 0 0 0 33,12.5 A30 25 0 0 0 3,0" class="cell_\12"/>
    <path d="M0,0 A30 25 0 0 1 0,25" class="cell_\12"/>
    <g s:x="3" s:y="5" s:pid="A"/>
    <g s:x="3" s:y="20" s:pid="B"/>
    <g s:x="33" s:y="12.5" s:pid="Y"/>
  </g>
  <g s:type="reduce_xor" transform="translate(1019,132.5)" s:width="33" s:height="25" id="cell_\14">
    <s:alias val="$xor"/>
    <s:alias val="$reduce_xor"/>
    <s:alias val="$_XOR_"/>
    <path d="M3,0 A30 25 0 0 1 3,25 A30 25 0 0 0 33,12.5 A30 25 0 0 0 3,0" class="cell_\14"/>
    <path d="M0,0 A30 25 0 0 1 0,25" class="cell_\14"/>
    <g s:x="3" s:y="5" s:pid="A"/>
    <g s:x="3" s:y="20" s:pid="B"/>
    <g s:x="33" s:y="12.5" s:pid="Y"/>
  </g>
  <g s:type="reduce_xor" transform="translate(1087,140)" s:width="33" s:height="25" id="cell_\16">
    <s:alias val="$xor"/>
    <s:alias val="$reduce_xor"/>
    <s:alias val="$_XOR_"/>
    <path d="M3,0 A30 25 0 0 1 3,25 A30 25 0 0 0 33,12.5 A30 25 0 0 0 3,0" class="cell_\16"/>
    <path d="M0,0 A30 25 0 0 1 0,25" class="cell_\16"/>
    <g s:x="3" s:y="5" s:pid="A"/>
    <g s:x="3" s:y="20" s:pid="B"/>
    <g s:x="33" s:y="12.5" s:pid="Y"/>
  </g>
  <g s:type="reduce_xor" transform="translate(679,196)" s:width="33" s:height="25" id="cell_\19">
    <s:alias val="$xor"/>
    <s:alias val="$reduce_xor"/>
    <s:alias val="$_XOR_"/>
    <path d="M3,0 A30 25 0 0 1 3,25 A30 25 0 0 0 33,12.5 A30 25 0 0 0 3,0" class="cell_\19"/>
    <path d="M0,0 A30 25 0 0 1 0,25" class="cell_\19"/>
    <g s:x="3" s:y="5" s:pid="A"/>
    <g s:x="3" s:y="20" s:pid="B"/>
    <g s:x="33" s:y="12.5" s:pid="Y"/>
  </g>
  <g s:type="reduce_xor" transform="translate(747,203.5)" s:width="33" s:height="25" id="cell_\21">
    <s:alias val="$xor"/>
    <s:alias val="$reduce_xor"/>
    <s:alias val="$_XOR_"/>
    <path d="M3,0 A30 25 0 0 1 3,25 A30 25 0 0 0 33,12.5 A30 25 0 0 0 3,0" class="cell_\21"/>
    <path d="M0,0 A30 25 0 0 1 0,25" class="cell_\21"/>
    <g s:x="3" s:y="5" s:pid="A"/>
    <g s:x="3" s:y="20" s:pid="B"/>
    <g s:x="33" s:y="12.5" s:pid="Y"/>
  </g>
  <g s:type="reduce_xor" transform="translate(815,211)" s:width="33" s:height="25" id="cell_\23">
    <s:alias val="$xor"/>
    <s:alias val="$reduce_xor"/>
    <s:alias val="$_XOR_"/>
    <path d="M3,0 A30 25 0 0 1 3,25 A30 25 0 0 0 33,12.5 A30 25 0 0 0 3,0" class="cell_\23"/>
    <path d="M0,0 A30 25 0 0 1 0,25" class="cell_\23"/>
    <g s:x="3" s:y="5" s:pid="A"/>
    <g s:x="3" s:y="20" s:pid="B"/>
    <g s:x="33" s:y="12.5" s:pid="Y"/>
  </g>
  <g s:type="reduce_xor" transform="translate(883,218.5)" s:width="33" s:height="25" id="cell_\25">
    <s:alias val="$xor"/>
    <s:alias val="$reduce_xor"/>
    <s:alias val="$_XOR_"/>
    <path d="M3,0 A30 25 0 0 1 3,25 A30 25 0 0 0 33,12.5 A30 25 0 0 0 3,0" class="cell_\25"/>
    <path d="M0,0 A30 25 0 0 1 0,25" class="cell_\25"/>
    <g s:x="3" s:y="5" s:pid="A"/>
    <g s:x="3" s:y="20" s:pid="B"/>
    <g s:x="33" s:y="12.5" s:pid="Y"/>
  </g>
  <g s:type="reduce_xor" transform="translate(951,226)" s:width="33" s:height="25" id="cell_\27">
    <s:alias val="$xor"/>
    <s:alias val="$reduce_xor"/>
    <s:alias val="$_XOR_"/>
    <path d="M3,0 A30 25 0 0 1 3,25 A30 25 0 0 0 33,12.5 A30 25 0 0 0 3,0" class="cell_\27"/>
    <path d="M0,0 A30 25 0 0 1 0,25" class="cell_\27"/>
    <g s:x="3" s:y="5" s:pid="A"/>
    <g s:x="3" s:y="20" s:pid="B"/>
    <g s:x="33" s:y="12.5" s:pid="Y"/>
  </g>
  <g s:type="reduce_xor" transform="translate(1019,233.5)" s:width="33" s:height="25" id="cell_\29">
    <s:alias val="$xor"/>
    <s:alias val="$reduce_xor"/>
    <s:alias val="$_XOR_"/>
    <path d="M3,0 A30 25 0 0 1 3,25 A30 25 0 0 0 33,12.5 A30 25 0 0 0 3,0" class="cell_\29"/>
    <path d="M0,0 A30 25 0 0 1 0,25" class="cell_\29"/>
    <g s:x="3" s:y="5" s:pid="A"/>
    <g s:x="3" s:y="20" s:pid="B"/>
    <g s:x="33" s:y="12.5" s:pid="Y"/>
  </g>
  <g s:type="reduce_xor" transform="translate(1087,241)" s:width="33" s:height="25" id="cell_\31">
    <s:alias val="$xor"/>
    <s:alias val="$reduce_xor"/>
    <s:alias val="$_XOR_"/>
    <path d="M3,0 A30 25 0 0 1 3,25 A30 25 0 0 0 33,12.5 A30 25 0 0 0 3,0" class="cell_\31"/>
    <path d="M0,0 A30 25 0 0 1 0,25" class="cell_\31"/>
    <g s:x="3" s:y="5" s:pid="A"/>
    <g s:x="3" s:y="20" s:pid="B"/>
    <g s:x="33" s:y="12.5" s:pid="Y"/>
  </g>
  <g s:type="reduce_xor" transform="translate(679,297)" s:width="33" s:height="25" id="cell_\34">
    <s:alias val="$xor"/>
    <s:alias val="$reduce_xor"/>
    <s:alias val="$_XOR_"/>
    <path d="M3,0 A30 25 0 0 1 3,25 A30 25 0 0 0 33,12.5 A30 25 0 0 0 3,0" class="cell_\34"/>
    <path d="M0,0 A30 25 0 0 1 0,25" class="cell_\34"/>
    <g s:x="3" s:y="5" s:pid="A"/>
    <g s:x="3" s:y="20" s:pid="B"/>
    <g s:x="33" s:y="12.5" s:pid="Y"/>
  </g>
  <g s:type="reduce_xor" transform="translate(747,304.5)" s:width="33" s:height="25" id="cell_\36">
    <s:alias val="$xor"/>
    <s:alias val="$reduce_xor"/>
    <s:alias val="$_XOR_"/>
    <path d="M3,0 A30 25 0 0 1 3,25 A30 25 0 0 0 33,12.5 A30 25 0 0 0 3,0" class="cell_\36"/>
    <path d="M0,0 A30 25 0 0 1 0,25" class="cell_\36"/>
    <g s:x="3" s:y="5" s:pid="A"/>
    <g s:x="3" s:y="20" s:pid="B"/>
    <g s:x="33" s:y="12.5" s:pid="Y"/>
  </g>
  <g s:type="reduce_xor" transform="translate(815,312)" s:width="33" s:height="25" id="cell_\38">
    <s:alias val="$xor"/>
    <s:alias val="$reduce_xor"/>
    <s:alias val="$_XOR_"/>
    <path d="M3,0 A30 25 0 0 1 3,25 A30 25 0 0 0 33,12.5 A30 25 0 0 0 3,0" class="cell_\38"/>
    <path d="M0,0 A30 25 0 0 1 0,25" class="cell_\38"/>
    <g s:x="3" s:y="5" s:pid="A"/>
    <g s:x="3" s:y="20" s:pid="B"/>
    <g s:x="33" s:y="12.5" s:pid="Y"/>
  </g>
  <g s:type="reduce_xor" transform="translate(679,95)" s:width="33" s:height="25" id="cell_\4">
    <s:alias val="$xor"/>
    <s:alias val="$reduce_xor"/>
    <s:alias val="$_XOR_"/>
    <path d="M3,0 A30 25 0 0 1 3,25 A30 25 0 0 0 33,12.5 A30 25 0 0 0 3,0" class="cell_\4"/>
    <path d="M0,0 A30 25 0 0 1 0,25" class="cell_\4"/>
    <g s:x="3" s:y="5" s:pid="A"/>
    <g s:x="3" s:y="20" s:pid="B"/>
    <g s:x="33" s:y="12.5" s:pid="Y"/>
  </g>
  <g s:type="reduce_xor" transform="translate(883,319.5)" s:width="33" s:height="25" id="cell_\40">
    <s:alias val="$xor"/>
    <s:alias val="$reduce_xor"/>
    <s:alias val="$_XOR_"/>
    <path d="M3,0 A30 25 0 0 1 3,25 A30 25 0 0 0 33,12.5 A30 25 0 0 0 3,0" class="cell_\40"/>
    <path d="M0,0 A30 25 0 0 1 0,25" class="cell_\40"/>
    <g s:x="3" s:y="5" s:pid="A"/>
    <g s:x="3" s:y="20" s:pid="B"/>
    <g s:x="33" s:y="12.5" s:pid="Y"/>
  </g>
  <g s:type="reduce_xor" transform="translate(951,327)" s:width="33" s:height="25" id="cell_\42">
    <s:alias val="$xor"/>
    <s:alias val="$reduce_xor"/>
    <s:alias val="$_XOR_"/>
    <path d="M3,0 A30 25 0 0 1 3,25 A30 25 0 0 0 33,12.5 A30 25 0 0 0 3,0" class="cell_\42"/>
    <path d="M0,0 A30 25 0 0 1 0,25" class="cell_\42"/>
    <g s:x="3" s:y="5" s:pid="A"/>
    <g s:x="3" s:y="20" s:pid="B"/>
    <g s:x="33" s:y="12.5" s:pid="Y"/>
  </g>
  <g s:type="reduce_xor" transform="translate(1019,334.5)" s:width="33" s:height="25" id="cell_\44">
    <s:alias val="$xor"/>
    <s:alias val="$reduce_xor"/>
    <s:alias val="$_XOR_"/>
    <path d="M3,0 A30 25 0 0 1 3,25 A30 25 0 0 0 33,12.5 A30 25 0 0 0 3,0" class="cell_\44"/>
    <path d="M0,0 A30 25 0 0 1 0,25" class="cell_\44"/>
    <g s:x="3" s:y="5" s:pid="A"/>
    <g s:x="3" s:y="20" s:pid="B"/>
    <g s:x="33" s:y="12.5" s:pid="Y"/>
  </g>
  <g s:type="reduce_xor" transform="translate(1087,342)" s:width="33" s:height="25" id="cell_\46">
    <s:alias val="$xor"/>
    <s:alias val="$reduce_xor"/>
    <s:alias val="$_XOR_"/>
    <path d="M3,0 A30 25 0 0 1 3,25 A30 25 0 0 0 33,12.5 A30 25 0 0 0 3,0" class="cell_\46"/>
    <path d="M0,0 A30 25 0 0 1 0,25" class="cell_\46"/>
    <g s:x="3" s:y="5" s:pid="A"/>
    <g s:x="3" s:y="20" s:pid="B"/>
    <g s:x="33" s:y="12.5" s:pid="Y"/>
  </g>
  <g s:type="reduce_xor" transform="translate(679,398)" s:width="33" s:height="25" id="cell_\49">
    <s:alias val="$xor"/>
    <s:alias val="$reduce_xor"/>
    <s:alias val="$_XOR_"/>
    <path d="M3,0 A30 25 0 0 1 3,25 A30 25 0 0 0 33,12.5 A30 25 0 0 0 3,0" class="cell_\49"/>
    <path d="M0,0 A30 25 0 0 1 0,25" class="cell_\49"/>
    <g s:x="3" s:y="5" s:pid="A"/>
    <g s:x="3" s:y="20" s:pid="B"/>
    <g s:x="33" s:y="12.5" s:pid="Y"/>
  </g>
  <g s:type="reduce_xor" transform="translate(747,405.5)" s:width="33" s:height="25" id="cell_\51">
    <s:alias val="$xor"/>
    <s:alias val="$reduce_xor"/>
    <s:alias val="$_XOR_"/>
    <path d="M3,0 A30 25 0 0 1 3,25 A30 25 0 0 0 33,12.5 A30 25 0 0 0 3,0" class="cell_\51"/>
    <path d="M0,0 A30 25 0 0 1 0,25" class="cell_\51"/>
    <g s:x="3" s:y="5" s:pid="A"/>
    <g s:x="3" s:y="20" s:pid="B"/>
    <g s:x="33" s:y="12.5" s:pid="Y"/>
  </g>
  <g s:type="reduce_xor" transform="translate(815,413)" s:width="33" s:height="25" id="cell_\53">
    <s:alias val="$xor"/>
    <s:alias val="$reduce_xor"/>
    <s:alias val="$_XOR_"/>
    <path d="M3,0 A30 25 0 0 1 3,25 A30 25 0 0 0 33,12.5 A30 25 0 0 0 3,0" class="cell_\53"/>
    <path d="M0,0 A30 25 0 0 1 0,25" class="cell_\53"/>
    <g s:x="3" s:y="5" s:pid="A"/>
    <g s:x="3" s:y="20" s:pid="B"/>
    <g s:x="33" s:y="12.5" s:pid="Y"/>
  </g>
  <g s:type="reduce_xor" transform="translate(883,420.5)" s:width="33" s:height="25" id="cell_\55">
    <s:alias val="$xor"/>
    <s:alias val="$reduce_xor"/>
    <s:alias val="$_XOR_"/>
    <path d="M3,0 A30 25 0 0 1 3,25 A30 25 0 0 0 33,12.5 A30 25 0 0 0 3,0" class="cell_\55"/>
    <path d="M0,0 A30 25 0 0 1 0,25" class="cell_\55"/>
    <g s:x="3" s:y="5" s:pid="A"/>
    <g s:x="3" s:y="20" s:pid="B"/>
    <g s:x="33" s:y="12.5" s:pid="Y"/>
  </g>
  <g s:type="reduce_xor" transform="translate(951,428)" s:width="33" s:height="25" id="cell_\57">
    <s:alias val="$xor"/>
    <s:alias val="$reduce_xor"/>
    <s:alias val="$_XOR_"/>
    <path d="M3,0 A30 25 0 0 1 3,25 A30 25 0 0 0 33,12.5 A30 25 0 0 0 3,0" class="cell_\57"/>
    <path d="M0,0 A30 25 0 0 1 0,25" class="cell_\57"/>
    <g s:x="3" s:y="5" s:pid="A"/>
    <g s:x="3" s:y="20" s:pid="B"/>
    <g s:x="33" s:y="12.5" s:pid="Y"/>
  </g>
  <g s:type="reduce_xor" transform="translate(1019,435.5)" s:width="33" s:height="25" id="cell_\59">
    <s:alias val="$xor"/>
    <s:alias val="$reduce_xor"/>
    <s:alias val="$_XOR_"/>
    <path d="M3,0 A30 25 0 0 1 3,25 A30 25 0 0 0 33,12.5 A30 25 0 0 0 3,0" class="cell_\59"/>
    <path d="M0,0 A30 25 0 0 1 0,25" class="cell_\59"/>
    <g s:x="3" s:y="5" s:pid="A"/>
    <g s:x="3" s:y="20" s:pid="B"/>
    <g s:x="33" s:y="12.5" s:pid="Y"/>
  </g>
  <g s:type="reduce_xor" transform="translate(747,102.5)" s:width="33" s:height="25" id="cell_\6">
    <s:alias val="$xor"/>
    <s:alias val="$reduce_xor"/>
    <s:alias val="$_XOR_"/>
    <path d="M3,0 A30 25 0 0 1 3,25 A30 25 0 0 0 33,12.5 A30 25 0 0 0 3,0" class="cell_\6"/>
    <path d="M0,0 A30 25 0 0 1 0,25" class="cell_\6"/>
    <g s:x="3" s:y="5" s:pid="A"/>
    <g s:x="3" s:y="20" s:pid="B"/>
    <g s:x="33" s:y="12.5" s:pid="Y"/>
  </g>
  <g s:type="reduce_xor" transform="translate(1087,443)" s:width="33" s:height="25" id="cell_\61">
    <s:alias val="$xor"/>
    <s:alias val="$reduce_xor"/>
    <s:alias val="$_XOR_"/>
    <path d="M3,0 A30 25 0 0 1 3,25 A30 25 0 0 0 33,12.5 A30 25 0 0 0 3,0" class="cell_\61"/>
    <path d="M0,0 A30 25 0 0 1 0,25" class="cell_\61"/>
    <g s:x="3" s:y="5" s:pid="A"/>
    <g s:x="3" s:y="20" s:pid="B"/>
    <g s:x="33" s:y="12.5" s:pid="Y"/>
  </g>
  <g s:type="generic" transform="translate(1230,152)" s:width="30" s:height="40" id="cell_\64">
    <text x="15" y="-4" class="nodelabel cell_\64" s:attribute="ref">$reduce_bool</text>
    <rect width="30" height="20" s:generic="body" class="cell_\64"/>
    <g transform="translate(0,10)" s:x="0" s:y="10" s:pid="in0" id="port_\64~A">
      <text x="-3" y="-4" class="inputPortLabel cell_\64">A</text>
    </g>
    <g transform="translate(30,10)" s:x="30" s:y="10" s:pid="out0" id="port_\64~Y">
      <text x="5" y="-4" style="fill:#000; stroke:none" class="cell_\64">Y</text>
    </g>
  </g>
  <g s:type="mux" transform="translate(1306.3333333333333,22)" s:width="20" s:height="40" id="cell_\65">
    <s:alias val="$pmux"/>
    <s:alias val="$mux"/>
    <s:alias val="$_MUX_"/>
    <path d="M0,0 L20,10 L20,30 L0,40 Z" class="cell_\65"/>
    <g s:x="0" s:y="10" s:pid="A"/>
    <g s:x="0" s:y="30" s:pid="B"/>
    <g s:x="10" s:y="35" s:pid="S"/>
    <g s:x="20" s:y="20" s:pid="Y"/>
  </g>
  <g s:type="reduce_xor" transform="translate(271,499)" s:width="33" s:height="25" id="cell_\69">
    <s:alias val="$xor"/>
    <s:alias val="$reduce_xor"/>
    <s:alias val="$_XOR_"/>
    <path d="M3,0 A30 25 0 0 1 3,25 A30 25 0 0 0 33,12.5 A30 25 0 0 0 3,0" class="cell_\69"/>
    <path d="M0,0 A30 25 0 0 1 0,25" class="cell_\69"/>
    <g s:x="3" s:y="5" s:pid="A"/>
    <g s:x="3" s:y="20" s:pid="B"/>
    <g s:x="33" s:y="12.5" s:pid="Y"/>
  </g>
  <g s:type="reduce_xor" transform="translate(339,506.5)" s:width="33" s:height="25" id="cell_\71">
    <s:alias val="$xor"/>
    <s:alias val="$reduce_xor"/>
    <s:alias val="$_XOR_"/>
    <path d="M3,0 A30 25 0 0 1 3,25 A30 25 0 0 0 33,12.5 A30 25 0 0 0 3,0" class="cell_\71"/>
    <path d="M0,0 A30 25 0 0 1 0,25" class="cell_\71"/>
    <g s:x="3" s:y="5" s:pid="A"/>
    <g s:x="3" s:y="20" s:pid="B"/>
    <g s:x="33" s:y="12.5" s:pid="Y"/>
  </g>
  <g s:type="reduce_xor" transform="translate(407,514)" s:width="33" s:height="25" id="cell_\73">
    <s:alias val="$xor"/>
    <s:alias val="$reduce_xor"/>
    <s:alias val="$_XOR_"/>
    <path d="M3,0 A30 25 0 0 1 3,25 A30 25 0 0 0 33,12.5 A30 25 0 0 0 3,0" class="cell_\73"/>
    <path d="M0,0 A30 25 0 0 1 0,25" class="cell_\73"/>
    <g s:x="3" s:y="5" s:pid="A"/>
    <g s:x="3" s:y="20" s:pid="B"/>
    <g s:x="33" s:y="12.5" s:pid="Y"/>
  </g>
  <g s:type="reduce_xor" transform="translate(475,521.5)" s:width="33" s:height="25" id="cell_\75">
    <s:alias val="$xor"/>
    <s:alias val="$reduce_xor"/>
    <s:alias val="$_XOR_"/>
    <path d="M3,0 A30 25 0 0 1 3,25 A30 25 0 0 0 33,12.5 A30 25 0 0 0 3,0" class="cell_\75"/>
    <path d="M0,0 A30 25 0 0 1 0,25" class="cell_\75"/>
    <g s:x="3" s:y="5" s:pid="A"/>
    <g s:x="3" s:y="20" s:pid="B"/>
    <g s:x="33" s:y="12.5" s:pid="Y"/>
  </g>
  <g s:type="reduce_xor" transform="translate(543,529)" s:width="33" s:height="25" id="cell_\77">
    <s:alias val="$xor"/>
    <s:alias val="$reduce_xor"/>
    <s:alias val="$_XOR_"/>
    <path d="M3,0 A30 25 0 0 1 3,25 A30 25 0 0 0 33,12.5 A30 25 0 0 0 3,0" class="cell_\77"/>
    <path d="M0,0 A30 25 0 0 1 0,25" class="cell_\77"/>
    <g s:x="3" s:y="5" s:pid="A"/>
    <g s:x="3" s:y="20" s:pid="B"/>
    <g s:x="33" s:y="12.5" s:pid="Y"/>
  </g>
  <g s:type="reduce_xor" transform="translate(611,536.5)" s:width="33" s:height="25" id="cell_\79">
    <s:alias val="$xor"/>
    <s:alias val="$reduce_xor"/>
    <s:alias val="$_XOR_"/>
    <path d="M3,0 A30 25 0 0 1 3,25 A30 25 0 0 0 33,12.5 A30 25 0 0 0 3,0" class="cell_\79"/>
    <path d="M0,0 A30 25 0 0 1 0,25" class="cell_\79"/>
    <g s:x="3" s:y="5" s:pid="A"/>
    <g s:x="3" s:y="20" s:pid="B"/>
    <g s:x="33" s:y="12.5" s:pid="Y"/>
  </g>
  <g s:type="reduce_xor" transform="translate(815,110)" s:width="33" s:height="25" id="cell_\8">
    <s:alias val="$xor"/>
    <s:alias val="$reduce_xor"/>
    <s:alias val="$_XOR_"/>
    <path d="M3,0 A30 25 0 0 1 3,25 A30 25 0 0 0 33,12.5 A30 25 0 0 0 3,0" class="cell_\8"/>
    <path d="M0,0 A30 25 0 0 1 0,25" class="cell_\8"/>
    <g s:x="3" s:y="5" s:pid="A"/>
    <g s:x="3" s:y="20" s:pid="B"/>
    <g s:x="33" s:y="12.5" s:pid="Y"/>
  </g>
  <g s:type="reduce_xor" transform="translate(679,544)" s:width="33" s:height="25" id="cell_\81">
    <s:alias val="$xor"/>
    <s:alias val="$reduce_xor"/>
    <s:alias val="$_XOR_"/>
    <path d="M3,0 A30 25 0 0 1 3,25 A30 25 0 0 0 33,12.5 A30 25 0 0 0 3,0" class="cell_\81"/>
    <path d="M0,0 A30 25 0 0 1 0,25" class="cell_\81"/>
    <g s:x="3" s:y="5" s:pid="A"/>
    <g s:x="3" s:y="20" s:pid="B"/>
    <g s:x="33" s:y="12.5" s:pid="Y"/>
  </g>
  <g s:type="reduce_xor" transform="translate(747,551.5)" s:width="33" s:height="25" id="cell_\83">
    <s:alias val="$xor"/>
    <s:alias val="$reduce_xor"/>
    <s:alias val="$_XOR_"/>
    <path d="M3,0 A30 25 0 0 1 3,25 A30 25 0 0 0 33,12.5 A30 25 0 0 0 3,0" class="cell_\83"/>
    <path d="M0,0 A30 25 0 0 1 0,25" class="cell_\83"/>
    <g s:x="3" s:y="5" s:pid="A"/>
    <g s:x="3" s:y="20" s:pid="B"/>
    <g s:x="33" s:y="12.5" s:pid="Y"/>
  </g>
  <g s:type="reduce_xor" transform="translate(815,559)" s:width="33" s:height="25" id="cell_\85">
    <s:alias val="$xor"/>
    <s:alias val="$reduce_xor"/>
    <s:alias val="$_XOR_"/>
    <path d="M3,0 A30 25 0 0 1 3,25 A30 25 0 0 0 33,12.5 A30 25 0 0 0 3,0" class="cell_\85"/>
    <path d="M0,0 A30 25 0 0 1 0,25" class="cell_\85"/>
    <g s:x="3" s:y="5" s:pid="A"/>
    <g s:x="3" s:y="20" s:pid="B"/>
    <g s:x="33" s:y="12.5" s:pid="Y"/>
  </g>
  <g s:type="reduce_xor" transform="translate(883,566.5)" s:width="33" s:height="25" id="cell_\87">
    <s:alias val="$xor"/>
    <s:alias val="$reduce_xor"/>
    <s:alias val="$_XOR_"/>
    <path d="M3,0 A30 25 0 0 1 3,25 A30 25 0 0 0 33,12.5 A30 25 0 0 0 3,0" class="cell_\87"/>
    <path d="M0,0 A30 25 0 0 1 0,25" class="cell_\87"/>
    <g s:x="3" s:y="5" s:pid="A"/>
    <g s:x="3" s:y="20" s:pid="B"/>
    <g s:x="33" s:y="12.5" s:pid="Y"/>
  </g>
  <g s:type="reduce_xor" transform="translate(951,574)" s:width="33" s:height="25" id="cell_\89">
    <s:alias val="$xor"/>
    <s:alias val="$reduce_xor"/>
    <s:alias val="$_XOR_"/>
    <path d="M3,0 A30 25 0 0 1 3,25 A30 25 0 0 0 33,12.5 A30 25 0 0 0 3,0" class="cell_\89"/>
    <path d="M0,0 A30 25 0 0 1 0,25" class="cell_\89"/>
    <g s:x="3" s:y="5" s:pid="A"/>
    <g s:x="3" s:y="20" s:pid="B"/>
    <g s:x="33" s:y="12.5" s:pid="Y"/>
  </g>
  <g s:type="reduce_xor" transform="translate(1019,581.5)" s:width="33" s:height="25" id="cell_\91">
    <s:alias val="$xor"/>
    <s:alias val="$reduce_xor"/>
    <s:alias val="$_XOR_"/>
    <path d="M3,0 A30 25 0 0 1 3,25 A30 25 0 0 0 33,12.5 A30 25 0 0 0 3,0" class="cell_\91"/>
    <path d="M0,0 A30 25 0 0 1 0,25" class="cell_\91"/>
    <g s:x="3" s:y="5" s:pid="A"/>
    <g s:x="3" s:y="20" s:pid="B"/>
    <g s:x="33" s:y="12.5" s:pid="Y"/>
  </g>
  <g s:type="reduce_xor" transform="translate(1087,589)" s:width="33" s:height="25" id="cell_\93">
    <s:alias val="$xor"/>
    <s:alias val="$reduce_xor"/>
    <s:alias val="$_XOR_"/>
    <path d="M3,0 A30 25 0 0 1 3,25 A30 25 0 0 0 33,12.5 A30 25 0 0 0 3,0" class="cell_\93"/>
    <path d="M0,0 A30 25 0 0 1 0,25" class="cell_\93"/>
    <g s:x="3" s:y="5" s:pid="A"/>
    <g s:x="3" s:y="20" s:pid="B"/>
    <g s:x="33" s:y="12.5" s:pid="Y"/>
  </g>
  <g s:type="reduce_xor" transform="translate(1155,596.5)" s:width="33" s:height="25" id="cell_\95">
    <s:alias val="$xor"/>
    <s:alias val="$reduce_xor"/>
    <s:alias val="$_XOR_"/>
    <path d="M3,0 A30 25 0 0 1 3,25 A30 25 0 0 0 33,12.5 A30 25 0 0 0 3,0" class="cell_\95"/>
    <path d="M0,0 A30 25 0 0 1 0,25" class="cell_\95"/>
    <g s:x="3" s:y="5" s:pid="A"/>
    <g s:x="3" s:y="20" s:pid="B"/>
    <g s:x="33" s:y="12.5" s:pid="Y"/>
  </g>
  <g s:type="reduce_xor" transform="translate(1229.3333333333333,604)" s:width="33" s:height="25" id="cell_\97">
    <s:alias val="$xor"/>
    <s:alias val="$reduce_xor"/>
    <s:alias val="$_XOR_"/>
    <path d="M3,0 A30 25 0 0 1 3,25 A30 25 0 0 0 33,12.5 A30 25 0 0 0 3,0" class="cell_\97"/>
    <path d="M0,0 A30 25 0 0 1 0,25" class="cell_\97"/>
    <g s:x="3" s:y="5" s:pid="A"/>
    <g s:x="3" s:y="20" s:pid="B"/>
    <g s:x="33" s:y="12.5" s:pid="Y"/>
  </g>
  <g s:type="not" transform="translate(1303,606.5)" s:width="30" s:height="20" id="cell_\98">
    <s:alias val="$_NOT_"/>
    <s:alias val="$not"/>
    <path d="M0,0 L0,20 L20,10 Z" class="cell_\98"/>
    <circle cx="23" cy="10" r="3" class="cell_\98"/>
    <g s:x="0" s:y="10" s:pid="A"/>
    <g s:x="25" s:y="10" s:pid="Y"/>
  </g>
  <g s:type="and" transform="translate(1368,596.5)" s:width="30" s:height="25" id="cell_\99">
    <s:alias val="$and"/>
    <s:alias val="$logic_and"/>
    <s:alias val="$_AND_"/>
    <path d="M0,0 L0,25 L15,25 A15 12.5 0 0 0 15,0 Z" class="cell_\99"/>
    <g s:x="0" s:y="5" s:pid="A"/>
    <g s:x="0" s:y="20" s:pid="B"/>
    <g s:x="30" s:y="12.5" s:pid="Y"/>
  </g>
  <g s:type="inputExt" transform="translate(12,219)" s:width="30" s:height="20" id="cell_data_in">
    <text x="15" y="-4" class="nodelabel cell_data_in" s:attribute="ref">data_in</text>
    <s:alias val="$_inputExt_"/>
    <path d="M0,0 L0,20 L15,20 L30,10 L15,0 Z" class="cell_data_in"/>
    <g s:x="28" s:y="10" s:pid="Y"/>
  </g>
  <g s:type="outputExt" transform="translate(1488,185)" s:width="30" s:height="20" id="cell_error_location">
    <text x="15" y="-4" class="nodelabel cell_error_location" s:attribute="ref">error_location</text>
    <s:alias val="$_outputExt_"/>
    <path d="M30,0 L30,20 L15,20 L0,10 L15,0 Z" class="cell_error_location"/>
    <g s:x="0" s:y="10" s:pid="A"/>
  </g>
  <g s:type="outputExt" transform="translate(1488,609)" s:width="30" s:height="20" id="cell_error_double">
    <text x="15" y="-4" class="nodelabel cell_error_double" s:attribute="ref">error_double</text>
    <s:alias val="$_outputExt_"/>
    <path d="M30,0 L30,20 L15,20 L0,10 L15,0 Z" class="cell_error_double"/>
    <g s:x="0" s:y="10" s:pid="A"/>
  </g>
  <g s:type="constant" transform="translate(1368,206)" s:width="30" s:height="20" id="cell_0000">
    <text x="15" y="-4" class="nodelabel cell_0000" s:attribute="ref">0x0</text>
    <s:alias val="$_constant_"/>
    <rect width="30" height="20" class="cell_0000"/>
    <g s:x="30" s:y="10" s:pid="Y"/>
  </g>
  <g s:type="constant" transform="translate(1230,22)" s:width="30" s:height="20" id="cell_0">
    <text x="15" y="-4" class="nodelabel cell_0" s:attribute="ref">0</text>
    <s:alias val="$_constant_"/>
    <rect width="30" height="20" class="cell_0"/>
    <g s:x="30" s:y="10" s:pid="Y"/>
  </g>
  <g s:type="constant" transform="translate(1230,87)" s:width="30" s:height="20" id="cell_1">
    <text x="15" y="-4" class="nodelabel cell_1" s:attribute="ref">1</text>
    <s:alias val="$_constant_"/>
    <rect width="30" height="20" class="cell_1"/>
    <g s:x="30" s:y="10" s:pid="Y"/>
  </g>
  <g s:type="join" transform="translate(1165.75,142)" s:width="4" s:height="40" id="cell_$join$,25,26,27,28,">
    <rect width="5" height="80" class="splitjoinBody" s:generic="body"/>
    <s:alias val="$_join_"/>
    <g s:x="5" s:y="20" s:pid="out"/>
    <g transform="translate(0,10)" s:x="0" s:y="10" s:pid="in0">
      <text x="-3" y="-4" class="inputPortLabel">0</text>
    </g>
    <g transform="translate(0,30)" s:x="0" s:y="10" s:pid="in0">
      <text x="-3" y="-4" class="inputPortLabel">1</text>
    </g>
    <g transform="translate(0,50)" s:x="0" s:y="10" s:pid="in0">
      <text x="-3" y="-4" class="inputPortLabel">2</text>
    </g>
    <g transform="translate(0,70)" s:x="0" s:y="10" s:pid="in0">
      <text x="-3" y="-4" class="inputPortLabel">3</text>
    </g>
  </g>
  <g s:type="split" transform="translate(89,430)" s:width="5" s:height="40" id="cell_$split$,2,3,4,5,6,7,8,9,10,11,12,13,14,15,16,17,">
    <rect width="5" height="320" class="splitjoinBody" s:generic="body"/>
    <s:alias val="$_split_"/>
    <g s:x="0" s:y="20" s:pid="in"/>
    <g transform="translate(4,10)" s:x="4" s:y="10" s:pid="out0">
      <text x="5" y="-4">9</text>
    </g>
    <g transform="translate(4,30)" s:x="4" s:y="10" s:pid="out0">
      <text x="5" y="-4">11</text>
    </g>
    <g transform="translate(4,50)" s:x="4" s:y="10" s:pid="out0">
      <text x="5" y="-4">13</text>
    </g>
    <g transform="translate(4,70)" s:x="4" s:y="10" s:pid="out0">
      <text x="5" y="-4">15</text>
    </g>
    <g transform="translate(4,90)" s:x="4" s:y="10" s:pid="out0">
      <text x="5" y="-4">2</text>
    </g>
    <g transform="translate(4,110)" s:x="4" s:y="10" s:pid="out0">
      <text x="5" y="-4">3</text>
    </g>
    <g transform="translate(4,130)" s:x="4" s:y="10" s:pid="out0">
      <text x="5" y="-4">6</text>
    </g>
    <g transform="translate(4,150)" s:x="4" s:y="10" s:pid="out0">
      <text x="5" y="-4">7</text>
    </g>
    <g transform="translate(4,170)" s:x="4" s:y="10" s:pid="out0">
      <text x="5" y="-4">10</text>
    </g>
    <g transform="translate(4,190)" s:x="4" s:y="10" s:pid="out0">
      <text x="5" y="-4">14</text>
    </g>
    <g transform="translate(4,210)" s:x="4" s:y="10" s:pid="out0">
      <text x="5" y="-4">4</text>
    </g>
    <g transform="translate(4,230)" s:x="4" s:y="10" s:pid="out0">
      <text x="5" y="-4">5</text>
    </g>
    <g transform="translate(4,250)" s:x="4" s:y="10" s:pid="out0">
      <text x="5" y="-4">1</text>
    </g>
    <g transform="translate(4,270)" s:x="4" s:y="10" s:pid="out0">
      <text x="5" y="-4">12</text>
    </g>
    <g transform="translate(4,290)" s:x="4" s:y="10" s:pid="out0">
      <text x="5" y="-4">8</text>
    </g>
    <g transform="translate(4,310)" s:x="4" s:y="10" s:pid="out0">
      <text x="5" y="-4">0</text>
    </g>
  </g>
  <line x1="848" x2="886" y1="122.5" y2="122.5" class="net_23"/>
  <line x1="93.5" x2="93.5" y1="440" y2="418" class="net_11"/>
  <line x1="93.5" x2="161" y1="418" y2="418" class="net_11"/>
  <line x1="161" x2="161" y1="418" y2="152" class="net_11"/>
  <line x1="161" x2="858" y1="152" y2="152" class="net_11"/>
  <line x1="858" x2="858" y1="152" y2="137.5" class="net_11"/>
  <circle cx="161" cy="418" r="2" style="fill:#000" class="net_11"/>
  <line x1="858" x2="886" y1="137.5" y2="137.5" class="net_11"/>
  <line x1="93.5" x2="93.5" y1="440" y2="418" class="net_11"/>
  <line x1="93.5" x2="682" y1="418" y2="418" class="net_11"/>
  <line x1="93.5" x2="93.5" y1="440" y2="418" class="net_11"/>
  <line x1="93.5" x2="161" y1="418" y2="418" class="net_11"/>
  <line x1="161" x2="161" y1="418" y2="771" class="net_11"/>
  <line x1="161" x2="790" y1="771" y2="771" class="net_11"/>
  <line x1="790" x2="790" y1="771" y2="579" class="net_11"/>
  <line x1="790" x2="818" y1="579" y2="579" class="net_11"/>
  <line x1="1171.75" x2="1198" y1="162.5" y2="162.5" class="net_25,26,27,28"/>
  <line x1="1198" x2="1198" y1="162.5" y2="185" class="net_25,26,27,28"/>
  <circle cx="1198" cy="162.5" r="2" style="fill:#000" class="net_25,26,27,28"/>
  <line x1="1198" x2="1433" y1="185" y2="185" class="net_25,26,27,28"/>
  <line x1="1171.75" x2="1230" y1="162.5" y2="162.5" class="net_25,26,27,28"/>
  <line x1="1398" x2="1408" y1="216" y2="216" class="net_69,70,71,72"/>
  <line x1="1408" x2="1408" y1="216" y2="205" class="net_69,70,71,72"/>
  <line x1="1408" x2="1433" y1="205" y2="205" class="net_69,70,71,72"/>
  <line x1="1398" x2="1443" y1="609" y2="609" class="net_22"/>
  <line x1="1443" x2="1443" y1="609" y2="210" class="net_22"/>
  <line x1="1398" x2="1408" y1="609" y2="609" class="net_22"/>
  <line x1="1408" x2="1408" y1="609" y2="619" class="net_22"/>
  <circle cx="1408" cy="609" r="2" style="fill:#000" class="net_22"/>
  <line x1="1408" x2="1488" y1="619" y2="619" class="net_22"/>
  <line x1="916" x2="954" y1="130" y2="130" class="net_24"/>
  <line x1="93.5" x2="93.5" y1="460" y2="264" class="net_13"/>
  <line x1="93.5" x2="221" y1="264" y2="264" class="net_13"/>
  <line x1="221" x2="221" y1="264" y2="163" class="net_13"/>
  <line x1="221" x2="926" y1="163" y2="163" class="net_13"/>
  <line x1="926" x2="926" y1="163" y2="145" class="net_13"/>
  <circle cx="221" cy="264" r="2" style="fill:#000" class="net_13"/>
  <line x1="926" x2="954" y1="145" y2="145" class="net_13"/>
  <line x1="93.5" x2="93.5" y1="460" y2="264" class="net_13"/>
  <line x1="93.5" x2="926" y1="264" y2="264" class="net_13"/>
  <line x1="926" x2="926" y1="264" y2="246" class="net_13"/>
  <line x1="926" x2="954" y1="246" y2="246" class="net_13"/>
  <line x1="93.5" x2="93.5" y1="460" y2="264" class="net_13"/>
  <line x1="93.5" x2="221" y1="264" y2="264" class="net_13"/>
  <line x1="221" x2="221" y1="264" y2="444" class="net_13"/>
  <line x1="221" x2="790" y1="444" y2="444" class="net_13"/>
  <line x1="790" x2="790" y1="444" y2="433" class="net_13"/>
  <circle cx="221" cy="444" r="2" style="fill:#000" class="net_13"/>
  <line x1="790" x2="818" y1="433" y2="433" class="net_13"/>
  <line x1="93.5" x2="93.5" y1="460" y2="264" class="net_13"/>
  <line x1="93.5" x2="221" y1="264" y2="264" class="net_13"/>
  <line x1="221" x2="221" y1="264" y2="793" class="net_13"/>
  <line x1="221" x2="926" y1="793" y2="793" class="net_13"/>
  <line x1="926" x2="926" y1="793" y2="594" class="net_13"/>
  <line x1="926" x2="954" y1="594" y2="594" class="net_13"/>
  <line x1="984" x2="1022" y1="137.5" y2="137.5" class="net_29"/>
  <line x1="94" x2="171" y1="480.5" y2="480.5" class="net_15"/>
  <line x1="171" x2="171" y1="480.5" y2="174" class="net_15"/>
  <line x1="171" x2="994" y1="174" y2="174" class="net_15"/>
  <line x1="994" x2="994" y1="174" y2="152.5" class="net_15"/>
  <circle cx="171" cy="480.5" r="2" style="fill:#000" class="net_15"/>
  <line x1="994" x2="1022" y1="152.5" y2="152.5" class="net_15"/>
  <line x1="94" x2="171" y1="480.5" y2="480.5" class="net_15"/>
  <line x1="171" x2="171" y1="480.5" y2="365" class="net_15"/>
  <line x1="171" x2="926" y1="365" y2="365" class="net_15"/>
  <line x1="926" x2="926" y1="365" y2="347" class="net_15"/>
  <circle cx="171" cy="365" r="2" style="fill:#000" class="net_15"/>
  <line x1="926" x2="954" y1="347" y2="347" class="net_15"/>
  <line x1="94" x2="171" y1="480.5" y2="480.5" class="net_15"/>
  <line x1="171" x2="171" y1="480.5" y2="466" class="net_15"/>
  <line x1="171" x2="926" y1="466" y2="466" class="net_15"/>
  <line x1="926" x2="926" y1="466" y2="448" class="net_15"/>
  <circle cx="171" cy="466" r="2" style="fill:#000" class="net_15"/>
  <line x1="926" x2="954" y1="448" y2="448" class="net_15"/>
  <line x1="94" x2="171" y1="480.5" y2="480.5" class="net_15"/>
  <line x1="171" x2="171" y1="480.5" y2="815" class="net_15"/>
  <line x1="171" x2="1062" y1="815" y2="815" class="net_15"/>
  <line x1="1062" x2="1062" y1="815" y2="609" class="net_15"/>
  <line x1="1062" x2="1090" y1="609" y2="609" class="net_15"/>
  <line x1="1052" x2="1090" y1="145" y2="145" class="net_30"/>
  <line x1="94" x2="211" y1="500.5" y2="500.5" class="net_17"/>
  <line x1="211" x2="211" y1="500.5" y2="185" class="net_17"/>
  <line x1="211" x2="1062" y1="185" y2="185" class="net_17"/>
  <line x1="1062" x2="1062" y1="185" y2="160" class="net_17"/>
  <circle cx="211" cy="500.5" r="2" style="fill:#000" class="net_17"/>
  <line x1="1062" x2="1090" y1="160" y2="160" class="net_17"/>
  <line x1="94" x2="211" y1="500.5" y2="500.5" class="net_17"/>
  <line x1="211" x2="211" y1="500.5" y2="286" class="net_17"/>
  <line x1="211" x2="1062" y1="286" y2="286" class="net_17"/>
  <line x1="1062" x2="1062" y1="286" y2="261" class="net_17"/>
  <circle cx="211" cy="286" r="2" style="fill:#000" class="net_17"/>
  <line x1="1062" x2="1090" y1="261" y2="261" class="net_17"/>
  <line x1="94" x2="211" y1="500.5" y2="500.5" class="net_17"/>
  <line x1="211" x2="211" y1="500.5" y2="387" class="net_17"/>
  <line x1="211" x2="1062" y1="387" y2="387" class="net_17"/>
  <line x1="1062" x2="1062" y1="387" y2="362" class="net_17"/>
  <circle cx="211" cy="387" r="2" style="fill:#000" class="net_17"/>
  <line x1="1062" x2="1090" y1="362" y2="362" class="net_17"/>
  <line x1="94" x2="211" y1="500.5" y2="500.5" class="net_17"/>
  <line x1="211" x2="211" y1="500.5" y2="488" class="net_17"/>
  <line x1="211" x2="1062" y1="488" y2="488" class="net_17"/>
  <line x1="1062" x2="1062" y1="488" y2="463" class="net_17"/>
  <circle cx="211" cy="488" r="2" style="fill:#000" class="net_17"/>
  <line x1="1062" x2="1090" y1="463" y2="463" class="net_17"/>
  <line x1="94" x2="211" y1="500.5" y2="500.5" class="net_17"/>
  <line x1="211" x2="211" y1="500.5" y2="837" class="net_17"/>
  <line x1="211" x2="1198" y1="837" y2="837" class="net_17"/>
  <line x1="1198" x2="1198" y1="837" y2="624" class="net_17"/>
  <line x1="1198" x2="1232.3333333333333" y1="624" y2="624" class="net_17"/>
  <line x1="94" x2="111" y1="520.5" y2="520.5" class="net_4"/>
  <line x1="111" x2="111" y1="520.5" y2="201" class="net_4"/>
  <circle cx="111" cy="520.5" r="2" style="fill:#000" class="net_4"/>
  <line x1="111" x2="682" y1="201" y2="201" class="net_4"/>
  <line x1="94" x2="111" y1="520.5" y2="520.5" class="net_4"/>
  <line x1="111" x2="111" y1="520.5" y2="534" class="net_4"/>
  <line x1="111" x2="314" y1="534" y2="534" class="net_4"/>
  <line x1="314" x2="314" y1="534" y2="526.5" class="net_4"/>
  <line x1="314" x2="342" y1="526.5" y2="526.5" class="net_4"/>
  <line x1="94" x2="131" y1="540.5" y2="540.5" class="net_5"/>
  <line x1="131" x2="131" y1="540.5" y2="216" class="net_5"/>
  <circle cx="131" cy="540.5" r="2" style="fill:#000" class="net_5"/>
  <circle cx="131" cy="216" r="2" style="fill:#000" class="net_5"/>
  <line x1="131" x2="682" y1="216" y2="216" class="net_5"/>
  <line x1="94" x2="131" y1="540.5" y2="540.5" class="net_5"/>
  <line x1="131" x2="131" y1="540.5" y2="115" class="net_5"/>
  <line x1="131" x2="682" y1="115" y2="115" class="net_5"/>
  <line x1="94" x2="131" y1="540.5" y2="540.5" class="net_5"/>
  <line x1="131" x2="131" y1="540.5" y2="545" class="net_5"/>
  <line x1="131" x2="382" y1="545" y2="545" class="net_5"/>
  <line x1="382" x2="382" y1="545" y2="534" class="net_5"/>
  <line x1="382" x2="410" y1="534" y2="534" class="net_5"/>
  <line x1="712" x2="750" y1="208.5" y2="208.5" class="net_31"/>
  <line x1="94" x2="191" y1="560.5" y2="560.5" class="net_8"/>
  <line x1="191" x2="191" y1="560.5" y2="231" class="net_8"/>
  <line x1="191" x2="722" y1="231" y2="231" class="net_8"/>
  <line x1="722" x2="722" y1="231" y2="223.5" class="net_8"/>
  <circle cx="191" cy="560.5" r="2" style="fill:#000" class="net_8"/>
  <line x1="722" x2="750" y1="223.5" y2="223.5" class="net_8"/>
  <line x1="94" x2="191" y1="560.5" y2="560.5" class="net_8"/>
  <line x1="191" x2="191" y1="560.5" y2="332" class="net_8"/>
  <line x1="191" x2="722" y1="332" y2="332" class="net_8"/>
  <line x1="722" x2="722" y1="332" y2="324.5" class="net_8"/>
  <circle cx="191" cy="332" r="2" style="fill:#000" class="net_8"/>
  <line x1="722" x2="750" y1="324.5" y2="324.5" class="net_8"/>
  <line x1="94" x2="191" y1="560.5" y2="560.5" class="net_8"/>
  <line x1="191" x2="191" y1="560.5" y2="578" class="net_8"/>
  <line x1="191" x2="586" y1="578" y2="578" class="net_8"/>
  <line x1="586" x2="586" y1="578" y2="556.5" class="net_8"/>
  <line x1="586" x2="614" y1="556.5" y2="556.5" class="net_8"/>
  <line x1="780" x2="818" y1="216" y2="216" class="net_32"/>
  <line x1="94" x2="181" y1="580.5" y2="580.5" class="net_9"/>
  <line x1="181" x2="181" y1="580.5" y2="242" class="net_9"/>
  <line x1="181" x2="790" y1="242" y2="242" class="net_9"/>
  <line x1="790" x2="790" y1="242" y2="231" class="net_9"/>
  <circle cx="181" cy="580.5" r="2" style="fill:#000" class="net_9"/>
  <circle cx="181" cy="242" r="2" style="fill:#000" class="net_9"/>
  <line x1="790" x2="818" y1="231" y2="231" class="net_9"/>
  <line x1="94" x2="181" y1="580.5" y2="580.5" class="net_9"/>
  <line x1="181" x2="181" y1="580.5" y2="343" class="net_9"/>
  <line x1="181" x2="790" y1="343" y2="343" class="net_9"/>
  <line x1="790" x2="790" y1="343" y2="332" class="net_9"/>
  <circle cx="181" cy="343" r="2" style="fill:#000" class="net_9"/>
  <line x1="790" x2="818" y1="332" y2="332" class="net_9"/>
  <line x1="94" x2="181" y1="580.5" y2="580.5" class="net_9"/>
  <line x1="181" x2="181" y1="580.5" y2="141" class="net_9"/>
  <line x1="181" x2="790" y1="141" y2="141" class="net_9"/>
  <line x1="790" x2="790" y1="141" y2="130" class="net_9"/>
  <line x1="790" x2="818" y1="130" y2="130" class="net_9"/>
  <line x1="94" x2="181" y1="580.5" y2="580.5" class="net_9"/>
  <line x1="181" x2="181" y1="580.5" y2="589" class="net_9"/>
  <line x1="181" x2="654" y1="589" y2="589" class="net_9"/>
  <line x1="654" x2="654" y1="589" y2="564" class="net_9"/>
  <line x1="654" x2="682" y1="564" y2="564" class="net_9"/>
  <line x1="848" x2="886" y1="223.5" y2="223.5" class="net_33"/>
  <line x1="94" x2="231" y1="600.5" y2="600.5" class="net_12"/>
  <line x1="231" x2="231" y1="600.5" y2="253" class="net_12"/>
  <line x1="231" x2="858" y1="253" y2="253" class="net_12"/>
  <line x1="858" x2="858" y1="253" y2="238.5" class="net_12"/>
  <circle cx="231" cy="600.5" r="2" style="fill:#000" class="net_12"/>
  <line x1="858" x2="886" y1="238.5" y2="238.5" class="net_12"/>
  <line x1="94" x2="231" y1="600.5" y2="600.5" class="net_12"/>
  <line x1="231" x2="231" y1="600.5" y2="433" class="net_12"/>
  <line x1="231" x2="722" y1="433" y2="433" class="net_12"/>
  <line x1="722" x2="722" y1="433" y2="425.5" class="net_12"/>
  <circle cx="231" cy="433" r="2" style="fill:#000" class="net_12"/>
  <line x1="722" x2="750" y1="425.5" y2="425.5" class="net_12"/>
  <line x1="94" x2="231" y1="600.5" y2="600.5" class="net_12"/>
  <line x1="231" x2="231" y1="600.5" y2="782" class="net_12"/>
  <line x1="231" x2="858" y1="782" y2="782" class="net_12"/>
  <line x1="858" x2="858" y1="782" y2="586.5" class="net_12"/>
  <line x1="858" x2="886" y1="586.5" y2="586.5" class="net_12"/>
  <line x1="916" x2="954" y1="231" y2="231" class="net_34"/>
  <line x1="984" x2="1022" y1="238.5" y2="238.5" class="net_35"/>
  <line x1="94" x2="241" y1="620.5" y2="620.5" class="net_16"/>
  <line x1="241" x2="241" y1="620.5" y2="275" class="net_16"/>
  <line x1="241" x2="994" y1="275" y2="275" class="net_16"/>
  <line x1="994" x2="994" y1="275" y2="253.5" class="net_16"/>
  <circle cx="241" cy="620.5" r="2" style="fill:#000" class="net_16"/>
  <line x1="994" x2="1022" y1="253.5" y2="253.5" class="net_16"/>
  <line x1="94" x2="241" y1="620.5" y2="620.5" class="net_16"/>
  <line x1="241" x2="241" y1="620.5" y2="376" class="net_16"/>
  <line x1="241" x2="994" y1="376" y2="376" class="net_16"/>
  <line x1="994" x2="994" y1="376" y2="354.5" class="net_16"/>
  <circle cx="241" cy="376" r="2" style="fill:#000" class="net_16"/>
  <line x1="994" x2="1022" y1="354.5" y2="354.5" class="net_16"/>
  <line x1="94" x2="241" y1="620.5" y2="620.5" class="net_16"/>
  <line x1="241" x2="241" y1="620.5" y2="477" class="net_16"/>
  <line x1="241" x2="994" y1="477" y2="477" class="net_16"/>
  <line x1="994" x2="994" y1="477" y2="455.5" class="net_16"/>
  <circle cx="241" cy="477" r="2" style="fill:#000" class="net_16"/>
  <line x1="994" x2="1022" y1="455.5" y2="455.5" class="net_16"/>
  <line x1="94" x2="241" y1="620.5" y2="620.5" class="net_16"/>
  <line x1="241" x2="241" y1="620.5" y2="826" class="net_16"/>
  <line x1="241" x2="1130" y1="826" y2="826" class="net_16"/>
  <line x1="1130" x2="1130" y1="826" y2="616.5" class="net_16"/>
  <line x1="1130" x2="1158" y1="616.5" y2="616.5" class="net_16"/>
  <line x1="1052" x2="1090" y1="246" y2="246" class="net_36"/>
  <line x1="94" x2="201" y1="640.5" y2="640.5" class="net_6"/>
  <line x1="201" x2="201" y1="640.5" y2="302" class="net_6"/>
  <line x1="201" x2="682" y1="302" y2="302" class="net_6"/>
  <line x1="94" x2="201" y1="640.5" y2="640.5" class="net_6"/>
  <line x1="201" x2="201" y1="640.5" y2="556" class="net_6"/>
  <line x1="201" x2="450" y1="556" y2="556" class="net_6"/>
  <line x1="450" x2="450" y1="556" y2="541.5" class="net_6"/>
  <circle cx="201" cy="556" r="2" style="fill:#000" class="net_6"/>
  <line x1="450" x2="478" y1="541.5" y2="541.5" class="net_6"/>
  <line x1="94" x2="141" y1="660.5" y2="660.5" class="net_7"/>
  <line x1="141" x2="141" y1="660.5" y2="317" class="net_7"/>
  <circle cx="141" cy="317" r="2" style="fill:#000" class="net_7"/>
  <line x1="141" x2="682" y1="317" y2="317" class="net_7"/>
  <line x1="94" x2="141" y1="660.5" y2="660.5" class="net_7"/>
  <line x1="141" x2="141" y1="660.5" y2="130" class="net_7"/>
  <line x1="141" x2="722" y1="130" y2="130" class="net_7"/>
  <line x1="722" x2="722" y1="130" y2="122.5" class="net_7"/>
  <line x1="722" x2="750" y1="122.5" y2="122.5" class="net_7"/>
  <line x1="94" x2="141" y1="660.5" y2="660.5" class="net_7"/>
  <line x1="141" x2="141" y1="660.5" y2="567" class="net_7"/>
  <line x1="141" x2="518" y1="567" y2="567" class="net_7"/>
  <line x1="518" x2="518" y1="567" y2="549" class="net_7"/>
  <circle cx="141" cy="567" r="2" style="fill:#000" class="net_7"/>
  <line x1="518" x2="546" y1="549" y2="549" class="net_7"/>
  <line x1="712" x2="750" y1="309.5" y2="309.5" class="net_37"/>
  <line x1="780" x2="818" y1="317" y2="317" class="net_38"/>
  <line x1="94" x2="121" y1="680.5" y2="680.5" class="net_3"/>
  <line x1="121" x2="121" y1="680.5" y2="100" class="net_3"/>
  <line x1="121" x2="682" y1="100" y2="100" class="net_3"/>
  <line x1="94" x2="121" y1="680.5" y2="680.5" class="net_3"/>
  <line x1="121" x2="121" y1="680.5" y2="519" class="net_3"/>
  <circle cx="121" cy="519" r="2" style="fill:#000" class="net_3"/>
  <line x1="121" x2="274" y1="519" y2="519" class="net_3"/>
  <line x1="848" x2="886" y1="324.5" y2="324.5" class="net_39"/>
  <line x1="94" x2="251" y1="700.5" y2="700.5" class="net_14"/>
  <line x1="251" x2="251" y1="700.5" y2="354" class="net_14"/>
  <line x1="251" x2="858" y1="354" y2="354" class="net_14"/>
  <line x1="858" x2="858" y1="354" y2="339.5" class="net_14"/>
  <circle cx="251" cy="700.5" r="2" style="fill:#000" class="net_14"/>
  <line x1="858" x2="886" y1="339.5" y2="339.5" class="net_14"/>
  <line x1="94" x2="251" y1="700.5" y2="700.5" class="net_14"/>
  <line x1="251" x2="251" y1="700.5" y2="455" class="net_14"/>
  <line x1="251" x2="858" y1="455" y2="455" class="net_14"/>
  <line x1="858" x2="858" y1="455" y2="440.5" class="net_14"/>
  <circle cx="251" cy="455" r="2" style="fill:#000" class="net_14"/>
  <line x1="858" x2="886" y1="440.5" y2="440.5" class="net_14"/>
  <line x1="94" x2="251" y1="700.5" y2="700.5" class="net_14"/>
  <line x1="251" x2="251" y1="700.5" y2="804" class="net_14"/>
  <line x1="251" x2="994" y1="804" y2="804" class="net_14"/>
  <line x1="994" x2="994" y1="804" y2="601.5" class="net_14"/>
  <line x1="994" x2="1022" y1="601.5" y2="601.5" class="net_14"/>
  <line x1="916" x2="954" y1="332" y2="332" class="net_41"/>
  <line x1="984" x2="1022" y1="339.5" y2="339.5" class="net_42"/>
  <line x1="1052" x2="1090" y1="347" y2="347" class="net_43"/>
  <line x1="93.5" x2="93.5" y1="721" y2="760" class="net_10"/>
  <line x1="93.5" x2="261" y1="760" y2="760" class="net_10"/>
  <line x1="261" x2="261" y1="760" y2="403" class="net_10"/>
  <circle cx="261" cy="760" r="2" style="fill:#000" class="net_10"/>
  <line x1="261" x2="682" y1="403" y2="403" class="net_10"/>
  <line x1="93.5" x2="93.5" y1="721" y2="760" class="net_10"/>
  <line x1="93.5" x2="722" y1="760" y2="760" class="net_10"/>
  <line x1="722" x2="722" y1="760" y2="571.5" class="net_10"/>
  <line x1="722" x2="750" y1="571.5" y2="571.5" class="net_10"/>
  <line x1="712" x2="750" y1="410.5" y2="410.5" class="net_44"/>
  <line x1="780" x2="818" y1="418" y2="418" class="net_45"/>
  <line x1="848" x2="886" y1="425.5" y2="425.5" class="net_46"/>
  <line x1="916" x2="954" y1="433" y2="433" class="net_47"/>
  <line x1="984" x2="1022" y1="440.5" y2="440.5" class="net_48"/>
  <line x1="712" x2="750" y1="107.5" y2="107.5" class="net_40"/>
  <line x1="1052" x2="1090" y1="448" y2="448" class="net_49"/>
  <line x1="1260" x2="1306.3333333333333" y1="32" y2="32" class="net_73"/>
  <line x1="1260" x2="1278" y1="97" y2="97" class="net_74"/>
  <line x1="1278" x2="1278" y1="97" y2="52" class="net_74"/>
  <line x1="1278" x2="1306.3333333333333" y1="52" y2="52" class="net_74"/>
  <line x1="1261" x2="1316.3333333333333" y1="162.5" y2="162.5" class="net_51"/>
  <line x1="1316.3333333333333" x2="1316.3333333333333" y1="162.5" y2="57" class="net_51"/>
  <line x1="93.5" x2="93.5" y1="741" y2="770" class="net_2"/>
  <line x1="93.5" x2="151" y1="770" y2="770" class="net_2"/>
  <line x1="151" x2="151" y1="770" y2="504" class="net_2"/>
  <line x1="151" x2="274" y1="504" y2="504" class="net_2"/>
  <line x1="304" x2="342" y1="511.5" y2="511.5" class="net_53"/>
  <line x1="372" x2="410" y1="519" y2="519" class="net_54"/>
  <line x1="440" x2="478" y1="526.5" y2="526.5" class="net_55"/>
  <line x1="508" x2="546" y1="534" y2="534" class="net_56"/>
  <line x1="576" x2="614" y1="541.5" y2="541.5" class="net_57"/>
  <line x1="780" x2="818" y1="115" y2="115" class="net_50"/>
  <line x1="644" x2="682" y1="549" y2="549" class="net_58"/>
  <line x1="712" x2="750" y1="556.5" y2="556.5" class="net_59"/>
  <line x1="780" x2="818" y1="564" y2="564" class="net_60"/>
  <line x1="848" x2="886" y1="571.5" y2="571.5" class="net_61"/>
  <line x1="916" x2="954" y1="579" y2="579" class="net_62"/>
  <line x1="984" x2="1022" y1="586.5" y2="586.5" class="net_63"/>
  <line x1="1052" x2="1090" y1="594" y2="594" class="net_64"/>
  <line x1="1120" x2="1158" y1="601.5" y2="601.5" class="net_65"/>
  <line x1="1188" x2="1232.3333333333333" y1="609" y2="609" class="net_66"/>
  <line x1="1262.3333333333333" x2="1303" y1="616.5" y2="616.5" class="net_67"/>
  <line x1="1326.3333333333333" x2="1343" y1="42" y2="42" class="net_52"/>
  <line x1="1343" x2="1343" y1="42" y2="601.5" class="net_52"/>
  <line x1="1343" x2="1368" y1="601.5" y2="601.5" class="net_52"/>
  <line x1="1328" x2="1368" y1="616.5" y2="616.5" class="net_68"/>
  <line x1="1453" x2="1488" y1="195" y2="195" class="net_18,19,20,21"/>
  <line x1="1120" x2="1165.75" y1="152.5" y2="152.5" class="net_25"/>
  <line x1="1120" x2="1130" y1="253.5" y2="253.5" class="net_26"/>
  <line x1="1130" x2="1130" y1="253.5" y2="172.5" class="net_26"/>
  <line x1="1130" x2="1165.75" y1="172.5" y2="172.5" class="net_26"/>
  <line x1="1120" x2="1140" y1="354.5" y2="354.5" class="net_27"/>
  <line x1="1140" x2="1140" y1="354.5" y2="192.5" class="net_27"/>
  <line x1="1140" x2="1165.75" y1="192.5" y2="192.5" class="net_27"/>
  <line x1="1120" x2="1166.25" y1="455.5" y2="455.5" class="net_28"/>
  <line x1="1166.25" x2="1166.25" y1="455.5" y2="213" class="net_28"/>
  <line x1="40" x2="89.5" y1="229" y2="229" class="net_2,3,4,5,6,7,8,9,10,11,12,13,14,15,16,17"/>
  <line x1="89.5" x2="89.5" y1="229" y2="450" class="net_2,3,4,5,6,7,8,9,10,11,12,13,14,15,16,17"/>
</svg>
