<svg xmlns="http://www.w3.org/2000/svg" xmlns:xlink="http://www.w3.org/1999/xlink" xmlns:s="https://github.com/nturley/netlistsvg" width="826" height="1008.5">
  <style>svg {
    stroke:#000;
    fill:none;
  }
  text {
    fill:#000;
    stroke:none;
    font-size:10px;
    font-weight: bold;
    font-family: "Courier New", monospace;
  }
  line {
      stroke-linecap: round;
  }
  .nodelabel {
    text-anchor: middle;
  }
  .inputPortLabel {
    text-anchor: end;
  }
  .splitjoinBody {
    fill:#000;
  }</style>
  <g s:type="and" transform="translate(451,68)" s:width="30" s:height="25" id="cell_\10">
    <s:alias val="$and"/>
    <s:alias val="$logic_and"/>
    <s:alias val="$_AND_"/>
    <path d="M0,0 L0,25 L15,25 A15 12.5 0 0 0 15,0 Z" class="cell_\10"/>
    <g s:x="0" s:y="5" s:pid="A"/>
    <g s:x="0" s:y="20" s:pid="B"/>
    <g s:x="30" s:y="12.5" s:pid="Y"/>
  </g>
  <g s:type="and" transform="translate(302.3333333333333,776.5)" s:width="30" s:height="25" id="cell_\100">
    <s:alias val="$and"/>
    <s:alias val="$logic_and"/>
    <s:alias val="$_AND_"/>
    <path d="M0,0 L0,25 L15,25 A15 12.5 0 0 0 15,0 Z" class="cell_\100"/>
    <g s:x="0" s:y="5" s:pid="A"/>
    <g s:x="0" s:y="20" s:pid="B"/>
    <g s:x="30" s:y="12.5" s:pid="Y"/>
  </g>
  <g s:type="and" transform="translate(380.6666666666667,904)" s:width="30" s:height="25" id="cell_\102">
    <s:alias val="$and"/>
    <s:alias val="$logic_and"/>
    <s:alias val="$_AND_"/>
    <path d="M0,0 L0,25 L15,25 A15 12.5 0 0 0 15,0 Z" class="cell_\102"/>
    <g s:x="0" s:y="5" s:pid="A"/>
    <g s:x="0" s:y="20" s:pid="B"/>
    <g s:x="30" s:y="12.5" s:pid="Y"/>
  </g>
  <g s:type="not" transform="translate(381,681.5)" s:width="30" s:height="20" id="cell_\104">
    <s:alias val="$_NOT_"/>
    <s:alias val="$not"/>
    <s:alias val="$logic_not"/>
    <path d="M0,0 L0,20 L20,10 Z" class="cell_\104"/>
    <circle cx="24" cy="10" r="3" class="cell_\104"/>
    <g s:x="-1" s:y="10" s:pid="A"/>
    <g s:x="27" s:y="10" s:pid="Y"/>
  </g>
  <g s:type="and" transform="translate(451,911.5)" s:width="30" s:height="25" id="cell_\105">
    <s:alias val="$and"/>
    <s:alias val="$logic_and"/>
    <s:alias val="$_AND_"/>
    <path d="M0,0 L0,25 L15,25 A15 12.5 0 0 0 15,0 Z" class="cell_\105"/>
    <g s:x="0" s:y="5" s:pid="A"/>
    <g s:x="0" s:y="20" s:pid="B"/>
    <g s:x="30" s:y="12.5" s:pid="Y"/>
  </g>
  <g s:type="reduce_xor" transform="translate(561,904)" s:width="33" s:height="25" id="cell_\106">
    <s:alias val="$xor"/>
    <s:alias val="$reduce_xor"/>
    <s:alias val="$_XOR_"/>
    <path d="M3,0 A30 25 0 0 1 3,25 A30 25 0 0 0 33,12.5 A30 25 0 0 0 3,0" class="cell_\106"/>
    <path d="M0,0 A30 25 0 0 1 0,25" class="cell_\106"/>
    <g s:x="2" s:y="5" s:pid="A"/>
    <g s:x="2" s:y="20" s:pid="B"/>
    <g s:x="33" s:y="12.5" s:pid="Y"/>
  </g>
  <g s:type="reduce_xor" transform="translate(561,60.5)" s:width="33" s:height="25" id="cell_\11">
    <s:alias val="$xor"/>
    <s:alias val="$reduce_xor"/>
    <s:alias val="$_XOR_"/>
    <path d="M3,0 A30 25 0 0 1 3,25 A30 25 0 0 0 33,12.5 A30 25 0 0 0 3,0" class="cell_\11"/>
    <path d="M0,0 A30 25 0 0 1 0,25" class="cell_\11"/>
    <g s:x="2" s:y="5" s:pid="A"/>
    <g s:x="2" s:y="20" s:pid="B"/>
    <g s:x="33" s:y="12.5" s:pid="Y"/>
  </g>
  <g s:type="and" transform="translate(451,971.5)" s:width="30" s:height="25" id="cell_\114">
    <s:alias val="$and"/>
    <s:alias val="$logic_and"/>
    <s:alias val="$_AND_"/>
    <path d="M0,0 L0,25 L15,25 A15 12.5 0 0 0 15,0 Z" class="cell_\114"/>
    <g s:x="0" s:y="5" s:pid="A"/>
    <g s:x="0" s:y="20" s:pid="B"/>
    <g s:x="30" s:y="12.5" s:pid="Y"/>
  </g>
  <g s:type="reduce_xor" transform="translate(561,964)" s:width="33" s:height="25" id="cell_\115">
    <s:alias val="$xor"/>
    <s:alias val="$reduce_xor"/>
    <s:alias val="$_XOR_"/>
    <path d="M3,0 A30 25 0 0 1 3,25 A30 25 0 0 0 33,12.5 A30 25 0 0 0 3,0" class="cell_\115"/>
    <path d="M0,0 A30 25 0 0 1 0,25" class="cell_\115"/>
    <g s:x="2" s:y="5" s:pid="A"/>
    <g s:x="2" s:y="20" s:pid="B"/>
    <g s:x="33" s:y="12.5" s:pid="Y"/>
  </g>
  <g s:type="not" transform="translate(233,58)" s:width="30" s:height="20" id="cell_\14">
    <s:alias val="$_NOT_"/>
    <s:alias val="$not"/>
    <s:alias val="$logic_not"/>
    <path d="M0,0 L0,20 L20,10 Z" class="cell_\14"/>
    <circle cx="24" cy="10" r="3" class="cell_\14"/>
    <g s:x="-1" s:y="10" s:pid="A"/>
    <g s:x="27" s:y="10" s:pid="Y"/>
  </g>
  <g s:type="and" transform="translate(302.3333333333333,99)" s:width="30" s:height="25" id="cell_\16">
    <s:alias val="$and"/>
    <s:alias val="$logic_and"/>
    <s:alias val="$_AND_"/>
    <path d="M0,0 L0,25 L15,25 A15 12.5 0 0 0 15,0 Z" class="cell_\16"/>
    <g s:x="0" s:y="5" s:pid="A"/>
    <g s:x="0" s:y="20" s:pid="B"/>
    <g s:x="30" s:y="12.5" s:pid="Y"/>
  </g>
  <g s:type="not" transform="translate(304,291)" s:width="30" s:height="20" id="cell_\18">
    <s:alias val="$_NOT_"/>
    <s:alias val="$not"/>
    <s:alias val="$logic_not"/>
    <path d="M0,0 L0,20 L20,10 Z" class="cell_\18"/>
    <circle cx="24" cy="10" r="3" class="cell_\18"/>
    <g s:x="-1" s:y="10" s:pid="A"/>
    <g s:x="27" s:y="10" s:pid="Y"/>
  </g>
  <g s:type="and" transform="translate(380.6666666666667,106.5)" s:width="30" s:height="25" id="cell_\19">
    <s:alias val="$and"/>
    <s:alias val="$logic_and"/>
    <s:alias val="$_AND_"/>
    <path d="M0,0 L0,25 L15,25 A15 12.5 0 0 0 15,0 Z" class="cell_\19"/>
    <g s:x="0" s:y="5" s:pid="A"/>
    <g s:x="0" s:y="20" s:pid="B"/>
    <g s:x="30" s:y="12.5" s:pid="Y"/>
  </g>
  <g s:type="and" transform="translate(451,140)" s:width="30" s:height="25" id="cell_\21">
    <s:alias val="$and"/>
    <s:alias val="$logic_and"/>
    <s:alias val="$_AND_"/>
    <path d="M0,0 L0,25 L15,25 A15 12.5 0 0 0 15,0 Z" class="cell_\21"/>
    <g s:x="0" s:y="5" s:pid="A"/>
    <g s:x="0" s:y="20" s:pid="B"/>
    <g s:x="30" s:y="12.5" s:pid="Y"/>
  </g>
  <g s:type="reduce_xor" transform="translate(561,132.5)" s:width="33" s:height="25" id="cell_\22">
    <s:alias val="$xor"/>
    <s:alias val="$reduce_xor"/>
    <s:alias val="$_XOR_"/>
    <path d="M3,0 A30 25 0 0 1 3,25 A30 25 0 0 0 33,12.5 A30 25 0 0 0 3,0" class="cell_\22"/>
    <path d="M0,0 A30 25 0 0 1 0,25" class="cell_\22"/>
    <g s:x="2" s:y="5" s:pid="A"/>
    <g s:x="2" s:y="20" s:pid="B"/>
    <g s:x="33" s:y="12.5" s:pid="Y"/>
  </g>
  <g s:type="and" transform="translate(380.6666666666667,192.5)" s:width="30" s:height="25" id="cell_\29">
    <s:alias val="$and"/>
    <s:alias val="$logic_and"/>
    <s:alias val="$_AND_"/>
    <path d="M0,0 L0,25 L15,25 A15 12.5 0 0 0 15,0 Z" class="cell_\29"/>
    <g s:x="0" s:y="5" s:pid="A"/>
    <g s:x="0" s:y="20" s:pid="B"/>
    <g s:x="30" s:y="12.5" s:pid="Y"/>
  </g>
  <g s:type="and" transform="translate(451,200)" s:width="30" s:height="25" id="cell_\32">
    <s:alias val="$and"/>
    <s:alias val="$logic_and"/>
    <s:alias val="$_AND_"/>
    <path d="M0,0 L0,25 L15,25 A15 12.5 0 0 0 15,0 Z" class="cell_\32"/>
    <g s:x="0" s:y="5" s:pid="A"/>
    <g s:x="0" s:y="20" s:pid="B"/>
    <g s:x="30" s:y="12.5" s:pid="Y"/>
  </g>
  <g s:type="reduce_xor" transform="translate(561,192.5)" s:width="33" s:height="25" id="cell_\33">
    <s:alias val="$xor"/>
    <s:alias val="$reduce_xor"/>
    <s:alias val="$_XOR_"/>
    <path d="M3,0 A30 25 0 0 1 3,25 A30 25 0 0 0 33,12.5 A30 25 0 0 0 3,0" class="cell_\33"/>
    <path d="M0,0 A30 25 0 0 1 0,25" class="cell_\33"/>
    <g s:x="2" s:y="5" s:pid="A"/>
    <g s:x="2" s:y="20" s:pid="B"/>
    <g s:x="33" s:y="12.5" s:pid="Y"/>
  </g>
  <g s:type="and" transform="translate(451,260)" s:width="30" s:height="25" id="cell_\42">
    <s:alias val="$and"/>
    <s:alias val="$logic_and"/>
    <s:alias val="$_AND_"/>
    <path d="M0,0 L0,25 L15,25 A15 12.5 0 0 0 15,0 Z" class="cell_\42"/>
    <g s:x="0" s:y="5" s:pid="A"/>
    <g s:x="0" s:y="20" s:pid="B"/>
    <g s:x="30" s:y="12.5" s:pid="Y"/>
  </g>
  <g s:type="reduce_xor" transform="translate(561,252.5)" s:width="33" s:height="25" id="cell_\43">
    <s:alias val="$xor"/>
    <s:alias val="$reduce_xor"/>
    <s:alias val="$_XOR_"/>
    <path d="M3,0 A30 25 0 0 1 3,25 A30 25 0 0 0 33,12.5 A30 25 0 0 0 3,0" class="cell_\43"/>
    <path d="M0,0 A30 25 0 0 1 0,25" class="cell_\43"/>
    <g s:x="2" s:y="5" s:pid="A"/>
    <g s:x="2" s:y="20" s:pid="B"/>
    <g s:x="33" s:y="12.5" s:pid="Y"/>
  </g>
  <g s:type="not" transform="translate(233,130)" s:width="30" s:height="20" id="cell_\47">
    <s:alias val="$_NOT_"/>
    <s:alias val="$not"/>
    <s:alias val="$logic_not"/>
    <path d="M0,0 L0,20 L20,10 Z" class="cell_\47"/>
    <circle cx="24" cy="10" r="3" class="cell_\47"/>
    <g s:x="-1" s:y="10" s:pid="A"/>
    <g s:x="27" s:y="10" s:pid="Y"/>
  </g>
  <g s:type="and" transform="translate(302.3333333333333,346)" s:width="30" s:height="25" id="cell_\48">
    <s:alias val="$and"/>
    <s:alias val="$logic_and"/>
    <s:alias val="$_AND_"/>
    <path d="M0,0 L0,25 L15,25 A15 12.5 0 0 0 15,0 Z" class="cell_\48"/>
    <g s:x="0" s:y="5" s:pid="A"/>
    <g s:x="0" s:y="20" s:pid="B"/>
    <g s:x="30" s:y="12.5" s:pid="Y"/>
  </g>
  <g s:type="and" transform="translate(380.6666666666667,353.5)" s:width="30" s:height="25" id="cell_\51">
    <s:alias val="$and"/>
    <s:alias val="$logic_and"/>
    <s:alias val="$_AND_"/>
    <path d="M0,0 L0,25 L15,25 A15 12.5 0 0 0 15,0 Z" class="cell_\51"/>
    <g s:x="0" s:y="5" s:pid="A"/>
    <g s:x="0" s:y="20" s:pid="B"/>
    <g s:x="30" s:y="12.5" s:pid="Y"/>
  </g>
  <g s:type="and" transform="translate(451,368.5)" s:width="30" s:height="25" id="cell_\53">
    <s:alias val="$and"/>
    <s:alias val="$logic_and"/>
    <s:alias val="$_AND_"/>
    <path d="M0,0 L0,25 L15,25 A15 12.5 0 0 0 15,0 Z" class="cell_\53"/>
    <g s:x="0" s:y="5" s:pid="A"/>
    <g s:x="0" s:y="20" s:pid="B"/>
    <g s:x="30" s:y="12.5" s:pid="Y"/>
  </g>
  <g s:type="reduce_xor" transform="translate(561,557)" s:width="33" s:height="25" id="cell_\54">
    <s:alias val="$xor"/>
    <s:alias val="$reduce_xor"/>
    <s:alias val="$_XOR_"/>
    <path d="M3,0 A30 25 0 0 1 3,25 A30 25 0 0 0 33,12.5 A30 25 0 0 0 3,0" class="cell_\54"/>
    <path d="M0,0 A30 25 0 0 1 0,25" class="cell_\54"/>
    <g s:x="2" s:y="5" s:pid="A"/>
    <g s:x="2" s:y="20" s:pid="B"/>
    <g s:x="33" s:y="12.5" s:pid="Y"/>
  </g>
  <g s:type="and" transform="translate(302.3333333333333,12)" s:width="30" s:height="25" id="cell_\6">
    <s:alias val="$and"/>
    <s:alias val="$logic_and"/>
    <s:alias val="$_AND_"/>
    <path d="M0,0 L0,25 L15,25 A15 12.5 0 0 0 15,0 Z" class="cell_\6"/>
    <g s:x="0" s:y="5" s:pid="A"/>
    <g s:x="0" s:y="20" s:pid="B"/>
    <g s:x="30" s:y="12.5" s:pid="Y"/>
  </g>
  <g s:type="and" transform="translate(380.6666666666667,621.5)" s:width="30" s:height="25" id="cell_\61">
    <s:alias val="$and"/>
    <s:alias val="$logic_and"/>
    <s:alias val="$_AND_"/>
    <path d="M0,0 L0,25 L15,25 A15 12.5 0 0 0 15,0 Z" class="cell_\61"/>
    <g s:x="0" s:y="5" s:pid="A"/>
    <g s:x="0" s:y="20" s:pid="B"/>
    <g s:x="30" s:y="12.5" s:pid="Y"/>
  </g>
  <g s:type="and" transform="translate(451,671.5)" s:width="30" s:height="25" id="cell_\64">
    <s:alias val="$and"/>
    <s:alias val="$logic_and"/>
    <s:alias val="$_AND_"/>
    <path d="M0,0 L0,25 L15,25 A15 12.5 0 0 0 15,0 Z" class="cell_\64"/>
    <g s:x="0" s:y="5" s:pid="A"/>
    <g s:x="0" s:y="20" s:pid="B"/>
    <g s:x="30" s:y="12.5" s:pid="Y"/>
  </g>
  <g s:type="reduce_xor" transform="translate(561,664)" s:width="33" s:height="25" id="cell_\65">
    <s:alias val="$xor"/>
    <s:alias val="$reduce_xor"/>
    <s:alias val="$_XOR_"/>
    <path d="M3,0 A30 25 0 0 1 3,25 A30 25 0 0 0 33,12.5 A30 25 0 0 0 3,0" class="cell_\65"/>
    <path d="M0,0 A30 25 0 0 1 0,25" class="cell_\65"/>
    <g s:x="2" s:y="5" s:pid="A"/>
    <g s:x="2" s:y="20" s:pid="B"/>
    <g s:x="33" s:y="12.5" s:pid="Y"/>
  </g>
  <g s:type="and" transform="translate(451,731.5)" s:width="30" s:height="25" id="cell_\74">
    <s:alias val="$and"/>
    <s:alias val="$logic_and"/>
    <s:alias val="$_AND_"/>
    <path d="M0,0 L0,25 L15,25 A15 12.5 0 0 0 15,0 Z" class="cell_\74"/>
    <g s:x="0" s:y="5" s:pid="A"/>
    <g s:x="0" s:y="20" s:pid="B"/>
    <g s:x="30" s:y="12.5" s:pid="Y"/>
  </g>
  <g s:type="reduce_xor" transform="translate(561,724)" s:width="33" s:height="25" id="cell_\75">
    <s:alias val="$xor"/>
    <s:alias val="$reduce_xor"/>
    <s:alias val="$_XOR_"/>
    <path d="M3,0 A30 25 0 0 1 3,25 A30 25 0 0 0 33,12.5 A30 25 0 0 0 3,0" class="cell_\75"/>
    <path d="M0,0 A30 25 0 0 1 0,25" class="cell_\75"/>
    <g s:x="2" s:y="5" s:pid="A"/>
    <g s:x="2" s:y="20" s:pid="B"/>
    <g s:x="33" s:y="12.5" s:pid="Y"/>
  </g>
  <g s:type="and" transform="translate(380.6666666666667,27)" s:width="30" s:height="25" id="cell_\8">
    <s:alias val="$and"/>
    <s:alias val="$logic_and"/>
    <s:alias val="$_AND_"/>
    <path d="M0,0 L0,25 L15,25 A15 12.5 0 0 0 15,0 Z" class="cell_\8"/>
    <g s:x="0" s:y="5" s:pid="A"/>
    <g s:x="0" s:y="20" s:pid="B"/>
    <g s:x="30" s:y="12.5" s:pid="Y"/>
  </g>
  <g s:type="and" transform="translate(380.6666666666667,784)" s:width="30" s:height="25" id="cell_\82">
    <s:alias val="$and"/>
    <s:alias val="$logic_and"/>
    <s:alias val="$_AND_"/>
    <path d="M0,0 L0,25 L15,25 A15 12.5 0 0 0 15,0 Z" class="cell_\82"/>
    <g s:x="0" s:y="5" s:pid="A"/>
    <g s:x="0" s:y="20" s:pid="B"/>
    <g s:x="30" s:y="12.5" s:pid="Y"/>
  </g>
  <g s:type="and" transform="translate(451,791.5)" s:width="30" s:height="25" id="cell_\85">
    <s:alias val="$and"/>
    <s:alias val="$logic_and"/>
    <s:alias val="$_AND_"/>
    <path d="M0,0 L0,25 L15,25 A15 12.5 0 0 0 15,0 Z" class="cell_\85"/>
    <g s:x="0" s:y="5" s:pid="A"/>
    <g s:x="0" s:y="20" s:pid="B"/>
    <g s:x="30" s:y="12.5" s:pid="Y"/>
  </g>
  <g s:type="reduce_xor" transform="translate(561,784)" s:width="33" s:height="25" id="cell_\86">
    <s:alias val="$xor"/>
    <s:alias val="$reduce_xor"/>
    <s:alias val="$_XOR_"/>
    <path d="M3,0 A30 25 0 0 1 3,25 A30 25 0 0 0 33,12.5 A30 25 0 0 0 3,0" class="cell_\86"/>
    <path d="M0,0 A30 25 0 0 1 0,25" class="cell_\86"/>
    <g s:x="2" s:y="5" s:pid="A"/>
    <g s:x="2" s:y="20" s:pid="B"/>
    <g s:x="33" s:y="12.5" s:pid="Y"/>
  </g>
  <g s:type="and" transform="translate(451,851.5)" s:width="30" s:height="25" id="cell_\95">
    <s:alias val="$and"/>
    <s:alias val="$logic_and"/>
    <s:alias val="$_AND_"/>
    <path d="M0,0 L0,25 L15,25 A15 12.5 0 0 0 15,0 Z" class="cell_\95"/>
    <g s:x="0" s:y="5" s:pid="A"/>
    <g s:x="0" s:y="20" s:pid="B"/>
    <g s:x="30" s:y="12.5" s:pid="Y"/>
  </g>
  <g s:type="reduce_xor" transform="translate(561,844)" s:width="33" s:height="25" id="cell_\96">
    <s:alias val="$xor"/>
    <s:alias val="$reduce_xor"/>
    <s:alias val="$_XOR_"/>
    <path d="M3,0 A30 25 0 0 1 3,25 A30 25 0 0 0 33,12.5 A30 25 0 0 0 3,0" class="cell_\96"/>
    <path d="M0,0 A30 25 0 0 1 0,25" class="cell_\96"/>
    <g s:x="2" s:y="5" s:pid="A"/>
    <g s:x="2" s:y="20" s:pid="B"/>
    <g s:x="33" s:y="12.5" s:pid="Y"/>
  </g>
  <g s:type="inputExt" transform="translate(298,409.5)" s:width="30" s:height="20" id="cell_data_in">
    <text x="15" y="-4" class="nodelabel cell_data_in" s:attribute="ref">data_in</text>
    <s:alias val="$_inputExt_"/>
    <path d="M0,0 L0,20 L15,20 L30,10 L15,0 Z" class="cell_data_in"/>
    <g s:x="30" s:y="10" s:pid="Y"/>
  </g>
  <g s:type="inputExt" transform="translate(12,331)" s:width="30" s:height="20" id="cell_error_location">
    <text x="15" y="-4" class="nodelabel cell_error_location" s:attribute="ref">error_location</text>
    <s:alias val="$_inputExt_"/>
    <path d="M0,0 L0,20 L15,20 L30,10 L15,0 Z" class="cell_error_location"/>
    <g s:x="30" s:y="10" s:pid="Y"/>
  </g>
  <g s:type="outputExt" transform="translate(766,736.5)" s:width="30" s:height="20" id="cell_data_out">
    <text x="15" y="-4" class="nodelabel cell_data_out" s:attribute="ref">data_out</text>
    <s:alias val="$_outputExt_"/>
    <path d="M30,0 L30,20 L15,20 L0,10 L15,0 Z" class="cell_data_out"/>
    <g s:x="0" s:y="10" s:pid="A"/>
  </g>
  <g s:type="join" transform="translate(684,726)" s:width="4" s:height="40" id="cell_$join$,22,23,24,25,26,27,28,29,30,31,32,">
    <rect width="5" height="220" class="splitjoinBody" s:generic="body"/>
    <s:alias val="$_join_"/>
    <g s:x="5" s:y="20" s:pid="out"/>
    <g transform="translate(0,10)" s:x="0" s:y="10" s:pid="in0">
      <text x="-3" y="-4" class="inputPortLabel">0</text>
    </g>
    <g transform="translate(0,30)" s:x="0" s:y="10" s:pid="in0">
      <text x="-3" y="-4" class="inputPortLabel">1</text>
    </g>
    <g transform="translate(0,50)" s:x="0" s:y="10" s:pid="in0">
      <text x="-3" y="-4" class="inputPortLabel">2</text>
    </g>
    <g transform="translate(0,70)" s:x="0" s:y="10" s:pid="in0">
      <text x="-3" y="-4" class="inputPortLabel">3</text>
    </g>
    <g transform="translate(0,90)" s:x="0" s:y="10" s:pid="in0">
      <text x="-3" y="-4" class="inputPortLabel">4</text>
    </g>
    <g transform="translate(0,110)" s:x="0" s:y="10" s:pid="in0">
      <text x="-3" y="-4" class="inputPortLabel">5</text>
    </g>
    <g transform="translate(0,130)" s:x="0" s:y="10" s:pid="in0">
      <text x="-3" y="-4" class="inputPortLabel">6</text>
    </g>
    <g transform="translate(0,150)" s:x="0" s:y="10" s:pid="in0">
      <text x="-3" y="-4" class="inputPortLabel">7</text>
    </g>
    <g transform="translate(0,170)" s:x="0" s:y="10" s:pid="in0">
      <text x="-3" y="-4" class="inputPortLabel">8</text>
    </g>
    <g transform="translate(0,190)" s:x="0" s:y="10" s:pid="in0">
      <text x="-3" y="-4" class="inputPortLabel">9</text>
    </g>
    <g transform="translate(0,210)" s:x="0" s:y="10" s:pid="in0">
      <text x="-3" y="-4" class="inputPortLabel">10</text>
    </g>
  </g>
  <g s:type="split" transform="translate(170,320.5)" s:width="5" s:height="40" id="cell_$split$,18,19,20,21,">
    <rect width="5" height="80" class="splitjoinBody" s:generic="body"/>
    <s:alias val="$_split_"/>
    <g s:x="0" s:y="20" s:pid="in"/>
    <g transform="translate(4,10)" s:x="4" s:y="10" s:pid="out0">
      <text x="5" y="-4">0</text>
    </g>
    <g transform="translate(4,30)" s:x="4" s:y="10" s:pid="out0">
      <text x="5" y="-4">3</text>
    </g>
    <g transform="translate(4,50)" s:x="4" s:y="10" s:pid="out0">
      <text x="5" y="-4">2</text>
    </g>
    <g transform="translate(4,70)" s:x="4" s:y="10" s:pid="out0">
      <text x="5" y="-4">1</text>
    </g>
  </g>
  <g s:type="split" transform="translate(476,431.5)" s:width="5" s:height="40" id="cell_$split$,2,3,4,5,6,7,8,9,10,11,12,13,14,15,16,17,">
    <rect width="5" height="220" class="splitjoinBody" s:generic="body"/>
    <s:alias val="$_split_"/>
    <g s:x="0" s:y="20" s:pid="in"/>
    <g transform="translate(4,10)" s:x="4" s:y="10" s:pid="out0">
      <text x="5" y="-4">14</text>
    </g>
    <g transform="translate(4,30)" s:x="4" s:y="10" s:pid="out0">
      <text x="5" y="-4">3</text>
    </g>
    <g transform="translate(4,50)" s:x="4" s:y="10" s:pid="out0">
      <text x="5" y="-4">15</text>
    </g>
    <g transform="translate(4,70)" s:x="4" s:y="10" s:pid="out0">
      <text x="5" y="-4">5</text>
    </g>
    <g transform="translate(4,90)" s:x="4" s:y="10" s:pid="out0">
      <text x="5" y="-4">6</text>
    </g>
    <g transform="translate(4,110)" s:x="4" s:y="10" s:pid="out0">
      <text x="5" y="-4">7</text>
    </g>
    <g transform="translate(4,130)" s:x="4" s:y="10" s:pid="out0">
      <text x="5" y="-4">9</text>
    </g>
    <g transform="translate(4,150)" s:x="4" s:y="10" s:pid="out0">
      <text x="5" y="-4">10</text>
    </g>
    <g transform="translate(4,170)" s:x="4" s:y="10" s:pid="out0">
      <text x="5" y="-4">11</text>
    </g>
    <g transform="translate(4,190)" s:x="4" s:y="10" s:pid="out0">
      <text x="5" y="-4">12</text>
    </g>
    <g transform="translate(4,210)" s:x="4" s:y="10" s:pid="out0">
      <text x="5" y="-4">13</text>
    </g>
  </g>
  <line x1="410.6666666666667" x2="421" y1="39.5" y2="39.5" class="net_33 width_1" style="stroke-width: 1"/>
  <line x1="421" x2="421" y1="39.5" y2="73" class="net_33 width_1" style="stroke-width: 1"/>
  <line x1="421" x2="451" y1="73" y2="73" class="net_33 width_1" style="stroke-width: 1"/>
  <line x1="175" x2="222" y1="331" y2="331" class="net_18 width_1" style="stroke-width: 1"/>
  <line x1="222" x2="222" y1="331" y2="88" class="net_18 width_1" style="stroke-width: 1"/>
  <circle cx="222" cy="331" r="2" style="fill:#000" class="net_18 width_1"/>
  <line x1="222" x2="451" y1="88" y2="88" class="net_18 width_1" style="stroke-width: 1"/>
  <line x1="175" x2="222" y1="331" y2="331" class="net_18 width_1" style="stroke-width: 1"/>
  <line x1="222" x2="222" y1="331" y2="751.5" class="net_18 width_1" style="stroke-width: 1"/>
  <line x1="222" x2="370" y1="751.5" y2="751.5" class="net_18 width_1" style="stroke-width: 1"/>
  <line x1="370" x2="370" y1="751.5" y2="691.5" class="net_18 width_1" style="stroke-width: 1"/>
  <circle cx="222" cy="751.5" r="2" style="fill:#000" class="net_18 width_1"/>
  <circle cx="370" cy="751.5" r="2" style="fill:#000" class="net_18 width_1"/>
  <line x1="370" x2="380" y1="691.5" y2="691.5" class="net_18 width_1" style="stroke-width: 1"/>
  <line x1="175" x2="222" y1="331" y2="331" class="net_18 width_1" style="stroke-width: 1"/>
  <line x1="222" x2="222" y1="331" y2="991.5" class="net_18 width_1" style="stroke-width: 1"/>
  <line x1="222" x2="451" y1="991.5" y2="991.5" class="net_18 width_1" style="stroke-width: 1"/>
  <line x1="175" x2="222" y1="331" y2="331" class="net_18 width_1" style="stroke-width: 1"/>
  <line x1="222" x2="222" y1="331" y2="160" class="net_18 width_1" style="stroke-width: 1"/>
  <circle cx="222" cy="160" r="2" style="fill:#000" class="net_18 width_1"/>
  <line x1="222" x2="451" y1="160" y2="160" class="net_18 width_1" style="stroke-width: 1"/>
  <line x1="175" x2="222" y1="331" y2="331" class="net_18 width_1" style="stroke-width: 1"/>
  <line x1="222" x2="222" y1="331" y2="280" class="net_18 width_1" style="stroke-width: 1"/>
  <circle cx="222" cy="280" r="2" style="fill:#000" class="net_18 width_1"/>
  <line x1="222" x2="451" y1="280" y2="280" class="net_18 width_1" style="stroke-width: 1"/>
  <line x1="175" x2="222" y1="331" y2="331" class="net_18 width_1" style="stroke-width: 1"/>
  <line x1="222" x2="222" y1="331" y2="388.5" class="net_18 width_1" style="stroke-width: 1"/>
  <circle cx="222" cy="388.5" r="2" style="fill:#000" class="net_18 width_1"/>
  <line x1="222" x2="451" y1="388.5" y2="388.5" class="net_18 width_1" style="stroke-width: 1"/>
  <line x1="175" x2="222" y1="331" y2="331" class="net_18 width_1" style="stroke-width: 1"/>
  <line x1="222" x2="222" y1="331" y2="751.5" class="net_18 width_1" style="stroke-width: 1"/>
  <line x1="222" x2="451" y1="751.5" y2="751.5" class="net_18 width_1" style="stroke-width: 1"/>
  <line x1="175" x2="222" y1="331" y2="331" class="net_18 width_1" style="stroke-width: 1"/>
  <line x1="222" x2="222" y1="331" y2="871.5" class="net_18 width_1" style="stroke-width: 1"/>
  <circle cx="222" cy="871.5" r="2" style="fill:#000" class="net_18 width_1"/>
  <line x1="222" x2="451" y1="871.5" y2="871.5" class="net_18 width_1" style="stroke-width: 1"/>
  <line x1="175" x2="192" y1="351" y2="351" class="net_21 width_1" style="stroke-width: 1"/>
  <line x1="192" x2="192" y1="351" y2="781.5" class="net_21 width_1" style="stroke-width: 1"/>
  <circle cx="192" cy="351" r="2" style="fill:#000" class="net_21 width_1"/>
  <line x1="192" x2="302.3333333333333" y1="781.5" y2="781.5" class="net_21 width_1" style="stroke-width: 1"/>
  <line x1="175" x2="192" y1="351" y2="351" class="net_21 width_1" style="stroke-width: 1"/>
  <line x1="192" x2="192" y1="351" y2="68" class="net_21 width_1" style="stroke-width: 1"/>
  <line x1="192" x2="232" y1="68" y2="68" class="net_21 width_1" style="stroke-width: 1"/>
  <line x1="175" x2="302.3333333333333" y1="351" y2="351" class="net_21 width_1" style="stroke-width: 1"/>
  <line x1="175" x2="202" y1="371" y2="371" class="net_20 width_1" style="stroke-width: 1"/>
  <line x1="202" x2="202" y1="371" y2="796.5" class="net_20 width_1" style="stroke-width: 1"/>
  <circle cx="202" cy="371" r="2" style="fill:#000" class="net_20 width_1"/>
  <line x1="202" x2="302.3333333333333" y1="796.5" y2="796.5" class="net_20 width_1" style="stroke-width: 1"/>
  <line x1="175" x2="202" y1="371" y2="371" class="net_20 width_1" style="stroke-width: 1"/>
  <line x1="202" x2="202" y1="371" y2="119" class="net_20 width_1" style="stroke-width: 1"/>
  <line x1="202" x2="302.3333333333333" y1="119" y2="119" class="net_20 width_1" style="stroke-width: 1"/>
  <line x1="175" x2="202" y1="371" y2="371" class="net_20 width_1" style="stroke-width: 1"/>
  <line x1="202" x2="202" y1="371" y2="140" class="net_20 width_1" style="stroke-width: 1"/>
  <circle cx="202" cy="140" r="2" style="fill:#000" class="net_20 width_1"/>
  <line x1="202" x2="232" y1="140" y2="140" class="net_20 width_1" style="stroke-width: 1"/>
  <line x1="332.3333333333333" x2="350" y1="789" y2="789" class="net_35 width_1" style="stroke-width: 1"/>
  <line x1="350" x2="350" y1="789" y2="909" class="net_35 width_1" style="stroke-width: 1"/>
  <circle cx="350" cy="789" r="2" style="fill:#000" class="net_35 width_1"/>
  <line x1="350" x2="380.6666666666667" y1="909" y2="909" class="net_35 width_1" style="stroke-width: 1"/>
  <line x1="332.3333333333333" x2="380.6666666666667" y1="789" y2="789" class="net_35 width_1" style="stroke-width: 1"/>
  <line x1="175" x2="212" y1="391" y2="391" class="net_19 width_1" style="stroke-width: 1"/>
  <line x1="212" x2="212" y1="391" y2="924" class="net_19 width_1" style="stroke-width: 1"/>
  <circle cx="212" cy="391" r="2" style="fill:#000" class="net_19 width_1"/>
  <line x1="212" x2="380.6666666666667" y1="924" y2="924" class="net_19 width_1" style="stroke-width: 1"/>
  <line x1="175" x2="212" y1="391" y2="391" class="net_19 width_1" style="stroke-width: 1"/>
  <line x1="212" x2="212" y1="391" y2="301" class="net_19 width_1" style="stroke-width: 1"/>
  <circle cx="212" cy="301" r="2" style="fill:#000" class="net_19 width_1"/>
  <line x1="212" x2="303" y1="301" y2="301" class="net_19 width_1" style="stroke-width: 1"/>
  <line x1="175" x2="212" y1="391" y2="391" class="net_19 width_1" style="stroke-width: 1"/>
  <line x1="212" x2="212" y1="391" y2="212.5" class="net_19 width_1" style="stroke-width: 1"/>
  <circle cx="212" cy="212.5" r="2" style="fill:#000" class="net_19 width_1"/>
  <line x1="212" x2="380.6666666666667" y1="212.5" y2="212.5" class="net_19 width_1" style="stroke-width: 1"/>
  <line x1="175" x2="212" y1="391" y2="391" class="net_19 width_1" style="stroke-width: 1"/>
  <line x1="212" x2="212" y1="391" y2="641.5" class="net_19 width_1" style="stroke-width: 1"/>
  <circle cx="212" cy="641.5" r="2" style="fill:#000" class="net_19 width_1"/>
  <line x1="212" x2="380.6666666666667" y1="641.5" y2="641.5" class="net_19 width_1" style="stroke-width: 1"/>
  <line x1="175" x2="212" y1="391" y2="391" class="net_19 width_1" style="stroke-width: 1"/>
  <line x1="212" x2="212" y1="391" y2="47" class="net_19 width_1" style="stroke-width: 1"/>
  <line x1="212" x2="380.6666666666667" y1="47" y2="47" class="net_19 width_1" style="stroke-width: 1"/>
  <line x1="410.6666666666667" x2="451" y1="916.5" y2="916.5" class="net_36 width_1" style="stroke-width: 1"/>
  <line x1="410.6666666666667" x2="421" y1="916.5" y2="916.5" class="net_36 width_1" style="stroke-width: 1"/>
  <line x1="421" x2="421" y1="916.5" y2="976.5" class="net_36 width_1" style="stroke-width: 1"/>
  <circle cx="421" cy="916.5" r="2" style="fill:#000" class="net_36 width_1"/>
  <line x1="421" x2="451" y1="976.5" y2="976.5" class="net_36 width_1" style="stroke-width: 1"/>
  <line x1="408" x2="431" y1="691.5" y2="691.5" class="net_37 width_1" style="stroke-width: 1"/>
  <line x1="431" x2="431" y1="691.5" y2="931.5" class="net_37 width_1" style="stroke-width: 1"/>
  <circle cx="431" cy="691.5" r="2" style="fill:#000" class="net_37 width_1"/>
  <line x1="431" x2="451" y1="931.5" y2="931.5" class="net_37 width_1" style="stroke-width: 1"/>
  <line x1="408" x2="431" y1="691.5" y2="691.5" class="net_37 width_1" style="stroke-width: 1"/>
  <line x1="431" x2="431" y1="691.5" y2="220" class="net_37 width_1" style="stroke-width: 1"/>
  <line x1="431" x2="451" y1="220" y2="220" class="net_37 width_1" style="stroke-width: 1"/>
  <line x1="408" x2="451" y1="691.5" y2="691.5" class="net_37 width_1" style="stroke-width: 1"/>
  <line x1="408" x2="431" y1="691.5" y2="691.5" class="net_37 width_1" style="stroke-width: 1"/>
  <line x1="431" x2="431" y1="691.5" y2="811.5" class="net_37 width_1" style="stroke-width: 1"/>
  <circle cx="431" cy="811.5" r="2" style="fill:#000" class="net_37 width_1"/>
  <line x1="431" x2="451" y1="811.5" y2="811.5" class="net_37 width_1" style="stroke-width: 1"/>
  <line x1="480.5" x2="480.5" y1="441.5" y2="409.5" class="net_16 width_1" style="stroke-width: 1"/>
  <line x1="480.5" x2="531" y1="409.5" y2="409.5" class="net_16 width_1" style="stroke-width: 1"/>
  <line x1="531" x2="531" y1="409.5" y2="909" class="net_16 width_1" style="stroke-width: 1"/>
  <line x1="531" x2="563" y1="909" y2="909" class="net_16 width_1" style="stroke-width: 1"/>
  <line x1="481" x2="563" y1="924" y2="924" class="net_38 width_1" style="stroke-width: 1"/>
  <line x1="481" x2="491" y1="462" y2="462" class="net_5 width_1" style="stroke-width: 1"/>
  <line x1="491" x2="491" y1="462" y2="65.5" class="net_5 width_1" style="stroke-width: 1"/>
  <line x1="491" x2="563" y1="65.5" y2="65.5" class="net_5 width_1" style="stroke-width: 1"/>
  <line x1="481" x2="563" y1="80.5" y2="80.5" class="net_34 width_1" style="stroke-width: 1"/>
  <line x1="481" x2="491" y1="482" y2="482" class="net_17 width_1" style="stroke-width: 1"/>
  <line x1="491" x2="491" y1="482" y2="969" class="net_17 width_1" style="stroke-width: 1"/>
  <line x1="491" x2="563" y1="969" y2="969" class="net_17 width_1" style="stroke-width: 1"/>
  <line x1="481" x2="563" y1="984" y2="984" class="net_39 width_1" style="stroke-width: 1"/>
  <line x1="260" x2="273" y1="68" y2="68" class="net_40 width_1" style="stroke-width: 1"/>
  <line x1="273" x2="273" y1="68" y2="104" class="net_40 width_1" style="stroke-width: 1"/>
  <circle cx="273" cy="68" r="2" style="fill:#000" class="net_40 width_1"/>
  <line x1="273" x2="302.3333333333333" y1="104" y2="104" class="net_40 width_1" style="stroke-width: 1"/>
  <line x1="260" x2="273" y1="68" y2="68" class="net_40 width_1" style="stroke-width: 1"/>
  <line x1="273" x2="273" y1="68" y2="17" class="net_40 width_1" style="stroke-width: 1"/>
  <line x1="273" x2="302.3333333333333" y1="17" y2="17" class="net_40 width_1" style="stroke-width: 1"/>
  <line x1="332.3333333333333" x2="380.6666666666667" y1="111.5" y2="111.5" class="net_41 width_1" style="stroke-width: 1"/>
  <line x1="332.3333333333333" x2="370" y1="111.5" y2="111.5" class="net_41 width_1" style="stroke-width: 1"/>
  <line x1="370" x2="370" y1="111.5" y2="197.5" class="net_41 width_1" style="stroke-width: 1"/>
  <circle cx="370" cy="111.5" r="2" style="fill:#000" class="net_41 width_1"/>
  <line x1="370" x2="380.6666666666667" y1="197.5" y2="197.5" class="net_41 width_1" style="stroke-width: 1"/>
  <line x1="331" x2="360" y1="301" y2="301" class="net_42 width_1" style="stroke-width: 1"/>
  <line x1="360" x2="360" y1="301" y2="126.5" class="net_42 width_1" style="stroke-width: 1"/>
  <circle cx="360" cy="301" r="2" style="fill:#000" class="net_42 width_1"/>
  <line x1="360" x2="380.6666666666667" y1="126.5" y2="126.5" class="net_42 width_1" style="stroke-width: 1"/>
  <line x1="331" x2="360" y1="301" y2="301" class="net_42 width_1" style="stroke-width: 1"/>
  <line x1="360" x2="360" y1="301" y2="373.5" class="net_42 width_1" style="stroke-width: 1"/>
  <circle cx="360" cy="373.5" r="2" style="fill:#000" class="net_42 width_1"/>
  <line x1="360" x2="380.6666666666667" y1="373.5" y2="373.5" class="net_42 width_1" style="stroke-width: 1"/>
  <line x1="331" x2="360" y1="301" y2="301" class="net_42 width_1" style="stroke-width: 1"/>
  <line x1="360" x2="360" y1="301" y2="804" class="net_42 width_1" style="stroke-width: 1"/>
  <line x1="360" x2="380.6666666666667" y1="804" y2="804" class="net_42 width_1" style="stroke-width: 1"/>
  <line x1="410.6666666666667" x2="421" y1="119" y2="119" class="net_43 width_1" style="stroke-width: 1"/>
  <line x1="421" x2="421" y1="119" y2="145" class="net_43 width_1" style="stroke-width: 1"/>
  <line x1="421" x2="451" y1="145" y2="145" class="net_43 width_1" style="stroke-width: 1"/>
  <line x1="481" x2="501" y1="502" y2="502" class="net_7 width_1" style="stroke-width: 1"/>
  <line x1="501" x2="501" y1="502" y2="137.5" class="net_7 width_1" style="stroke-width: 1"/>
  <line x1="501" x2="563" y1="137.5" y2="137.5" class="net_7 width_1" style="stroke-width: 1"/>
  <line x1="481" x2="563" y1="152.5" y2="152.5" class="net_44 width_1" style="stroke-width: 1"/>
  <line x1="410.6666666666667" x2="451" y1="205" y2="205" class="net_45 width_1" style="stroke-width: 1"/>
  <line x1="410.6666666666667" x2="441" y1="205" y2="205" class="net_45 width_1" style="stroke-width: 1"/>
  <line x1="441" x2="441" y1="205" y2="265" class="net_45 width_1" style="stroke-width: 1"/>
  <circle cx="441" cy="205" r="2" style="fill:#000" class="net_45 width_1"/>
  <line x1="441" x2="451" y1="265" y2="265" class="net_45 width_1" style="stroke-width: 1"/>
  <line x1="481" x2="511" y1="522" y2="522" class="net_8 width_1" style="stroke-width: 1"/>
  <line x1="511" x2="511" y1="522" y2="197.5" class="net_8 width_1" style="stroke-width: 1"/>
  <line x1="511" x2="563" y1="197.5" y2="197.5" class="net_8 width_1" style="stroke-width: 1"/>
  <line x1="481" x2="563" y1="212.5" y2="212.5" class="net_46 width_1" style="stroke-width: 1"/>
  <line x1="481" x2="541" y1="542" y2="542" class="net_9 width_1" style="stroke-width: 1"/>
  <line x1="541" x2="541" y1="542" y2="257.5" class="net_9 width_1" style="stroke-width: 1"/>
  <line x1="541" x2="563" y1="257.5" y2="257.5" class="net_9 width_1" style="stroke-width: 1"/>
  <line x1="481" x2="563" y1="272.5" y2="272.5" class="net_47 width_1" style="stroke-width: 1"/>
  <line x1="260" x2="283" y1="140" y2="140" class="net_48 width_1" style="stroke-width: 1"/>
  <line x1="283" x2="283" y1="140" y2="366" class="net_48 width_1" style="stroke-width: 1"/>
  <circle cx="283" cy="140" r="2" style="fill:#000" class="net_48 width_1"/>
  <line x1="283" x2="302.3333333333333" y1="366" y2="366" class="net_48 width_1" style="stroke-width: 1"/>
  <line x1="260" x2="283" y1="140" y2="140" class="net_48 width_1" style="stroke-width: 1"/>
  <line x1="283" x2="283" y1="140" y2="32" class="net_48 width_1" style="stroke-width: 1"/>
  <line x1="283" x2="302.3333333333333" y1="32" y2="32" class="net_48 width_1" style="stroke-width: 1"/>
  <line x1="332.3333333333333" x2="380.6666666666667" y1="358.5" y2="358.5" class="net_49 width_1" style="stroke-width: 1"/>
  <line x1="332.3333333333333" x2="370" y1="358.5" y2="358.5" class="net_49 width_1" style="stroke-width: 1"/>
  <line x1="370" x2="370" y1="358.5" y2="626.5" class="net_49 width_1" style="stroke-width: 1"/>
  <circle cx="370" cy="358.5" r="2" style="fill:#000" class="net_49 width_1"/>
  <line x1="370" x2="380.6666666666667" y1="626.5" y2="626.5" class="net_49 width_1" style="stroke-width: 1"/>
  <line x1="410.6666666666667" x2="441" y1="366" y2="366" class="net_50 width_1" style="stroke-width: 1"/>
  <line x1="441" x2="441" y1="366" y2="373.5" class="net_50 width_1" style="stroke-width: 1"/>
  <line x1="441" x2="451" y1="373.5" y2="373.5" class="net_50 width_1" style="stroke-width: 1"/>
  <line x1="481" x2="563" y1="562" y2="562" class="net_11 width_1" style="stroke-width: 1"/>
  <line x1="481" x2="551" y1="381" y2="381" class="net_51 width_1" style="stroke-width: 1"/>
  <line x1="551" x2="551" y1="381" y2="577" class="net_51 width_1" style="stroke-width: 1"/>
  <line x1="551" x2="563" y1="577" y2="577" class="net_51 width_1" style="stroke-width: 1"/>
  <line x1="410.6666666666667" x2="441" y1="634" y2="634" class="net_53 width_1" style="stroke-width: 1"/>
  <line x1="441" x2="441" y1="634" y2="676.5" class="net_53 width_1" style="stroke-width: 1"/>
  <circle cx="441" cy="676.5" r="2" style="fill:#000" class="net_53 width_1"/>
  <line x1="441" x2="451" y1="676.5" y2="676.5" class="net_53 width_1" style="stroke-width: 1"/>
  <line x1="410.6666666666667" x2="441" y1="634" y2="634" class="net_53 width_1" style="stroke-width: 1"/>
  <line x1="441" x2="441" y1="634" y2="736.5" class="net_53 width_1" style="stroke-width: 1"/>
  <line x1="441" x2="451" y1="736.5" y2="736.5" class="net_53 width_1" style="stroke-width: 1"/>
  <line x1="481" x2="541" y1="582" y2="582" class="net_12 width_1" style="stroke-width: 1"/>
  <line x1="541" x2="541" y1="582" y2="669" class="net_12 width_1" style="stroke-width: 1"/>
  <line x1="541" x2="563" y1="669" y2="669" class="net_12 width_1" style="stroke-width: 1"/>
  <line x1="481" x2="563" y1="684" y2="684" class="net_54 width_1" style="stroke-width: 1"/>
  <line x1="481" x2="521" y1="602" y2="602" class="net_13 width_1" style="stroke-width: 1"/>
  <line x1="521" x2="521" y1="602" y2="729" class="net_13 width_1" style="stroke-width: 1"/>
  <line x1="521" x2="563" y1="729" y2="729" class="net_13 width_1" style="stroke-width: 1"/>
  <line x1="481" x2="563" y1="744" y2="744" class="net_55 width_1" style="stroke-width: 1"/>
  <line x1="332.3333333333333" x2="350" y1="24.5" y2="24.5" class="net_52 width_1" style="stroke-width: 1"/>
  <line x1="350" x2="350" y1="24.5" y2="32" class="net_52 width_1" style="stroke-width: 1"/>
  <line x1="350" x2="380.6666666666667" y1="32" y2="32" class="net_52 width_1" style="stroke-width: 1"/>
  <line x1="410.6666666666667" x2="451" y1="796.5" y2="796.5" class="net_56 width_1" style="stroke-width: 1"/>
  <line x1="410.6666666666667" x2="441" y1="796.5" y2="796.5" class="net_56 width_1" style="stroke-width: 1"/>
  <line x1="441" x2="441" y1="796.5" y2="856.5" class="net_56 width_1" style="stroke-width: 1"/>
  <circle cx="441" cy="796.5" r="2" style="fill:#000" class="net_56 width_1"/>
  <line x1="441" x2="451" y1="856.5" y2="856.5" class="net_56 width_1" style="stroke-width: 1"/>
  <line x1="481" x2="511" y1="622" y2="622" class="net_14 width_1" style="stroke-width: 1"/>
  <line x1="511" x2="511" y1="622" y2="789" class="net_14 width_1" style="stroke-width: 1"/>
  <line x1="511" x2="563" y1="789" y2="789" class="net_14 width_1" style="stroke-width: 1"/>
  <line x1="481" x2="563" y1="804" y2="804" class="net_57 width_1" style="stroke-width: 1"/>
  <line x1="480.5" x2="480.5" y1="642.5" y2="661.5" class="net_15 width_1" style="stroke-width: 1"/>
  <line x1="480.5" x2="501" y1="661.5" y2="661.5" class="net_15 width_1" style="stroke-width: 1"/>
  <line x1="501" x2="501" y1="661.5" y2="849" class="net_15 width_1" style="stroke-width: 1"/>
  <line x1="501" x2="563" y1="849" y2="849" class="net_15 width_1" style="stroke-width: 1"/>
  <line x1="481" x2="563" y1="864" y2="864" class="net_58 width_1" style="stroke-width: 1"/>
  <line x1="690" x2="766" y1="746.5" y2="746.5" class="net_22,23,24,25,26,27,28,29,30,31,32 width_11" style="stroke-width: 2"/>
  <line x1="594" x2="684.5" y1="73" y2="73" class="net_22 width_1" style="stroke-width: 1"/>
  <line x1="684.5" x2="684.5" y1="73" y2="736" class="net_22 width_1" style="stroke-width: 1"/>
  <line x1="594" x2="674" y1="145" y2="145" class="net_23 width_1" style="stroke-width: 1"/>
  <line x1="674" x2="674" y1="145" y2="756.5" class="net_23 width_1" style="stroke-width: 1"/>
  <line x1="674" x2="684" y1="756.5" y2="756.5" class="net_23 width_1" style="stroke-width: 1"/>
  <line x1="594" x2="664" y1="205" y2="205" class="net_24 width_1" style="stroke-width: 1"/>
  <line x1="664" x2="664" y1="205" y2="776.5" class="net_24 width_1" style="stroke-width: 1"/>
  <line x1="664" x2="684" y1="776.5" y2="776.5" class="net_24 width_1" style="stroke-width: 1"/>
  <line x1="594" x2="654" y1="265" y2="265" class="net_25 width_1" style="stroke-width: 1"/>
  <line x1="654" x2="654" y1="265" y2="796.5" class="net_25 width_1" style="stroke-width: 1"/>
  <line x1="654" x2="684" y1="796.5" y2="796.5" class="net_25 width_1" style="stroke-width: 1"/>
  <line x1="594" x2="644" y1="569.5" y2="569.5" class="net_26 width_1" style="stroke-width: 1"/>
  <line x1="644" x2="644" y1="569.5" y2="816.5" class="net_26 width_1" style="stroke-width: 1"/>
  <line x1="644" x2="684" y1="816.5" y2="816.5" class="net_26 width_1" style="stroke-width: 1"/>
  <line x1="594" x2="634" y1="676.5" y2="676.5" class="net_27 width_1" style="stroke-width: 1"/>
  <line x1="634" x2="634" y1="676.5" y2="836.5" class="net_27 width_1" style="stroke-width: 1"/>
  <line x1="634" x2="684" y1="836.5" y2="836.5" class="net_27 width_1" style="stroke-width: 1"/>
  <line x1="594" x2="624" y1="736.5" y2="736.5" class="net_28 width_1" style="stroke-width: 1"/>
  <line x1="624" x2="624" y1="736.5" y2="856.5" class="net_28 width_1" style="stroke-width: 1"/>
  <line x1="624" x2="684" y1="856.5" y2="856.5" class="net_28 width_1" style="stroke-width: 1"/>
  <line x1="594" x2="614" y1="796.5" y2="796.5" class="net_29 width_1" style="stroke-width: 1"/>
  <line x1="614" x2="614" y1="796.5" y2="876.5" class="net_29 width_1" style="stroke-width: 1"/>
  <line x1="614" x2="684" y1="876.5" y2="876.5" class="net_29 width_1" style="stroke-width: 1"/>
  <line x1="594" x2="604" y1="856.5" y2="856.5" class="net_30 width_1" style="stroke-width: 1"/>
  <line x1="604" x2="604" y1="856.5" y2="896.5" class="net_30 width_1" style="stroke-width: 1"/>
  <line x1="604" x2="684" y1="896.5" y2="896.5" class="net_30 width_1" style="stroke-width: 1"/>
  <line x1="594" x2="684" y1="916.5" y2="916.5" class="net_31 width_1" style="stroke-width: 1"/>
  <line x1="594" x2="684.5" y1="976.5" y2="976.5" class="net_32 width_1" style="stroke-width: 1"/>
  <line x1="684.5" x2="684.5" y1="976.5" y2="937" class="net_32 width_1" style="stroke-width: 1"/>
  <line x1="42" x2="170" y1="341" y2="341" class="net_18,19,20,21 width_4" style="stroke-width: 2"/>
  <line x1="328" x2="476.5" y1="419.5" y2="419.5" class="net_2,3,4,5,6,7,8,9,10,11,12,13,14,15,16,17 width_16" style="stroke-width: 2"/>
  <line x1="476.5" x2="476.5" y1="419.5" y2="451.5" class="net_2,3,4,5,6,7,8,9,10,11,12,13,14,15,16,17 width_16" style="stroke-width: 2"/>
  <rect x="728" y="741.5" width="22" height="9" class="net_22,23,24,25,26,27,28,29,30,31,32 width_11 busLabel_11" style="fill: white; stroke: none"/>
  <text x="727" y="749.5" class="net_22,23,24,25,26,27,28,29,30,31,32 width_11 busLabel_11">/11/</text>
  <rect x="132" y="336" width="16" height="9" class="net_18,19,20,21 width_4 busLabel_4" style="fill: white; stroke: none"/>
  <text x="131" y="344" class="net_18,19,20,21 width_4 busLabel_4">/4/</text>
  <rect x="394.5" y="414.5" width="22" height="9" class="net_2,3,4,5,6,7,8,9,10,11,12,13,14,15,16,17 width_16 busLabel_16" style="fill: white; stroke: none"/>
  <text x="393.5" y="422.5" class="net_2,3,4,5,6,7,8,9,10,11,12,13,14,15,16,17 width_16 busLabel_16">/16/</text>
</svg>
