<svg xmlns="http://www.w3.org/2000/svg" xmlns:xlink="http://www.w3.org/1999/xlink" xmlns:s="https://github.com/nturley/netlistsvg" width="1617" height="725">
  <style>svg {
    stroke:#000;
    fill:none;
  }
  text {
    fill:#000;
    stroke:none;
    font-size:10px;
    font-weight: bold;
    font-family: "Courier New", monospace;
  }
  .nodelabel {
    text-anchor: middle;
  }
  .inputPortLabel {
    text-anchor: end;
  }
  .splitjoinBody {
    fill:#000;
  }</style>
  <g s:type="reduce_xor" transform="translate(489,169)" s:width="33" s:height="25" id="cell_\11">
    <s:alias val="$xor"/>
    <s:alias val="$reduce_xor"/>
    <s:alias val="$_XOR_"/>
    <path d="M3,0 A30 25 0 0 1 3,25 A30 25 0 0 0 33,12.5 A30 25 0 0 0 3,0" class="cell_\11"/>
    <path d="M0,0 A30 25 0 0 1 0,25" class="cell_\11"/>
    <g s:x="3" s:y="5" s:pid="A"/>
    <g s:x="3" s:y="20" s:pid="B"/>
    <g s:x="33" s:y="12.5" s:pid="Y"/>
  </g>
  <g s:type="reduce_xor" transform="translate(557,176.5)" s:width="33" s:height="25" id="cell_\13">
    <s:alias val="$xor"/>
    <s:alias val="$reduce_xor"/>
    <s:alias val="$_XOR_"/>
    <path d="M3,0 A30 25 0 0 1 3,25 A30 25 0 0 0 33,12.5 A30 25 0 0 0 3,0" class="cell_\13"/>
    <path d="M0,0 A30 25 0 0 1 0,25" class="cell_\13"/>
    <g s:x="3" s:y="5" s:pid="A"/>
    <g s:x="3" s:y="20" s:pid="B"/>
    <g s:x="33" s:y="12.5" s:pid="Y"/>
  </g>
  <g s:type="reduce_xor" transform="translate(217,348.5)" s:width="33" s:height="25" id="cell_\16">
    <s:alias val="$xor"/>
    <s:alias val="$reduce_xor"/>
    <s:alias val="$_XOR_"/>
    <path d="M3,0 A30 25 0 0 1 3,25 A30 25 0 0 0 33,12.5 A30 25 0 0 0 3,0" class="cell_\16"/>
    <path d="M0,0 A30 25 0 0 1 0,25" class="cell_\16"/>
    <g s:x="3" s:y="5" s:pid="A"/>
    <g s:x="3" s:y="20" s:pid="B"/>
    <g s:x="33" s:y="12.5" s:pid="Y"/>
  </g>
  <g s:type="reduce_xor" transform="translate(285,356)" s:width="33" s:height="25" id="cell_\18">
    <s:alias val="$xor"/>
    <s:alias val="$reduce_xor"/>
    <s:alias val="$_XOR_"/>
    <path d="M3,0 A30 25 0 0 1 3,25 A30 25 0 0 0 33,12.5 A30 25 0 0 0 3,0" class="cell_\18"/>
    <path d="M0,0 A30 25 0 0 1 0,25" class="cell_\18"/>
    <g s:x="3" s:y="5" s:pid="A"/>
    <g s:x="3" s:y="20" s:pid="B"/>
    <g s:x="33" s:y="12.5" s:pid="Y"/>
  </g>
  <g s:type="reduce_xor" transform="translate(353,363.5)" s:width="33" s:height="25" id="cell_\20">
    <s:alias val="$xor"/>
    <s:alias val="$reduce_xor"/>
    <s:alias val="$_XOR_"/>
    <path d="M3,0 A30 25 0 0 1 3,25 A30 25 0 0 0 33,12.5 A30 25 0 0 0 3,0" class="cell_\20"/>
    <path d="M0,0 A30 25 0 0 1 0,25" class="cell_\20"/>
    <g s:x="3" s:y="5" s:pid="A"/>
    <g s:x="3" s:y="20" s:pid="B"/>
    <g s:x="33" s:y="12.5" s:pid="Y"/>
  </g>
  <g s:type="reduce_xor" transform="translate(421,371)" s:width="33" s:height="25" id="cell_\22">
    <s:alias val="$xor"/>
    <s:alias val="$reduce_xor"/>
    <s:alias val="$_XOR_"/>
    <path d="M3,0 A30 25 0 0 1 3,25 A30 25 0 0 0 33,12.5 A30 25 0 0 0 3,0" class="cell_\22"/>
    <path d="M0,0 A30 25 0 0 1 0,25" class="cell_\22"/>
    <g s:x="3" s:y="5" s:pid="A"/>
    <g s:x="3" s:y="20" s:pid="B"/>
    <g s:x="33" s:y="12.5" s:pid="Y"/>
  </g>
  <g s:type="reduce_xor" transform="translate(489,378.5)" s:width="33" s:height="25" id="cell_\24">
    <s:alias val="$xor"/>
    <s:alias val="$reduce_xor"/>
    <s:alias val="$_XOR_"/>
    <path d="M3,0 A30 25 0 0 1 3,25 A30 25 0 0 0 33,12.5 A30 25 0 0 0 3,0" class="cell_\24"/>
    <path d="M0,0 A30 25 0 0 1 0,25" class="cell_\24"/>
    <g s:x="3" s:y="5" s:pid="A"/>
    <g s:x="3" s:y="20" s:pid="B"/>
    <g s:x="33" s:y="12.5" s:pid="Y"/>
  </g>
  <g s:type="reduce_xor" transform="translate(557,386)" s:width="33" s:height="25" id="cell_\26">
    <s:alias val="$xor"/>
    <s:alias val="$reduce_xor"/>
    <s:alias val="$_XOR_"/>
    <path d="M3,0 A30 25 0 0 1 3,25 A30 25 0 0 0 33,12.5 A30 25 0 0 0 3,0" class="cell_\26"/>
    <path d="M0,0 A30 25 0 0 1 0,25" class="cell_\26"/>
    <g s:x="3" s:y="5" s:pid="A"/>
    <g s:x="3" s:y="20" s:pid="B"/>
    <g s:x="33" s:y="12.5" s:pid="Y"/>
  </g>
  <g s:type="reduce_xor" transform="translate(285,449.5)" s:width="33" s:height="25" id="cell_\29">
    <s:alias val="$xor"/>
    <s:alias val="$reduce_xor"/>
    <s:alias val="$_XOR_"/>
    <path d="M3,0 A30 25 0 0 1 3,25 A30 25 0 0 0 33,12.5 A30 25 0 0 0 3,0" class="cell_\29"/>
    <path d="M0,0 A30 25 0 0 1 0,25" class="cell_\29"/>
    <g s:x="3" s:y="5" s:pid="A"/>
    <g s:x="3" s:y="20" s:pid="B"/>
    <g s:x="33" s:y="12.5" s:pid="Y"/>
  </g>
  <g s:type="reduce_xor" transform="translate(217,139)" s:width="33" s:height="25" id="cell_\3">
    <s:alias val="$xor"/>
    <s:alias val="$reduce_xor"/>
    <s:alias val="$_XOR_"/>
    <path d="M3,0 A30 25 0 0 1 3,25 A30 25 0 0 0 33,12.5 A30 25 0 0 0 3,0" class="cell_\3"/>
    <path d="M0,0 A30 25 0 0 1 0,25" class="cell_\3"/>
    <g s:x="3" s:y="5" s:pid="A"/>
    <g s:x="3" s:y="20" s:pid="B"/>
    <g s:x="33" s:y="12.5" s:pid="Y"/>
  </g>
  <g s:type="reduce_xor" transform="translate(353,457)" s:width="33" s:height="25" id="cell_\31">
    <s:alias val="$xor"/>
    <s:alias val="$reduce_xor"/>
    <s:alias val="$_XOR_"/>
    <path d="M3,0 A30 25 0 0 1 3,25 A30 25 0 0 0 33,12.5 A30 25 0 0 0 3,0" class="cell_\31"/>
    <path d="M0,0 A30 25 0 0 1 0,25" class="cell_\31"/>
    <g s:x="3" s:y="5" s:pid="A"/>
    <g s:x="3" s:y="20" s:pid="B"/>
    <g s:x="33" s:y="12.5" s:pid="Y"/>
  </g>
  <g s:type="reduce_xor" transform="translate(421,464.5)" s:width="33" s:height="25" id="cell_\33">
    <s:alias val="$xor"/>
    <s:alias val="$reduce_xor"/>
    <s:alias val="$_XOR_"/>
    <path d="M3,0 A30 25 0 0 1 3,25 A30 25 0 0 0 33,12.5 A30 25 0 0 0 3,0" class="cell_\33"/>
    <path d="M0,0 A30 25 0 0 1 0,25" class="cell_\33"/>
    <g s:x="3" s:y="5" s:pid="A"/>
    <g s:x="3" s:y="20" s:pid="B"/>
    <g s:x="33" s:y="12.5" s:pid="Y"/>
  </g>
  <g s:type="reduce_xor" transform="translate(489,472)" s:width="33" s:height="25" id="cell_\35">
    <s:alias val="$xor"/>
    <s:alias val="$reduce_xor"/>
    <s:alias val="$_XOR_"/>
    <path d="M3,0 A30 25 0 0 1 3,25 A30 25 0 0 0 33,12.5 A30 25 0 0 0 3,0" class="cell_\35"/>
    <path d="M0,0 A30 25 0 0 1 0,25" class="cell_\35"/>
    <g s:x="3" s:y="5" s:pid="A"/>
    <g s:x="3" s:y="20" s:pid="B"/>
    <g s:x="33" s:y="12.5" s:pid="Y"/>
  </g>
  <g s:type="reduce_xor" transform="translate(557,479.5)" s:width="33" s:height="25" id="cell_\37">
    <s:alias val="$xor"/>
    <s:alias val="$reduce_xor"/>
    <s:alias val="$_XOR_"/>
    <path d="M3,0 A30 25 0 0 1 3,25 A30 25 0 0 0 33,12.5 A30 25 0 0 0 3,0" class="cell_\37"/>
    <path d="M0,0 A30 25 0 0 1 0,25" class="cell_\37"/>
    <g s:x="3" s:y="5" s:pid="A"/>
    <g s:x="3" s:y="20" s:pid="B"/>
    <g s:x="33" s:y="12.5" s:pid="Y"/>
  </g>
  <g s:type="reduce_xor" transform="translate(630,487)" s:width="33" s:height="25" id="cell_\39">
    <s:alias val="$xor"/>
    <s:alias val="$reduce_xor"/>
    <s:alias val="$_XOR_"/>
    <path d="M3,0 A30 25 0 0 1 3,25 A30 25 0 0 0 33,12.5 A30 25 0 0 0 3,0" class="cell_\39"/>
    <path d="M0,0 A30 25 0 0 1 0,25" class="cell_\39"/>
    <g s:x="3" s:y="5" s:pid="A"/>
    <g s:x="3" s:y="20" s:pid="B"/>
    <g s:x="33" s:y="12.5" s:pid="Y"/>
  </g>
  <g s:type="reduce_xor" transform="translate(353,229)" s:width="33" s:height="25" id="cell_\42">
    <s:alias val="$xor"/>
    <s:alias val="$reduce_xor"/>
    <s:alias val="$_XOR_"/>
    <path d="M3,0 A30 25 0 0 1 3,25 A30 25 0 0 0 33,12.5 A30 25 0 0 0 3,0" class="cell_\42"/>
    <path d="M0,0 A30 25 0 0 1 0,25" class="cell_\42"/>
    <g s:x="3" s:y="5" s:pid="A"/>
    <g s:x="3" s:y="20" s:pid="B"/>
    <g s:x="33" s:y="12.5" s:pid="Y"/>
  </g>
  <g s:type="reduce_xor" transform="translate(421,236.5)" s:width="33" s:height="25" id="cell_\44">
    <s:alias val="$xor"/>
    <s:alias val="$reduce_xor"/>
    <s:alias val="$_XOR_"/>
    <path d="M3,0 A30 25 0 0 1 3,25 A30 25 0 0 0 33,12.5 A30 25 0 0 0 3,0" class="cell_\44"/>
    <path d="M0,0 A30 25 0 0 1 0,25" class="cell_\44"/>
    <g s:x="3" s:y="5" s:pid="A"/>
    <g s:x="3" s:y="20" s:pid="B"/>
    <g s:x="33" s:y="12.5" s:pid="Y"/>
  </g>
  <g s:type="reduce_xor" transform="translate(489,244)" s:width="33" s:height="25" id="cell_\46">
    <s:alias val="$xor"/>
    <s:alias val="$reduce_xor"/>
    <s:alias val="$_XOR_"/>
    <path d="M3,0 A30 25 0 0 1 3,25 A30 25 0 0 0 33,12.5 A30 25 0 0 0 3,0" class="cell_\46"/>
    <path d="M0,0 A30 25 0 0 1 0,25" class="cell_\46"/>
    <g s:x="3" s:y="5" s:pid="A"/>
    <g s:x="3" s:y="20" s:pid="B"/>
    <g s:x="33" s:y="12.5" s:pid="Y"/>
  </g>
  <g s:type="reduce_xor" transform="translate(557,251.5)" s:width="33" s:height="25" id="cell_\48">
    <s:alias val="$xor"/>
    <s:alias val="$reduce_xor"/>
    <s:alias val="$_XOR_"/>
    <path d="M3,0 A30 25 0 0 1 3,25 A30 25 0 0 0 33,12.5 A30 25 0 0 0 3,0" class="cell_\48"/>
    <path d="M0,0 A30 25 0 0 1 0,25" class="cell_\48"/>
    <g s:x="3" s:y="5" s:pid="A"/>
    <g s:x="3" s:y="20" s:pid="B"/>
    <g s:x="33" s:y="12.5" s:pid="Y"/>
  </g>
  <g s:type="reduce_xor" transform="translate(285,146.5)" s:width="33" s:height="25" id="cell_\5">
    <s:alias val="$xor"/>
    <s:alias val="$reduce_xor"/>
    <s:alias val="$_XOR_"/>
    <path d="M3,0 A30 25 0 0 1 3,25 A30 25 0 0 0 33,12.5 A30 25 0 0 0 3,0" class="cell_\5"/>
    <path d="M0,0 A30 25 0 0 1 0,25" class="cell_\5"/>
    <g s:x="3" s:y="5" s:pid="A"/>
    <g s:x="3" s:y="20" s:pid="B"/>
    <g s:x="33" s:y="12.5" s:pid="Y"/>
  </g>
  <g s:type="reduce_xor" transform="translate(630,259)" s:width="33" s:height="25" id="cell_\50">
    <s:alias val="$xor"/>
    <s:alias val="$reduce_xor"/>
    <s:alias val="$_XOR_"/>
    <path d="M3,0 A30 25 0 0 1 3,25 A30 25 0 0 0 33,12.5 A30 25 0 0 0 3,0" class="cell_\50"/>
    <path d="M0,0 A30 25 0 0 1 0,25" class="cell_\50"/>
    <g s:x="3" s:y="5" s:pid="A"/>
    <g s:x="3" s:y="20" s:pid="B"/>
    <g s:x="33" s:y="12.5" s:pid="Y"/>
  </g>
  <g s:type="reduce_xor" transform="translate(698,266.5)" s:width="33" s:height="25" id="cell_\52">
    <s:alias val="$xor"/>
    <s:alias val="$reduce_xor"/>
    <s:alias val="$_XOR_"/>
    <path d="M3,0 A30 25 0 0 1 3,25 A30 25 0 0 0 33,12.5 A30 25 0 0 0 3,0" class="cell_\52"/>
    <path d="M0,0 A30 25 0 0 1 0,25" class="cell_\52"/>
    <g s:x="3" s:y="5" s:pid="A"/>
    <g s:x="3" s:y="20" s:pid="B"/>
    <g s:x="33" s:y="12.5" s:pid="Y"/>
  </g>
  <g s:type="reduce_xor" transform="translate(630,12)" s:width="33" s:height="25" id="cell_\55">
    <s:alias val="$xor"/>
    <s:alias val="$reduce_xor"/>
    <s:alias val="$_XOR_"/>
    <path d="M3,0 A30 25 0 0 1 3,25 A30 25 0 0 0 33,12.5 A30 25 0 0 0 3,0" class="cell_\55"/>
    <path d="M0,0 A30 25 0 0 1 0,25" class="cell_\55"/>
    <g s:x="3" s:y="5" s:pid="A"/>
    <g s:x="3" s:y="20" s:pid="B"/>
    <g s:x="33" s:y="12.5" s:pid="Y"/>
  </g>
  <g s:type="reduce_xor" transform="translate(698,19.5)" s:width="33" s:height="25" id="cell_\57">
    <s:alias val="$xor"/>
    <s:alias val="$reduce_xor"/>
    <s:alias val="$_XOR_"/>
    <path d="M3,0 A30 25 0 0 1 3,25 A30 25 0 0 0 33,12.5 A30 25 0 0 0 3,0" class="cell_\57"/>
    <path d="M0,0 A30 25 0 0 1 0,25" class="cell_\57"/>
    <g s:x="3" s:y="5" s:pid="A"/>
    <g s:x="3" s:y="20" s:pid="B"/>
    <g s:x="33" s:y="12.5" s:pid="Y"/>
  </g>
  <g s:type="reduce_xor" transform="translate(766,27)" s:width="33" s:height="25" id="cell_\59">
    <s:alias val="$xor"/>
    <s:alias val="$reduce_xor"/>
    <s:alias val="$_XOR_"/>
    <path d="M3,0 A30 25 0 0 1 3,25 A30 25 0 0 0 33,12.5 A30 25 0 0 0 3,0" class="cell_\59"/>
    <path d="M0,0 A30 25 0 0 1 0,25" class="cell_\59"/>
    <g s:x="3" s:y="5" s:pid="A"/>
    <g s:x="3" s:y="20" s:pid="B"/>
    <g s:x="33" s:y="12.5" s:pid="Y"/>
  </g>
  <g s:type="reduce_xor" transform="translate(834,34.5)" s:width="33" s:height="25" id="cell_\61">
    <s:alias val="$xor"/>
    <s:alias val="$reduce_xor"/>
    <s:alias val="$_XOR_"/>
    <path d="M3,0 A30 25 0 0 1 3,25 A30 25 0 0 0 33,12.5 A30 25 0 0 0 3,0" class="cell_\61"/>
    <path d="M0,0 A30 25 0 0 1 0,25" class="cell_\61"/>
    <g s:x="3" s:y="5" s:pid="A"/>
    <g s:x="3" s:y="20" s:pid="B"/>
    <g s:x="33" s:y="12.5" s:pid="Y"/>
  </g>
  <g s:type="reduce_xor" transform="translate(902,42)" s:width="33" s:height="25" id="cell_\63">
    <s:alias val="$xor"/>
    <s:alias val="$reduce_xor"/>
    <s:alias val="$_XOR_"/>
    <path d="M3,0 A30 25 0 0 1 3,25 A30 25 0 0 0 33,12.5 A30 25 0 0 0 3,0" class="cell_\63"/>
    <path d="M0,0 A30 25 0 0 1 0,25" class="cell_\63"/>
    <g s:x="3" s:y="5" s:pid="A"/>
    <g s:x="3" s:y="20" s:pid="B"/>
    <g s:x="33" s:y="12.5" s:pid="Y"/>
  </g>
  <g s:type="reduce_xor" transform="translate(970,49.5)" s:width="33" s:height="25" id="cell_\65">
    <s:alias val="$xor"/>
    <s:alias val="$reduce_xor"/>
    <s:alias val="$_XOR_"/>
    <path d="M3,0 A30 25 0 0 1 3,25 A30 25 0 0 0 33,12.5 A30 25 0 0 0 3,0" class="cell_\65"/>
    <path d="M0,0 A30 25 0 0 1 0,25" class="cell_\65"/>
    <g s:x="3" s:y="5" s:pid="A"/>
    <g s:x="3" s:y="20" s:pid="B"/>
    <g s:x="33" s:y="12.5" s:pid="Y"/>
  </g>
  <g s:type="reduce_xor" transform="translate(1038,57)" s:width="33" s:height="25" id="cell_\67">
    <s:alias val="$xor"/>
    <s:alias val="$reduce_xor"/>
    <s:alias val="$_XOR_"/>
    <path d="M3,0 A30 25 0 0 1 3,25 A30 25 0 0 0 33,12.5 A30 25 0 0 0 3,0" class="cell_\67"/>
    <path d="M0,0 A30 25 0 0 1 0,25" class="cell_\67"/>
    <g s:x="3" s:y="5" s:pid="A"/>
    <g s:x="3" s:y="20" s:pid="B"/>
    <g s:x="33" s:y="12.5" s:pid="Y"/>
  </g>
  <g s:type="reduce_xor" transform="translate(1106,64.5)" s:width="33" s:height="25" id="cell_\69">
    <s:alias val="$xor"/>
    <s:alias val="$reduce_xor"/>
    <s:alias val="$_XOR_"/>
    <path d="M3,0 A30 25 0 0 1 3,25 A30 25 0 0 0 33,12.5 A30 25 0 0 0 3,0" class="cell_\69"/>
    <path d="M0,0 A30 25 0 0 1 0,25" class="cell_\69"/>
    <g s:x="3" s:y="5" s:pid="A"/>
    <g s:x="3" s:y="20" s:pid="B"/>
    <g s:x="33" s:y="12.5" s:pid="Y"/>
  </g>
  <g s:type="reduce_xor" transform="translate(353,154)" s:width="33" s:height="25" id="cell_\7">
    <s:alias val="$xor"/>
    <s:alias val="$reduce_xor"/>
    <s:alias val="$_XOR_"/>
    <path d="M3,0 A30 25 0 0 1 3,25 A30 25 0 0 0 33,12.5 A30 25 0 0 0 3,0" class="cell_\7"/>
    <path d="M0,0 A30 25 0 0 1 0,25" class="cell_\7"/>
    <g s:x="3" s:y="5" s:pid="A"/>
    <g s:x="3" s:y="20" s:pid="B"/>
    <g s:x="33" s:y="12.5" s:pid="Y"/>
  </g>
  <g s:type="reduce_xor" transform="translate(1174,72)" s:width="33" s:height="25" id="cell_\71">
    <s:alias val="$xor"/>
    <s:alias val="$reduce_xor"/>
    <s:alias val="$_XOR_"/>
    <path d="M3,0 A30 25 0 0 1 3,25 A30 25 0 0 0 33,12.5 A30 25 0 0 0 3,0" class="cell_\71"/>
    <path d="M0,0 A30 25 0 0 1 0,25" class="cell_\71"/>
    <g s:x="3" s:y="5" s:pid="A"/>
    <g s:x="3" s:y="20" s:pid="B"/>
    <g s:x="33" s:y="12.5" s:pid="Y"/>
  </g>
  <g s:type="reduce_xor" transform="translate(1242,79.5)" s:width="33" s:height="25" id="cell_\73">
    <s:alias val="$xor"/>
    <s:alias val="$reduce_xor"/>
    <s:alias val="$_XOR_"/>
    <path d="M3,0 A30 25 0 0 1 3,25 A30 25 0 0 0 33,12.5 A30 25 0 0 0 3,0" class="cell_\73"/>
    <path d="M0,0 A30 25 0 0 1 0,25" class="cell_\73"/>
    <g s:x="3" s:y="5" s:pid="A"/>
    <g s:x="3" s:y="20" s:pid="B"/>
    <g s:x="33" s:y="12.5" s:pid="Y"/>
  </g>
  <g s:type="reduce_xor" transform="translate(1310,87)" s:width="33" s:height="25" id="cell_\75">
    <s:alias val="$xor"/>
    <s:alias val="$reduce_xor"/>
    <s:alias val="$_XOR_"/>
    <path d="M3,0 A30 25 0 0 1 3,25 A30 25 0 0 0 33,12.5 A30 25 0 0 0 3,0" class="cell_\75"/>
    <path d="M0,0 A30 25 0 0 1 0,25" class="cell_\75"/>
    <g s:x="3" s:y="5" s:pid="A"/>
    <g s:x="3" s:y="20" s:pid="B"/>
    <g s:x="33" s:y="12.5" s:pid="Y"/>
  </g>
  <g s:type="reduce_xor" transform="translate(1378,94.5)" s:width="33" s:height="25" id="cell_\77">
    <s:alias val="$xor"/>
    <s:alias val="$reduce_xor"/>
    <s:alias val="$_XOR_"/>
    <path d="M3,0 A30 25 0 0 1 3,25 A30 25 0 0 0 33,12.5 A30 25 0 0 0 3,0" class="cell_\77"/>
    <path d="M0,0 A30 25 0 0 1 0,25" class="cell_\77"/>
    <g s:x="3" s:y="5" s:pid="A"/>
    <g s:x="3" s:y="20" s:pid="B"/>
    <g s:x="33" s:y="12.5" s:pid="Y"/>
  </g>
  <g s:type="reduce_xor" transform="translate(1446,102)" s:width="33" s:height="25" id="cell_\79">
    <s:alias val="$xor"/>
    <s:alias val="$reduce_xor"/>
    <s:alias val="$_XOR_"/>
    <path d="M3,0 A30 25 0 0 1 3,25 A30 25 0 0 0 33,12.5 A30 25 0 0 0 3,0" class="cell_\79"/>
    <path d="M0,0 A30 25 0 0 1 0,25" class="cell_\79"/>
    <g s:x="3" s:y="5" s:pid="A"/>
    <g s:x="3" s:y="20" s:pid="B"/>
    <g s:x="33" s:y="12.5" s:pid="Y"/>
  </g>
  <g s:type="reduce_xor" transform="translate(421,161.5)" s:width="33" s:height="25" id="cell_\9">
    <s:alias val="$xor"/>
    <s:alias val="$reduce_xor"/>
    <s:alias val="$_XOR_"/>
    <path d="M3,0 A30 25 0 0 1 3,25 A30 25 0 0 0 33,12.5 A30 25 0 0 0 3,0" class="cell_\9"/>
    <path d="M0,0 A30 25 0 0 1 0,25" class="cell_\9"/>
    <g s:x="3" s:y="5" s:pid="A"/>
    <g s:x="3" s:y="20" s:pid="B"/>
    <g s:x="33" s:y="12.5" s:pid="Y"/>
  </g>
  <g s:type="inputExt" transform="translate(12,241)" s:width="30" s:height="20" id="cell_data_in">
    <text x="15" y="-4" class="nodelabel cell_data_in" s:attribute="ref">data_in</text>
    <s:alias val="$_inputExt_"/>
    <path d="M0,0 L0,20 L15,20 L30,10 L15,0 Z" class="cell_data_in"/>
    <g s:x="28" s:y="10" s:pid="Y"/>
  </g>
  <g s:type="outputExt" transform="translate(1557,552.5)" s:width="30" s:height="20" id="cell_data_out">
    <text x="15" y="-4" class="nodelabel cell_data_out" s:attribute="ref">data_out</text>
    <s:alias val="$_outputExt_"/>
    <path d="M30,0 L30,20 L15,20 L0,10 L15,0 Z" class="cell_data_out"/>
    <g s:x="0" s:y="10" s:pid="A"/>
  </g>
  <g s:type="join" transform="translate(1514,542)" s:width="4" s:height="40" id="cell_$join$,13,14,15,2,16,3,4,5,17,6,7,8,9,10,11,12,">
    <rect width="5" height="160" class="splitjoinBody" s:generic="body"/>
    <s:alias val="$_join_"/>
    <g s:x="5" s:y="20" s:pid="out"/>
    <g transform="translate(0,10)" s:x="0" s:y="10" s:pid="in0">
      <text x="-3" y="-4" class="inputPortLabel">0</text>
    </g>
    <g transform="translate(0,30)" s:x="0" s:y="10" s:pid="in0">
      <text x="-3" y="-4" class="inputPortLabel">1</text>
    </g>
    <g transform="translate(0,50)" s:x="0" s:y="10" s:pid="in0">
      <text x="-3" y="-4" class="inputPortLabel">2</text>
    </g>
    <g transform="translate(0,70)" s:x="0" s:y="10" s:pid="in0">
      <text x="-3" y="-4" class="inputPortLabel">3</text>
    </g>
    <g transform="translate(0,90)" s:x="0" s:y="10" s:pid="in0">
      <text x="-3" y="-4" class="inputPortLabel">4</text>
    </g>
    <g transform="translate(0,110)" s:x="0" s:y="10" s:pid="in0">
      <text x="-3" y="-4" class="inputPortLabel">5:7</text>
    </g>
    <g transform="translate(0,130)" s:x="0" s:y="10" s:pid="in0">
      <text x="-3" y="-4" class="inputPortLabel">8</text>
    </g>
    <g transform="translate(0,150)" s:x="0" s:y="10" s:pid="in0">
      <text x="-3" y="-4" class="inputPortLabel">9:15</text>
    </g>
  </g>
  <g s:type="split" transform="translate(92,298)" s:width="5" s:height="40" id="cell_$split$,2,3,4,5,6,7,8,9,10,11,12,">
    <rect width="5" height="260" class="splitjoinBody" s:generic="body"/>
    <s:alias val="$_split_"/>
    <g s:x="0" s:y="20" s:pid="in"/>
    <g transform="translate(4,10)" s:x="4" s:y="10" s:pid="out0">
      <text x="5" y="-4">8</text>
    </g>
    <g transform="translate(4,30)" s:x="4" s:y="10" s:pid="out0">
      <text x="5" y="-4">10</text>
    </g>
    <g transform="translate(4,50)" s:x="4" s:y="10" s:pid="out0">
      <text x="5" y="-4">0</text>
    </g>
    <g transform="translate(4,70)" s:x="4" s:y="10" s:pid="out0">
      <text x="5" y="-4">2</text>
    </g>
    <g transform="translate(4,90)" s:x="4" s:y="10" s:pid="out0">
      <text x="5" y="-4">3</text>
    </g>
    <g transform="translate(4,110)" s:x="4" s:y="10" s:pid="out0">
      <text x="5" y="-4">5</text>
    </g>
    <g transform="translate(4,130)" s:x="4" s:y="10" s:pid="out0">
      <text x="5" y="-4">6</text>
    </g>
    <g transform="translate(4,150)" s:x="4" s:y="10" s:pid="out0">
      <text x="5" y="-4">9</text>
    </g>
    <g transform="translate(4,170)" s:x="4" s:y="10" s:pid="out0">
      <text x="5" y="-4">1</text>
    </g>
    <g transform="translate(4,190)" s:x="4" s:y="10" s:pid="out0">
      <text x="5" y="-4">7</text>
    </g>
    <g transform="translate(4,210)" s:x="4" s:y="10" s:pid="out0">
      <text x="5" y="-4">4</text>
    </g>
    <g transform="translate(4,230)" s:x="4" s:y="10" s:pid="out0">
      <text x="5" y="-4">1:3</text>
    </g>
    <g transform="translate(4,250)" s:x="4" s:y="10" s:pid="out0">
      <text x="5" y="-4">4:10</text>
    </g>
  </g>
  <line x1="454" x2="492" y1="174" y2="174" class="net_18"/>
  <line x1="96.5" x2="96.5" y1="308" y2="286" class="net_10"/>
  <line x1="96.5" x2="207" y1="286" y2="286" class="net_10"/>
  <line x1="207" x2="207" y1="286" y2="207" class="net_10"/>
  <line x1="207" x2="464" y1="207" y2="207" class="net_10"/>
  <line x1="464" x2="464" y1="207" y2="189" class="net_10"/>
  <circle cx="207" cy="286" r="2" style="fill:#000" class="net_10"/>
  <line x1="464" x2="492" y1="189" y2="189" class="net_10"/>
  <line x1="96.5" x2="96.5" y1="308" y2="286" class="net_10"/>
  <line x1="96.5" x2="207" y1="286" y2="286" class="net_10"/>
  <line x1="207" x2="207" y1="286" y2="506.5" class="net_10"/>
  <line x1="207" x2="464" y1="506.5" y2="506.5" class="net_10"/>
  <line x1="464" x2="464" y1="506.5" y2="492" class="net_10"/>
  <circle cx="207" cy="506.5" r="2" style="fill:#000" class="net_10"/>
  <line x1="464" x2="492" y1="492" y2="492" class="net_10"/>
  <line x1="96.5" x2="96.5" y1="308" y2="286" class="net_10"/>
  <line x1="96.5" x2="532" y1="286" y2="286" class="net_10"/>
  <line x1="532" x2="532" y1="286" y2="271.5" class="net_10"/>
  <line x1="532" x2="560" y1="271.5" y2="271.5" class="net_10"/>
  <line x1="96.5" x2="96.5" y1="308" y2="286" class="net_10"/>
  <line x1="96.5" x2="207" y1="286" y2="286" class="net_10"/>
  <line x1="207" x2="207" y1="286" y2="539.5" class="net_10"/>
  <line x1="207" x2="1285" y1="539.5" y2="539.5" class="net_10"/>
  <line x1="1285" x2="1285" y1="539.5" y2="107" class="net_10"/>
  <line x1="1285" x2="1313" y1="107" y2="107" class="net_10"/>
  <line x1="522" x2="560" y1="181.5" y2="181.5" class="net_19"/>
  <line x1="97" x2="167" y1="328.5" y2="328.5" class="net_12"/>
  <line x1="167" x2="167" y1="328.5" y2="218" class="net_12"/>
  <line x1="167" x2="532" y1="218" y2="218" class="net_12"/>
  <line x1="532" x2="532" y1="218" y2="196.5" class="net_12"/>
  <circle cx="167" cy="328.5" r="2" style="fill:#000" class="net_12"/>
  <line x1="532" x2="560" y1="196.5" y2="196.5" class="net_12"/>
  <line x1="97" x2="167" y1="328.5" y2="328.5" class="net_12"/>
  <line x1="167" x2="167" y1="328.5" y2="427.5" class="net_12"/>
  <line x1="167" x2="532" y1="427.5" y2="427.5" class="net_12"/>
  <line x1="532" x2="532" y1="427.5" y2="406" class="net_12"/>
  <circle cx="167" cy="427.5" r="2" style="fill:#000" class="net_12"/>
  <line x1="532" x2="560" y1="406" y2="406" class="net_12"/>
  <line x1="97" x2="167" y1="328.5" y2="328.5" class="net_12"/>
  <line x1="167" x2="167" y1="328.5" y2="528.5" class="net_12"/>
  <line x1="167" x2="620" y1="528.5" y2="528.5" class="net_12"/>
  <line x1="620" x2="620" y1="528.5" y2="507" class="net_12"/>
  <circle cx="167" cy="528.5" r="2" style="fill:#000" class="net_12"/>
  <circle cx="620" cy="528.5" r="2" style="fill:#000" class="net_12"/>
  <line x1="620" x2="633" y1="507" y2="507" class="net_12"/>
  <line x1="97" x2="167" y1="328.5" y2="328.5" class="net_12"/>
  <line x1="167" x2="167" y1="328.5" y2="528.5" class="net_12"/>
  <line x1="167" x2="683" y1="528.5" y2="528.5" class="net_12"/>
  <line x1="683" x2="683" y1="528.5" y2="286.5" class="net_12"/>
  <line x1="683" x2="701" y1="286.5" y2="286.5" class="net_12"/>
  <line x1="97" x2="167" y1="328.5" y2="328.5" class="net_12"/>
  <line x1="167" x2="167" y1="328.5" y2="561.5" class="net_12"/>
  <line x1="167" x2="1421" y1="561.5" y2="561.5" class="net_12"/>
  <line x1="1421" x2="1421" y1="561.5" y2="122" class="net_12"/>
  <line x1="1421" x2="1449" y1="122" y2="122" class="net_12"/>
  <line x1="97" x2="127" y1="348.5" y2="348.5" class="net_2"/>
  <line x1="127" x2="127" y1="348.5" y2="353.5" class="net_2"/>
  <circle cx="127" cy="348.5" r="2" style="fill:#000" class="net_2"/>
  <circle cx="127" cy="353.5" r="2" style="fill:#000" class="net_2"/>
  <line x1="127" x2="220" y1="353.5" y2="353.5" class="net_2"/>
  <line x1="97" x2="127" y1="348.5" y2="348.5" class="net_2"/>
  <line x1="127" x2="127" y1="348.5" y2="144" class="net_2"/>
  <line x1="127" x2="220" y1="144" y2="144" class="net_2"/>
  <line x1="97" x2="127" y1="348.5" y2="348.5" class="net_2"/>
  <line x1="127" x2="127" y1="348.5" y2="612.5" class="net_2"/>
  <line x1="127" x2="1514" y1="612.5" y2="612.5" class="net_2"/>
  <line x1="97" x2="220" y1="368.5" y2="368.5" class="net_4"/>
  <line x1="97" x2="117" y1="368.5" y2="368.5" class="net_4"/>
  <line x1="117" x2="117" y1="368.5" y2="469.5" class="net_4"/>
  <circle cx="117" cy="368.5" r="2" style="fill:#000" class="net_4"/>
  <line x1="117" x2="288" y1="469.5" y2="469.5" class="net_4"/>
  <line x1="97" x2="117" y1="368.5" y2="368.5" class="net_4"/>
  <line x1="117" x2="117" y1="368.5" y2="73" class="net_4"/>
  <line x1="117" x2="877" y1="73" y2="73" class="net_4"/>
  <line x1="877" x2="877" y1="73" y2="62" class="net_4"/>
  <line x1="877" x2="905" y1="62" y2="62" class="net_4"/>
  <line x1="250" x2="288" y1="361" y2="361" class="net_20"/>
  <line x1="97" x2="137" y1="388.5" y2="388.5" class="net_5"/>
  <line x1="137" x2="137" y1="388.5" y2="383.5" class="net_5"/>
  <line x1="137" x2="260" y1="383.5" y2="383.5" class="net_5"/>
  <line x1="260" x2="260" y1="383.5" y2="376" class="net_5"/>
  <circle cx="137" cy="388.5" r="2" style="fill:#000" class="net_5"/>
  <circle cx="137" cy="383.5" r="2" style="fill:#000" class="net_5"/>
  <line x1="260" x2="288" y1="376" y2="376" class="net_5"/>
  <line x1="97" x2="137" y1="388.5" y2="388.5" class="net_5"/>
  <line x1="137" x2="137" y1="388.5" y2="484.5" class="net_5"/>
  <line x1="137" x2="328" y1="484.5" y2="484.5" class="net_5"/>
  <line x1="328" x2="328" y1="484.5" y2="477" class="net_5"/>
  <line x1="328" x2="356" y1="477" y2="477" class="net_5"/>
  <line x1="97" x2="137" y1="388.5" y2="388.5" class="net_5"/>
  <line x1="137" x2="137" y1="388.5" y2="174" class="net_5"/>
  <line x1="137" x2="260" y1="174" y2="174" class="net_5"/>
  <line x1="260" x2="260" y1="174" y2="166.5" class="net_5"/>
  <circle cx="137" cy="174" r="2" style="fill:#000" class="net_5"/>
  <line x1="260" x2="288" y1="166.5" y2="166.5" class="net_5"/>
  <line x1="97" x2="137" y1="388.5" y2="388.5" class="net_5"/>
  <line x1="137" x2="137" y1="388.5" y2="84" class="net_5"/>
  <line x1="137" x2="945" y1="84" y2="84" class="net_5"/>
  <line x1="945" x2="945" y1="84" y2="69.5" class="net_5"/>
  <line x1="945" x2="973" y1="69.5" y2="69.5" class="net_5"/>
  <line x1="318" x2="356" y1="368.5" y2="368.5" class="net_21"/>
  <line x1="97" x2="177" y1="408.5" y2="408.5" class="net_7"/>
  <line x1="177" x2="177" y1="408.5" y2="394.5" class="net_7"/>
  <line x1="177" x2="328" y1="394.5" y2="394.5" class="net_7"/>
  <line x1="328" x2="328" y1="394.5" y2="383.5" class="net_7"/>
  <circle cx="177" cy="394.5" r="2" style="fill:#000" class="net_7"/>
  <line x1="328" x2="356" y1="383.5" y2="383.5" class="net_7"/>
  <line x1="97" x2="177" y1="408.5" y2="408.5" class="net_7"/>
  <line x1="177" x2="177" y1="408.5" y2="249" class="net_7"/>
  <circle cx="177" cy="249" r="2" style="fill:#000" class="net_7"/>
  <line x1="177" x2="356" y1="249" y2="249" class="net_7"/>
  <line x1="97" x2="177" y1="408.5" y2="408.5" class="net_7"/>
  <line x1="177" x2="177" y1="408.5" y2="106" class="net_7"/>
  <line x1="177" x2="1081" y1="106" y2="106" class="net_7"/>
  <line x1="1081" x2="1081" y1="106" y2="84.5" class="net_7"/>
  <line x1="1081" x2="1109" y1="84.5" y2="84.5" class="net_7"/>
  <line x1="386" x2="424" y1="376" y2="376" class="net_22"/>
  <line x1="97" x2="157" y1="428.5" y2="428.5" class="net_8"/>
  <line x1="157" x2="157" y1="428.5" y2="405.5" class="net_8"/>
  <line x1="157" x2="396" y1="405.5" y2="405.5" class="net_8"/>
  <line x1="396" x2="396" y1="405.5" y2="391" class="net_8"/>
  <circle cx="157" cy="405.5" r="2" style="fill:#000" class="net_8"/>
  <line x1="396" x2="424" y1="391" y2="391" class="net_8"/>
  <line x1="97" x2="157" y1="428.5" y2="428.5" class="net_8"/>
  <line x1="157" x2="157" y1="428.5" y2="264" class="net_8"/>
  <line x1="157" x2="396" y1="264" y2="264" class="net_8"/>
  <line x1="396" x2="396" y1="264" y2="256.5" class="net_8"/>
  <circle cx="157" cy="264" r="2" style="fill:#000" class="net_8"/>
  <line x1="396" x2="424" y1="256.5" y2="256.5" class="net_8"/>
  <line x1="97" x2="157" y1="428.5" y2="428.5" class="net_8"/>
  <line x1="157" x2="157" y1="428.5" y2="117" class="net_8"/>
  <line x1="157" x2="1149" y1="117" y2="117" class="net_8"/>
  <line x1="1149" x2="1149" y1="117" y2="92" class="net_8"/>
  <line x1="1149" x2="1177" y1="92" y2="92" class="net_8"/>
  <line x1="97" x2="157" y1="428.5" y2="428.5" class="net_8"/>
  <line x1="157" x2="157" y1="428.5" y2="196" class="net_8"/>
  <line x1="157" x2="396" y1="196" y2="196" class="net_8"/>
  <line x1="396" x2="396" y1="196" y2="181.5" class="net_8"/>
  <circle cx="157" cy="196" r="2" style="fill:#000" class="net_8"/>
  <line x1="396" x2="424" y1="181.5" y2="181.5" class="net_8"/>
  <line x1="454" x2="492" y1="383.5" y2="383.5" class="net_23"/>
  <line x1="97" x2="197" y1="448.5" y2="448.5" class="net_11"/>
  <line x1="197" x2="197" y1="448.5" y2="416.5" class="net_11"/>
  <line x1="197" x2="464" y1="416.5" y2="416.5" class="net_11"/>
  <line x1="464" x2="464" y1="416.5" y2="398.5" class="net_11"/>
  <circle cx="197" cy="448.5" r="2" style="fill:#000" class="net_11"/>
  <line x1="464" x2="492" y1="398.5" y2="398.5" class="net_11"/>
  <line x1="97" x2="197" y1="448.5" y2="448.5" class="net_11"/>
  <line x1="197" x2="197" y1="448.5" y2="517.5" class="net_11"/>
  <line x1="197" x2="532" y1="517.5" y2="517.5" class="net_11"/>
  <line x1="532" x2="532" y1="517.5" y2="499.5" class="net_11"/>
  <circle cx="197" cy="517.5" r="2" style="fill:#000" class="net_11"/>
  <line x1="532" x2="560" y1="499.5" y2="499.5" class="net_11"/>
  <line x1="97" x2="197" y1="448.5" y2="448.5" class="net_11"/>
  <line x1="197" x2="197" y1="448.5" y2="438.5" class="net_11"/>
  <line x1="197" x2="620" y1="438.5" y2="438.5" class="net_11"/>
  <line x1="620" x2="620" y1="438.5" y2="279" class="net_11"/>
  <circle cx="197" cy="438.5" r="2" style="fill:#000" class="net_11"/>
  <line x1="620" x2="633" y1="279" y2="279" class="net_11"/>
  <line x1="97" x2="197" y1="448.5" y2="448.5" class="net_11"/>
  <line x1="197" x2="197" y1="448.5" y2="550.5" class="net_11"/>
  <line x1="197" x2="1353" y1="550.5" y2="550.5" class="net_11"/>
  <line x1="1353" x2="1353" y1="550.5" y2="114.5" class="net_11"/>
  <line x1="1353" x2="1381" y1="114.5" y2="114.5" class="net_11"/>
  <line x1="522" x2="560" y1="391" y2="391" class="net_24"/>
  <line x1="97" x2="107" y1="468.5" y2="468.5" class="net_3"/>
  <line x1="107" x2="107" y1="468.5" y2="454.5" class="net_3"/>
  <circle cx="107" cy="454.5" r="2" style="fill:#000" class="net_3"/>
  <line x1="107" x2="288" y1="454.5" y2="454.5" class="net_3"/>
  <line x1="97" x2="107" y1="468.5" y2="468.5" class="net_3"/>
  <line x1="107" x2="107" y1="468.5" y2="159" class="net_3"/>
  <circle cx="107" cy="159" r="2" style="fill:#000" class="net_3"/>
  <line x1="107" x2="220" y1="159" y2="159" class="net_3"/>
  <line x1="97" x2="107" y1="468.5" y2="468.5" class="net_3"/>
  <line x1="107" x2="107" y1="468.5" y2="62" class="net_3"/>
  <line x1="107" x2="809" y1="62" y2="62" class="net_3"/>
  <line x1="809" x2="809" y1="62" y2="54.5" class="net_3"/>
  <line x1="809" x2="837" y1="54.5" y2="54.5" class="net_3"/>
  <line x1="318" x2="356" y1="462" y2="462" class="net_25"/>
  <line x1="386" x2="424" y1="469.5" y2="469.5" class="net_27"/>
  <line x1="97" x2="187" y1="488.5" y2="488.5" class="net_9"/>
  <line x1="187" x2="187" y1="488.5" y2="495.5" class="net_9"/>
  <line x1="187" x2="396" y1="495.5" y2="495.5" class="net_9"/>
  <line x1="396" x2="396" y1="495.5" y2="484.5" class="net_9"/>
  <circle cx="187" cy="488.5" r="2" style="fill:#000" class="net_9"/>
  <line x1="396" x2="424" y1="484.5" y2="484.5" class="net_9"/>
  <line x1="97" x2="187" y1="488.5" y2="488.5" class="net_9"/>
  <line x1="187" x2="187" y1="488.5" y2="275" class="net_9"/>
  <line x1="187" x2="464" y1="275" y2="275" class="net_9"/>
  <line x1="464" x2="464" y1="275" y2="264" class="net_9"/>
  <circle cx="187" cy="275" r="2" style="fill:#000" class="net_9"/>
  <line x1="464" x2="492" y1="264" y2="264" class="net_9"/>
  <line x1="97" x2="187" y1="488.5" y2="488.5" class="net_9"/>
  <line x1="187" x2="187" y1="488.5" y2="128" class="net_9"/>
  <line x1="187" x2="1217" y1="128" y2="128" class="net_9"/>
  <line x1="1217" x2="1217" y1="128" y2="99.5" class="net_9"/>
  <line x1="1217" x2="1245" y1="99.5" y2="99.5" class="net_9"/>
  <line x1="454" x2="492" y1="477" y2="477" class="net_28"/>
  <line x1="522" x2="560" y1="484.5" y2="484.5" class="net_29"/>
  <line x1="590" x2="633" y1="492" y2="492" class="net_30"/>
  <line x1="97" x2="147" y1="508.5" y2="508.5" class="net_6"/>
  <line x1="147" x2="147" y1="508.5" y2="234" class="net_6"/>
  <circle cx="147" cy="234" r="2" style="fill:#000" class="net_6"/>
  <line x1="147" x2="356" y1="234" y2="234" class="net_6"/>
  <line x1="97" x2="147" y1="508.5" y2="508.5" class="net_6"/>
  <line x1="147" x2="147" y1="508.5" y2="95" class="net_6"/>
  <line x1="147" x2="1013" y1="95" y2="95" class="net_6"/>
  <line x1="1013" x2="1013" y1="95" y2="77" class="net_6"/>
  <line x1="1013" x2="1041" y1="77" y2="77" class="net_6"/>
  <line x1="97" x2="147" y1="508.5" y2="508.5" class="net_6"/>
  <line x1="147" x2="147" y1="508.5" y2="185" class="net_6"/>
  <line x1="147" x2="328" y1="185" y2="185" class="net_6"/>
  <line x1="328" x2="328" y1="185" y2="174" class="net_6"/>
  <circle cx="147" cy="185" r="2" style="fill:#000" class="net_6"/>
  <line x1="328" x2="356" y1="174" y2="174" class="net_6"/>
  <line x1="386" x2="424" y1="241.5" y2="241.5" class="net_31"/>
  <line x1="454" x2="492" y1="249" y2="249" class="net_32"/>
  <line x1="522" x2="560" y1="256.5" y2="256.5" class="net_33"/>
  <line x1="250" x2="288" y1="151.5" y2="151.5" class="net_26"/>
  <line x1="590" x2="633" y1="264" y2="264" class="net_34"/>
  <line x1="663" x2="701" y1="271.5" y2="271.5" class="net_36"/>
  <line x1="590" x2="600" y1="189" y2="189" class="net_14"/>
  <line x1="600" x2="600" y1="189" y2="17" class="net_14"/>
  <circle cx="600" cy="189" r="2" style="fill:#000" class="net_14"/>
  <line x1="600" x2="633" y1="17" y2="17" class="net_14"/>
  <line x1="590" x2="600" y1="189" y2="189" class="net_14"/>
  <line x1="600" x2="600" y1="189" y2="572.5" class="net_14"/>
  <line x1="600" x2="1514" y1="572.5" y2="572.5" class="net_14"/>
  <line x1="590" x2="610" y1="398.5" y2="398.5" class="net_15"/>
  <line x1="610" x2="610" y1="398.5" y2="32" class="net_15"/>
  <circle cx="610" cy="398.5" r="2" style="fill:#000" class="net_15"/>
  <line x1="610" x2="633" y1="32" y2="32" class="net_15"/>
  <line x1="590" x2="610" y1="398.5" y2="398.5" class="net_15"/>
  <line x1="610" x2="610" y1="398.5" y2="592.5" class="net_15"/>
  <line x1="610" x2="1514" y1="592.5" y2="592.5" class="net_15"/>
  <line x1="663" x2="701" y1="24.5" y2="24.5" class="net_37"/>
  <line x1="663" x2="673" y1="499.5" y2="499.5" class="net_16"/>
  <line x1="673" x2="673" y1="499.5" y2="39.5" class="net_16"/>
  <circle cx="673" cy="499.5" r="2" style="fill:#000" class="net_16"/>
  <line x1="673" x2="701" y1="39.5" y2="39.5" class="net_16"/>
  <line x1="663" x2="673" y1="499.5" y2="499.5" class="net_16"/>
  <line x1="673" x2="673" y1="499.5" y2="632.5" class="net_16"/>
  <line x1="673" x2="1514" y1="632.5" y2="632.5" class="net_16"/>
  <line x1="731" x2="769" y1="32" y2="32" class="net_38"/>
  <line x1="731" x2="741" y1="279" y2="279" class="net_17"/>
  <line x1="741" x2="741" y1="279" y2="47" class="net_17"/>
  <circle cx="741" cy="279" r="2" style="fill:#000" class="net_17"/>
  <line x1="741" x2="769" y1="47" y2="47" class="net_17"/>
  <line x1="731" x2="741" y1="279" y2="279" class="net_17"/>
  <line x1="741" x2="741" y1="279" y2="672.5" class="net_17"/>
  <line x1="741" x2="1514" y1="672.5" y2="672.5" class="net_17"/>
  <line x1="799" x2="837" y1="39.5" y2="39.5" class="net_39"/>
  <line x1="867" x2="905" y1="47" y2="47" class="net_40"/>
  <line x1="935" x2="973" y1="54.5" y2="54.5" class="net_41"/>
  <line x1="1003" x2="1041" y1="62" y2="62" class="net_42"/>
  <line x1="1071" x2="1109" y1="69.5" y2="69.5" class="net_43"/>
  <line x1="318" x2="356" y1="159" y2="159" class="net_35"/>
  <line x1="1139" x2="1177" y1="77" y2="77" class="net_44"/>
  <line x1="1207" x2="1245" y1="84.5" y2="84.5" class="net_46"/>
  <line x1="1275" x2="1313" y1="92" y2="92" class="net_47"/>
  <line x1="1343" x2="1381" y1="99.5" y2="99.5" class="net_48"/>
  <line x1="1411" x2="1449" y1="107" y2="107" class="net_49"/>
  <line x1="386" x2="424" y1="166.5" y2="166.5" class="net_45"/>
  <line x1="1520" x2="1557" y1="562.5" y2="562.5" class="net_13,14,15,2,16,3,4,5,17,6,7,8,9,10,11,12"/>
  <line x1="1479" x2="1514.5" y1="114.5" y2="114.5" class="net_13"/>
  <line x1="1514.5" x2="1514.5" y1="114.5" y2="552" class="net_13"/>
  <line x1="97" x2="107" y1="528.5" y2="528.5" class="net_3,4,5"/>
  <line x1="107" x2="107" y1="528.5" y2="652.5" class="net_3,4,5"/>
  <line x1="107" x2="1514" y1="652.5" y2="652.5" class="net_3,4,5"/>
  <line x1="96.5" x2="96.5" y1="549" y2="712" class="net_6,7,8,9,10,11,12"/>
  <line x1="96.5" x2="1514.5" y1="712" y2="712" class="net_6,7,8,9,10,11,12"/>
  <line x1="1514.5" x2="1514.5" y1="712" y2="693" class="net_6,7,8,9,10,11,12"/>
  <line x1="40" x2="92.5" y1="251" y2="251" class="net_2,3,4,5,6,7,8,9,10,11,12"/>
  <line x1="92.5" x2="92.5" y1="251" y2="318" class="net_2,3,4,5,6,7,8,9,10,11,12"/>
</svg>
