<svg xmlns="http://www.w3.org/2000/svg" xmlns:xlink="http://www.w3.org/1999/xlink" xmlns:s="https://github.com/nturley/netlistsvg" width="1076" height="599">
  <style>svg {
    stroke:#000;
    fill:none;
  }
  text {
    fill:#000;
    stroke:none;
    font-size:10px;
    font-weight: bold;
    font-family: "Courier New", monospace;
  }
  line {
      stroke-linecap: round;
  }
  .nodelabel {
    text-anchor: middle;
  }
  .inputPortLabel {
    text-anchor: end;
  }
  .splitjoinBody {
    fill:#000;
  }</style>
  <g s:type="not" transform="translate(177,167)" s:width="30" s:height="20" id="cell_\36">
    <s:alias val="$_NOT_"/>
    <s:alias val="$not"/>
    <s:alias val="$logic_not"/>
    <path d="M0,0 L0,20 L20,10 Z" class="cell_\36"/>
    <circle cx="24" cy="10" r="3" class="cell_\36"/>
    <g s:x="-1" s:y="10" s:pid="A"/>
    <g s:x="27" s:y="10" s:pid="Y"/>
  </g>
  <g s:type="generic" transform="translate(796,166.5)" s:width="30" s:height="40" id="cell_correct1">
    <text x="15" y="-4" class="nodelabel cell_correct1" s:attribute="ref">hamming_correct</text>
    <rect width="30" height="40" s:generic="body" class="cell_correct1"/>
    <g transform="translate(0,10)" s:x="0" s:y="10" s:pid="in0" id="port_correct1~data_in">
      <text x="-3" y="-4" class="inputPortLabel cell_correct1">data_in</text>
    </g>
    <g transform="translate(0,30)" s:x="0" s:y="10" s:pid="in0" id="port_correct1~error_location">
      <text x="-3" y="-4" class="inputPortLabel cell_correct1">error_location</text>
    </g>
    <g transform="translate(30,10)" s:x="30" s:y="10" s:pid="out0" id="port_correct1~data_out">
      <text x="5" y="-4" style="fill:#000; stroke:none" class="cell_correct1">data_out</text>
    </g>
  </g>
  <g s:type="generic" transform="translate(521,228)" s:width="30" s:height="40" id="cell_detect1">
    <text x="15" y="-4" class="nodelabel cell_detect1" s:attribute="ref">hamming_detect</text>
    <rect width="30" height="40" s:generic="body" class="cell_detect1"/>
    <g transform="translate(0,10)" s:x="0" s:y="10" s:pid="in0" id="port_detect1~data_in">
      <text x="-3" y="-4" class="inputPortLabel cell_detect1">data_in</text>
    </g>
    <g transform="translate(30,10)" s:x="30" s:y="10" s:pid="out0" id="port_detect1~error_double">
      <text x="5" y="-4" style="fill:#000; stroke:none" class="cell_detect1">error_double</text>
    </g>
    <g transform="translate(30,30)" s:x="30" s:y="10" s:pid="out0" id="port_detect1~error_location">
      <text x="5" y="-4" style="fill:#000; stroke:none" class="cell_detect1">error_location</text>
    </g>
  </g>
  <g s:type="generic" transform="translate(324,166.5)" s:width="30" s:height="40" id="cell_set1">
    <text x="15" y="-4" class="nodelabel cell_set1" s:attribute="ref">hamming_set</text>
    <rect width="30" height="20" s:generic="body" class="cell_set1"/>
    <g transform="translate(0,10)" s:x="0" s:y="10" s:pid="in0" id="port_set1~data_in">
      <text x="-3" y="-4" class="inputPortLabel cell_set1">data_in</text>
    </g>
    <g transform="translate(30,10)" s:x="30" s:y="10" s:pid="out0" id="port_set1~data_out">
      <text x="5" y="-4" style="fill:#000; stroke:none" class="cell_set1">data_out</text>
    </g>
  </g>
  <g s:type="inputExt" transform="translate(12,22)" s:width="30" s:height="20" id="cell_gpio_31">
    <text x="15" y="-4" class="nodelabel cell_gpio_31" s:attribute="ref">gpio_31</text>
    <s:alias val="$_inputExt_"/>
    <path d="M0,0 L0,20 L15,20 L30,10 L15,0 Z" class="cell_gpio_31"/>
    <g s:x="30" s:y="10" s:pid="Y"/>
  </g>
  <g s:type="inputExt" transform="translate(12,87)" s:width="30" s:height="20" id="cell_gpio_37">
    <text x="15" y="-4" class="nodelabel cell_gpio_37" s:attribute="ref">gpio_37</text>
    <s:alias val="$_inputExt_"/>
    <path d="M0,0 L0,20 L15,20 L30,10 L15,0 Z" class="cell_gpio_37"/>
    <g s:x="30" s:y="10" s:pid="Y"/>
  </g>
  <g s:type="inputExt" transform="translate(12,152)" s:width="30" s:height="20" id="cell_gpio_34">
    <text x="15" y="-4" class="nodelabel cell_gpio_34" s:attribute="ref">gpio_34</text>
    <s:alias val="$_inputExt_"/>
    <path d="M0,0 L0,20 L15,20 L30,10 L15,0 Z" class="cell_gpio_34"/>
    <g s:x="30" s:y="10" s:pid="Y"/>
  </g>
  <g s:type="inputExt" transform="translate(12,217)" s:width="30" s:height="20" id="cell_gpio_43">
    <text x="15" y="-4" class="nodelabel cell_gpio_43" s:attribute="ref">gpio_43</text>
    <s:alias val="$_inputExt_"/>
    <path d="M0,0 L0,20 L15,20 L30,10 L15,0 Z" class="cell_gpio_43"/>
    <g s:x="30" s:y="10" s:pid="Y"/>
  </g>
  <g s:type="inputExt" transform="translate(12,282)" s:width="30" s:height="20" id="cell_gpio_36">
    <text x="15" y="-4" class="nodelabel cell_gpio_36" s:attribute="ref">gpio_36</text>
    <s:alias val="$_inputExt_"/>
    <path d="M0,0 L0,20 L15,20 L30,10 L15,0 Z" class="cell_gpio_36"/>
    <g s:x="30" s:y="10" s:pid="Y"/>
  </g>
  <g s:type="inputExt" transform="translate(12,347)" s:width="30" s:height="20" id="cell_gpio_42">
    <text x="15" y="-4" class="nodelabel cell_gpio_42" s:attribute="ref">gpio_42</text>
    <s:alias val="$_inputExt_"/>
    <path d="M0,0 L0,20 L15,20 L30,10 L15,0 Z" class="cell_gpio_42"/>
    <g s:x="30" s:y="10" s:pid="Y"/>
  </g>
  <g s:type="inputExt" transform="translate(12,412)" s:width="30" s:height="20" id="cell_gpio_38">
    <text x="15" y="-4" class="nodelabel cell_gpio_38" s:attribute="ref">gpio_38</text>
    <s:alias val="$_inputExt_"/>
    <path d="M0,0 L0,20 L15,20 L30,10 L15,0 Z" class="cell_gpio_38"/>
    <g s:x="30" s:y="10" s:pid="Y"/>
  </g>
  <g s:type="inputExt" transform="translate(12,477)" s:width="30" s:height="20" id="cell_gpio_28">
    <text x="15" y="-4" class="nodelabel cell_gpio_28" s:attribute="ref">gpio_28</text>
    <s:alias val="$_inputExt_"/>
    <path d="M0,0 L0,20 L15,20 L30,10 L15,0 Z" class="cell_gpio_28"/>
    <g s:x="30" s:y="10" s:pid="Y"/>
  </g>
  <g s:type="outputExt" transform="translate(1022,109.5)" s:width="30" s:height="20" id="cell_gpio_9">
    <text x="15" y="-4" class="nodelabel cell_gpio_9" s:attribute="ref">gpio_9</text>
    <s:alias val="$_outputExt_"/>
    <path d="M30,0 L30,20 L15,20 L0,10 L15,0 Z" class="cell_gpio_9"/>
    <g s:x="0" s:y="10" s:pid="A"/>
  </g>
  <g s:type="outputExt" transform="translate(1022,177)" s:width="30" s:height="20" id="cell_gpio_6">
    <text x="15" y="-4" class="nodelabel cell_gpio_6" s:attribute="ref">gpio_6</text>
    <s:alias val="$_outputExt_"/>
    <path d="M30,0 L30,20 L15,20 L0,10 L15,0 Z" class="cell_gpio_6"/>
    <g s:x="0" s:y="10" s:pid="A"/>
  </g>
  <g s:type="outputExt" transform="translate(1022,242)" s:width="30" s:height="20" id="cell_gpio_44">
    <text x="15" y="-4" class="nodelabel cell_gpio_44" s:attribute="ref">gpio_44</text>
    <s:alias val="$_outputExt_"/>
    <path d="M30,0 L30,20 L15,20 L0,10 L15,0 Z" class="cell_gpio_44"/>
    <g s:x="0" s:y="10" s:pid="A"/>
  </g>
  <g s:type="outputExt" transform="translate(1022,307)" s:width="30" s:height="20" id="cell_gpio_4">
    <text x="15" y="-4" class="nodelabel cell_gpio_4" s:attribute="ref">gpio_4</text>
    <s:alias val="$_outputExt_"/>
    <path d="M30,0 L30,20 L15,20 L0,10 L15,0 Z" class="cell_gpio_4"/>
    <g s:x="0" s:y="10" s:pid="A"/>
  </g>
  <g s:type="outputExt" transform="translate(1022,372)" s:width="30" s:height="20" id="cell_gpio_45">
    <text x="15" y="-4" class="nodelabel cell_gpio_45" s:attribute="ref">gpio_45</text>
    <s:alias val="$_outputExt_"/>
    <path d="M30,0 L30,20 L15,20 L0,10 L15,0 Z" class="cell_gpio_45"/>
    <g s:x="0" s:y="10" s:pid="A"/>
  </g>
  <g s:type="outputExt" transform="translate(1022,437)" s:width="30" s:height="20" id="cell_gpio_47">
    <text x="15" y="-4" class="nodelabel cell_gpio_47" s:attribute="ref">gpio_47</text>
    <s:alias val="$_outputExt_"/>
    <path d="M30,0 L30,20 L15,20 L0,10 L15,0 Z" class="cell_gpio_47"/>
    <g s:x="0" s:y="10" s:pid="A"/>
  </g>
  <g s:type="outputExt" transform="translate(1022,502)" s:width="30" s:height="20" id="cell_gpio_46">
    <text x="15" y="-4" class="nodelabel cell_gpio_46" s:attribute="ref">gpio_46</text>
    <s:alias val="$_outputExt_"/>
    <path d="M30,0 L30,20 L15,20 L0,10 L15,0 Z" class="cell_gpio_46"/>
    <g s:x="0" s:y="10" s:pid="A"/>
  </g>
  <g s:type="outputExt" transform="translate(1022,567)" s:width="30" s:height="20" id="cell_gpio_2">
    <text x="15" y="-4" class="nodelabel cell_gpio_2" s:attribute="ref">gpio_2</text>
    <s:alias val="$_outputExt_"/>
    <path d="M30,0 L30,20 L15,20 L0,10 L15,0 Z" class="cell_gpio_2"/>
    <g s:x="0" s:y="10" s:pid="A"/>
  </g>
  <g s:type="join" transform="translate(94,156.5)" s:width="4" s:height="40" id="cell_$join$,2,3,4,5,6,7,8,9,">
    <rect width="5" height="160" class="splitjoinBody" s:generic="body"/>
    <s:alias val="$_join_"/>
    <g s:x="5" s:y="20" s:pid="out"/>
    <g transform="translate(0,10)" s:x="0" s:y="10" s:pid="in0">
      <text x="-3" y="-4" class="inputPortLabel">0</text>
    </g>
    <g transform="translate(0,30)" s:x="0" s:y="10" s:pid="in0">
      <text x="-3" y="-4" class="inputPortLabel">1</text>
    </g>
    <g transform="translate(0,50)" s:x="0" s:y="10" s:pid="in0">
      <text x="-3" y="-4" class="inputPortLabel">2</text>
    </g>
    <g transform="translate(0,70)" s:x="0" s:y="10" s:pid="in0">
      <text x="-3" y="-4" class="inputPortLabel">3</text>
    </g>
    <g transform="translate(0,90)" s:x="0" s:y="10" s:pid="in0">
      <text x="-3" y="-4" class="inputPortLabel">4</text>
    </g>
    <g transform="translate(0,110)" s:x="0" s:y="10" s:pid="in0">
      <text x="-3" y="-4" class="inputPortLabel">5</text>
    </g>
    <g transform="translate(0,130)" s:x="0" s:y="10" s:pid="in0">
      <text x="-3" y="-4" class="inputPortLabel">6</text>
    </g>
    <g transform="translate(0,150)" s:x="0" s:y="10" s:pid="in0">
      <text x="-3" y="-4" class="inputPortLabel">7</text>
    </g>
  </g>
  <g s:type="split" transform="translate(950,156.5)" s:width="5" s:height="40" id="cell_$split$,10,11,12,13,14,15,16,17,45,46,47,">
    <rect width="5" height="160" class="splitjoinBody" s:generic="body"/>
    <s:alias val="$_split_"/>
    <g s:x="0" s:y="20" s:pid="in"/>
    <g transform="translate(4,10)" s:x="4" s:y="10" s:pid="out0">
      <text x="5" y="-4">0</text>
    </g>
    <g transform="translate(4,30)" s:x="4" s:y="10" s:pid="out0">
      <text x="5" y="-4">1</text>
    </g>
    <g transform="translate(4,50)" s:x="4" s:y="10" s:pid="out0">
      <text x="5" y="-4">2</text>
    </g>
    <g transform="translate(4,70)" s:x="4" s:y="10" s:pid="out0">
      <text x="5" y="-4">3</text>
    </g>
    <g transform="translate(4,90)" s:x="4" s:y="10" s:pid="out0">
      <text x="5" y="-4">4</text>
    </g>
    <g transform="translate(4,110)" s:x="4" s:y="10" s:pid="out0">
      <text x="5" y="-4">5</text>
    </g>
    <g transform="translate(4,130)" s:x="4" s:y="10" s:pid="out0">
      <text x="5" y="-4">6</text>
    </g>
    <g transform="translate(4,150)" s:x="4" s:y="10" s:pid="out0">
      <text x="5" y="-4">7</text>
    </g>
  </g>
  <line x1="100" x2="176" y1="177" y2="177" class="net_2,3,4,5,6,7,8,9 width_8" style="stroke-width: 2"/>
  <line x1="355" x2="796" y1="177" y2="177" class="net_29,30,31,32,33,34,35,36,37,38,39,40,41,42,43,44 width_16" style="stroke-width: 2"/>
  <line x1="355" x2="414" y1="177" y2="177" class="net_29,30,31,32,33,34,35,36,37,38,39,40,41,42,43,44 width_16" style="stroke-width: 2"/>
  <line x1="414" x2="414" y1="177" y2="238.5" class="net_29,30,31,32,33,34,35,36,37,38,39,40,41,42,43,44 width_16" style="stroke-width: 2"/>
  <circle cx="414" cy="177" r="3" style="fill:#000" class="net_29,30,31,32,33,34,35,36,37,38,39,40,41,42,43,44 width_16"/>
  <line x1="414" x2="521" y1="238.5" y2="238.5" class="net_29,30,31,32,33,34,35,36,37,38,39,40,41,42,43,44 width_16" style="stroke-width: 2"/>
  <line x1="552" x2="686" y1="258.5" y2="258.5" class="net_48,49,50,51 width_4" style="stroke-width: 2"/>
  <line x1="686" x2="686" y1="258.5" y2="197" class="net_48,49,50,51 width_4" style="stroke-width: 2"/>
  <line x1="686" x2="796" y1="197" y2="197" class="net_48,49,50,51 width_4" style="stroke-width: 2"/>
  <line x1="204" x2="324" y1="177" y2="177" class="net_18,19,20,21,22,23,24,25,26,27,28 width_11" style="stroke-width: 2"/>
  <line x1="954.5" x2="954.5" y1="166.5" y2="119.5" class="net_10 width_1" style="stroke-width: 1"/>
  <line x1="954.5" x2="1022" y1="119.5" y2="119.5" class="net_10 width_1" style="stroke-width: 1"/>
  <line x1="955" x2="1022" y1="187" y2="187" class="net_11 width_1" style="stroke-width: 1"/>
  <line x1="955" x2="1012" y1="207" y2="207" class="net_12 width_1" style="stroke-width: 1"/>
  <line x1="1012" x2="1012" y1="207" y2="252" class="net_12 width_1" style="stroke-width: 1"/>
  <line x1="1012" x2="1022" y1="252" y2="252" class="net_12 width_1" style="stroke-width: 1"/>
  <line x1="955" x2="1002" y1="227" y2="227" class="net_13 width_1" style="stroke-width: 1"/>
  <line x1="1002" x2="1002" y1="227" y2="317" class="net_13 width_1" style="stroke-width: 1"/>
  <line x1="1002" x2="1022" y1="317" y2="317" class="net_13 width_1" style="stroke-width: 1"/>
  <line x1="955" x2="992" y1="247" y2="247" class="net_14 width_1" style="stroke-width: 1"/>
  <line x1="992" x2="992" y1="247" y2="382" class="net_14 width_1" style="stroke-width: 1"/>
  <line x1="992" x2="1022" y1="382" y2="382" class="net_14 width_1" style="stroke-width: 1"/>
  <line x1="955" x2="982" y1="267" y2="267" class="net_15 width_1" style="stroke-width: 1"/>
  <line x1="982" x2="982" y1="267" y2="447" class="net_15 width_1" style="stroke-width: 1"/>
  <line x1="982" x2="1022" y1="447" y2="447" class="net_15 width_1" style="stroke-width: 1"/>
  <line x1="955" x2="972" y1="287" y2="287" class="net_16 width_1" style="stroke-width: 1"/>
  <line x1="972" x2="972" y1="287" y2="512" class="net_16 width_1" style="stroke-width: 1"/>
  <line x1="972" x2="1022" y1="512" y2="512" class="net_16 width_1" style="stroke-width: 1"/>
  <line x1="954.5" x2="954.5" y1="307.5" y2="577" class="net_17 width_1" style="stroke-width: 1"/>
  <line x1="954.5" x2="1022" y1="577" y2="577" class="net_17 width_1" style="stroke-width: 1"/>
  <line x1="42" x2="94.5" y1="32" y2="32" class="net_2 width_1" style="stroke-width: 1"/>
  <line x1="94.5" x2="94.5" y1="32" y2="166.5" class="net_2 width_1" style="stroke-width: 1"/>
  <line x1="42" x2="74" y1="97" y2="97" class="net_3 width_1" style="stroke-width: 1"/>
  <line x1="74" x2="74" y1="97" y2="187" class="net_3 width_1" style="stroke-width: 1"/>
  <line x1="74" x2="94" y1="187" y2="187" class="net_3 width_1" style="stroke-width: 1"/>
  <line x1="42" x2="64" y1="162" y2="162" class="net_4 width_1" style="stroke-width: 1"/>
  <line x1="64" x2="64" y1="162" y2="207" class="net_4 width_1" style="stroke-width: 1"/>
  <line x1="64" x2="94" y1="207" y2="207" class="net_4 width_1" style="stroke-width: 1"/>
  <line x1="42" x2="94" y1="227" y2="227" class="net_5 width_1" style="stroke-width: 1"/>
  <line x1="42" x2="64" y1="292" y2="292" class="net_6 width_1" style="stroke-width: 1"/>
  <line x1="64" x2="64" y1="292" y2="247" class="net_6 width_1" style="stroke-width: 1"/>
  <line x1="64" x2="94" y1="247" y2="247" class="net_6 width_1" style="stroke-width: 1"/>
  <line x1="42" x2="74" y1="357" y2="357" class="net_7 width_1" style="stroke-width: 1"/>
  <line x1="74" x2="74" y1="357" y2="267" class="net_7 width_1" style="stroke-width: 1"/>
  <line x1="74" x2="94" y1="267" y2="267" class="net_7 width_1" style="stroke-width: 1"/>
  <line x1="42" x2="84" y1="422" y2="422" class="net_8 width_1" style="stroke-width: 1"/>
  <line x1="84" x2="84" y1="422" y2="287" class="net_8 width_1" style="stroke-width: 1"/>
  <line x1="84" x2="94" y1="287" y2="287" class="net_8 width_1" style="stroke-width: 1"/>
  <line x1="42" x2="94.5" y1="487" y2="487" class="net_9 width_1" style="stroke-width: 1"/>
  <line x1="94.5" x2="94.5" y1="487" y2="307.5" class="net_9 width_1" style="stroke-width: 1"/>
  <line x1="827" x2="950" y1="177" y2="177" class="net_10,11,12,13,14,15,16,17,45,46,47 width_11" style="stroke-width: 2"/>
  <rect x="138" y="172" width="16" height="9" class="net_2,3,4,5,6,7,8,9 width_8 busLabel_8" style="fill: white; stroke: none"/>
  <text x="137" y="180" class="net_2,3,4,5,6,7,8,9 width_8 busLabel_8">/8/</text>
  <rect x="440" y="233.5" width="22" height="9" class="net_29,30,31,32,33,34,35,36,37,38,39,40,41,42,43,44 width_16 busLabel_16" style="fill: white; stroke: none"/>
  <text x="439" y="241.5" class="net_29,30,31,32,33,34,35,36,37,38,39,40,41,42,43,44 width_16 busLabel_16">/16/</text>
  <rect x="440" y="233.5" width="22" height="9" class="net_29,30,31,32,33,34,35,36,37,38,39,40,41,42,43,44 width_16 busLabel_16" style="fill: white; stroke: none"/>
  <text x="439" y="241.5" class="net_29,30,31,32,33,34,35,36,37,38,39,40,41,42,43,44 width_16 busLabel_16">/16/</text>
  <rect x="673" y="253.5" width="16" height="9" class="net_48,49,50,51 width_4 busLabel_4" style="fill: white; stroke: none"/>
  <text x="672" y="261.5" class="net_48,49,50,51 width_4 busLabel_4">/4/</text>
  <rect x="243" y="172" width="22" height="9" class="net_18,19,20,21,22,23,24,25,26,27,28 width_11 busLabel_11" style="fill: white; stroke: none"/>
  <text x="242" y="180" class="net_18,19,20,21,22,23,24,25,26,27,28 width_11 busLabel_11">/11/</text>
  <rect x="912" y="172" width="22" height="9" class="net_10,11,12,13,14,15,16,17,45,46,47 width_11 busLabel_11" style="fill: white; stroke: none"/>
  <text x="911" y="180" class="net_10,11,12,13,14,15,16,17,45,46,47 width_11 busLabel_11">/11/</text>
</svg>
