<svg xmlns="http://www.w3.org/2000/svg" xmlns:xlink="http://www.w3.org/1999/xlink" xmlns:s="https://github.com/nturley/netlistsvg" width="546" height="424.5">
  <style>svg {
    stroke:#000;
    fill:none;
  }
  text {
    fill:#000;
    stroke:none;
    font-size:10px;
    font-weight: bold;
    font-family: "Courier New", monospace;
  }
  .nodelabel {
    text-anchor: middle;
  }
  .inputPortLabel {
    text-anchor: end;
  }
  .splitjoinBody {
    fill:#000;
  }</style>
  <g s:type="generic" transform="translate(294,313.5)" s:width="30" s:height="40" id="cell_butler1">
    <text x="15" y="-4" class="nodelabel cell_butler1" s:attribute="ref">BUTLER</text>
    <rect width="30" height="40" s:generic="body" class="cell_butler1"/>
    <g transform="translate(0,10)" s:x="0" s:y="10" s:pid="in0" id="port_butler1~s_col">
      <text x="-3" y="-4" class="inputPortLabel cell_butler1">s_col</text>
    </g>
    <g transform="translate(0,30)" s:x="0" s:y="10" s:pid="in0" id="port_butler1~s_row">
      <text x="-3" y="-4" class="inputPortLabel cell_butler1">s_row</text>
    </g>
    <g transform="translate(30,10)" s:x="30" s:y="10" s:pid="out0" id="port_butler1~text_addr">
      <text x="5" y="-4" style="fill:#000; stroke:none" class="cell_butler1">text_addr</text>
    </g>
  </g>
  <g s:type="generic" transform="translate(39,22)" s:width="30" s:height="40" id="cell_clk1">
    <text x="15" y="-4" class="nodelabel cell_clk1" s:attribute="ref">HSOSC</text>
    <rect width="30" height="20" s:generic="body" class="cell_clk1"/>
    <g transform="translate(30,10)" s:x="30" s:y="10" s:pid="out0" id="port_clk1~ClkHF">
      <text x="5" y="-4" style="fill:#000; stroke:none" class="cell_clk1">ClkHF</text>
    </g>
  </g>
  <g s:type="generic" transform="translate(446,293.5)" s:width="30" s:height="40" id="cell_color_buffer1">
    <text x="15" y="-4" class="nodelabel cell_color_buffer1" s:attribute="ref">TEXT_BUFFER</text>
    <rect width="30" height="40" s:generic="body" class="cell_color_buffer1"/>
    <g transform="translate(0,10)" s:x="0" s:y="10" s:pid="in0" id="port_color_buffer1~Clk">
      <text x="-3" y="-4" class="inputPortLabel cell_color_buffer1">Clk</text>
    </g>
    <g transform="translate(0,30)" s:x="0" s:y="10" s:pid="in0" id="port_color_buffer1~RADDR">
      <text x="-3" y="-4" class="inputPortLabel cell_color_buffer1">RADDR</text>
    </g>
    <g transform="translate(30,10)" s:x="30" s:y="10" s:pid="out0" id="port_color_buffer1~RDATA">
      <text x="5" y="-4" style="fill:#000; stroke:none" class="cell_color_buffer1">RDATA</text>
    </g>
  </g>
  <g s:type="generic" transform="translate(63,188)" s:width="30" s:height="40" id="cell_font1">
    <text x="15" y="-4" class="nodelabel cell_font1" s:attribute="ref">FONT</text>
    <rect width="30" height="60" s:generic="body" class="cell_font1"/>
    <g transform="translate(0,10)" s:x="0" s:y="10" s:pid="in0" id="port_font1~ASCII">
      <text x="-3" y="-4" class="inputPortLabel cell_font1">ASCII</text>
    </g>
    <g transform="translate(30,10)" s:x="30" s:y="10" s:pid="out0" id="port_font1~B">
      <text x="5" y="-4" style="fill:#000; stroke:none" class="cell_font1">B</text>
    </g>
    <g transform="translate(30,30)" s:x="30" s:y="10" s:pid="out0" id="port_font1~G">
      <text x="5" y="-4" style="fill:#000; stroke:none" class="cell_font1">G</text>
    </g>
    <g transform="translate(30,50)" s:x="30" s:y="10" s:pid="out0" id="port_font1~R">
      <text x="5" y="-4" style="fill:#000; stroke:none" class="cell_font1">R</text>
    </g>
  </g>
  <g s:type="generic" transform="translate(161,168)" s:width="30" s:height="40" id="cell_vga1">
    <text x="15" y="-4" class="nodelabel cell_vga1" s:attribute="ref">VGA</text>
    <rect width="30" height="140" s:generic="body" class="cell_vga1"/>
    <g transform="translate(0,10)" s:x="0" s:y="10" s:pid="in0" id="port_vga1~Clk">
      <text x="-3" y="-4" class="inputPortLabel cell_vga1">Clk</text>
    </g>
    <g transform="translate(0,30)" s:x="0" s:y="10" s:pid="in0" id="port_vga1~b_in">
      <text x="-3" y="-4" class="inputPortLabel cell_vga1">b_in</text>
    </g>
    <g transform="translate(0,50)" s:x="0" s:y="10" s:pid="in0" id="port_vga1~g_in">
      <text x="-3" y="-4" class="inputPortLabel cell_vga1">g_in</text>
    </g>
    <g transform="translate(0,70)" s:x="0" s:y="10" s:pid="in0" id="port_vga1~r_in">
      <text x="-3" y="-4" class="inputPortLabel cell_vga1">r_in</text>
    </g>
    <g transform="translate(30,10)" s:x="30" s:y="10" s:pid="out0" id="port_vga1~HSYNC">
      <text x="5" y="-4" style="fill:#000; stroke:none" class="cell_vga1">HSYNC</text>
    </g>
    <g transform="translate(30,30)" s:x="30" s:y="10" s:pid="out0" id="port_vga1~VSYNC">
      <text x="5" y="-4" style="fill:#000; stroke:none" class="cell_vga1">VSYNC</text>
    </g>
    <g transform="translate(30,50)" s:x="30" s:y="10" s:pid="out0" id="port_vga1~b_out">
      <text x="5" y="-4" style="fill:#000; stroke:none" class="cell_vga1">b_out</text>
    </g>
    <g transform="translate(30,70)" s:x="30" s:y="10" s:pid="out0" id="port_vga1~g_out">
      <text x="5" y="-4" style="fill:#000; stroke:none" class="cell_vga1">g_out</text>
    </g>
    <g transform="translate(30,90)" s:x="30" s:y="10" s:pid="out0" id="port_vga1~r_out">
      <text x="5" y="-4" style="fill:#000; stroke:none" class="cell_vga1">r_out</text>
    </g>
    <g transform="translate(30,110)" s:x="30" s:y="10" s:pid="out0" id="port_vga1~s_col">
      <text x="5" y="-4" style="fill:#000; stroke:none" class="cell_vga1">s_col</text>
    </g>
    <g transform="translate(30,130)" s:x="30" s:y="10" s:pid="out0" id="port_vga1~s_row">
      <text x="5" y="-4" style="fill:#000; stroke:none" class="cell_vga1">s_row</text>
    </g>
  </g>
  <g s:type="outputExt" transform="translate(446,33.5)" s:width="30" s:height="20" id="cell_HSYNC">
    <text x="15" y="-4" class="nodelabel cell_HSYNC" s:attribute="ref">HSYNC</text>
    <s:alias val="$_outputExt_"/>
    <path d="M30,0 L30,20 L15,20 L0,10 L15,0 Z" class="cell_HSYNC"/>
    <g s:x="0" s:y="10" s:pid="A"/>
  </g>
  <g s:type="outputExt" transform="translate(446,98.5)" s:width="30" s:height="20" id="cell_VSYNC">
    <text x="15" y="-4" class="nodelabel cell_VSYNC" s:attribute="ref">VSYNC</text>
    <s:alias val="$_outputExt_"/>
    <path d="M30,0 L30,20 L15,20 L0,10 L15,0 Z" class="cell_VSYNC"/>
    <g s:x="0" s:y="10" s:pid="A"/>
  </g>
  <g s:type="outputExt" transform="translate(446,381.5)" s:width="30" s:height="20" id="cell_r_out">
    <text x="15" y="-4" class="nodelabel cell_r_out" s:attribute="ref">r_out</text>
    <s:alias val="$_outputExt_"/>
    <path d="M30,0 L30,20 L15,20 L0,10 L15,0 Z" class="cell_r_out"/>
    <g s:x="0" s:y="10" s:pid="A"/>
  </g>
  <g s:type="outputExt" transform="translate(446,163.5)" s:width="30" s:height="20" id="cell_b_out">
    <text x="15" y="-4" class="nodelabel cell_b_out" s:attribute="ref">b_out</text>
    <s:alias val="$_outputExt_"/>
    <path d="M30,0 L30,20 L15,20 L0,10 L15,0 Z" class="cell_b_out"/>
    <g s:x="0" s:y="10" s:pid="A"/>
  </g>
  <g s:type="outputExt" transform="translate(446,228.5)" s:width="30" s:height="20" id="cell_g_out">
    <text x="15" y="-4" class="nodelabel cell_g_out" s:attribute="ref">g_out</text>
    <s:alias val="$_outputExt_"/>
    <path d="M30,0 L30,20 L15,20 L0,10 L15,0 Z" class="cell_g_out"/>
    <g s:x="0" s:y="10" s:pid="A"/>
  </g>
  <line x1="192" x2="243" y1="278.5" y2="278.5" class="net_7,8,9,10,11,12,13,14,15,16"/>
  <line x1="243" x2="243" y1="278.5" y2="324" class="net_7,8,9,10,11,12,13,14,15,16"/>
  <line x1="243" x2="294" y1="324" y2="324" class="net_7,8,9,10,11,12,13,14,15,16"/>
  <line x1="192" x2="233" y1="298.5" y2="298.5" class="net_17,18,19,20,21,22,23,24,25,26"/>
  <line x1="233" x2="233" y1="298.5" y2="344" class="net_17,18,19,20,21,22,23,24,25,26"/>
  <line x1="233" x2="294" y1="344" y2="344" class="net_17,18,19,20,21,22,23,24,25,26"/>
  <line x1="70" x2="400" y1="32.5" y2="32.5" class="net_40"/>
  <line x1="400" x2="400" y1="32.5" y2="304" class="net_40"/>
  <line x1="400" x2="446" y1="304" y2="304" class="net_40"/>
  <line x1="70" x2="111" y1="32.5" y2="32.5" class="net_40"/>
  <line x1="111" x2="111" y1="32.5" y2="178.5" class="net_40"/>
  <circle cx="111" cy="32.5" r="2" style="fill:#000" class="net_40"/>
  <line x1="111" x2="161" y1="178.5" y2="178.5" class="net_40"/>
  <line x1="325" x2="446" y1="324" y2="324" class="net_27,28,29,30,31,32,33,34,35,36,37,38,39"/>
  <line x1="477" x2="534" y1="304" y2="304" class="net_41,42,43,44,45,46,47"/>
  <line x1="534" x2="534" y1="304" y2="411.5" class="net_41,42,43,44,45,46,47"/>
  <line x1="534" x2="12" y1="411.5" y2="411.5" class="net_41,42,43,44,45,46,47"/>
  <line x1="12" x2="12" y1="411.5" y2="198.5" class="net_41,42,43,44,45,46,47"/>
  <line x1="12" x2="63" y1="198.5" y2="198.5" class="net_41,42,43,44,45,46,47"/>
  <line x1="94" x2="161" y1="198.5" y2="198.5" class="net_48"/>
  <line x1="94" x2="161" y1="218.5" y2="218.5" class="net_49"/>
  <line x1="94" x2="161" y1="238.5" y2="238.5" class="net_50"/>
  <line x1="192" x2="233" y1="178.5" y2="178.5" class="net_2"/>
  <line x1="233" x2="233" y1="178.5" y2="43.5" class="net_2"/>
  <line x1="233" x2="446" y1="43.5" y2="43.5" class="net_2"/>
  <line x1="192" x2="243" y1="198.5" y2="198.5" class="net_3"/>
  <line x1="243" x2="243" y1="198.5" y2="108.5" class="net_3"/>
  <line x1="243" x2="446" y1="108.5" y2="108.5" class="net_3"/>
  <line x1="192" x2="253" y1="258.5" y2="258.5" class="net_4"/>
  <line x1="253" x2="253" y1="258.5" y2="292.5" class="net_4"/>
  <line x1="253" x2="390" y1="292.5" y2="292.5" class="net_4"/>
  <line x1="390" x2="390" y1="292.5" y2="391.5" class="net_4"/>
  <line x1="390" x2="446" y1="391.5" y2="391.5" class="net_4"/>
  <line x1="192" x2="253" y1="218.5" y2="218.5" class="net_5"/>
  <line x1="253" x2="253" y1="218.5" y2="173.5" class="net_5"/>
  <line x1="253" x2="446" y1="173.5" y2="173.5" class="net_5"/>
  <line x1="192" x2="446" y1="238.5" y2="238.5" class="net_6"/>
</svg>
