<svg xmlns="http://www.w3.org/2000/svg" xmlns:xlink="http://www.w3.org/1999/xlink" xmlns:s="https://github.com/nturley/netlistsvg" width="910" height="567.5">
  <style>svg {
    stroke:#000;
    fill:none;
  }
  text {
    fill:#000;
    stroke:none;
    font-size:10px;
    font-weight: bold;
    font-family: "Courier New", monospace;
  }
  .nodelabel {
    text-anchor: middle;
  }
  .inputPortLabel {
    text-anchor: end;
  }
  .splitjoinBody {
    fill:#000;
  }</style>
  <g s:type="and" transform="translate(773,84.5)" s:width="30" s:height="25" id="cell_\38">
    <s:alias val="$and"/>
    <s:alias val="$logic_and"/>
    <s:alias val="$_AND_"/>
    <path d="M0,0 L0,25 L15,25 A15 12.5 0 0 0 15,0 Z" class="cell_\38"/>
    <g s:x="0" s:y="5" s:pid="A"/>
    <g s:x="0" s:y="20" s:pid="B"/>
    <g s:x="30" s:y="12.5" s:pid="Y"/>
  </g>
  <g s:type="generic" transform="translate(482.5,424.5)" s:width="30" s:height="40" id="cell_\43">
    <text x="15" y="-4" class="nodelabel cell_\43" s:attribute="ref">$logic_not</text>
    <rect width="30" height="20" s:generic="body" class="cell_\43"/>
    <g transform="translate(0,10)" s:x="0" s:y="10" s:pid="in0" id="port_\43~A">
      <text x="-3" y="-4" class="inputPortLabel cell_\43">A</text>
    </g>
    <g transform="translate(30,10)" s:x="30" s:y="10" s:pid="out0" id="port_\43~Y">
      <text x="5" y="-4" style="fill:#000; stroke:none" class="cell_\43">Y</text>
    </g>
  </g>
  <g s:type="and" transform="translate(660.3333333333334,430)" s:width="30" s:height="25" id="cell_\44">
    <s:alias val="$and"/>
    <s:alias val="$logic_and"/>
    <s:alias val="$_AND_"/>
    <path d="M0,0 L0,25 L15,25 A15 12.5 0 0 0 15,0 Z" class="cell_\44"/>
    <g s:x="0" s:y="5" s:pid="A"/>
    <g s:x="0" s:y="20" s:pid="B"/>
    <g s:x="30" s:y="12.5" s:pid="Y"/>
  </g>
  <g s:type="mux" transform="translate(776.3333333333334,382.5)" s:width="20" s:height="40" id="cell_\47">
    <s:alias val="$pmux"/>
    <s:alias val="$mux"/>
    <s:alias val="$_MUX_"/>
    <path d="M0,0 L20,10 L20,30 L0,40 Z" class="cell_\47"/>
    <g s:x="0" s:y="10" s:pid="A"/>
    <g s:x="0" s:y="30" s:pid="B"/>
    <g s:x="10" s:y="35" s:pid="S"/>
    <g s:x="20" s:y="20" s:pid="Y"/>
  </g>
  <g s:type="add" transform="translate(119.66666666666666,445)" s:width="25" s:height="25" id="cell_\50">
    <s:alias val="$add"/>
    <circle r="12.5" cx="12.5" cy="12.5" class="cell_\50"/>
    <line x1="7.5" x2="17.5" y1="12.5" y2="12.5" class="cell_\50"/>
    <line x1="12.5" x2="12.5" y1="7.5" y2="17.5" class="cell_\50"/>
    <g s:x="3" s:y="5" s:pid="A"/>
    <g s:x="3" s:y="20" s:pid="B"/>
    <g s:x="25" s:y="12.5" s:pid="Y"/>
  </g>
  <g s:type="dff" transform="translate(217,447.5)" s:width="30" s:height="40" id="cell_\53">
    <s:alias val="$dff"/>
    <s:alias val="$_DFF_"/>
    <rect width="30" height="40" x="0" y="0" class="cell_\53"/>
    <path d="M0,35 L5,30 L0,25" class="cell_\53"/>
    <g s:x="30" s:y="10" s:pid="Q"/>
    <g s:x="0" s:y="30" s:pid="CLK"/>
    <g s:x="0" s:y="10" s:pid="D"/>
  </g>
  <g s:type="generic" transform="translate(120,114)" s:width="30" s:height="40" id="cell_dut1">
    <text x="15" y="-4" class="nodelabel cell_dut1" s:attribute="ref">SB_HFOSC</text>
    <rect width="30" height="40" s:generic="body" class="cell_dut1"/>
    <g transform="translate(0,10)" s:x="0" s:y="10" s:pid="in0" id="port_dut1~CLKHFEN">
      <text x="-3" y="-4" class="inputPortLabel cell_dut1">CLKHFEN</text>
    </g>
    <g transform="translate(0,30)" s:x="0" s:y="10" s:pid="in0" id="port_dut1~CLKHFPU">
      <text x="-3" y="-4" class="inputPortLabel cell_dut1">CLKHFPU</text>
    </g>
    <g transform="translate(30,10)" s:x="30" s:y="10" s:pid="out0" id="port_dut1~CLKHF">
      <text x="5" y="-4" style="fill:#000; stroke:none" class="cell_dut1">CLKHF</text>
    </g>
  </g>
  <g s:type="generic" transform="translate(478.3333333333333,492.5)" s:width="30" s:height="40" id="cell_dut2">
    <text x="15" y="-4" class="nodelabel cell_dut2" s:attribute="ref">pwm</text>
    <rect width="30" height="40" s:generic="body" class="cell_dut2"/>
    <g transform="translate(0,10)" s:x="0" s:y="10" s:pid="in0" id="port_dut2~bright">
      <text x="-3" y="-4" class="inputPortLabel cell_dut2">bright</text>
    </g>
    <g transform="translate(0,30)" s:x="0" s:y="10" s:pid="in0" id="port_dut2~clk">
      <text x="-3" y="-4" class="inputPortLabel cell_dut2">clk</text>
    </g>
    <g transform="translate(30,10)" s:x="30" s:y="10" s:pid="out0" id="port_dut2~sig_out">
      <text x="5" y="-4" style="fill:#000; stroke:none" class="cell_dut2">sig_out</text>
    </g>
  </g>
  <g s:type="generic" transform="translate(478.3333333333333,145.5)" s:width="30" s:height="40" id="cell_dut3">
    <text x="15" y="-4" class="nodelabel cell_dut3" s:attribute="ref">divide_by_n_16</text>
    <rect width="30" height="40" s:generic="body" class="cell_dut3"/>
    <g transform="translate(0,10)" s:x="0" s:y="10" s:pid="in0" id="port_dut3~clk">
      <text x="-3" y="-4" class="inputPortLabel cell_dut3">clk</text>
    </g>
    <g transform="translate(0,30)" s:x="0" s:y="10" s:pid="in0" id="port_dut3~reset">
      <text x="-3" y="-4" class="inputPortLabel cell_dut3">reset</text>
    </g>
    <g transform="translate(30,10)" s:x="30" s:y="10" s:pid="out0" id="port_dut3~sig_out">
      <text x="5" y="-4" style="fill:#000; stroke:none" class="cell_dut3">sig_out</text>
    </g>
  </g>
  <g s:type="generic" transform="translate(313,262)" s:width="30" s:height="40" id="cell_dut4">
    <text x="15" y="-4" class="nodelabel cell_dut4" s:attribute="ref">divide_by_n_4</text>
    <rect width="30" height="40" s:generic="body" class="cell_dut4"/>
    <g transform="translate(0,10)" s:x="0" s:y="10" s:pid="in0" id="port_dut4~clk">
      <text x="-3" y="-4" class="inputPortLabel cell_dut4">clk</text>
    </g>
    <g transform="translate(0,30)" s:x="0" s:y="10" s:pid="in0" id="port_dut4~reset">
      <text x="-3" y="-4" class="inputPortLabel cell_dut4">reset</text>
    </g>
    <g transform="translate(30,10)" s:x="30" s:y="10" s:pid="out0" id="port_dut4~sig_out">
      <text x="5" y="-4" style="fill:#000; stroke:none" class="cell_dut4">sig_out</text>
    </g>
  </g>
  <g s:type="generic" transform="translate(670,242)" s:width="30" s:height="40" id="cell_dut5">
    <text x="15" y="-4" class="nodelabel cell_dut5" s:attribute="ref">uart_tx</text>
    <rect width="30" height="100" s:generic="body" class="cell_dut5"/>
    <g transform="translate(0,10)" s:x="0" s:y="10" s:pid="in0" id="port_dut5~baud_x1">
      <text x="-3" y="-4" class="inputPortLabel cell_dut5">baud_x1</text>
    </g>
    <g transform="translate(0,30)" s:x="0" s:y="10" s:pid="in0" id="port_dut5~data">
      <text x="-3" y="-4" class="inputPortLabel cell_dut5">data</text>
    </g>
    <g transform="translate(0,50)" s:x="0" s:y="10" s:pid="in0" id="port_dut5~data_strobe">
      <text x="-3" y="-4" class="inputPortLabel cell_dut5">data_strobe</text>
    </g>
    <g transform="translate(0,70)" s:x="0" s:y="10" s:pid="in0" id="port_dut5~mclk">
      <text x="-3" y="-4" class="inputPortLabel cell_dut5">mclk</text>
    </g>
    <g transform="translate(0,90)" s:x="0" s:y="10" s:pid="in0" id="port_dut5~reset">
      <text x="-3" y="-4" class="inputPortLabel cell_dut5">reset</text>
    </g>
    <g transform="translate(30,10)" s:x="30" s:y="10" s:pid="out0" id="port_dut5~ready">
      <text x="5" y="-4" style="fill:#000; stroke:none" class="cell_dut5">ready</text>
    </g>
    <g transform="translate(30,30)" s:x="30" s:y="10" s:pid="out0" id="port_dut5~serial">
      <text x="5" y="-4" style="fill:#000; stroke:none" class="cell_dut5">serial</text>
    </g>
  </g>
  <g s:type="generic" transform="translate(470,262)" s:width="30" s:height="40" id="cell_dut6">
    <text x="15" y="-4" class="nodelabel cell_dut6" s:attribute="ref">uart_rx</text>
    <rect width="30" height="80" s:generic="body" class="cell_dut6"/>
    <g transform="translate(0,10)" s:x="0" s:y="10" s:pid="in0" id="port_dut6~baud_x4">
      <text x="-3" y="-4" class="inputPortLabel cell_dut6">baud_x4</text>
    </g>
    <g transform="translate(0,30)" s:x="0" s:y="10" s:pid="in0" id="port_dut6~mclk">
      <text x="-3" y="-4" class="inputPortLabel cell_dut6">mclk</text>
    </g>
    <g transform="translate(0,50)" s:x="0" s:y="10" s:pid="in0" id="port_dut6~reset">
      <text x="-3" y="-4" class="inputPortLabel cell_dut6">reset</text>
    </g>
    <g transform="translate(0,70)" s:x="0" s:y="10" s:pid="in0" id="port_dut6~serial">
      <text x="-3" y="-4" class="inputPortLabel cell_dut6">serial</text>
    </g>
    <g transform="translate(30,10)" s:x="30" s:y="10" s:pid="out0" id="port_dut6~data">
      <text x="5" y="-4" style="fill:#000; stroke:none" class="cell_dut6">data</text>
    </g>
    <g transform="translate(30,30)" s:x="30" s:y="10" s:pid="out0" id="port_dut6~data_strobe">
      <text x="5" y="-4" style="fill:#000; stroke:none" class="cell_dut6">data_strobe</text>
    </g>
  </g>
  <g s:type="generic" transform="translate(660.3333333333334,94)" s:width="30" s:height="40" id="cell_dut7">
    <text x="15" y="-4" class="nodelabel cell_dut7" s:attribute="ref">pwm</text>
    <rect width="30" height="40" s:generic="body" class="cell_dut7"/>
    <g transform="translate(0,10)" s:x="0" s:y="10" s:pid="in0" id="port_dut7~bright">
      <text x="-3" y="-4" class="inputPortLabel cell_dut7">bright</text>
    </g>
    <g transform="translate(0,30)" s:x="0" s:y="10" s:pid="in0" id="port_dut7~clk">
      <text x="-3" y="-4" class="inputPortLabel cell_dut7">clk</text>
    </g>
    <g transform="translate(30,10)" s:x="30" s:y="10" s:pid="out0" id="port_dut7~sig_out">
      <text x="5" y="-4" style="fill:#000; stroke:none" class="cell_dut7">sig_out</text>
    </g>
  </g>
  <g s:type="inputExt" transform="translate(313,197)" s:width="30" s:height="20" id="cell_serial_rxd">
    <text x="15" y="-4" class="nodelabel cell_serial_rxd" s:attribute="ref">serial_rxd</text>
    <s:alias val="$_inputExt_"/>
    <path d="M0,0 L0,20 L15,20 L30,10 L15,0 Z" class="cell_serial_rxd"/>
    <g s:x="28" s:y="10" s:pid="Y"/>
  </g>
  <g s:type="outputExt" transform="translate(838,262.5)" s:width="30" s:height="20" id="cell_led_r">
    <text x="15" y="-4" class="nodelabel cell_led_r" s:attribute="ref">led_r</text>
    <s:alias val="$_outputExt_"/>
    <path d="M30,0 L30,20 L15,20 L0,10 L15,0 Z" class="cell_led_r"/>
    <g s:x="0" s:y="10" s:pid="A"/>
  </g>
  <g s:type="outputExt" transform="translate(838,392.5)" s:width="30" s:height="20" id="cell_led_g">
    <text x="15" y="-4" class="nodelabel cell_led_g" s:attribute="ref">led_g</text>
    <s:alias val="$_outputExt_"/>
    <path d="M30,0 L30,20 L15,20 L0,10 L15,0 Z" class="cell_led_g"/>
    <g s:x="0" s:y="10" s:pid="A"/>
  </g>
  <g s:type="outputExt" transform="translate(838,22)" s:width="30" s:height="20" id="cell_led_b">
    <text x="15" y="-4" class="nodelabel cell_led_b" s:attribute="ref">led_b</text>
    <s:alias val="$_outputExt_"/>
    <path d="M30,0 L30,20 L15,20 L0,10 L15,0 Z" class="cell_led_b"/>
    <g s:x="0" s:y="10" s:pid="A"/>
  </g>
  <g s:type="outputExt" transform="translate(838,327.5)" s:width="30" s:height="20" id="cell_serial_txd">
    <text x="15" y="-4" class="nodelabel cell_serial_txd" s:attribute="ref">serial_txd</text>
    <s:alias val="$_outputExt_"/>
    <path d="M30,0 L30,20 L15,20 L0,10 L15,0 Z" class="cell_serial_txd"/>
    <g s:x="0" s:y="10" s:pid="A"/>
  </g>
  <g s:type="outputExt" transform="translate(838,535.5)" s:width="30" s:height="20" id="cell_spi_cs">
    <text x="15" y="-4" class="nodelabel cell_spi_cs" s:attribute="ref">spi_cs</text>
    <s:alias val="$_outputExt_"/>
    <path d="M30,0 L30,20 L15,20 L0,10 L15,0 Z" class="cell_spi_cs"/>
    <g s:x="0" s:y="10" s:pid="A"/>
  </g>
  <g s:type="outputExt" transform="translate(838,87)" s:width="30" s:height="20" id="cell_gpio_2">
    <text x="15" y="-4" class="nodelabel cell_gpio_2" s:attribute="ref">gpio_2</text>
    <s:alias val="$_outputExt_"/>
    <path d="M30,0 L30,20 L15,20 L0,10 L15,0 Z" class="cell_gpio_2"/>
    <g s:x="0" s:y="10" s:pid="A"/>
  </g>
  <g s:type="constant" transform="translate(12,114.5)" s:width="30" s:height="20" id="cell_1">
    <text x="15" y="-4" class="nodelabel cell_1" s:attribute="ref">1</text>
    <s:alias val="$_constant_"/>
    <rect width="30" height="20" class="cell_1"/>
    <g s:x="30" s:y="10" s:pid="Y"/>
  </g>
  <g s:type="constant" transform="translate(217,316)" s:width="30" s:height="20" id="cell_0">
    <text x="15" y="-4" class="nodelabel cell_0" s:attribute="ref">0</text>
    <s:alias val="$_constant_"/>
    <rect width="30" height="20" class="cell_0"/>
    <g s:x="30" s:y="10" s:pid="Y"/>
  </g>
  <g s:type="constant" transform="translate(313,493)" s:width="30" s:height="20" id="cell_0000000000111111">
    <text x="15" y="-4" class="nodelabel cell_0000000000111111" s:attribute="ref">0x3f</text>
    <s:alias val="$_constant_"/>
    <rect width="30" height="20" class="cell_0000000000111111"/>
    <g s:x="30" s:y="10" s:pid="Y"/>
  </g>
  <g s:type="constant" transform="translate(470,94.5)" s:width="30" s:height="20" id="cell_0000001111111111">
    <text x="15" y="-4" class="nodelabel cell_0000001111111111" s:attribute="ref">0x3ff</text>
    <s:alias val="$_constant_"/>
    <rect width="30" height="20" class="cell_0000001111111111"/>
    <g s:x="30" s:y="10" s:pid="Y"/>
  </g>
  <g s:type="split" transform="translate(338,424.5)" s:width="5" s:height="40" id="cell_$split$,13,14,15,16,17,18,19,20,21,22,23,24,25,26,27,28,29,30,31,32,33,34,35,7,8,9,36,37,38,39,40,41,">
    <rect width="5" height="20" class="splitjoinBody" s:generic="body"/>
    <s:alias val="$_split_"/>
    <g s:x="0" s:y="20" s:pid="in"/>
    <g transform="translate(4,10)" s:x="4" s:y="10" s:pid="out0">
      <text x="5" y="-4">23:25</text>
    </g>
  </g>
  <line x1="701" x2="748" y1="272.5" y2="272.5" class="net_3"/>
  <line x1="748" x2="748" y1="272.5" y2="89.5" class="net_3"/>
  <circle cx="748" cy="272.5" r="2" style="fill:#000" class="net_3"/>
  <line x1="748" x2="773" y1="89.5" y2="89.5" class="net_3"/>
  <line x1="701" x2="838" y1="272.5" y2="272.5" class="net_3"/>
  <line x1="701" x2="813" y1="272.5" y2="272.5" class="net_3"/>
  <line x1="813" x2="813" y1="272.5" y2="337.5" class="net_3"/>
  <circle cx="813" cy="272.5" r="2" style="fill:#000" class="net_3"/>
  <line x1="813" x2="838" y1="337.5" y2="337.5" class="net_3"/>
  <line x1="691.3333333333334" x2="773" y1="104.5" y2="104.5" class="net_6"/>
  <line x1="343" x2="482.5" y1="435" y2="435" class="net_7,8,9"/>
  <line x1="513.5" x2="660.3333333333334" y1="435" y2="435" class="net_10"/>
  <line x1="509.3333333333333" x2="578" y1="503" y2="503" class="net_11"/>
  <line x1="578" x2="578" y1="503" y2="450" class="net_11"/>
  <line x1="578" x2="660.3333333333334" y1="450" y2="450" class="net_11"/>
  <line x1="42" x2="52" y1="124.5" y2="124.5" class="net_87"/>
  <line x1="52" x2="52" y1="124.5" y2="392.5" class="net_87"/>
  <circle cx="52" cy="124.5" r="2" style="fill:#000" class="net_87"/>
  <circle cx="52" cy="392.5" r="2" style="fill:#000" class="net_87"/>
  <line x1="52" x2="776.3333333333334" y1="392.5" y2="392.5" class="net_87"/>
  <line x1="42" x2="52" y1="124.5" y2="124.5" class="net_87"/>
  <line x1="52" x2="52" y1="124.5" y2="465" class="net_87"/>
  <circle cx="52" cy="465" r="2" style="fill:#000" class="net_87"/>
  <line x1="52" x2="122.66666666666666" y1="465" y2="465" class="net_87"/>
  <line x1="42" x2="120" y1="124.5" y2="124.5" class="net_87"/>
  <line x1="42" x2="52" y1="124.5" y2="124.5" class="net_87"/>
  <line x1="52" x2="52" y1="124.5" y2="144.5" class="net_87"/>
  <circle cx="52" cy="144.5" r="2" style="fill:#000" class="net_87"/>
  <line x1="52" x2="120" y1="144.5" y2="144.5" class="net_87"/>
  <line x1="42" x2="52" y1="124.5" y2="124.5" class="net_87"/>
  <line x1="52" x2="52" y1="124.5" y2="545.5" class="net_87"/>
  <line x1="52" x2="838" y1="545.5" y2="545.5" class="net_87"/>
  <line x1="247" x2="257" y1="326" y2="326" class="net_88"/>
  <line x1="257" x2="257" y1="326" y2="403.5" class="net_88"/>
  <line x1="257" x2="748" y1="403.5" y2="403.5" class="net_88"/>
  <line x1="748" x2="748" y1="403.5" y2="412.5" class="net_88"/>
  <circle cx="257" cy="326" r="2" style="fill:#000" class="net_88"/>
  <line x1="748" x2="776.3333333333334" y1="412.5" y2="412.5" class="net_88"/>
  <line x1="247" x2="257" y1="326" y2="326" class="net_88"/>
  <line x1="257" x2="257" y1="326" y2="176" class="net_88"/>
  <line x1="257" x2="478.3333333333333" y1="176" y2="176" class="net_88"/>
  <line x1="247" x2="257" y1="326" y2="326" class="net_88"/>
  <line x1="257" x2="257" y1="326" y2="292.5" class="net_88"/>
  <circle cx="257" cy="292.5" r="2" style="fill:#000" class="net_88"/>
  <line x1="257" x2="313" y1="292.5" y2="292.5" class="net_88"/>
  <line x1="247" x2="257" y1="326" y2="326" class="net_88"/>
  <line x1="257" x2="257" y1="326" y2="366" class="net_88"/>
  <line x1="257" x2="588" y1="366" y2="366" class="net_88"/>
  <line x1="588" x2="588" y1="366" y2="332.5" class="net_88"/>
  <circle cx="257" cy="366" r="2" style="fill:#000" class="net_88"/>
  <line x1="588" x2="670" y1="332.5" y2="332.5" class="net_88"/>
  <line x1="247" x2="417" y1="326" y2="326" class="net_88"/>
  <line x1="417" x2="417" y1="326" y2="312.5" class="net_88"/>
  <line x1="417" x2="470" y1="312.5" y2="312.5" class="net_88"/>
  <line x1="690.3333333333334" x2="786.3333333333334" y1="442.5" y2="442.5" class="net_12"/>
  <line x1="786.3333333333334" x2="786.3333333333334" y1="442.5" y2="417.5" class="net_12"/>
  <line x1="247" x2="257" y1="457.5" y2="457.5" class="net_13,14,15,16,17,18,19,20,21,22,23,24,25,26,27,28,29,30,31,32,33,34,35,7,8,9,36,37,38,39,40,41"/>
  <line x1="257" x2="257" y1="457.5" y2="497.5" class="net_13,14,15,16,17,18,19,20,21,22,23,24,25,26,27,28,29,30,31,32,33,34,35,7,8,9,36,37,38,39,40,41"/>
  <line x1="257" x2="62" y1="497.5" y2="497.5" class="net_13,14,15,16,17,18,19,20,21,22,23,24,25,26,27,28,29,30,31,32,33,34,35,7,8,9,36,37,38,39,40,41"/>
  <line x1="62" x2="62" y1="497.5" y2="450" class="net_13,14,15,16,17,18,19,20,21,22,23,24,25,26,27,28,29,30,31,32,33,34,35,7,8,9,36,37,38,39,40,41"/>
  <circle cx="257" cy="457.5" r="2" style="fill:#000" class="net_13,14,15,16,17,18,19,20,21,22,23,24,25,26,27,28,29,30,31,32,33,34,35,7,8,9,36,37,38,39,40,41"/>
  <line x1="62" x2="122.66666666666666" y1="450" y2="450" class="net_13,14,15,16,17,18,19,20,21,22,23,24,25,26,27,28,29,30,31,32,33,34,35,7,8,9,36,37,38,39,40,41"/>
  <line x1="247" x2="338.5" y1="457.5" y2="457.5" class="net_13,14,15,16,17,18,19,20,21,22,23,24,25,26,27,28,29,30,31,32,33,34,35,7,8,9,36,37,38,39,40,41"/>
  <line x1="338.5" x2="338.5" y1="457.5" y2="445.5" class="net_13,14,15,16,17,18,19,20,21,22,23,24,25,26,27,28,29,30,31,32,33,34,35,7,8,9,36,37,38,39,40,41"/>
  <line x1="151" x2="192" y1="124.5" y2="124.5" class="net_74"/>
  <line x1="192" x2="192" y1="124.5" y2="477.5" class="net_74"/>
  <circle cx="192" cy="124.5" r="2" style="fill:#000" class="net_74"/>
  <circle cx="192" cy="477.5" r="2" style="fill:#000" class="net_74"/>
  <line x1="192" x2="217" y1="477.5" y2="477.5" class="net_74"/>
  <line x1="151" x2="192" y1="124.5" y2="124.5" class="net_74"/>
  <line x1="192" x2="192" y1="124.5" y2="523" class="net_74"/>
  <line x1="192" x2="478.3333333333333" y1="523" y2="523" class="net_74"/>
  <line x1="151" x2="407" y1="124.5" y2="124.5" class="net_74"/>
  <line x1="407" x2="407" y1="124.5" y2="156" class="net_74"/>
  <circle cx="407" cy="124.5" r="2" style="fill:#000" class="net_74"/>
  <line x1="407" x2="478.3333333333333" y1="156" y2="156" class="net_74"/>
  <line x1="151" x2="267" y1="124.5" y2="124.5" class="net_74"/>
  <line x1="267" x2="267" y1="124.5" y2="272.5" class="net_74"/>
  <circle cx="267" cy="124.5" r="2" style="fill:#000" class="net_74"/>
  <circle cx="267" cy="272.5" r="2" style="fill:#000" class="net_74"/>
  <line x1="267" x2="313" y1="272.5" y2="272.5" class="net_74"/>
  <line x1="151" x2="192" y1="124.5" y2="124.5" class="net_74"/>
  <line x1="192" x2="192" y1="124.5" y2="355" class="net_74"/>
  <line x1="192" x2="578" y1="355" y2="355" class="net_74"/>
  <line x1="578" x2="578" y1="355" y2="312.5" class="net_74"/>
  <circle cx="192" cy="355" r="2" style="fill:#000" class="net_74"/>
  <line x1="578" x2="670" y1="312.5" y2="312.5" class="net_74"/>
  <line x1="151" x2="267" y1="124.5" y2="124.5" class="net_74"/>
  <line x1="267" x2="267" y1="124.5" y2="315" class="net_74"/>
  <line x1="267" x2="407" y1="315" y2="315" class="net_74"/>
  <line x1="407" x2="407" y1="315" y2="292.5" class="net_74"/>
  <line x1="407" x2="470" y1="292.5" y2="292.5" class="net_74"/>
  <line x1="151" x2="660.3333333333334" y1="124.5" y2="124.5" class="net_74"/>
  <line x1="144.66666666666666" x2="217" y1="457.5" y2="457.5" class="net_42,43,44,45,46,47,48,49,50,51,52,53,54,55,56,57,58,59,60,61,62,63,64,65,66,67,68,69,70,71,72,73"/>
  <line x1="343" x2="478.3333333333333" y1="503" y2="503" class="net_92,93,94,95,96,97,98,99,100,101,102,103,104,105,106,107"/>
  <line x1="509.3333333333333" x2="578" y1="156" y2="156" class="net_75"/>
  <line x1="578" x2="578" y1="156" y2="252.5" class="net_75"/>
  <line x1="578" x2="670" y1="252.5" y2="252.5" class="net_75"/>
  <line x1="501" x2="670" y1="272.5" y2="272.5" class="net_77,78,79,80,81,82,83,84"/>
  <line x1="501" x2="670" y1="292.5" y2="292.5" class="net_85"/>
  <line x1="344" x2="470" y1="272.5" y2="272.5" class="net_76"/>
  <line x1="341" x2="397" y1="207" y2="207" class="net_2"/>
  <line x1="397" x2="397" y1="207" y2="332.5" class="net_2"/>
  <circle cx="397" cy="207" r="2" style="fill:#000" class="net_2"/>
  <line x1="397" x2="470" y1="332.5" y2="332.5" class="net_2"/>
  <line x1="341" x2="397" y1="207" y2="207" class="net_2"/>
  <line x1="397" x2="397" y1="207" y2="32" class="net_2"/>
  <line x1="397" x2="838" y1="32" y2="32" class="net_2"/>
  <line x1="500" x2="660.3333333333334" y1="104.5" y2="104.5" class="net_112,113,114,115,116,117,118,119,120,121,122,123,124,125,126,127"/>
  <line x1="796.3333333333334" x2="838" y1="402.5" y2="402.5" class="net_4"/>
  <line x1="803" x2="838" y1="97" y2="97" class="net_5"/>
</svg>
