<svg xmlns="http://www.w3.org/2000/svg" xmlns:xlink="http://www.w3.org/1999/xlink" xmlns:s="https://github.com/nturley/netlistsvg" width="1190" height="600"><style>svg {
  stroke:#000;
  fill:none;
}
text {
  fill:#000;
  stroke:none;
  font-size:10px;
  font-weight: bold;
  font-family: "Courier New", monospace;
}
line {
    stroke-linecap: round;
}
.nodelabel {
  text-anchor: middle;
}
.inputPortLabel {
  text-anchor: end;
}
.splitjoinBody {
  fill:#000;
}</style><g s:type="and" transform="translate(1053,149.5)" s:width="30" s:height="25" id="cell_\38"><s:alias val="$and"/><s:alias val="$logic_and"/><s:alias val="$_AND_"/><s:alias val="$reduce_and"/><path d="M0,0 L0,25 L15,25 A15 12.5 0 0 0 15,0 Z" class="cell_\38"/><g s:x="0" s:y="5" s:pid="A"/><g s:x="0" s:y="20" s:pid="B"/><g s:x="30" s:y="12.5" s:pid="Y"/></g><g s:type="not" transform="translate(777.5,480)" s:width="30" s:height="20" id="cell_\43"><s:alias val="$_NOT_"/><s:alias val="$not"/><s:alias val="$logic_not"/><path d="M0,0 L0,20 L20,10 Z" class="cell_\43"/><circle cx="24" cy="10" r="3" class="cell_\43"/><g s:x="-1" s:y="10" s:pid="A"/><g s:x="27" s:y="10" s:pid="Y"/></g><g s:type="and" transform="translate(940.3333333333334,485)" s:width="30" s:height="25" id="cell_\44"><s:alias val="$and"/><s:alias val="$logic_and"/><s:alias val="$_AND_"/><s:alias val="$reduce_and"/><path d="M0,0 L0,25 L15,25 A15 12.5 0 0 0 15,0 Z" class="cell_\44"/><g s:x="0" s:y="5" s:pid="A"/><g s:x="0" s:y="20" s:pid="B"/><g s:x="30" s:y="12.5" s:pid="Y"/></g><g s:type="mux" transform="translate(1056.3333333333333,447.5)" s:width="20" s:height="40" id="cell_\47"><s:alias val="$pmux"/><s:alias val="$mux"/><s:alias val="$_MUX_"/><path d="M0,0 L20,10 L20,30 L0,40 Z" class="cell_\47"/><text x="5" y="32" class="nodelabel cell_\47" s:attribute="">1</text><text x="5" y="13" class="nodelabel cell_\47" s:attribute="">0</text><g s:x="0" s:y="10" s:pid="A"/><g s:x="0" s:y="30" s:pid="B"/><g s:x="10" s:y="35" s:pid="S"/><g s:x="20" s:y="20" s:pid="Y"/></g><g s:type="add" transform="translate(78,500)" s:width="25" s:height="25" id="cell_\50"><s:alias val="$add"/><circle r="12.5" cx="12.5" cy="12.5" class="cell_\50"/><line x1="7.5" x2="17.5" y1="12.5" y2="12.5" class="cell_\50"/><line x1="12.5" x2="12.5" y1="7.5" y2="17.5" class="cell_\50"/><g s:x="2" s:y="5" s:pid="A"/><g s:x="2" s:y="20" s:pid="B"/><g s:x="26" s:y="12.5" s:pid="Y"/></g><g s:type="dff-bus" transform="translate(280,502.5)" s:width="34" s:height="44" id="cell_\53"><s:alias val="$dff-bus"/><s:alias val="$_DFF_-bus"/><s:alias val="$_DFF_P_-bus"/><s:alias val="adff-bus"/><s:alias val="$adff-bus"/><s:alias val="$_DFF_-bus"/><s:alias val="$_DFF_P_-bus"/><s:alias val="sdff-bus"/><s:alias val="$sdff-bus"/><s:alias val="$_DFF_-bus"/><s:alias val="$_DFF_P_-bus"/><rect width="30" height="40" x="0" y="0" class="cell_\53"/><path d="M0,35 L5,30 L0,25" class="cell_\53"/><path d="M30,2 L32,2 L32,42 L2,42 L2,40" class="cell_\53"/><path d="M32,4 L34,4 L34,44 L4,44 L4,42" class="cell_\53"/><g s:x="35" s:y="10" s:pid="Q"/><g s:x="-1" s:y="30" s:pid="CLK"/><g s:x="-1" s:y="30" s:pid="C"/><g s:x="-1" s:y="10" s:pid="D"/><g s:x="17" s:y="44" s:pid="ARST"/><g s:x="17" s:y="44" s:pid="SRST"/></g><g s:type="generic" transform="translate(182,179)" s:width="30" s:height="40" id="cell_dut1"><text x="15" y="-4" class="nodelabel cell_dut1" s:attribute="ref">SB_HFOSC</text><rect width="30" height="40" s:generic="body" class="cell_dut1"/><g transform="translate(0,10)" s:x="0" s:y="10" s:pid="in0" id="port_dut1~CLKHFEN"><text x="-3" y="-4" class="inputPortLabel cell_dut1">CLKHFEN</text></g><g transform="translate(0,30)" s:x="0" s:y="10" s:pid="in0" id="port_dut1~CLKHFPU"><text x="-3" y="-4" class="inputPortLabel cell_dut1">CLKHFPU</text></g><g transform="translate(30,10)" s:x="30" s:y="10" s:pid="out0" id="port_dut1~CLKHF"><text x="5" y="-4" style="fill:#000; stroke:none" class="cell_dut1">CLKHF</text></g></g><g s:type="generic" transform="translate(774,545)" s:width="30" s:height="40" id="cell_dut2"><text x="15" y="-4" class="nodelabel cell_dut2" s:attribute="ref">pwm</text><rect width="30" height="40" s:generic="body" class="cell_dut2"/><g transform="translate(0,10)" s:x="0" s:y="10" s:pid="in0" id="port_dut2~bright"><text x="-3" y="-4" class="inputPortLabel cell_dut2">bright</text></g><g transform="translate(0,30)" s:x="0" s:y="10" s:pid="in0" id="port_dut2~clk"><text x="-3" y="-4" class="inputPortLabel cell_dut2">clk</text></g><g transform="translate(30,10)" s:x="30" s:y="10" s:pid="out0" id="port_dut2~sig_out"><text x="5" y="-4" style="fill:#000; stroke:none" class="cell_dut2">sig_out</text></g></g><g s:type="generic" transform="translate(774,210.5)" s:width="30" s:height="40" id="cell_dut3"><text x="15" y="-4" class="nodelabel cell_dut3" s:attribute="ref">divide_by_n_16</text><rect width="30" height="40" s:generic="body" class="cell_dut3"/><g transform="translate(0,10)" s:x="0" s:y="10" s:pid="in0" id="port_dut3~clk"><text x="-3" y="-4" class="inputPortLabel cell_dut3">clk</text></g><g transform="translate(0,30)" s:x="0" s:y="10" s:pid="in0" id="port_dut3~reset"><text x="-3" y="-4" class="inputPortLabel cell_dut3">reset</text></g><g transform="translate(30,10)" s:x="30" s:y="10" s:pid="out0" id="port_dut3~sig_out"><text x="5" y="-4" style="fill:#000; stroke:none" class="cell_dut3">sig_out</text></g></g><g s:type="generic" transform="translate(447,327)" s:width="30" s:height="40" id="cell_dut4"><text x="15" y="-4" class="nodelabel cell_dut4" s:attribute="ref">divide_by_n_4</text><rect width="30" height="40" s:generic="body" class="cell_dut4"/><g transform="translate(0,10)" s:x="0" s:y="10" s:pid="in0" id="port_dut4~clk"><text x="-3" y="-4" class="inputPortLabel cell_dut4">clk</text></g><g transform="translate(0,30)" s:x="0" s:y="10" s:pid="in0" id="port_dut4~reset"><text x="-3" y="-4" class="inputPortLabel cell_dut4">reset</text></g><g transform="translate(30,10)" s:x="30" s:y="10" s:pid="out0" id="port_dut4~sig_out"><text x="5" y="-4" style="fill:#000; stroke:none" class="cell_dut4">sig_out</text></g></g><g s:type="generic" transform="translate(950,307)" s:width="30" s:height="40" id="cell_dut5"><text x="15" y="-4" class="nodelabel cell_dut5" s:attribute="ref">uart_tx</text><rect width="30" height="100" s:generic="body" class="cell_dut5"/><g transform="translate(0,10)" s:x="0" s:y="10" s:pid="in0" id="port_dut5~baud_x1"><text x="-3" y="-4" class="inputPortLabel cell_dut5">baud_x1</text></g><g transform="translate(0,30)" s:x="0" s:y="10" s:pid="in0" id="port_dut5~data"><text x="-3" y="-4" class="inputPortLabel cell_dut5">data</text></g><g transform="translate(0,50)" s:x="0" s:y="10" s:pid="in0" id="port_dut5~data_strobe"><text x="-3" y="-4" class="inputPortLabel cell_dut5">data_strobe</text></g><g transform="translate(0,70)" s:x="0" s:y="10" s:pid="in0" id="port_dut5~mclk"><text x="-3" y="-4" class="inputPortLabel cell_dut5">mclk</text></g><g transform="translate(0,90)" s:x="0" s:y="10" s:pid="in0" id="port_dut5~reset"><text x="-3" y="-4" class="inputPortLabel cell_dut5">reset</text></g><g transform="translate(30,10)" s:x="30" s:y="10" s:pid="out0" id="port_dut5~ready"><text x="5" y="-4" style="fill:#000; stroke:none" class="cell_dut5">ready</text></g><g transform="translate(30,30)" s:x="30" s:y="10" s:pid="out0" id="port_dut5~serial"><text x="5" y="-4" style="fill:#000; stroke:none" class="cell_dut5">serial</text></g></g><g s:type="generic" transform="translate(604,327)" s:width="30" s:height="40" id="cell_dut6"><text x="15" y="-4" class="nodelabel cell_dut6" s:attribute="ref">uart_rx</text><rect width="30" height="80" s:generic="body" class="cell_dut6"/><g transform="translate(0,10)" s:x="0" s:y="10" s:pid="in0" id="port_dut6~baud_x4"><text x="-3" y="-4" class="inputPortLabel cell_dut6">baud_x4</text></g><g transform="translate(0,30)" s:x="0" s:y="10" s:pid="in0" id="port_dut6~mclk"><text x="-3" y="-4" class="inputPortLabel cell_dut6">mclk</text></g><g transform="translate(0,50)" s:x="0" s:y="10" s:pid="in0" id="port_dut6~reset"><text x="-3" y="-4" class="inputPortLabel cell_dut6">reset</text></g><g transform="translate(0,70)" s:x="0" s:y="10" s:pid="in0" id="port_dut6~serial"><text x="-3" y="-4" class="inputPortLabel cell_dut6">serial</text></g><g transform="translate(30,10)" s:x="30" s:y="10" s:pid="out0" id="port_dut6~data"><text x="5" y="-4" style="fill:#000; stroke:none" class="cell_dut6">data</text></g><g transform="translate(30,30)" s:x="30" s:y="10" s:pid="out0" id="port_dut6~data_strobe"><text x="5" y="-4" style="fill:#000; stroke:none" class="cell_dut6">data_strobe</text></g></g><g s:type="generic" transform="translate(940.3333333333334,159)" s:width="30" s:height="40" id="cell_dut7"><text x="15" y="-4" class="nodelabel cell_dut7" s:attribute="ref">pwm</text><rect width="30" height="40" s:generic="body" class="cell_dut7"/><g transform="translate(0,10)" s:x="0" s:y="10" s:pid="in0" id="port_dut7~bright"><text x="-3" y="-4" class="inputPortLabel cell_dut7">bright</text></g><g transform="translate(0,30)" s:x="0" s:y="10" s:pid="in0" id="port_dut7~clk"><text x="-3" y="-4" class="inputPortLabel cell_dut7">clk</text></g><g transform="translate(30,10)" s:x="30" s:y="10" s:pid="out0" id="port_dut7~sig_out"><text x="5" y="-4" style="fill:#000; stroke:none" class="cell_dut7">sig_out</text></g></g><g s:type="inputExt" transform="translate(447,262)" s:width="30" s:height="20" id="cell_serial_rxd"><text x="15" y="-4" class="nodelabel cell_serial_rxd" s:attribute="ref">serial_rxd</text><s:alias val="$_inputExt_"/><path d="M0,0 L0,20 L15,20 L30,10 L15,0 Z" class="cell_serial_rxd"/><g s:x="30" s:y="10" s:pid="Y"/></g><g s:type="outputExt" transform="translate(1118,392.5)" s:width="30" s:height="20" id="cell_led_r"><text x="15" y="-4" class="nodelabel cell_led_r" s:attribute="ref">led_r</text><s:alias val="$_outputExt_"/><path d="M30,0 L30,20 L15,20 L0,10 L15,0 Z" class="cell_led_r"/><g s:x="0" s:y="10" s:pid="A"/></g><g s:type="outputExt" transform="translate(1118,457.5)" s:width="30" s:height="20" id="cell_led_g"><text x="15" y="-4" class="nodelabel cell_led_g" s:attribute="ref">led_g</text><s:alias val="$_outputExt_"/><path d="M30,0 L30,20 L15,20 L0,10 L15,0 Z" class="cell_led_g"/><g s:x="0" s:y="10" s:pid="A"/></g><g s:type="outputExt" transform="translate(1118,87)" s:width="30" s:height="20" id="cell_led_b"><text x="15" y="-4" class="nodelabel cell_led_b" s:attribute="ref">led_b</text><s:alias val="$_outputExt_"/><path d="M30,0 L30,20 L15,20 L0,10 L15,0 Z" class="cell_led_b"/><g s:x="0" s:y="10" s:pid="A"/></g><g s:type="outputExt" transform="translate(1118,327.5)" s:width="30" s:height="20" id="cell_serial_txd"><text x="15" y="-4" class="nodelabel cell_serial_txd" s:attribute="ref">serial_txd</text><s:alias val="$_outputExt_"/><path d="M30,0 L30,20 L15,20 L0,10 L15,0 Z" class="cell_serial_txd"/><g s:x="0" s:y="10" s:pid="A"/></g><g s:type="outputExt" transform="translate(1118,22)" s:width="30" s:height="20" id="cell_spi_cs"><text x="15" y="-4" class="nodelabel cell_spi_cs" s:attribute="ref">spi_cs</text><s:alias val="$_outputExt_"/><path d="M30,0 L30,20 L15,20 L0,10 L15,0 Z" class="cell_spi_cs"/><g s:x="0" s:y="10" s:pid="A"/></g><g s:type="outputExt" transform="translate(1118,152)" s:width="30" s:height="20" id="cell_gpio_2"><text x="15" y="-4" class="nodelabel cell_gpio_2" s:attribute="ref">gpio_2</text><s:alias val="$_outputExt_"/><path d="M30,0 L30,20 L15,20 L0,10 L15,0 Z" class="cell_gpio_2"/><g s:x="0" s:y="10" s:pid="A"/></g><g s:type="constant" transform="translate(12,22)" s:width="30" s:height="20" id="cell_1"><text x="15" y="-4" class="nodelabel cell_1" s:attribute="ref">1</text><s:alias val="$_constant_"/><rect width="30" height="20" class="cell_1"/><g s:x="31" s:y="10" s:pid="Y"/></g><g s:type="constant" transform="translate(350,381)" s:width="30" s:height="20" id="cell_0"><text x="15" y="-4" class="nodelabel cell_0" s:attribute="ref">0</text><s:alias val="$_constant_"/><rect width="30" height="20" class="cell_0"/><g s:x="31" s:y="10" s:pid="Y"/></g><g s:type="constant" transform="translate(447,545.5)" s:width="30" s:height="20" id="cell_0000000000111111"><text x="15" y="-4" class="nodelabel cell_0000000000111111" s:attribute="ref">0x3f</text><s:alias val="$_constant_"/><rect width="30" height="20" class="cell_0000000000111111"/><g s:x="31" s:y="10" s:pid="Y"/></g><g s:type="constant" transform="translate(604,159.5)" s:width="30" s:height="20" id="cell_0000001111111111"><text x="15" y="-4" class="nodelabel cell_0000001111111111" s:attribute="ref">0x3ff</text><s:alias val="$_constant_"/><rect width="30" height="20" class="cell_0000001111111111"/><g s:x="31" s:y="10" s:pid="Y"/></g><g s:type="split" transform="translate(472,479.5)" s:width="5" s:height="40" id="cell_$split$,13,14,15,16,17,18,19,20,21,22,23,24,25,26,27,28,29,30,31,32,33,34,35,7,8,9,36,37,38,39,40,41,"><rect width="5" height="20" class="splitjoinBody" s:generic="body"/><s:alias val="$_split_"/><g s:x="0" s:y="20" s:pid="in"/><g transform="translate(4,10)" s:x="4" s:y="10" s:pid="out0"><text x="5" y="-4">23:25</text></g></g><line x1="981" x2="1028" y1="337.5" y2="337.5" class="net_3 width_1" style="stroke-width: 1"/><line x1="1028" x2="1028" y1="337.5" y2="154.5" class="net_3 width_1" style="stroke-width: 1"/><circle cx="1028" cy="337.5" r="2" style="fill:#000" class="net_3 width_1"/><line x1="1028" x2="1053" y1="154.5" y2="154.5" class="net_3 width_1" style="stroke-width: 1"/><line x1="981" x2="1093" y1="337.5" y2="337.5" class="net_3 width_1" style="stroke-width: 1"/><line x1="1093" x2="1093" y1="337.5" y2="402.5" class="net_3 width_1" style="stroke-width: 1"/><circle cx="1093" cy="337.5" r="2" style="fill:#000" class="net_3 width_1"/><line x1="1093" x2="1118" y1="402.5" y2="402.5" class="net_3 width_1" style="stroke-width: 1"/><line x1="981" x2="1118" y1="337.5" y2="337.5" class="net_3 width_1" style="stroke-width: 1"/><line x1="971.3333333333334" x2="1053" y1="169.5" y2="169.5" class="net_6 width_1" style="stroke-width: 1"/><line x1="477" x2="776.5" y1="490" y2="490" class="net_7,8,9 width_3" style="stroke-width: 2"/><line x1="804.5" x2="940.3333333333334" y1="490" y2="490" class="net_10 width_1" style="stroke-width: 1"/><line x1="805" x2="858" y1="555.5" y2="555.5" class="net_11 width_1" style="stroke-width: 1"/><line x1="858" x2="858" y1="555.5" y2="505" class="net_11 width_1" style="stroke-width: 1"/><line x1="858" x2="940.3333333333334" y1="505" y2="505" class="net_11 width_1" style="stroke-width: 1"/><line x1="43" x2="114" y1="32" y2="32" class="net_87 width_1" style="stroke-width: 1"/><line x1="114" x2="114" y1="32" y2="457.5" class="net_87 width_1" style="stroke-width: 1"/><line x1="114" x2="1056.3333333333333" y1="457.5" y2="457.5" class="net_87 width_1" style="stroke-width: 1"/><line x1="43" x2="63" y1="32" y2="32" class="net_87 width_1" style="stroke-width: 1"/><line x1="63" x2="63" y1="32" y2="520" class="net_87 width_1" style="stroke-width: 1"/><circle cx="63" cy="32" r="2" style="fill:#000" class="net_87 width_1"/><line x1="63" x2="80" y1="520" y2="520" class="net_87 width_1" style="stroke-width: 1"/><line x1="43" x2="114" y1="32" y2="32" class="net_87 width_1" style="stroke-width: 1"/><line x1="114" x2="114" y1="32" y2="189.5" class="net_87 width_1" style="stroke-width: 1"/><circle cx="114" cy="32" r="2" style="fill:#000" class="net_87 width_1"/><circle cx="114" cy="189.5" r="2" style="fill:#000" class="net_87 width_1"/><line x1="114" x2="182" y1="189.5" y2="189.5" class="net_87 width_1" style="stroke-width: 1"/><line x1="43" x2="114" y1="32" y2="32" class="net_87 width_1" style="stroke-width: 1"/><line x1="114" x2="114" y1="32" y2="209.5" class="net_87 width_1" style="stroke-width: 1"/><circle cx="114" cy="209.5" r="2" style="fill:#000" class="net_87 width_1"/><line x1="114" x2="182" y1="209.5" y2="209.5" class="net_87 width_1" style="stroke-width: 1"/><line x1="43" x2="1118" y1="32" y2="32" class="net_87 width_1" style="stroke-width: 1"/><line x1="381" x2="391" y1="391" y2="391" class="net_88 width_1" style="stroke-width: 1"/><line x1="391" x2="391" y1="391" y2="468.5" class="net_88 width_1" style="stroke-width: 1"/><line x1="391" x2="1028" y1="468.5" y2="468.5" class="net_88 width_1" style="stroke-width: 1"/><line x1="1028" x2="1028" y1="468.5" y2="477.5" class="net_88 width_1" style="stroke-width: 1"/><circle cx="391" cy="391" r="2" style="fill:#000" class="net_88 width_1"/><line x1="1028" x2="1056.3333333333333" y1="477.5" y2="477.5" class="net_88 width_1" style="stroke-width: 1"/><line x1="381" x2="391" y1="391" y2="391" class="net_88 width_1" style="stroke-width: 1"/><line x1="391" x2="391" y1="391" y2="241" class="net_88 width_1" style="stroke-width: 1"/><line x1="391" x2="774" y1="241" y2="241" class="net_88 width_1" style="stroke-width: 1"/><line x1="381" x2="391" y1="391" y2="391" class="net_88 width_1" style="stroke-width: 1"/><line x1="391" x2="391" y1="391" y2="357.5" class="net_88 width_1" style="stroke-width: 1"/><circle cx="391" cy="357.5" r="2" style="fill:#000" class="net_88 width_1"/><line x1="391" x2="447" y1="357.5" y2="357.5" class="net_88 width_1" style="stroke-width: 1"/><line x1="381" x2="391" y1="391" y2="391" class="net_88 width_1" style="stroke-width: 1"/><line x1="391" x2="391" y1="391" y2="431" class="net_88 width_1" style="stroke-width: 1"/><line x1="391" x2="868" y1="431" y2="431" class="net_88 width_1" style="stroke-width: 1"/><line x1="868" x2="868" y1="431" y2="397.5" class="net_88 width_1" style="stroke-width: 1"/><circle cx="391" cy="431" r="2" style="fill:#000" class="net_88 width_1"/><line x1="868" x2="950" y1="397.5" y2="397.5" class="net_88 width_1" style="stroke-width: 1"/><line x1="381" x2="541" y1="391" y2="391" class="net_88 width_1" style="stroke-width: 1"/><line x1="541" x2="541" y1="391" y2="377.5" class="net_88 width_1" style="stroke-width: 1"/><line x1="541" x2="604" y1="377.5" y2="377.5" class="net_88 width_1" style="stroke-width: 1"/><line x1="970.3333333333334" x2="1066.3333333333333" y1="497.5" y2="497.5" class="net_12 width_1" style="stroke-width: 1"/><line x1="1066.3333333333333" x2="1066.3333333333333" y1="497.5" y2="482.5" class="net_12 width_1" style="stroke-width: 1"/><line x1="315" x2="325" y1="512.5" y2="512.5" class="net_13,14,15,16,17,18,19,20,21,22,23,24,25,26,27,28,29,30,31,32,33,34,35,7,8,9,36,37,38,39,40,41 width_32" style="stroke-width: 2"/><line x1="325" x2="325" y1="512.5" y2="556.5" class="net_13,14,15,16,17,18,19,20,21,22,23,24,25,26,27,28,29,30,31,32,33,34,35,7,8,9,36,37,38,39,40,41 width_32" style="stroke-width: 2"/><line x1="325" x2="53" y1="556.5" y2="556.5" class="net_13,14,15,16,17,18,19,20,21,22,23,24,25,26,27,28,29,30,31,32,33,34,35,7,8,9,36,37,38,39,40,41 width_32" style="stroke-width: 2"/><line x1="53" x2="53" y1="556.5" y2="505" class="net_13,14,15,16,17,18,19,20,21,22,23,24,25,26,27,28,29,30,31,32,33,34,35,7,8,9,36,37,38,39,40,41 width_32" style="stroke-width: 2"/><circle cx="325" cy="512.5" r="3" style="fill:#000" class="net_13,14,15,16,17,18,19,20,21,22,23,24,25,26,27,28,29,30,31,32,33,34,35,7,8,9,36,37,38,39,40,41 width_32"/><line x1="53" x2="80" y1="505" y2="505" class="net_13,14,15,16,17,18,19,20,21,22,23,24,25,26,27,28,29,30,31,32,33,34,35,7,8,9,36,37,38,39,40,41 width_32" style="stroke-width: 2"/><line x1="315" x2="472.5" y1="512.5" y2="512.5" class="net_13,14,15,16,17,18,19,20,21,22,23,24,25,26,27,28,29,30,31,32,33,34,35,7,8,9,36,37,38,39,40,41 width_32" style="stroke-width: 2"/><line x1="472.5" x2="472.5" y1="512.5" y2="500.5" class="net_13,14,15,16,17,18,19,20,21,22,23,24,25,26,27,28,29,30,31,32,33,34,35,7,8,9,36,37,38,39,40,41 width_32" style="stroke-width: 2"/><line x1="213" x2="254" y1="189.5" y2="189.5" class="net_74 width_1" style="stroke-width: 1"/><line x1="254" x2="254" y1="189.5" y2="532.5" class="net_74 width_1" style="stroke-width: 1"/><circle cx="254" cy="189.5" r="2" style="fill:#000" class="net_74 width_1"/><circle cx="254" cy="532.5" r="2" style="fill:#000" class="net_74 width_1"/><line x1="254" x2="279" y1="532.5" y2="532.5" class="net_74 width_1" style="stroke-width: 1"/><line x1="213" x2="254" y1="189.5" y2="189.5" class="net_74 width_1" style="stroke-width: 1"/><line x1="254" x2="254" y1="189.5" y2="575.5" class="net_74 width_1" style="stroke-width: 1"/><line x1="254" x2="774" y1="575.5" y2="575.5" class="net_74 width_1" style="stroke-width: 1"/><line x1="213" x2="712" y1="189.5" y2="189.5" class="net_74 width_1" style="stroke-width: 1"/><line x1="712" x2="712" y1="189.5" y2="221" class="net_74 width_1" style="stroke-width: 1"/><circle cx="712" cy="189.5" r="2" style="fill:#000" class="net_74 width_1"/><line x1="712" x2="774" y1="221" y2="221" class="net_74 width_1" style="stroke-width: 1"/><line x1="213" x2="401" y1="189.5" y2="189.5" class="net_74 width_1" style="stroke-width: 1"/><line x1="401" x2="401" y1="189.5" y2="337.5" class="net_74 width_1" style="stroke-width: 1"/><circle cx="401" cy="189.5" r="2" style="fill:#000" class="net_74 width_1"/><circle cx="401" cy="337.5" r="2" style="fill:#000" class="net_74 width_1"/><line x1="401" x2="447" y1="337.5" y2="337.5" class="net_74 width_1" style="stroke-width: 1"/><line x1="213" x2="325" y1="189.5" y2="189.5" class="net_74 width_1" style="stroke-width: 1"/><line x1="325" x2="325" y1="189.5" y2="420" class="net_74 width_1" style="stroke-width: 1"/><line x1="325" x2="858" y1="420" y2="420" class="net_74 width_1" style="stroke-width: 1"/><line x1="858" x2="858" y1="420" y2="377.5" class="net_74 width_1" style="stroke-width: 1"/><circle cx="325" cy="189.5" r="2" style="fill:#000" class="net_74 width_1"/><line x1="858" x2="950" y1="377.5" y2="377.5" class="net_74 width_1" style="stroke-width: 1"/><line x1="213" x2="401" y1="189.5" y2="189.5" class="net_74 width_1" style="stroke-width: 1"/><line x1="401" x2="401" y1="189.5" y2="380" class="net_74 width_1" style="stroke-width: 1"/><line x1="401" x2="531" y1="380" y2="380" class="net_74 width_1" style="stroke-width: 1"/><line x1="531" x2="531" y1="380" y2="357.5" class="net_74 width_1" style="stroke-width: 1"/><line x1="531" x2="604" y1="357.5" y2="357.5" class="net_74 width_1" style="stroke-width: 1"/><line x1="213" x2="940.3333333333334" y1="189.5" y2="189.5" class="net_74 width_1" style="stroke-width: 1"/><line x1="104" x2="279" y1="512.5" y2="512.5" class="net_42,43,44,45,46,47,48,49,50,51,52,53,54,55,56,57,58,59,60,61,62,63,64,65,66,67,68,69,70,71,72,73 width_32" style="stroke-width: 2"/><line x1="478" x2="774" y1="555.5" y2="555.5" class="net_92,93,94,95,96,97,98,99,100,101,102,103,104,105,106,107 width_16" style="stroke-width: 2"/><line x1="805" x2="858" y1="221" y2="221" class="net_75 width_1" style="stroke-width: 1"/><line x1="858" x2="858" y1="221" y2="317.5" class="net_75 width_1" style="stroke-width: 1"/><line x1="858" x2="950" y1="317.5" y2="317.5" class="net_75 width_1" style="stroke-width: 1"/><line x1="635" x2="950" y1="337.5" y2="337.5" class="net_77,78,79,80,81,82,83,84 width_8" style="stroke-width: 2"/><line x1="635" x2="950" y1="357.5" y2="357.5" class="net_85 width_1" style="stroke-width: 1"/><line x1="478" x2="604" y1="337.5" y2="337.5" class="net_76 width_1" style="stroke-width: 1"/><line x1="477" x2="551" y1="272" y2="272" class="net_2 width_1" style="stroke-width: 1"/><line x1="551" x2="551" y1="272" y2="397.5" class="net_2 width_1" style="stroke-width: 1"/><circle cx="551" cy="272" r="2" style="fill:#000" class="net_2 width_1"/><line x1="551" x2="604" y1="397.5" y2="397.5" class="net_2 width_1" style="stroke-width: 1"/><line x1="477" x2="551" y1="272" y2="272" class="net_2 width_1" style="stroke-width: 1"/><line x1="551" x2="551" y1="272" y2="97" class="net_2 width_1" style="stroke-width: 1"/><line x1="551" x2="1118" y1="97" y2="97" class="net_2 width_1" style="stroke-width: 1"/><line x1="635" x2="940.3333333333334" y1="169.5" y2="169.5" class="net_112,113,114,115,116,117,118,119,120,121,122,123,124,125,126,127 width_16" style="stroke-width: 2"/><line x1="1076.3333333333333" x2="1118" y1="467.5" y2="467.5" class="net_4 width_1" style="stroke-width: 1"/><line x1="1083" x2="1118" y1="162" y2="162" class="net_5 width_1" style="stroke-width: 1"/><rect x="630.5" y="485" width="16" height="9" class="net_7,8,9 width_3 busLabel_3" style="fill: white; stroke: none"/><text x="629.5" y="493" class="net_7,8,9 width_3 busLabel_3">/3/</text><rect x="364.5" y="507.5" width="22" height="9" class="net_13,14,15,16,17,18,19,20,21,22,23,24,25,26,27,28,29,30,31,32,33,34,35,7,8,9,36,37,38,39,40,41 width_32 busLabel_32" style="fill: white; stroke: none"/><text x="363.5" y="515.5" class="net_13,14,15,16,17,18,19,20,21,22,23,24,25,26,27,28,29,30,31,32,33,34,35,7,8,9,36,37,38,39,40,41 width_32 busLabel_32">/32/</text><rect x="364.5" y="507.5" width="22" height="9" class="net_13,14,15,16,17,18,19,20,21,22,23,24,25,26,27,28,29,30,31,32,33,34,35,7,8,9,36,37,38,39,40,41 width_32 busLabel_32" style="fill: white; stroke: none"/><text x="363.5" y="515.5" class="net_13,14,15,16,17,18,19,20,21,22,23,24,25,26,27,28,29,30,31,32,33,34,35,7,8,9,36,37,38,39,40,41 width_32 busLabel_32">/32/</text><rect x="190.5" y="507.5" width="22" height="9" class="net_42,43,44,45,46,47,48,49,50,51,52,53,54,55,56,57,58,59,60,61,62,63,64,65,66,67,68,69,70,71,72,73 width_32 busLabel_32" style="fill: white; stroke: none"/><text x="189.5" y="515.5" class="net_42,43,44,45,46,47,48,49,50,51,52,53,54,55,56,57,58,59,60,61,62,63,64,65,66,67,68,69,70,71,72,73 width_32 busLabel_32">/32/</text><rect x="630.5" y="550.5" width="22" height="9" class="net_92,93,94,95,96,97,98,99,100,101,102,103,104,105,106,107 width_16 busLabel_16" style="fill: white; stroke: none"/><text x="629.5" y="558.5" class="net_92,93,94,95,96,97,98,99,100,101,102,103,104,105,106,107 width_16 busLabel_16">/16/</text><rect x="791.5" y="332.5" width="16" height="9" class="net_77,78,79,80,81,82,83,84 width_8 busLabel_8" style="fill: white; stroke: none"/><text x="790.5" y="340.5" class="net_77,78,79,80,81,82,83,84 width_8 busLabel_8">/8/</text><rect x="791.5" y="164.5" width="22" height="9" class="net_112,113,114,115,116,117,118,119,120,121,122,123,124,125,126,127 width_16 busLabel_16" style="fill: white; stroke: none"/><text x="790.5" y="172.5" class="net_112,113,114,115,116,117,118,119,120,121,122,123,124,125,126,127 width_16 busLabel_16">/16/</text></svg>