<svg xmlns="http://www.w3.org/2000/svg" xmlns:xlink="http://www.w3.org/1999/xlink" xmlns:s="https://github.com/nturley/netlistsvg" width="1420" height="950">
  <style>svg {
    stroke:#000;
    fill:none;
  }
  text {
    fill:#000;
    stroke:none;
    font-size:10px;
    font-weight: bold;
    font-family: "Courier New", monospace;
  }
  .nodelabel {
    text-anchor: middle;
  }
  .inputPortLabel {
    text-anchor: end;
  }
  .splitjoinBody {
    fill:#000;
  }</style>
  <g s:type="add" transform="translate(633.6666666666666,507)" s:width="25" s:height="25" id="cell_\48">
    <s:alias val="$add"/>
    <circle r="12.5" cx="12.5" cy="12.5" class="cell_\48"/>
    <line x1="7.5" x2="17.5" y1="12.5" y2="12.5" class="cell_\48"/>
    <line x1="12.5" x2="12.5" y1="7.5" y2="17.5" class="cell_\48"/>
    <g s:x="3" s:y="5" s:pid="A"/>
    <g s:x="3" s:y="20" s:pid="B"/>
    <g s:x="25" s:y="12.5" s:pid="Y"/>
  </g>
  <g s:type="generic" transform="translate(1033.5,387.5)" s:width="30" s:height="40" id="cell_\52">
    <text x="15" y="-4" class="nodelabel cell_\52" s:attribute="ref">$logic_not</text>
    <rect width="30" height="20" s:generic="body" class="cell_\52"/>
    <g transform="translate(0,10)" s:x="0" s:y="10" s:pid="in0" id="port_\52~A">
      <text x="-3" y="-4" class="inputPortLabel cell_\52">A</text>
    </g>
    <g transform="translate(30,10)" s:x="30" s:y="10" s:pid="out0" id="port_\52~Y">
      <text x="5" y="-4" style="fill:#000; stroke:none" class="cell_\52">Y</text>
    </g>
  </g>
  <g s:type="and" transform="translate(1139,446)" s:width="30" s:height="25" id="cell_\53">
    <s:alias val="$and"/>
    <s:alias val="$logic_and"/>
    <s:alias val="$_AND_"/>
    <path d="M0,0 L0,25 L15,25 A15 12.5 0 0 0 15,0 Z" class="cell_\53"/>
    <g s:x="0" s:y="5" s:pid="A"/>
    <g s:x="0" s:y="20" s:pid="B"/>
    <g s:x="30" s:y="12.5" s:pid="Y"/>
  </g>
  <g s:type="mux" transform="translate(1238.6666666666667,296)" s:width="20" s:height="40" id="cell_\56">
    <s:alias val="$pmux"/>
    <s:alias val="$mux"/>
    <s:alias val="$_MUX_"/>
    <path d="M0,0 L20,10 L20,30 L0,40 Z" class="cell_\56"/>
    <g s:x="0" s:y="10" s:pid="A"/>
    <g s:x="0" s:y="30" s:pid="B"/>
    <g s:x="10" s:y="35" s:pid="S"/>
    <g s:x="20" s:y="20" s:pid="Y"/>
  </g>
  <g s:type="dff" transform="translate(777,512)" s:width="30" s:height="40" id="cell_\58">
    <s:alias val="$dff"/>
    <s:alias val="$_DFF_"/>
    <rect width="30" height="40" x="0" y="0" class="cell_\58"/>
    <path d="M0,35 L5,30 L0,25" class="cell_\58"/>
    <g s:x="30" s:y="10" s:pid="Q"/>
    <g s:x="0" s:y="30" s:pid="CLK"/>
    <g s:x="0" s:y="10" s:pid="D"/>
  </g>
  <g s:type="and" transform="translate(777,587)" s:width="30" s:height="25" id="cell_\62">
    <s:alias val="$and"/>
    <s:alias val="$logic_and"/>
    <s:alias val="$_AND_"/>
    <path d="M0,0 L0,25 L15,25 A15 12.5 0 0 0 15,0 Z" class="cell_\62"/>
    <g s:x="0" s:y="5" s:pid="A"/>
    <g s:x="0" s:y="20" s:pid="B"/>
    <g s:x="30" s:y="12.5" s:pid="Y"/>
  </g>
  <g s:type="not" transform="translate(777,647)" s:width="30" s:height="20" id="cell_\63">
    <s:alias val="$_NOT_"/>
    <s:alias val="$not"/>
    <path d="M0,0 L0,20 L20,10 Z" class="cell_\63"/>
    <circle cx="23" cy="10" r="3" class="cell_\63"/>
    <g s:x="0" s:y="10" s:pid="A"/>
    <g s:x="25" s:y="10" s:pid="Y"/>
  </g>
  <g s:type="and" transform="translate(844,637)" s:width="30" s:height="25" id="cell_\64">
    <s:alias val="$and"/>
    <s:alias val="$logic_and"/>
    <s:alias val="$_AND_"/>
    <path d="M0,0 L0,25 L15,25 A15 12.5 0 0 0 15,0 Z" class="cell_\64"/>
    <g s:x="0" s:y="5" s:pid="A"/>
    <g s:x="0" s:y="20" s:pid="B"/>
    <g s:x="30" s:y="12.5" s:pid="Y"/>
  </g>
  <g s:type="not" transform="translate(842,582)" s:width="30" s:height="20" id="cell_\65">
    <s:alias val="$_NOT_"/>
    <s:alias val="$not"/>
    <path d="M0,0 L0,20 L20,10 Z" class="cell_\65"/>
    <circle cx="23" cy="10" r="3" class="cell_\65"/>
    <g s:x="0" s:y="10" s:pid="A"/>
    <g s:x="25" s:y="10" s:pid="Y"/>
  </g>
  <g s:type="and" transform="translate(920.3333333333334,644.5)" s:width="30" s:height="25" id="cell_\66">
    <s:alias val="$and"/>
    <s:alias val="$logic_and"/>
    <s:alias val="$_AND_"/>
    <path d="M0,0 L0,25 L15,25 A15 12.5 0 0 0 15,0 Z" class="cell_\66"/>
    <g s:x="0" s:y="5" s:pid="A"/>
    <g s:x="0" s:y="20" s:pid="B"/>
    <g s:x="30" s:y="12.5" s:pid="Y"/>
  </g>
  <g s:type="generic" transform="translate(920,586.5)" s:width="30" s:height="40" id="cell_\69">
    <text x="15" y="-4" class="nodelabel cell_\69" s:attribute="ref">$logic_not</text>
    <rect width="30" height="20" s:generic="body" class="cell_\69"/>
    <g transform="translate(0,10)" s:x="0" s:y="10" s:pid="in0" id="port_\69~A">
      <text x="-3" y="-4" class="inputPortLabel cell_\69">A</text>
    </g>
    <g transform="translate(30,10)" s:x="30" s:y="10" s:pid="out0" id="port_\69~Y">
      <text x="5" y="-4" style="fill:#000; stroke:none" class="cell_\69">Y</text>
    </g>
  </g>
  <g s:type="and" transform="translate(1032.3333333333335,652)" s:width="30" s:height="25" id="cell_\70">
    <s:alias val="$and"/>
    <s:alias val="$logic_and"/>
    <s:alias val="$_AND_"/>
    <path d="M0,0 L0,25 L15,25 A15 12.5 0 0 0 15,0 Z" class="cell_\70"/>
    <g s:x="0" s:y="5" s:pid="A"/>
    <g s:x="0" s:y="20" s:pid="B"/>
    <g s:x="30" s:y="12.5" s:pid="Y"/>
  </g>
  <g s:type="mux" transform="translate(1142.3333333333333,131)" s:width="20" s:height="40" id="cell_\73">
    <s:alias val="$pmux"/>
    <s:alias val="$mux"/>
    <s:alias val="$_MUX_"/>
    <path d="M0,0 L20,10 L20,30 L0,40 Z" class="cell_\73"/>
    <g s:x="0" s:y="10" s:pid="A"/>
    <g s:x="0" s:y="30" s:pid="B"/>
    <g s:x="10" s:y="35" s:pid="S"/>
    <g s:x="20" s:y="20" s:pid="Y"/>
  </g>
  <g s:type="mux" transform="translate(1238.6666666666667,802)" s:width="20" s:height="40" id="cell_\77">
    <s:alias val="$pmux"/>
    <s:alias val="$mux"/>
    <s:alias val="$_MUX_"/>
    <path d="M0,0 L20,10 L20,30 L0,40 Z" class="cell_\77"/>
    <g s:x="0" s:y="10" s:pid="A"/>
    <g s:x="0" s:y="30" s:pid="B"/>
    <g s:x="10" s:y="35" s:pid="S"/>
    <g s:x="20" s:y="20" s:pid="Y"/>
  </g>
  <g s:type="dff" transform="translate(1235.3333333333333,151)" s:width="30" s:height="40" id="cell_\87">
    <s:alias val="$dff"/>
    <s:alias val="$_DFF_"/>
    <rect width="30" height="40" x="0" y="0" class="cell_\87"/>
    <path d="M0,35 L5,30 L0,25" class="cell_\87"/>
    <g s:x="30" s:y="10" s:pid="Q"/>
    <g s:x="0" s:y="30" s:pid="CLK"/>
    <g s:x="0" s:y="10" s:pid="D"/>
  </g>
  <g s:type="dff" transform="translate(1338,833)" s:width="30" s:height="40" id="cell_\88">
    <s:alias val="$dff"/>
    <s:alias val="$_DFF_"/>
    <rect width="30" height="40" x="0" y="0" class="cell_\88"/>
    <path d="M0,35 L5,30 L0,25" class="cell_\88"/>
    <g s:x="30" s:y="10" s:pid="Q"/>
    <g s:x="0" s:y="30" s:pid="CLK"/>
    <g s:x="0" s:y="10" s:pid="D"/>
  </g>
  <g s:type="generic" transform="translate(120,475.5)" s:width="30" s:height="40" id="cell_dut1">
    <text x="15" y="-4" class="nodelabel cell_dut1" s:attribute="ref">SB_HFOSC</text>
    <rect width="30" height="40" s:generic="body" class="cell_dut1"/>
    <g transform="translate(0,10)" s:x="0" s:y="10" s:pid="in0" id="port_dut1~CLKHFEN">
      <text x="-3" y="-4" class="inputPortLabel cell_dut1">CLKHFEN</text>
    </g>
    <g transform="translate(0,30)" s:x="0" s:y="10" s:pid="in0" id="port_dut1~CLKHFPU">
      <text x="-3" y="-4" class="inputPortLabel cell_dut1">CLKHFPU</text>
    </g>
    <g transform="translate(30,10)" s:x="30" s:y="10" s:pid="out0" id="port_dut1~CLKHF">
      <text x="5" y="-4" style="fill:#000; stroke:none" class="cell_dut1">CLKHF</text>
    </g>
  </g>
  <g s:type="generic" transform="translate(1030,455.5)" s:width="30" s:height="40" id="cell_dut2">
    <text x="15" y="-4" class="nodelabel cell_dut2" s:attribute="ref">pwm</text>
    <rect width="30" height="40" s:generic="body" class="cell_dut2"/>
    <g transform="translate(0,10)" s:x="0" s:y="10" s:pid="in0" id="port_dut2~bright">
      <text x="-3" y="-4" class="inputPortLabel cell_dut2">bright</text>
    </g>
    <g transform="translate(0,30)" s:x="0" s:y="10" s:pid="in0" id="port_dut2~clk">
      <text x="-3" y="-4" class="inputPortLabel cell_dut2">clk</text>
    </g>
    <g transform="translate(30,10)" s:x="30" s:y="10" s:pid="out0" id="port_dut2~sig_out">
      <text x="5" y="-4" style="fill:#000; stroke:none" class="cell_dut2">sig_out</text>
    </g>
  </g>
  <g s:type="generic" transform="translate(423.3333333333333,695.5)" s:width="30" s:height="40" id="cell_dut3">
    <text x="15" y="-4" class="nodelabel cell_dut3" s:attribute="ref">divide_by_n_16</text>
    <rect width="30" height="40" s:generic="body" class="cell_dut3"/>
    <g transform="translate(0,10)" s:x="0" s:y="10" s:pid="in0" id="port_dut3~clk">
      <text x="-3" y="-4" class="inputPortLabel cell_dut3">clk</text>
    </g>
    <g transform="translate(0,30)" s:x="0" s:y="10" s:pid="in0" id="port_dut3~reset">
      <text x="-3" y="-4" class="inputPortLabel cell_dut3">reset</text>
    </g>
    <g transform="translate(30,10)" s:x="30" s:y="10" s:pid="out0" id="port_dut3~sig_out">
      <text x="5" y="-4" style="fill:#000; stroke:none" class="cell_dut3">sig_out</text>
    </g>
  </g>
  <g s:type="generic" transform="translate(263,347)" s:width="30" s:height="40" id="cell_dut4">
    <text x="15" y="-4" class="nodelabel cell_dut4" s:attribute="ref">divide_by_n_4</text>
    <rect width="30" height="40" s:generic="body" class="cell_dut4"/>
    <g transform="translate(0,10)" s:x="0" s:y="10" s:pid="in0" id="port_dut4~clk">
      <text x="-3" y="-4" class="inputPortLabel cell_dut4">clk</text>
    </g>
    <g transform="translate(0,30)" s:x="0" s:y="10" s:pid="in0" id="port_dut4~reset">
      <text x="-3" y="-4" class="inputPortLabel cell_dut4">reset</text>
    </g>
    <g transform="translate(30,10)" s:x="30" s:y="10" s:pid="out0" id="port_dut4~sig_out">
      <text x="5" y="-4" style="fill:#000; stroke:none" class="cell_dut4">sig_out</text>
    </g>
  </g>
  <g s:type="generic" transform="translate(631.5714285714286,678)" s:width="30" s:height="40" id="cell_dut5">
    <text x="15" y="-4" class="nodelabel cell_dut5" s:attribute="ref">uart_tx</text>
    <rect width="30" height="100" s:generic="body" class="cell_dut5"/>
    <g transform="translate(0,10)" s:x="0" s:y="10" s:pid="in0" id="port_dut5~baud_x1">
      <text x="-3" y="-4" class="inputPortLabel cell_dut5">baud_x1</text>
    </g>
    <g transform="translate(0,30)" s:x="0" s:y="10" s:pid="in0" id="port_dut5~data">
      <text x="-3" y="-4" class="inputPortLabel cell_dut5">data</text>
    </g>
    <g transform="translate(0,50)" s:x="0" s:y="10" s:pid="in0" id="port_dut5~data_strobe">
      <text x="-3" y="-4" class="inputPortLabel cell_dut5">data_strobe</text>
    </g>
    <g transform="translate(0,70)" s:x="0" s:y="10" s:pid="in0" id="port_dut5~mclk">
      <text x="-3" y="-4" class="inputPortLabel cell_dut5">mclk</text>
    </g>
    <g transform="translate(0,90)" s:x="0" s:y="10" s:pid="in0" id="port_dut5~reset">
      <text x="-3" y="-4" class="inputPortLabel cell_dut5">reset</text>
    </g>
    <g transform="translate(30,10)" s:x="30" s:y="10" s:pid="out0" id="port_dut5~ready">
      <text x="5" y="-4" style="fill:#000; stroke:none" class="cell_dut5">ready</text>
    </g>
    <g transform="translate(30,30)" s:x="30" s:y="10" s:pid="out0" id="port_dut5~serial">
      <text x="5" y="-4" style="fill:#000; stroke:none" class="cell_dut5">serial</text>
    </g>
  </g>
  <g s:type="generic" transform="translate(415,360.5)" s:width="30" s:height="40" id="cell_dut6">
    <text x="15" y="-4" class="nodelabel cell_dut6" s:attribute="ref">uart_rx</text>
    <rect width="30" height="80" s:generic="body" class="cell_dut6"/>
    <g transform="translate(0,10)" s:x="0" s:y="10" s:pid="in0" id="port_dut6~baud_x4">
      <text x="-3" y="-4" class="inputPortLabel cell_dut6">baud_x4</text>
    </g>
    <g transform="translate(0,30)" s:x="0" s:y="10" s:pid="in0" id="port_dut6~mclk">
      <text x="-3" y="-4" class="inputPortLabel cell_dut6">mclk</text>
    </g>
    <g transform="translate(0,50)" s:x="0" s:y="10" s:pid="in0" id="port_dut6~reset">
      <text x="-3" y="-4" class="inputPortLabel cell_dut6">reset</text>
    </g>
    <g transform="translate(0,70)" s:x="0" s:y="10" s:pid="in0" id="port_dut6~serial">
      <text x="-3" y="-4" class="inputPortLabel cell_dut6">serial</text>
    </g>
    <g transform="translate(30,10)" s:x="30" s:y="10" s:pid="out0" id="port_dut6~data">
      <text x="5" y="-4" style="fill:#000; stroke:none" class="cell_dut6">data</text>
    </g>
    <g transform="translate(30,30)" s:x="30" s:y="10" s:pid="out0" id="port_dut6~data_strobe">
      <text x="5" y="-4" style="fill:#000; stroke:none" class="cell_dut6">data_strobe</text>
    </g>
  </g>
  <g s:type="generic" transform="translate(626,213)" s:width="30" s:height="40" id="cell_dut7">
    <text x="15" y="-4" class="nodelabel cell_dut7" s:attribute="ref">fifo_spram_8_15</text>
    <rect width="30" height="100" s:generic="body" class="cell_dut7"/>
    <g transform="translate(0,10)" s:x="0" s:y="10" s:pid="in0" id="port_dut7~clk">
      <text x="-3" y="-4" class="inputPortLabel cell_dut7">clk</text>
    </g>
    <g transform="translate(0,30)" s:x="0" s:y="10" s:pid="in0" id="port_dut7~read_strobe">
      <text x="-3" y="-4" class="inputPortLabel cell_dut7">read_strobe</text>
    </g>
    <g transform="translate(0,50)" s:x="0" s:y="10" s:pid="in0" id="port_dut7~reset">
      <text x="-3" y="-4" class="inputPortLabel cell_dut7">reset</text>
    </g>
    <g transform="translate(0,70)" s:x="0" s:y="10" s:pid="in0" id="port_dut7~write_data">
      <text x="-3" y="-4" class="inputPortLabel cell_dut7">write_data</text>
    </g>
    <g transform="translate(0,90)" s:x="0" s:y="10" s:pid="in0" id="port_dut7~write_strobe">
      <text x="-3" y="-4" class="inputPortLabel cell_dut7">write_strobe</text>
    </g>
    <g transform="translate(30,10)" s:x="30" s:y="10" s:pid="out0" id="port_dut7~data_available">
      <text x="5" y="-4" style="fill:#000; stroke:none" class="cell_dut7">data_available</text>
    </g>
    <g transform="translate(30,30)" s:x="30" s:y="10" s:pid="out0" id="port_dut7~read_data">
      <text x="5" y="-4" style="fill:#000; stroke:none" class="cell_dut7">read_data</text>
    </g>
  </g>
  <g s:type="generic" transform="translate(1229,73)" s:width="30" s:height="40" id="cell_seg1">
    <text x="15" y="-4" class="nodelabel cell_seg1" s:attribute="ref">segment</text>
    <rect width="30" height="40" s:generic="body" class="cell_seg1"/>
    <g transform="translate(0,10)" s:x="0" s:y="10" s:pid="in0" id="port_seg1~clk">
      <text x="-3" y="-4" class="inputPortLabel cell_seg1">clk</text>
    </g>
    <g transform="translate(0,30)" s:x="0" s:y="10" s:pid="in0" id="port_seg1~data">
      <text x="-3" y="-4" class="inputPortLabel cell_seg1">data</text>
    </g>
    <g transform="translate(30,10)" s:x="30" s:y="10" s:pid="out0" id="port_seg1~display">
      <text x="5" y="-4" style="fill:#000; stroke:none" class="cell_seg1">display</text>
    </g>
  </g>
  <g s:type="inputExt" transform="translate(263,456)" s:width="30" s:height="20" id="cell_serial_rxd">
    <text x="15" y="-4" class="nodelabel cell_serial_rxd" s:attribute="ref">serial_rxd</text>
    <s:alias val="$_inputExt_"/>
    <path d="M0,0 L0,20 L15,20 L30,10 L15,0 Z" class="cell_serial_rxd"/>
    <g s:x="28" s:y="10" s:pid="Y"/>
  </g>
  <g s:type="outputExt" transform="translate(1338,151)" s:width="30" s:height="20" id="cell_led_r">
    <text x="15" y="-4" class="nodelabel cell_led_r" s:attribute="ref">led_r</text>
    <s:alias val="$_outputExt_"/>
    <path d="M30,0 L30,20 L15,20 L0,10 L15,0 Z" class="cell_led_r"/>
    <g s:x="0" s:y="10" s:pid="A"/>
  </g>
  <g s:type="outputExt" transform="translate(1338,306)" s:width="30" s:height="20" id="cell_led_g">
    <text x="15" y="-4" class="nodelabel cell_led_g" s:attribute="ref">led_g</text>
    <s:alias val="$_outputExt_"/>
    <path d="M30,0 L30,20 L15,20 L0,10 L15,0 Z" class="cell_led_g"/>
    <g s:x="0" s:y="10" s:pid="A"/>
  </g>
  <g s:type="outputExt" transform="translate(1338,918)" s:width="30" s:height="20" id="cell_led_b">
    <text x="15" y="-4" class="nodelabel cell_led_b" s:attribute="ref">led_b</text>
    <s:alias val="$_outputExt_"/>
    <path d="M30,0 L30,20 L15,20 L0,10 L15,0 Z" class="cell_led_b"/>
    <g s:x="0" s:y="10" s:pid="A"/>
  </g>
  <g s:type="outputExt" transform="translate(1338,698.5)" s:width="30" s:height="20" id="cell_serial_txd">
    <text x="15" y="-4" class="nodelabel cell_serial_txd" s:attribute="ref">serial_txd</text>
    <s:alias val="$_outputExt_"/>
    <path d="M30,0 L30,20 L15,20 L0,10 L15,0 Z" class="cell_serial_txd"/>
    <g s:x="0" s:y="10" s:pid="A"/>
  </g>
  <g s:type="outputExt" transform="translate(1338,22)" s:width="30" s:height="20" id="cell_spi_cs">
    <text x="15" y="-4" class="nodelabel cell_spi_cs" s:attribute="ref">spi_cs</text>
    <s:alias val="$_outputExt_"/>
    <path d="M30,0 L30,20 L15,20 L0,10 L15,0 Z" class="cell_spi_cs"/>
    <g s:x="0" s:y="10" s:pid="A"/>
  </g>
  <g s:type="outputExt" transform="translate(1338,73.5)" s:width="30" s:height="20" id="cell_seven_seg">
    <text x="15" y="-4" class="nodelabel cell_seven_seg" s:attribute="ref">seven_seg</text>
    <s:alias val="$_outputExt_"/>
    <path d="M30,0 L30,20 L15,20 L0,10 L15,0 Z" class="cell_seven_seg"/>
    <g s:x="0" s:y="10" s:pid="A"/>
  </g>
  <g s:type="constant" transform="translate(12,918)" s:width="30" s:height="20" id="cell_1">
    <text x="15" y="-4" class="nodelabel cell_1" s:attribute="ref">1</text>
    <s:alias val="$_constant_"/>
    <rect width="30" height="20" class="cell_1"/>
    <g s:x="30" s:y="10" s:pid="Y"/>
  </g>
  <g s:type="constant" transform="translate(120,898)" s:width="30" s:height="20" id="cell_0">
    <text x="15" y="-4" class="nodelabel cell_0" s:attribute="ref">0</text>
    <s:alias val="$_constant_"/>
    <rect width="30" height="20" class="cell_0"/>
    <g s:x="30" s:y="10" s:pid="Y"/>
  </g>
  <g s:type="constant" transform="translate(920,456)" s:width="30" s:height="20" id="cell_0000000000111111">
    <text x="15" y="-4" class="nodelabel cell_0000000000111111" s:attribute="ref">0x3f</text>
    <s:alias val="$_constant_"/>
    <rect width="30" height="20" class="cell_0000000000111111"/>
    <g s:x="30" s:y="10" s:pid="Y"/>
  </g>
  <g s:type="split" transform="translate(842,501.5)" s:width="5" s:height="40" id="cell_$split$,15,16,17,18,19,20,21,22,23,24,25,26,27,28,29,30,31,32,33,34,35,36,37,38,39,40,41,42,43,44,45,46,">
    <rect width="5" height="40" class="splitjoinBody" s:generic="body"/>
    <s:alias val="$_split_"/>
    <g s:x="0" s:y="20" s:pid="in"/>
    <g transform="translate(4,10)" s:x="4" s:y="10" s:pid="out0">
      <text x="5" y="-4">23:25</text>
    </g>
    <g transform="translate(4,30)" s:x="4" s:y="10" s:pid="out0">
      <text x="5" y="-4">0:18</text>
    </g>
  </g>
  <line x1="807" x2="817" y1="522" y2="522" class="net_15,16,17,18,19,20,21,22,23,24,25,26,27,28,29,30,31,32,33,34,35,36,37,38,39,40,41,42,43,44,45,46"/>
  <line x1="817" x2="817" y1="522" y2="497" class="net_15,16,17,18,19,20,21,22,23,24,25,26,27,28,29,30,31,32,33,34,35,36,37,38,39,40,41,42,43,44,45,46"/>
  <line x1="817" x2="543" y1="497" y2="497" class="net_15,16,17,18,19,20,21,22,23,24,25,26,27,28,29,30,31,32,33,34,35,36,37,38,39,40,41,42,43,44,45,46"/>
  <line x1="543" x2="543" y1="497" y2="512" class="net_15,16,17,18,19,20,21,22,23,24,25,26,27,28,29,30,31,32,33,34,35,36,37,38,39,40,41,42,43,44,45,46"/>
  <circle cx="817" cy="522" r="2" style="fill:#000" class="net_15,16,17,18,19,20,21,22,23,24,25,26,27,28,29,30,31,32,33,34,35,36,37,38,39,40,41,42,43,44,45,46"/>
  <line x1="543" x2="636.6666666666666" y1="512" y2="512" class="net_15,16,17,18,19,20,21,22,23,24,25,26,27,28,29,30,31,32,33,34,35,36,37,38,39,40,41,42,43,44,45,46"/>
  <line x1="807" x2="842" y1="522" y2="522" class="net_15,16,17,18,19,20,21,22,23,24,25,26,27,28,29,30,31,32,33,34,35,36,37,38,39,40,41,42,43,44,45,46"/>
  <line x1="42" x2="212" y1="928" y2="928" class="net_114"/>
  <line x1="212" x2="212" y1="928" y2="527" class="net_114"/>
  <circle cx="212" cy="928" r="2" style="fill:#000" class="net_114"/>
  <line x1="212" x2="636.6666666666666" y1="527" y2="527" class="net_114"/>
  <line x1="42" x2="52" y1="928" y2="928" class="net_114"/>
  <line x1="52" x2="52" y1="928" y2="192" class="net_114"/>
  <line x1="52" x2="1179" y1="192" y2="192" class="net_114"/>
  <line x1="1179" x2="1179" y1="192" y2="306" class="net_114"/>
  <circle cx="52" cy="928" r="2" style="fill:#000" class="net_114"/>
  <line x1="1179" x2="1238.6666666666667" y1="306" y2="306" class="net_114"/>
  <line x1="42" x2="52" y1="928" y2="928" class="net_114"/>
  <line x1="52" x2="52" y1="928" y2="192" class="net_114"/>
  <line x1="52" x2="192" y1="192" y2="192" class="net_114"/>
  <line x1="192" x2="192" y1="192" y2="150" class="net_114"/>
  <line x1="192" x2="1114" y1="150" y2="150" class="net_114"/>
  <line x1="1114" x2="1114" y1="150" y2="141" class="net_114"/>
  <circle cx="192" cy="150" r="2" style="fill:#000" class="net_114"/>
  <line x1="1114" x2="1142.3333333333333" y1="141" y2="141" class="net_114"/>
  <line x1="42" x2="212" y1="928" y2="928" class="net_114"/>
  <line x1="212" x2="212" y1="928" y2="832" class="net_114"/>
  <circle cx="212" cy="832" r="2" style="fill:#000" class="net_114"/>
  <line x1="212" x2="1238.6666666666667" y1="832" y2="832" class="net_114"/>
  <line x1="42" x2="52" y1="928" y2="928" class="net_114"/>
  <line x1="52" x2="52" y1="928" y2="486" class="net_114"/>
  <circle cx="52" cy="486" r="2" style="fill:#000" class="net_114"/>
  <line x1="52" x2="120" y1="486" y2="486" class="net_114"/>
  <line x1="42" x2="52" y1="928" y2="928" class="net_114"/>
  <line x1="52" x2="52" y1="928" y2="506" class="net_114"/>
  <circle cx="52" cy="506" r="2" style="fill:#000" class="net_114"/>
  <line x1="52" x2="120" y1="506" y2="506" class="net_114"/>
  <line x1="42" x2="1338" y1="928" y2="928" class="net_114"/>
  <line x1="42" x2="52" y1="928" y2="928" class="net_114"/>
  <line x1="52" x2="52" y1="928" y2="192" class="net_114"/>
  <line x1="52" x2="192" y1="192" y2="192" class="net_114"/>
  <line x1="192" x2="192" y1="192" y2="32" class="net_114"/>
  <circle cx="192" cy="192" r="2" style="fill:#000" class="net_114"/>
  <line x1="192" x2="1338" y1="32" y2="32" class="net_114"/>
  <line x1="847" x2="888" y1="512" y2="512" class="net_38,39,40"/>
  <line x1="888" x2="888" y1="512" y2="398" class="net_38,39,40"/>
  <line x1="888" x2="1033.5" y1="398" y2="398" class="net_38,39,40"/>
  <line x1="1064.5" x2="1124" y1="398" y2="398" class="net_79"/>
  <line x1="1124" x2="1124" y1="398" y2="451" class="net_79"/>
  <line x1="1124" x2="1139" y1="451" y2="451" class="net_79"/>
  <line x1="1061" x2="1139" y1="466" y2="466" class="net_80"/>
  <line x1="150" x2="202" y1="908" y2="908" class="net_116"/>
  <line x1="202" x2="202" y1="908" y2="326" class="net_116"/>
  <circle cx="202" cy="326" r="2" style="fill:#000" class="net_116"/>
  <line x1="202" x2="1238.6666666666667" y1="326" y2="326" class="net_116"/>
  <line x1="150" x2="202" y1="908" y2="908" class="net_116"/>
  <line x1="202" x2="202" y1="908" y2="161" class="net_116"/>
  <line x1="202" x2="1142.3333333333333" y1="161" y2="161" class="net_116"/>
  <line x1="150" x2="202" y1="908" y2="908" class="net_116"/>
  <line x1="202" x2="202" y1="908" y2="821" class="net_116"/>
  <line x1="202" x2="1179" y1="821" y2="821" class="net_116"/>
  <line x1="1179" x2="1179" y1="821" y2="812" class="net_116"/>
  <circle cx="202" cy="821" r="2" style="fill:#000" class="net_116"/>
  <line x1="1179" x2="1238.6666666666667" y1="812" y2="812" class="net_116"/>
  <line x1="150" x2="202" y1="908" y2="908" class="net_116"/>
  <line x1="202" x2="202" y1="908" y2="726" class="net_116"/>
  <circle cx="202" cy="726" r="2" style="fill:#000" class="net_116"/>
  <line x1="202" x2="423.3333333333333" y1="726" y2="726" class="net_116"/>
  <line x1="150" x2="202" y1="908" y2="908" class="net_116"/>
  <line x1="202" x2="202" y1="908" y2="377.5" class="net_116"/>
  <circle cx="202" cy="377.5" r="2" style="fill:#000" class="net_116"/>
  <line x1="202" x2="263" y1="377.5" y2="377.5" class="net_116"/>
  <line x1="1169" x2="1248.6666666666667" y1="458.5" y2="458.5" class="net_81"/>
  <line x1="1248.6666666666667" x2="1248.6666666666667" y1="458.5" y2="331" class="net_81"/>
  <line x1="151" x2="222" y1="486" y2="486" class="net_82"/>
  <line x1="222" x2="222" y1="486" y2="542" class="net_82"/>
  <circle cx="222" cy="486" r="2" style="fill:#000" class="net_82"/>
  <circle cx="222" cy="542" r="2" style="fill:#000" class="net_82"/>
  <line x1="222" x2="777" y1="542" y2="542" class="net_82"/>
  <line x1="151" x2="222" y1="486" y2="486" class="net_82"/>
  <line x1="222" x2="222" y1="486" y2="181" class="net_82"/>
  <circle cx="222" cy="181" r="2" style="fill:#000" class="net_82"/>
  <line x1="222" x2="1235.3333333333333" y1="181" y2="181" class="net_82"/>
  <line x1="151" x2="222" y1="486" y2="486" class="net_82"/>
  <line x1="222" x2="222" y1="486" y2="863" class="net_82"/>
  <line x1="222" x2="1338" y1="863" y2="863" class="net_82"/>
  <line x1="151" x2="1030" y1="486" y2="486" class="net_82"/>
  <line x1="151" x2="222" y1="486" y2="486" class="net_82"/>
  <line x1="222" x2="222" y1="486" y2="542" class="net_82"/>
  <line x1="222" x2="357" y1="542" y2="542" class="net_82"/>
  <line x1="357" x2="357" y1="542" y2="706" class="net_82"/>
  <circle cx="357" cy="542" r="2" style="fill:#000" class="net_82"/>
  <line x1="357" x2="423.3333333333333" y1="706" y2="706" class="net_82"/>
  <line x1="151" x2="222" y1="486" y2="486" class="net_82"/>
  <line x1="222" x2="222" y1="486" y2="357.5" class="net_82"/>
  <circle cx="222" cy="357.5" r="2" style="fill:#000" class="net_82"/>
  <line x1="222" x2="263" y1="357.5" y2="357.5" class="net_82"/>
  <line x1="151" x2="222" y1="486" y2="486" class="net_82"/>
  <line x1="222" x2="222" y1="486" y2="748.5" class="net_82"/>
  <circle cx="222" cy="748.5" r="2" style="fill:#000" class="net_82"/>
  <line x1="222" x2="631.5714285714286" y1="748.5" y2="748.5" class="net_82"/>
  <line x1="151" x2="222" y1="486" y2="486" class="net_82"/>
  <line x1="222" x2="222" y1="486" y2="400" class="net_82"/>
  <line x1="222" x2="357" y1="400" y2="400" class="net_82"/>
  <line x1="357" x2="357" y1="400" y2="391" class="net_82"/>
  <circle cx="222" cy="400" r="2" style="fill:#000" class="net_82"/>
  <line x1="357" x2="415" y1="391" y2="391" class="net_82"/>
  <line x1="151" x2="222" y1="486" y2="486" class="net_82"/>
  <line x1="222" x2="222" y1="486" y2="252.5" class="net_82"/>
  <line x1="222" x2="543" y1="252.5" y2="252.5" class="net_82"/>
  <line x1="543" x2="543" y1="252.5" y2="223.5" class="net_82"/>
  <circle cx="222" cy="252.5" r="2" style="fill:#000" class="net_82"/>
  <line x1="543" x2="626" y1="223.5" y2="223.5" class="net_82"/>
  <line x1="151" x2="222" y1="486" y2="486" class="net_82"/>
  <line x1="222" x2="222" y1="486" y2="92.5" class="net_82"/>
  <line x1="222" x2="1179" y1="92.5" y2="92.5" class="net_82"/>
  <line x1="1179" x2="1179" y1="92.5" y2="83.5" class="net_82"/>
  <line x1="1179" x2="1229" y1="83.5" y2="83.5" class="net_82"/>
  <line x1="658.6666666666666" x2="752" y1="519.5" y2="519.5" class="net_47,48,49,50,51,52,53,54,55,56,57,58,59,60,61,62,63,64,65,66,67,68,69,70,71,72,73,74,75,76,77,78"/>
  <line x1="752" x2="752" y1="519.5" y2="522" class="net_47,48,49,50,51,52,53,54,55,56,57,58,59,60,61,62,63,64,65,66,67,68,69,70,71,72,73,74,75,76,77,78"/>
  <line x1="752" x2="777" y1="522" y2="522" class="net_47,48,49,50,51,52,53,54,55,56,57,58,59,60,61,62,63,64,65,66,67,68,69,70,71,72,73,74,75,76,77,78"/>
  <line x1="657" x2="762" y1="223.5" y2="223.5" class="net_83"/>
  <line x1="762" x2="762" y1="223.5" y2="592" class="net_83"/>
  <line x1="762" x2="777" y1="592" y2="592" class="net_83"/>
  <line x1="662.5714285714286" x2="752" y1="688.5" y2="688.5" class="net_84"/>
  <line x1="752" x2="752" y1="688.5" y2="607" class="net_84"/>
  <line x1="752" x2="777" y1="607" y2="607" class="net_84"/>
  <line x1="446" x2="533" y1="391" y2="391" class="net_86"/>
  <line x1="533" x2="533" y1="391" y2="657" class="net_86"/>
  <circle cx="533" cy="391" r="2" style="fill:#000" class="net_86"/>
  <line x1="533" x2="777" y1="657" y2="657" class="net_86"/>
  <line x1="446" x2="533" y1="391" y2="391" class="net_86"/>
  <line x1="533" x2="533" y1="391" y2="303.5" class="net_86"/>
  <line x1="533" x2="626" y1="303.5" y2="303.5" class="net_86"/>
  <line x1="807" x2="817" y1="599.5" y2="599.5" class="net_85"/>
  <line x1="817" x2="817" y1="599.5" y2="642" class="net_85"/>
  <line x1="817" x2="844" y1="642" y2="642" class="net_85"/>
  <line x1="802" x2="844" y1="657" y2="657" class="net_87"/>
  <line x1="1368" x2="1408" y1="843" y2="843" class="net_89"/>
  <line x1="1408" x2="1408" y1="843" y2="565.5" class="net_89"/>
  <line x1="1408" x2="817" y1="565.5" y2="565.5" class="net_89"/>
  <line x1="817" x2="817" y1="565.5" y2="592" class="net_89"/>
  <circle cx="1408" cy="565.5" r="2" style="fill:#000" class="net_89"/>
  <line x1="817" x2="842" y1="592" y2="592" class="net_89"/>
  <line x1="1368" x2="1408" y1="843" y2="843" class="net_89"/>
  <line x1="1408" x2="1408" y1="843" y2="791" class="net_89"/>
  <line x1="1408" x2="543" y1="791" y2="791" class="net_89"/>
  <line x1="543" x2="543" y1="791" y2="728.5" class="net_89"/>
  <circle cx="1408" cy="791" r="2" style="fill:#000" class="net_89"/>
  <line x1="543" x2="631.5714285714286" y1="728.5" y2="728.5" class="net_89"/>
  <line x1="1368" x2="1408" y1="843" y2="843" class="net_89"/>
  <line x1="1408" x2="1408" y1="843" y2="52" class="net_89"/>
  <line x1="1408" x2="533" y1="52" y2="52" class="net_89"/>
  <line x1="533" x2="533" y1="52" y2="243.5" class="net_89"/>
  <line x1="533" x2="626" y1="243.5" y2="243.5" class="net_89"/>
  <line x1="874" x2="920.3333333333334" y1="649.5" y2="649.5" class="net_88"/>
  <line x1="867" x2="888" y1="592" y2="592" class="net_90"/>
  <line x1="888" x2="888" y1="592" y2="664.5" class="net_90"/>
  <line x1="888" x2="920.3333333333334" y1="664.5" y2="664.5" class="net_90"/>
  <line x1="847" x2="898" y1="532" y2="532" class="net_15,16,17,18,19,20,21,22,23,24,25,26,27,28,29,30,31,32,33"/>
  <line x1="898" x2="898" y1="532" y2="597" class="net_15,16,17,18,19,20,21,22,23,24,25,26,27,28,29,30,31,32,33"/>
  <line x1="898" x2="920" y1="597" y2="597" class="net_15,16,17,18,19,20,21,22,23,24,25,26,27,28,29,30,31,32,33"/>
  <line x1="950.3333333333334" x2="1032.3333333333335" y1="657" y2="657" class="net_91"/>
  <line x1="951" x2="968" y1="597" y2="597" class="net_92"/>
  <line x1="968" x2="968" y1="597" y2="672" class="net_92"/>
  <line x1="968" x2="1032.3333333333335" y1="672" y2="672" class="net_92"/>
  <line x1="1062.3333333333335" x2="1114" y1="664.5" y2="664.5" class="net_93"/>
  <line x1="1114" x2="1114" y1="664.5" y2="316" class="net_93"/>
  <line x1="1114" x2="1152.3333333333333" y1="316" y2="316" class="net_93"/>
  <circle cx="1114" cy="664.5" r="2" style="fill:#000" class="net_93"/>
  <line x1="1152.3333333333333" x2="1152.3333333333333" y1="316" y2="166" class="net_93"/>
  <line x1="1062.3333333333335" x2="1114" y1="664.5" y2="664.5" class="net_93"/>
  <line x1="1114" x2="1114" y1="664.5" y2="852" class="net_93"/>
  <line x1="1114" x2="1248.6666666666667" y1="852" y2="852" class="net_93"/>
  <line x1="1248.6666666666667" x2="1248.6666666666667" y1="852" y2="837" class="net_93"/>
  <line x1="1162.3333333333333" x2="1179" y1="151" y2="151" class="net_94"/>
  <line x1="1179" x2="1179" y1="151" y2="161" class="net_94"/>
  <line x1="1179" x2="1235.3333333333333" y1="161" y2="161" class="net_94"/>
  <line x1="1258.6666666666667" x2="1313" y1="822" y2="822" class="net_95"/>
  <line x1="1313" x2="1313" y1="822" y2="843" class="net_95"/>
  <line x1="1313" x2="1338" y1="843" y2="843" class="net_95"/>
  <line x1="950" x2="1030" y1="466" y2="466" class="net_123,124,125,126,127,128,129,130,131,132,133,134,135,136,137,138"/>
  <line x1="454.3333333333333" x2="533" y1="706" y2="706" class="net_96"/>
  <line x1="533" x2="533" y1="706" y2="688.5" class="net_96"/>
  <line x1="533" x2="631.5714285714286" y1="688.5" y2="688.5" class="net_96"/>
  <line x1="446" x2="523" y1="371" y2="371" class="net_98,99,100,101,102,103,104,105"/>
  <line x1="523" x2="523" y1="371" y2="708.5" class="net_98,99,100,101,102,103,104,105"/>
  <circle cx="523" cy="371" r="2" style="fill:#000" class="net_98,99,100,101,102,103,104,105"/>
  <line x1="523" x2="631.5714285714286" y1="708.5" y2="708.5" class="net_98,99,100,101,102,103,104,105"/>
  <line x1="446" x2="523" y1="371" y2="371" class="net_98,99,100,101,102,103,104,105"/>
  <line x1="523" x2="523" y1="371" y2="283.5" class="net_98,99,100,101,102,103,104,105"/>
  <circle cx="523" cy="283.5" r="2" style="fill:#000" class="net_98,99,100,101,102,103,104,105"/>
  <line x1="523" x2="626" y1="283.5" y2="283.5" class="net_98,99,100,101,102,103,104,105"/>
  <line x1="446" x2="523" y1="371" y2="371" class="net_98,99,100,101,102,103,104,105"/>
  <line x1="523" x2="523" y1="371" y2="103.5" class="net_98,99,100,101,102,103,104,105"/>
  <line x1="523" x2="1229" y1="103.5" y2="103.5" class="net_98,99,100,101,102,103,104,105"/>
  <line x1="347" x2="347" y1="411" y2="768.5" class="net_x"/>
  <circle cx="347" cy="411" r="2" style="fill:#000" class="net_x"/>
  <line x1="347" x2="631.5714285714286" y1="768.5" y2="768.5" class="net_x"/>
  <line x1="347" x2="415" y1="411" y2="411" class="net_x"/>
  <line x1="347" x2="347" y1="411" y2="263.5" class="net_x"/>
  <line x1="347" x2="626" y1="263.5" y2="263.5" class="net_x"/>
  <line x1="294" x2="357" y1="357.5" y2="357.5" class="net_97"/>
  <line x1="357" x2="357" y1="357.5" y2="371" class="net_97"/>
  <line x1="357" x2="415" y1="371" y2="371" class="net_97"/>
  <line x1="291" x2="357" y1="466" y2="466" class="net_2"/>
  <line x1="357" x2="357" y1="466" y2="431" class="net_2"/>
  <line x1="357" x2="415" y1="431" y2="431" class="net_2"/>
  <line x1="1265.3333333333333" x2="1338" y1="161" y2="161" class="net_3"/>
  <line x1="1258.6666666666667" x2="1338" y1="316" y2="316" class="net_4"/>
  <line x1="662.5714285714286" x2="1338" y1="708.5" y2="708.5" class="net_5"/>
  <line x1="1260" x2="1338" y1="83.5" y2="83.5" class="net_6,7,8,9,10,11,12,13,14"/>
</svg>
