<svg xmlns="http://www.w3.org/2000/svg" xmlns:xlink="http://www.w3.org/1999/xlink" xmlns:s="https://github.com/nturley/netlistsvg" width="730" height="584.5">
  <style>svg {
    stroke:#000;
    fill:none;
  }
  text {
    fill:#000;
    stroke:none;
    font-size:10px;
    font-weight: bold;
    font-family: "Courier New", monospace;
  }
  .nodelabel {
    text-anchor: middle;
  }
  .inputPortLabel {
    text-anchor: end;
  }
  .splitjoinBody {
    fill:#000;
  }</style>
  <g s:type="generic" transform="translate(86,256.5)" s:width="30" s:height="40" id="cell_\11">
    <text x="15" y="-4" class="nodelabel cell_\11" s:attribute="ref">$logic_not</text>
    <rect width="30" height="20" s:generic="body" class="cell_\11"/>
    <g transform="translate(0,10)" s:x="0" s:y="10" s:pid="in0" id="port_\11~A">
      <text x="-3" y="-4" class="inputPortLabel cell_\11">A</text>
    </g>
    <g transform="translate(30,10)" s:x="30" s:y="10" s:pid="out0" id="port_\11~Y">
      <text x="5" y="-4" style="fill:#000; stroke:none" class="cell_\11">Y</text>
    </g>
  </g>
  <g s:type="not" transform="translate(86.5,43)" s:width="30" s:height="20" id="cell_\13">
    <s:alias val="$_NOT_"/>
    <s:alias val="$not"/>
    <path d="M0,0 L0,20 L20,10 Z" class="cell_\13"/>
    <circle cx="23" cy="10" r="3" class="cell_\13"/>
    <g s:x="0" s:y="10" s:pid="A"/>
    <g s:x="25" s:y="10" s:pid="Y"/>
  </g>
  <g s:type="mux" transform="translate(410.3333333333333,206)" s:width="20" s:height="40" id="cell_\19">
    <s:alias val="$pmux"/>
    <s:alias val="$mux"/>
    <s:alias val="$_MUX_"/>
    <path d="M0,0 L20,10 L20,30 L0,40 Z" class="cell_\19"/>
    <g s:x="0" s:y="10" s:pid="A"/>
    <g s:x="0" s:y="30" s:pid="B"/>
    <g s:x="10" s:y="35" s:pid="S"/>
    <g s:x="20" s:y="20" s:pid="Y"/>
  </g>
  <g s:type="mux" transform="translate(413.6666666666667,478.5)" s:width="20" s:height="40" id="cell_\20">
    <s:alias val="$pmux"/>
    <s:alias val="$mux"/>
    <s:alias val="$_MUX_"/>
    <path d="M0,0 L20,10 L20,30 L0,40 Z" class="cell_\20"/>
    <g s:x="0" s:y="10" s:pid="A"/>
    <g s:x="0" s:y="30" s:pid="B"/>
    <g s:x="10" s:y="35" s:pid="S"/>
    <g s:x="20" s:y="20" s:pid="Y"/>
  </g>
  <g s:type="mux" transform="translate(166.33333333333334,43)" s:width="20" s:height="40" id="cell_\22">
    <s:alias val="$pmux"/>
    <s:alias val="$mux"/>
    <s:alias val="$_MUX_"/>
    <path d="M0,0 L20,10 L20,30 L0,40 Z" class="cell_\22"/>
    <g s:x="0" s:y="10" s:pid="A"/>
    <g s:x="0" s:y="30" s:pid="B"/>
    <g s:x="10" s:y="35" s:pid="S"/>
    <g s:x="20" s:y="20" s:pid="Y"/>
  </g>
  <g s:type="mux" transform="translate(483,468.5)" s:width="20" s:height="40" id="cell_\30">
    <s:alias val="$pmux"/>
    <s:alias val="$mux"/>
    <s:alias val="$_MUX_"/>
    <path d="M0,0 L20,10 L20,30 L0,40 Z" class="cell_\30"/>
    <g s:x="0" s:y="10" s:pid="A"/>
    <g s:x="0" s:y="30" s:pid="B"/>
    <g s:x="10" s:y="35" s:pid="S"/>
    <g s:x="20" s:y="20" s:pid="Y"/>
  </g>
  <g s:type="mux" transform="translate(254.66666666666666,33)" s:width="20" s:height="40" id="cell_\31">
    <s:alias val="$pmux"/>
    <s:alias val="$mux"/>
    <s:alias val="$_MUX_"/>
    <path d="M0,0 L20,10 L20,30 L0,40 Z" class="cell_\31"/>
    <g s:x="0" s:y="10" s:pid="A"/>
    <g s:x="0" s:y="30" s:pid="B"/>
    <g s:x="10" s:y="35" s:pid="S"/>
    <g s:x="20" s:y="20" s:pid="Y"/>
  </g>
  <g s:type="mux" transform="translate(482.6666666666667,124)" s:width="20" s:height="40" id="cell_\33">
    <s:alias val="$pmux"/>
    <s:alias val="$mux"/>
    <s:alias val="$_MUX_"/>
    <path d="M0,0 L20,10 L20,30 L0,40 Z" class="cell_\33"/>
    <g s:x="0" s:y="10" s:pid="A"/>
    <g s:x="0" s:y="30" s:pid="B"/>
    <g s:x="10" s:y="35" s:pid="S"/>
    <g s:x="20" s:y="20" s:pid="Y"/>
  </g>
  <g s:type="mux" transform="translate(545.3333333333334,373)" s:width="20" s:height="40" id="cell_\34">
    <s:alias val="$pmux"/>
    <s:alias val="$mux"/>
    <s:alias val="$_MUX_"/>
    <path d="M0,0 L20,10 L20,30 L0,40 Z" class="cell_\34"/>
    <g s:x="0" s:y="10" s:pid="A"/>
    <g s:x="0" s:y="30" s:pid="B"/>
    <g s:x="10" s:y="35" s:pid="S"/>
    <g s:x="20" s:y="20" s:pid="Y"/>
  </g>
  <g s:type="mux" transform="translate(343,43)" s:width="20" s:height="40" id="cell_\35">
    <s:alias val="$pmux"/>
    <s:alias val="$mux"/>
    <s:alias val="$_MUX_"/>
    <path d="M0,0 L20,10 L20,30 L0,40 Z" class="cell_\35"/>
    <g s:x="0" s:y="10" s:pid="A"/>
    <g s:x="0" s:y="30" s:pid="B"/>
    <g s:x="10" s:y="35" s:pid="S"/>
    <g s:x="20" s:y="20" s:pid="Y"/>
  </g>
  <g s:type="mux" transform="translate(545.3333333333334,134)" s:width="20" s:height="40" id="cell_\37">
    <s:alias val="$pmux"/>
    <s:alias val="$mux"/>
    <s:alias val="$_MUX_"/>
    <path d="M0,0 L20,10 L20,30 L0,40 Z" class="cell_\37"/>
    <g s:x="0" s:y="10" s:pid="A"/>
    <g s:x="0" s:y="30" s:pid="B"/>
    <g s:x="10" s:y="35" s:pid="S"/>
    <g s:x="20" s:y="20" s:pid="Y"/>
  </g>
  <g s:type="mux" transform="translate(610.3333333333334,383)" s:width="20" s:height="40" id="cell_\40">
    <s:alias val="$pmux"/>
    <s:alias val="$mux"/>
    <s:alias val="$_MUX_"/>
    <path d="M0,0 L20,10 L20,30 L0,40 Z" class="cell_\40"/>
    <g s:x="0" s:y="10" s:pid="A"/>
    <g s:x="0" s:y="30" s:pid="B"/>
    <g s:x="10" s:y="35" s:pid="S"/>
    <g s:x="20" s:y="20" s:pid="Y"/>
  </g>
  <g s:type="mux" transform="translate(410.3333333333333,53)" s:width="20" s:height="40" id="cell_\42">
    <s:alias val="$pmux"/>
    <s:alias val="$mux"/>
    <s:alias val="$_MUX_"/>
    <path d="M0,0 L20,10 L20,30 L0,40 Z" class="cell_\42"/>
    <g s:x="0" s:y="10" s:pid="A"/>
    <g s:x="0" s:y="30" s:pid="B"/>
    <g s:x="10" s:y="35" s:pid="S"/>
    <g s:x="20" s:y="20" s:pid="Y"/>
  </g>
  <g s:type="not" transform="translate(542,63)" s:width="30" s:height="20" id="cell_\43">
    <s:alias val="$_NOT_"/>
    <s:alias val="$not"/>
    <path d="M0,0 L0,20 L20,10 Z" class="cell_\43"/>
    <circle cx="23" cy="10" r="3" class="cell_\43"/>
    <g s:x="0" s:y="10" s:pid="A"/>
    <g s:x="25" s:y="10" s:pid="Y"/>
  </g>
  <g s:type="dff" transform="translate(607,63)" s:width="30" s:height="40" id="cell_\49">
    <s:alias val="$dff"/>
    <s:alias val="$_DFF_"/>
    <rect width="30" height="40" x="0" y="0" class="cell_\49"/>
    <path d="M0,35 L5,30 L0,25" class="cell_\49"/>
    <g s:x="30" s:y="10" s:pid="Q"/>
    <g s:x="0" s:y="30" s:pid="CLK"/>
    <g s:x="0" s:y="10" s:pid="D"/>
  </g>
  <g s:type="dff" transform="translate(607,144)" s:width="30" s:height="40" id="cell_\50">
    <s:alias val="$dff"/>
    <s:alias val="$_DFF_"/>
    <rect width="30" height="40" x="0" y="0" class="cell_\50"/>
    <path d="M0,35 L5,30 L0,25" class="cell_\50"/>
    <g s:x="30" s:y="10" s:pid="Q"/>
    <g s:x="0" s:y="30" s:pid="CLK"/>
    <g s:x="0" s:y="10" s:pid="D"/>
  </g>
  <g s:type="dff" transform="translate(672,393)" s:width="30" s:height="40" id="cell_\51">
    <s:alias val="$dff"/>
    <s:alias val="$_DFF_"/>
    <rect width="30" height="40" x="0" y="0" class="cell_\51"/>
    <path d="M0,35 L5,30 L0,25" class="cell_\51"/>
    <g s:x="30" s:y="10" s:pid="Q"/>
    <g s:x="0" s:y="30" s:pid="CLK"/>
    <g s:x="0" s:y="10" s:pid="D"/>
  </g>
  <g s:type="dff" transform="translate(477,63)" s:width="30" s:height="40" id="cell_\52">
    <s:alias val="$dff"/>
    <s:alias val="$_DFF_"/>
    <rect width="30" height="40" x="0" y="0" class="cell_\52"/>
    <path d="M0,35 L5,30 L0,25" class="cell_\52"/>
    <g s:x="30" s:y="10" s:pid="Q"/>
    <g s:x="0" s:y="30" s:pid="CLK"/>
    <g s:x="0" s:y="10" s:pid="D"/>
  </g>
  <g s:type="inputExt" transform="translate(407,287)" s:width="30" s:height="20" id="cell_mclk">
    <text x="15" y="-4" class="nodelabel cell_mclk" s:attribute="ref">mclk</text>
    <s:alias val="$_inputExt_"/>
    <path d="M0,0 L0,20 L15,20 L30,10 L15,0 Z" class="cell_mclk"/>
    <g s:x="28" s:y="10" s:pid="Y"/>
  </g>
  <g s:type="inputExt" transform="translate(337,353)" s:width="30" s:height="20" id="cell_reset">
    <text x="15" y="-4" class="nodelabel cell_reset" s:attribute="ref">reset</text>
    <s:alias val="$_inputExt_"/>
    <path d="M0,0 L0,20 L15,20 L30,10 L15,0 Z" class="cell_reset"/>
    <g s:x="28" s:y="10" s:pid="Y"/>
  </g>
  <g s:type="inputExt" transform="translate(159,288)" s:width="30" s:height="20" id="cell_baud_x1">
    <text x="15" y="-4" class="nodelabel cell_baud_x1" s:attribute="ref">baud_x1</text>
    <s:alias val="$_inputExt_"/>
    <path d="M0,0 L0,20 L15,20 L30,10 L15,0 Z" class="cell_baud_x1"/>
    <g s:x="28" s:y="10" s:pid="Y"/>
  </g>
  <g s:type="inputExt" transform="translate(407,414)" s:width="30" s:height="20" id="cell_data">
    <text x="15" y="-4" class="nodelabel cell_data" s:attribute="ref">data</text>
    <s:alias val="$_inputExt_"/>
    <path d="M0,0 L0,20 L15,20 L30,10 L15,0 Z" class="cell_data"/>
    <g s:x="28" s:y="10" s:pid="Y"/>
  </g>
  <g s:type="inputExt" transform="translate(236,175)" s:width="30" s:height="20" id="cell_data_strobe">
    <text x="15" y="-4" class="nodelabel cell_data_strobe" s:attribute="ref">data_strobe</text>
    <s:alias val="$_inputExt_"/>
    <path d="M0,0 L0,20 L15,20 L30,10 L15,0 Z" class="cell_data_strobe"/>
    <g s:x="28" s:y="10" s:pid="Y"/>
  </g>
  <g s:type="outputExt" transform="translate(672,63)" s:width="30" s:height="20" id="cell_serial">
    <text x="15" y="-4" class="nodelabel cell_serial" s:attribute="ref">serial</text>
    <s:alias val="$_outputExt_"/>
    <path d="M30,0 L30,20 L15,20 L0,10 L15,0 Z" class="cell_serial"/>
    <g s:x="0" s:y="10" s:pid="A"/>
  </g>
  <g s:type="outputExt" transform="translate(672,144)" s:width="30" s:height="20" id="cell_ready">
    <text x="15" y="-4" class="nodelabel cell_ready" s:attribute="ref">ready</text>
    <s:alias val="$_outputExt_"/>
    <path d="M30,0 L30,20 L15,20 L0,10 L15,0 Z" class="cell_ready"/>
    <g s:x="0" s:y="10" s:pid="A"/>
  </g>
  <g s:type="constant" transform="translate(86,144)" s:width="30" s:height="20" id="cell_0">
    <text x="15" y="-4" class="nodelabel cell_0" s:attribute="ref">0</text>
    <s:alias val="$_constant_"/>
    <rect width="30" height="20" class="cell_0"/>
    <g s:x="30" s:y="10" s:pid="Y"/>
  </g>
  <g s:type="constant" transform="translate(337,288)" s:width="30" s:height="20" id="cell_1">
    <text x="15" y="-4" class="nodelabel cell_1" s:attribute="ref">1</text>
    <s:alias val="$_constant_"/>
    <rect width="30" height="20" class="cell_1"/>
    <g s:x="30" s:y="10" s:pid="Y"/>
  </g>
  <g s:type="constant" transform="translate(542,475)" s:width="30" s:height="20" id="cell_0000000000">
    <text x="15" y="-4" class="nodelabel cell_0000000000" s:attribute="ref">0x0</text>
    <s:alias val="$_constant_"/>
    <rect width="30" height="20" class="cell_0000000000"/>
    <g s:x="30" s:y="10" s:pid="Y"/>
  </g>
  <g s:type="join" transform="translate(356,468)" s:width="4" s:height="40" id="cell_$join$,17,18,19,20,21,22,23,24,25,77,">
    <rect width="5" height="40" class="splitjoinBody" s:generic="body"/>
    <s:alias val="$_join_"/>
    <g s:x="5" s:y="20" s:pid="out"/>
    <g transform="translate(0,10)" s:x="0" s:y="10" s:pid="in0">
      <text x="-3" y="-4" class="inputPortLabel">0:8</text>
    </g>
    <g transform="translate(0,30)" s:x="0" s:y="10" s:pid="in0">
      <text x="-3" y="-4" class="inputPortLabel">9</text>
    </g>
  </g>
  <g s:type="join" transform="translate(487,382.5)" s:width="4" s:height="40" id="cell_$join$,77,5,6,7,8,9,10,11,12,78,">
    <rect width="5" height="60" class="splitjoinBody" s:generic="body"/>
    <s:alias val="$_join_"/>
    <g s:x="5" s:y="20" s:pid="out"/>
    <g transform="translate(0,10)" s:x="0" s:y="10" s:pid="in0">
      <text x="-3" y="-4" class="inputPortLabel">0</text>
    </g>
    <g transform="translate(0,30)" s:x="0" s:y="10" s:pid="in0">
      <text x="-3" y="-4" class="inputPortLabel">1:8</text>
    </g>
    <g transform="translate(0,50)" s:x="0" s:y="10" s:pid="in0">
      <text x="-3" y="-4" class="inputPortLabel">9</text>
    </g>
  </g>
  <g s:type="split" transform="translate(32,42.5)" s:width="5" s:height="40" id="cell_$split$,16,17,18,19,20,21,22,23,24,25,">
    <rect width="5" height="40" class="splitjoinBody" s:generic="body"/>
    <s:alias val="$_split_"/>
    <g s:x="0" s:y="20" s:pid="in"/>
    <g transform="translate(4,10)" s:x="4" s:y="10" s:pid="out0">
      <text x="5" y="-4">0</text>
    </g>
    <g transform="translate(4,30)" s:x="4" s:y="10" s:pid="out0">
      <text x="5" y="-4">1:9</text>
    </g>
  </g>
  <line x1="702" x2="718" y1="403" y2="403" class="net_16,17,18,19,20,21,22,23,24,25"/>
  <line x1="718" x2="718" y1="403" y2="12" class="net_16,17,18,19,20,21,22,23,24,25"/>
  <line x1="718" x2="64" y1="12" y2="12" class="net_16,17,18,19,20,21,22,23,24,25"/>
  <line x1="64" x2="64" y1="12" y2="267" class="net_16,17,18,19,20,21,22,23,24,25"/>
  <circle cx="64" cy="12" r="2" style="fill:#000" class="net_16,17,18,19,20,21,22,23,24,25"/>
  <circle cx="718" cy="403" r="2" style="fill:#000" class="net_16,17,18,19,20,21,22,23,24,25"/>
  <line x1="64" x2="86" y1="267" y2="267" class="net_16,17,18,19,20,21,22,23,24,25"/>
  <line x1="702" x2="718" y1="403" y2="403" class="net_16,17,18,19,20,21,22,23,24,25"/>
  <line x1="718" x2="718" y1="403" y2="560.5" class="net_16,17,18,19,20,21,22,23,24,25"/>
  <line x1="718" x2="397" y1="560.5" y2="560.5" class="net_16,17,18,19,20,21,22,23,24,25"/>
  <line x1="397" x2="397" y1="560.5" y2="508.5" class="net_16,17,18,19,20,21,22,23,24,25"/>
  <line x1="397" x2="413.6666666666667" y1="508.5" y2="508.5" class="net_16,17,18,19,20,21,22,23,24,25"/>
  <line x1="702" x2="718" y1="403" y2="403" class="net_16,17,18,19,20,21,22,23,24,25"/>
  <line x1="718" x2="718" y1="403" y2="560.5" class="net_16,17,18,19,20,21,22,23,24,25"/>
  <line x1="718" x2="447" y1="560.5" y2="560.5" class="net_16,17,18,19,20,21,22,23,24,25"/>
  <line x1="447" x2="447" y1="560.5" y2="478.5" class="net_16,17,18,19,20,21,22,23,24,25"/>
  <circle cx="447" cy="560.5" r="2" style="fill:#000" class="net_16,17,18,19,20,21,22,23,24,25"/>
  <line x1="447" x2="483" y1="478.5" y2="478.5" class="net_16,17,18,19,20,21,22,23,24,25"/>
  <line x1="702" x2="718" y1="403" y2="403" class="net_16,17,18,19,20,21,22,23,24,25"/>
  <line x1="718" x2="718" y1="403" y2="12" class="net_16,17,18,19,20,21,22,23,24,25"/>
  <line x1="718" x2="12" y1="12" y2="12" class="net_16,17,18,19,20,21,22,23,24,25"/>
  <line x1="12" x2="12" y1="12" y2="63" class="net_16,17,18,19,20,21,22,23,24,25"/>
  <line x1="12" x2="32" y1="63" y2="63" class="net_16,17,18,19,20,21,22,23,24,25"/>
  <line x1="37" x2="86.5" y1="53" y2="53" class="net_16"/>
  <line x1="116" x2="221" y1="154" y2="154" class="net_77"/>
  <line x1="221" x2="221" y1="154" y2="216" class="net_77"/>
  <circle cx="221" cy="154" r="2" style="fill:#000" class="net_77"/>
  <line x1="221" x2="410.3333333333333" y1="216" y2="216" class="net_77"/>
  <line x1="116" x2="144" y1="154" y2="154" class="net_77"/>
  <line x1="144" x2="144" y1="154" y2="73" class="net_77"/>
  <circle cx="144" cy="154" r="2" style="fill:#000" class="net_77"/>
  <line x1="144" x2="166.33333333333334" y1="73" y2="73" class="net_77"/>
  <line x1="116" x2="482.6666666666667" y1="154" y2="154" class="net_77"/>
  <line x1="116" x2="221" y1="154" y2="154" class="net_77"/>
  <line x1="221" x2="221" y1="154" y2="216" class="net_77"/>
  <line x1="221" x2="397" y1="216" y2="216" class="net_77"/>
  <line x1="397" x2="397" y1="216" y2="256" class="net_77"/>
  <line x1="397" x2="517" y1="256" y2="256" class="net_77"/>
  <line x1="517" x2="517" y1="256" y2="164" class="net_77"/>
  <circle cx="397" cy="216" r="2" style="fill:#000" class="net_77"/>
  <line x1="517" x2="545.3333333333334" y1="164" y2="164" class="net_77"/>
  <line x1="116" x2="377" y1="154" y2="154" class="net_77"/>
  <line x1="377" x2="377" y1="154" y2="83" class="net_77"/>
  <circle cx="377" cy="154" r="2" style="fill:#000" class="net_77"/>
  <line x1="377" x2="410.3333333333333" y1="83" y2="83" class="net_77"/>
  <line x1="116" x2="144" y1="154" y2="154" class="net_77"/>
  <line x1="144" x2="144" y1="154" y2="498.5" class="net_77"/>
  <line x1="144" x2="356" y1="498.5" y2="498.5" class="net_77"/>
  <line x1="116" x2="144" y1="154" y2="154" class="net_77"/>
  <line x1="144" x2="144" y1="154" y2="393" class="net_77"/>
  <circle cx="144" cy="393" r="2" style="fill:#000" class="net_77"/>
  <line x1="144" x2="487" y1="393" y2="393" class="net_77"/>
  <line x1="367" x2="387" y1="298" y2="298" class="net_78"/>
  <line x1="387" x2="387" y1="298" y2="236" class="net_78"/>
  <circle cx="387" cy="298" r="2" style="fill:#000" class="net_78"/>
  <line x1="387" x2="410.3333333333333" y1="236" y2="236" class="net_78"/>
  <line x1="367" x2="387" y1="298" y2="298" class="net_78"/>
  <line x1="387" x2="387" y1="298" y2="444" class="net_78"/>
  <line x1="387" x2="447" y1="444" y2="444" class="net_78"/>
  <line x1="447" x2="447" y1="444" y2="433" class="net_78"/>
  <line x1="447" x2="487" y1="433" y2="433" class="net_78"/>
  <line x1="117" x2="420.3333333333333" y1="267" y2="267" class="net_26"/>
  <line x1="420.3333333333333" x2="420.3333333333333" y1="267" y2="241" class="net_26"/>
  <line x1="117" x2="134" y1="267" y2="267" class="net_26"/>
  <line x1="134" x2="134" y1="267" y2="528.5" class="net_26"/>
  <line x1="134" x2="423.6666666666667" y1="528.5" y2="528.5" class="net_26"/>
  <circle cx="134" cy="267" r="2" style="fill:#000" class="net_26"/>
  <line x1="423.6666666666667" x2="423.6666666666667" y1="528.5" y2="513.5" class="net_26"/>
  <line x1="117" x2="134" y1="267" y2="267" class="net_26"/>
  <line x1="134" x2="134" y1="267" y2="257" class="net_26"/>
  <line x1="134" x2="176.33333333333334" y1="257" y2="257" class="net_26"/>
  <line x1="176.33333333333334" x2="176.33333333333334" y1="257" y2="78" class="net_26"/>
  <line x1="362" x2="413.6666666666667" y1="488.5" y2="488.5" class="net_17,18,19,20,21,22,23,24,25,77"/>
  <line x1="111.5" x2="166.33333333333334" y1="53" y2="53" class="net_27"/>
  <line x1="433.6666666666667" x2="483" y1="498.5" y2="498.5" class="net_29,30,31,32,33,34,35,36,37,38"/>
  <line x1="187" x2="211" y1="298" y2="298" class="net_4"/>
  <line x1="211" x2="211" y1="298" y2="539.5" class="net_4"/>
  <line x1="211" x2="493" y1="539.5" y2="539.5" class="net_4"/>
  <circle cx="211" cy="298" r="2" style="fill:#000" class="net_4"/>
  <line x1="493" x2="493" y1="539.5" y2="503.5" class="net_4"/>
  <line x1="187" x2="211" y1="298" y2="298" class="net_4"/>
  <line x1="211" x2="211" y1="298" y2="83" class="net_4"/>
  <line x1="211" x2="264.66666666666663" y1="83" y2="83" class="net_4"/>
  <line x1="264.66666666666663" x2="264.66666666666663" y1="83" y2="68" class="net_4"/>
  <line x1="507" x2="517" y1="73" y2="73" class="net_50"/>
  <line x1="517" x2="517" y1="73" y2="23" class="net_50"/>
  <line x1="517" x2="221" y1="23" y2="23" class="net_50"/>
  <line x1="221" x2="221" y1="23" y2="43" class="net_50"/>
  <circle cx="517" cy="73" r="2" style="fill:#000" class="net_50"/>
  <line x1="221" x2="254.66666666666666" y1="43" y2="43" class="net_50"/>
  <line x1="507" x2="517" y1="73" y2="73" class="net_50"/>
  <line x1="517" x2="517" y1="73" y2="23" class="net_50"/>
  <line x1="517" x2="312" y1="23" y2="23" class="net_50"/>
  <line x1="312" x2="312" y1="23" y2="73" class="net_50"/>
  <circle cx="312" cy="23" r="2" style="fill:#000" class="net_50"/>
  <line x1="312" x2="343" y1="73" y2="73" class="net_50"/>
  <line x1="507" x2="542" y1="73" y2="73" class="net_50"/>
  <line x1="186.33333333333334" x2="254.66666666666666" y1="63" y2="63" class="net_39"/>
  <line x1="430.3333333333333" x2="467" y1="226" y2="226" class="net_28"/>
  <line x1="467" x2="467" y1="226" y2="134" class="net_28"/>
  <line x1="467" x2="482.6666666666667" y1="134" y2="134" class="net_28"/>
  <line x1="264" x2="492.6666666666667" y1="185" y2="185" class="net_13"/>
  <line x1="492.6666666666667" x2="492.6666666666667" y1="185" y2="159" class="net_13"/>
  <line x1="264" x2="312" y1="185" y2="185" class="net_13"/>
  <line x1="312" x2="312" y1="185" y2="455" class="net_13"/>
  <line x1="312" x2="555.3333333333334" y1="455" y2="455" class="net_13"/>
  <circle cx="312" cy="185" r="2" style="fill:#000" class="net_13"/>
  <line x1="555.3333333333334" x2="555.3333333333334" y1="455" y2="408" class="net_13"/>
  <line x1="264" x2="312" y1="185" y2="185" class="net_13"/>
  <line x1="312" x2="312" y1="185" y2="175" class="net_13"/>
  <line x1="312" x2="353" y1="175" y2="175" class="net_13"/>
  <line x1="353" x2="353" y1="175" y2="78" class="net_13"/>
  <line x1="503" x2="517" y1="488.5" y2="488.5" class="net_40,41,42,43,44,45,46,47,48,49"/>
  <line x1="517" x2="517" y1="488.5" y2="383" class="net_40,41,42,43,44,45,46,47,48,49"/>
  <line x1="517" x2="545.3333333333334" y1="383" y2="383" class="net_40,41,42,43,44,45,46,47,48,49"/>
  <line x1="493" x2="545.3333333333334" y1="403" y2="403" class="net_77,5,6,7,8,9,10,11,12,78"/>
  <line x1="274.66666666666663" x2="343" y1="53" y2="53" class="net_51"/>
  <line x1="502.6666666666667" x2="545.3333333333334" y1="144" y2="144" class="net_52"/>
  <line x1="365" x2="555.3333333333334" y1="363" y2="363" class="net_3"/>
  <line x1="555.3333333333334" x2="555.3333333333334" y1="363" y2="169" class="net_3"/>
  <line x1="365" x2="377" y1="363" y2="363" class="net_3"/>
  <line x1="377" x2="377" y1="363" y2="571.5" class="net_3"/>
  <line x1="377" x2="620.3333333333334" y1="571.5" y2="571.5" class="net_3"/>
  <circle cx="377" cy="363" r="2" style="fill:#000" class="net_3"/>
  <line x1="620.3333333333334" x2="620.3333333333334" y1="571.5" y2="418" class="net_3"/>
  <line x1="365" x2="377" y1="363" y2="363" class="net_3"/>
  <line x1="377" x2="377" y1="363" y2="196" class="net_3"/>
  <line x1="377" x2="420.3333333333333" y1="196" y2="196" class="net_3"/>
  <line x1="420.3333333333333" x2="420.3333333333333" y1="196" y2="88" class="net_3"/>
  <line x1="565.3333333333334" x2="610.3333333333334" y1="393" y2="393" class="net_53,54,55,56,57,58,59,60,61,62"/>
  <line x1="572" x2="582" y1="485" y2="485" class="net_85,86,87,88,89,90,91,92,93,94"/>
  <line x1="582" x2="582" y1="485" y2="413" class="net_85,86,87,88,89,90,91,92,93,94"/>
  <line x1="582" x2="610.3333333333334" y1="413" y2="413" class="net_85,86,87,88,89,90,91,92,93,94"/>
  <line x1="363" x2="410.3333333333333" y1="63" y2="63" class="net_63"/>
  <line x1="435" x2="457" y1="297" y2="297" class="net_2"/>
  <line x1="457" x2="457" y1="297" y2="113" class="net_2"/>
  <line x1="457" x2="582" y1="113" y2="113" class="net_2"/>
  <line x1="582" x2="582" y1="113" y2="93" class="net_2"/>
  <circle cx="457" cy="297" r="2" style="fill:#000" class="net_2"/>
  <circle cx="457" cy="113" r="2" style="fill:#000" class="net_2"/>
  <line x1="582" x2="607" y1="93" y2="93" class="net_2"/>
  <line x1="435" x2="582" y1="297" y2="297" class="net_2"/>
  <line x1="582" x2="582" y1="297" y2="174" class="net_2"/>
  <line x1="582" x2="607" y1="174" y2="174" class="net_2"/>
  <line x1="435" x2="457" y1="297" y2="297" class="net_2"/>
  <line x1="457" x2="457" y1="297" y2="549.5" class="net_2"/>
  <line x1="457" x2="647" y1="549.5" y2="549.5" class="net_2"/>
  <line x1="647" x2="647" y1="549.5" y2="423" class="net_2"/>
  <line x1="647" x2="672" y1="423" y2="423" class="net_2"/>
  <line x1="435" x2="457" y1="297" y2="297" class="net_2"/>
  <line x1="457" x2="457" y1="297" y2="93" class="net_2"/>
  <line x1="457" x2="477" y1="93" y2="93" class="net_2"/>
  <line x1="567" x2="607" y1="73" y2="73" class="net_76"/>
  <line x1="565.3333333333334" x2="607" y1="154" y2="154" class="net_64"/>
  <line x1="630.3333333333334" x2="672" y1="403" y2="403" class="net_65,66,67,68,69,70,71,72,73,74"/>
  <line x1="430.3333333333333" x2="477" y1="73" y2="73" class="net_75"/>
  <line x1="637" x2="672" y1="73" y2="73" class="net_14"/>
  <line x1="637" x2="672" y1="154" y2="154" class="net_15"/>
  <line x1="37" x2="54" y1="73" y2="73" class="net_17,18,19,20,21,22,23,24,25"/>
  <line x1="54" x2="54" y1="73" y2="478.5" class="net_17,18,19,20,21,22,23,24,25"/>
  <line x1="54" x2="356" y1="478.5" y2="478.5" class="net_17,18,19,20,21,22,23,24,25"/>
  <line x1="435" x2="447" y1="424" y2="424" class="net_5,6,7,8,9,10,11,12"/>
  <line x1="447" x2="447" y1="424" y2="413" class="net_5,6,7,8,9,10,11,12"/>
  <line x1="447" x2="487" y1="413" y2="413" class="net_5,6,7,8,9,10,11,12"/>
</svg>
