<svg xmlns="http://www.w3.org/2000/svg" xmlns:xlink="http://www.w3.org/1999/xlink" xmlns:s="https://github.com/nturley/netlistsvg" width="1158" height="895.5">
  <style>svg {
    stroke:#000;
    fill:none;
  }
  text {
    fill:#000;
    stroke:none;
    font-size:10px;
    font-weight: bold;
    font-family: "Courier New", monospace;
  }
  .nodelabel {
    text-anchor: middle;
  }
  .inputPortLabel {
    text-anchor: end;
  }
  .splitjoinBody {
    fill:#000;
  }</style>
  <g s:type="eq" transform="translate(98.66666666666667,796.5)" s:width="25" s:height="25" id="cell_\11">
    <s:alias val="$eq"/>
    <circle r="12.5" cx="12.5" cy="12.5" class="cell_\11"/>
    <line x1="7.5" x2="17.5" y1="10" y2="10" class="cell_\11"/>
    <line x1="7.5" x2="17.5" y1="15" y2="15" class="cell_\11"/>
    <g s:x="3" s:y="5" s:pid="A"/>
    <g s:x="3" s:y="20" s:pid="B"/>
    <g s:x="25" s:y="12.5" s:pid="Y"/>
  </g>
  <g s:type="mux" transform="translate(197.66666666666666,644.5)" s:width="20" s:height="40" id="cell_\14">
    <s:alias val="$pmux"/>
    <s:alias val="$mux"/>
    <s:alias val="$_MUX_"/>
    <path d="M0,0 L20,10 L20,30 L0,40 Z" class="cell_\14"/>
    <g s:x="0" s:y="10" s:pid="A"/>
    <g s:x="0" s:y="30" s:pid="B"/>
    <g s:x="10" s:y="35" s:pid="S"/>
    <g s:x="20" s:y="20" s:pid="Y"/>
  </g>
  <g s:type="generic" transform="translate(194,436.5)" s:width="30" s:height="40" id="cell_\16">
    <text x="15" y="-4" class="nodelabel cell_\16" s:attribute="ref">$logic_not</text>
    <rect width="30" height="20" s:generic="body" class="cell_\16"/>
    <g transform="translate(0,10)" s:x="0" s:y="10" s:pid="in0" id="port_\16~A">
      <text x="-3" y="-4" class="inputPortLabel cell_\16">A</text>
    </g>
    <g transform="translate(30,10)" s:x="30" s:y="10" s:pid="out0" id="port_\16~Y">
      <text x="5" y="-4" style="fill:#000; stroke:none" class="cell_\16">Y</text>
    </g>
  </g>
  <g s:type="and" transform="translate(321.3333333333333,442)" s:width="30" s:height="25" id="cell_\17">
    <s:alias val="$and"/>
    <s:alias val="$logic_and"/>
    <s:alias val="$_AND_"/>
    <path d="M0,0 L0,25 L15,25 A15 12.5 0 0 0 15,0 Z" class="cell_\17"/>
    <g s:x="0" s:y="5" s:pid="A"/>
    <g s:x="0" s:y="20" s:pid="B"/>
    <g s:x="30" s:y="12.5" s:pid="Y"/>
  </g>
  <g s:type="mux" transform="translate(446.3333333333333,385.5)" s:width="20" s:height="40" id="cell_\20">
    <s:alias val="$pmux"/>
    <s:alias val="$mux"/>
    <s:alias val="$_MUX_"/>
    <path d="M0,0 L20,10 L20,30 L0,40 Z" class="cell_\20"/>
    <g s:x="0" s:y="10" s:pid="A"/>
    <g s:x="0" s:y="30" s:pid="B"/>
    <g s:x="10" s:y="35" s:pid="S"/>
    <g s:x="20" s:y="20" s:pid="Y"/>
  </g>
  <g s:type="eq" transform="translate(196,766.5)" s:width="25" s:height="25" id="cell_\22">
    <s:alias val="$eq"/>
    <circle r="12.5" cx="12.5" cy="12.5" class="cell_\22"/>
    <line x1="7.5" x2="17.5" y1="10" y2="10" class="cell_\22"/>
    <line x1="7.5" x2="17.5" y1="15" y2="15" class="cell_\22"/>
    <g s:x="3" s:y="5" s:pid="A"/>
    <g s:x="3" s:y="20" s:pid="B"/>
    <g s:x="25" s:y="12.5" s:pid="Y"/>
  </g>
  <g s:type="and" transform="translate(321.3333333333333,774)" s:width="30" s:height="25" id="cell_\23">
    <s:alias val="$and"/>
    <s:alias val="$logic_and"/>
    <s:alias val="$_AND_"/>
    <path d="M0,0 L0,25 L15,25 A15 12.5 0 0 0 15,0 Z" class="cell_\23"/>
    <g s:x="0" s:y="5" s:pid="A"/>
    <g s:x="0" s:y="20" s:pid="B"/>
    <g s:x="30" s:y="12.5" s:pid="Y"/>
  </g>
  <g s:type="mux" transform="translate(446.3333333333333,464.5)" s:width="20" s:height="40" id="cell_\26">
    <s:alias val="$pmux"/>
    <s:alias val="$mux"/>
    <s:alias val="$_MUX_"/>
    <path d="M0,0 L20,10 L20,30 L0,40 Z" class="cell_\26"/>
    <g s:x="0" s:y="10" s:pid="A"/>
    <g s:x="0" s:y="30" s:pid="B"/>
    <g s:x="10" s:y="35" s:pid="S"/>
    <g s:x="20" s:y="20" s:pid="Y"/>
  </g>
  <g s:type="generic" transform="translate(520,253.5)" s:width="30" s:height="40" id="cell_\28">
    <text x="15" y="-4" class="nodelabel cell_\28" s:attribute="ref">$logic_not</text>
    <rect width="30" height="20" s:generic="body" class="cell_\28"/>
    <g transform="translate(0,10)" s:x="0" s:y="10" s:pid="in0" id="port_\28~A">
      <text x="-3" y="-4" class="inputPortLabel cell_\28">A</text>
    </g>
    <g transform="translate(30,10)" s:x="30" s:y="10" s:pid="out0" id="port_\28~Y">
      <text x="5" y="-4" style="fill:#000; stroke:none" class="cell_\28">Y</text>
    </g>
  </g>
  <g s:type="and" transform="translate(593,319.5)" s:width="30" s:height="25" id="cell_\29">
    <s:alias val="$and"/>
    <s:alias val="$logic_and"/>
    <s:alias val="$_AND_"/>
    <path d="M0,0 L0,25 L15,25 A15 12.5 0 0 0 15,0 Z" class="cell_\29"/>
    <g s:x="0" s:y="5" s:pid="A"/>
    <g s:x="0" s:y="20" s:pid="B"/>
    <g s:x="30" s:y="12.5" s:pid="Y"/>
  </g>
  <g s:type="mux" transform="translate(658,202.5)" s:width="20" s:height="40" id="cell_\32">
    <s:alias val="$pmux"/>
    <s:alias val="$mux"/>
    <s:alias val="$_MUX_"/>
    <path d="M0,0 L20,10 L20,30 L0,40 Z" class="cell_\32"/>
    <g s:x="0" s:y="10" s:pid="A"/>
    <g s:x="0" s:y="30" s:pid="B"/>
    <g s:x="10" s:y="35" s:pid="S"/>
    <g s:x="20" s:y="20" s:pid="Y"/>
  </g>
  <g s:type="and" transform="translate(520.3333333333333,400.5)" s:width="30" s:height="25" id="cell_\33">
    <s:alias val="$and"/>
    <s:alias val="$logic_and"/>
    <s:alias val="$_AND_"/>
    <path d="M0,0 L0,25 L15,25 A15 12.5 0 0 0 15,0 Z" class="cell_\33"/>
    <g s:x="0" s:y="5" s:pid="A"/>
    <g s:x="0" s:y="20" s:pid="B"/>
    <g s:x="30" s:y="12.5" s:pid="Y"/>
  </g>
  <g s:type="not" transform="translate(443,524.5)" s:width="30" s:height="20" id="cell_\34">
    <s:alias val="$_NOT_"/>
    <s:alias val="$not"/>
    <path d="M0,0 L0,20 L20,10 Z" class="cell_\34"/>
    <circle cx="23" cy="10" r="3" class="cell_\34"/>
    <g s:x="0" s:y="10" s:pid="A"/>
    <g s:x="25" s:y="10" s:pid="Y"/>
  </g>
  <g s:type="and" transform="translate(520.3333333333333,479.5)" s:width="30" s:height="25" id="cell_\35">
    <s:alias val="$and"/>
    <s:alias val="$logic_and"/>
    <s:alias val="$_AND_"/>
    <path d="M0,0 L0,25 L15,25 A15 12.5 0 0 0 15,0 Z" class="cell_\35"/>
    <g s:x="0" s:y="5" s:pid="A"/>
    <g s:x="0" s:y="20" s:pid="B"/>
    <g s:x="30" s:y="12.5" s:pid="Y"/>
  </g>
  <g s:type="or" transform="translate(593,408)" s:width="30" s:height="25" id="cell_\36">
    <s:alias val="$or"/>
    <s:alias val="$logic_or"/>
    <s:alias val="$_OR_"/>
    <path d="M0,25 L0,25 L15,25 A15 12.5 0 0 0 15,0 L0,0" class="cell_\36"/>
    <path d="M0,0 A30 25 0 0 1 0,25" class="cell_\36"/>
    <g s:x="3" s:y="5" s:pid="A"/>
    <g s:x="3" s:y="20" s:pid="B"/>
    <g s:x="30" s:y="12.5" s:pid="Y"/>
  </g>
  <g s:type="mux" transform="translate(658,344.5)" s:width="20" s:height="40" id="cell_\39">
    <s:alias val="$pmux"/>
    <s:alias val="$mux"/>
    <s:alias val="$_MUX_"/>
    <path d="M0,0 L20,10 L20,30 L0,40 Z" class="cell_\39"/>
    <g s:x="0" s:y="10" s:pid="A"/>
    <g s:x="0" s:y="30" s:pid="B"/>
    <g s:x="10" s:y="35" s:pid="S"/>
    <g s:x="20" s:y="20" s:pid="Y"/>
  </g>
  <g s:type="or" transform="translate(713,217.5)" s:width="30" s:height="25" id="cell_\44">
    <s:alias val="$or"/>
    <s:alias val="$logic_or"/>
    <s:alias val="$_OR_"/>
    <path d="M0,25 L0,25 L15,25 A15 12.5 0 0 0 15,0 L0,0" class="cell_\44"/>
    <path d="M0,0 A30 25 0 0 1 0,25" class="cell_\44"/>
    <g s:x="3" s:y="5" s:pid="A"/>
    <g s:x="3" s:y="20" s:pid="B"/>
    <g s:x="30" s:y="12.5" s:pid="Y"/>
  </g>
  <g s:type="or" transform="translate(782,225)" s:width="30" s:height="25" id="cell_\45">
    <s:alias val="$or"/>
    <s:alias val="$logic_or"/>
    <s:alias val="$_OR_"/>
    <path d="M0,25 L0,25 L15,25 A15 12.5 0 0 0 15,0 L0,0" class="cell_\45"/>
    <path d="M0,0 A30 25 0 0 1 0,25" class="cell_\45"/>
    <g s:x="3" s:y="5" s:pid="A"/>
    <g s:x="3" s:y="20" s:pid="B"/>
    <g s:x="30" s:y="12.5" s:pid="Y"/>
  </g>
  <g s:type="add" transform="translate(783,30.5)" s:width="25" s:height="25" id="cell_\47">
    <s:alias val="$add"/>
    <circle r="12.5" cx="12.5" cy="12.5" class="cell_\47"/>
    <line x1="7.5" x2="17.5" y1="12.5" y2="12.5" class="cell_\47"/>
    <line x1="12.5" x2="12.5" y1="7.5" y2="17.5" class="cell_\47"/>
    <g s:x="3" s:y="5" s:pid="A"/>
    <g s:x="3" s:y="20" s:pid="B"/>
    <g s:x="25" s:y="12.5" s:pid="Y"/>
  </g>
  <g s:type="mux" transform="translate(879.6666666666666,33)" s:width="20" s:height="40" id="cell_\49">
    <s:alias val="$pmux"/>
    <s:alias val="$mux"/>
    <s:alias val="$_MUX_"/>
    <path d="M0,0 L20,10 L20,30 L0,40 Z" class="cell_\49"/>
    <g s:x="0" s:y="10" s:pid="A"/>
    <g s:x="0" s:y="30" s:pid="B"/>
    <g s:x="10" s:y="35" s:pid="S"/>
    <g s:x="20" s:y="20" s:pid="Y"/>
  </g>
  <g s:type="mux" transform="translate(935,514.5)" s:width="20" s:height="40" id="cell_\54">
    <s:alias val="$pmux"/>
    <s:alias val="$mux"/>
    <s:alias val="$_MUX_"/>
    <path d="M0,0 L20,10 L20,30 L0,40 Z" class="cell_\54"/>
    <g s:x="0" s:y="10" s:pid="A"/>
    <g s:x="0" s:y="30" s:pid="B"/>
    <g s:x="10" s:y="35" s:pid="S"/>
    <g s:x="20" s:y="20" s:pid="Y"/>
  </g>
  <g s:type="not" transform="translate(713,723.5)" s:width="30" s:height="20" id="cell_\55">
    <s:alias val="$_NOT_"/>
    <s:alias val="$not"/>
    <path d="M0,0 L0,20 L20,10 Z" class="cell_\55"/>
    <circle cx="23" cy="10" r="3" class="cell_\55"/>
    <g s:x="0" s:y="10" s:pid="A"/>
    <g s:x="25" s:y="10" s:pid="Y"/>
  </g>
  <g s:type="and" transform="translate(782,707.5)" s:width="30" s:height="25" id="cell_\56">
    <s:alias val="$and"/>
    <s:alias val="$logic_and"/>
    <s:alias val="$_AND_"/>
    <path d="M0,0 L0,25 L15,25 A15 12.5 0 0 0 15,0 Z" class="cell_\56"/>
    <g s:x="0" s:y="5" s:pid="A"/>
    <g s:x="0" s:y="20" s:pid="B"/>
    <g s:x="30" s:y="12.5" s:pid="Y"/>
  </g>
  <g s:type="mux" transform="translate(876,585.5)" s:width="20" s:height="40" id="cell_\57">
    <s:alias val="$pmux"/>
    <s:alias val="$mux"/>
    <s:alias val="$_MUX_"/>
    <path d="M0,0 L20,10 L20,30 L0,40 Z" class="cell_\57"/>
    <g s:x="0" s:y="10" s:pid="A"/>
    <g s:x="0" s:y="30" s:pid="B"/>
    <g s:x="10" s:y="35" s:pid="S"/>
    <g s:x="20" s:y="20" s:pid="Y"/>
  </g>
  <g s:type="and" transform="translate(870,789)" s:width="30" s:height="25" id="cell_\58">
    <s:alias val="$and"/>
    <s:alias val="$logic_and"/>
    <s:alias val="$_AND_"/>
    <path d="M0,0 L0,25 L15,25 A15 12.5 0 0 0 15,0 Z" class="cell_\58"/>
    <g s:x="0" s:y="5" s:pid="A"/>
    <g s:x="0" s:y="20" s:pid="B"/>
    <g s:x="30" s:y="12.5" s:pid="Y"/>
  </g>
  <g s:type="mux" transform="translate(935,23)" s:width="20" s:height="40" id="cell_\59">
    <s:alias val="$pmux"/>
    <s:alias val="$mux"/>
    <s:alias val="$_MUX_"/>
    <path d="M0,0 L20,10 L20,30 L0,40 Z" class="cell_\59"/>
    <g s:x="0" s:y="10" s:pid="A"/>
    <g s:x="0" s:y="30" s:pid="B"/>
    <g s:x="10" s:y="35" s:pid="S"/>
    <g s:x="20" s:y="20" s:pid="Y"/>
  </g>
  <g s:type="mux" transform="translate(935,595.5)" s:width="20" s:height="40" id="cell_\61">
    <s:alias val="$pmux"/>
    <s:alias val="$mux"/>
    <s:alias val="$_MUX_"/>
    <path d="M0,0 L20,10 L20,30 L0,40 Z" class="cell_\61"/>
    <g s:x="0" s:y="10" s:pid="A"/>
    <g s:x="0" s:y="30" s:pid="B"/>
    <g s:x="10" s:y="35" s:pid="S"/>
    <g s:x="20" s:y="20" s:pid="Y"/>
  </g>
  <g s:type="mux" transform="translate(996.6666666666666,524.5)" s:width="20" s:height="40" id="cell_\62">
    <s:alias val="$pmux"/>
    <s:alias val="$mux"/>
    <s:alias val="$_MUX_"/>
    <path d="M0,0 L20,10 L20,30 L0,40 Z" class="cell_\62"/>
    <g s:x="0" s:y="10" s:pid="A"/>
    <g s:x="0" s:y="30" s:pid="B"/>
    <g s:x="10" s:y="35" s:pid="S"/>
    <g s:x="20" s:y="20" s:pid="Y"/>
  </g>
  <g s:type="mux" transform="translate(993.3333333333334,33)" s:width="20" s:height="40" id="cell_\64">
    <s:alias val="$pmux"/>
    <s:alias val="$mux"/>
    <s:alias val="$_MUX_"/>
    <path d="M0,0 L20,10 L20,30 L0,40 Z" class="cell_\64"/>
    <g s:x="0" s:y="10" s:pid="A"/>
    <g s:x="0" s:y="30" s:pid="B"/>
    <g s:x="10" s:y="35" s:pid="S"/>
    <g s:x="20" s:y="20" s:pid="Y"/>
  </g>
  <g s:type="dff" transform="translate(990,605.5)" s:width="30" s:height="40" id="cell_\69">
    <s:alias val="$dff"/>
    <s:alias val="$_DFF_"/>
    <rect width="30" height="40" x="0" y="0" class="cell_\69"/>
    <path d="M0,35 L5,30 L0,25" class="cell_\69"/>
    <g s:x="30" s:y="10" s:pid="Q"/>
    <g s:x="0" s:y="30" s:pid="CLK"/>
    <g s:x="0" s:y="10" s:pid="D"/>
  </g>
  <g s:type="dff" transform="translate(1060,278.5)" s:width="30" s:height="40" id="cell_\70">
    <s:alias val="$dff"/>
    <s:alias val="$_DFF_"/>
    <rect width="30" height="40" x="0" y="0" class="cell_\70"/>
    <path d="M0,35 L5,30 L0,25" class="cell_\70"/>
    <g s:x="30" s:y="10" s:pid="Q"/>
    <g s:x="0" s:y="30" s:pid="CLK"/>
    <g s:x="0" s:y="10" s:pid="D"/>
  </g>
  <g s:type="dff" transform="translate(1060,43)" s:width="30" s:height="40" id="cell_\71">
    <s:alias val="$dff"/>
    <s:alias val="$_DFF_"/>
    <rect width="30" height="40" x="0" y="0" class="cell_\71"/>
    <path d="M0,35 L5,30 L0,25" class="cell_\71"/>
    <g s:x="30" s:y="10" s:pid="Q"/>
    <g s:x="0" s:y="30" s:pid="CLK"/>
    <g s:x="0" s:y="10" s:pid="D"/>
  </g>
  <g s:type="generic" transform="translate(319,524)" s:width="30" s:height="40" id="cell_dut1">
    <text x="15" y="-4" class="nodelabel cell_dut1" s:attribute="ref">d_flipflop</text>
    <rect width="30" height="60" s:generic="body" class="cell_dut1"/>
    <g transform="translate(0,10)" s:x="0" s:y="10" s:pid="in0" id="port_dut1~clk">
      <text x="-3" y="-4" class="inputPortLabel cell_dut1">clk</text>
    </g>
    <g transform="translate(0,30)" s:x="0" s:y="10" s:pid="in0" id="port_dut1~reset">
      <text x="-3" y="-4" class="inputPortLabel cell_dut1">reset</text>
    </g>
    <g transform="translate(0,50)" s:x="0" s:y="10" s:pid="in0" id="port_dut1~sig_in">
      <text x="-3" y="-4" class="inputPortLabel cell_dut1">sig_in</text>
    </g>
    <g transform="translate(30,10)" s:x="30" s:y="10" s:pid="out0" id="port_dut1~sig_out">
      <text x="5" y="-4" style="fill:#000; stroke:none" class="cell_dut1">sig_out</text>
    </g>
  </g>
  <g s:type="inputExt" transform="translate(194,524.5)" s:width="30" s:height="20" id="cell_mclk">
    <text x="15" y="-4" class="nodelabel cell_mclk" s:attribute="ref">mclk</text>
    <s:alias val="$_inputExt_"/>
    <path d="M0,0 L0,20 L15,20 L30,10 L15,0 Z" class="cell_mclk"/>
    <g s:x="28" s:y="10" s:pid="Y"/>
  </g>
  <g s:type="inputExt" transform="translate(194,714.5)" s:width="30" s:height="20" id="cell_reset">
    <text x="15" y="-4" class="nodelabel cell_reset" s:attribute="ref">reset</text>
    <s:alias val="$_inputExt_"/>
    <path d="M0,0 L0,20 L15,20 L30,10 L15,0 Z" class="cell_reset"/>
    <g s:x="28" s:y="10" s:pid="Y"/>
  </g>
  <g s:type="inputExt" transform="translate(778,652.5)" s:width="30" s:height="20" id="cell_baud_x4">
    <text x="15" y="-4" class="nodelabel cell_baud_x4" s:attribute="ref">baud_x4</text>
    <s:alias val="$_inputExt_"/>
    <path d="M0,0 L0,20 L15,20 L30,10 L15,0 Z" class="cell_baud_x4"/>
    <g s:x="28" s:y="10" s:pid="Y"/>
  </g>
  <g s:type="inputExt" transform="translate(194,589.5)" s:width="30" s:height="20" id="cell_serial">
    <text x="15" y="-4" class="nodelabel cell_serial" s:attribute="ref">serial</text>
    <s:alias val="$_inputExt_"/>
    <path d="M0,0 L0,20 L15,20 L30,10 L15,0 Z" class="cell_serial"/>
    <g s:x="28" s:y="10" s:pid="Y"/>
  </g>
  <g s:type="outputExt" transform="translate(1060,161.5)" s:width="30" s:height="20" id="cell_data">
    <text x="15" y="-4" class="nodelabel cell_data" s:attribute="ref">data</text>
    <s:alias val="$_outputExt_"/>
    <path d="M30,0 L30,20 L15,20 L0,10 L15,0 Z" class="cell_data"/>
    <g s:x="0" s:y="10" s:pid="A"/>
  </g>
  <g s:type="outputExt" transform="translate(1060,363.5)" s:width="30" s:height="20" id="cell_data_strobe">
    <text x="15" y="-4" class="nodelabel cell_data_strobe" s:attribute="ref">data_strobe</text>
    <s:alias val="$_outputExt_"/>
    <path d="M30,0 L30,20 L15,20 L0,10 L15,0 Z" class="cell_data_strobe"/>
    <g s:x="0" s:y="10" s:pid="A"/>
  </g>
  <g s:type="constant" transform="translate(32,222.5)" s:width="30" s:height="20" id="cell_1">
    <text x="15" y="-4" class="nodelabel cell_1" s:attribute="ref">1</text>
    <s:alias val="$_constant_"/>
    <rect width="30" height="20" class="cell_1"/>
    <g s:x="30" s:y="10" s:pid="Y"/>
  </g>
  <g s:type="constant" transform="translate(97,644.5)" s:width="30" s:height="20" id="cell_0">
    <text x="15" y="-4" class="nodelabel cell_0" s:attribute="ref">0</text>
    <s:alias val="$_constant_"/>
    <rect width="30" height="20" class="cell_0"/>
    <g s:x="30" s:y="10" s:pid="Y"/>
  </g>
  <g s:type="constant" transform="translate(97,852.5)" s:width="30" s:height="20" id="cell_1001">
    <text x="15" y="-4" class="nodelabel cell_1001" s:attribute="ref">0x9</text>
    <s:alias val="$_constant_"/>
    <rect width="30" height="20" class="cell_1001"/>
    <g s:x="30" s:y="10" s:pid="Y"/>
  </g>
  <g s:type="constant" transform="translate(778,100.5)" s:width="30" s:height="20" id="cell_000000">
    <text x="15" y="-4" class="nodelabel cell_000000" s:attribute="ref">0x0</text>
    <s:alias val="$_constant_"/>
    <rect width="30" height="20" class="cell_000000"/>
    <g s:x="30" s:y="10" s:pid="Y"/>
  </g>
  <g s:type="join" transform="translate(889,524)" s:width="4" s:height="40" id="cell_$join$,7,8,9,10,11,12,13,52,30,">
    <rect width="5" height="40" class="splitjoinBody" s:generic="body"/>
    <s:alias val="$_join_"/>
    <g s:x="5" s:y="20" s:pid="out"/>
    <g transform="translate(0,10)" s:x="0" s:y="10" s:pid="in0">
      <text x="-3" y="-4" class="inputPortLabel">0:7</text>
    </g>
    <g transform="translate(0,30)" s:x="0" s:y="10" s:pid="in0">
      <text x="-3" y="-4" class="inputPortLabel">8</text>
    </g>
  </g>
  <g s:type="split" transform="translate(38,791)" s:width="5" s:height="40" id="cell_$split$,15,16,19,20,21,22,">
    <rect width="5" height="40" class="splitjoinBody" s:generic="body"/>
    <s:alias val="$_split_"/>
    <g s:x="0" s:y="20" s:pid="in"/>
    <g transform="translate(4,10)" s:x="4" s:y="10" s:pid="out0">
      <text x="5" y="-4">0:1</text>
    </g>
    <g transform="translate(4,30)" s:x="4" s:y="10" s:pid="out0">
      <text x="5" y="-4">2:5</text>
    </g>
  </g>
  <g s:type="split" transform="translate(796,567.5)" s:width="5" s:height="40" id="cell_$split$,6,7,8,9,10,11,12,13,52,">
    <rect width="5" height="40" class="splitjoinBody" s:generic="body"/>
    <s:alias val="$_split_"/>
    <g s:x="0" s:y="20" s:pid="in"/>
    <g transform="translate(4,10)" s:x="4" s:y="10" s:pid="out0">
      <text x="5" y="-4">1:8</text>
    </g>
    <g transform="translate(4,30)" s:x="4" s:y="10" s:pid="out0">
      <text x="5" y="-4">0:7</text>
    </g>
  </g>
  <line x1="43" x2="101.66666666666667" y1="801.5" y2="801.5" class="net_15,16"/>
  <line x1="62" x2="82" y1="232.5" y2="232.5" class="net_88"/>
  <line x1="82" x2="82" y1="232.5" y2="816.5" class="net_88"/>
  <circle cx="82" cy="232.5" r="2" style="fill:#000" class="net_88"/>
  <line x1="82" x2="101.66666666666667" y1="816.5" y2="816.5" class="net_88"/>
  <line x1="62" x2="82" y1="232.5" y2="232.5" class="net_88"/>
  <line x1="82" x2="82" y1="232.5" y2="755.5" class="net_88"/>
  <line x1="82" x2="137" y1="755.5" y2="755.5" class="net_88"/>
  <line x1="137" x2="137" y1="755.5" y2="674.5" class="net_88"/>
  <circle cx="82" cy="755.5" r="2" style="fill:#000" class="net_88"/>
  <circle cx="137" cy="755.5" r="2" style="fill:#000" class="net_88"/>
  <line x1="137" x2="197.66666666666666" y1="674.5" y2="674.5" class="net_88"/>
  <line x1="62" x2="137" y1="232.5" y2="232.5" class="net_88"/>
  <line x1="137" x2="137" y1="232.5" y2="415.5" class="net_88"/>
  <line x1="137" x2="446.3333333333333" y1="415.5" y2="415.5" class="net_88"/>
  <line x1="62" x2="82" y1="232.5" y2="232.5" class="net_88"/>
  <line x1="82" x2="82" y1="232.5" y2="755.5" class="net_88"/>
  <line x1="82" x2="413" y1="755.5" y2="755.5" class="net_88"/>
  <line x1="413" x2="413" y1="755.5" y2="494.5" class="net_88"/>
  <line x1="413" x2="446.3333333333333" y1="494.5" y2="494.5" class="net_88"/>
  <line x1="62" x2="658" y1="232.5" y2="232.5" class="net_88"/>
  <line x1="62" x2="137" y1="232.5" y2="232.5" class="net_88"/>
  <line x1="137" x2="137" y1="232.5" y2="374.5" class="net_88"/>
  <circle cx="137" cy="374.5" r="2" style="fill:#000" class="net_88"/>
  <line x1="137" x2="658" y1="374.5" y2="374.5" class="net_88"/>
  <line x1="62" x2="137" y1="232.5" y2="232.5" class="net_88"/>
  <line x1="137" x2="137" y1="232.5" y2="50.5" class="net_88"/>
  <circle cx="137" cy="232.5" r="2" style="fill:#000" class="net_88"/>
  <line x1="137" x2="786" y1="50.5" y2="50.5" class="net_88"/>
  <line x1="127" x2="197.66666666666666" y1="654.5" y2="654.5" class="net_89"/>
  <line x1="127" x2="177" y1="654.5" y2="654.5" class="net_89"/>
  <line x1="177" x2="177" y1="654.5" y2="395.5" class="net_89"/>
  <circle cx="177" cy="654.5" r="2" style="fill:#000" class="net_89"/>
  <circle cx="177" cy="395.5" r="2" style="fill:#000" class="net_89"/>
  <line x1="177" x2="446.3333333333333" y1="395.5" y2="395.5" class="net_89"/>
  <line x1="127" x2="177" y1="654.5" y2="654.5" class="net_89"/>
  <line x1="177" x2="177" y1="654.5" y2="744.5" class="net_89"/>
  <line x1="177" x2="403" y1="744.5" y2="744.5" class="net_89"/>
  <line x1="403" x2="403" y1="744.5" y2="474.5" class="net_89"/>
  <circle cx="177" cy="744.5" r="2" style="fill:#000" class="net_89"/>
  <line x1="403" x2="446.3333333333333" y1="474.5" y2="474.5" class="net_89"/>
  <line x1="127" x2="177" y1="654.5" y2="654.5" class="net_89"/>
  <line x1="177" x2="177" y1="654.5" y2="212.5" class="net_89"/>
  <line x1="177" x2="658" y1="212.5" y2="212.5" class="net_89"/>
  <line x1="127" x2="177" y1="654.5" y2="654.5" class="net_89"/>
  <line x1="177" x2="177" y1="654.5" y2="354.5" class="net_89"/>
  <circle cx="177" cy="354.5" r="2" style="fill:#000" class="net_89"/>
  <line x1="177" x2="658" y1="354.5" y2="354.5" class="net_89"/>
  <line x1="127" x2="177" y1="654.5" y2="654.5" class="net_89"/>
  <line x1="177" x2="177" y1="654.5" y2="824" class="net_89"/>
  <line x1="177" x2="920" y1="824" y2="824" class="net_89"/>
  <line x1="920" x2="920" y1="824" y2="625.5" class="net_89"/>
  <line x1="920" x2="935" y1="625.5" y2="625.5" class="net_89"/>
  <line x1="123.66666666666667" x2="147" y1="809" y2="809" class="net_17"/>
  <line x1="147" x2="147" y1="809" y2="694.5" class="net_17"/>
  <line x1="147" x2="207.66666666666666" y1="694.5" y2="694.5" class="net_17"/>
  <circle cx="147" cy="809" r="2" style="fill:#000" class="net_17"/>
  <line x1="207.66666666666666" x2="207.66666666666666" y1="694.5" y2="679.5" class="net_17"/>
  <line x1="123.66666666666667" x2="870" y1="809" y2="809" class="net_17"/>
  <line x1="43" x2="72" y1="821.5" y2="821.5" class="net_19,20,21,22"/>
  <line x1="72" x2="72" y1="821.5" y2="447" class="net_19,20,21,22"/>
  <circle cx="72" cy="821.5" r="2" style="fill:#000" class="net_19,20,21,22"/>
  <line x1="72" x2="194" y1="447" y2="447" class="net_19,20,21,22"/>
  <line x1="43" x2="72" y1="821.5" y2="821.5" class="net_19,20,21,22"/>
  <line x1="72" x2="72" y1="821.5" y2="831.5" class="net_19,20,21,22"/>
  <line x1="72" x2="157" y1="831.5" y2="831.5" class="net_19,20,21,22"/>
  <line x1="157" x2="157" y1="831.5" y2="771.5" class="net_19,20,21,22"/>
  <line x1="157" x2="199" y1="771.5" y2="771.5" class="net_19,20,21,22"/>
  <line x1="225" x2="321.3333333333333" y1="447" y2="447" class="net_23"/>
  <line x1="217.66666666666666" x2="262" y1="664.5" y2="664.5" class="net_18"/>
  <line x1="262" x2="262" y1="664.5" y2="462" class="net_18"/>
  <circle cx="262" cy="664.5" r="2" style="fill:#000" class="net_18"/>
  <line x1="262" x2="321.3333333333333" y1="462" y2="462" class="net_18"/>
  <line x1="217.66666666666666" x2="262" y1="664.5" y2="664.5" class="net_18"/>
  <line x1="262" x2="262" y1="664.5" y2="794" class="net_18"/>
  <line x1="262" x2="321.3333333333333" y1="794" y2="794" class="net_18"/>
  <line x1="351.3333333333333" x2="456.3333333333333" y1="454.5" y2="454.5" class="net_24"/>
  <line x1="456.3333333333333" x2="456.3333333333333" y1="454.5" y2="420.5" class="net_24"/>
  <line x1="127" x2="167" y1="862.5" y2="862.5" class="net_93,94,95,96"/>
  <line x1="167" x2="167" y1="862.5" y2="786.5" class="net_93,94,95,96"/>
  <line x1="167" x2="199" y1="786.5" y2="786.5" class="net_93,94,95,96"/>
  <line x1="221" x2="321.3333333333333" y1="779" y2="779" class="net_26"/>
  <line x1="351.3333333333333" x2="423" y1="786.5" y2="786.5" class="net_27"/>
  <line x1="423" x2="423" y1="786.5" y2="514.5" class="net_27"/>
  <line x1="423" x2="456.3333333333333" y1="514.5" y2="514.5" class="net_27"/>
  <line x1="456.3333333333333" x2="456.3333333333333" y1="514.5" y2="499.5" class="net_27"/>
  <line x1="1090" x2="1146" y1="53" y2="53" class="net_15,16,19,20,21,22"/>
  <line x1="1146" x2="1146" y1="53" y2="191.5" class="net_15,16,19,20,21,22"/>
  <line x1="1146" x2="503" y1="191.5" y2="191.5" class="net_15,16,19,20,21,22"/>
  <line x1="503" x2="503" y1="191.5" y2="264" class="net_15,16,19,20,21,22"/>
  <circle cx="1146" cy="191.5" r="2" style="fill:#000" class="net_15,16,19,20,21,22"/>
  <line x1="503" x2="520" y1="264" y2="264" class="net_15,16,19,20,21,22"/>
  <line x1="1090" x2="1146" y1="53" y2="53" class="net_15,16,19,20,21,22"/>
  <line x1="1146" x2="1146" y1="53" y2="12" class="net_15,16,19,20,21,22"/>
  <line x1="1146" x2="763" y1="12" y2="12" class="net_15,16,19,20,21,22"/>
  <line x1="763" x2="763" y1="12" y2="35.5" class="net_15,16,19,20,21,22"/>
  <circle cx="1146" cy="53" r="2" style="fill:#000" class="net_15,16,19,20,21,22"/>
  <line x1="763" x2="786" y1="35.5" y2="35.5" class="net_15,16,19,20,21,22"/>
  <line x1="1090" x2="1146" y1="53" y2="53" class="net_15,16,19,20,21,22"/>
  <line x1="1146" x2="1146" y1="53" y2="12" class="net_15,16,19,20,21,22"/>
  <line x1="1146" x2="910" y1="12" y2="12" class="net_15,16,19,20,21,22"/>
  <line x1="910" x2="910" y1="12" y2="33" class="net_15,16,19,20,21,22"/>
  <circle cx="910" cy="12" r="2" style="fill:#000" class="net_15,16,19,20,21,22"/>
  <line x1="910" x2="935" y1="33" y2="33" class="net_15,16,19,20,21,22"/>
  <line x1="1090" x2="1146" y1="53" y2="53" class="net_15,16,19,20,21,22"/>
  <line x1="1146" x2="1146" y1="53" y2="882.5" class="net_15,16,19,20,21,22"/>
  <line x1="1146" x2="12" y1="882.5" y2="882.5" class="net_15,16,19,20,21,22"/>
  <line x1="12" x2="12" y1="882.5" y2="811.5" class="net_15,16,19,20,21,22"/>
  <line x1="12" x2="38" y1="811.5" y2="811.5" class="net_15,16,19,20,21,22"/>
  <line x1="551" x2="568" y1="264" y2="264" class="net_29"/>
  <line x1="568" x2="568" y1="264" y2="324.5" class="net_29"/>
  <line x1="568" x2="593" y1="324.5" y2="324.5" class="net_29"/>
  <line x1="350" x2="433" y1="534.5" y2="534.5" class="net_30"/>
  <line x1="433" x2="433" y1="534.5" y2="339.5" class="net_30"/>
  <circle cx="433" cy="534.5" r="2" style="fill:#000" class="net_30"/>
  <line x1="433" x2="593" y1="339.5" y2="339.5" class="net_30"/>
  <line x1="350" x2="433" y1="534.5" y2="534.5" class="net_30"/>
  <line x1="433" x2="433" y1="534.5" y2="435.5" class="net_30"/>
  <line x1="433" x2="503" y1="435.5" y2="435.5" class="net_30"/>
  <line x1="503" x2="503" y1="435.5" y2="420.5" class="net_30"/>
  <circle cx="433" cy="435.5" r="2" style="fill:#000" class="net_30"/>
  <line x1="503" x2="520.3333333333333" y1="420.5" y2="420.5" class="net_30"/>
  <line x1="350" x2="443" y1="534.5" y2="534.5" class="net_30"/>
  <line x1="350" x2="433" y1="534.5" y2="534.5" class="net_30"/>
  <line x1="433" x2="433" y1="534.5" y2="554.5" class="net_30"/>
  <line x1="433" x2="889" y1="554.5" y2="554.5" class="net_30"/>
  <line x1="623" x2="668" y1="332" y2="332" class="net_31"/>
  <line x1="668" x2="668" y1="332" y2="237.5" class="net_31"/>
  <line x1="466.3333333333333" x2="520.3333333333333" y1="405.5" y2="405.5" class="net_25"/>
  <line x1="466.3333333333333" x2="520.3333333333333" y1="484.5" y2="484.5" class="net_28"/>
  <line x1="466.3333333333333" x2="493" y1="484.5" y2="484.5" class="net_28"/>
  <line x1="493" x2="493" y1="484.5" y2="286.5" class="net_28"/>
  <line x1="493" x2="753" y1="286.5" y2="286.5" class="net_28"/>
  <line x1="753" x2="753" y1="286.5" y2="245" class="net_28"/>
  <circle cx="493" cy="484.5" r="2" style="fill:#000" class="net_28"/>
  <line x1="753" x2="785" y1="245" y2="245" class="net_28"/>
  <line x1="466.3333333333333" x2="493" y1="484.5" y2="484.5" class="net_28"/>
  <line x1="493" x2="493" y1="484.5" y2="712.5" class="net_28"/>
  <line x1="493" x2="782" y1="712.5" y2="712.5" class="net_28"/>
  <line x1="468" x2="483" y1="534.5" y2="534.5" class="net_34"/>
  <line x1="483" x2="483" y1="534.5" y2="499.5" class="net_34"/>
  <line x1="483" x2="520.3333333333333" y1="499.5" y2="499.5" class="net_34"/>
  <line x1="550.3333333333333" x2="596" y1="413" y2="413" class="net_33"/>
  <line x1="550.3333333333333" x2="568" y1="492" y2="492" class="net_35"/>
  <line x1="568" x2="568" y1="492" y2="428" class="net_35"/>
  <line x1="568" x2="596" y1="428" y2="428" class="net_35"/>
  <line x1="623" x2="668" y1="420.5" y2="420.5" class="net_36"/>
  <line x1="668" x2="668" y1="420.5" y2="379.5" class="net_36"/>
  <line x1="678" x2="716" y1="222.5" y2="222.5" class="net_32"/>
  <line x1="678" x2="688" y1="364.5" y2="364.5" class="net_37"/>
  <line x1="688" x2="688" y1="364.5" y2="237.5" class="net_37"/>
  <circle cx="688" cy="364.5" r="2" style="fill:#000" class="net_37"/>
  <line x1="688" x2="716" y1="237.5" y2="237.5" class="net_37"/>
  <line x1="678" x2="688" y1="364.5" y2="364.5" class="net_37"/>
  <line x1="688" x2="688" y1="364.5" y2="733.5" class="net_37"/>
  <line x1="688" x2="713" y1="733.5" y2="733.5" class="net_37"/>
  <line x1="743" x2="785" y1="230" y2="230" class="net_38"/>
  <line x1="808" x2="879.6666666666666" y1="43" y2="43" class="net_40,41,42,43,44,45"/>
  <line x1="808" x2="830" y1="110.5" y2="110.5" class="net_104,105,106,107,108,109"/>
  <line x1="830" x2="830" y1="110.5" y2="63" class="net_104,105,106,107,108,109"/>
  <circle cx="830" cy="110.5" r="2" style="fill:#000" class="net_104,105,106,107,108,109"/>
  <line x1="830" x2="879.6666666666666" y1="63" y2="63" class="net_104,105,106,107,108,109"/>
  <line x1="808" x2="965" y1="110.5" y2="110.5" class="net_104,105,106,107,108,109"/>
  <line x1="965" x2="965" y1="110.5" y2="63" class="net_104,105,106,107,108,109"/>
  <line x1="965" x2="993.3333333333334" y1="63" y2="63" class="net_104,105,106,107,108,109"/>
  <line x1="812" x2="889.6666666666666" y1="237.5" y2="237.5" class="net_39"/>
  <line x1="889.6666666666666" x2="889.6666666666666" y1="237.5" y2="68" class="net_39"/>
  <line x1="1090" x2="1136" y1="288.5" y2="288.5" class="net_6,7,8,9,10,11,12,13,52"/>
  <line x1="1136" x2="1136" y1="288.5" y2="141.5" class="net_6,7,8,9,10,11,12,13,52"/>
  <line x1="1136" x2="920" y1="141.5" y2="141.5" class="net_6,7,8,9,10,11,12,13,52"/>
  <line x1="920" x2="920" y1="141.5" y2="524.5" class="net_6,7,8,9,10,11,12,13,52"/>
  <circle cx="1136" cy="288.5" r="2" style="fill:#000" class="net_6,7,8,9,10,11,12,13,52"/>
  <line x1="920" x2="935" y1="524.5" y2="524.5" class="net_6,7,8,9,10,11,12,13,52"/>
  <line x1="1090" x2="1136" y1="288.5" y2="288.5" class="net_6,7,8,9,10,11,12,13,52"/>
  <line x1="1136" x2="1136" y1="288.5" y2="584.5" class="net_6,7,8,9,10,11,12,13,52"/>
  <line x1="1136" x2="975" y1="584.5" y2="584.5" class="net_6,7,8,9,10,11,12,13,52"/>
  <line x1="975" x2="975" y1="584.5" y2="554.5" class="net_6,7,8,9,10,11,12,13,52"/>
  <line x1="975" x2="996.6666666666666" y1="554.5" y2="554.5" class="net_6,7,8,9,10,11,12,13,52"/>
  <line x1="1090" x2="1136" y1="288.5" y2="288.5" class="net_6,7,8,9,10,11,12,13,52"/>
  <line x1="1136" x2="1136" y1="288.5" y2="584.5" class="net_6,7,8,9,10,11,12,13,52"/>
  <line x1="1136" x2="1050" y1="584.5" y2="584.5" class="net_6,7,8,9,10,11,12,13,52"/>
  <line x1="1050" x2="1050" y1="584.5" y2="867" class="net_6,7,8,9,10,11,12,13,52"/>
  <line x1="1050" x2="753" y1="867" y2="867" class="net_6,7,8,9,10,11,12,13,52"/>
  <line x1="753" x2="753" y1="867" y2="588" class="net_6,7,8,9,10,11,12,13,52"/>
  <circle cx="1050" cy="584.5" r="2" style="fill:#000" class="net_6,7,8,9,10,11,12,13,52"/>
  <line x1="753" x2="796" y1="588" y2="588" class="net_6,7,8,9,10,11,12,13,52"/>
  <line x1="895" x2="935" y1="544.5" y2="544.5" class="net_7,8,9,10,11,12,13,52,30"/>
  <line x1="900" x2="910" y1="801.5" y2="801.5" class="net_53"/>
  <line x1="910" x2="910" y1="801.5" y2="585.5" class="net_53"/>
  <line x1="910" x2="945" y1="585.5" y2="585.5" class="net_53"/>
  <line x1="945" x2="945" y1="585.5" y2="549.5" class="net_53"/>
  <line x1="738" x2="763" y1="733.5" y2="733.5" class="net_63"/>
  <line x1="763" x2="763" y1="733.5" y2="727.5" class="net_63"/>
  <line x1="763" x2="782" y1="727.5" y2="727.5" class="net_63"/>
  <line x1="1020" x2="1040" y1="615.5" y2="615.5" class="net_14"/>
  <line x1="1040" x2="1040" y1="615.5" y2="574.5" class="net_14"/>
  <line x1="1040" x2="860" y1="574.5" y2="574.5" class="net_14"/>
  <line x1="860" x2="860" y1="574.5" y2="595.5" class="net_14"/>
  <circle cx="1040" cy="574.5" r="2" style="fill:#000" class="net_14"/>
  <line x1="860" x2="876" y1="595.5" y2="595.5" class="net_14"/>
  <line x1="1020" x2="1040" y1="615.5" y2="615.5" class="net_14"/>
  <line x1="1040" x2="1040" y1="615.5" y2="373.5" class="net_14"/>
  <line x1="1040" x2="1060" y1="373.5" y2="373.5" class="net_14"/>
  <line x1="812" x2="860" y1="720" y2="720" class="net_64"/>
  <line x1="860" x2="860" y1="720" y2="615.5" class="net_64"/>
  <line x1="860" x2="876" y1="615.5" y2="615.5" class="net_64"/>
  <line x1="806" x2="886" y1="662.5" y2="662.5" class="net_4"/>
  <line x1="886" x2="886" y1="662.5" y2="620.5" class="net_4"/>
  <line x1="806" x2="850" y1="662.5" y2="662.5" class="net_4"/>
  <line x1="850" x2="850" y1="662.5" y2="794" class="net_4"/>
  <circle cx="850" cy="662.5" r="2" style="fill:#000" class="net_4"/>
  <line x1="850" x2="870" y1="794" y2="794" class="net_4"/>
  <line x1="806" x2="850" y1="662.5" y2="662.5" class="net_4"/>
  <line x1="850" x2="850" y1="662.5" y2="504.5" class="net_4"/>
  <line x1="850" x2="945" y1="504.5" y2="504.5" class="net_4"/>
  <line x1="945" x2="945" y1="504.5" y2="58" class="net_4"/>
  <line x1="899.6666666666666" x2="935" y1="53" y2="53" class="net_46,47,48,49,50,51"/>
  <line x1="896" x2="935" y1="605.5" y2="605.5" class="net_65"/>
  <line x1="222" x2="252" y1="724.5" y2="724.5" class="net_3"/>
  <line x1="252" x2="252" y1="724.5" y2="835" class="net_3"/>
  <line x1="252" x2="945" y1="835" y2="835" class="net_3"/>
  <circle cx="252" cy="724.5" r="2" style="fill:#000" class="net_3"/>
  <line x1="945" x2="945" y1="835" y2="630.5" class="net_3"/>
  <line x1="222" x2="252" y1="724.5" y2="724.5" class="net_3"/>
  <line x1="252" x2="252" y1="724.5" y2="835" class="net_3"/>
  <line x1="252" x2="910" y1="835" y2="835" class="net_3"/>
  <line x1="910" x2="910" y1="835" y2="845" class="net_3"/>
  <line x1="910" x2="965" y1="845" y2="845" class="net_3"/>
  <line x1="965" x2="965" y1="845" y2="594.5" class="net_3"/>
  <line x1="965" x2="1006.6666666666666" y1="594.5" y2="594.5" class="net_3"/>
  <circle cx="910" cy="835" r="2" style="fill:#000" class="net_3"/>
  <line x1="1006.6666666666666" x2="1006.6666666666666" y1="594.5" y2="559.5" class="net_3"/>
  <line x1="222" x2="252" y1="724.5" y2="724.5" class="net_3"/>
  <line x1="252" x2="252" y1="724.5" y2="297.5" class="net_3"/>
  <line x1="252" x2="1003.3333333333334" y1="297.5" y2="297.5" class="net_3"/>
  <line x1="1003.3333333333334" x2="1003.3333333333334" y1="297.5" y2="68" class="net_3"/>
  <line x1="222" x2="252" y1="724.5" y2="724.5" class="net_3"/>
  <line x1="252" x2="252" y1="724.5" y2="554.5" class="net_3"/>
  <circle cx="252" cy="554.5" r="2" style="fill:#000" class="net_3"/>
  <line x1="252" x2="319" y1="554.5" y2="554.5" class="net_3"/>
  <line x1="955" x2="996.6666666666666" y1="534.5" y2="534.5" class="net_54,55,56,57,58,59,60,61,62"/>
  <line x1="955" x2="993.3333333333334" y1="43" y2="43" class="net_66,67,68,69,70,71"/>
  <line x1="222" x2="242" y1="534.5" y2="534.5" class="net_2"/>
  <line x1="242" x2="242" y1="534.5" y2="856" class="net_2"/>
  <line x1="242" x2="975" y1="856" y2="856" class="net_2"/>
  <line x1="975" x2="975" y1="856" y2="635.5" class="net_2"/>
  <circle cx="242" cy="534.5" r="2" style="fill:#000" class="net_2"/>
  <line x1="975" x2="990" y1="635.5" y2="635.5" class="net_2"/>
  <line x1="222" x2="242" y1="534.5" y2="534.5" class="net_2"/>
  <line x1="242" x2="242" y1="534.5" y2="308.5" class="net_2"/>
  <circle cx="242" cy="308.5" r="2" style="fill:#000" class="net_2"/>
  <line x1="242" x2="1060" y1="308.5" y2="308.5" class="net_2"/>
  <line x1="222" x2="242" y1="534.5" y2="534.5" class="net_2"/>
  <line x1="242" x2="242" y1="534.5" y2="130.5" class="net_2"/>
  <line x1="242" x2="1030" y1="130.5" y2="130.5" class="net_2"/>
  <line x1="1030" x2="1030" y1="130.5" y2="73" class="net_2"/>
  <line x1="1030" x2="1060" y1="73" y2="73" class="net_2"/>
  <line x1="222" x2="319" y1="534.5" y2="534.5" class="net_2"/>
  <line x1="955" x2="990" y1="615.5" y2="615.5" class="net_72"/>
  <line x1="1016.6666666666666" x2="1030" y1="544.5" y2="544.5" class="net_73,74,75,76,77,78,79,80,81"/>
  <line x1="1030" x2="1030" y1="544.5" y2="288.5" class="net_73,74,75,76,77,78,79,80,81"/>
  <line x1="1030" x2="1060" y1="288.5" y2="288.5" class="net_73,74,75,76,77,78,79,80,81"/>
  <line x1="1013.3333333333334" x2="1060" y1="53" y2="53" class="net_82,83,84,85,86,87"/>
  <line x1="222" x2="272" y1="599.5" y2="599.5" class="net_5"/>
  <line x1="272" x2="272" y1="599.5" y2="574.5" class="net_5"/>
  <line x1="272" x2="319" y1="574.5" y2="574.5" class="net_5"/>
  <line x1="801" x2="840" y1="598" y2="598" class="net_6,7,8,9,10,11,12,13"/>
  <line x1="840" x2="840" y1="598" y2="171.5" class="net_6,7,8,9,10,11,12,13"/>
  <line x1="840" x2="1060" y1="171.5" y2="171.5" class="net_6,7,8,9,10,11,12,13"/>
  <line x1="801" x2="830" y1="578" y2="578" class="net_7,8,9,10,11,12,13,52"/>
  <line x1="830" x2="830" y1="578" y2="534.5" class="net_7,8,9,10,11,12,13,52"/>
  <line x1="830" x2="889" y1="534.5" y2="534.5" class="net_7,8,9,10,11,12,13,52"/>
</svg>
