<svg xmlns="http://www.w3.org/2000/svg" xmlns:xlink="http://www.w3.org/1999/xlink" xmlns:s="https://github.com/nturley/netlistsvg" width="666" height="314">
  <style>svg {
    stroke:#000;
    fill:none;
  }
  text {
    fill:#000;
    stroke:none;
    font-size:10px;
    font-weight: bold;
    font-family: "Courier New", monospace;
  }
  .nodelabel {
    text-anchor: middle;
  }
  .inputPortLabel {
    text-anchor: end;
  }
  .splitjoinBody {
    fill:#000;
  }</style>
  <g s:type="generic" transform="translate(73,151.5)" s:width="30" s:height="40" id="cell_butler1">
    <text x="15" y="-4" class="nodelabel cell_butler1" s:attribute="ref">BUTLER</text>
    <rect width="30" height="80" s:generic="body" class="cell_butler1"/>
    <g transform="translate(0,10)" s:x="0" s:y="10" s:pid="in0" id="port_butler1~s_col">
      <text x="-3" y="-4" class="inputPortLabel cell_butler1">s_col</text>
    </g>
    <g transform="translate(0,30)" s:x="0" s:y="10" s:pid="in0" id="port_butler1~s_row">
      <text x="-3" y="-4" class="inputPortLabel cell_butler1">s_row</text>
    </g>
    <g transform="translate(30,10)" s:x="30" s:y="10" s:pid="out0" id="port_butler1~color_addr">
      <text x="5" y="-4" style="fill:#000; stroke:none" class="cell_butler1">color_addr</text>
    </g>
    <g transform="translate(30,30)" s:x="30" s:y="10" s:pid="out0" id="port_butler1~color_en">
      <text x="5" y="-4" style="fill:#000; stroke:none" class="cell_butler1">color_en</text>
    </g>
    <g transform="translate(30,50)" s:x="30" s:y="10" s:pid="out0" id="port_butler1~frame_addr">
      <text x="5" y="-4" style="fill:#000; stroke:none" class="cell_butler1">frame_addr</text>
    </g>
    <g transform="translate(30,70)" s:x="30" s:y="10" s:pid="out0" id="port_butler1~frame_en">
      <text x="5" y="-4" style="fill:#000; stroke:none" class="cell_butler1">frame_en</text>
    </g>
  </g>
  <g s:type="generic" transform="translate(73,63.5)" s:width="30" s:height="40" id="cell_clk1">
    <text x="15" y="-4" class="nodelabel cell_clk1" s:attribute="ref">HSOSC</text>
    <rect width="30" height="20" s:generic="body" class="cell_clk1"/>
    <g transform="translate(30,10)" s:x="30" s:y="10" s:pid="out0" id="port_clk1~ClkHF">
      <text x="5" y="-4" style="fill:#000; stroke:none" class="cell_clk1">ClkHF</text>
    </g>
  </g>
  <g s:type="generic" transform="translate(236,63.5)" s:width="30" s:height="40" id="cell_color_buffer1">
    <text x="15" y="-4" class="nodelabel cell_color_buffer1" s:attribute="ref">COLOR_BUFFER</text>
    <rect width="30" height="60" s:generic="body" class="cell_color_buffer1"/>
    <g transform="translate(0,10)" s:x="0" s:y="10" s:pid="in0" id="port_color_buffer1~Clk">
      <text x="-3" y="-4" class="inputPortLabel cell_color_buffer1">Clk</text>
    </g>
    <g transform="translate(0,30)" s:x="0" s:y="10" s:pid="in0" id="port_color_buffer1~RADDR">
      <text x="-3" y="-4" class="inputPortLabel cell_color_buffer1">RADDR</text>
    </g>
    <g transform="translate(0,50)" s:x="0" s:y="10" s:pid="in0" id="port_color_buffer1~RE">
      <text x="-3" y="-4" class="inputPortLabel cell_color_buffer1">RE</text>
    </g>
    <g transform="translate(30,10)" s:x="30" s:y="10" s:pid="out0" id="port_color_buffer1~RDATA">
      <text x="5" y="-4" style="fill:#000; stroke:none" class="cell_color_buffer1">RDATA</text>
    </g>
  </g>
  <g s:type="generic" transform="translate(236,171.5)" s:width="30" s:height="40" id="cell_frame_buffer1">
    <text x="15" y="-4" class="nodelabel cell_frame_buffer1" s:attribute="ref">FRAME_BUFFER</text>
    <rect width="30" height="60" s:generic="body" class="cell_frame_buffer1"/>
    <g transform="translate(0,10)" s:x="0" s:y="10" s:pid="in0" id="port_frame_buffer1~Clk">
      <text x="-3" y="-4" class="inputPortLabel cell_frame_buffer1">Clk</text>
    </g>
    <g transform="translate(0,30)" s:x="0" s:y="10" s:pid="in0" id="port_frame_buffer1~RADDR">
      <text x="-3" y="-4" class="inputPortLabel cell_frame_buffer1">RADDR</text>
    </g>
    <g transform="translate(0,50)" s:x="0" s:y="10" s:pid="in0" id="port_frame_buffer1~RE">
      <text x="-3" y="-4" class="inputPortLabel cell_frame_buffer1">RE</text>
    </g>
    <g transform="translate(30,10)" s:x="30" s:y="10" s:pid="out0" id="port_frame_buffer1~RDATA">
      <text x="5" y="-4" style="fill:#000; stroke:none" class="cell_frame_buffer1">RDATA</text>
    </g>
  </g>
  <g s:type="generic" transform="translate(410,131.5)" s:width="30" s:height="40" id="cell_infuze1">
    <text x="15" y="-4" class="nodelabel cell_infuze1" s:attribute="ref">INFUZER</text>
    <rect width="30" height="80" s:generic="body" class="cell_infuze1"/>
    <g transform="translate(0,10)" s:x="0" s:y="10" s:pid="in0" id="port_infuze1~Clk">
      <text x="-3" y="-4" class="inputPortLabel cell_infuze1">Clk</text>
    </g>
    <g transform="translate(0,30)" s:x="0" s:y="10" s:pid="in0" id="port_infuze1~color_data">
      <text x="-3" y="-4" class="inputPortLabel cell_infuze1">color_data</text>
    </g>
    <g transform="translate(0,50)" s:x="0" s:y="10" s:pid="in0" id="port_infuze1~frame_data">
      <text x="-3" y="-4" class="inputPortLabel cell_infuze1">frame_data</text>
    </g>
    <g transform="translate(0,70)" s:x="0" s:y="10" s:pid="in0" id="port_infuze1~s_col">
      <text x="-3" y="-4" class="inputPortLabel cell_infuze1">s_col</text>
    </g>
    <g transform="translate(30,10)" s:x="30" s:y="10" s:pid="out0" id="port_infuze1~B">
      <text x="5" y="-4" style="fill:#000; stroke:none" class="cell_infuze1">B</text>
    </g>
    <g transform="translate(30,30)" s:x="30" s:y="10" s:pid="out0" id="port_infuze1~G">
      <text x="5" y="-4" style="fill:#000; stroke:none" class="cell_infuze1">G</text>
    </g>
    <g transform="translate(30,50)" s:x="30" s:y="10" s:pid="out0" id="port_infuze1~R">
      <text x="5" y="-4" style="fill:#000; stroke:none" class="cell_infuze1">R</text>
    </g>
  </g>
  <g s:type="generic" transform="translate(512,111.5)" s:width="30" s:height="40" id="cell_vga1">
    <text x="15" y="-4" class="nodelabel cell_vga1" s:attribute="ref">VGA</text>
    <rect width="30" height="140" s:generic="body" class="cell_vga1"/>
    <g transform="translate(0,10)" s:x="0" s:y="10" s:pid="in0" id="port_vga1~Clk">
      <text x="-3" y="-4" class="inputPortLabel cell_vga1">Clk</text>
    </g>
    <g transform="translate(0,30)" s:x="0" s:y="10" s:pid="in0" id="port_vga1~b_in">
      <text x="-3" y="-4" class="inputPortLabel cell_vga1">b_in</text>
    </g>
    <g transform="translate(0,50)" s:x="0" s:y="10" s:pid="in0" id="port_vga1~g_in">
      <text x="-3" y="-4" class="inputPortLabel cell_vga1">g_in</text>
    </g>
    <g transform="translate(0,70)" s:x="0" s:y="10" s:pid="in0" id="port_vga1~r_in">
      <text x="-3" y="-4" class="inputPortLabel cell_vga1">r_in</text>
    </g>
    <g transform="translate(30,10)" s:x="30" s:y="10" s:pid="out0" id="port_vga1~HSYNC">
      <text x="5" y="-4" style="fill:#000; stroke:none" class="cell_vga1">HSYNC</text>
    </g>
    <g transform="translate(30,30)" s:x="30" s:y="10" s:pid="out0" id="port_vga1~VSYNC">
      <text x="5" y="-4" style="fill:#000; stroke:none" class="cell_vga1">VSYNC</text>
    </g>
    <g transform="translate(30,50)" s:x="30" s:y="10" s:pid="out0" id="port_vga1~b_out">
      <text x="5" y="-4" style="fill:#000; stroke:none" class="cell_vga1">b_out</text>
    </g>
    <g transform="translate(30,70)" s:x="30" s:y="10" s:pid="out0" id="port_vga1~g_out">
      <text x="5" y="-4" style="fill:#000; stroke:none" class="cell_vga1">g_out</text>
    </g>
    <g transform="translate(30,90)" s:x="30" s:y="10" s:pid="out0" id="port_vga1~r_out">
      <text x="5" y="-4" style="fill:#000; stroke:none" class="cell_vga1">r_out</text>
    </g>
    <g transform="translate(30,110)" s:x="30" s:y="10" s:pid="out0" id="port_vga1~s_col">
      <text x="5" y="-4" style="fill:#000; stroke:none" class="cell_vga1">s_col</text>
    </g>
    <g transform="translate(30,130)" s:x="30" s:y="10" s:pid="out0" id="port_vga1~s_row">
      <text x="5" y="-4" style="fill:#000; stroke:none" class="cell_vga1">s_row</text>
    </g>
  </g>
  <g s:type="outputExt" transform="translate(624,22)" s:width="30" s:height="20" id="cell_HSYNC">
    <text x="15" y="-4" class="nodelabel cell_HSYNC" s:attribute="ref">HSYNC</text>
    <s:alias val="$_outputExt_"/>
    <path d="M30,0 L30,20 L15,20 L0,10 L15,0 Z" class="cell_HSYNC"/>
    <g s:x="0" s:y="10" s:pid="A"/>
  </g>
  <g s:type="outputExt" transform="translate(624,87)" s:width="30" s:height="20" id="cell_VSYNC">
    <text x="15" y="-4" class="nodelabel cell_VSYNC" s:attribute="ref">VSYNC</text>
    <s:alias val="$_outputExt_"/>
    <path d="M30,0 L30,20 L15,20 L0,10 L15,0 Z" class="cell_VSYNC"/>
    <g s:x="0" s:y="10" s:pid="A"/>
  </g>
  <g s:type="outputExt" transform="translate(624,282)" s:width="30" s:height="20" id="cell_r_out">
    <text x="15" y="-4" class="nodelabel cell_r_out" s:attribute="ref">r_out</text>
    <s:alias val="$_outputExt_"/>
    <path d="M30,0 L30,20 L15,20 L0,10 L15,0 Z" class="cell_r_out"/>
    <g s:x="0" s:y="10" s:pid="A"/>
  </g>
  <g s:type="outputExt" transform="translate(624,152)" s:width="30" s:height="20" id="cell_b_out">
    <text x="15" y="-4" class="nodelabel cell_b_out" s:attribute="ref">b_out</text>
    <s:alias val="$_outputExt_"/>
    <path d="M30,0 L30,20 L15,20 L0,10 L15,0 Z" class="cell_b_out"/>
    <g s:x="0" s:y="10" s:pid="A"/>
  </g>
  <g s:type="outputExt" transform="translate(624,217)" s:width="30" s:height="20" id="cell_g_out">
    <text x="15" y="-4" class="nodelabel cell_g_out" s:attribute="ref">g_out</text>
    <s:alias val="$_outputExt_"/>
    <path d="M30,0 L30,20 L15,20 L0,10 L15,0 Z" class="cell_g_out"/>
    <g s:x="0" s:y="10" s:pid="A"/>
  </g>
  <line x1="543" x2="594" y1="222" y2="222" class="net_35,36,37,38,39,40,41,42,43,44"/>
  <line x1="594" x2="594" y1="222" y2="275.5" class="net_35,36,37,38,39,40,41,42,43,44"/>
  <line x1="594" x2="12" y1="275.5" y2="275.5" class="net_35,36,37,38,39,40,41,42,43,44"/>
  <line x1="12" x2="12" y1="275.5" y2="162" class="net_35,36,37,38,39,40,41,42,43,44"/>
  <line x1="12" x2="73" y1="162" y2="162" class="net_35,36,37,38,39,40,41,42,43,44"/>
  <line x1="543" x2="594" y1="222" y2="222" class="net_35,36,37,38,39,40,41,42,43,44"/>
  <line x1="594" x2="594" y1="222" y2="275.5" class="net_35,36,37,38,39,40,41,42,43,44"/>
  <line x1="594" x2="324" y1="275.5" y2="275.5" class="net_35,36,37,38,39,40,41,42,43,44"/>
  <line x1="324" x2="324" y1="275.5" y2="202" class="net_35,36,37,38,39,40,41,42,43,44"/>
  <circle cx="324" cy="275.5" r="2" style="fill:#000" class="net_35,36,37,38,39,40,41,42,43,44"/>
  <line x1="324" x2="410" y1="202" y2="202" class="net_35,36,37,38,39,40,41,42,43,44"/>
  <line x1="543" x2="584" y1="242" y2="242" class="net_45,46,47,48,49,50,51,52,53,54"/>
  <line x1="584" x2="584" y1="242" y2="264.5" class="net_45,46,47,48,49,50,51,52,53,54"/>
  <line x1="584" x2="22" y1="264.5" y2="264.5" class="net_45,46,47,48,49,50,51,52,53,54"/>
  <line x1="22" x2="22" y1="264.5" y2="182" class="net_45,46,47,48,49,50,51,52,53,54"/>
  <line x1="22" x2="73" y1="182" y2="182" class="net_45,46,47,48,49,50,51,52,53,54"/>
  <line x1="104" x2="236" y1="74" y2="74" class="net_55"/>
  <line x1="104" x2="195" y1="74" y2="74" class="net_55"/>
  <line x1="195" x2="195" y1="74" y2="182" class="net_55"/>
  <circle cx="195" cy="74" r="2" style="fill:#000" class="net_55"/>
  <line x1="195" x2="236" y1="182" y2="182" class="net_55"/>
  <line x1="104" x2="195" y1="74" y2="74" class="net_55"/>
  <line x1="195" x2="195" y1="74" y2="42.5" class="net_55"/>
  <line x1="195" x2="334" y1="42.5" y2="42.5" class="net_55"/>
  <line x1="334" x2="334" y1="42.5" y2="142" class="net_55"/>
  <circle cx="334" cy="42.5" r="2" style="fill:#000" class="net_55"/>
  <line x1="334" x2="410" y1="142" y2="142" class="net_55"/>
  <line x1="104" x2="195" y1="74" y2="74" class="net_55"/>
  <line x1="195" x2="195" y1="74" y2="42.5" class="net_55"/>
  <line x1="195" x2="462" y1="42.5" y2="42.5" class="net_55"/>
  <line x1="462" x2="462" y1="42.5" y2="122" class="net_55"/>
  <line x1="462" x2="512" y1="122" y2="122" class="net_55"/>
  <line x1="104" x2="175" y1="162" y2="162" class="net_7,8,9,10,11,12,13,14,15,16,17,18,19"/>
  <line x1="175" x2="175" y1="162" y2="94" class="net_7,8,9,10,11,12,13,14,15,16,17,18,19"/>
  <line x1="175" x2="236" y1="94" y2="94" class="net_7,8,9,10,11,12,13,14,15,16,17,18,19"/>
  <line x1="104" x2="185" y1="182" y2="182" class="net_20"/>
  <line x1="185" x2="185" y1="182" y2="114" class="net_20"/>
  <line x1="185" x2="236" y1="114" y2="114" class="net_20"/>
  <line x1="104" x2="236" y1="202" y2="202" class="net_21,22,23,24,25,26,27,28,29,30,31,32,33"/>
  <line x1="104" x2="236" y1="222" y2="222" class="net_34"/>
  <line x1="267" x2="324" y1="74" y2="74" class="net_56,57,58,59,60,61,62,63"/>
  <line x1="324" x2="324" y1="74" y2="162" class="net_56,57,58,59,60,61,62,63"/>
  <line x1="324" x2="410" y1="162" y2="162" class="net_56,57,58,59,60,61,62,63"/>
  <line x1="267" x2="410" y1="182" y2="182" class="net_64,65,66,67,68,69,70,71"/>
  <line x1="441" x2="512" y1="142" y2="142" class="net_72"/>
  <line x1="441" x2="512" y1="162" y2="162" class="net_73"/>
  <line x1="441" x2="512" y1="182" y2="182" class="net_74"/>
  <line x1="543" x2="584" y1="122" y2="122" class="net_2"/>
  <line x1="584" x2="584" y1="122" y2="32" class="net_2"/>
  <line x1="584" x2="624" y1="32" y2="32" class="net_2"/>
  <line x1="543" x2="594" y1="142" y2="142" class="net_3"/>
  <line x1="594" x2="594" y1="142" y2="97" class="net_3"/>
  <line x1="594" x2="624" y1="97" y2="97" class="net_3"/>
  <line x1="543" x2="604" y1="202" y2="202" class="net_4"/>
  <line x1="604" x2="604" y1="202" y2="292" class="net_4"/>
  <line x1="604" x2="624" y1="292" y2="292" class="net_4"/>
  <line x1="543" x2="624" y1="162" y2="162" class="net_5"/>
  <line x1="543" x2="614" y1="182" y2="182" class="net_6"/>
  <line x1="614" x2="614" y1="182" y2="227" class="net_6"/>
  <line x1="614" x2="624" y1="227" y2="227" class="net_6"/>
</svg>
