<svg xmlns="http://www.w3.org/2000/svg" xmlns:xlink="http://www.w3.org/1999/xlink" xmlns:s="https://github.com/nturley/netlistsvg" width="1251" height="852">
  <style>svg {
    stroke:#000;
    fill:none;
  }
  text {
    fill:#000;
    stroke:none;
    font-size:10px;
    font-weight: bold;
    font-family: "Courier New", monospace;
  }
  .nodelabel {
    text-anchor: middle;
  }
  .inputPortLabel {
    text-anchor: end;
  }
  .splitjoinBody {
    fill:#000;
  }</style>
  <g s:type="add" transform="translate(784,117.5)" s:width="25" s:height="25" id="cell_\25">
    <s:alias val="$add"/>
    <circle r="12.5" cx="12.5" cy="12.5" class="cell_\25"/>
    <line x1="7.5" x2="17.5" y1="12.5" y2="12.5" class="cell_\25"/>
    <line x1="12.5" x2="12.5" y1="7.5" y2="17.5" class="cell_\25"/>
    <g s:x="3" s:y="5" s:pid="A"/>
    <g s:x="3" s:y="20" s:pid="B"/>
    <g s:x="25" s:y="12.5" s:pid="Y"/>
  </g>
  <g s:type="dff" transform="translate(878.25,120)" s:width="30" s:height="40" id="cell_\30">
    <s:alias val="$dff"/>
    <s:alias val="$_DFF_"/>
    <rect width="30" height="40" x="0" y="0" class="cell_\30"/>
    <path d="M0,35 L5,30 L0,25" class="cell_\30"/>
    <g s:x="30" s:y="10" s:pid="Q"/>
    <g s:x="0" s:y="30" s:pid="CLK"/>
    <g s:x="0" s:y="10" s:pid="D"/>
  </g>
  <g s:type="not" transform="translate(1051.5,789)" s:width="30" s:height="20" id="cell_\34">
    <s:alias val="$_NOT_"/>
    <s:alias val="$not"/>
    <path d="M0,0 L0,20 L20,10 Z" class="cell_\34"/>
    <circle cx="23" cy="10" r="3" class="cell_\34"/>
    <g s:x="0" s:y="10" s:pid="A"/>
    <g s:x="25" s:y="10" s:pid="Y"/>
  </g>
  <g s:type="and" transform="translate(1176,779)" s:width="30" s:height="25" id="cell_\35">
    <s:alias val="$and"/>
    <s:alias val="$logic_and"/>
    <s:alias val="$_AND_"/>
    <path d="M0,0 L0,25 L15,25 A15 12.5 0 0 0 15,0 Z" class="cell_\35"/>
    <g s:x="0" s:y="5" s:pid="A"/>
    <g s:x="0" s:y="20" s:pid="B"/>
    <g s:x="30" s:y="12.5" s:pid="Y"/>
  </g>
  <g s:type="generic" transform="translate(1176,97)" s:width="30" s:height="40" id="cell_\39">
    <text x="15" y="-4" class="nodelabel cell_\39" s:attribute="ref">$logic_not</text>
    <rect width="30" height="20" s:generic="body" class="cell_\39"/>
    <g transform="translate(0,10)" s:x="0" s:y="10" s:pid="in0" id="port_\39~A">
      <text x="-3" y="-4" class="inputPortLabel cell_\39">A</text>
    </g>
    <g transform="translate(30,10)" s:x="30" s:y="10" s:pid="out0" id="port_\39~Y">
      <text x="5" y="-4" style="fill:#000; stroke:none" class="cell_\39">Y</text>
    </g>
  </g>
  <g s:type="and" transform="translate(229,619.5)" s:width="30" s:height="25" id="cell_\40">
    <s:alias val="$and"/>
    <s:alias val="$logic_and"/>
    <s:alias val="$_AND_"/>
    <path d="M0,0 L0,25 L15,25 A15 12.5 0 0 0 15,0 Z" class="cell_\40"/>
    <g s:x="0" s:y="5" s:pid="A"/>
    <g s:x="0" s:y="20" s:pid="B"/>
    <g s:x="30" s:y="12.5" s:pid="Y"/>
  </g>
  <g s:type="generic" transform="translate(641,663)" s:width="30" s:height="40" id="cell_\43">
    <text x="15" y="-4" class="nodelabel cell_\43" s:attribute="ref">$logic_not</text>
    <rect width="30" height="20" s:generic="body" class="cell_\43"/>
    <g transform="translate(0,10)" s:x="0" s:y="10" s:pid="in0" id="port_\43~A">
      <text x="-3" y="-4" class="inputPortLabel cell_\43">A</text>
    </g>
    <g transform="translate(30,10)" s:x="30" s:y="10" s:pid="out0" id="port_\43~Y">
      <text x="5" y="-4" style="fill:#000; stroke:none" class="cell_\43">Y</text>
    </g>
  </g>
  <g s:type="eq" transform="translate(341.66666666666663,536)" s:width="25" s:height="25" id="cell_\46">
    <s:alias val="$eq"/>
    <circle r="12.5" cx="12.5" cy="12.5" class="cell_\46"/>
    <line x1="7.5" x2="17.5" y1="10" y2="10" class="cell_\46"/>
    <line x1="7.5" x2="17.5" y1="15" y2="15" class="cell_\46"/>
    <g s:x="3" s:y="5" s:pid="A"/>
    <g s:x="3" s:y="20" s:pid="B"/>
    <g s:x="25" s:y="12.5" s:pid="Y"/>
  </g>
  <g s:type="add" transform="translate(505.6666666666667,441)" s:width="25" s:height="25" id="cell_\49">
    <s:alias val="$add"/>
    <circle r="12.5" cx="12.5" cy="12.5" class="cell_\49"/>
    <line x1="7.5" x2="17.5" y1="12.5" y2="12.5" class="cell_\49"/>
    <line x1="12.5" x2="12.5" y1="7.5" y2="17.5" class="cell_\49"/>
    <g s:x="3" s:y="5" s:pid="A"/>
    <g s:x="3" s:y="20" s:pid="B"/>
    <g s:x="25" s:y="12.5" s:pid="Y"/>
  </g>
  <g s:type="sub" transform="translate(570.6666666666667,448.5)" s:width="25" s:height="25" id="cell_\51">
    <s:alias val="$sub"/>
    <circle r="12.5" cx="12.5" cy="12.5" class="cell_\51"/>
    <line x1="7.5" x2="17.5" y1="12.5" y2="12.5" class="cell_\51"/>
    <g s:x="3" s:y="5" s:pid="A"/>
    <g s:x="3" s:y="20" s:pid="B"/>
    <g s:x="25" s:y="12.5" s:pid="Y"/>
  </g>
  <g s:type="mux" transform="translate(644.6666666666667,451)" s:width="20" s:height="40" id="cell_\53">
    <s:alias val="$pmux"/>
    <s:alias val="$mux"/>
    <s:alias val="$_MUX_"/>
    <path d="M0,0 L20,10 L20,30 L0,40 Z" class="cell_\53"/>
    <g s:x="0" s:y="10" s:pid="A"/>
    <g s:x="0" s:y="30" s:pid="B"/>
    <g s:x="10" s:y="35" s:pid="S"/>
    <g s:x="20" s:y="20" s:pid="Y"/>
  </g>
  <g s:type="mux" transform="translate(717.3333333333334,461)" s:width="20" s:height="40" id="cell_\55">
    <s:alias val="$pmux"/>
    <s:alias val="$mux"/>
    <s:alias val="$_MUX_"/>
    <path d="M0,0 L20,10 L20,30 L0,40 Z" class="cell_\55"/>
    <g s:x="0" s:y="10" s:pid="A"/>
    <g s:x="0" s:y="30" s:pid="B"/>
    <g s:x="10" s:y="35" s:pid="S"/>
    <g s:x="20" s:y="20" s:pid="Y"/>
  </g>
  <g s:type="add" transform="translate(232.33333333333331,679.5)" s:width="25" s:height="25" id="cell_\57">
    <s:alias val="$add"/>
    <circle r="12.5" cx="12.5" cy="12.5" class="cell_\57"/>
    <line x1="7.5" x2="17.5" y1="12.5" y2="12.5" class="cell_\57"/>
    <line x1="12.5" x2="12.5" y1="7.5" y2="17.5" class="cell_\57"/>
    <g s:x="3" s:y="5" s:pid="A"/>
    <g s:x="3" s:y="20" s:pid="B"/>
    <g s:x="25" s:y="12.5" s:pid="Y"/>
  </g>
  <g s:type="mux" transform="translate(882.6666666666666,255)" s:width="20" s:height="40" id="cell_\60">
    <s:alias val="$pmux"/>
    <s:alias val="$mux"/>
    <s:alias val="$_MUX_"/>
    <path d="M0,0 L20,10 L20,30 L0,40 Z" class="cell_\60"/>
    <g s:x="0" s:y="10" s:pid="A"/>
    <g s:x="0" s:y="30" s:pid="B"/>
    <g s:x="10" s:y="35" s:pid="S"/>
    <g s:x="20" s:y="20" s:pid="Y"/>
  </g>
  <g s:type="mux" transform="translate(886,180)" s:width="20" s:height="40" id="cell_\62">
    <s:alias val="$pmux"/>
    <s:alias val="$mux"/>
    <s:alias val="$_MUX_"/>
    <path d="M0,0 L20,10 L20,30 L0,40 Z" class="cell_\62"/>
    <g s:x="0" s:y="10" s:pid="A"/>
    <g s:x="0" s:y="30" s:pid="B"/>
    <g s:x="10" s:y="35" s:pid="S"/>
    <g s:x="20" s:y="20" s:pid="Y"/>
  </g>
  <g s:type="mux" transform="translate(787.3333333333334,451)" s:width="20" s:height="40" id="cell_\63">
    <s:alias val="$pmux"/>
    <s:alias val="$mux"/>
    <s:alias val="$_MUX_"/>
    <path d="M0,0 L20,10 L20,30 L0,40 Z" class="cell_\63"/>
    <g s:x="0" s:y="10" s:pid="A"/>
    <g s:x="0" s:y="30" s:pid="B"/>
    <g s:x="10" s:y="35" s:pid="S"/>
    <g s:x="20" s:y="20" s:pid="Y"/>
  </g>
  <g s:type="mux" transform="translate(785.6666666666666,706)" s:width="20" s:height="40" id="cell_\66">
    <s:alias val="$pmux"/>
    <s:alias val="$mux"/>
    <s:alias val="$_MUX_"/>
    <path d="M0,0 L20,10 L20,30 L0,40 Z" class="cell_\66"/>
    <g s:x="0" s:y="10" s:pid="A"/>
    <g s:x="0" s:y="30" s:pid="B"/>
    <g s:x="10" s:y="35" s:pid="S"/>
    <g s:x="20" s:y="20" s:pid="Y"/>
  </g>
  <g s:type="mux" transform="translate(345,582)" s:width="20" s:height="40" id="cell_\67">
    <s:alias val="$pmux"/>
    <s:alias val="$mux"/>
    <s:alias val="$_MUX_"/>
    <path d="M0,0 L20,10 L20,30 L0,40 Z" class="cell_\67"/>
    <g s:x="0" s:y="10" s:pid="A"/>
    <g s:x="0" s:y="30" s:pid="B"/>
    <g s:x="10" s:y="35" s:pid="S"/>
    <g s:x="20" s:y="20" s:pid="Y"/>
  </g>
  <g s:type="dff" transform="translate(1056.3333333333335,265)" s:width="30" s:height="40" id="cell_\84">
    <s:alias val="$dff"/>
    <s:alias val="$_DFF_"/>
    <rect width="30" height="40" x="0" y="0" class="cell_\84"/>
    <path d="M0,35 L5,30 L0,25" class="cell_\84"/>
    <g s:x="30" s:y="10" s:pid="Q"/>
    <g s:x="0" s:y="30" s:pid="CLK"/>
    <g s:x="0" s:y="10" s:pid="D"/>
  </g>
  <g s:type="dff" transform="translate(1058.75,190)" s:width="30" s:height="40" id="cell_\85">
    <s:alias val="$dff"/>
    <s:alias val="$_DFF_"/>
    <rect width="30" height="40" x="0" y="0" class="cell_\85"/>
    <path d="M0,35 L5,30 L0,25" class="cell_\85"/>
    <g s:x="30" s:y="10" s:pid="Q"/>
    <g s:x="0" s:y="30" s:pid="CLK"/>
    <g s:x="0" s:y="10" s:pid="D"/>
  </g>
  <g s:type="dff" transform="translate(878.25,461)" s:width="30" s:height="40" id="cell_\86">
    <s:alias val="$dff"/>
    <s:alias val="$_DFF_"/>
    <rect width="30" height="40" x="0" y="0" class="cell_\86"/>
    <path d="M0,35 L5,30 L0,25" class="cell_\86"/>
    <g s:x="30" s:y="10" s:pid="Q"/>
    <g s:x="0" s:y="30" s:pid="CLK"/>
    <g s:x="0" s:y="10" s:pid="D"/>
  </g>
  <g s:type="dff" transform="translate(879.3333333333334,789)" s:width="30" s:height="40" id="cell_\87">
    <s:alias val="$dff"/>
    <s:alias val="$_DFF_"/>
    <rect width="30" height="40" x="0" y="0" class="cell_\87"/>
    <path d="M0,35 L5,30 L0,25" class="cell_\87"/>
    <g s:x="30" s:y="10" s:pid="Q"/>
    <g s:x="0" s:y="30" s:pid="CLK"/>
    <g s:x="0" s:y="10" s:pid="D"/>
  </g>
  <g s:type="dff" transform="translate(439,592)" s:width="30" s:height="40" id="cell_\88">
    <s:alias val="$dff"/>
    <s:alias val="$_DFF_"/>
    <rect width="30" height="40" x="0" y="0" class="cell_\88"/>
    <path d="M0,35 L5,30 L0,25" class="cell_\88"/>
    <g s:x="30" s:y="10" s:pid="Q"/>
    <g s:x="0" s:y="30" s:pid="CLK"/>
    <g s:x="0" s:y="10" s:pid="D"/>
  </g>
  <g s:type="generic" transform="translate(342,374.5)" s:width="30" s:height="40" id="cell_dut1">
    <text x="15" y="-4" class="nodelabel cell_dut1" s:attribute="ref">SB_HFOSC</text>
    <rect width="30" height="40" s:generic="body" class="cell_dut1"/>
    <g transform="translate(0,10)" s:x="0" s:y="10" s:pid="in0" id="port_dut1~CLKHFEN">
      <text x="-3" y="-4" class="inputPortLabel cell_dut1">CLKHFEN</text>
    </g>
    <g transform="translate(0,30)" s:x="0" s:y="10" s:pid="in0" id="port_dut1~CLKHFPU">
      <text x="-3" y="-4" class="inputPortLabel cell_dut1">CLKHFPU</text>
    </g>
    <g transform="translate(30,10)" s:x="30" s:y="10" s:pid="out0" id="port_dut1~CLKHF">
      <text x="5" y="-4" style="fill:#000; stroke:none" class="cell_dut1">CLKHF</text>
    </g>
  </g>
  <g s:type="generic" transform="translate(875,374.5)" s:width="30" s:height="40" id="cell_dut2">
    <text x="15" y="-4" class="nodelabel cell_dut2" s:attribute="ref">divide_by_n_48</text>
    <rect width="30" height="40" s:generic="body" class="cell_dut2"/>
    <g transform="translate(0,10)" s:x="0" s:y="10" s:pid="in0" id="port_dut2~clk">
      <text x="-3" y="-4" class="inputPortLabel cell_dut2">clk</text>
    </g>
    <g transform="translate(0,30)" s:x="0" s:y="10" s:pid="in0" id="port_dut2~reset">
      <text x="-3" y="-4" class="inputPortLabel cell_dut2">reset</text>
    </g>
    <g transform="translate(30,10)" s:x="30" s:y="10" s:pid="out0" id="port_dut2~sig_out">
      <text x="5" y="-4" style="fill:#000; stroke:none" class="cell_dut2">sig_out</text>
    </g>
  </g>
  <g s:type="generic" transform="translate(1066,374.5)" s:width="30" s:height="40" id="cell_dut3">
    <text x="15" y="-4" class="nodelabel cell_dut3" s:attribute="ref">uart_tx</text>
    <rect width="30" height="100" s:generic="body" class="cell_dut3"/>
    <g transform="translate(0,10)" s:x="0" s:y="10" s:pid="in0" id="port_dut3~baud_x1">
      <text x="-3" y="-4" class="inputPortLabel cell_dut3">baud_x1</text>
    </g>
    <g transform="translate(0,30)" s:x="0" s:y="10" s:pid="in0" id="port_dut3~data">
      <text x="-3" y="-4" class="inputPortLabel cell_dut3">data</text>
    </g>
    <g transform="translate(0,50)" s:x="0" s:y="10" s:pid="in0" id="port_dut3~data_strobe">
      <text x="-3" y="-4" class="inputPortLabel cell_dut3">data_strobe</text>
    </g>
    <g transform="translate(0,70)" s:x="0" s:y="10" s:pid="in0" id="port_dut3~mclk">
      <text x="-3" y="-4" class="inputPortLabel cell_dut3">mclk</text>
    </g>
    <g transform="translate(0,90)" s:x="0" s:y="10" s:pid="in0" id="port_dut3~reset">
      <text x="-3" y="-4" class="inputPortLabel cell_dut3">reset</text>
    </g>
    <g transform="translate(30,10)" s:x="30" s:y="10" s:pid="out0" id="port_dut3~ready">
      <text x="5" y="-4" style="fill:#000; stroke:none" class="cell_dut3">ready</text>
    </g>
    <g transform="translate(30,30)" s:x="30" s:y="10" s:pid="out0" id="port_dut3~serial">
      <text x="5" y="-4" style="fill:#000; stroke:none" class="cell_dut3">serial</text>
    </g>
  </g>
  <g s:type="inputExt" transform="translate(12,22)" s:width="30" s:height="20" id="cell_serial_rxd">
    <text x="15" y="-4" class="nodelabel cell_serial_rxd" s:attribute="ref">serial_rxd</text>
    <s:alias val="$_inputExt_"/>
    <path d="M0,0 L0,20 L15,20 L30,10 L15,0 Z" class="cell_serial_rxd"/>
    <g s:x="28" s:y="10" s:pid="Y"/>
  </g>
  <g s:type="outputExt" transform="translate(1176,265)" s:width="30" s:height="20" id="cell_led_r">
    <text x="15" y="-4" class="nodelabel cell_led_r" s:attribute="ref">led_r</text>
    <s:alias val="$_outputExt_"/>
    <path d="M30,0 L30,20 L15,20 L0,10 L15,0 Z" class="cell_led_r"/>
    <g s:x="0" s:y="10" s:pid="A"/>
  </g>
  <g s:type="outputExt" transform="translate(1176,190)" s:width="30" s:height="20" id="cell_led_g">
    <text x="15" y="-4" class="nodelabel cell_led_g" s:attribute="ref">led_g</text>
    <s:alias val="$_outputExt_"/>
    <path d="M30,0 L30,20 L15,20 L0,10 L15,0 Z" class="cell_led_g"/>
    <g s:x="0" s:y="10" s:pid="A"/>
  </g>
  <g s:type="outputExt" transform="translate(107,22)" s:width="30" s:height="20" id="cell_led_b">
    <text x="15" y="-4" class="nodelabel cell_led_b" s:attribute="ref">led_b</text>
    <s:alias val="$_outputExt_"/>
    <path d="M30,0 L30,20 L15,20 L0,10 L15,0 Z" class="cell_led_b"/>
    <g s:x="0" s:y="10" s:pid="A"/>
  </g>
  <g s:type="outputExt" transform="translate(1169,395)" s:width="30" s:height="20" id="cell_serial_txd">
    <text x="15" y="-4" class="nodelabel cell_serial_txd" s:attribute="ref">serial_txd</text>
    <s:alias val="$_outputExt_"/>
    <path d="M30,0 L30,20 L15,20 L0,10 L15,0 Z" class="cell_serial_txd"/>
    <g s:x="0" s:y="10" s:pid="A"/>
  </g>
  <g s:type="outputExt" transform="translate(1176,32)" s:width="30" s:height="20" id="cell_spi_cs">
    <text x="15" y="-4" class="nodelabel cell_spi_cs" s:attribute="ref">spi_cs</text>
    <s:alias val="$_outputExt_"/>
    <path d="M30,0 L30,20 L15,20 L0,10 L15,0 Z" class="cell_spi_cs"/>
    <g s:x="0" s:y="10" s:pid="A"/>
  </g>
  <g s:type="outputExt" transform="translate(1176,330)" s:width="30" s:height="20" id="cell_gpio_2">
    <text x="15" y="-4" class="nodelabel cell_gpio_2" s:attribute="ref">gpio_2</text>
    <s:alias val="$_outputExt_"/>
    <path d="M30,0 L30,20 L15,20 L0,10 L15,0 Z" class="cell_gpio_2"/>
    <g s:x="0" s:y="10" s:pid="A"/>
  </g>
  <g s:type="constant" transform="translate(149,255)" s:width="30" s:height="20" id="cell_1">
    <text x="15" y="-4" class="nodelabel cell_1" s:attribute="ref">1</text>
    <s:alias val="$_constant_"/>
    <rect width="30" height="20" class="cell_1"/>
    <g s:x="30" s:y="10" s:pid="Y"/>
  </g>
  <g s:type="constant" transform="translate(439,436)" s:width="30" s:height="20" id="cell_1000001">
    <text x="15" y="-4" class="nodelabel cell_1000001" s:attribute="ref">0x41</text>
    <s:alias val="$_constant_"/>
    <rect width="30" height="20" class="cell_1000001"/>
    <g s:x="30" s:y="10" s:pid="Y"/>
  </g>
  <g s:type="constant" transform="translate(504,511)" s:width="30" s:height="20" id="cell_10">
    <text x="15" y="-4" class="nodelabel cell_10" s:attribute="ref">10</text>
    <s:alias val="$_constant_"/>
    <rect width="30" height="20" class="cell_10"/>
    <g s:x="30" s:y="10" s:pid="Y"/>
  </g>
  <g s:type="constant" transform="translate(569,518.5)" s:width="30" s:height="20" id="cell_00001010">
    <text x="15" y="-4" class="nodelabel cell_00001010" s:attribute="ref">0xa</text>
    <s:alias val="$_constant_"/>
    <rect width="30" height="20" class="cell_00001010"/>
    <g s:x="30" s:y="10" s:pid="Y"/>
  </g>
  <g s:type="constant" transform="translate(641,568.5)" s:width="30" s:height="20" id="cell_00001101">
    <text x="15" y="-4" class="nodelabel cell_00001101" s:attribute="ref">0xd</text>
    <s:alias val="$_constant_"/>
    <rect width="30" height="20" class="cell_00001101"/>
    <g s:x="30" s:y="10" s:pid="Y"/>
  </g>
  <g s:type="constant" transform="translate(714,406)" s:width="30" s:height="20" id="cell_0">
    <text x="15" y="-4" class="nodelabel cell_0" s:attribute="ref">0</text>
    <s:alias val="$_constant_"/>
    <rect width="30" height="20" class="cell_0"/>
    <g s:x="30" s:y="10" s:pid="Y"/>
  </g>
  <g s:type="split" transform="translate(1091,97)" s:width="5" s:height="40" id="cell_$split$,6,7,8,9,10,11,12,13,14,15,16,17,18,19,20,21,22,23,24,25,26,27,28,29,30,31,32,33,34,35,36,37,">
    <rect width="5" height="20" class="splitjoinBody" s:generic="body"/>
    <s:alias val="$_split_"/>
    <g s:x="0" s:y="20" s:pid="in"/>
    <g transform="translate(4,10)" s:x="4" s:y="10" s:pid="out0">
      <text x="5" y="-4">0:14</text>
    </g>
  </g>
  <line x1="908.25" x2="959" y1="130" y2="130" class="net_6,7,8,9,10,11,12,13,14,15,16,17,18,19,20,21,22,23,24,25,26,27,28,29,30,31,32,33,34,35,36,37"/>
  <line x1="959" x2="959" y1="130" y2="107.5" class="net_6,7,8,9,10,11,12,13,14,15,16,17,18,19,20,21,22,23,24,25,26,27,28,29,30,31,32,33,34,35,36,37"/>
  <line x1="959" x2="774" y1="107.5" y2="107.5" class="net_6,7,8,9,10,11,12,13,14,15,16,17,18,19,20,21,22,23,24,25,26,27,28,29,30,31,32,33,34,35,36,37"/>
  <line x1="774" x2="774" y1="107.5" y2="122.5" class="net_6,7,8,9,10,11,12,13,14,15,16,17,18,19,20,21,22,23,24,25,26,27,28,29,30,31,32,33,34,35,36,37"/>
  <circle cx="959" cy="130" r="2" style="fill:#000" class="net_6,7,8,9,10,11,12,13,14,15,16,17,18,19,20,21,22,23,24,25,26,27,28,29,30,31,32,33,34,35,36,37"/>
  <line x1="774" x2="787" y1="122.5" y2="122.5" class="net_6,7,8,9,10,11,12,13,14,15,16,17,18,19,20,21,22,23,24,25,26,27,28,29,30,31,32,33,34,35,36,37"/>
  <line x1="908.25" x2="1091.5" y1="130" y2="130" class="net_6,7,8,9,10,11,12,13,14,15,16,17,18,19,20,21,22,23,24,25,26,27,28,29,30,31,32,33,34,35,36,37"/>
  <line x1="1091.5" x2="1091.5" y1="130" y2="118" class="net_6,7,8,9,10,11,12,13,14,15,16,17,18,19,20,21,22,23,24,25,26,27,28,29,30,31,32,33,34,35,36,37"/>
  <line x1="179" x2="289" y1="265" y2="265" class="net_143"/>
  <line x1="289" x2="289" y1="265" y2="42" class="net_143"/>
  <line x1="289" x2="754" y1="42" y2="42" class="net_143"/>
  <line x1="754" x2="754" y1="42" y2="137.5" class="net_143"/>
  <circle cx="754" cy="42" r="2" style="fill:#000" class="net_143"/>
  <line x1="754" x2="787" y1="137.5" y2="137.5" class="net_143"/>
  <line x1="179" x2="289" y1="265" y2="265" class="net_143"/>
  <line x1="289" x2="289" y1="265" y2="556" class="net_143"/>
  <line x1="289" x2="344.66666666666663" y1="556" y2="556" class="net_143"/>
  <line x1="179" x2="199" y1="265" y2="265" class="net_143"/>
  <line x1="199" x2="199" y1="265" y2="699.5" class="net_143"/>
  <circle cx="199" cy="265" r="2" style="fill:#000" class="net_143"/>
  <circle cx="199" cy="699.5" r="2" style="fill:#000" class="net_143"/>
  <line x1="199" x2="235.33333333333331" y1="699.5" y2="699.5" class="net_143"/>
  <line x1="179" x2="882.6666666666666" y1="265" y2="265" class="net_143"/>
  <line x1="179" x2="199" y1="265" y2="265" class="net_143"/>
  <line x1="199" x2="199" y1="265" y2="736" class="net_143"/>
  <line x1="199" x2="785.6666666666666" y1="736" y2="736" class="net_143"/>
  <line x1="179" x2="289" y1="265" y2="265" class="net_143"/>
  <line x1="289" x2="289" y1="265" y2="385" class="net_143"/>
  <circle cx="289" cy="385" r="2" style="fill:#000" class="net_143"/>
  <line x1="289" x2="342" y1="385" y2="385" class="net_143"/>
  <line x1="179" x2="289" y1="265" y2="265" class="net_143"/>
  <line x1="289" x2="289" y1="265" y2="405" class="net_143"/>
  <circle cx="289" cy="405" r="2" style="fill:#000" class="net_143"/>
  <line x1="289" x2="342" y1="405" y2="405" class="net_143"/>
  <line x1="179" x2="289" y1="265" y2="265" class="net_143"/>
  <line x1="289" x2="289" y1="265" y2="42" class="net_143"/>
  <circle cx="289" cy="265" r="2" style="fill:#000" class="net_143"/>
  <line x1="289" x2="1176" y1="42" y2="42" class="net_143"/>
  <line x1="373" x2="414" y1="385" y2="385" class="net_70"/>
  <line x1="414" x2="414" y1="385" y2="152.5" class="net_70"/>
  <line x1="414" x2="819" y1="152.5" y2="152.5" class="net_70"/>
  <line x1="819" x2="819" y1="152.5" y2="150" class="net_70"/>
  <circle cx="414" cy="385" r="2" style="fill:#000" class="net_70"/>
  <line x1="819" x2="878.25" y1="150" y2="150" class="net_70"/>
  <line x1="373" x2="414" y1="385" y2="385" class="net_70"/>
  <line x1="414" x2="414" y1="385" y2="305" class="net_70"/>
  <line x1="414" x2="959" y1="305" y2="305" class="net_70"/>
  <line x1="959" x2="959" y1="305" y2="295" class="net_70"/>
  <circle cx="414" cy="305" r="2" style="fill:#000" class="net_70"/>
  <line x1="959" x2="1056.3333333333335" y1="295" y2="295" class="net_70"/>
  <line x1="373" x2="414" y1="385" y2="385" class="net_70"/>
  <line x1="414" x2="414" y1="385" y2="241" class="net_70"/>
  <line x1="414" x2="959" y1="241" y2="241" class="net_70"/>
  <line x1="959" x2="959" y1="241" y2="220" class="net_70"/>
  <circle cx="414" cy="241" r="2" style="fill:#000" class="net_70"/>
  <line x1="959" x2="1058.75" y1="220" y2="220" class="net_70"/>
  <line x1="373" x2="414" y1="385" y2="385" class="net_70"/>
  <line x1="414" x2="414" y1="385" y2="642" class="net_70"/>
  <line x1="414" x2="819" y1="642" y2="642" class="net_70"/>
  <line x1="819" x2="819" y1="642" y2="491" class="net_70"/>
  <circle cx="414" cy="642" r="2" style="fill:#000" class="net_70"/>
  <line x1="819" x2="878.25" y1="491" y2="491" class="net_70"/>
  <line x1="373" x2="414" y1="385" y2="385" class="net_70"/>
  <line x1="414" x2="414" y1="385" y2="767" class="net_70"/>
  <line x1="414" x2="754" y1="767" y2="767" class="net_70"/>
  <line x1="754" x2="754" y1="767" y2="819" class="net_70"/>
  <circle cx="754" cy="767" r="2" style="fill:#000" class="net_70"/>
  <line x1="754" x2="879.3333333333334" y1="819" y2="819" class="net_70"/>
  <line x1="373" x2="414" y1="385" y2="385" class="net_70"/>
  <line x1="414" x2="414" y1="385" y2="622" class="net_70"/>
  <circle cx="414" cy="622" r="2" style="fill:#000" class="net_70"/>
  <line x1="414" x2="439" y1="622" y2="622" class="net_70"/>
  <line x1="373" x2="875" y1="385" y2="385" class="net_70"/>
  <line x1="373" x2="414" y1="385" y2="385" class="net_70"/>
  <line x1="414" x2="414" y1="385" y2="767" class="net_70"/>
  <line x1="414" x2="969" y1="767" y2="767" class="net_70"/>
  <line x1="969" x2="969" y1="767" y2="445" class="net_70"/>
  <line x1="969" x2="1066" y1="445" y2="445" class="net_70"/>
  <line x1="809" x2="878.25" y1="130" y2="130" class="net_38,39,40,41,42,43,44,45,46,47,48,49,50,51,52,53,54,55,56,57,58,59,60,61,62,63,64,65,66,67,68,69"/>
  <line x1="909.3333333333334" x2="1051.5" y1="799" y2="799" class="net_71"/>
  <line x1="909.3333333333334" x2="979" y1="799" y2="799" class="net_71"/>
  <line x1="979" x2="979" y1="799" y2="425" class="net_71"/>
  <circle cx="979" cy="799" r="2" style="fill:#000" class="net_71"/>
  <line x1="979" x2="1066" y1="425" y2="425" class="net_71"/>
  <line x1="1097" x2="1144" y1="385" y2="385" class="net_73"/>
  <line x1="1144" x2="1144" y1="385" y2="784" class="net_73"/>
  <line x1="1144" x2="1176" y1="784" y2="784" class="net_73"/>
  <line x1="1076.5" x2="1176" y1="799" y2="799" class="net_72"/>
  <line x1="1096" x2="1176" y1="107.5" y2="107.5" class="net_6,7,8,9,10,11,12,13,14,15,16,17,18,19,20"/>
  <line x1="1206" x2="1239" y1="791.5" y2="791.5" class="net_74"/>
  <line x1="1239" x2="1239" y1="791.5" y2="839" class="net_74"/>
  <line x1="1239" x2="189" y1="839" y2="839" class="net_74"/>
  <line x1="189" x2="189" y1="839" y2="624.5" class="net_74"/>
  <line x1="189" x2="229" y1="624.5" y2="624.5" class="net_74"/>
  <line x1="1207" x2="1239" y1="107.5" y2="107.5" class="net_75"/>
  <line x1="1239" x2="1239" y1="107.5" y2="12" class="net_75"/>
  <line x1="1239" x2="219" y1="12" y2="12" class="net_75"/>
  <line x1="219" x2="219" y1="12" y2="639.5" class="net_75"/>
  <line x1="219" x2="229" y1="639.5" y2="639.5" class="net_75"/>
  <line x1="469" x2="479" y1="602" y2="602" class="net_77,78,79,80"/>
  <line x1="479" x2="479" y1="602" y2="673.5" class="net_77,78,79,80"/>
  <line x1="479" x2="641" y1="673.5" y2="673.5" class="net_77,78,79,80"/>
  <line x1="469" x2="479" y1="602" y2="602" class="net_77,78,79,80"/>
  <line x1="479" x2="479" y1="602" y2="571" class="net_77,78,79,80"/>
  <line x1="479" x2="279" y1="571" y2="571" class="net_77,78,79,80"/>
  <line x1="279" x2="279" y1="571" y2="541" class="net_77,78,79,80"/>
  <circle cx="279" cy="571" r="2" style="fill:#000" class="net_77,78,79,80"/>
  <line x1="279" x2="344.66666666666663" y1="541" y2="541" class="net_77,78,79,80"/>
  <line x1="469" x2="479" y1="602" y2="602" class="net_77,78,79,80"/>
  <line x1="479" x2="479" y1="602" y2="461" class="net_77,78,79,80"/>
  <line x1="479" x2="508.6666666666667" y1="461" y2="461" class="net_77,78,79,80"/>
  <line x1="469" x2="479" y1="602" y2="602" class="net_77,78,79,80"/>
  <line x1="479" x2="479" y1="602" y2="571" class="net_77,78,79,80"/>
  <line x1="479" x2="209" y1="571" y2="571" class="net_77,78,79,80"/>
  <line x1="209" x2="209" y1="571" y2="684.5" class="net_77,78,79,80"/>
  <circle cx="479" cy="571" r="2" style="fill:#000" class="net_77,78,79,80"/>
  <circle cx="479" cy="602" r="2" style="fill:#000" class="net_77,78,79,80"/>
  <line x1="209" x2="235.33333333333331" y1="684.5" y2="684.5" class="net_77,78,79,80"/>
  <line x1="469" x2="479" y1="602" y2="602" class="net_77,78,79,80"/>
  <line x1="479" x2="479" y1="602" y2="571" class="net_77,78,79,80"/>
  <line x1="479" x2="279" y1="571" y2="571" class="net_77,78,79,80"/>
  <line x1="279" x2="279" y1="571" y2="592" class="net_77,78,79,80"/>
  <line x1="279" x2="345" y1="592" y2="592" class="net_77,78,79,80"/>
  <line x1="469" x2="508.6666666666667" y1="446" y2="446" class="net_145,146,147,148,149,150,151"/>
  <line x1="530.6666666666667" x2="573.6666666666667" y1="453.5" y2="453.5" class="net_83,84,85,86,87,88,89,90"/>
  <line x1="534" x2="544" y1="521" y2="521" class="net_152,153"/>
  <line x1="544" x2="544" y1="521" y2="468.5" class="net_152,153"/>
  <line x1="544" x2="573.6666666666667" y1="468.5" y2="468.5" class="net_152,153"/>
  <line x1="595.6666666666667" x2="644.6666666666667" y1="461" y2="461" class="net_91,92,93,94,95,96,97,98"/>
  <line x1="599" x2="609" y1="528.5" y2="528.5" class="net_154,155,156,157,158,159,160,161"/>
  <line x1="609" x2="609" y1="528.5" y2="481" class="net_154,155,156,157,158,159,160,161"/>
  <line x1="609" x2="644.6666666666667" y1="481" y2="481" class="net_154,155,156,157,158,159,160,161"/>
  <line x1="366.66666666666663" x2="654.6666666666667" y1="548.5" y2="548.5" class="net_82"/>
  <line x1="654.6666666666667" x2="654.6666666666667" y1="548.5" y2="486" class="net_82"/>
  <line x1="664.6666666666667" x2="717.3333333333334" y1="471" y2="471" class="net_99,100,101,102,103,104,105,106"/>
  <line x1="671" x2="689" y1="578.5" y2="578.5" class="net_162,163,164,165,166,167,168,169"/>
  <line x1="689" x2="689" y1="578.5" y2="491" class="net_162,163,164,165,166,167,168,169"/>
  <line x1="689" x2="717.3333333333334" y1="491" y2="491" class="net_162,163,164,165,166,167,168,169"/>
  <line x1="672" x2="727.3333333333334" y1="673.5" y2="673.5" class="net_81"/>
  <line x1="727.3333333333334" x2="727.3333333333334" y1="673.5" y2="496" class="net_81"/>
  <line x1="744" x2="764" y1="416" y2="416" class="net_172"/>
  <line x1="764" x2="764" y1="416" y2="285" class="net_172"/>
  <circle cx="764" cy="416" r="2" style="fill:#000" class="net_172"/>
  <circle cx="764" cy="285" r="2" style="fill:#000" class="net_172"/>
  <line x1="764" x2="882.6666666666666" y1="285" y2="285" class="net_172"/>
  <line x1="744" x2="764" y1="416" y2="416" class="net_172"/>
  <line x1="764" x2="764" y1="416" y2="210" class="net_172"/>
  <line x1="764" x2="886" y1="210" y2="210" class="net_172"/>
  <line x1="744" x2="764" y1="416" y2="416" class="net_172"/>
  <line x1="764" x2="764" y1="416" y2="716" class="net_172"/>
  <circle cx="764" cy="716" r="2" style="fill:#000" class="net_172"/>
  <line x1="764" x2="785.6666666666666" y1="716" y2="716" class="net_172"/>
  <line x1="744" x2="819" y1="416" y2="416" class="net_172"/>
  <line x1="819" x2="819" y1="416" y2="405" class="net_172"/>
  <line x1="819" x2="875" y1="405" y2="405" class="net_172"/>
  <line x1="744" x2="764" y1="416" y2="416" class="net_172"/>
  <line x1="764" x2="764" y1="416" y2="778" class="net_172"/>
  <line x1="764" x2="989" y1="778" y2="778" class="net_172"/>
  <line x1="989" x2="989" y1="778" y2="465" class="net_172"/>
  <line x1="989" x2="1066" y1="465" y2="465" class="net_172"/>
  <line x1="259" x2="269" y1="632" y2="632" class="net_76"/>
  <line x1="269" x2="269" y1="632" y2="353.5" class="net_76"/>
  <line x1="269" x2="892.6666666666666" y1="353.5" y2="353.5" class="net_76"/>
  <circle cx="269" cy="632" r="2" style="fill:#000" class="net_76"/>
  <circle cx="269" cy="353.5" r="2" style="fill:#000" class="net_76"/>
  <line x1="892.6666666666666" x2="892.6666666666666" y1="353.5" y2="290" class="net_76"/>
  <line x1="259" x2="269" y1="632" y2="632" class="net_76"/>
  <line x1="269" x2="269" y1="632" y2="230" class="net_76"/>
  <line x1="269" x2="896" y1="230" y2="230" class="net_76"/>
  <line x1="896" x2="896" y1="230" y2="215" class="net_76"/>
  <line x1="259" x2="269" y1="632" y2="632" class="net_76"/>
  <line x1="269" x2="269" y1="632" y2="696" class="net_76"/>
  <line x1="269" x2="797.3333333333334" y1="696" y2="696" class="net_76"/>
  <circle cx="269" cy="696" r="2" style="fill:#000" class="net_76"/>
  <line x1="797.3333333333334" x2="797.3333333333334" y1="696" y2="486" class="net_76"/>
  <line x1="259" x2="269" y1="632" y2="632" class="net_76"/>
  <line x1="269" x2="269" y1="632" y2="756" class="net_76"/>
  <line x1="269" x2="795.6666666666666" y1="756" y2="756" class="net_76"/>
  <line x1="795.6666666666666" x2="795.6666666666666" y1="756" y2="741" class="net_76"/>
  <line x1="259" x2="355" y1="632" y2="632" class="net_76"/>
  <line x1="355" x2="355" y1="632" y2="617" class="net_76"/>
  <line x1="1088.75" x2="1144" y1="200" y2="200" class="net_4"/>
  <line x1="1144" x2="1144" y1="200" y2="170" class="net_4"/>
  <line x1="1144" x2="819" y1="170" y2="170" class="net_4"/>
  <line x1="819" x2="819" y1="170" y2="190" class="net_4"/>
  <circle cx="1144" cy="200" r="2" style="fill:#000" class="net_4"/>
  <line x1="819" x2="886" y1="190" y2="190" class="net_4"/>
  <line x1="1088.75" x2="1176" y1="200" y2="200" class="net_4"/>
  <line x1="908.25" x2="959" y1="471" y2="471" class="net_121,122,123,124,125,126,127,128"/>
  <line x1="959" x2="959" y1="471" y2="441" class="net_121,122,123,124,125,126,127,128"/>
  <line x1="959" x2="774" y1="441" y2="441" class="net_121,122,123,124,125,126,127,128"/>
  <line x1="774" x2="774" y1="441" y2="461" class="net_121,122,123,124,125,126,127,128"/>
  <circle cx="959" cy="441" r="2" style="fill:#000" class="net_121,122,123,124,125,126,127,128"/>
  <line x1="774" x2="787.3333333333334" y1="461" y2="461" class="net_121,122,123,124,125,126,127,128"/>
  <line x1="908.25" x2="959" y1="471" y2="471" class="net_121,122,123,124,125,126,127,128"/>
  <line x1="959" x2="959" y1="471" y2="405" class="net_121,122,123,124,125,126,127,128"/>
  <line x1="959" x2="1066" y1="405" y2="405" class="net_121,122,123,124,125,126,127,128"/>
  <line x1="737.3333333333334" x2="787.3333333333334" y1="481" y2="481" class="net_107,108,109,110,111,112,113,114"/>
  <line x1="257.3333333333333" x2="279" y1="692" y2="692" class="net_115,116,117,118"/>
  <line x1="279" x2="279" y1="692" y2="612" class="net_115,116,117,118"/>
  <line x1="279" x2="345" y1="612" y2="612" class="net_115,116,117,118"/>
  <line x1="902.6666666666666" x2="1056.3333333333335" y1="275" y2="275" class="net_119"/>
  <line x1="906" x2="1058.75" y1="200" y2="200" class="net_120"/>
  <line x1="807.3333333333334" x2="878.25" y1="471" y2="471" class="net_129,130,131,132,133,134,135,136"/>
  <line x1="805.6666666666666" x2="819" y1="726" y2="726" class="net_137"/>
  <line x1="819" x2="819" y1="726" y2="799" class="net_137"/>
  <line x1="819" x2="879.3333333333334" y1="799" y2="799" class="net_137"/>
  <line x1="365" x2="439" y1="602" y2="602" class="net_138,139,140,141"/>
  <line x1="906" x2="1066" y1="385" y2="385" class="net_142"/>
  <line x1="1086.3333333333335" x2="1176" y1="275" y2="275" class="net_3"/>
  <line x1="40" x2="107" y1="32" y2="32" class="net_2"/>
  <line x1="1097" x2="1169" y1="405" y2="405" class="net_5"/>
  <line x1="1097" x2="1154" y1="405" y2="405" class="net_5"/>
  <line x1="1154" x2="1154" y1="405" y2="340" class="net_5"/>
  <circle cx="1154" cy="405" r="2" style="fill:#000" class="net_5"/>
  <line x1="1154" x2="1176" y1="340" y2="340" class="net_5"/>
</svg>
