<?xml version="1.0" encoding="UTF-8" standalone="no"?>
<!DOCTYPE svg PUBLIC "-//W3C//DTD SVG 1.1//EN"
 "http://www.w3.org/Graphics/SVG/1.1/DTD/svg11.dtd">
<!-- Generated by graphviz version 2.47.0 (0)
 -->
<!-- Title: m100 Pages: 1 -->
<svg width="861pt" height="566pt"
 viewBox="0.00 0.00 861.14 566.00" xmlns="http://www.w3.org/2000/svg" xmlns:xlink="http://www.w3.org/1999/xlink">
<g id="graph0" class="graph" transform="scale(1 1) rotate(0) translate(4 562)">
<title>m100</title>
<polygon fill="white" stroke="transparent" points="-4,4 -4,-562 857.14,-562 857.14,4 -4,4"/>
<!-- p0 -->
<g id="node1" class="node">
<title>p0</title>
<ellipse fill="none" stroke="black" cx="34" cy="-540" rx="27" ry="18"/>
<text text-anchor="middle" x="34" y="-536.3" font-family="Times,serif" font-size="14.00">a</text>
</g>
<!-- i14 -->
<g id="node2" class="node">
<title>i14</title>
<ellipse fill="none" stroke="black" cx="62" cy="-453" rx="33.6" ry="18"/>
<text text-anchor="middle" x="62" y="-449.3" font-family="Times,serif" font-size="14.00">$add</text>
</g>
<!-- p0&#45;&gt;i14 -->
<g id="edge1" class="edge">
<title>p0&#45;&gt;i14</title>
<path fill="none" stroke="black" d="M39.53,-522.21C43.44,-510.33 48.77,-494.17 53.25,-480.56"/>
<polygon fill="black" stroke="black" points="56.68,-481.35 56.48,-470.76 50.03,-479.16 56.68,-481.35"/>
<text text-anchor="middle" x="59.5" y="-492.8" font-family="Times,serif" font-size="14.00">n1</text>
</g>
<!-- i6 -->
<g id="node3" class="node">
<title>i6</title>
<ellipse fill="none" stroke="black" cx="360" cy="-105" rx="42.49" ry="18"/>
<text text-anchor="middle" x="360" y="-101.3" font-family="Times,serif" font-size="14.00">$mux2</text>
</g>
<!-- p0&#45;&gt;i6 -->
<g id="edge2" class="edge">
<title>p0&#45;&gt;i6</title>
<path fill="none" stroke="black" d="M23.43,-523.14C13.45,-506.61 0,-479.59 0,-454 0,-454 0,-454 0,-191 0,-128.51 208.05,-111.91 307.83,-107.54"/>
<polygon fill="black" stroke="black" points="308.15,-111.03 318,-107.12 307.86,-104.03 308.15,-111.03"/>
<text text-anchor="middle" x="9.5" y="-318.8" font-family="Times,serif" font-size="14.00">n1</text>
</g>
<!-- i17 -->
<g id="node17" class="node">
<title>i17</title>
<ellipse fill="none" stroke="black" cx="120" cy="-366" rx="42.49" ry="18"/>
<text text-anchor="middle" x="120" y="-362.3" font-family="Times,serif" font-size="14.00">$mux2</text>
</g>
<!-- i14&#45;&gt;i17 -->
<g id="edge19" class="edge">
<title>i14&#45;&gt;i17</title>
<path fill="none" stroke="black" d="M73.18,-435.61C81.63,-423.23 93.38,-406.01 102.99,-391.92"/>
<polygon fill="black" stroke="black" points="105.91,-393.86 108.65,-383.63 100.13,-389.92 105.91,-393.86"/>
<text text-anchor="middle" x="109" y="-405.8" font-family="Times,serif" font-size="14.00">n15</text>
</g>
<!-- i2 -->
<g id="node12" class="node">
<title>i2</title>
<ellipse fill="none" stroke="black" cx="360" cy="-18" rx="27" ry="18"/>
<text text-anchor="middle" x="360" y="-14.3" font-family="Times,serif" font-size="14.00">i2</text>
</g>
<!-- i6&#45;&gt;i2 -->
<g id="edge11" class="edge">
<title>i6&#45;&gt;i2</title>
<path fill="none" stroke="black" d="M360,-86.8C360,-75.16 360,-59.55 360,-46.24"/>
<polygon fill="black" stroke="black" points="363.5,-46.18 360,-36.18 356.5,-46.18 363.5,-46.18"/>
<text text-anchor="middle" x="369.5" y="-57.8" font-family="Times,serif" font-size="14.00">n7</text>
</g>
<!-- p1 -->
<g id="node4" class="node">
<title>p1</title>
<ellipse fill="none" stroke="black" cx="268" cy="-540" rx="27" ry="18"/>
<text text-anchor="middle" x="268" y="-536.3" font-family="Times,serif" font-size="14.00">b</text>
</g>
<!-- p1&#45;&gt;i14 -->
<g id="edge3" class="edge">
<title>p1&#45;&gt;i14</title>
<path fill="none" stroke="black" d="M246.78,-528.72C241.95,-526.45 236.82,-524.1 232,-522 219.18,-516.41 143.65,-486.37 97.69,-468.14"/>
<polygon fill="black" stroke="black" points="98.95,-464.87 88.36,-464.44 96.37,-471.38 98.95,-464.87"/>
<text text-anchor="middle" x="196.5" y="-492.8" font-family="Times,serif" font-size="14.00">n2</text>
</g>
<!-- i9 -->
<g id="node5" class="node">
<title>i9</title>
<ellipse fill="none" stroke="black" cx="360" cy="-192" rx="42.49" ry="18"/>
<text text-anchor="middle" x="360" y="-188.3" font-family="Times,serif" font-size="14.00">$mux2</text>
</g>
<!-- p1&#45;&gt;i9 -->
<g id="edge4" class="edge">
<title>p1&#45;&gt;i9</title>
<path fill="none" stroke="black" d="M286.12,-526.44C302.63,-514.11 326.59,-493.86 341,-471 356.03,-447.16 360,-438.68 360,-410.5 360,-410.5 360,-410.5 360,-278 360,-258.75 360,-237.05 360,-220.4"/>
<polygon fill="black" stroke="black" points="363.5,-220.26 360,-210.26 356.5,-220.26 363.5,-220.26"/>
<text text-anchor="middle" x="369.5" y="-362.3" font-family="Times,serif" font-size="14.00">n2</text>
</g>
<!-- i9&#45;&gt;i6 -->
<g id="edge14" class="edge">
<title>i9&#45;&gt;i6</title>
<path fill="none" stroke="black" d="M360,-173.8C360,-162.16 360,-146.55 360,-133.24"/>
<polygon fill="black" stroke="black" points="363.5,-133.18 360,-123.18 356.5,-133.18 363.5,-133.18"/>
<text text-anchor="middle" x="374" y="-144.8" font-family="Times,serif" font-size="14.00">n10</text>
</g>
<!-- p2 -->
<g id="node6" class="node">
<title>p2</title>
<ellipse fill="none" stroke="black" cx="502" cy="-540" rx="27" ry="18"/>
<text text-anchor="middle" x="502" y="-536.3" font-family="Times,serif" font-size="14.00">s</text>
</g>
<!-- i16 -->
<g id="node7" class="node">
<title>i16</title>
<ellipse fill="none" stroke="black" cx="304" cy="-453" rx="27.9" ry="18"/>
<text text-anchor="middle" x="304" y="-449.3" font-family="Times,serif" font-size="14.00">$eq</text>
</g>
<!-- p2&#45;&gt;i16 -->
<g id="edge5" class="edge">
<title>p2&#45;&gt;i16</title>
<path fill="none" stroke="black" d="M481.4,-528.26C476.45,-525.96 471.11,-523.72 466,-522 428.98,-509.58 416.06,-519 380,-504 361.76,-496.42 343.21,-484.31 329,-473.91"/>
<polygon fill="black" stroke="black" points="330.85,-470.92 320.75,-467.71 326.64,-476.52 330.85,-470.92"/>
<text text-anchor="middle" x="389.5" y="-492.8" font-family="Times,serif" font-size="14.00">n3</text>
</g>
<!-- i12 -->
<g id="node8" class="node">
<title>i12</title>
<ellipse fill="none" stroke="black" cx="425" cy="-453" rx="27.9" ry="18"/>
<text text-anchor="middle" x="425" y="-449.3" font-family="Times,serif" font-size="14.00">$eq</text>
</g>
<!-- p2&#45;&gt;i12 -->
<g id="edge6" class="edge">
<title>p2&#45;&gt;i12</title>
<path fill="none" stroke="black" d="M488.59,-524.19C476.63,-510.99 458.94,-491.47 445.26,-476.36"/>
<polygon fill="black" stroke="black" points="447.82,-473.98 438.52,-468.92 442.64,-478.68 447.82,-473.98"/>
<text text-anchor="middle" x="477.5" y="-492.8" font-family="Times,serif" font-size="14.00">n3</text>
</g>
<!-- i8 -->
<g id="node9" class="node">
<title>i8</title>
<ellipse fill="none" stroke="black" cx="518" cy="-453" rx="27.9" ry="18"/>
<text text-anchor="middle" x="518" y="-449.3" font-family="Times,serif" font-size="14.00">$eq</text>
</g>
<!-- p2&#45;&gt;i8 -->
<g id="edge7" class="edge">
<title>p2&#45;&gt;i8</title>
<path fill="none" stroke="black" d="M505.24,-521.8C507.44,-510.09 510.41,-494.34 512.92,-480.97"/>
<polygon fill="black" stroke="black" points="516.41,-481.36 514.82,-470.89 509.53,-480.07 516.41,-481.36"/>
<text text-anchor="middle" x="519.5" y="-492.8" font-family="Times,serif" font-size="14.00">n3</text>
</g>
<!-- i5 -->
<g id="node10" class="node">
<title>i5</title>
<ellipse fill="none" stroke="black" cx="627" cy="-453" rx="27.9" ry="18"/>
<text text-anchor="middle" x="627" y="-449.3" font-family="Times,serif" font-size="14.00">$eq</text>
</g>
<!-- p2&#45;&gt;i5 -->
<g id="edge8" class="edge">
<title>p2&#45;&gt;i5</title>
<path fill="none" stroke="black" d="M523.1,-528.41C527.94,-526.16 533.1,-523.89 538,-522 563.57,-512.12 575.4,-520.88 597,-504 605.08,-497.68 611.47,-488.53 616.23,-479.78"/>
<polygon fill="black" stroke="black" points="619.48,-481.11 620.77,-470.59 613.2,-478.01 619.48,-481.11"/>
<text text-anchor="middle" x="618.5" y="-492.8" font-family="Times,serif" font-size="14.00">n3</text>
</g>
<!-- i16&#45;&gt;i17 -->
<g id="edge21" class="edge">
<title>i16&#45;&gt;i17</title>
<path fill="none" stroke="black" d="M281.81,-441.75C250.92,-427.48 194.57,-401.45 157.2,-384.19"/>
<polygon fill="black" stroke="black" points="158.22,-380.8 147.67,-379.78 155.28,-387.15 158.22,-380.8"/>
<text text-anchor="middle" x="237" y="-405.8" font-family="Times,serif" font-size="14.00">n17</text>
</g>
<!-- i13 -->
<g id="node15" class="node">
<title>i13</title>
<ellipse fill="none" stroke="black" cx="271" cy="-279" rx="42.49" ry="18"/>
<text text-anchor="middle" x="271" y="-275.3" font-family="Times,serif" font-size="14.00">$mux2</text>
</g>
<!-- i12&#45;&gt;i13 -->
<g id="edge17" class="edge">
<title>i12&#45;&gt;i13</title>
<path fill="none" stroke="black" d="M421.59,-434.77C416.46,-412.58 404.94,-373.82 383,-348 363.49,-325.05 334.2,-307.65 310.46,-296.19"/>
<polygon fill="black" stroke="black" points="311.88,-292.99 301.34,-291.95 308.93,-299.34 311.88,-292.99"/>
<text text-anchor="middle" x="418" y="-362.3" font-family="Times,serif" font-size="14.00">n13</text>
</g>
<!-- i8&#45;&gt;i9 -->
<g id="edge13" class="edge">
<title>i8&#45;&gt;i9</title>
<path fill="none" stroke="black" d="M508.12,-435.8C481.41,-392.02 407.66,-271.13 375.42,-218.28"/>
<polygon fill="black" stroke="black" points="378.28,-216.24 370.08,-209.53 372.3,-219.89 378.28,-216.24"/>
<text text-anchor="middle" x="451.5" y="-318.8" font-family="Times,serif" font-size="14.00">n9</text>
</g>
<!-- i5&#45;&gt;i6 -->
<g id="edge10" class="edge">
<title>i5&#45;&gt;i6</title>
<path fill="none" stroke="black" d="M613.56,-436.92C600.62,-420.81 583,-393.92 583,-367 583,-367 583,-367 583,-191 583,-153.98 474.35,-127.23 408.73,-114.45"/>
<polygon fill="black" stroke="black" points="409.07,-110.95 398.59,-112.51 407.76,-117.82 409.07,-110.95"/>
<text text-anchor="middle" x="592.5" y="-275.3" font-family="Times,serif" font-size="14.00">n6</text>
</g>
<!-- i4 -->
<g id="node11" class="node">
<title>i4</title>
<ellipse fill="none" stroke="black" cx="781" cy="-540" rx="72.29" ry="18"/>
<text text-anchor="middle" x="781" y="-536.3" font-family="Times,serif" font-size="14.00">$const_UB32</text>
</g>
<!-- i4&#45;&gt;i5 -->
<g id="edge9" class="edge">
<title>i4&#45;&gt;i5</title>
<path fill="none" stroke="black" d="M752.75,-523.41C725.45,-508.34 684.25,-485.6 656.52,-470.29"/>
<polygon fill="black" stroke="black" points="658.12,-467.18 647.67,-465.41 654.74,-473.31 658.12,-467.18"/>
<text text-anchor="middle" x="722.5" y="-492.8" font-family="Times,serif" font-size="14.00">n5</text>
</g>
<!-- i7 -->
<g id="node13" class="node">
<title>i7</title>
<ellipse fill="none" stroke="black" cx="619" cy="-540" rx="72.29" ry="18"/>
<text text-anchor="middle" x="619" y="-536.3" font-family="Times,serif" font-size="14.00">$const_UB32</text>
</g>
<!-- i7&#45;&gt;i8 -->
<g id="edge12" class="edge">
<title>i7&#45;&gt;i8</title>
<path fill="none" stroke="black" d="M599.53,-522.61C583.27,-508.93 560.01,-489.35 542.49,-474.61"/>
<polygon fill="black" stroke="black" points="544.31,-471.57 534.41,-467.81 539.81,-476.93 544.31,-471.57"/>
<text text-anchor="middle" x="583.5" y="-492.8" font-family="Times,serif" font-size="14.00">n8</text>
</g>
<!-- i10 -->
<g id="node14" class="node">
<title>i10</title>
<ellipse fill="none" stroke="black" cx="252" cy="-366" rx="72.29" ry="18"/>
<text text-anchor="middle" x="252" y="-362.3" font-family="Times,serif" font-size="14.00">$const_UB32</text>
</g>
<!-- i10&#45;&gt;i13 -->
<g id="edge15" class="edge">
<title>i10&#45;&gt;i13</title>
<path fill="none" stroke="black" d="M255.84,-347.8C258.45,-336.16 261.94,-320.55 264.91,-307.24"/>
<polygon fill="black" stroke="black" points="268.39,-307.7 267.16,-297.18 261.56,-306.17 268.39,-307.7"/>
<text text-anchor="middle" x="276" y="-318.8" font-family="Times,serif" font-size="14.00">n11</text>
</g>
<!-- i13&#45;&gt;i9 -->
<g id="edge18" class="edge">
<title>i13&#45;&gt;i9</title>
<path fill="none" stroke="black" d="M285.34,-261.76C294.41,-251.74 306.55,-238.78 318,-228 322.72,-223.56 327.9,-219 332.97,-214.7"/>
<polygon fill="black" stroke="black" points="335.32,-217.3 340.76,-208.21 330.84,-211.92 335.32,-217.3"/>
<text text-anchor="middle" x="332" y="-231.8" font-family="Times,serif" font-size="14.00">n14</text>
</g>
<!-- i11 -->
<g id="node16" class="node">
<title>i11</title>
<ellipse fill="none" stroke="black" cx="385" cy="-540" rx="72.29" ry="18"/>
<text text-anchor="middle" x="385" y="-536.3" font-family="Times,serif" font-size="14.00">$const_UB32</text>
</g>
<!-- i11&#45;&gt;i12 -->
<g id="edge16" class="edge">
<title>i11&#45;&gt;i12</title>
<path fill="none" stroke="black" d="M394,-522.01C396.94,-516.32 400.18,-509.92 403,-504 406.67,-496.3 410.48,-487.83 413.88,-480.09"/>
<polygon fill="black" stroke="black" points="417.15,-481.35 417.92,-470.78 410.72,-478.56 417.15,-481.35"/>
<text text-anchor="middle" x="423" y="-492.8" font-family="Times,serif" font-size="14.00">n12</text>
</g>
<!-- i17&#45;&gt;i13 -->
<g id="edge22" class="edge">
<title>i17&#45;&gt;i13</title>
<path fill="none" stroke="black" d="M144.6,-351.15C169.82,-336.95 209.24,-314.76 237.35,-298.94"/>
<polygon fill="black" stroke="black" points="239.42,-301.8 246.41,-293.84 235.98,-295.7 239.42,-301.8"/>
<text text-anchor="middle" x="218" y="-318.8" font-family="Times,serif" font-size="14.00">n18</text>
</g>
<!-- i15 -->
<g id="node18" class="node">
<title>i15</title>
<ellipse fill="none" stroke="black" cx="151" cy="-540" rx="72.29" ry="18"/>
<text text-anchor="middle" x="151" y="-536.3" font-family="Times,serif" font-size="14.00">$const_UB32</text>
</g>
<!-- i15&#45;&gt;i16 -->
<g id="edge20" class="edge">
<title>i15&#45;&gt;i16</title>
<path fill="none" stroke="black" d="M179.06,-523.41C206.19,-508.34 247.12,-485.6 274.67,-470.29"/>
<polygon fill="black" stroke="black" points="276.42,-473.33 283.46,-465.41 273.02,-467.21 276.42,-473.33"/>
<text text-anchor="middle" x="250" y="-492.8" font-family="Times,serif" font-size="14.00">n16</text>
</g>
<!-- i18 -->
<g id="node19" class="node">
<title>i18</title>
<ellipse fill="none" stroke="black" cx="186" cy="-453" rx="72.29" ry="18"/>
<text text-anchor="middle" x="186" y="-449.3" font-family="Times,serif" font-size="14.00">$const_UB32</text>
</g>
<!-- i18&#45;&gt;i17 -->
<g id="edge23" class="edge">
<title>i18&#45;&gt;i17</title>
<path fill="none" stroke="black" d="M172.96,-435.21C163.32,-422.79 150.03,-405.67 139.18,-391.7"/>
<polygon fill="black" stroke="black" points="141.69,-389.22 132.79,-383.47 136.16,-393.51 141.69,-389.22"/>
<text text-anchor="middle" x="171" y="-405.8" font-family="Times,serif" font-size="14.00">n19</text>
</g>
</g>
</svg>
