<svg xmlns="http://www.w3.org/2000/svg" xmlns:xlink="http://www.w3.org/1999/xlink" xmlns:s="https://github.com/nturley/netlistsvg" width="994" height="1103.5"><style>svg {
  stroke:#000;
  fill:none;
}
text {
  fill:#000;
  stroke:none;
  font-size:10px;
  font-weight: bold;
  font-family: "Courier New", monospace;
}
line {
    stroke-linecap: round;
}
.nodelabel {
  text-anchor: middle;
}
.inputPortLabel {
  text-anchor: end;
}
.splitjoinBody {
  fill:#000;
}</style><g s:type="sub" transform="translate(456,770)" s:width="25" s:height="25" id="cell_\41"><s:alias val="$sub"/><circle r="12.5" cx="12.5" cy="12.5" class="cell_\41"/><line x1="7.5" x2="17.5" y1="12.5" y2="12.5" class="cell_\41"/><g s:x="2" s:y="5" s:pid="A"/><g s:x="2" s:y="20" s:pid="B"/><g s:x="25" s:y="12.5" s:pid="Y"/></g><g s:type="sub" transform="translate(456,628)" s:width="25" s:height="25" id="cell_\44"><s:alias val="$sub"/><circle r="12.5" cx="12.5" cy="12.5" class="cell_\44"/><line x1="7.5" x2="17.5" y1="12.5" y2="12.5" class="cell_\44"/><g s:x="2" s:y="5" s:pid="A"/><g s:x="2" s:y="20" s:pid="B"/><g s:x="25" s:y="12.5" s:pid="Y"/></g><g s:type="le" transform="translate(456,98)" s:width="25" s:height="25" id="cell_\48"><s:alias val="$le"/><circle r="12.5" cx="12.5" cy="12.5" class="cell_\48"/><line x1="6" x2="17" y1="11" y2="6" class="cell_\48"/><line x1="6" x2="17" y1="11" y2="16" class="cell_\48"/><line x1="6" x2="17" y1="14" y2="19" class="cell_\48"/><g s:x="2" s:y="5" s:pid="A"/><g s:x="2" s:y="20" s:pid="B"/><g s:x="25" s:y="12.5" s:pid="Y"/></g><g s:type="ge" transform="translate(456,178)" s:width="25" s:height="25" id="cell_\50"><s:alias val="$ge"/><circle r="12" cx="12" cy="12" class="cell_\50"/><line x1="8" x2="19" y1="6" y2="11" class="cell_\50"/><line x1="8" x2="19" y1="16" y2="11" class="cell_\50"/><line x1="8" x2="19" y1="19" y2="14" class="cell_\50"/><g s:x="2" s:y="5" s:pid="A"/><g s:x="2" s:y="20" s:pid="B"/><g s:x="25" s:y="12.5" s:pid="Y"/></g><g s:type="and" transform="translate(516,170.5)" s:width="30" s:height="25" id="cell_\51"><s:alias val="$and"/><s:alias val="$logic_and"/><s:alias val="$_AND_"/><s:alias val="$reduce_and"/><path d="M0,0 L0,25 L15,25 A15 12.5 0 0 0 15,0 Z" class="cell_\51"/><g s:x="0" s:y="5" s:pid="A"/><g s:x="0" s:y="20" s:pid="B"/><g s:x="30" s:y="12.5" s:pid="Y"/></g><g s:type="le" transform="translate(517.6666666666667,230.5)" s:width="25" s:height="25" id="cell_\53"><s:alias val="$le"/><circle r="12.5" cx="12.5" cy="12.5" class="cell_\53"/><line x1="6" x2="17" y1="11" y2="6" class="cell_\53"/><line x1="6" x2="17" y1="11" y2="16" class="cell_\53"/><line x1="6" x2="17" y1="14" y2="19" class="cell_\53"/><g s:x="2" s:y="5" s:pid="A"/><g s:x="2" s:y="20" s:pid="B"/><g s:x="25" s:y="12.5" s:pid="Y"/></g><g s:type="and" transform="translate(602.3333333333334,223)" s:width="30" s:height="25" id="cell_\54"><s:alias val="$and"/><s:alias val="$logic_and"/><s:alias val="$_AND_"/><s:alias val="$reduce_and"/><path d="M0,0 L0,25 L15,25 A15 12.5 0 0 0 15,0 Z" class="cell_\54"/><g s:x="0" s:y="5" s:pid="A"/><g s:x="0" s:y="20" s:pid="B"/><g s:x="30" s:y="12.5" s:pid="Y"/></g><g s:type="ge" transform="translate(604,326.5)" s:width="25" s:height="25" id="cell_\56"><s:alias val="$ge"/><circle r="12" cx="12" cy="12" class="cell_\56"/><line x1="8" x2="19" y1="6" y2="11" class="cell_\56"/><line x1="8" x2="19" y1="16" y2="11" class="cell_\56"/><line x1="8" x2="19" y1="19" y2="14" class="cell_\56"/><g s:x="2" s:y="5" s:pid="A"/><g s:x="2" s:y="20" s:pid="B"/><g s:x="25" s:y="12.5" s:pid="Y"/></g><g s:type="and" transform="translate(691,319)" s:width="30" s:height="25" id="cell_\57"><s:alias val="$and"/><s:alias val="$logic_and"/><s:alias val="$_AND_"/><s:alias val="$reduce_and"/><path d="M0,0 L0,25 L15,25 A15 12.5 0 0 0 15,0 Z" class="cell_\57"/><g s:x="0" s:y="5" s:pid="A"/><g s:x="0" s:y="20" s:pid="B"/><g s:x="30" s:y="12.5" s:pid="Y"/></g><g s:type="ge" transform="translate(456,357.5)" s:width="25" s:height="25" id="cell_\59"><s:alias val="$ge"/><circle r="12" cx="12" cy="12" class="cell_\59"/><line x1="8" x2="19" y1="6" y2="11" class="cell_\59"/><line x1="8" x2="19" y1="16" y2="11" class="cell_\59"/><line x1="8" x2="19" y1="19" y2="14" class="cell_\59"/><g s:x="2" s:y="5" s:pid="A"/><g s:x="2" s:y="20" s:pid="B"/><g s:x="25" s:y="12.5" s:pid="Y"/></g><g s:type="le" transform="translate(456,421.5)" s:width="25" s:height="25" id="cell_\61"><s:alias val="$le"/><circle r="12.5" cx="12.5" cy="12.5" class="cell_\61"/><line x1="6" x2="17" y1="11" y2="6" class="cell_\61"/><line x1="6" x2="17" y1="11" y2="16" class="cell_\61"/><line x1="6" x2="17" y1="14" y2="19" class="cell_\61"/><g s:x="2" s:y="5" s:pid="A"/><g s:x="2" s:y="20" s:pid="B"/><g s:x="25" s:y="12.5" s:pid="Y"/></g><g s:type="or" transform="translate(516,414)" s:width="30" s:height="25" id="cell_\62"><s:alias val="$or"/><s:alias val="$logic_or"/><s:alias val="$_OR_"/><s:alias val="$reduce_or"/><s:alias val="$reduce_bool"/><path d="M0,25 L0,25 L15,25 A15 12.5 0 0 0 15,0 L0,0" class="cell_\62"/><path d="M0,0 A30 25 0 0 1 0,25" class="cell_\62"/><g s:x="2" s:y="5" s:pid="A"/><g s:x="2" s:y="20" s:pid="B"/><g s:x="30" s:y="12.5" s:pid="Y"/></g><g s:type="ge" transform="translate(517.6666666666667,474)" s:width="25" s:height="25" id="cell_\64"><s:alias val="$ge"/><circle r="12" cx="12" cy="12" class="cell_\64"/><line x1="8" x2="19" y1="6" y2="11" class="cell_\64"/><line x1="8" x2="19" y1="16" y2="11" class="cell_\64"/><line x1="8" x2="19" y1="19" y2="14" class="cell_\64"/><g s:x="2" s:y="5" s:pid="A"/><g s:x="2" s:y="20" s:pid="B"/><g s:x="25" s:y="12.5" s:pid="Y"/></g><g s:type="or" transform="translate(602.3333333333334,466.5)" s:width="30" s:height="25" id="cell_\65"><s:alias val="$or"/><s:alias val="$logic_or"/><s:alias val="$_OR_"/><s:alias val="$reduce_or"/><s:alias val="$reduce_bool"/><path d="M0,25 L0,25 L15,25 A15 12.5 0 0 0 15,0 L0,0" class="cell_\65"/><path d="M0,0 A30 25 0 0 1 0,25" class="cell_\65"/><g s:x="2" s:y="5" s:pid="A"/><g s:x="2" s:y="20" s:pid="B"/><g s:x="30" s:y="12.5" s:pid="Y"/></g><g s:type="le" transform="translate(604,540)" s:width="25" s:height="25" id="cell_\67"><s:alias val="$le"/><circle r="12.5" cx="12.5" cy="12.5" class="cell_\67"/><line x1="6" x2="17" y1="11" y2="6" class="cell_\67"/><line x1="6" x2="17" y1="11" y2="16" class="cell_\67"/><line x1="6" x2="17" y1="14" y2="19" class="cell_\67"/><g s:x="2" s:y="5" s:pid="A"/><g s:x="2" s:y="20" s:pid="B"/><g s:x="25" s:y="12.5" s:pid="Y"/></g><g s:type="or" transform="translate(691,532.5)" s:width="30" s:height="25" id="cell_\68"><s:alias val="$or"/><s:alias val="$logic_or"/><s:alias val="$_OR_"/><s:alias val="$reduce_or"/><s:alias val="$reduce_bool"/><path d="M0,25 L0,25 L15,25 A15 12.5 0 0 0 15,0 L0,0" class="cell_\68"/><path d="M0,0 A30 25 0 0 1 0,25" class="cell_\68"/><g s:x="2" s:y="5" s:pid="A"/><g s:x="2" s:y="20" s:pid="B"/><g s:x="30" s:y="12.5" s:pid="Y"/></g><g s:type="and" transform="translate(782.6666666666666,525)" s:width="30" s:height="25" id="cell_\69"><s:alias val="$and"/><s:alias val="$logic_and"/><s:alias val="$_AND_"/><s:alias val="$reduce_and"/><path d="M0,0 L0,25 L15,25 A15 12.5 0 0 0 15,0 Z" class="cell_\69"/><g s:x="0" s:y="5" s:pid="A"/><g s:x="0" s:y="20" s:pid="B"/><g s:x="30" s:y="12.5" s:pid="Y"/></g><g s:type="or" transform="translate(876.3333333333334,770.5)" s:width="30" s:height="25" id="cell_\71"><s:alias val="$or"/><s:alias val="$logic_or"/><s:alias val="$_OR_"/><s:alias val="$reduce_or"/><s:alias val="$reduce_bool"/><path d="M0,25 L0,25 L15,25 A15 12.5 0 0 0 15,0 L0,0" class="cell_\71"/><path d="M0,0 A30 25 0 0 1 0,25" class="cell_\71"/><g s:x="2" s:y="5" s:pid="A"/><g s:x="2" s:y="20" s:pid="B"/><g s:x="30" s:y="12.5" s:pid="Y"/></g><g s:type="mux" transform="translate(942,695.5)" s:width="20" s:height="40" id="cell_\72"><s:alias val="$pmux"/><s:alias val="$mux"/><s:alias val="$_MUX_"/><path d="M0,0 L20,10 L20,30 L0,40 Z" class="cell_\72"/><text x="5" y="32" class="nodelabel cell_\72" s:attribute="">1</text><text x="5" y="13" class="nodelabel cell_\72" s:attribute="">0</text><g s:x="0" s:y="10" s:pid="A"/><g s:x="0" s:y="30" s:pid="B"/><g s:x="10" s:y="35" s:pid="S"/><g s:x="20" s:y="20" s:pid="Y"/></g><g s:type="generic" transform="translate(600,610)" s:width="30" s:height="40" id="cell_buffer1"><text x="15" y="-4" class="nodelabel cell_buffer1" s:attribute="ref">text_rom</text><rect width="30" height="60" s:generic="body" class="cell_buffer1"/><g transform="translate(0,10)" s:x="0" s:y="10" s:pid="in0" id="port_buffer1~clk"><text x="-3" y="-4" class="inputPortLabel cell_buffer1">clk</text></g><g transform="translate(0,30)" s:x="0" s:y="10" s:pid="in0" id="port_buffer1~col"><text x="-3" y="-4" class="inputPortLabel cell_buffer1">col</text></g><g transform="translate(0,50)" s:x="0" s:y="10" s:pid="in0" id="port_buffer1~row"><text x="-3" y="-4" class="inputPortLabel cell_buffer1">row</text></g><g transform="translate(30,10)" s:x="30" s:y="10" s:pid="out0" id="port_buffer1~char"><text x="5" y="-4" style="fill:#000; stroke:none" class="cell_buffer1">char</text></g></g><g s:type="generic" transform="translate(781,780)" s:width="30" s:height="40" id="cell_text_font1"><text x="15" y="-4" class="nodelabel cell_text_font1" s:attribute="ref">text_font</text><rect width="30" height="80" s:generic="body" class="cell_text_font1"/><g transform="translate(0,10)" s:x="0" s:y="10" s:pid="in0" id="port_text_font1~char"><text x="-3" y="-4" class="inputPortLabel cell_text_font1">char</text></g><g transform="translate(0,30)" s:x="0" s:y="10" s:pid="in0" id="port_text_font1~clk"><text x="-3" y="-4" class="inputPortLabel cell_text_font1">clk</text></g><g transform="translate(0,50)" s:x="0" s:y="10" s:pid="in0" id="port_text_font1~col"><text x="-3" y="-4" class="inputPortLabel cell_text_font1">col</text></g><g transform="translate(0,70)" s:x="0" s:y="10" s:pid="in0" id="port_text_font1~row"><text x="-3" y="-4" class="inputPortLabel cell_text_font1">row</text></g><g transform="translate(30,10)" s:x="30" s:y="10" s:pid="out0" id="port_text_font1~lum"><text x="5" y="-4" style="fill:#000; stroke:none" class="cell_text_font1">lum</text></g></g><g s:type="generic" transform="translate(126,917.5)" s:width="30" s:height="40" id="cell_vga1"><text x="15" y="-4" class="nodelabel cell_vga1" s:attribute="ref">vga</text><rect width="30" height="160" s:generic="body" class="cell_vga1"/><g transform="translate(0,10)" s:x="0" s:y="10" s:pid="in0" id="port_vga1~bin"><text x="-3" y="-4" class="inputPortLabel cell_vga1">bin</text></g><g transform="translate(0,30)" s:x="0" s:y="10" s:pid="in0" id="port_vga1~clk_48"><text x="-3" y="-4" class="inputPortLabel cell_vga1">clk_48</text></g><g transform="translate(0,50)" s:x="0" s:y="10" s:pid="in0" id="port_vga1~gin"><text x="-3" y="-4" class="inputPortLabel cell_vga1">gin</text></g><g transform="translate(0,70)" s:x="0" s:y="10" s:pid="in0" id="port_vga1~rin"><text x="-3" y="-4" class="inputPortLabel cell_vga1">rin</text></g><g transform="translate(30,10)" s:x="30" s:y="10" s:pid="out0" id="port_vga1~bout"><text x="5" y="-4" style="fill:#000; stroke:none" class="cell_vga1">bout</text></g><g transform="translate(30,30)" s:x="30" s:y="10" s:pid="out0" id="port_vga1~clk_pxl"><text x="5" y="-4" style="fill:#000; stroke:none" class="cell_vga1">clk_pxl</text></g><g transform="translate(30,50)" s:x="30" s:y="10" s:pid="out0" id="port_vga1~col"><text x="5" y="-4" style="fill:#000; stroke:none" class="cell_vga1">col</text></g><g transform="translate(30,70)" s:x="30" s:y="10" s:pid="out0" id="port_vga1~gout"><text x="5" y="-4" style="fill:#000; stroke:none" class="cell_vga1">gout</text></g><g transform="translate(30,90)" s:x="30" s:y="10" s:pid="out0" id="port_vga1~hsync"><text x="5" y="-4" style="fill:#000; stroke:none" class="cell_vga1">hsync</text></g><g transform="translate(30,110)" s:x="30" s:y="10" s:pid="out0" id="port_vga1~rout"><text x="5" y="-4" style="fill:#000; stroke:none" class="cell_vga1">rout</text></g><g transform="translate(30,130)" s:x="30" s:y="10" s:pid="out0" id="port_vga1~row"><text x="5" y="-4" style="fill:#000; stroke:none" class="cell_vga1">row</text></g><g transform="translate(30,150)" s:x="30" s:y="10" s:pid="out0" id="port_vga1~vsync"><text x="5" y="-4" style="fill:#000; stroke:none" class="cell_vga1">vsync</text></g></g><g s:type="inputExt" transform="translate(12,938)" s:width="30" s:height="20" id="cell_clk_ext"><text x="15" y="-4" class="nodelabel cell_clk_ext" s:attribute="ref">clk_ext</text><s:alias val="$_inputExt_"/><path d="M0,0 L0,20 L15,20 L30,10 L15,0 Z" class="cell_clk_ext"/><g s:x="30" s:y="10" s:pid="Y"/></g><g s:type="outputExt" transform="translate(942,993)" s:width="30" s:height="20" id="cell_rout"><text x="15" y="-4" class="nodelabel cell_rout" s:attribute="ref">rout</text><s:alias val="$_outputExt_"/><path d="M30,0 L30,20 L15,20 L0,10 L15,0 Z" class="cell_rout"/><g s:x="0" s:y="10" s:pid="A"/></g><g s:type="outputExt" transform="translate(942,863)" s:width="30" s:height="20" id="cell_gout"><text x="15" y="-4" class="nodelabel cell_gout" s:attribute="ref">gout</text><s:alias val="$_outputExt_"/><path d="M30,0 L30,20 L15,20 L0,10 L15,0 Z" class="cell_gout"/><g s:x="0" s:y="10" s:pid="A"/></g><g s:type="outputExt" transform="translate(942,32)" s:width="30" s:height="20" id="cell_bout"><text x="15" y="-4" class="nodelabel cell_bout" s:attribute="ref">bout</text><s:alias val="$_outputExt_"/><path d="M30,0 L30,20 L15,20 L0,10 L15,0 Z" class="cell_bout"/><g s:x="0" s:y="10" s:pid="A"/></g><g s:type="outputExt" transform="translate(942,928)" s:width="30" s:height="20" id="cell_hsync"><text x="15" y="-4" class="nodelabel cell_hsync" s:attribute="ref">hsync</text><s:alias val="$_outputExt_"/><path d="M30,0 L30,20 L15,20 L0,10 L15,0 Z" class="cell_hsync"/><g s:x="0" s:y="10" s:pid="A"/></g><g s:type="outputExt" transform="translate(942,1058)" s:width="30" s:height="20" id="cell_vsync"><text x="15" y="-4" class="nodelabel cell_vsync" s:attribute="ref">vsync</text><s:alias val="$_outputExt_"/><path d="M30,0 L30,20 L15,20 L0,10 L15,0 Z" class="cell_vsync"/><g s:x="0" s:y="10" s:pid="A"/></g><g s:type="constant" transform="translate(319,780)" s:width="30" s:height="20" id="cell_100"><text x="15" y="-4" class="nodelabel cell_100" s:attribute="ref">100</text><s:alias val="$_constant_"/><rect width="30" height="20" class="cell_100"/><g s:x="31" s:y="10" s:pid="Y"/></g><g s:type="constant" transform="translate(319,638)" s:width="30" s:height="20" id="cell_110"><text x="15" y="-4" class="nodelabel cell_110" s:attribute="ref">110</text><s:alias val="$_constant_"/><rect width="30" height="20" class="cell_110"/><g s:x="31" s:y="10" s:pid="Y"/></g><g s:type="constant" transform="translate(319,108)" s:width="30" s:height="20" id="cell_111100000"><text x="15" y="-4" class="nodelabel cell_111100000" s:attribute="ref">0x1e0</text><s:alias val="$_constant_"/><rect width="30" height="20" class="cell_111100000"/><g s:x="31" s:y="10" s:pid="Y"/></g><g s:type="constant" transform="translate(385,188)" s:width="30" s:height="20" id="cell_0"><text x="15" y="-4" class="nodelabel cell_0" s:attribute="ref">0</text><s:alias val="$_constant_"/><rect width="30" height="20" class="cell_0"/><g s:x="31" s:y="10" s:pid="Y"/></g><g s:type="constant" transform="translate(385,240.5)" s:width="30" s:height="20" id="cell_1010000000"><text x="15" y="-4" class="nodelabel cell_1010000000" s:attribute="ref">0x280</text><s:alias val="$_constant_"/><rect width="30" height="20" class="cell_1010000000"/><g s:x="31" s:y="10" s:pid="Y"/></g><g s:type="constant" transform="translate(319,367.5)" s:width="30" s:height="20" id="cell_111010000"><text x="15" y="-4" class="nodelabel cell_111010000" s:attribute="ref">0x1d0</text><s:alias val="$_constant_"/><rect width="30" height="20" class="cell_111010000"/><g s:x="31" s:y="10" s:pid="Y"/></g><g s:type="constant" transform="translate(319,550)" s:width="30" s:height="20" id="cell_10000"><text x="15" y="-4" class="nodelabel cell_10000" s:attribute="ref">0x10</text><s:alias val="$_constant_"/><rect width="30" height="20" class="cell_10000"/><g s:x="31" s:y="10" s:pid="Y"/></g><g s:type="constant" transform="translate(385,484)" s:width="30" s:height="20" id="cell_1001110000"><text x="15" y="-4" class="nodelabel cell_1001110000" s:attribute="ref">0x270</text><s:alias val="$_constant_"/><rect width="30" height="20" class="cell_1001110000"/><g s:x="31" s:y="10" s:pid="Y"/></g><g s:type="constant" transform="translate(876,715.5)" s:width="30" s:height="20" id="cell_1"><text x="15" y="-4" class="nodelabel cell_1" s:attribute="ref">1</text><s:alias val="$_constant_"/><rect width="30" height="20" class="cell_1"/><g s:x="31" s:y="10" s:pid="Y"/></g><g s:type="split" transform="translate(326,823)" s:width="5" s:height="40" id="cell_$split$,32,33,34,35,8,9,10,11,12,13,36,"><rect width="5" height="40" class="splitjoinBody" s:generic="body"/><s:alias val="$_split_"/><g s:x="0" s:y="20" s:pid="in"/><g transform="translate(4,10)" s:x="4" s:y="10" s:pid="out0"><text x="5" y="-4">4:9</text></g><g transform="translate(4,30)" s:x="4" s:y="10" s:pid="out0"><text x="5" y="-4">1:3</text></g></g><g s:type="split" transform="translate(326,695)" s:width="5" s:height="40" id="cell_$split$,40,41,42,43,20,21,22,23,24,25,44,"><rect width="5" height="40" class="splitjoinBody" s:generic="body"/><s:alias val="$_split_"/><g s:x="0" s:y="20" s:pid="in"/><g transform="translate(4,10)" s:x="4" s:y="10" s:pid="out0"><text x="5" y="-4">4:9</text></g><g transform="translate(4,30)" s:x="4" s:y="10" s:pid="out0"><text x="5" y="-4">1:3</text></g></g><line x1="331" x2="360" y1="833.5" y2="833.5" class="net_8,9,10,11,12,13 width_6" style="stroke-width: 2"/><line x1="360" x2="360" y1="833.5" y2="770" class="net_8,9,10,11,12,13 width_6" style="stroke-width: 2"/><line x1="360" x2="426" y1="770" y2="770" class="net_8,9,10,11,12,13 width_6" style="stroke-width: 2"/><line x1="426" x2="426" y1="770" y2="775" class="net_8,9,10,11,12,13 width_6" style="stroke-width: 2"/><line x1="426" x2="458" y1="775" y2="775" class="net_8,9,10,11,12,13 width_6" style="stroke-width: 2"/><line x1="350" x2="458" y1="790" y2="790" class="net_69,70,71 width_3" style="stroke-width: 2"/><line x1="331" x2="360" y1="705.5" y2="705.5" class="net_20,21,22,23,24,25 width_6" style="stroke-width: 2"/><line x1="360" x2="360" y1="705.5" y2="628" class="net_20,21,22,23,24,25 width_6" style="stroke-width: 2"/><line x1="360" x2="426" y1="628" y2="628" class="net_20,21,22,23,24,25 width_6" style="stroke-width: 2"/><line x1="426" x2="426" y1="628" y2="633" class="net_20,21,22,23,24,25 width_6" style="stroke-width: 2"/><line x1="426" x2="458" y1="633" y2="633" class="net_20,21,22,23,24,25 width_6" style="stroke-width: 2"/><line x1="350" x2="458" y1="648" y2="648" class="net_72,73,74 width_3" style="stroke-width: 2"/><line x1="157" x2="260" y1="1048" y2="1048" class="net_32,33,34,35,8,9,10,11,12,13,36 width_11" style="stroke-width: 2"/><line x1="260" x2="260" y1="1048" y2="167" class="net_32,33,34,35,8,9,10,11,12,13,36 width_11" style="stroke-width: 2"/><line x1="260" x2="294" y1="167" y2="167" class="net_32,33,34,35,8,9,10,11,12,13,36 width_11" style="stroke-width: 2"/><line x1="294" x2="294" y1="167" y2="57" class="net_32,33,34,35,8,9,10,11,12,13,36 width_11" style="stroke-width: 2"/><line x1="294" x2="426" y1="57" y2="57" class="net_32,33,34,35,8,9,10,11,12,13,36 width_11" style="stroke-width: 2"/><line x1="426" x2="426" y1="57" y2="103" class="net_32,33,34,35,8,9,10,11,12,13,36 width_11" style="stroke-width: 2"/><circle cx="294" cy="167" r="3" style="fill:#000" class="net_32,33,34,35,8,9,10,11,12,13,36 width_11"/><line x1="426" x2="458" y1="103" y2="103" class="net_32,33,34,35,8,9,10,11,12,13,36 width_11" style="stroke-width: 2"/><line x1="157" x2="260" y1="1048" y2="1048" class="net_32,33,34,35,8,9,10,11,12,13,36 width_11" style="stroke-width: 2"/><line x1="260" x2="260" y1="1048" y2="167" class="net_32,33,34,35,8,9,10,11,12,13,36 width_11" style="stroke-width: 2"/><line x1="260" x2="446" y1="167" y2="167" class="net_32,33,34,35,8,9,10,11,12,13,36 width_11" style="stroke-width: 2"/><line x1="446" x2="446" y1="167" y2="183" class="net_32,33,34,35,8,9,10,11,12,13,36 width_11" style="stroke-width: 2"/><line x1="446" x2="458" y1="183" y2="183" class="net_32,33,34,35,8,9,10,11,12,13,36 width_11" style="stroke-width: 2"/><line x1="157" x2="260" y1="1048" y2="1048" class="net_32,33,34,35,8,9,10,11,12,13,36 width_11" style="stroke-width: 2"/><line x1="260" x2="260" y1="1048" y2="426.5" class="net_32,33,34,35,8,9,10,11,12,13,36 width_11" style="stroke-width: 2"/><line x1="260" x2="294" y1="426.5" y2="426.5" class="net_32,33,34,35,8,9,10,11,12,13,36 width_11" style="stroke-width: 2"/><line x1="294" x2="294" y1="426.5" y2="316.5" class="net_32,33,34,35,8,9,10,11,12,13,36 width_11" style="stroke-width: 2"/><line x1="294" x2="426" y1="316.5" y2="316.5" class="net_32,33,34,35,8,9,10,11,12,13,36 width_11" style="stroke-width: 2"/><line x1="426" x2="426" y1="316.5" y2="362.5" class="net_32,33,34,35,8,9,10,11,12,13,36 width_11" style="stroke-width: 2"/><circle cx="260" cy="426.5" r="3" style="fill:#000" class="net_32,33,34,35,8,9,10,11,12,13,36 width_11"/><circle cx="294" cy="426.5" r="3" style="fill:#000" class="net_32,33,34,35,8,9,10,11,12,13,36 width_11"/><line x1="426" x2="458" y1="362.5" y2="362.5" class="net_32,33,34,35,8,9,10,11,12,13,36 width_11" style="stroke-width: 2"/><line x1="157" x2="260" y1="1048" y2="1048" class="net_32,33,34,35,8,9,10,11,12,13,36 width_11" style="stroke-width: 2"/><line x1="260" x2="260" y1="1048" y2="426.5" class="net_32,33,34,35,8,9,10,11,12,13,36 width_11" style="stroke-width: 2"/><line x1="260" x2="458" y1="426.5" y2="426.5" class="net_32,33,34,35,8,9,10,11,12,13,36 width_11" style="stroke-width: 2"/><line x1="157" x2="260" y1="1048" y2="1048" class="net_32,33,34,35,8,9,10,11,12,13,36 width_11" style="stroke-width: 2"/><line x1="260" x2="260" y1="1048" y2="843.5" class="net_32,33,34,35,8,9,10,11,12,13,36 width_11" style="stroke-width: 2"/><circle cx="260" cy="843.5" r="3" style="fill:#000" class="net_32,33,34,35,8,9,10,11,12,13,36 width_11"/><line x1="260" x2="326" y1="843.5" y2="843.5" class="net_32,33,34,35,8,9,10,11,12,13,36 width_11" style="stroke-width: 2"/><line x1="350" x2="458" y1="118" y2="118" class="net_75,76,77,78,79,80,81,82,83 width_9" style="stroke-width: 2"/><line x1="416" x2="458" y1="198" y2="198" class="net_84 width_1" style="stroke-width: 1"/><line x1="416" x2="436" y1="198" y2="198" class="net_84 width_1" style="stroke-width: 1"/><line x1="436" x2="436" y1="198" y2="346.5" class="net_84 width_1" style="stroke-width: 1"/><circle cx="436" cy="198" r="2" style="fill:#000" class="net_84 width_1"/><line x1="436" x2="606" y1="346.5" y2="346.5" class="net_84 width_1" style="stroke-width: 1"/><line x1="416" x2="436" y1="198" y2="198" class="net_84 width_1" style="stroke-width: 1"/><line x1="436" x2="436" y1="198" y2="159.5" class="net_84 width_1" style="stroke-width: 1"/><line x1="436" x2="917" y1="159.5" y2="159.5" class="net_84 width_1" style="stroke-width: 1"/><line x1="917" x2="917" y1="159.5" y2="705.5" class="net_84 width_1" style="stroke-width: 1"/><line x1="917" x2="942" y1="705.5" y2="705.5" class="net_84 width_1" style="stroke-width: 1"/><line x1="481" x2="491" y1="110.5" y2="110.5" class="net_37 width_1" style="stroke-width: 1"/><line x1="491" x2="491" y1="110.5" y2="175.5" class="net_37 width_1" style="stroke-width: 1"/><line x1="491" x2="516" y1="175.5" y2="175.5" class="net_37 width_1" style="stroke-width: 1"/><line x1="481" x2="516" y1="190.5" y2="190.5" class="net_38 width_1" style="stroke-width: 1"/><line x1="157" x2="220" y1="968" y2="968" class="net_40,41,42,43,20,21,22,23,24,25,44 width_11" style="stroke-width: 2"/><line x1="220" x2="220" y1="968" y2="299.5" class="net_40,41,42,43,20,21,22,23,24,25,44 width_11" style="stroke-width: 2"/><line x1="220" x2="294" y1="299.5" y2="299.5" class="net_40,41,42,43,20,21,22,23,24,25,44 width_11" style="stroke-width: 2"/><line x1="294" x2="294" y1="299.5" y2="219.5" class="net_40,41,42,43,20,21,22,23,24,25,44 width_11" style="stroke-width: 2"/><line x1="294" x2="491" y1="219.5" y2="219.5" class="net_40,41,42,43,20,21,22,23,24,25,44 width_11" style="stroke-width: 2"/><line x1="491" x2="491" y1="219.5" y2="235.5" class="net_40,41,42,43,20,21,22,23,24,25,44 width_11" style="stroke-width: 2"/><circle cx="294" cy="299.5" r="3" style="fill:#000" class="net_40,41,42,43,20,21,22,23,24,25,44 width_11"/><line x1="491" x2="519.6666666666667" y1="235.5" y2="235.5" class="net_40,41,42,43,20,21,22,23,24,25,44 width_11" style="stroke-width: 2"/><line x1="157" x2="220" y1="968" y2="968" class="net_40,41,42,43,20,21,22,23,24,25,44 width_11" style="stroke-width: 2"/><line x1="220" x2="220" y1="968" y2="299.5" class="net_40,41,42,43,20,21,22,23,24,25,44 width_11" style="stroke-width: 2"/><line x1="220" x2="556" y1="299.5" y2="299.5" class="net_40,41,42,43,20,21,22,23,24,25,44 width_11" style="stroke-width: 2"/><line x1="556" x2="556" y1="299.5" y2="331.5" class="net_40,41,42,43,20,21,22,23,24,25,44 width_11" style="stroke-width: 2"/><line x1="556" x2="606" y1="331.5" y2="331.5" class="net_40,41,42,43,20,21,22,23,24,25,44 width_11" style="stroke-width: 2"/><line x1="157" x2="220" y1="968" y2="968" class="net_40,41,42,43,20,21,22,23,24,25,44 width_11" style="stroke-width: 2"/><line x1="220" x2="220" y1="968" y2="602" class="net_40,41,42,43,20,21,22,23,24,25,44 width_11" style="stroke-width: 2"/><line x1="220" x2="294" y1="602" y2="602" class="net_40,41,42,43,20,21,22,23,24,25,44 width_11" style="stroke-width: 2"/><line x1="294" x2="294" y1="602" y2="463" class="net_40,41,42,43,20,21,22,23,24,25,44 width_11" style="stroke-width: 2"/><line x1="294" x2="491" y1="463" y2="463" class="net_40,41,42,43,20,21,22,23,24,25,44 width_11" style="stroke-width: 2"/><line x1="491" x2="491" y1="463" y2="479" class="net_40,41,42,43,20,21,22,23,24,25,44 width_11" style="stroke-width: 2"/><circle cx="220" cy="602" r="3" style="fill:#000" class="net_40,41,42,43,20,21,22,23,24,25,44 width_11"/><circle cx="294" cy="602" r="3" style="fill:#000" class="net_40,41,42,43,20,21,22,23,24,25,44 width_11"/><line x1="491" x2="519.6666666666667" y1="479" y2="479" class="net_40,41,42,43,20,21,22,23,24,25,44 width_11" style="stroke-width: 2"/><line x1="157" x2="220" y1="968" y2="968" class="net_40,41,42,43,20,21,22,23,24,25,44 width_11" style="stroke-width: 2"/><line x1="220" x2="220" y1="968" y2="602" class="net_40,41,42,43,20,21,22,23,24,25,44 width_11" style="stroke-width: 2"/><line x1="220" x2="370" y1="602" y2="602" class="net_40,41,42,43,20,21,22,23,24,25,44 width_11" style="stroke-width: 2"/><line x1="370" x2="370" y1="602" y2="543" class="net_40,41,42,43,20,21,22,23,24,25,44 width_11" style="stroke-width: 2"/><line x1="370" x2="556" y1="543" y2="543" class="net_40,41,42,43,20,21,22,23,24,25,44 width_11" style="stroke-width: 2"/><line x1="556" x2="556" y1="543" y2="545" class="net_40,41,42,43,20,21,22,23,24,25,44 width_11" style="stroke-width: 2"/><line x1="556" x2="606" y1="545" y2="545" class="net_40,41,42,43,20,21,22,23,24,25,44 width_11" style="stroke-width: 2"/><line x1="157" x2="220" y1="968" y2="968" class="net_40,41,42,43,20,21,22,23,24,25,44 width_11" style="stroke-width: 2"/><line x1="220" x2="220" y1="968" y2="715.5" class="net_40,41,42,43,20,21,22,23,24,25,44 width_11" style="stroke-width: 2"/><circle cx="220" cy="715.5" r="3" style="fill:#000" class="net_40,41,42,43,20,21,22,23,24,25,44 width_11"/><line x1="220" x2="326" y1="715.5" y2="715.5" class="net_40,41,42,43,20,21,22,23,24,25,44 width_11" style="stroke-width: 2"/><line x1="416" x2="519.6666666666667" y1="250.5" y2="250.5" class="net_85,86,87,88,89,90,91,92,93,94 width_10" style="stroke-width: 2"/><line x1="546" x2="556" y1="183" y2="183" class="net_39 width_1" style="stroke-width: 1"/><line x1="556" x2="556" y1="183" y2="228" class="net_39 width_1" style="stroke-width: 1"/><line x1="556" x2="602.3333333333334" y1="228" y2="228" class="net_39 width_1" style="stroke-width: 1"/><line x1="542.6666666666667" x2="602.3333333333334" y1="243" y2="243" class="net_45 width_1" style="stroke-width: 1"/><line x1="632.3333333333334" x2="666" y1="235.5" y2="235.5" class="net_46 width_1" style="stroke-width: 1"/><line x1="666" x2="666" y1="235.5" y2="324" class="net_46 width_1" style="stroke-width: 1"/><line x1="666" x2="691" y1="324" y2="324" class="net_46 width_1" style="stroke-width: 1"/><line x1="629" x2="691" y1="339" y2="339" class="net_47 width_1" style="stroke-width: 1"/><line x1="350" x2="458" y1="377.5" y2="377.5" class="net_96,97,98,99,100,101,102,103,104 width_9" style="stroke-width: 2"/><line x1="350" x2="360" y1="560" y2="560" class="net_105,106,107,108,109 width_5" style="stroke-width: 2"/><line x1="360" x2="360" y1="560" y2="441.5" class="net_105,106,107,108,109 width_5" style="stroke-width: 2"/><circle cx="360" cy="560" r="3" style="fill:#000" class="net_105,106,107,108,109 width_5"/><line x1="360" x2="458" y1="441.5" y2="441.5" class="net_105,106,107,108,109 width_5" style="stroke-width: 2"/><line x1="350" x2="606" y1="560" y2="560" class="net_105,106,107,108,109 width_5" style="stroke-width: 2"/><line x1="481" x2="491" y1="370" y2="370" class="net_49 width_1" style="stroke-width: 1"/><line x1="491" x2="491" y1="370" y2="419" class="net_49 width_1" style="stroke-width: 1"/><line x1="491" x2="518" y1="419" y2="419" class="net_49 width_1" style="stroke-width: 1"/><line x1="481" x2="518" y1="434" y2="434" class="net_50 width_1" style="stroke-width: 1"/><line x1="416" x2="519.6666666666667" y1="494" y2="494" class="net_110,111,112,113,114,115,116,117,118,119 width_10" style="stroke-width: 2"/><line x1="546" x2="556" y1="426.5" y2="426.5" class="net_51 width_1" style="stroke-width: 1"/><line x1="556" x2="556" y1="426.5" y2="471.5" class="net_51 width_1" style="stroke-width: 1"/><line x1="556" x2="604.3333333333334" y1="471.5" y2="471.5" class="net_51 width_1" style="stroke-width: 1"/><line x1="542.6666666666667" x2="604.3333333333334" y1="486.5" y2="486.5" class="net_52 width_1" style="stroke-width: 1"/><line x1="632.3333333333334" x2="666" y1="479" y2="479" class="net_53 width_1" style="stroke-width: 1"/><line x1="666" x2="666" y1="479" y2="537.5" class="net_53 width_1" style="stroke-width: 1"/><line x1="666" x2="693" y1="537.5" y2="537.5" class="net_53 width_1" style="stroke-width: 1"/><line x1="629" x2="693" y1="552.5" y2="552.5" class="net_54 width_1" style="stroke-width: 1"/><line x1="721" x2="731" y1="331.5" y2="331.5" class="net_48 width_1" style="stroke-width: 1"/><line x1="731" x2="731" y1="331.5" y2="530" class="net_48 width_1" style="stroke-width: 1"/><line x1="731" x2="782.6666666666666" y1="530" y2="530" class="net_48 width_1" style="stroke-width: 1"/><line x1="721" x2="782.6666666666666" y1="545" y2="545" class="net_55 width_1" style="stroke-width: 1"/><line x1="812.6666666666666" x2="851" y1="537.5" y2="537.5" class="net_56 width_1" style="stroke-width: 1"/><line x1="851" x2="851" y1="537.5" y2="775.5" class="net_56 width_1" style="stroke-width: 1"/><line x1="851" x2="878.3333333333334" y1="775.5" y2="775.5" class="net_56 width_1" style="stroke-width: 1"/><line x1="812" x2="878.3333333333334" y1="790.5" y2="790.5" class="net_57 width_1" style="stroke-width: 1"/><line x1="907" x2="942" y1="725.5" y2="725.5" class="net_126 width_1" style="stroke-width: 1"/><line x1="906.3333333333334" x2="952" y1="783" y2="783" class="net_58 width_1" style="stroke-width: 1"/><line x1="952" x2="952" y1="783" y2="730.5" class="net_58 width_1" style="stroke-width: 1"/><line x1="157" x2="230" y1="948" y2="948" class="net_68 width_1" style="stroke-width: 1"/><line x1="230" x2="230" y1="948" y2="613" class="net_68 width_1" style="stroke-width: 1"/><line x1="230" x2="556" y1="613" y2="613" class="net_68 width_1" style="stroke-width: 1"/><line x1="556" x2="556" y1="613" y2="620.5" class="net_68 width_1" style="stroke-width: 1"/><line x1="556" x2="600" y1="620.5" y2="620.5" class="net_68 width_1" style="stroke-width: 1"/><line x1="157" x2="230" y1="948" y2="948" class="net_68 width_1" style="stroke-width: 1"/><line x1="230" x2="230" y1="948" y2="810" class="net_68 width_1" style="stroke-width: 1"/><line x1="230" x2="731" y1="810" y2="810" class="net_68 width_1" style="stroke-width: 1"/><line x1="731" x2="731" y1="810" y2="810.5" class="net_68 width_1" style="stroke-width: 1"/><circle cx="230" cy="810" r="2" style="fill:#000" class="net_68 width_1"/><line x1="731" x2="781" y1="810.5" y2="810.5" class="net_68 width_1" style="stroke-width: 1"/><line x1="481" x2="600" y1="640.5" y2="640.5" class="net_26,27,28,29,30,31 width_6" style="stroke-width: 2"/><line x1="481" x2="556" y1="782.5" y2="782.5" class="net_14,15,16,17,18,19 width_6" style="stroke-width: 2"/><line x1="556" x2="556" y1="782.5" y2="660.5" class="net_14,15,16,17,18,19 width_6" style="stroke-width: 2"/><line x1="556" x2="600" y1="660.5" y2="660.5" class="net_14,15,16,17,18,19 width_6" style="stroke-width: 2"/><line x1="631" x2="731" y1="620.5" y2="620.5" class="net_60,61,62,63,64,65,66,67 width_8" style="stroke-width: 2"/><line x1="731" x2="731" y1="620.5" y2="790.5" class="net_60,61,62,63,64,65,66,67 width_8" style="stroke-width: 2"/><line x1="731" x2="781" y1="790.5" y2="790.5" class="net_60,61,62,63,64,65,66,67 width_8" style="stroke-width: 2"/><line x1="331" x2="370" y1="725.5" y2="725.5" class="net_41,42,43 width_3" style="stroke-width: 2"/><line x1="370" x2="370" y1="725.5" y2="830.5" class="net_41,42,43 width_3" style="stroke-width: 2"/><line x1="370" x2="781" y1="830.5" y2="830.5" class="net_41,42,43 width_3" style="stroke-width: 2"/><line x1="331" x2="731" y1="853.5" y2="853.5" class="net_33,34,35 width_3" style="stroke-width: 2"/><line x1="731" x2="731" y1="853.5" y2="850.5" class="net_33,34,35 width_3" style="stroke-width: 2"/><line x1="731" x2="781" y1="850.5" y2="850.5" class="net_33,34,35 width_3" style="stroke-width: 2"/><line x1="962" x2="982" y1="715.5" y2="715.5" class="net_59 width_1" style="stroke-width: 1"/><line x1="982" x2="982" y1="715.5" y2="12" class="net_59 width_1" style="stroke-width: 1"/><line x1="982" x2="64" y1="12" y2="12" class="net_59 width_1" style="stroke-width: 1"/><line x1="64" x2="64" y1="12" y2="928" class="net_59 width_1" style="stroke-width: 1"/><circle cx="64" cy="928" r="2" style="fill:#000" class="net_59 width_1"/><line x1="64" x2="126" y1="928" y2="928" class="net_59 width_1" style="stroke-width: 1"/><line x1="962" x2="982" y1="715.5" y2="715.5" class="net_59 width_1" style="stroke-width: 1"/><line x1="982" x2="982" y1="715.5" y2="12" class="net_59 width_1" style="stroke-width: 1"/><line x1="982" x2="64" y1="12" y2="12" class="net_59 width_1" style="stroke-width: 1"/><line x1="64" x2="64" y1="12" y2="968" class="net_59 width_1" style="stroke-width: 1"/><circle cx="982" cy="715.5" r="2" style="fill:#000" class="net_59 width_1"/><line x1="64" x2="126" y1="968" y2="968" class="net_59 width_1" style="stroke-width: 1"/><line x1="962" x2="982" y1="715.5" y2="715.5" class="net_59 width_1" style="stroke-width: 1"/><line x1="982" x2="982" y1="715.5" y2="1090.5" class="net_59 width_1" style="stroke-width: 1"/><line x1="982" x2="64" y1="1090.5" y2="1090.5" class="net_59 width_1" style="stroke-width: 1"/><line x1="64" x2="64" y1="1090.5" y2="988" class="net_59 width_1" style="stroke-width: 1"/><line x1="64" x2="126" y1="988" y2="988" class="net_59 width_1" style="stroke-width: 1"/><line x1="42" x2="126" y1="948" y2="948" class="net_2 width_1" style="stroke-width: 1"/><line x1="157" x2="270" y1="1028" y2="1028" class="net_3 width_1" style="stroke-width: 1"/><line x1="270" x2="270" y1="1028" y2="1003" class="net_3 width_1" style="stroke-width: 1"/><line x1="270" x2="942" y1="1003" y2="1003" class="net_3 width_1" style="stroke-width: 1"/><line x1="157" x2="240" y1="988" y2="988" class="net_4 width_1" style="stroke-width: 1"/><line x1="240" x2="240" y1="988" y2="873" class="net_4 width_1" style="stroke-width: 1"/><line x1="240" x2="942" y1="873" y2="873" class="net_4 width_1" style="stroke-width: 1"/><line x1="157" x2="210" y1="928" y2="928" class="net_5 width_1" style="stroke-width: 1"/><line x1="210" x2="210" y1="928" y2="42" class="net_5 width_1" style="stroke-width: 1"/><line x1="210" x2="942" y1="42" y2="42" class="net_5 width_1" style="stroke-width: 1"/><line x1="157" x2="250" y1="1008" y2="1008" class="net_6 width_1" style="stroke-width: 1"/><line x1="250" x2="250" y1="1008" y2="938" class="net_6 width_1" style="stroke-width: 1"/><line x1="250" x2="942" y1="938" y2="938" class="net_6 width_1" style="stroke-width: 1"/><line x1="157" x2="942" y1="1068" y2="1068" class="net_7 width_1" style="stroke-width: 1"/><rect x="399.5" y="765" width="16" height="9" class="net_8,9,10,11,12,13 width_6 busLabel_6" style="fill: white; stroke: none"/><text x="398.5" y="773" class="net_8,9,10,11,12,13 width_6 busLabel_6">/6/</text><rect x="399.5" y="785" width="16" height="9" class="net_69,70,71 width_3 busLabel_3" style="fill: white; stroke: none"/><text x="398.5" y="793" class="net_69,70,71 width_3 busLabel_3">/3/</text><rect x="399.5" y="623" width="16" height="9" class="net_20,21,22,23,24,25 width_6 busLabel_6" style="fill: white; stroke: none"/><text x="398.5" y="631" class="net_20,21,22,23,24,25 width_6 busLabel_6">/6/</text><rect x="399.5" y="643" width="16" height="9" class="net_72,73,74 width_3 busLabel_3" style="fill: white; stroke: none"/><text x="398.5" y="651" class="net_72,73,74 width_3 busLabel_3">/3/</text><rect x="281" y="838.5" width="22" height="9" class="net_32,33,34,35,8,9,10,11,12,13,36 width_11 busLabel_11" style="fill: white; stroke: none"/><text x="280" y="846.5" class="net_32,33,34,35,8,9,10,11,12,13,36 width_11 busLabel_11">/11/</text><rect x="281" y="838.5" width="22" height="9" class="net_32,33,34,35,8,9,10,11,12,13,36 width_11 busLabel_11" style="fill: white; stroke: none"/><text x="280" y="846.5" class="net_32,33,34,35,8,9,10,11,12,13,36 width_11 busLabel_11">/11/</text><rect x="281" y="838.5" width="22" height="9" class="net_32,33,34,35,8,9,10,11,12,13,36 width_11 busLabel_11" style="fill: white; stroke: none"/><text x="280" y="846.5" class="net_32,33,34,35,8,9,10,11,12,13,36 width_11 busLabel_11">/11/</text><rect x="281" y="838.5" width="22" height="9" class="net_32,33,34,35,8,9,10,11,12,13,36 width_11 busLabel_11" style="fill: white; stroke: none"/><text x="280" y="846.5" class="net_32,33,34,35,8,9,10,11,12,13,36 width_11 busLabel_11">/11/</text><rect x="281" y="838.5" width="22" height="9" class="net_32,33,34,35,8,9,10,11,12,13,36 width_11 busLabel_11" style="fill: white; stroke: none"/><text x="280" y="846.5" class="net_32,33,34,35,8,9,10,11,12,13,36 width_11 busLabel_11">/11/</text><rect x="399.5" y="113" width="16" height="9" class="net_75,76,77,78,79,80,81,82,83 width_9 busLabel_9" style="fill: white; stroke: none"/><text x="398.5" y="121" class="net_75,76,77,78,79,80,81,82,83 width_9 busLabel_9">/9/</text><rect x="281" y="710.5" width="22" height="9" class="net_40,41,42,43,20,21,22,23,24,25,44 width_11 busLabel_11" style="fill: white; stroke: none"/><text x="280" y="718.5" class="net_40,41,42,43,20,21,22,23,24,25,44 width_11 busLabel_11">/11/</text><rect x="281" y="710.5" width="22" height="9" class="net_40,41,42,43,20,21,22,23,24,25,44 width_11 busLabel_11" style="fill: white; stroke: none"/><text x="280" y="718.5" class="net_40,41,42,43,20,21,22,23,24,25,44 width_11 busLabel_11">/11/</text><rect x="281" y="710.5" width="22" height="9" class="net_40,41,42,43,20,21,22,23,24,25,44 width_11 busLabel_11" style="fill: white; stroke: none"/><text x="280" y="718.5" class="net_40,41,42,43,20,21,22,23,24,25,44 width_11 busLabel_11">/11/</text><rect x="281" y="710.5" width="22" height="9" class="net_40,41,42,43,20,21,22,23,24,25,44 width_11 busLabel_11" style="fill: white; stroke: none"/><text x="280" y="718.5" class="net_40,41,42,43,20,21,22,23,24,25,44 width_11 busLabel_11">/11/</text><rect x="281" y="710.5" width="22" height="9" class="net_40,41,42,43,20,21,22,23,24,25,44 width_11 busLabel_11" style="fill: white; stroke: none"/><text x="280" y="718.5" class="net_40,41,42,43,20,21,22,23,24,25,44 width_11 busLabel_11">/11/</text><rect x="467.5" y="245.5" width="22" height="9" class="net_85,86,87,88,89,90,91,92,93,94 width_10 busLabel_10" style="fill: white; stroke: none"/><text x="466.5" y="253.5" class="net_85,86,87,88,89,90,91,92,93,94 width_10 busLabel_10">/10/</text><rect x="399.5" y="372.5" width="16" height="9" class="net_96,97,98,99,100,101,102,103,104 width_9 busLabel_9" style="fill: white; stroke: none"/><text x="398.5" y="380.5" class="net_96,97,98,99,100,101,102,103,104 width_9 busLabel_9">/9/</text><rect x="467.5" y="555" width="16" height="9" class="net_105,106,107,108,109 width_5 busLabel_5" style="fill: white; stroke: none"/><text x="466.5" y="563" class="net_105,106,107,108,109 width_5 busLabel_5">/5/</text><rect x="467.5" y="555" width="16" height="9" class="net_105,106,107,108,109 width_5 busLabel_5" style="fill: white; stroke: none"/><text x="466.5" y="563" class="net_105,106,107,108,109 width_5 busLabel_5">/5/</text><rect x="467.5" y="489" width="22" height="9" class="net_110,111,112,113,114,115,116,117,118,119 width_10 busLabel_10" style="fill: white; stroke: none"/><text x="466.5" y="497" class="net_110,111,112,113,114,115,116,117,118,119 width_10 busLabel_10">/10/</text><rect x="530" y="635.5" width="16" height="9" class="net_26,27,28,29,30,31 width_6 busLabel_6" style="fill: white; stroke: none"/><text x="529" y="643.5" class="net_26,27,28,29,30,31 width_6 busLabel_6">/6/</text><rect x="530" y="777.5" width="16" height="9" class="net_14,15,16,17,18,19 width_6 busLabel_6" style="fill: white; stroke: none"/><text x="529" y="785.5" class="net_14,15,16,17,18,19 width_6 busLabel_6">/6/</text><rect x="705" y="615.5" width="16" height="9" class="net_60,61,62,63,64,65,66,67 width_8 busLabel_8" style="fill: white; stroke: none"/><text x="704" y="623.5" class="net_60,61,62,63,64,65,66,67 width_8 busLabel_8">/8/</text><rect x="530" y="825.5" width="16" height="9" class="net_41,42,43 width_3 busLabel_3" style="fill: white; stroke: none"/><text x="529" y="833.5" class="net_41,42,43 width_3 busLabel_3">/3/</text><rect x="530" y="848.5" width="16" height="9" class="net_33,34,35 width_3 busLabel_3" style="fill: white; stroke: none"/><text x="529" y="856.5" class="net_33,34,35 width_3 busLabel_3">/3/</text></svg>