<svg xmlns="http://www.w3.org/2000/svg" xmlns:xlink="http://www.w3.org/1999/xlink" xmlns:s="https://github.com/nturley/netlistsvg" width="560" height="507">
  <style>svg {
    stroke:#000;
    fill:none;
  }
  text {
    fill:#000;
    stroke:none;
    font-size:10px;
    font-weight: bold;
    font-family: "Courier New", monospace;
  }
  .nodelabel {
    text-anchor: middle;
  }
  .inputPortLabel {
    text-anchor: end;
  }
  .splitjoinBody {
    fill:#000;
  }</style>
  <g s:type="sub" transform="translate(303,290.5)" s:width="25" s:height="25" id="cell_\44">
    <s:alias val="$sub"/>
    <circle r="12.5" cx="12.5" cy="12.5" class="cell_\44"/>
    <line x1="7.5" x2="17.5" y1="12.5" y2="12.5" class="cell_\44"/>
    <g s:x="3" s:y="5" s:pid="A"/>
    <g s:x="3" s:y="20" s:pid="B"/>
    <g s:x="25" s:y="12.5" s:pid="Y"/>
  </g>
  <g s:type="sub" transform="translate(303,19.5)" s:width="25" s:height="25" id="cell_\47">
    <s:alias val="$sub"/>
    <circle r="12.5" cx="12.5" cy="12.5" class="cell_\47"/>
    <line x1="7.5" x2="17.5" y1="12.5" y2="12.5" class="cell_\47"/>
    <g s:x="3" s:y="5" s:pid="A"/>
    <g s:x="3" s:y="20" s:pid="B"/>
    <g s:x="25" s:y="12.5" s:pid="Y"/>
  </g>
  <g s:type="generic" transform="translate(165,351.5)" s:width="30" s:height="40" id="cell_dut1">
    <text x="15" y="-4" class="nodelabel cell_dut1" s:attribute="ref">SB_HFOSC</text>
    <rect width="30" height="40" s:generic="body" class="cell_dut1"/>
    <g transform="translate(0,10)" s:x="0" s:y="10" s:pid="in0" id="port_dut1~CLKHFEN">
      <text x="-3" y="-4" class="inputPortLabel cell_dut1">CLKHFEN</text>
    </g>
    <g transform="translate(0,30)" s:x="0" s:y="10" s:pid="in0" id="port_dut1~CLKHFPU">
      <text x="-3" y="-4" class="inputPortLabel cell_dut1">CLKHFPU</text>
    </g>
    <g transform="translate(30,10)" s:x="30" s:y="10" s:pid="out0" id="port_dut1~CLKHF">
      <text x="5" y="-4" style="fill:#000; stroke:none" class="cell_dut1">CLKHF</text>
    </g>
  </g>
  <g s:type="generic" transform="translate(299,106.5)" s:width="30" s:height="40" id="cell_dut2">
    <text x="15" y="-4" class="nodelabel cell_dut2" s:attribute="ref">vga</text>
    <rect width="30" height="160" s:generic="body" class="cell_dut2"/>
    <g transform="translate(0,10)" s:x="0" s:y="10" s:pid="in0" id="port_dut2~bin">
      <text x="-3" y="-4" class="inputPortLabel cell_dut2">bin</text>
    </g>
    <g transform="translate(0,30)" s:x="0" s:y="10" s:pid="in0" id="port_dut2~clk_48">
      <text x="-3" y="-4" class="inputPortLabel cell_dut2">clk_48</text>
    </g>
    <g transform="translate(0,50)" s:x="0" s:y="10" s:pid="in0" id="port_dut2~gin">
      <text x="-3" y="-4" class="inputPortLabel cell_dut2">gin</text>
    </g>
    <g transform="translate(0,70)" s:x="0" s:y="10" s:pid="in0" id="port_dut2~rin">
      <text x="-3" y="-4" class="inputPortLabel cell_dut2">rin</text>
    </g>
    <g transform="translate(30,10)" s:x="30" s:y="10" s:pid="out0" id="port_dut2~bout">
      <text x="5" y="-4" style="fill:#000; stroke:none" class="cell_dut2">bout</text>
    </g>
    <g transform="translate(30,30)" s:x="30" s:y="10" s:pid="out0" id="port_dut2~clk_pxl">
      <text x="5" y="-4" style="fill:#000; stroke:none" class="cell_dut2">clk_pxl</text>
    </g>
    <g transform="translate(30,50)" s:x="30" s:y="10" s:pid="out0" id="port_dut2~col">
      <text x="5" y="-4" style="fill:#000; stroke:none" class="cell_dut2">col</text>
    </g>
    <g transform="translate(30,70)" s:x="30" s:y="10" s:pid="out0" id="port_dut2~gout">
      <text x="5" y="-4" style="fill:#000; stroke:none" class="cell_dut2">gout</text>
    </g>
    <g transform="translate(30,90)" s:x="30" s:y="10" s:pid="out0" id="port_dut2~hsync">
      <text x="5" y="-4" style="fill:#000; stroke:none" class="cell_dut2">hsync</text>
    </g>
    <g transform="translate(30,110)" s:x="30" s:y="10" s:pid="out0" id="port_dut2~rout">
      <text x="5" y="-4" style="fill:#000; stroke:none" class="cell_dut2">rout</text>
    </g>
    <g transform="translate(30,130)" s:x="30" s:y="10" s:pid="out0" id="port_dut2~row">
      <text x="5" y="-4" style="fill:#000; stroke:none" class="cell_dut2">row</text>
    </g>
    <g transform="translate(30,150)" s:x="30" s:y="10" s:pid="out0" id="port_dut2~vsync">
      <text x="5" y="-4" style="fill:#000; stroke:none" class="cell_dut2">vsync</text>
    </g>
  </g>
  <g s:type="generic" transform="translate(160.6,106.5)" s:width="30" s:height="40" id="cell_dut3">
    <text x="15" y="-4" class="nodelabel cell_dut3" s:attribute="ref">ascii</text>
    <rect width="30" height="80" s:generic="body" class="cell_dut3"/>
    <g transform="translate(0,10)" s:x="0" s:y="10" s:pid="in0" id="port_dut3~char">
      <text x="-3" y="-4" class="inputPortLabel cell_dut3">char</text>
    </g>
    <g transform="translate(0,30)" s:x="0" s:y="10" s:pid="in0" id="port_dut3~clk">
      <text x="-3" y="-4" class="inputPortLabel cell_dut3">clk</text>
    </g>
    <g transform="translate(0,50)" s:x="0" s:y="10" s:pid="in0" id="port_dut3~col">
      <text x="-3" y="-4" class="inputPortLabel cell_dut3">col</text>
    </g>
    <g transform="translate(0,70)" s:x="0" s:y="10" s:pid="in0" id="port_dut3~row">
      <text x="-3" y="-4" class="inputPortLabel cell_dut3">row</text>
    </g>
    <g transform="translate(30,10)" s:x="30" s:y="10" s:pid="out0" id="port_dut3~lum">
      <text x="5" y="-4" style="fill:#000; stroke:none" class="cell_dut3">lum</text>
    </g>
  </g>
  <g s:type="generic" transform="translate(482,172)" s:width="30" s:height="40" id="cell_dut4">
    <text x="15" y="-4" class="nodelabel cell_dut4" s:attribute="ref">text_buffer</text>
    <rect width="30" height="60" s:generic="body" class="cell_dut4"/>
    <g transform="translate(0,10)" s:x="0" s:y="10" s:pid="in0" id="port_dut4~clk">
      <text x="-3" y="-4" class="inputPortLabel cell_dut4">clk</text>
    </g>
    <g transform="translate(0,30)" s:x="0" s:y="10" s:pid="in0" id="port_dut4~col">
      <text x="-3" y="-4" class="inputPortLabel cell_dut4">col</text>
    </g>
    <g transform="translate(0,50)" s:x="0" s:y="10" s:pid="in0" id="port_dut4~row">
      <text x="-3" y="-4" class="inputPortLabel cell_dut4">row</text>
    </g>
    <g transform="translate(30,10)" s:x="30" s:y="10" s:pid="out0" id="port_dut4~char">
      <text x="5" y="-4" style="fill:#000; stroke:none" class="cell_dut4">char</text>
    </g>
  </g>
  <g s:type="outputExt" transform="translate(482,410)" s:width="30" s:height="20" id="cell_rout">
    <text x="15" y="-4" class="nodelabel cell_rout" s:attribute="ref">rout</text>
    <s:alias val="$_outputExt_"/>
    <path d="M30,0 L30,20 L15,20 L0,10 L15,0 Z" class="cell_rout"/>
    <g s:x="0" s:y="10" s:pid="A"/>
  </g>
  <g s:type="outputExt" transform="translate(482,280)" s:width="30" s:height="20" id="cell_gout">
    <text x="15" y="-4" class="nodelabel cell_gout" s:attribute="ref">gout</text>
    <s:alias val="$_outputExt_"/>
    <path d="M30,0 L30,20 L15,20 L0,10 L15,0 Z" class="cell_gout"/>
    <g s:x="0" s:y="10" s:pid="A"/>
  </g>
  <g s:type="outputExt" transform="translate(482,107)" s:width="30" s:height="20" id="cell_bout">
    <text x="15" y="-4" class="nodelabel cell_bout" s:attribute="ref">bout</text>
    <s:alias val="$_outputExt_"/>
    <path d="M30,0 L30,20 L15,20 L0,10 L15,0 Z" class="cell_bout"/>
    <g s:x="0" s:y="10" s:pid="A"/>
  </g>
  <g s:type="outputExt" transform="translate(482,345)" s:width="30" s:height="20" id="cell_hsync">
    <text x="15" y="-4" class="nodelabel cell_hsync" s:attribute="ref">hsync</text>
    <s:alias val="$_outputExt_"/>
    <path d="M30,0 L30,20 L15,20 L0,10 L15,0 Z" class="cell_hsync"/>
    <g s:x="0" s:y="10" s:pid="A"/>
  </g>
  <g s:type="outputExt" transform="translate(482,475)" s:width="30" s:height="20" id="cell_vsync">
    <text x="15" y="-4" class="nodelabel cell_vsync" s:attribute="ref">vsync</text>
    <s:alias val="$_outputExt_"/>
    <path d="M30,0 L30,20 L15,20 L0,10 L15,0 Z" class="cell_vsync"/>
    <g s:x="0" s:y="10" s:pid="A"/>
  </g>
  <g s:type="constant" transform="translate(165,300.5)" s:width="30" s:height="20" id="cell_100">
    <text x="15" y="-4" class="nodelabel cell_100" s:attribute="ref">100</text>
    <s:alias val="$_constant_"/>
    <rect width="30" height="20" class="cell_100"/>
    <g s:x="30" s:y="10" s:pid="Y"/>
  </g>
  <g s:type="constant" transform="translate(165,45.5)" s:width="30" s:height="20" id="cell_110">
    <text x="15" y="-4" class="nodelabel cell_110" s:attribute="ref">110</text>
    <s:alias val="$_constant_"/>
    <rect width="30" height="20" class="cell_110"/>
    <g s:x="30" s:y="10" s:pid="Y"/>
  </g>
  <g s:type="constant" transform="translate(42,352)" s:width="30" s:height="20" id="cell_1">
    <text x="15" y="-4" class="nodelabel cell_1" s:attribute="ref">1</text>
    <s:alias val="$_constant_"/>
    <rect width="30" height="20" class="cell_1"/>
    <g s:x="30" s:y="10" s:pid="Y"/>
  </g>
  <g s:type="split" transform="translate(48,146.5)" s:width="5" s:height="40" id="cell_$split$,39,40,41,42,7,8,9,10,11,12,43,">
    <rect width="5" height="40" class="splitjoinBody" s:generic="body"/>
    <s:alias val="$_split_"/>
    <g s:x="0" s:y="20" s:pid="in"/>
    <g transform="translate(4,10)" s:x="4" s:y="10" s:pid="out0">
      <text x="5" y="-4">4:9</text>
    </g>
    <g transform="translate(4,30)" s:x="4" s:y="10" s:pid="out0">
      <text x="5" y="-4">1:3</text>
    </g>
  </g>
  <g s:type="split" transform="translate(48,14)" s:width="5" s:height="40" id="cell_$split$,34,35,36,37,19,20,21,22,23,24,38,">
    <rect width="5" height="40" class="splitjoinBody" s:generic="body"/>
    <s:alias val="$_split_"/>
    <g s:x="0" s:y="20" s:pid="in"/>
    <g transform="translate(4,10)" s:x="4" s:y="10" s:pid="out0">
      <text x="5" y="-4">4:9</text>
    </g>
    <g transform="translate(4,30)" s:x="4" s:y="10" s:pid="out0">
      <text x="5" y="-4">1:3</text>
    </g>
  </g>
  <line x1="53" x2="82" y1="157" y2="157" class="net_7,8,9,10,11,12"/>
  <line x1="82" x2="82" y1="157" y2="199.5" class="net_7,8,9,10,11,12"/>
  <line x1="82" x2="247" y1="199.5" y2="199.5" class="net_7,8,9,10,11,12"/>
  <line x1="247" x2="247" y1="199.5" y2="295.5" class="net_7,8,9,10,11,12"/>
  <line x1="247" x2="306" y1="295.5" y2="295.5" class="net_7,8,9,10,11,12"/>
  <line x1="195" x2="306" y1="310.5" y2="310.5" class="net_52,53,54"/>
  <line x1="53" x2="306" y1="24.5" y2="24.5" class="net_19,20,21,22,23,24"/>
  <line x1="195" x2="237" y1="55.5" y2="55.5" class="net_55,56,57"/>
  <line x1="237" x2="237" y1="55.5" y2="39.5" class="net_55,56,57"/>
  <line x1="237" x2="306" y1="39.5" y2="39.5" class="net_55,56,57"/>
  <line x1="72" x2="165" y1="362" y2="362" class="net_58"/>
  <line x1="72" x2="82" y1="362" y2="362" class="net_58"/>
  <line x1="82" x2="82" y1="362" y2="382" class="net_58"/>
  <circle cx="82" cy="362" r="2" style="fill:#000" class="net_58"/>
  <line x1="82" x2="165" y1="382" y2="382" class="net_58"/>
  <line x1="191.6" x2="299" y1="117" y2="117" class="net_32"/>
  <line x1="191.6" x2="247" y1="117" y2="117" class="net_32"/>
  <line x1="247" x2="247" y1="117" y2="157" class="net_32"/>
  <circle cx="247" cy="117" r="2" style="fill:#000" class="net_32"/>
  <circle cx="247" cy="157" r="2" style="fill:#000" class="net_32"/>
  <line x1="247" x2="299" y1="157" y2="157" class="net_32"/>
  <line x1="191.6" x2="247" y1="117" y2="117" class="net_32"/>
  <line x1="247" x2="247" y1="117" y2="177" class="net_32"/>
  <line x1="247" x2="299" y1="177" y2="177" class="net_32"/>
  <line x1="196" x2="237" y1="362" y2="362" class="net_31"/>
  <line x1="237" x2="237" y1="362" y2="137" class="net_31"/>
  <line x1="237" x2="299" y1="137" y2="137" class="net_31"/>
  <line x1="513" x2="548" y1="182.5" y2="182.5" class="net_44,45,46,47,48,49,50,51"/>
  <line x1="548" x2="548" y1="182.5" y2="75.5" class="net_44,45,46,47,48,49,50,51"/>
  <line x1="548" x2="102" y1="75.5" y2="75.5" class="net_44,45,46,47,48,49,50,51"/>
  <line x1="102" x2="102" y1="75.5" y2="117" class="net_44,45,46,47,48,49,50,51"/>
  <line x1="102" x2="160.6" y1="117" y2="117" class="net_44,45,46,47,48,49,50,51"/>
  <line x1="330" x2="443" y1="137" y2="137" class="net_33"/>
  <line x1="443" x2="443" y1="137" y2="86.5" class="net_33"/>
  <line x1="443" x2="112" y1="86.5" y2="86.5" class="net_33"/>
  <line x1="112" x2="112" y1="86.5" y2="137" class="net_33"/>
  <circle cx="443" cy="137" r="2" style="fill:#000" class="net_33"/>
  <line x1="112" x2="160.6" y1="137" y2="137" class="net_33"/>
  <line x1="330" x2="443" y1="137" y2="137" class="net_33"/>
  <line x1="443" x2="443" y1="137" y2="182.5" class="net_33"/>
  <line x1="443" x2="482" y1="182.5" y2="182.5" class="net_33"/>
  <line x1="53" x2="92" y1="44.5" y2="44.5" class="net_35,36,37"/>
  <line x1="92" x2="92" y1="44.5" y2="157" class="net_35,36,37"/>
  <line x1="92" x2="160.6" y1="157" y2="157" class="net_35,36,37"/>
  <line x1="53" x2="160.6" y1="177" y2="177" class="net_40,41,42"/>
  <line x1="328" x2="453" y1="32" y2="32" class="net_25,26,27,28,29,30"/>
  <line x1="453" x2="453" y1="32" y2="202.5" class="net_25,26,27,28,29,30"/>
  <line x1="453" x2="482" y1="202.5" y2="202.5" class="net_25,26,27,28,29,30"/>
  <line x1="328" x2="443" y1="303" y2="303" class="net_13,14,15,16,17,18"/>
  <line x1="443" x2="443" y1="303" y2="222.5" class="net_13,14,15,16,17,18"/>
  <line x1="443" x2="482" y1="222.5" y2="222.5" class="net_13,14,15,16,17,18"/>
  <line x1="330" x2="403" y1="217" y2="217" class="net_2"/>
  <line x1="403" x2="403" y1="217" y2="420" class="net_2"/>
  <line x1="403" x2="482" y1="420" y2="420" class="net_2"/>
  <line x1="330" x2="433" y1="177" y2="177" class="net_3"/>
  <line x1="433" x2="433" y1="177" y2="290" class="net_3"/>
  <line x1="433" x2="482" y1="290" y2="290" class="net_3"/>
  <line x1="330" x2="482" y1="117" y2="117" class="net_4"/>
  <line x1="330" x2="413" y1="197" y2="197" class="net_5"/>
  <line x1="413" x2="413" y1="197" y2="355" class="net_5"/>
  <line x1="413" x2="482" y1="355" y2="355" class="net_5"/>
  <line x1="330" x2="383" y1="257" y2="257" class="net_6"/>
  <line x1="383" x2="383" y1="257" y2="485" class="net_6"/>
  <line x1="383" x2="482" y1="485" y2="485" class="net_6"/>
  <line x1="330" x2="393" y1="237" y2="237" class="net_39,40,41,42,7,8,9,10,11,12,43"/>
  <line x1="393" x2="393" y1="237" y2="279.5" class="net_39,40,41,42,7,8,9,10,11,12,43"/>
  <line x1="393" x2="22" y1="279.5" y2="279.5" class="net_39,40,41,42,7,8,9,10,11,12,43"/>
  <line x1="22" x2="22" y1="279.5" y2="167" class="net_39,40,41,42,7,8,9,10,11,12,43"/>
  <line x1="22" x2="48" y1="167" y2="167" class="net_39,40,41,42,7,8,9,10,11,12,43"/>
  <line x1="330" x2="423" y1="157" y2="157" class="net_34,35,36,37,19,20,21,22,23,24,38"/>
  <line x1="423" x2="423" y1="157" y2="330.5" class="net_34,35,36,37,19,20,21,22,23,24,38"/>
  <line x1="423" x2="12" y1="330.5" y2="330.5" class="net_34,35,36,37,19,20,21,22,23,24,38"/>
  <line x1="12" x2="12" y1="330.5" y2="34.5" class="net_34,35,36,37,19,20,21,22,23,24,38"/>
  <line x1="12" x2="48" y1="34.5" y2="34.5" class="net_34,35,36,37,19,20,21,22,23,24,38"/>
</svg>
