<svg xmlns="http://www.w3.org/2000/svg" xmlns:xlink="http://www.w3.org/1999/xlink" xmlns:s="https://github.com/nturley/netlistsvg" width="740" height="565">
  <style>svg {
    stroke:#000;
    fill:none;
  }
  text {
    fill:#000;
    stroke:none;
    font-size:10px;
    font-weight: bold;
    font-family: "Courier New", monospace;
  }
  .nodelabel {
    text-anchor: middle;
  }
  .inputPortLabel {
    text-anchor: end;
  }
  .splitjoinBody {
    fill:#000;
  }</style>
  <g s:type="sub" transform="translate(473,261)" s:width="25" s:height="25" id="cell_\44">
    <s:alias val="$sub"/>
    <circle r="12.5" cx="12.5" cy="12.5" class="cell_\44"/>
    <line x1="7.5" x2="17.5" y1="12.5" y2="12.5" class="cell_\44"/>
    <g s:x="3" s:y="5" s:pid="A"/>
    <g s:x="3" s:y="20" s:pid="B"/>
    <g s:x="25" s:y="12.5" s:pid="Y"/>
  </g>
  <g s:type="sub" transform="translate(473,191.5)" s:width="25" s:height="25" id="cell_\47">
    <s:alias val="$sub"/>
    <circle r="12.5" cx="12.5" cy="12.5" class="cell_\47"/>
    <line x1="7.5" x2="17.5" y1="12.5" y2="12.5" class="cell_\47"/>
    <g s:x="3" s:y="5" s:pid="A"/>
    <g s:x="3" s:y="20" s:pid="B"/>
    <g s:x="25" s:y="12.5" s:pid="Y"/>
  </g>
  <g s:type="mux" transform="translate(119.66666666666667,369.5)" s:width="20" s:height="40" id="cell_\64">
    <s:alias val="$pmux"/>
    <s:alias val="$mux"/>
    <s:alias val="$_MUX_"/>
    <path d="M0,0 L20,10 L20,30 L0,40 Z" class="cell_\64"/>
    <g s:x="0" s:y="10" s:pid="A"/>
    <g s:x="0" s:y="30" s:pid="B"/>
    <g s:x="10" s:y="35" s:pid="S"/>
    <g s:x="20" s:y="20" s:pid="Y"/>
  </g>
  <g s:type="generic" transform="translate(120,291.5)" s:width="30" s:height="40" id="cell_dut1">
    <text x="15" y="-4" class="nodelabel cell_dut1" s:attribute="ref">SB_HFOSC</text>
    <rect width="30" height="40" s:generic="body" class="cell_dut1"/>
    <g transform="translate(0,10)" s:x="0" s:y="10" s:pid="in0" id="port_dut1~CLKHFEN">
      <text x="-3" y="-4" class="inputPortLabel cell_dut1">CLKHFEN</text>
    </g>
    <g transform="translate(0,30)" s:x="0" s:y="10" s:pid="in0" id="port_dut1~CLKHFPU">
      <text x="-3" y="-4" class="inputPortLabel cell_dut1">CLKHFPU</text>
    </g>
    <g transform="translate(30,10)" s:x="30" s:y="10" s:pid="out0" id="port_dut1~CLKHF">
      <text x="5" y="-4" style="fill:#000; stroke:none" class="cell_dut1">CLKHF</text>
    </g>
  </g>
  <g s:type="generic" transform="translate(254,379)" s:width="30" s:height="40" id="cell_dut2">
    <text x="15" y="-4" class="nodelabel cell_dut2" s:attribute="ref">vga</text>
    <rect width="30" height="160" s:generic="body" class="cell_dut2"/>
    <g transform="translate(0,10)" s:x="0" s:y="10" s:pid="in0" id="port_dut2~bin">
      <text x="-3" y="-4" class="inputPortLabel cell_dut2">bin</text>
    </g>
    <g transform="translate(0,30)" s:x="0" s:y="10" s:pid="in0" id="port_dut2~clk_48">
      <text x="-3" y="-4" class="inputPortLabel cell_dut2">clk_48</text>
    </g>
    <g transform="translate(0,50)" s:x="0" s:y="10" s:pid="in0" id="port_dut2~gin">
      <text x="-3" y="-4" class="inputPortLabel cell_dut2">gin</text>
    </g>
    <g transform="translate(0,70)" s:x="0" s:y="10" s:pid="in0" id="port_dut2~rin">
      <text x="-3" y="-4" class="inputPortLabel cell_dut2">rin</text>
    </g>
    <g transform="translate(30,10)" s:x="30" s:y="10" s:pid="out0" id="port_dut2~bout">
      <text x="5" y="-4" style="fill:#000; stroke:none" class="cell_dut2">bout</text>
    </g>
    <g transform="translate(30,30)" s:x="30" s:y="10" s:pid="out0" id="port_dut2~clk_pxl">
      <text x="5" y="-4" style="fill:#000; stroke:none" class="cell_dut2">clk_pxl</text>
    </g>
    <g transform="translate(30,50)" s:x="30" s:y="10" s:pid="out0" id="port_dut2~col">
      <text x="5" y="-4" style="fill:#000; stroke:none" class="cell_dut2">col</text>
    </g>
    <g transform="translate(30,70)" s:x="30" s:y="10" s:pid="out0" id="port_dut2~gout">
      <text x="5" y="-4" style="fill:#000; stroke:none" class="cell_dut2">gout</text>
    </g>
    <g transform="translate(30,90)" s:x="30" s:y="10" s:pid="out0" id="port_dut2~hsync">
      <text x="5" y="-4" style="fill:#000; stroke:none" class="cell_dut2">hsync</text>
    </g>
    <g transform="translate(30,110)" s:x="30" s:y="10" s:pid="out0" id="port_dut2~rout">
      <text x="5" y="-4" style="fill:#000; stroke:none" class="cell_dut2">rout</text>
    </g>
    <g transform="translate(30,130)" s:x="30" s:y="10" s:pid="out0" id="port_dut2~row">
      <text x="5" y="-4" style="fill:#000; stroke:none" class="cell_dut2">row</text>
    </g>
    <g transform="translate(30,150)" s:x="30" s:y="10" s:pid="out0" id="port_dut2~vsync">
      <text x="5" y="-4" style="fill:#000; stroke:none" class="cell_dut2">vsync</text>
    </g>
  </g>
  <g s:type="generic" transform="translate(668,261.5)" s:width="30" s:height="40" id="cell_dut3">
    <text x="15" y="-4" class="nodelabel cell_dut3" s:attribute="ref">ascii</text>
    <rect width="30" height="80" s:generic="body" class="cell_dut3"/>
    <g transform="translate(0,10)" s:x="0" s:y="10" s:pid="in0" id="port_dut3~char">
      <text x="-3" y="-4" class="inputPortLabel cell_dut3">char</text>
    </g>
    <g transform="translate(0,30)" s:x="0" s:y="10" s:pid="in0" id="port_dut3~clk">
      <text x="-3" y="-4" class="inputPortLabel cell_dut3">clk</text>
    </g>
    <g transform="translate(0,50)" s:x="0" s:y="10" s:pid="in0" id="port_dut3~col">
      <text x="-3" y="-4" class="inputPortLabel cell_dut3">col</text>
    </g>
    <g transform="translate(0,70)" s:x="0" s:y="10" s:pid="in0" id="port_dut3~row">
      <text x="-3" y="-4" class="inputPortLabel cell_dut3">row</text>
    </g>
    <g transform="translate(30,10)" s:x="30" s:y="10" s:pid="out0" id="port_dut3~lum">
      <text x="5" y="-4" style="fill:#000; stroke:none" class="cell_dut3">lum</text>
    </g>
  </g>
  <g s:type="generic" transform="translate(552,173.5)" s:width="30" s:height="40" id="cell_dut4">
    <text x="15" y="-4" class="nodelabel cell_dut4" s:attribute="ref">text_buffer</text>
    <rect width="30" height="60" s:generic="body" class="cell_dut4"/>
    <g transform="translate(0,10)" s:x="0" s:y="10" s:pid="in0" id="port_dut4~clk">
      <text x="-3" y="-4" class="inputPortLabel cell_dut4">clk</text>
    </g>
    <g transform="translate(0,30)" s:x="0" s:y="10" s:pid="in0" id="port_dut4~col">
      <text x="-3" y="-4" class="inputPortLabel cell_dut4">col</text>
    </g>
    <g transform="translate(0,50)" s:x="0" s:y="10" s:pid="in0" id="port_dut4~row">
      <text x="-3" y="-4" class="inputPortLabel cell_dut4">row</text>
    </g>
    <g transform="translate(30,10)" s:x="30" s:y="10" s:pid="out0" id="port_dut4~char">
      <text x="5" y="-4" style="fill:#000; stroke:none" class="cell_dut4">char</text>
    </g>
  </g>
  <g s:type="outputExt" transform="translate(668,454.5)" s:width="30" s:height="20" id="cell_rout">
    <text x="15" y="-4" class="nodelabel cell_rout" s:attribute="ref">rout</text>
    <s:alias val="$_outputExt_"/>
    <path d="M30,0 L30,20 L15,20 L0,10 L15,0 Z" class="cell_rout"/>
    <g s:x="0" s:y="10" s:pid="A"/>
  </g>
  <g s:type="outputExt" transform="translate(668,87)" s:width="30" s:height="20" id="cell_gout">
    <text x="15" y="-4" class="nodelabel cell_gout" s:attribute="ref">gout</text>
    <s:alias val="$_outputExt_"/>
    <path d="M30,0 L30,20 L15,20 L0,10 L15,0 Z" class="cell_gout"/>
    <g s:x="0" s:y="10" s:pid="A"/>
  </g>
  <g s:type="outputExt" transform="translate(668,22)" s:width="30" s:height="20" id="cell_bout">
    <text x="15" y="-4" class="nodelabel cell_bout" s:attribute="ref">bout</text>
    <s:alias val="$_outputExt_"/>
    <path d="M30,0 L30,20 L15,20 L0,10 L15,0 Z" class="cell_bout"/>
    <g s:x="0" s:y="10" s:pid="A"/>
  </g>
  <g s:type="outputExt" transform="translate(668,389.5)" s:width="30" s:height="20" id="cell_hsync">
    <text x="15" y="-4" class="nodelabel cell_hsync" s:attribute="ref">hsync</text>
    <s:alias val="$_outputExt_"/>
    <path d="M30,0 L30,20 L15,20 L0,10 L15,0 Z" class="cell_hsync"/>
    <g s:x="0" s:y="10" s:pid="A"/>
  </g>
  <g s:type="outputExt" transform="translate(668,519.5)" s:width="30" s:height="20" id="cell_vsync">
    <text x="15" y="-4" class="nodelabel cell_vsync" s:attribute="ref">vsync</text>
    <s:alias val="$_outputExt_"/>
    <path d="M30,0 L30,20 L15,20 L0,10 L15,0 Z" class="cell_vsync"/>
    <g s:x="0" s:y="10" s:pid="A"/>
  </g>
  <g s:type="constant" transform="translate(408,271)" s:width="30" s:height="20" id="cell_100">
    <text x="15" y="-4" class="nodelabel cell_100" s:attribute="ref">100</text>
    <s:alias val="$_constant_"/>
    <rect width="30" height="20" class="cell_100"/>
    <g s:x="30" s:y="10" s:pid="Y"/>
  </g>
  <g s:type="constant" transform="translate(408,129)" s:width="30" s:height="20" id="cell_110">
    <text x="15" y="-4" class="nodelabel cell_110" s:attribute="ref">110</text>
    <s:alias val="$_constant_"/>
    <rect width="30" height="20" class="cell_110"/>
    <g s:x="30" s:y="10" s:pid="Y"/>
  </g>
  <g s:type="constant" transform="translate(12,369.5)" s:width="30" s:height="20" id="cell_0">
    <text x="15" y="-4" class="nodelabel cell_0" s:attribute="ref">0</text>
    <s:alias val="$_constant_"/>
    <rect width="30" height="20" class="cell_0"/>
    <g s:x="30" s:y="10" s:pid="Y"/>
  </g>
  <g s:type="constant" transform="translate(12,292)" s:width="30" s:height="20" id="cell_1">
    <text x="15" y="-4" class="nodelabel cell_1" s:attribute="ref">1</text>
    <s:alias val="$_constant_"/>
    <rect width="30" height="20" class="cell_1"/>
    <g s:x="30" s:y="10" s:pid="Y"/>
  </g>
  <g s:type="split" transform="translate(414,349.5)" s:width="5" s:height="40" id="cell_$split$,40,41,42,43,7,8,9,10,11,12,44,">
    <rect width="5" height="40" class="splitjoinBody" s:generic="body"/>
    <s:alias val="$_split_"/>
    <g s:x="0" s:y="20" s:pid="in"/>
    <g transform="translate(4,10)" s:x="4" s:y="10" s:pid="out0">
      <text x="5" y="-4">4:9</text>
    </g>
    <g transform="translate(4,30)" s:x="4" s:y="10" s:pid="out0">
      <text x="5" y="-4">1:3</text>
    </g>
  </g>
  <g s:type="split" transform="translate(414,186)" s:width="5" s:height="40" id="cell_$split$,35,36,37,38,19,20,21,22,23,24,39,">
    <rect width="5" height="40" class="splitjoinBody" s:generic="body"/>
    <s:alias val="$_split_"/>
    <g s:x="0" s:y="20" s:pid="in"/>
    <g transform="translate(4,10)" s:x="4" s:y="10" s:pid="out0">
      <text x="5" y="-4">4:9</text>
    </g>
    <g transform="translate(4,30)" s:x="4" s:y="10" s:pid="out0">
      <text x="5" y="-4">1:3</text>
    </g>
  </g>
  <line x1="419" x2="448" y1="360" y2="360" class="net_7,8,9,10,11,12"/>
  <line x1="448" x2="448" y1="360" y2="266" class="net_7,8,9,10,11,12"/>
  <line x1="448" x2="476" y1="266" y2="266" class="net_7,8,9,10,11,12"/>
  <line x1="438" x2="476" y1="281" y2="281" class="net_53,54,55"/>
  <line x1="419" x2="476" y1="196.5" y2="196.5" class="net_19,20,21,22,23,24"/>
  <line x1="438" x2="448" y1="139" y2="139" class="net_56,57,58"/>
  <line x1="448" x2="448" y1="139" y2="211.5" class="net_56,57,58"/>
  <line x1="448" x2="476" y1="211.5" y2="211.5" class="net_56,57,58"/>
  <line x1="42" x2="119.66666666666667" y1="379.5" y2="379.5" class="net_59"/>
  <line x1="42" x2="52" y1="302" y2="302" class="net_60"/>
  <line x1="52" x2="52" y1="302" y2="399.5" class="net_60"/>
  <circle cx="52" cy="302" r="2" style="fill:#000" class="net_60"/>
  <line x1="52" x2="119.66666666666667" y1="399.5" y2="399.5" class="net_60"/>
  <line x1="42" x2="120" y1="302" y2="302" class="net_60"/>
  <line x1="42" x2="52" y1="302" y2="302" class="net_60"/>
  <line x1="52" x2="52" y1="302" y2="322" class="net_60"/>
  <circle cx="52" cy="322" r="2" style="fill:#000" class="net_60"/>
  <line x1="52" x2="120" y1="322" y2="322" class="net_60"/>
  <line x1="699" x2="728" y1="272" y2="272" class="net_31"/>
  <line x1="728" x2="728" y1="272" y2="552" class="net_31"/>
  <line x1="728" x2="129.66666666666669" y1="552" y2="552" class="net_31"/>
  <line x1="129.66666666666669" x2="129.66666666666669" y1="552" y2="404.5" class="net_31"/>
  <line x1="139.66666666666669" x2="254" y1="389.5" y2="389.5" class="net_32"/>
  <line x1="139.66666666666669" x2="192" y1="389.5" y2="389.5" class="net_32"/>
  <line x1="192" x2="192" y1="389.5" y2="429.5" class="net_32"/>
  <circle cx="192" cy="389.5" r="2" style="fill:#000" class="net_32"/>
  <circle cx="192" cy="429.5" r="2" style="fill:#000" class="net_32"/>
  <line x1="192" x2="254" y1="429.5" y2="429.5" class="net_32"/>
  <line x1="139.66666666666669" x2="192" y1="389.5" y2="389.5" class="net_32"/>
  <line x1="192" x2="192" y1="389.5" y2="449.5" class="net_32"/>
  <line x1="192" x2="254" y1="449.5" y2="449.5" class="net_32"/>
  <line x1="151" x2="202" y1="302" y2="302" class="net_33"/>
  <line x1="202" x2="202" y1="302" y2="409.5" class="net_33"/>
  <line x1="202" x2="254" y1="409.5" y2="409.5" class="net_33"/>
  <line x1="583" x2="618" y1="184" y2="184" class="net_45,46,47,48,49,50,51,52"/>
  <line x1="618" x2="618" y1="184" y2="272" class="net_45,46,47,48,49,50,51,52"/>
  <line x1="618" x2="668" y1="272" y2="272" class="net_45,46,47,48,49,50,51,52"/>
  <line x1="285" x2="358" y1="409.5" y2="409.5" class="net_34"/>
  <line x1="358" x2="358" y1="409.5" y2="301" class="net_34"/>
  <line x1="358" x2="618" y1="301" y2="301" class="net_34"/>
  <line x1="618" x2="618" y1="301" y2="292" class="net_34"/>
  <circle cx="358" cy="301" r="2" style="fill:#000" class="net_34"/>
  <line x1="618" x2="668" y1="292" y2="292" class="net_34"/>
  <line x1="285" x2="358" y1="409.5" y2="409.5" class="net_34"/>
  <line x1="358" x2="358" y1="409.5" y2="108" class="net_34"/>
  <line x1="358" x2="508" y1="108" y2="108" class="net_34"/>
  <line x1="508" x2="508" y1="108" y2="184" class="net_34"/>
  <line x1="508" x2="552" y1="184" y2="184" class="net_34"/>
  <line x1="419" x2="458" y1="216.5" y2="216.5" class="net_36,37,38"/>
  <line x1="458" x2="458" y1="216.5" y2="312" class="net_36,37,38"/>
  <line x1="458" x2="668" y1="312" y2="312" class="net_36,37,38"/>
  <line x1="419" x2="618" y1="380" y2="380" class="net_41,42,43"/>
  <line x1="618" x2="618" y1="380" y2="332" class="net_41,42,43"/>
  <line x1="618" x2="668" y1="332" y2="332" class="net_41,42,43"/>
  <line x1="498" x2="552" y1="204" y2="204" class="net_25,26,27,28,29,30"/>
  <line x1="498" x2="508" y1="273.5" y2="273.5" class="net_13,14,15,16,17,18"/>
  <line x1="508" x2="508" y1="273.5" y2="224" class="net_13,14,15,16,17,18"/>
  <line x1="508" x2="552" y1="224" y2="224" class="net_13,14,15,16,17,18"/>
  <line x1="285" x2="398" y1="489.5" y2="489.5" class="net_2"/>
  <line x1="398" x2="398" y1="489.5" y2="464.5" class="net_2"/>
  <line x1="398" x2="668" y1="464.5" y2="464.5" class="net_2"/>
  <line x1="285" x2="348" y1="449.5" y2="449.5" class="net_3"/>
  <line x1="348" x2="348" y1="449.5" y2="97" class="net_3"/>
  <line x1="348" x2="668" y1="97" y2="97" class="net_3"/>
  <line x1="285" x2="338" y1="389.5" y2="389.5" class="net_4"/>
  <line x1="338" x2="338" y1="389.5" y2="32" class="net_4"/>
  <line x1="338" x2="668" y1="32" y2="32" class="net_4"/>
  <line x1="285" x2="378" y1="469.5" y2="469.5" class="net_5"/>
  <line x1="378" x2="378" y1="469.5" y2="399.5" class="net_5"/>
  <line x1="378" x2="668" y1="399.5" y2="399.5" class="net_5"/>
  <line x1="285" x2="668" y1="529.5" y2="529.5" class="net_6"/>
  <line x1="285" x2="388" y1="509.5" y2="509.5" class="net_40,41,42,43,7,8,9,10,11,12,44"/>
  <line x1="388" x2="388" y1="509.5" y2="370" class="net_40,41,42,43,7,8,9,10,11,12,44"/>
  <line x1="388" x2="414" y1="370" y2="370" class="net_40,41,42,43,7,8,9,10,11,12,44"/>
  <line x1="285" x2="368" y1="429.5" y2="429.5" class="net_35,36,37,38,19,20,21,22,23,24,39"/>
  <line x1="368" x2="368" y1="429.5" y2="206.5" class="net_35,36,37,38,19,20,21,22,23,24,39"/>
  <line x1="368" x2="414" y1="206.5" y2="206.5" class="net_35,36,37,38,19,20,21,22,23,24,39"/>
</svg>
