<svg xmlns="http://www.w3.org/2000/svg" xmlns:xlink="http://www.w3.org/1999/xlink" xmlns:s="https://github.com/nturley/netlistsvg" width="746" height="987.5">
  <style>svg {
    stroke:#000;
    fill:none;
  }
  text {
    fill:#000;
    stroke:none;
    font-size:10px;
    font-weight: bold;
    font-family: "Courier New", monospace;
  }
  .nodelabel {
    text-anchor: middle;
  }
  .inputPortLabel {
    text-anchor: end;
  }
  .splitjoinBody {
    fill:#000;
  }</style>
  <g s:type="and" transform="translate(410,47)" s:width="30" s:height="25" id="cell_\10">
    <s:alias val="$and"/>
    <s:alias val="$logic_and"/>
    <s:alias val="$_AND_"/>
    <path d="M0,0 L0,25 L15,25 A15 12.5 0 0 0 15,0 Z" class="cell_\10"/>
    <g s:x="0" s:y="5" s:pid="A"/>
    <g s:x="0" s:y="20" s:pid="B"/>
    <g s:x="30" s:y="12.5" s:pid="Y"/>
  </g>
  <g s:type="and" transform="translate(258,755.5)" s:width="30" s:height="25" id="cell_\100">
    <s:alias val="$and"/>
    <s:alias val="$logic_and"/>
    <s:alias val="$_AND_"/>
    <path d="M0,0 L0,25 L15,25 A15 12.5 0 0 0 15,0 Z" class="cell_\100"/>
    <g s:x="0" s:y="5" s:pid="A"/>
    <g s:x="0" s:y="20" s:pid="B"/>
    <g s:x="30" s:y="12.5" s:pid="Y"/>
  </g>
  <g s:type="and" transform="translate(332,883)" s:width="30" s:height="25" id="cell_\102">
    <s:alias val="$and"/>
    <s:alias val="$logic_and"/>
    <s:alias val="$_AND_"/>
    <path d="M0,0 L0,25 L15,25 A15 12.5 0 0 0 15,0 Z" class="cell_\102"/>
    <g s:x="0" s:y="5" s:pid="A"/>
    <g s:x="0" s:y="20" s:pid="B"/>
    <g s:x="30" s:y="12.5" s:pid="Y"/>
  </g>
  <g s:type="not" transform="translate(334,660.5)" s:width="30" s:height="20" id="cell_\104">
    <s:alias val="$_NOT_"/>
    <s:alias val="$not"/>
    <path d="M0,0 L0,20 L20,10 Z" class="cell_\104"/>
    <circle cx="23" cy="10" r="3" class="cell_\104"/>
    <g s:x="0" s:y="10" s:pid="A"/>
    <g s:x="25" s:y="10" s:pid="Y"/>
  </g>
  <g s:type="and" transform="translate(410,890.5)" s:width="30" s:height="25" id="cell_\105">
    <s:alias val="$and"/>
    <s:alias val="$logic_and"/>
    <s:alias val="$_AND_"/>
    <path d="M0,0 L0,25 L15,25 A15 12.5 0 0 0 15,0 Z" class="cell_\105"/>
    <g s:x="0" s:y="5" s:pid="A"/>
    <g s:x="0" s:y="20" s:pid="B"/>
    <g s:x="30" s:y="12.5" s:pid="Y"/>
  </g>
  <g s:type="reduce_xor" transform="translate(520,883)" s:width="33" s:height="25" id="cell_\106">
    <s:alias val="$xor"/>
    <s:alias val="$reduce_xor"/>
    <s:alias val="$_XOR_"/>
    <path d="M3,0 A30 25 0 0 1 3,25 A30 25 0 0 0 33,12.5 A30 25 0 0 0 3,0" class="cell_\106"/>
    <path d="M0,0 A30 25 0 0 1 0,25" class="cell_\106"/>
    <g s:x="3" s:y="5" s:pid="A"/>
    <g s:x="3" s:y="20" s:pid="B"/>
    <g s:x="33" s:y="12.5" s:pid="Y"/>
  </g>
  <g s:type="reduce_xor" transform="translate(520,39.5)" s:width="33" s:height="25" id="cell_\11">
    <s:alias val="$xor"/>
    <s:alias val="$reduce_xor"/>
    <s:alias val="$_XOR_"/>
    <path d="M3,0 A30 25 0 0 1 3,25 A30 25 0 0 0 33,12.5 A30 25 0 0 0 3,0" class="cell_\11"/>
    <path d="M0,0 A30 25 0 0 1 0,25" class="cell_\11"/>
    <g s:x="3" s:y="5" s:pid="A"/>
    <g s:x="3" s:y="20" s:pid="B"/>
    <g s:x="33" s:y="12.5" s:pid="Y"/>
  </g>
  <g s:type="and" transform="translate(410,950.5)" s:width="30" s:height="25" id="cell_\114">
    <s:alias val="$and"/>
    <s:alias val="$logic_and"/>
    <s:alias val="$_AND_"/>
    <path d="M0,0 L0,25 L15,25 A15 12.5 0 0 0 15,0 Z" class="cell_\114"/>
    <g s:x="0" s:y="5" s:pid="A"/>
    <g s:x="0" s:y="20" s:pid="B"/>
    <g s:x="30" s:y="12.5" s:pid="Y"/>
  </g>
  <g s:type="reduce_xor" transform="translate(520,943)" s:width="33" s:height="25" id="cell_\115">
    <s:alias val="$xor"/>
    <s:alias val="$reduce_xor"/>
    <s:alias val="$_XOR_"/>
    <path d="M3,0 A30 25 0 0 1 3,25 A30 25 0 0 0 33,12.5 A30 25 0 0 0 3,0" class="cell_\115"/>
    <path d="M0,0 A30 25 0 0 1 0,25" class="cell_\115"/>
    <g s:x="3" s:y="5" s:pid="A"/>
    <g s:x="3" s:y="20" s:pid="B"/>
    <g s:x="33" s:y="12.5" s:pid="Y"/>
  </g>
  <g s:type="not" transform="translate(193,12)" s:width="30" s:height="20" id="cell_\14">
    <s:alias val="$_NOT_"/>
    <s:alias val="$not"/>
    <path d="M0,0 L0,20 L20,10 Z" class="cell_\14"/>
    <circle cx="23" cy="10" r="3" class="cell_\14"/>
    <g s:x="0" s:y="10" s:pid="A"/>
    <g s:x="25" s:y="10" s:pid="Y"/>
  </g>
  <g s:type="and" transform="translate(258,78)" s:width="30" s:height="25" id="cell_\16">
    <s:alias val="$and"/>
    <s:alias val="$logic_and"/>
    <s:alias val="$_AND_"/>
    <path d="M0,0 L0,25 L15,25 A15 12.5 0 0 0 15,0 Z" class="cell_\16"/>
    <g s:x="0" s:y="5" s:pid="A"/>
    <g s:x="0" s:y="20" s:pid="B"/>
    <g s:x="30" s:y="12.5" s:pid="Y"/>
  </g>
  <g s:type="not" transform="translate(258,270)" s:width="30" s:height="20" id="cell_\18">
    <s:alias val="$_NOT_"/>
    <s:alias val="$not"/>
    <path d="M0,0 L0,20 L20,10 Z" class="cell_\18"/>
    <circle cx="23" cy="10" r="3" class="cell_\18"/>
    <g s:x="0" s:y="10" s:pid="A"/>
    <g s:x="25" s:y="10" s:pid="Y"/>
  </g>
  <g s:type="and" transform="translate(332,85.5)" s:width="30" s:height="25" id="cell_\19">
    <s:alias val="$and"/>
    <s:alias val="$logic_and"/>
    <s:alias val="$_AND_"/>
    <path d="M0,0 L0,25 L15,25 A15 12.5 0 0 0 15,0 Z" class="cell_\19"/>
    <g s:x="0" s:y="5" s:pid="A"/>
    <g s:x="0" s:y="20" s:pid="B"/>
    <g s:x="30" s:y="12.5" s:pid="Y"/>
  </g>
  <g s:type="and" transform="translate(410,119)" s:width="30" s:height="25" id="cell_\21">
    <s:alias val="$and"/>
    <s:alias val="$logic_and"/>
    <s:alias val="$_AND_"/>
    <path d="M0,0 L0,25 L15,25 A15 12.5 0 0 0 15,0 Z" class="cell_\21"/>
    <g s:x="0" s:y="5" s:pid="A"/>
    <g s:x="0" s:y="20" s:pid="B"/>
    <g s:x="30" s:y="12.5" s:pid="Y"/>
  </g>
  <g s:type="reduce_xor" transform="translate(520,111.5)" s:width="33" s:height="25" id="cell_\22">
    <s:alias val="$xor"/>
    <s:alias val="$reduce_xor"/>
    <s:alias val="$_XOR_"/>
    <path d="M3,0 A30 25 0 0 1 3,25 A30 25 0 0 0 33,12.5 A30 25 0 0 0 3,0" class="cell_\22"/>
    <path d="M0,0 A30 25 0 0 1 0,25" class="cell_\22"/>
    <g s:x="3" s:y="5" s:pid="A"/>
    <g s:x="3" s:y="20" s:pid="B"/>
    <g s:x="33" s:y="12.5" s:pid="Y"/>
  </g>
  <g s:type="and" transform="translate(332,171.5)" s:width="30" s:height="25" id="cell_\29">
    <s:alias val="$and"/>
    <s:alias val="$logic_and"/>
    <s:alias val="$_AND_"/>
    <path d="M0,0 L0,25 L15,25 A15 12.5 0 0 0 15,0 Z" class="cell_\29"/>
    <g s:x="0" s:y="5" s:pid="A"/>
    <g s:x="0" s:y="20" s:pid="B"/>
    <g s:x="30" s:y="12.5" s:pid="Y"/>
  </g>
  <g s:type="and" transform="translate(410,179)" s:width="30" s:height="25" id="cell_\32">
    <s:alias val="$and"/>
    <s:alias val="$logic_and"/>
    <s:alias val="$_AND_"/>
    <path d="M0,0 L0,25 L15,25 A15 12.5 0 0 0 15,0 Z" class="cell_\32"/>
    <g s:x="0" s:y="5" s:pid="A"/>
    <g s:x="0" s:y="20" s:pid="B"/>
    <g s:x="30" s:y="12.5" s:pid="Y"/>
  </g>
  <g s:type="reduce_xor" transform="translate(520,171.5)" s:width="33" s:height="25" id="cell_\33">
    <s:alias val="$xor"/>
    <s:alias val="$reduce_xor"/>
    <s:alias val="$_XOR_"/>
    <path d="M3,0 A30 25 0 0 1 3,25 A30 25 0 0 0 33,12.5 A30 25 0 0 0 3,0" class="cell_\33"/>
    <path d="M0,0 A30 25 0 0 1 0,25" class="cell_\33"/>
    <g s:x="3" s:y="5" s:pid="A"/>
    <g s:x="3" s:y="20" s:pid="B"/>
    <g s:x="33" s:y="12.5" s:pid="Y"/>
  </g>
  <g s:type="and" transform="translate(410,239)" s:width="30" s:height="25" id="cell_\42">
    <s:alias val="$and"/>
    <s:alias val="$logic_and"/>
    <s:alias val="$_AND_"/>
    <path d="M0,0 L0,25 L15,25 A15 12.5 0 0 0 15,0 Z" class="cell_\42"/>
    <g s:x="0" s:y="5" s:pid="A"/>
    <g s:x="0" s:y="20" s:pid="B"/>
    <g s:x="30" s:y="12.5" s:pid="Y"/>
  </g>
  <g s:type="reduce_xor" transform="translate(520,231.5)" s:width="33" s:height="25" id="cell_\43">
    <s:alias val="$xor"/>
    <s:alias val="$reduce_xor"/>
    <s:alias val="$_XOR_"/>
    <path d="M3,0 A30 25 0 0 1 3,25 A30 25 0 0 0 33,12.5 A30 25 0 0 0 3,0" class="cell_\43"/>
    <path d="M0,0 A30 25 0 0 1 0,25" class="cell_\43"/>
    <g s:x="3" s:y="5" s:pid="A"/>
    <g s:x="3" s:y="20" s:pid="B"/>
    <g s:x="33" s:y="12.5" s:pid="Y"/>
  </g>
  <g s:type="not" transform="translate(193,109)" s:width="30" s:height="20" id="cell_\47">
    <s:alias val="$_NOT_"/>
    <s:alias val="$not"/>
    <path d="M0,0 L0,20 L20,10 Z" class="cell_\47"/>
    <circle cx="23" cy="10" r="3" class="cell_\47"/>
    <g s:x="0" s:y="10" s:pid="A"/>
    <g s:x="25" s:y="10" s:pid="Y"/>
  </g>
  <g s:type="and" transform="translate(258,325)" s:width="30" s:height="25" id="cell_\48">
    <s:alias val="$and"/>
    <s:alias val="$logic_and"/>
    <s:alias val="$_AND_"/>
    <path d="M0,0 L0,25 L15,25 A15 12.5 0 0 0 15,0 Z" class="cell_\48"/>
    <g s:x="0" s:y="5" s:pid="A"/>
    <g s:x="0" s:y="20" s:pid="B"/>
    <g s:x="30" s:y="12.5" s:pid="Y"/>
  </g>
  <g s:type="and" transform="translate(332,332.5)" s:width="30" s:height="25" id="cell_\51">
    <s:alias val="$and"/>
    <s:alias val="$logic_and"/>
    <s:alias val="$_AND_"/>
    <path d="M0,0 L0,25 L15,25 A15 12.5 0 0 0 15,0 Z" class="cell_\51"/>
    <g s:x="0" s:y="5" s:pid="A"/>
    <g s:x="0" s:y="20" s:pid="B"/>
    <g s:x="30" s:y="12.5" s:pid="Y"/>
  </g>
  <g s:type="and" transform="translate(410,347.5)" s:width="30" s:height="25" id="cell_\53">
    <s:alias val="$and"/>
    <s:alias val="$logic_and"/>
    <s:alias val="$_AND_"/>
    <path d="M0,0 L0,25 L15,25 A15 12.5 0 0 0 15,0 Z" class="cell_\53"/>
    <g s:x="0" s:y="5" s:pid="A"/>
    <g s:x="0" s:y="20" s:pid="B"/>
    <g s:x="30" s:y="12.5" s:pid="Y"/>
  </g>
  <g s:type="reduce_xor" transform="translate(520,536)" s:width="33" s:height="25" id="cell_\54">
    <s:alias val="$xor"/>
    <s:alias val="$reduce_xor"/>
    <s:alias val="$_XOR_"/>
    <path d="M3,0 A30 25 0 0 1 3,25 A30 25 0 0 0 33,12.5 A30 25 0 0 0 3,0" class="cell_\54"/>
    <path d="M0,0 A30 25 0 0 1 0,25" class="cell_\54"/>
    <g s:x="3" s:y="5" s:pid="A"/>
    <g s:x="3" s:y="20" s:pid="B"/>
    <g s:x="33" s:y="12.5" s:pid="Y"/>
  </g>
  <g s:type="and" transform="translate(258,17)" s:width="30" s:height="25" id="cell_\6">
    <s:alias val="$and"/>
    <s:alias val="$logic_and"/>
    <s:alias val="$_AND_"/>
    <path d="M0,0 L0,25 L15,25 A15 12.5 0 0 0 15,0 Z" class="cell_\6"/>
    <g s:x="0" s:y="5" s:pid="A"/>
    <g s:x="0" s:y="20" s:pid="B"/>
    <g s:x="30" s:y="12.5" s:pid="Y"/>
  </g>
  <g s:type="and" transform="translate(332,600.5)" s:width="30" s:height="25" id="cell_\61">
    <s:alias val="$and"/>
    <s:alias val="$logic_and"/>
    <s:alias val="$_AND_"/>
    <path d="M0,0 L0,25 L15,25 A15 12.5 0 0 0 15,0 Z" class="cell_\61"/>
    <g s:x="0" s:y="5" s:pid="A"/>
    <g s:x="0" s:y="20" s:pid="B"/>
    <g s:x="30" s:y="12.5" s:pid="Y"/>
  </g>
  <g s:type="and" transform="translate(410,650.5)" s:width="30" s:height="25" id="cell_\64">
    <s:alias val="$and"/>
    <s:alias val="$logic_and"/>
    <s:alias val="$_AND_"/>
    <path d="M0,0 L0,25 L15,25 A15 12.5 0 0 0 15,0 Z" class="cell_\64"/>
    <g s:x="0" s:y="5" s:pid="A"/>
    <g s:x="0" s:y="20" s:pid="B"/>
    <g s:x="30" s:y="12.5" s:pid="Y"/>
  </g>
  <g s:type="reduce_xor" transform="translate(520,643)" s:width="33" s:height="25" id="cell_\65">
    <s:alias val="$xor"/>
    <s:alias val="$reduce_xor"/>
    <s:alias val="$_XOR_"/>
    <path d="M3,0 A30 25 0 0 1 3,25 A30 25 0 0 0 33,12.5 A30 25 0 0 0 3,0" class="cell_\65"/>
    <path d="M0,0 A30 25 0 0 1 0,25" class="cell_\65"/>
    <g s:x="3" s:y="5" s:pid="A"/>
    <g s:x="3" s:y="20" s:pid="B"/>
    <g s:x="33" s:y="12.5" s:pid="Y"/>
  </g>
  <g s:type="and" transform="translate(410,710.5)" s:width="30" s:height="25" id="cell_\74">
    <s:alias val="$and"/>
    <s:alias val="$logic_and"/>
    <s:alias val="$_AND_"/>
    <path d="M0,0 L0,25 L15,25 A15 12.5 0 0 0 15,0 Z" class="cell_\74"/>
    <g s:x="0" s:y="5" s:pid="A"/>
    <g s:x="0" s:y="20" s:pid="B"/>
    <g s:x="30" s:y="12.5" s:pid="Y"/>
  </g>
  <g s:type="reduce_xor" transform="translate(520,703)" s:width="33" s:height="25" id="cell_\75">
    <s:alias val="$xor"/>
    <s:alias val="$reduce_xor"/>
    <s:alias val="$_XOR_"/>
    <path d="M3,0 A30 25 0 0 1 3,25 A30 25 0 0 0 33,12.5 A30 25 0 0 0 3,0" class="cell_\75"/>
    <path d="M0,0 A30 25 0 0 1 0,25" class="cell_\75"/>
    <g s:x="3" s:y="5" s:pid="A"/>
    <g s:x="3" s:y="20" s:pid="B"/>
    <g s:x="33" s:y="12.5" s:pid="Y"/>
  </g>
  <g s:type="and" transform="translate(332,32)" s:width="30" s:height="25" id="cell_\8">
    <s:alias val="$and"/>
    <s:alias val="$logic_and"/>
    <s:alias val="$_AND_"/>
    <path d="M0,0 L0,25 L15,25 A15 12.5 0 0 0 15,0 Z" class="cell_\8"/>
    <g s:x="0" s:y="5" s:pid="A"/>
    <g s:x="0" s:y="20" s:pid="B"/>
    <g s:x="30" s:y="12.5" s:pid="Y"/>
  </g>
  <g s:type="and" transform="translate(332,763)" s:width="30" s:height="25" id="cell_\82">
    <s:alias val="$and"/>
    <s:alias val="$logic_and"/>
    <s:alias val="$_AND_"/>
    <path d="M0,0 L0,25 L15,25 A15 12.5 0 0 0 15,0 Z" class="cell_\82"/>
    <g s:x="0" s:y="5" s:pid="A"/>
    <g s:x="0" s:y="20" s:pid="B"/>
    <g s:x="30" s:y="12.5" s:pid="Y"/>
  </g>
  <g s:type="and" transform="translate(410,770.5)" s:width="30" s:height="25" id="cell_\85">
    <s:alias val="$and"/>
    <s:alias val="$logic_and"/>
    <s:alias val="$_AND_"/>
    <path d="M0,0 L0,25 L15,25 A15 12.5 0 0 0 15,0 Z" class="cell_\85"/>
    <g s:x="0" s:y="5" s:pid="A"/>
    <g s:x="0" s:y="20" s:pid="B"/>
    <g s:x="30" s:y="12.5" s:pid="Y"/>
  </g>
  <g s:type="reduce_xor" transform="translate(520,763)" s:width="33" s:height="25" id="cell_\86">
    <s:alias val="$xor"/>
    <s:alias val="$reduce_xor"/>
    <s:alias val="$_XOR_"/>
    <path d="M3,0 A30 25 0 0 1 3,25 A30 25 0 0 0 33,12.5 A30 25 0 0 0 3,0" class="cell_\86"/>
    <path d="M0,0 A30 25 0 0 1 0,25" class="cell_\86"/>
    <g s:x="3" s:y="5" s:pid="A"/>
    <g s:x="3" s:y="20" s:pid="B"/>
    <g s:x="33" s:y="12.5" s:pid="Y"/>
  </g>
  <g s:type="and" transform="translate(410,830.5)" s:width="30" s:height="25" id="cell_\95">
    <s:alias val="$and"/>
    <s:alias val="$logic_and"/>
    <s:alias val="$_AND_"/>
    <path d="M0,0 L0,25 L15,25 A15 12.5 0 0 0 15,0 Z" class="cell_\95"/>
    <g s:x="0" s:y="5" s:pid="A"/>
    <g s:x="0" s:y="20" s:pid="B"/>
    <g s:x="30" s:y="12.5" s:pid="Y"/>
  </g>
  <g s:type="reduce_xor" transform="translate(520,823)" s:width="33" s:height="25" id="cell_\96">
    <s:alias val="$xor"/>
    <s:alias val="$reduce_xor"/>
    <s:alias val="$_XOR_"/>
    <path d="M3,0 A30 25 0 0 1 3,25 A30 25 0 0 0 33,12.5 A30 25 0 0 0 3,0" class="cell_\96"/>
    <path d="M0,0 A30 25 0 0 1 0,25" class="cell_\96"/>
    <g s:x="3" s:y="5" s:pid="A"/>
    <g s:x="3" s:y="20" s:pid="B"/>
    <g s:x="33" s:y="12.5" s:pid="Y"/>
  </g>
  <g s:type="inputExt" transform="translate(328,388.5)" s:width="30" s:height="20" id="cell_data_in">
    <text x="15" y="-4" class="nodelabel cell_data_in" s:attribute="ref">data_in</text>
    <s:alias val="$_inputExt_"/>
    <path d="M0,0 L0,20 L15,20 L30,10 L15,0 Z" class="cell_data_in"/>
    <g s:x="28" s:y="10" s:pid="Y"/>
  </g>
  <g s:type="inputExt" transform="translate(12,310)" s:width="30" s:height="20" id="cell_error_location">
    <text x="15" y="-4" class="nodelabel cell_error_location" s:attribute="ref">error_location</text>
    <s:alias val="$_inputExt_"/>
    <path d="M0,0 L0,20 L15,20 L30,10 L15,0 Z" class="cell_error_location"/>
    <g s:x="28" s:y="10" s:pid="Y"/>
  </g>
  <g s:type="outputExt" transform="translate(686,715.5)" s:width="30" s:height="20" id="cell_data_out">
    <text x="15" y="-4" class="nodelabel cell_data_out" s:attribute="ref">data_out</text>
    <s:alias val="$_outputExt_"/>
    <path d="M30,0 L30,20 L15,20 L0,10 L15,0 Z" class="cell_data_out"/>
    <g s:x="0" s:y="10" s:pid="A"/>
  </g>
  <g s:type="join" transform="translate(643,705)" s:width="4" s:height="40" id="cell_$join$,22,23,24,25,26,27,28,29,30,31,32,">
    <rect width="5" height="220" class="splitjoinBody" s:generic="body"/>
    <s:alias val="$_join_"/>
    <g s:x="5" s:y="20" s:pid="out"/>
    <g transform="translate(0,10)" s:x="0" s:y="10" s:pid="in0">
      <text x="-3" y="-4" class="inputPortLabel">0</text>
    </g>
    <g transform="translate(0,30)" s:x="0" s:y="10" s:pid="in0">
      <text x="-3" y="-4" class="inputPortLabel">1</text>
    </g>
    <g transform="translate(0,50)" s:x="0" s:y="10" s:pid="in0">
      <text x="-3" y="-4" class="inputPortLabel">2</text>
    </g>
    <g transform="translate(0,70)" s:x="0" s:y="10" s:pid="in0">
      <text x="-3" y="-4" class="inputPortLabel">3</text>
    </g>
    <g transform="translate(0,90)" s:x="0" s:y="10" s:pid="in0">
      <text x="-3" y="-4" class="inputPortLabel">4</text>
    </g>
    <g transform="translate(0,110)" s:x="0" s:y="10" s:pid="in0">
      <text x="-3" y="-4" class="inputPortLabel">5</text>
    </g>
    <g transform="translate(0,130)" s:x="0" s:y="10" s:pid="in0">
      <text x="-3" y="-4" class="inputPortLabel">6</text>
    </g>
    <g transform="translate(0,150)" s:x="0" s:y="10" s:pid="in0">
      <text x="-3" y="-4" class="inputPortLabel">7</text>
    </g>
    <g transform="translate(0,170)" s:x="0" s:y="10" s:pid="in0">
      <text x="-3" y="-4" class="inputPortLabel">8</text>
    </g>
    <g transform="translate(0,190)" s:x="0" s:y="10" s:pid="in0">
      <text x="-3" y="-4" class="inputPortLabel">9</text>
    </g>
    <g transform="translate(0,210)" s:x="0" s:y="10" s:pid="in0">
      <text x="-3" y="-4" class="inputPortLabel">10</text>
    </g>
  </g>
  <g s:type="split" transform="translate(131,299.5)" s:width="5" s:height="40" id="cell_$split$,18,19,20,21,">
    <rect width="5" height="80" class="splitjoinBody" s:generic="body"/>
    <s:alias val="$_split_"/>
    <g s:x="0" s:y="20" s:pid="in"/>
    <g transform="translate(4,10)" s:x="4" s:y="10" s:pid="out0">
      <text x="5" y="-4">0</text>
    </g>
    <g transform="translate(4,30)" s:x="4" s:y="10" s:pid="out0">
      <text x="5" y="-4">3</text>
    </g>
    <g transform="translate(4,50)" s:x="4" s:y="10" s:pid="out0">
      <text x="5" y="-4">2</text>
    </g>
    <g transform="translate(4,70)" s:x="4" s:y="10" s:pid="out0">
      <text x="5" y="-4">1</text>
    </g>
  </g>
  <g s:type="split" transform="translate(435,410.5)" s:width="5" s:height="40" id="cell_$split$,2,3,4,5,6,7,8,9,10,11,12,13,14,15,16,17,">
    <rect width="5" height="220" class="splitjoinBody" s:generic="body"/>
    <s:alias val="$_split_"/>
    <g s:x="0" s:y="20" s:pid="in"/>
    <g transform="translate(4,10)" s:x="4" s:y="10" s:pid="out0">
      <text x="5" y="-4">14</text>
    </g>
    <g transform="translate(4,30)" s:x="4" s:y="10" s:pid="out0">
      <text x="5" y="-4">3</text>
    </g>
    <g transform="translate(4,50)" s:x="4" s:y="10" s:pid="out0">
      <text x="5" y="-4">15</text>
    </g>
    <g transform="translate(4,70)" s:x="4" s:y="10" s:pid="out0">
      <text x="5" y="-4">5</text>
    </g>
    <g transform="translate(4,90)" s:x="4" s:y="10" s:pid="out0">
      <text x="5" y="-4">6</text>
    </g>
    <g transform="translate(4,110)" s:x="4" s:y="10" s:pid="out0">
      <text x="5" y="-4">7</text>
    </g>
    <g transform="translate(4,130)" s:x="4" s:y="10" s:pid="out0">
      <text x="5" y="-4">9</text>
    </g>
    <g transform="translate(4,150)" s:x="4" s:y="10" s:pid="out0">
      <text x="5" y="-4">10</text>
    </g>
    <g transform="translate(4,170)" s:x="4" s:y="10" s:pid="out0">
      <text x="5" y="-4">11</text>
    </g>
    <g transform="translate(4,190)" s:x="4" s:y="10" s:pid="out0">
      <text x="5" y="-4">12</text>
    </g>
    <g transform="translate(4,210)" s:x="4" s:y="10" s:pid="out0">
      <text x="5" y="-4">13</text>
    </g>
  </g>
  <line x1="362" x2="380" y1="44.5" y2="44.5" class="net_33"/>
  <line x1="380" x2="380" y1="44.5" y2="52" class="net_33"/>
  <line x1="380" x2="410" y1="52" y2="52" class="net_33"/>
  <line x1="136" x2="183" y1="310" y2="310" class="net_18"/>
  <line x1="183" x2="183" y1="310" y2="67" class="net_18"/>
  <circle cx="183" cy="310" r="2" style="fill:#000" class="net_18"/>
  <line x1="183" x2="410" y1="67" y2="67" class="net_18"/>
  <line x1="136" x2="183" y1="310" y2="310" class="net_18"/>
  <line x1="183" x2="183" y1="310" y2="730.5" class="net_18"/>
  <line x1="183" x2="318" y1="730.5" y2="730.5" class="net_18"/>
  <line x1="318" x2="318" y1="730.5" y2="670.5" class="net_18"/>
  <circle cx="183" cy="730.5" r="2" style="fill:#000" class="net_18"/>
  <circle cx="318" cy="730.5" r="2" style="fill:#000" class="net_18"/>
  <line x1="318" x2="334" y1="670.5" y2="670.5" class="net_18"/>
  <line x1="136" x2="183" y1="310" y2="310" class="net_18"/>
  <line x1="183" x2="183" y1="310" y2="970.5" class="net_18"/>
  <line x1="183" x2="410" y1="970.5" y2="970.5" class="net_18"/>
  <line x1="136" x2="183" y1="310" y2="310" class="net_18"/>
  <line x1="183" x2="183" y1="310" y2="139" class="net_18"/>
  <circle cx="183" cy="139" r="2" style="fill:#000" class="net_18"/>
  <line x1="183" x2="410" y1="139" y2="139" class="net_18"/>
  <line x1="136" x2="183" y1="310" y2="310" class="net_18"/>
  <line x1="183" x2="183" y1="310" y2="259" class="net_18"/>
  <circle cx="183" cy="259" r="2" style="fill:#000" class="net_18"/>
  <line x1="183" x2="410" y1="259" y2="259" class="net_18"/>
  <line x1="136" x2="183" y1="310" y2="310" class="net_18"/>
  <line x1="183" x2="183" y1="310" y2="367.5" class="net_18"/>
  <circle cx="183" cy="367.5" r="2" style="fill:#000" class="net_18"/>
  <line x1="183" x2="410" y1="367.5" y2="367.5" class="net_18"/>
  <line x1="136" x2="183" y1="310" y2="310" class="net_18"/>
  <line x1="183" x2="183" y1="310" y2="730.5" class="net_18"/>
  <line x1="183" x2="410" y1="730.5" y2="730.5" class="net_18"/>
  <line x1="136" x2="183" y1="310" y2="310" class="net_18"/>
  <line x1="183" x2="183" y1="310" y2="850.5" class="net_18"/>
  <circle cx="183" cy="850.5" r="2" style="fill:#000" class="net_18"/>
  <line x1="183" x2="410" y1="850.5" y2="850.5" class="net_18"/>
  <line x1="136" x2="153" y1="330" y2="330" class="net_21"/>
  <line x1="153" x2="153" y1="330" y2="760.5" class="net_21"/>
  <circle cx="153" cy="330" r="2" style="fill:#000" class="net_21"/>
  <line x1="153" x2="258" y1="760.5" y2="760.5" class="net_21"/>
  <line x1="136" x2="153" y1="330" y2="330" class="net_21"/>
  <line x1="153" x2="153" y1="330" y2="22" class="net_21"/>
  <line x1="153" x2="193" y1="22" y2="22" class="net_21"/>
  <line x1="136" x2="258" y1="330" y2="330" class="net_21"/>
  <line x1="136" x2="163" y1="350" y2="350" class="net_20"/>
  <line x1="163" x2="163" y1="350" y2="775.5" class="net_20"/>
  <circle cx="163" cy="350" r="2" style="fill:#000" class="net_20"/>
  <line x1="163" x2="258" y1="775.5" y2="775.5" class="net_20"/>
  <line x1="136" x2="163" y1="350" y2="350" class="net_20"/>
  <line x1="163" x2="163" y1="350" y2="98" class="net_20"/>
  <line x1="163" x2="258" y1="98" y2="98" class="net_20"/>
  <line x1="136" x2="163" y1="350" y2="350" class="net_20"/>
  <line x1="163" x2="163" y1="350" y2="119" class="net_20"/>
  <circle cx="163" cy="119" r="2" style="fill:#000" class="net_20"/>
  <line x1="163" x2="193" y1="119" y2="119" class="net_20"/>
  <line x1="288" x2="298" y1="768" y2="768" class="net_35"/>
  <line x1="298" x2="298" y1="768" y2="888" class="net_35"/>
  <circle cx="298" cy="768" r="2" style="fill:#000" class="net_35"/>
  <line x1="298" x2="332" y1="888" y2="888" class="net_35"/>
  <line x1="288" x2="332" y1="768" y2="768" class="net_35"/>
  <line x1="136" x2="173" y1="370" y2="370" class="net_19"/>
  <line x1="173" x2="173" y1="370" y2="903" class="net_19"/>
  <circle cx="173" cy="370" r="2" style="fill:#000" class="net_19"/>
  <line x1="173" x2="332" y1="903" y2="903" class="net_19"/>
  <line x1="136" x2="173" y1="370" y2="370" class="net_19"/>
  <line x1="173" x2="173" y1="370" y2="280" class="net_19"/>
  <circle cx="173" cy="280" r="2" style="fill:#000" class="net_19"/>
  <line x1="173" x2="258" y1="280" y2="280" class="net_19"/>
  <line x1="136" x2="173" y1="370" y2="370" class="net_19"/>
  <line x1="173" x2="173" y1="370" y2="191.5" class="net_19"/>
  <circle cx="173" cy="191.5" r="2" style="fill:#000" class="net_19"/>
  <line x1="173" x2="332" y1="191.5" y2="191.5" class="net_19"/>
  <line x1="136" x2="173" y1="370" y2="370" class="net_19"/>
  <line x1="173" x2="173" y1="370" y2="620.5" class="net_19"/>
  <circle cx="173" cy="620.5" r="2" style="fill:#000" class="net_19"/>
  <line x1="173" x2="332" y1="620.5" y2="620.5" class="net_19"/>
  <line x1="136" x2="173" y1="370" y2="370" class="net_19"/>
  <line x1="173" x2="173" y1="370" y2="52" class="net_19"/>
  <line x1="173" x2="332" y1="52" y2="52" class="net_19"/>
  <line x1="362" x2="410" y1="895.5" y2="895.5" class="net_36"/>
  <line x1="362" x2="380" y1="895.5" y2="895.5" class="net_36"/>
  <line x1="380" x2="380" y1="895.5" y2="955.5" class="net_36"/>
  <circle cx="380" cy="895.5" r="2" style="fill:#000" class="net_36"/>
  <line x1="380" x2="410" y1="955.5" y2="955.5" class="net_36"/>
  <line x1="359" x2="390" y1="670.5" y2="670.5" class="net_37"/>
  <line x1="390" x2="390" y1="670.5" y2="910.5" class="net_37"/>
  <circle cx="390" cy="670.5" r="2" style="fill:#000" class="net_37"/>
  <line x1="390" x2="410" y1="910.5" y2="910.5" class="net_37"/>
  <line x1="359" x2="390" y1="670.5" y2="670.5" class="net_37"/>
  <line x1="390" x2="390" y1="670.5" y2="199" class="net_37"/>
  <line x1="390" x2="410" y1="199" y2="199" class="net_37"/>
  <line x1="359" x2="410" y1="670.5" y2="670.5" class="net_37"/>
  <line x1="359" x2="390" y1="670.5" y2="670.5" class="net_37"/>
  <line x1="390" x2="390" y1="670.5" y2="790.5" class="net_37"/>
  <circle cx="390" cy="790.5" r="2" style="fill:#000" class="net_37"/>
  <line x1="390" x2="410" y1="790.5" y2="790.5" class="net_37"/>
  <line x1="439.5" x2="439.5" y1="420.5" y2="388.5" class="net_16"/>
  <line x1="439.5" x2="490" y1="388.5" y2="388.5" class="net_16"/>
  <line x1="490" x2="490" y1="388.5" y2="888" class="net_16"/>
  <line x1="490" x2="523" y1="888" y2="888" class="net_16"/>
  <line x1="440" x2="523" y1="903" y2="903" class="net_38"/>
  <line x1="440" x2="450" y1="441" y2="441" class="net_5"/>
  <line x1="450" x2="450" y1="441" y2="44.5" class="net_5"/>
  <line x1="450" x2="523" y1="44.5" y2="44.5" class="net_5"/>
  <line x1="440" x2="523" y1="59.5" y2="59.5" class="net_34"/>
  <line x1="440" x2="450" y1="461" y2="461" class="net_17"/>
  <line x1="450" x2="450" y1="461" y2="948" class="net_17"/>
  <line x1="450" x2="523" y1="948" y2="948" class="net_17"/>
  <line x1="440" x2="523" y1="963" y2="963" class="net_39"/>
  <line x1="218" x2="243" y1="22" y2="22" class="net_40"/>
  <line x1="243" x2="243" y1="22" y2="83" class="net_40"/>
  <circle cx="243" cy="22" r="2" style="fill:#000" class="net_40"/>
  <line x1="243" x2="258" y1="83" y2="83" class="net_40"/>
  <line x1="218" x2="258" y1="22" y2="22" class="net_40"/>
  <line x1="288" x2="332" y1="90.5" y2="90.5" class="net_41"/>
  <line x1="288" x2="318" y1="90.5" y2="90.5" class="net_41"/>
  <line x1="318" x2="318" y1="90.5" y2="176.5" class="net_41"/>
  <circle cx="318" cy="90.5" r="2" style="fill:#000" class="net_41"/>
  <line x1="318" x2="332" y1="176.5" y2="176.5" class="net_41"/>
  <line x1="283" x2="308" y1="280" y2="280" class="net_42"/>
  <line x1="308" x2="308" y1="280" y2="105.5" class="net_42"/>
  <circle cx="308" cy="280" r="2" style="fill:#000" class="net_42"/>
  <line x1="308" x2="332" y1="105.5" y2="105.5" class="net_42"/>
  <line x1="283" x2="308" y1="280" y2="280" class="net_42"/>
  <line x1="308" x2="308" y1="280" y2="352.5" class="net_42"/>
  <circle cx="308" cy="352.5" r="2" style="fill:#000" class="net_42"/>
  <line x1="308" x2="332" y1="352.5" y2="352.5" class="net_42"/>
  <line x1="283" x2="308" y1="280" y2="280" class="net_42"/>
  <line x1="308" x2="308" y1="280" y2="783" class="net_42"/>
  <line x1="308" x2="332" y1="783" y2="783" class="net_42"/>
  <line x1="362" x2="380" y1="98" y2="98" class="net_43"/>
  <line x1="380" x2="380" y1="98" y2="124" class="net_43"/>
  <line x1="380" x2="410" y1="124" y2="124" class="net_43"/>
  <line x1="440" x2="460" y1="481" y2="481" class="net_7"/>
  <line x1="460" x2="460" y1="481" y2="116.5" class="net_7"/>
  <line x1="460" x2="523" y1="116.5" y2="116.5" class="net_7"/>
  <line x1="440" x2="523" y1="131.5" y2="131.5" class="net_44"/>
  <line x1="362" x2="410" y1="184" y2="184" class="net_45"/>
  <line x1="362" x2="400" y1="184" y2="184" class="net_45"/>
  <line x1="400" x2="400" y1="184" y2="244" class="net_45"/>
  <circle cx="400" cy="184" r="2" style="fill:#000" class="net_45"/>
  <line x1="400" x2="410" y1="244" y2="244" class="net_45"/>
  <line x1="440" x2="470" y1="501" y2="501" class="net_8"/>
  <line x1="470" x2="470" y1="501" y2="176.5" class="net_8"/>
  <line x1="470" x2="523" y1="176.5" y2="176.5" class="net_8"/>
  <line x1="440" x2="523" y1="191.5" y2="191.5" class="net_46"/>
  <line x1="440" x2="500" y1="521" y2="521" class="net_9"/>
  <line x1="500" x2="500" y1="521" y2="236.5" class="net_9"/>
  <line x1="500" x2="523" y1="236.5" y2="236.5" class="net_9"/>
  <line x1="440" x2="523" y1="251.5" y2="251.5" class="net_47"/>
  <line x1="218" x2="233" y1="119" y2="119" class="net_48"/>
  <line x1="233" x2="233" y1="119" y2="345" class="net_48"/>
  <circle cx="233" cy="119" r="2" style="fill:#000" class="net_48"/>
  <line x1="233" x2="258" y1="345" y2="345" class="net_48"/>
  <line x1="218" x2="233" y1="119" y2="119" class="net_48"/>
  <line x1="233" x2="233" y1="119" y2="37" class="net_48"/>
  <line x1="233" x2="258" y1="37" y2="37" class="net_48"/>
  <line x1="288" x2="332" y1="337.5" y2="337.5" class="net_49"/>
  <line x1="288" x2="318" y1="337.5" y2="337.5" class="net_49"/>
  <line x1="318" x2="318" y1="337.5" y2="605.5" class="net_49"/>
  <circle cx="318" cy="337.5" r="2" style="fill:#000" class="net_49"/>
  <line x1="318" x2="332" y1="605.5" y2="605.5" class="net_49"/>
  <line x1="362" x2="400" y1="345" y2="345" class="net_50"/>
  <line x1="400" x2="400" y1="345" y2="352.5" class="net_50"/>
  <line x1="400" x2="410" y1="352.5" y2="352.5" class="net_50"/>
  <line x1="440" x2="523" y1="541" y2="541" class="net_11"/>
  <line x1="440" x2="510" y1="360" y2="360" class="net_51"/>
  <line x1="510" x2="510" y1="360" y2="556" class="net_51"/>
  <line x1="510" x2="523" y1="556" y2="556" class="net_51"/>
  <line x1="362" x2="400" y1="613" y2="613" class="net_53"/>
  <line x1="400" x2="400" y1="613" y2="655.5" class="net_53"/>
  <circle cx="400" cy="655.5" r="2" style="fill:#000" class="net_53"/>
  <line x1="400" x2="410" y1="655.5" y2="655.5" class="net_53"/>
  <line x1="362" x2="400" y1="613" y2="613" class="net_53"/>
  <line x1="400" x2="400" y1="613" y2="715.5" class="net_53"/>
  <line x1="400" x2="410" y1="715.5" y2="715.5" class="net_53"/>
  <line x1="440" x2="500" y1="561" y2="561" class="net_12"/>
  <line x1="500" x2="500" y1="561" y2="648" class="net_12"/>
  <line x1="500" x2="523" y1="648" y2="648" class="net_12"/>
  <line x1="440" x2="523" y1="663" y2="663" class="net_54"/>
  <line x1="440" x2="480" y1="581" y2="581" class="net_13"/>
  <line x1="480" x2="480" y1="581" y2="708" class="net_13"/>
  <line x1="480" x2="523" y1="708" y2="708" class="net_13"/>
  <line x1="440" x2="523" y1="723" y2="723" class="net_55"/>
  <line x1="288" x2="298" y1="29.5" y2="29.5" class="net_52"/>
  <line x1="298" x2="298" y1="29.5" y2="37" class="net_52"/>
  <line x1="298" x2="332" y1="37" y2="37" class="net_52"/>
  <line x1="362" x2="410" y1="775.5" y2="775.5" class="net_56"/>
  <line x1="362" x2="400" y1="775.5" y2="775.5" class="net_56"/>
  <line x1="400" x2="400" y1="775.5" y2="835.5" class="net_56"/>
  <circle cx="400" cy="775.5" r="2" style="fill:#000" class="net_56"/>
  <line x1="400" x2="410" y1="835.5" y2="835.5" class="net_56"/>
  <line x1="440" x2="470" y1="601" y2="601" class="net_14"/>
  <line x1="470" x2="470" y1="601" y2="768" class="net_14"/>
  <line x1="470" x2="523" y1="768" y2="768" class="net_14"/>
  <line x1="440" x2="523" y1="783" y2="783" class="net_57"/>
  <line x1="439.5" x2="439.5" y1="621.5" y2="640.5" class="net_15"/>
  <line x1="439.5" x2="460" y1="640.5" y2="640.5" class="net_15"/>
  <line x1="460" x2="460" y1="640.5" y2="828" class="net_15"/>
  <line x1="460" x2="523" y1="828" y2="828" class="net_15"/>
  <line x1="440" x2="523" y1="843" y2="843" class="net_58"/>
  <line x1="649" x2="686" y1="725.5" y2="725.5" class="net_22,23,24,25,26,27,28,29,30,31,32"/>
  <line x1="553" x2="643.5" y1="52" y2="52" class="net_22"/>
  <line x1="643.5" x2="643.5" y1="52" y2="715" class="net_22"/>
  <line x1="553" x2="633" y1="124" y2="124" class="net_23"/>
  <line x1="633" x2="633" y1="124" y2="735.5" class="net_23"/>
  <line x1="633" x2="643" y1="735.5" y2="735.5" class="net_23"/>
  <line x1="553" x2="623" y1="184" y2="184" class="net_24"/>
  <line x1="623" x2="623" y1="184" y2="755.5" class="net_24"/>
  <line x1="623" x2="643" y1="755.5" y2="755.5" class="net_24"/>
  <line x1="553" x2="613" y1="244" y2="244" class="net_25"/>
  <line x1="613" x2="613" y1="244" y2="775.5" class="net_25"/>
  <line x1="613" x2="643" y1="775.5" y2="775.5" class="net_25"/>
  <line x1="553" x2="603" y1="548.5" y2="548.5" class="net_26"/>
  <line x1="603" x2="603" y1="548.5" y2="795.5" class="net_26"/>
  <line x1="603" x2="643" y1="795.5" y2="795.5" class="net_26"/>
  <line x1="553" x2="593" y1="655.5" y2="655.5" class="net_27"/>
  <line x1="593" x2="593" y1="655.5" y2="815.5" class="net_27"/>
  <line x1="593" x2="643" y1="815.5" y2="815.5" class="net_27"/>
  <line x1="553" x2="583" y1="715.5" y2="715.5" class="net_28"/>
  <line x1="583" x2="583" y1="715.5" y2="835.5" class="net_28"/>
  <line x1="583" x2="643" y1="835.5" y2="835.5" class="net_28"/>
  <line x1="553" x2="573" y1="775.5" y2="775.5" class="net_29"/>
  <line x1="573" x2="573" y1="775.5" y2="855.5" class="net_29"/>
  <line x1="573" x2="643" y1="855.5" y2="855.5" class="net_29"/>
  <line x1="553" x2="563" y1="835.5" y2="835.5" class="net_30"/>
  <line x1="563" x2="563" y1="835.5" y2="875.5" class="net_30"/>
  <line x1="563" x2="643" y1="875.5" y2="875.5" class="net_30"/>
  <line x1="553" x2="643" y1="895.5" y2="895.5" class="net_31"/>
  <line x1="553" x2="643.5" y1="955.5" y2="955.5" class="net_32"/>
  <line x1="643.5" x2="643.5" y1="955.5" y2="916" class="net_32"/>
  <line x1="40" x2="131" y1="320" y2="320" class="net_18,19,20,21"/>
  <line x1="356" x2="435.5" y1="398.5" y2="398.5" class="net_2,3,4,5,6,7,8,9,10,11,12,13,14,15,16,17"/>
  <line x1="435.5" x2="435.5" y1="398.5" y2="430.5" class="net_2,3,4,5,6,7,8,9,10,11,12,13,14,15,16,17"/>
</svg>
